<svg width="70" height="70" viewBox="0 0 70 70" fill="none" xmlns="http://www.w3.org/2000/svg">
    <path d="M33.7274 17.1816H29.9092V34.9998H33.7274V17.1816Z" fill="#ADDD37"/>
    <path d="M32.4546 14.6362H29.9092V17.1817H32.4546V14.6362Z" fill="black"/>
    <path d="M35 14.6362H32.4546V17.1817H35V14.6362Z" fill="black"/>
    <path d="M37.5455 14.6362H35V17.1817H37.5455V14.6362Z" fill="black"/>
    <path d="M40.0909 14.6362H37.5454V17.1817H40.0909V14.6362Z" fill="black"/>
    <path d="M32.4546 52.8179H29.9092V55.3633H32.4546V52.8179Z" fill="black"/>
    <path d="M35 52.8179H32.4546V55.3633H35V52.8179Z" fill="black"/>
    <path d="M37.5455 52.8179H35V55.3633H37.5455V52.8179Z" fill="black"/>
    <path d="M40.0909 52.8179H37.5454V55.3633H40.0909V52.8179Z" fill="black"/>
    <path d="M17.1817 29.9092H14.6362V32.4546H17.1817V29.9092Z" fill="black"/>
    <path d="M17.1817 32.4546H14.6362V35H17.1817V32.4546Z" fill="black"/>
    <path d="M19.7271 24.8179H17.1816V27.3633H19.7271V24.8179Z" fill="black"/>
    <path d="M24.818 24.8179H19.7271V29.9088H24.818V24.8179Z" fill="#FFA219"/>
    <path d="M24.818 40.0908H19.7271V45.1817H24.818V40.0908Z" fill="#FFA219"/>
    <path d="M22.2725 22.2725H19.7271V24.8179H22.2725V22.2725Z" fill="black"/>
    <path d="M24.8179 22.2725H22.2725V24.8179H24.8179V22.2725Z" fill="white"/>
    <path d="M27.3633 24.8179H24.8179V27.3633H27.3633V24.8179Z" fill="white"/>
    <path d="M27.3633 19.7271H24.8179V24.818H27.3633V19.7271Z" fill="#FFA219"/>
    <path d="M27.3635 29.9092H17.1816V35.0001H27.3635V29.9092Z" fill="#ADDD37"/>
    <path d="M27.3633 27.3638H24.8179V29.9092H27.3633V27.3638Z" fill="#ADDD37"/>
    <path d="M27.3633 40.0908H24.8179V42.6363H27.3633V40.0908Z" fill="#ADDD37"/>
    <path d="M27.3633 45.1816H24.8179V50.2725H27.3633V45.1816Z" fill="#FFA219"/>
    <path d="M45.1817 45.1816H42.6362V50.2725H45.1817V45.1816Z" fill="#FFA219"/>
    <path d="M45.1817 19.7271H42.6362V24.818H45.1817V19.7271Z" fill="#FFA219"/>
    <path d="M45.1817 24.8179H42.6362V27.3633H45.1817V24.8179Z" fill="white"/>
    <path d="M42.6363 29.9092H40.0908V32.4546H42.6363V29.9092Z" fill="white"/>
    <path d="M27.3633 42.6362H24.8179V45.1817H27.3633V42.6362Z" fill="white"/>
    <path d="M45.1817 42.6362H42.6362V45.1817H45.1817V42.6362Z" fill="white"/>
    <path d="M29.9092 29.9092H27.3638V32.4546H29.9092V29.9092Z" fill="white"/>
    <path d="M29.9092 32.4546H27.3638V35H29.9092V32.4546Z" fill="#ADDD37"/>
    <path d="M27.3635 37.5454H17.1816V40.0909H27.3635V37.5454Z" fill="#ADDD37"/>
    <path d="M29.9092 19.7271H27.3638V29.9089H29.9092V19.7271Z" fill="#ADDD37"/>
    <path d="M29.9092 42.6362H27.3638V50.2726H29.9092V42.6362Z" fill="#ADDD37"/>
    <path d="M42.6363 42.6362H40.0908V50.2726H42.6363V42.6362Z" fill="#ADDD37"/>
    <path d="M42.6363 19.7271H40.0908V29.9089H42.6363V19.7271Z" fill="#ADDD37"/>
    <path d="M42.6363 37.5454H40.0908V40.0909H42.6363V37.5454Z" fill="white"/>
    <path d="M29.9092 37.5454H27.3638V40.0909H29.9092V37.5454Z" fill="white"/>
    <path d="M32.4546 35H29.9092V37.5455H32.4546V35Z" fill="white"/>
    <path d="M32.4546 32.4546H29.9092V35H32.4546V32.4546Z" fill="white"/>
    <path d="M40.0909 35H37.5454V37.5455H40.0909V35Z" fill="white"/>
    <path d="M52.8181 35H40.0908V37.5455H52.8181V35Z" fill="#ADDD37"/>
    <path d="M52.8181 32.4546H40.0908V35H52.8181V32.4546Z" fill="#ADDD37"/>
    <path d="M52.818 29.9092H42.6362V32.4546H52.818V29.9092Z" fill="#ADDD37"/>
    <path d="M52.818 37.5454H42.6362V40.0909H52.818V37.5454Z" fill="#ADDD37"/>
    <path d="M50.2725 40.0908H45.1816V45.1817H50.2725V40.0908Z" fill="#ADDD37"/>
    <path d="M50.2725 24.8179H45.1816V29.9088H50.2725V24.8179Z" fill="#ADDD37"/>
    <path d="M40.0909 32.4546H37.5454V35H40.0909V32.4546Z" fill="white"/>
    <path d="M24.8179 19.7271H22.2725V22.2725H24.8179V19.7271Z" fill="black"/>
    <path d="M24.8179 17.1816H22.2725V19.7271H24.8179V17.1816Z" fill="white"/>
    <path d="M22.2725 19.7271H19.7271V22.2725H22.2725V19.7271Z" fill="white"/>
    <path d="M19.7271 22.2725H17.1816V24.8179H19.7271V22.2725Z" fill="white"/>
    <path d="M19.7271 45.1816H17.1816V47.7271H19.7271V45.1816Z" fill="white"/>
    <path d="M19.7271 47.7271H17.1816V50.2725H19.7271V47.7271Z" fill="white"/>
    <path d="M17.1817 45.1816H14.6362V47.7271H17.1817V45.1816Z" fill="white"/>
    <path d="M14.6363 40.0908H12.0908V42.6363H14.6363V40.0908Z" fill="white"/>
    <path d="M22.2725 47.7271H19.7271V50.2725H22.2725V47.7271Z" fill="white"/>
    <path d="M22.2725 50.2725H19.7271V52.8179H22.2725V50.2725Z" fill="white"/>
    <path d="M47.7271 50.2725H45.1816V52.8179H47.7271V50.2725Z" fill="white"/>
    <path d="M42.6363 55.3638H40.0908V57.9092H42.6363V55.3638Z" fill="white"/>
    <path d="M47.7271 52.8218H45.1816V55.3672H47.7271V52.8218Z" fill="white"/>
    <path d="M50.2725 47.7271H47.7271V50.2725H50.2725V47.7271Z" fill="white"/>
    <path d="M52.8179 45.1816H50.2725V47.7271H52.8179V45.1816Z" fill="white"/>
    <path d="M50.2725 50.2725H47.7271V52.8179H50.2725V50.2725Z" fill="white"/>
    <path d="M52.8179 47.7271H50.2725V50.2725H52.8179V47.7271Z" fill="white"/>
    <path d="M55.3633 45.1816H52.8179V47.7271H55.3633V45.1816Z" fill="white"/>
    <path d="M57.9092 40.0908H55.3638V42.6363H57.9092V40.0908Z" fill="white"/>
    <path d="M55.3633 40.0908H52.8179V45.1817H55.3633V40.0908Z" fill="white"/>
    <path d="M57.9092 29.9092H55.3638V40.091H57.9092V29.9092Z" fill="white"/>
    <path d="M55.3633 24.8179H52.8179V29.9088H55.3633V24.8179Z" fill="white"/>
    <path d="M52.8179 22.2725H50.2725V24.8179H52.8179V22.2725Z" fill="white"/>
    <path d="M50.2725 19.7271H47.7271V22.2725H50.2725V19.7271Z" fill="white"/>
    <path d="M47.7271 17.1816H45.1816V19.7271H47.7271V17.1816Z" fill="white"/>
    <path d="M45.1817 14.6362H40.0908V17.1817H45.1817V14.6362Z" fill="white"/>
    <path d="M29.9088 14.6362H24.8179V17.1817H29.9088V14.6362Z" fill="white"/>
    <path d="M40.091 12.0908H29.9092V14.6363H40.091V12.0908Z" fill="white"/>
    <path d="M24.8179 50.2725H22.2725V52.8179H24.8179V50.2725Z" fill="white"/>
    <path d="M24.8179 52.8179H22.2725V55.3633H24.8179V52.8179Z" fill="white"/>
    <path d="M29.9092 55.3638H27.3638V57.9092H29.9092V55.3638Z" fill="white"/>
    <path d="M29.9088 52.8179H24.8179V55.3633H29.9088V52.8179Z" fill="white"/>
    <path d="M45.1817 52.8218H40.0908V55.3672H45.1817V52.8218Z" fill="white"/>
    <path d="M40.091 55.3638H29.9092V57.9092H40.091V55.3638Z" fill="white"/>
    <path d="M17.1817 24.8179H14.6362V29.9088H17.1817V24.8179Z" fill="white"/>
    <path d="M17.1817 40.0908H14.6362V45.1817H17.1817V40.0908Z" fill="white"/>
    <path d="M14.6363 29.9092H12.0908V40.091H14.6363V29.9092Z" fill="white"/>
    <path d="M22.2725 45.1816H19.7271V47.7271H22.2725V45.1816Z" fill="black"/>
    <path d="M24.8179 45.1816H22.2725V47.7271H24.8179V45.1816Z" fill="white"/>
    <path d="M24.8179 47.7271H22.2725V50.2725H24.8179V47.7271Z" fill="black"/>
    <path d="M50.2725 45.1816H47.7271V47.7271H50.2725V45.1816Z" fill="black"/>
    <path d="M47.7271 45.1816H45.1816V47.7271H47.7271V45.1816Z" fill="white"/>
    <path d="M47.7271 47.7271H45.1816V50.2725H47.7271V47.7271Z" fill="black"/>
    <path d="M50.2725 22.2725H47.7271V24.8179H50.2725V22.2725Z" fill="black"/>
    <path d="M47.7271 22.2725H45.1816V24.8179H47.7271V22.2725Z" fill="white"/>
    <path d="M47.7271 19.7271H45.1816V22.2725H47.7271V19.7271Z" fill="black"/>
    <path d="M27.3633 17.1816H24.8179V19.7271H27.3633V17.1816Z" fill="black"/>
    <path d="M29.9092 17.1816H27.3638V19.7271H29.9092V17.1816Z" fill="black"/>
    <path d="M32.4546 37.5454H29.9092V52.8181H32.4546V37.5454Z" fill="#ADDD37"/>
    <path d="M40.0909 37.5454H35V47.7272H40.0909V37.5454Z" fill="#ADDD37"/>
    <path d="M40.0909 17.1816H37.5454V32.4544H40.0909V17.1816Z" fill="#ADDD37"/>
    <path d="M37.5452 17.1816H33.7271V37.5453H37.5452V17.1816Z" fill="#ADDD37"/>
    <path d="M35 35H32.4546V52.8182H35V35Z" fill="#ADDD37"/>
    <path d="M42.6363 17.1816H40.0908V19.7271H42.6363V17.1816Z" fill="black"/>
    <path d="M45.1817 17.1816H42.6362V19.7271H45.1817V17.1816Z" fill="black"/>
    <path d="M27.3633 50.2725H24.8179V52.8179H27.3633V50.2725Z" fill="black"/>
    <path d="M29.9092 50.2725H27.3638V52.8179H29.9092V50.2725Z" fill="black"/>
    <path d="M42.6363 50.2725H40.0908V52.8179H42.6363V50.2725Z" fill="black"/>
    <path d="M45.1817 50.2725H42.6362V52.8179H45.1817V50.2725Z" fill="black"/>
    <path d="M19.7271 27.3638H17.1816V29.9092H19.7271V27.3638Z" fill="black"/>
    <path d="M19.7271 29.9092H17.1816V32.4546H19.7271V29.9092Z" fill="#60721F"/>
    <path d="M22.2725 24.8179H19.7271V29.9088H22.2725V24.8179Z" fill="#60721F"/>
    <path d="M19.7271 32.4546H17.1816V35H19.7271V32.4546Z" fill="#60721F"/>
    <path d="M19.7271 37.5454H17.1816V40.0909H19.7271V37.5454Z" fill="#60721F"/>
    <path d="M22.2725 40.0908H19.7271V42.6363H22.2725V40.0908Z" fill="#60721F"/>
    <path d="M22.2725 29.9092H19.7271V32.4546H22.2725V29.9092Z" fill="#98BA31"/>
    <path d="M24.8179 24.8179H22.2725V29.9088H24.8179V24.8179Z" fill="#98BA31"/>
    <path d="M27.3633 19.7271H24.8179V24.818H27.3633V19.7271Z" fill="#98BA31"/>
    <path d="M22.2725 32.4546H19.7271V35H22.2725V32.4546Z" fill="#98BA31"/>
    <path d="M22.2725 37.5454H19.7271V40.0909H22.2725V37.5454Z" fill="#98BA31"/>
    <path d="M29.9089 35H17.1816V37.5455H29.9089V35Z" fill="#ADDD37"/>
    <path d="M19.7271 35H17.1816V37.5455H19.7271V35Z" fill="#60721F"/>
    <path d="M22.2725 35H19.7271V37.5455H22.2725V35Z" fill="#98BA31"/>
    <path d="M24.8179 40.0908H22.2725V42.6363H24.8179V40.0908Z" fill="#98BA31"/>
    <path d="M29.9092 45.1816H27.3638V47.7271H29.9092V45.1816Z" fill="#98BA31"/>
    <path d="M32.4546 47.7271H29.9092V50.2725H32.4546V47.7271Z" fill="#98BA31"/>
    <path d="M40.091 47.7271H32.4546V50.2725H40.091V47.7271Z" fill="#98BA31"/>
    <path d="M42.6363 45.1816H40.0908V47.7271H42.6363V45.1816Z" fill="#98BA31"/>
    <path d="M45.1817 45.1816H42.6362V47.7271H45.1817V45.1816Z" fill="#98BA31"/>
    <path d="M52.8179 29.9092H50.2725V32.4546H52.8179V29.9092Z" fill="#D1FF43"/>
    <path d="M50.2725 27.3638H47.7271V29.9092H50.2725V27.3638Z" fill="#D1FF43"/>
    <path d="M50.2725 24.8179H47.7271V27.3633H50.2725V24.8179Z" fill="#D1FF43"/>
    <path d="M47.7271 24.8179H45.1816V27.3633H47.7271V24.8179Z" fill="#D1FF43"/>
    <path d="M45.1817 22.2725H42.6362V24.8179H45.1817V22.2725Z" fill="#D1FF43"/>
    <path d="M45.1817 19.7271H42.6362V22.2725H45.1817V19.7271Z" fill="#D1FF43"/>
    <path d="M42.6363 19.7271H40.0908V22.2725H42.6363V19.7271Z" fill="#D1FF43"/>
    <path d="M40.0909 17.1816H37.5454V19.7271H40.0909V17.1816Z" fill="#D1FF43"/>
    <path d="M37.5455 17.1816H35V19.7271H37.5455V17.1816Z" fill="#D1FF43"/>
    <path d="M22.2725 42.6362H19.7271V45.1817H22.2725V42.6362Z" fill="#60721F"/>
    <path d="M24.8179 42.6362H22.2725V45.1817H24.8179V42.6362Z" fill="#60721F"/>
    <path d="M27.3633 45.1816H24.8179V47.7271H27.3633V45.1816Z" fill="#60721F"/>
    <path d="M27.3633 47.7271H24.8179V50.2725H27.3633V47.7271Z" fill="#60721F"/>
    <path d="M29.9092 47.7271H27.3638V50.2725H29.9092V47.7271Z" fill="#60721F"/>
    <path d="M32.4546 50.2725H29.9092V52.8179H32.4546V50.2725Z" fill="#60721F"/>
    <path d="M40.091 50.2725H32.4546V52.8179H40.091V50.2725Z" fill="#60721F"/>
    <path d="M42.6363 47.7271H40.0908V50.2725H42.6363V47.7271Z" fill="#60721F"/>
    <path d="M45.1817 47.7271H42.6362V50.2725H45.1817V47.7271Z" fill="#60721F"/>
    <path d="M52.8179 24.8179H50.2725V27.3633H52.8179V24.8179Z" fill="black"/>
    <path d="M52.8179 27.3638H50.2725V29.9092H52.8179V27.3638Z" fill="black"/>
    <path d="M52.8179 40.0908H50.2725V42.6363H52.8179V40.0908Z" fill="black"/>
    <path d="M52.8179 42.6362H50.2725V45.1817H52.8179V42.6362Z" fill="black"/>
    <path d="M19.7271 40.0908H17.1816V42.6363H19.7271V40.0908Z" fill="black"/>
    <path d="M19.7271 42.6362H17.1816V45.1817H19.7271V42.6362Z" fill="black"/>
    <path d="M17.1817 35H14.6362V37.5455H17.1817V35Z" fill="black"/>
    <path d="M17.1817 37.5454H14.6362V40.0909H17.1817V37.5454Z" fill="black"/>
    <path d="M55.3633 29.9092H52.8179V32.4546H55.3633V29.9092Z" fill="black"/>
    <path d="M55.3633 32.4546H52.8179V35H55.3633V32.4546Z" fill="black"/>
    <path d="M55.3633 35H52.8179V37.5455H55.3633V35Z" fill="black"/>
    <path d="M55.3633 37.5454H52.8179V40.0909H55.3633V37.5454Z" fill="black"/>
    <path d="M29.9092 27.3638H27.3638V29.9092H29.9092V27.3638Z" fill="white"/>
    <path d="M29.9092 40.0908H27.3638V42.6363H29.9092V40.0908Z" fill="white"/>
    <path d="M42.6363 27.3638H40.0908V29.9092H42.6363V27.3638Z" fill="white"/>
    <path d="M42.6363 40.0908H40.0908V42.6363H42.6363V40.0908Z" fill="white"/>
    <path d="M45.1817 40.0908H42.6362V42.6363H45.1817V40.0908Z" fill="#ADDD37"/>
    <path d="M45.1817 27.3638H42.6362V29.9092H45.1817V27.3638Z" fill="#ADDD37"/>
</svg>
