<svg width="70" height="70" viewBox="0 0 70 70" fill="none" xmlns="http://www.w3.org/2000/svg">
    <path d="M22.2716 12.0908H19.7236V14.6388H22.2716V12.0908Z" fill="white"/>
    <path d="M24.818 12.0908H22.27V14.6388H24.818V12.0908Z" fill="white"/>
    <path d="M27.3674 12.0908H24.8193V14.6388H27.3674V12.0908Z" fill="white"/>
    <path d="M29.9142 12.0908H27.3662V14.6388H29.9142V12.0908Z" fill="white"/>
    <path d="M32.448 12.0908H29.8999V14.6388H32.448V12.0908Z" fill="white"/>
    <path d="M34.9962 12.0908H32.4482V14.6388H34.9962V12.0908Z" fill="white"/>
    <path d="M37.5442 12.0908H34.9961V14.6388H37.5442V12.0908Z" fill="white"/>
    <path d="M40.0909 12.0908H37.543V14.6388H40.0909V12.0908Z" fill="white"/>
    <path d="M42.6404 12.0908H40.0923V14.6388H42.6404V12.0908Z" fill="white"/>
    <path d="M45.1729 12.0908H42.625V14.6388H45.1729V12.0908Z" fill="white"/>
    <path d="M47.7209 12.0908H45.1729V14.6388H47.7209V12.0908Z" fill="white"/>
    <path d="M50.2686 12.0908H47.7207V14.6388H50.2686V12.0908Z" fill="white"/>
    <path d="M19.7223 14.6387H17.1743V17.1867H19.7223V14.6387Z" fill="white"/>
    <path d="M22.2716 14.6387H19.7236V17.1867H22.2716V14.6387Z" fill="black"/>
    <path d="M24.818 14.6387H22.27V17.1867H24.818V14.6387Z" fill="black"/>
    <path d="M27.3674 14.6387H24.8193V17.1867H27.3674V14.6387Z" fill="black"/>
    <path d="M29.9142 14.6387H27.3662V17.1867H29.9142V14.6387Z" fill="black"/>
    <path d="M32.448 14.6387H29.8999V17.1867H32.448V14.6387Z" fill="black"/>
    <path d="M34.9962 14.6387H32.4482V17.1867H34.9962V14.6387Z" fill="black"/>
    <path d="M37.5442 14.6387H34.9961V17.1867H37.5442V14.6387Z" fill="black"/>
    <path d="M40.0909 14.6387H37.543V17.1867H40.0909V14.6387Z" fill="black"/>
    <path d="M42.6404 14.6387H40.0923V17.1867H42.6404V14.6387Z" fill="black"/>
    <path d="M45.1729 14.6387H42.625V17.1867H45.1729V14.6387Z" fill="black"/>
    <path d="M47.7209 14.6387H45.1729V17.1867H47.7209V14.6387Z" fill="black"/>
    <path d="M50.2686 14.6387H47.7207V17.1867H50.2686V14.6387Z" fill="black"/>
    <path d="M52.8171 14.6387H50.269V17.1867H52.8171V14.6387Z" fill="white"/>
    <path d="M17.1896 17.1865H14.6416V19.7345H17.1896V17.1865Z" fill="white"/>
    <path d="M19.7223 17.1865H17.1743V19.7345H19.7223V17.1865Z" fill="black"/>
    <path d="M22.2716 17.1865H19.7236V19.7345H22.2716V17.1865Z" fill="#E3E3E3"/>
    <path d="M24.818 17.1865H22.27V19.7345H24.818V17.1865Z" fill="#E3E3E3"/>
    <path d="M27.3674 17.1865H24.8193V19.7345H27.3674V17.1865Z" fill="white"/>
    <path d="M29.9142 17.1865H27.3662V19.7345H29.9142V17.1865Z" fill="white"/>
    <path d="M32.448 17.1865H29.8999V19.7345H32.448V17.1865Z" fill="#E3E3E3"/>
    <path d="M34.9962 17.1865H32.4482V19.7345H34.9962V17.1865Z" fill="white"/>
    <path d="M37.5442 17.1865H34.9961V19.7345H37.5442V17.1865Z" fill="white"/>
    <path d="M40.0909 17.1865H37.543V19.7345H40.0909V17.1865Z" fill="white"/>
    <path d="M42.6404 17.1865H40.0923V19.7345H42.6404V17.1865Z" fill="white"/>
    <path d="M45.1729 17.1865H42.625V19.7345H45.1729V17.1865Z" fill="#E3E3E3"/>
    <path d="M47.7209 17.1865H45.1729V19.7345H47.7209V17.1865Z" fill="#E3E3E3"/>
    <path d="M50.2686 17.1865H47.7207V19.7345H50.2686V17.1865Z" fill="white"/>
    <path d="M52.8171 17.1865H50.269V19.7345H52.8171V17.1865Z" fill="white"/>
    <path d="M55.3648 17.1865H52.8169V19.7345H55.3648V17.1865Z" fill="white"/>
    <path d="M14.6427 19.7207H12.0947V22.2687H14.6427V19.7207Z" fill="white"/>
    <path d="M17.1896 19.7207H14.6416V22.2687H17.1896V19.7207Z" fill="black"/>
    <path d="M19.7223 19.7207H17.1743V22.2687H19.7223V19.7207Z" fill="#8C8C8C"/>
    <path d="M22.2716 19.7207H19.7236V22.2687H22.2716V19.7207Z" fill="#E3E3E3"/>
    <path d="M24.818 19.7207H22.27V22.2687H24.818V19.7207Z" fill="#E3E3E3"/>
    <path d="M27.3674 19.7207H24.8193V22.2687H27.3674V19.7207Z" fill="#E3E3E3"/>
    <path d="M29.9142 19.7207H27.3662V22.2687H29.9142V19.7207Z" fill="#E3E3E3"/>
    <path d="M32.448 19.7207H29.8999V22.2687H32.448V19.7207Z" fill="#E3E3E3"/>
    <path d="M34.9962 19.7207H32.4482V22.2687H34.9962V19.7207Z" fill="#E3E3E3"/>
    <path d="M37.5442 19.7207H34.9961V22.2687H37.5442V19.7207Z" fill="#E3E3E3"/>
    <path d="M40.0909 19.7207H37.543V22.2687H40.0909V19.7207Z" fill="#E3E3E3"/>
    <path d="M42.6404 19.7207H40.0923V22.2687H42.6404V19.7207Z" fill="#E3E3E3"/>
    <path d="M45.1729 19.7207H42.625V22.2687H45.1729V19.7207Z" fill="#E3E3E3"/>
    <path d="M47.7209 19.7207H45.1729V22.2687H47.7209V19.7207Z" fill="#E3E3E3"/>
    <path d="M50.2686 19.7207H47.7207V22.2687H50.2686V19.7207Z" fill="#E3E3E3"/>
    <path d="M52.8171 19.7207H50.269V22.2687H52.8171V19.7207Z" fill="#E3E3E3"/>
    <path d="M55.3648 19.7207H52.8169V22.2687H55.3648V19.7207Z" fill="black"/>
    <path d="M57.8977 19.7207H55.3496V22.2687H57.8977V19.7207Z" fill="white"/>
    <path d="M14.6427 22.2676H12.0947V24.8156H14.6427V22.2676Z" fill="white"/>
    <path d="M17.1896 22.2676H14.6416V24.8156H17.1896V22.2676Z" fill="black"/>
    <path d="M19.7223 22.2676H17.1743V24.8156H19.7223V22.2676Z" fill="#8C8C8C"/>
    <path d="M22.2716 22.2676H19.7236V24.8156H22.2716V22.2676Z" fill="#E3E3E3"/>
    <path d="M24.818 22.2676H22.27V24.8156H24.818V22.2676Z" fill="black"/>
    <path d="M27.3674 22.2676H24.8193V24.8156H27.3674V22.2676Z" fill="black"/>
    <path d="M29.9142 22.2676H27.3662V24.8156H29.9142V22.2676Z" fill="#E3E3E3"/>
    <path d="M32.448 22.2676H29.8999V24.8156H32.448V22.2676Z" fill="#E3E3E3"/>
    <path d="M34.9962 22.2676H32.4482V24.8156H34.9962V22.2676Z" fill="black"/>
    <path d="M37.5442 22.2676H34.9961V24.8156H37.5442V22.2676Z" fill="black"/>
    <path d="M40.0909 22.2676H37.543V24.8156H40.0909V22.2676Z" fill="black"/>
    <path d="M42.6404 22.2676H40.0923V24.8156H42.6404V22.2676Z" fill="#E3E3E3"/>
    <path d="M45.1729 22.2676H42.625V24.8156H45.1729V22.2676Z" fill="#E3E3E3"/>
    <path d="M47.7209 22.2676H45.1729V24.8156H47.7209V22.2676Z" fill="black"/>
    <path d="M50.2686 22.2676H47.7207V24.8156H50.2686V22.2676Z" fill="black"/>
    <path d="M52.8171 22.2676H50.269V24.8156H52.8171V22.2676Z" fill="#E3E3E3"/>
    <path d="M55.3648 22.2676H52.8169V24.8156H55.3648V22.2676Z" fill="black"/>
    <path d="M57.8977 22.2676H55.3496V24.8156H57.8977V22.2676Z" fill="white"/>
    <path d="M14.6427 24.8154H12.0947V27.3634H14.6427V24.8154Z" fill="white"/>
    <path d="M17.1896 24.8154H14.6416V27.3634H17.1896V24.8154Z" fill="black"/>
    <path d="M19.7223 24.8154H17.1743V27.3634H19.7223V24.8154Z" fill="#8C8C8C"/>
    <path d="M22.2716 24.8154H19.7236V27.3634H22.2716V24.8154Z" fill="#E3E3E3"/>
    <path d="M24.818 24.8154H22.27V27.3634H24.818V24.8154Z" fill="black"/>
    <path d="M27.3674 24.8154H24.8193V27.3634H27.3674V24.8154Z" fill="#E3E3E3"/>
    <path d="M29.9142 24.8154H27.3662V27.3634H29.9142V24.8154Z" fill="#E3E3E3"/>
    <path d="M32.448 24.8154H29.8999V27.3634H32.448V24.8154Z" fill="black"/>
    <path d="M34.9962 24.8154H32.4482V27.3634H34.9962V24.8154Z" fill="#E3E3E3"/>
    <path d="M37.5442 24.8154H34.9961V27.3634H37.5442V24.8154Z" fill="#E3E3E3"/>
    <path d="M40.0909 24.8154H37.543V27.3634H40.0909V24.8154Z" fill="#E3E3E3"/>
    <path d="M42.6404 24.8154H40.0923V27.3634H42.6404V24.8154Z" fill="black"/>
    <path d="M45.1729 24.8154H42.625V27.3634H45.1729V24.8154Z" fill="#E3E3E3"/>
    <path d="M47.7209 24.8154H45.1729V27.3634H47.7209V24.8154Z" fill="#E3E3E3"/>
    <path d="M50.2686 24.8154H47.7207V27.3634H50.2686V24.8154Z" fill="black"/>
    <path d="M52.8171 24.8154H50.269V27.3634H52.8171V24.8154Z" fill="#E3E3E3"/>
    <path d="M55.3648 24.8154H52.8169V27.3634H55.3648V24.8154Z" fill="black"/>
    <path d="M57.8977 24.8154H55.3496V27.3634H57.8977V24.8154Z" fill="white"/>
    <path d="M14.6427 27.3633H12.0947V29.9113H14.6427V27.3633Z" fill="white"/>
    <path d="M17.1896 27.3633H14.6416V29.9113H17.1896V27.3633Z" fill="black"/>
    <path d="M19.7223 27.3633H17.1743V29.9113H19.7223V27.3633Z" fill="#8C8C8C"/>
    <path d="M22.2716 27.3633H19.7236V29.9113H22.2716V27.3633Z" fill="#E3E3E3"/>
    <path d="M24.818 27.3633H22.27V29.9113H24.818V27.3633Z" fill="black"/>
    <path d="M27.3674 27.3633H24.8193V29.9113H27.3674V27.3633Z" fill="#E3E3E3"/>
    <path d="M29.9142 27.3633H27.3662V29.9113H29.9142V27.3633Z" fill="#E3E3E3"/>
    <path d="M32.448 27.3633H29.8999V29.9113H32.448V27.3633Z" fill="black"/>
    <path d="M34.9962 27.3633H32.4482V29.9113H34.9962V27.3633Z" fill="#E3E3E3"/>
    <path d="M37.5442 27.3633H34.9961V29.9113H37.5442V27.3633Z" fill="#E3E3E3"/>
    <path d="M40.0909 27.3633H37.543V29.9113H40.0909V27.3633Z" fill="#E3E3E3"/>
    <path d="M42.6404 27.3633H40.0923V29.9113H42.6404V27.3633Z" fill="black"/>
    <path d="M45.1729 27.3633H42.625V29.9113H45.1729V27.3633Z" fill="#E3E3E3"/>
    <path d="M47.7209 27.3633H45.1729V29.9113H47.7209V27.3633Z" fill="#E3E3E3"/>
    <path d="M50.2686 27.3633H47.7207V29.9113H50.2686V27.3633Z" fill="black"/>
    <path d="M52.8171 27.3633H50.269V29.9113H52.8171V27.3633Z" fill="#E3E3E3"/>
    <path d="M55.3648 27.3633H52.8169V29.9113H55.3648V27.3633Z" fill="black"/>
    <path d="M57.8977 27.3633H55.3496V29.9113H57.8977V27.3633Z" fill="white"/>
    <path d="M14.6427 29.9111H12.0947V32.4591H14.6427V29.9111Z" fill="white"/>
    <path d="M17.1896 29.9111H14.6416V32.4591H17.1896V29.9111Z" fill="black"/>
    <path d="M19.7223 29.9111H17.1743V32.4591H19.7223V29.9111Z" fill="#8C8C8C"/>
    <path d="M22.2716 29.9111H19.7236V32.4591H22.2716V29.9111Z" fill="#E3E3E3"/>
    <path d="M24.818 29.9111H22.27V32.4591H24.818V29.9111Z" fill="black"/>
    <path d="M27.3674 29.9111H24.8193V32.4591H27.3674V29.9111Z" fill="#E3E3E3"/>
    <path d="M29.9142 29.9111H27.3662V32.4591H29.9142V29.9111Z" fill="#E3E3E3"/>
    <path d="M32.448 29.9111H29.8999V32.4591H32.448V29.9111Z" fill="black"/>
    <path d="M34.9962 29.9111H32.4482V32.4591H34.9962V29.9111Z" fill="#E3E3E3"/>
    <path d="M37.5442 29.9111H34.9961V32.4591H37.5442V29.9111Z" fill="#E3E3E3"/>
    <path d="M40.0909 29.9111H37.543V32.4591H40.0909V29.9111Z" fill="#E3E3E3"/>
    <path d="M42.6404 29.9111H40.0923V32.4591H42.6404V29.9111Z" fill="black"/>
    <path d="M45.1729 29.9111H42.625V32.4591H45.1729V29.9111Z" fill="#E3E3E3"/>
    <path d="M47.7209 29.9111H45.1729V32.4591H47.7209V29.9111Z" fill="#E3E3E3"/>
    <path d="M50.2686 29.9111H47.7207V32.4591H50.2686V29.9111Z" fill="black"/>
    <path d="M52.8171 29.9111H50.269V32.4591H52.8171V29.9111Z" fill="#E3E3E3"/>
    <path d="M55.3648 29.9111H52.8169V32.4591H55.3648V29.9111Z" fill="black"/>
    <path d="M57.8977 29.9111H55.3496V32.4591H57.8977V29.9111Z" fill="white"/>
    <path d="M14.6427 32.4443H12.0947V34.9923H14.6427V32.4443Z" fill="white"/>
    <path d="M17.1896 32.4443H14.6416V34.9923H17.1896V32.4443Z" fill="black"/>
    <path d="M19.7223 32.4443H17.1743V34.9923H19.7223V32.4443Z" fill="#8C8C8C"/>
    <path d="M22.2716 32.4443H19.7236V34.9923H22.2716V32.4443Z" fill="#E3E3E3"/>
    <path d="M24.818 32.4443H22.27V34.9923H24.818V32.4443Z" fill="black"/>
    <path d="M27.3674 32.4443H24.8193V34.9923H27.3674V32.4443Z" fill="#E3E3E3"/>
    <path d="M29.9142 32.4443H27.3662V34.9923H29.9142V32.4443Z" fill="#E3E3E3"/>
    <path d="M32.448 32.4443H29.8999V34.9923H32.448V32.4443Z" fill="black"/>
    <path d="M34.9962 32.4443H32.4482V34.9923H34.9962V32.4443Z" fill="#E3E3E3"/>
    <path d="M37.5442 32.4443H34.9961V34.9923H37.5442V32.4443Z" fill="#E3E3E3"/>
    <path d="M40.0909 32.4443H37.543V34.9923H40.0909V32.4443Z" fill="#E3E3E3"/>
    <path d="M42.6404 32.4443H40.0923V34.9923H42.6404V32.4443Z" fill="black"/>
    <path d="M45.1729 32.4443H42.625V34.9923H45.1729V32.4443Z" fill="#E3E3E3"/>
    <path d="M47.7209 32.4443H45.1729V34.9923H47.7209V32.4443Z" fill="#E3E3E3"/>
    <path d="M50.2686 32.4443H47.7207V34.9923H50.2686V32.4443Z" fill="black"/>
    <path d="M52.8171 32.4443H50.269V34.9923H52.8171V32.4443Z" fill="#E3E3E3"/>
    <path d="M55.3648 32.4443H52.8169V34.9923H55.3648V32.4443Z" fill="black"/>
    <path d="M57.8977 32.4443H55.3496V34.9923H57.8977V32.4443Z" fill="white"/>
    <path d="M14.6427 34.9922H12.0947V37.5402H14.6427V34.9922Z" fill="white"/>
    <path d="M17.1896 34.9922H14.6416V37.5402H17.1896V34.9922Z" fill="black"/>
    <path d="M19.7223 34.9922H17.1743V37.5402H19.7223V34.9922Z" fill="#8C8C8C"/>
    <path d="M22.2716 34.9922H19.7236V37.5402H22.2716V34.9922Z" fill="#E3E3E3"/>
    <path d="M24.818 34.9922H22.27V37.5402H24.818V34.9922Z" fill="black"/>
    <path d="M27.3674 34.9922H24.8193V37.5402H27.3674V34.9922Z" fill="#E3E3E3"/>
    <path d="M29.9142 34.9922H27.3662V37.5402H29.9142V34.9922Z" fill="#E3E3E3"/>
    <path d="M32.448 34.9922H29.8999V37.5402H32.448V34.9922Z" fill="black"/>
    <path d="M34.9962 34.9922H32.4482V37.5402H34.9962V34.9922Z" fill="#E3E3E3"/>
    <path d="M37.5442 34.9922H34.9961V37.5402H37.5442V34.9922Z" fill="#E3E3E3"/>
    <path d="M40.0909 34.9922H37.543V37.5402H40.0909V34.9922Z" fill="#E3E3E3"/>
    <path d="M42.6404 34.9922H40.0923V37.5402H42.6404V34.9922Z" fill="black"/>
    <path d="M45.1729 34.9922H42.625V37.5402H45.1729V34.9922Z" fill="#E3E3E3"/>
    <path d="M47.7209 34.9922H45.1729V37.5402H47.7209V34.9922Z" fill="#E3E3E3"/>
    <path d="M50.2686 34.9922H47.7207V37.5402H50.2686V34.9922Z" fill="black"/>
    <path d="M52.8171 34.9922H50.269V37.5402H52.8171V34.9922Z" fill="#E3E3E3"/>
    <path d="M55.3648 34.9922H52.8169V37.5402H55.3648V34.9922Z" fill="black"/>
    <path d="M57.8977 34.9922H55.3496V37.5402H57.8977V34.9922Z" fill="white"/>
    <path d="M14.6427 37.54H12.0947V40.088H14.6427V37.54Z" fill="white"/>
    <path d="M17.1896 37.54H14.6416V40.088H17.1896V37.54Z" fill="black"/>
    <path d="M19.7223 37.54H17.1743V40.088H19.7223V37.54Z" fill="#8C8C8C"/>
    <path d="M22.2716 37.54H19.7236V40.088H22.2716V37.54Z" fill="#E3E3E3"/>
    <path d="M24.818 37.54H22.27V40.088H24.818V37.54Z" fill="black"/>
    <path d="M27.3674 37.54H24.8193V40.088H27.3674V37.54Z" fill="#E3E3E3"/>
    <path d="M29.9142 37.54H27.3662V40.088H29.9142V37.54Z" fill="#E3E3E3"/>
    <path d="M32.448 37.54H29.8999V40.088H32.448V37.54Z" fill="#E3E3E3"/>
    <path d="M34.9962 37.54H32.4482V40.088H34.9962V37.54Z" fill="black"/>
    <path d="M37.5442 37.54H34.9961V40.088H37.5442V37.54Z" fill="black"/>
    <path d="M40.0909 37.54H37.543V40.088H40.0909V37.54Z" fill="black"/>
    <path d="M42.6404 37.54H40.0923V40.088H42.6404V37.54Z" fill="#E3E3E3"/>
    <path d="M45.1729 37.54H42.625V40.088H45.1729V37.54Z" fill="#E3E3E3"/>
    <path d="M47.7209 37.54H45.1729V40.088H47.7209V37.54Z" fill="#E3E3E3"/>
    <path d="M50.2686 37.54H47.7207V40.088H50.2686V37.54Z" fill="black"/>
    <path d="M52.8171 37.54H50.269V40.088H52.8171V37.54Z" fill="#E3E3E3"/>
    <path d="M55.3648 37.54H52.8169V40.088H55.3648V37.54Z" fill="black"/>
    <path d="M57.8977 37.54H55.3496V40.088H57.8977V37.54Z" fill="white"/>
    <path d="M14.6427 40.0879H12.0947V42.6359H14.6427V40.0879Z" fill="white"/>
    <path d="M17.1896 40.0879H14.6416V42.6359H17.1896V40.0879Z" fill="black"/>
    <path d="M19.7223 40.0879H17.1743V42.6359H19.7223V40.0879Z" fill="#8C8C8C"/>
    <path d="M22.2716 40.0879H19.7236V42.6359H22.2716V40.0879Z" fill="#E3E3E3"/>
    <path d="M24.818 40.0879H22.27V42.6359H24.818V40.0879Z" fill="black"/>
    <path d="M27.3674 40.0879H24.8193V42.6359H27.3674V40.0879Z" fill="black"/>
    <path d="M29.9142 40.0879H27.3662V42.6359H29.9142V40.0879Z" fill="#E3E3E3"/>
    <path d="M32.448 40.0879H29.8999V42.6359H32.448V40.0879Z" fill="#E3E3E3"/>
    <path d="M34.9962 40.0879H32.4482V42.6359H34.9962V40.0879Z" fill="#E3E3E3"/>
    <path d="M37.5442 40.0879H34.9961V42.6359H37.5442V40.0879Z" fill="#E3E3E3"/>
    <path d="M40.0909 40.0879H37.543V42.6359H40.0909V40.0879Z" fill="#E3E3E3"/>
    <path d="M42.6404 40.0879H40.0923V42.6359H42.6404V40.0879Z" fill="black"/>
    <path d="M45.1729 40.0879H42.625V42.6359H45.1729V40.0879Z" fill="#E3E3E3"/>
    <path d="M47.7209 40.0879H45.1729V42.6359H47.7209V40.0879Z" fill="black"/>
    <path d="M50.2686 40.0879H47.7207V42.6359H50.2686V40.0879Z" fill="black"/>
    <path d="M52.8171 40.0879H50.269V42.6359H52.8171V40.0879Z" fill="#E3E3E3"/>
    <path d="M55.3648 40.0879H52.8169V42.6359H55.3648V40.0879Z" fill="black"/>
    <path d="M57.8977 40.0879H55.3496V42.6359H57.8977V40.0879Z" fill="white"/>
    <path d="M14.6427 42.6367H12.0947V45.1847H14.6427V42.6367Z" fill="white"/>
    <path d="M17.1896 42.6367H14.6416V45.1847H17.1896V42.6367Z" fill="black"/>
    <path d="M19.7223 42.6367H17.1743V45.1847H19.7223V42.6367Z" fill="#8C8C8C"/>
    <path d="M22.2716 42.6367H19.7236V45.1847H22.2716V42.6367Z" fill="#E3E3E3"/>
    <path d="M24.818 42.6367H22.27V45.1847H24.818V42.6367Z" fill="#E3E3E3"/>
    <path d="M27.3674 42.6367H24.8193V45.1847H27.3674V42.6367Z" fill="#E3E3E3"/>
    <path d="M29.9142 42.6367H27.3662V45.1847H29.9142V42.6367Z" fill="#E3E3E3"/>
    <path d="M32.448 42.6367H29.8999V45.1847H32.448V42.6367Z" fill="#E3E3E3"/>
    <path d="M34.9962 42.6367H32.4482V45.1847H34.9962V42.6367Z" fill="#E3E3E3"/>
    <path d="M37.5442 42.6367H34.9961V45.1847H37.5442V42.6367Z" fill="#E3E3E3"/>
    <path d="M40.0909 42.6367H37.543V45.1847H40.0909V42.6367Z" fill="#E3E3E3"/>
    <path d="M42.6404 42.6367H40.0923V45.1847H42.6404V42.6367Z" fill="#E3E3E3"/>
    <path d="M45.1729 42.6367H42.625V45.1847H45.1729V42.6367Z" fill="#E3E3E3"/>
    <path d="M47.7209 42.6367H45.1729V45.1847H47.7209V42.6367Z" fill="#E3E3E3"/>
    <path d="M50.2686 42.6367H47.7207V45.1847H50.2686V42.6367Z" fill="#E3E3E3"/>
    <path d="M52.8171 42.6367H50.269V45.1847H52.8171V42.6367Z" fill="#D9D9D9"/>
    <path d="M55.3648 42.6367H52.8169V45.1847H55.3648V42.6367Z" fill="black"/>
    <path d="M57.8977 42.6367H55.3496V45.1847H57.8977V42.6367Z" fill="white"/>
    <path d="M14.6427 45.1699H12.0947V47.7179H14.6427V45.1699Z" fill="white"/>
    <path d="M17.1896 45.1699H14.6416V47.7179H17.1896V45.1699Z" fill="black"/>
    <path d="M19.7223 45.1699H17.1743V47.7179H19.7223V45.1699Z" fill="#8C8C8C"/>
    <path d="M22.2716 45.1699H19.7236V47.7179H22.2716V45.1699Z" fill="white"/>
    <path d="M24.818 45.1699H22.27V47.7179H24.818V45.1699Z" fill="white"/>
    <path d="M27.3674 45.1699H24.8193V47.7179H27.3674V45.1699Z" fill="white"/>
    <path d="M29.9142 45.1699H27.3662V47.7179H29.9142V45.1699Z" fill="white"/>
    <path d="M32.448 45.1699H29.8999V47.7179H32.448V45.1699Z" fill="white"/>
    <path d="M34.9962 45.1699H32.4482V47.7179H34.9962V45.1699Z" fill="white"/>
    <path d="M37.5442 45.1699H34.9961V47.7179H37.5442V45.1699Z" fill="white"/>
    <path d="M40.0909 45.1699H37.543V47.7179H40.0909V45.1699Z" fill="white"/>
    <path d="M42.6404 45.1699H40.0923V47.7179H42.6404V45.1699Z" fill="white"/>
    <path d="M45.1729 45.1699H42.625V47.7179H45.1729V45.1699Z" fill="white"/>
    <path d="M47.7209 45.1699H45.1729V47.7179H47.7209V45.1699Z" fill="white"/>
    <path d="M50.2686 45.1699H47.7207V47.7179H50.2686V45.1699Z" fill="white"/>
    <path d="M52.8171 45.1699H50.269V47.7179H52.8171V45.1699Z" fill="white"/>
    <path d="M55.3648 45.1699H52.8169V47.7179H55.3648V45.1699Z" fill="black"/>
    <path d="M57.8977 45.1699H55.3496V47.7179H57.8977V45.1699Z" fill="white"/>
    <path d="M14.6427 47.7168H12.0947V50.2648H14.6427V47.7168Z" fill="white"/>
    <path d="M17.1896 47.7168H14.6416V50.2648H17.1896V47.7168Z" fill="black"/>
    <path d="M19.7223 47.7168H17.1743V50.2648H19.7223V47.7168Z" fill="#8C8C8C"/>
    <path d="M22.2716 47.7168H19.7236V50.2648H22.2716V47.7168Z" fill="#808080"/>
    <path d="M24.818 47.7168H22.27V50.2648H24.818V47.7168Z" fill="#808080"/>
    <path d="M27.3674 47.7168H24.8193V50.2648H27.3674V47.7168Z" fill="#808080"/>
    <path d="M29.9142 47.7168H27.3662V50.2648H29.9142V47.7168Z" fill="#808080"/>
    <path d="M32.448 47.7168H29.8999V50.2648H32.448V47.7168Z" fill="#808080"/>
    <path d="M34.9962 47.7168H32.4482V50.2648H34.9962V47.7168Z" fill="#808080"/>
    <path d="M37.5442 47.7168H34.9961V50.2648H37.5442V47.7168Z" fill="#808080"/>
    <path d="M40.0909 47.7168H37.543V50.2648H40.0909V47.7168Z" fill="#808080"/>
    <path d="M42.6404 47.7168H40.0923V50.2648H42.6404V47.7168Z" fill="#808080"/>
    <path d="M45.1729 47.7168H42.625V50.2648H45.1729V47.7168Z" fill="#808080"/>
    <path d="M47.7209 47.7168H45.1729V50.2648H47.7209V47.7168Z" fill="#808080"/>
    <path d="M50.2686 47.7168H47.7207V50.2648H50.2686V47.7168Z" fill="#808080"/>
    <path d="M52.8171 47.7168H50.269V50.2648H52.8171V47.7168Z" fill="#8C8C8C"/>
    <path d="M55.3648 47.7168H52.8169V50.2648H55.3648V47.7168Z" fill="black"/>
    <path d="M57.8977 47.7168H55.3496V50.2648H57.8977V47.7168Z" fill="white"/>
    <path d="M14.6427 50.2646H12.0947V52.8126H14.6427V50.2646Z" fill="white"/>
    <path d="M17.1896 50.2646H14.6416V52.8126H17.1896V50.2646Z" fill="white"/>
    <path d="M19.7223 50.2646H17.1743V52.8126H19.7223V50.2646Z" fill="black"/>
    <path d="M22.2716 50.2646H19.7236V52.8126H22.2716V50.2646Z" fill="#8C8C8C"/>
    <path d="M24.818 50.2646H22.27V52.8126H24.818V50.2646Z" fill="#8C8C8C"/>
    <path d="M27.3674 50.2646H24.8193V52.8126H27.3674V50.2646Z" fill="#8C8C8C"/>
    <path d="M29.9142 50.2646H27.3662V52.8126H29.9142V50.2646Z" fill="#8C8C8C"/>
    <path d="M32.448 50.2646H29.8999V52.8126H32.448V50.2646Z" fill="#8C8C8C"/>
    <path d="M34.9962 50.2646H32.4482V52.8126H34.9962V50.2646Z" fill="#8C8C8C"/>
    <path d="M37.5442 50.2646H34.9961V52.8126H37.5442V50.2646Z" fill="#8C8C8C"/>
    <path d="M40.0909 50.2646H37.543V52.8126H40.0909V50.2646Z" fill="#8C8C8C"/>
    <path d="M42.6404 50.2646H40.0923V52.8126H42.6404V50.2646Z" fill="#8C8C8C"/>
    <path d="M45.1729 50.2646H42.625V52.8126H45.1729V50.2646Z" fill="#8C8C8C"/>
    <path d="M47.7209 50.2646H45.1729V52.8126H47.7209V50.2646Z" fill="#8C8C8C"/>
    <path d="M50.2686 50.2646H47.7207V52.8126H50.2686V50.2646Z" fill="#8C8C8C"/>
    <path d="M52.8171 50.2646H50.269V52.8126H52.8171V50.2646Z" fill="black"/>
    <path d="M55.3648 50.2646H52.8169V52.8126H55.3648V50.2646Z" fill="white"/>
    <path d="M57.8977 50.2646H55.3496V52.8126H57.8977V50.2646Z" fill="white"/>
    <path d="M17.1896 52.8135H14.6416V55.3615H17.1896V52.8135Z" fill="white"/>
    <path d="M19.7223 52.8135H17.1743V55.3615H19.7223V52.8135Z" fill="white"/>
    <path d="M22.2716 52.8135H19.7236V55.3615H22.2716V52.8135Z" fill="black"/>
    <path d="M24.818 52.8135H22.27V55.3615H24.818V52.8135Z" fill="black"/>
    <path d="M27.3674 52.8135H24.8193V55.3615H27.3674V52.8135Z" fill="black"/>
    <path d="M29.9142 52.8135H27.3662V55.3615H29.9142V52.8135Z" fill="black"/>
    <path d="M32.448 52.8135H29.8999V55.3615H32.448V52.8135Z" fill="black"/>
    <path d="M34.9962 52.8135H32.4482V55.3615H34.9962V52.8135Z" fill="black"/>
    <path d="M37.5442 52.8135H34.9961V55.3615H37.5442V52.8135Z" fill="black"/>
    <path d="M40.0909 52.8135H37.543V55.3615H40.0909V52.8135Z" fill="black"/>
    <path d="M42.6404 52.8135H40.0923V55.3615H42.6404V52.8135Z" fill="black"/>
    <path d="M45.1729 52.8135H42.625V55.3615H45.1729V52.8135Z" fill="black"/>
    <path d="M47.7209 52.8135H45.1729V55.3615H47.7209V52.8135Z" fill="black"/>
    <path d="M50.2686 52.8135H47.7207V55.3615H50.2686V52.8135Z" fill="black"/>
    <path d="M52.8171 52.8135H50.269V55.3615H52.8171V52.8135Z" fill="white"/>
    <path d="M55.3648 52.8135H52.8169V55.3615H55.3648V52.8135Z" fill="white"/>
    <path d="M19.7223 55.3613H17.1743V57.9093H19.7223V55.3613Z" fill="white"/>
    <path d="M22.2716 55.3613H19.7236V57.9093H22.2716V55.3613Z" fill="white"/>
    <path d="M19.7223 12.0908H17.1743V14.6388H19.7223V12.0908Z" fill="white"/>
    <path d="M17.1896 14.6387H14.6416V17.1867H17.1896V14.6387Z" fill="white"/>
    <path d="M19.7223 14.6387H17.1743V17.1867H19.7223V14.6387Z" fill="black"/>
    <path d="M14.6427 17.1865H12.0947V19.7345H14.6427V17.1865Z" fill="white"/>
    <path d="M17.1896 17.1865H14.6416V19.7345H17.1896V17.1865Z" fill="black"/>
    <path d="M19.7223 17.1865H17.1743V19.7345H19.7223V17.1865Z" fill="#8C8C8C"/>
    <path d="M12.0934 19.7207H9.54541V22.2687H12.0934V19.7207Z" fill="white"/>
    <path d="M14.6427 19.7207H12.0947V22.2687H14.6427V19.7207Z" fill="black"/>
    <path d="M17.1896 19.7207H14.6416V22.2687H17.1896V19.7207Z" fill="#8C8C8C"/>
    <path d="M19.7223 19.7207H17.1743V22.2687H19.7223V19.7207Z" fill="#E3E3E3"/>
    <path d="M12.0934 22.2676H9.54541V24.8156H12.0934V22.2676Z" fill="white"/>
    <path d="M14.6427 22.2676H12.0947V24.8156H14.6427V22.2676Z" fill="black"/>
    <path d="M17.1896 22.2676H14.6416V24.8156H17.1896V22.2676Z" fill="#8C8C8C"/>
    <path d="M19.7223 22.2676H17.1743V24.8156H19.7223V22.2676Z" fill="#E3E3E3"/>
    <path d="M12.0934 24.8154H9.54541V27.3634H12.0934V24.8154Z" fill="white"/>
    <path d="M14.6427 24.8154H12.0947V27.3634H14.6427V24.8154Z" fill="black"/>
    <path d="M17.1896 24.8154H14.6416V27.3634H17.1896V24.8154Z" fill="#8C8C8C"/>
    <path d="M19.7223 24.8154H17.1743V27.3634H19.7223V24.8154Z" fill="#E3E3E3"/>
    <path d="M12.0934 27.3633H9.54541V29.9113H12.0934V27.3633Z" fill="white"/>
    <path d="M14.6427 27.3633H12.0947V29.9113H14.6427V27.3633Z" fill="black"/>
    <path d="M17.1896 27.3633H14.6416V29.9113H17.1896V27.3633Z" fill="#8C8C8C"/>
    <path d="M19.7223 27.3633H17.1743V29.9113H19.7223V27.3633Z" fill="#E3E3E3"/>
    <path d="M12.0934 29.9111H9.54541V32.4591H12.0934V29.9111Z" fill="white"/>
    <path d="M14.6427 29.9111H12.0947V32.4591H14.6427V29.9111Z" fill="black"/>
    <path d="M17.1896 29.9111H14.6416V32.4591H17.1896V29.9111Z" fill="#8C8C8C"/>
    <path d="M19.7223 29.9111H17.1743V32.4591H19.7223V29.9111Z" fill="#E3E3E3"/>
    <path d="M12.0934 32.4443H9.54541V34.9923H12.0934V32.4443Z" fill="white"/>
    <path d="M14.6427 32.4443H12.0947V34.9923H14.6427V32.4443Z" fill="black"/>
    <path d="M17.1896 32.4443H14.6416V34.9923H17.1896V32.4443Z" fill="#8C8C8C"/>
    <path d="M19.7223 32.4443H17.1743V34.9923H19.7223V32.4443Z" fill="#E3E3E3"/>
    <path d="M12.0934 34.9922H9.54541V37.5402H12.0934V34.9922Z" fill="white"/>
    <path d="M14.6427 34.9922H12.0947V37.5402H14.6427V34.9922Z" fill="black"/>
    <path d="M17.1896 34.9922H14.6416V37.5402H17.1896V34.9922Z" fill="#8C8C8C"/>
    <path d="M19.7223 34.9922H17.1743V37.5402H19.7223V34.9922Z" fill="#E3E3E3"/>
    <path d="M12.0934 37.54H9.54541V40.088H12.0934V37.54Z" fill="white"/>
    <path d="M14.6427 37.54H12.0947V40.088H14.6427V37.54Z" fill="black"/>
    <path d="M17.1896 37.54H14.6416V40.088H17.1896V37.54Z" fill="#8C8C8C"/>
    <path d="M19.7223 37.54H17.1743V40.088H19.7223V37.54Z" fill="#E3E3E3"/>
    <path d="M12.0934 40.0879H9.54541V42.6359H12.0934V40.0879Z" fill="white"/>
    <path d="M14.6427 40.0879H12.0947V42.6359H14.6427V40.0879Z" fill="black"/>
    <path d="M17.1896 40.0879H14.6416V42.6359H17.1896V40.0879Z" fill="#8C8C8C"/>
    <path d="M19.7223 40.0879H17.1743V42.6359H19.7223V40.0879Z" fill="#E3E3E3"/>
    <path d="M12.0934 42.6367H9.54541V45.1847H12.0934V42.6367Z" fill="white"/>
    <path d="M14.6427 42.6367H12.0947V45.1847H14.6427V42.6367Z" fill="black"/>
    <path d="M17.1896 42.6367H14.6416V45.1847H17.1896V42.6367Z" fill="#8C8C8C"/>
    <path d="M19.7223 42.6367H17.1743V45.1847H19.7223V42.6367Z" fill="white"/>
    <path d="M12.0934 45.1699H9.54541V47.7179H12.0934V45.1699Z" fill="white"/>
    <path d="M14.6427 45.1699H12.0947V47.7179H14.6427V45.1699Z" fill="black"/>
    <path d="M17.1896 45.1699H14.6416V47.7179H17.1896V45.1699Z" fill="#8C8C8C"/>
    <path d="M19.7223 45.1699H17.1743V47.7179H19.7223V45.1699Z" fill="#808080"/>
    <path d="M12.0934 47.7168H9.54541V50.2648H12.0934V47.7168Z" fill="white"/>
    <path d="M14.6427 47.7168H12.0947V50.2648H14.6427V47.7168Z" fill="black"/>
    <path d="M17.1896 47.7168H14.6416V50.2648H17.1896V47.7168Z" fill="#8C8C8C"/>
    <path d="M19.7223 47.7168H17.1743V50.2648H19.7223V47.7168Z" fill="#8C8C8C"/>
    <path d="M12.0934 50.2646H9.54541V52.8126H12.0934V50.2646Z" fill="white"/>
    <path d="M14.6427 50.2646H12.0947V52.8126H14.6427V50.2646Z" fill="white"/>
    <path d="M17.1896 50.2646H14.6416V52.8126H17.1896V50.2646Z" fill="black"/>
    <path d="M19.7223 50.2646H17.1743V52.8126H19.7223V50.2646Z" fill="#8C8C8C"/>
    <path d="M14.6427 52.8135H12.0947V55.3615H14.6427V52.8135Z" fill="white"/>
    <path d="M17.1896 52.8135H14.6416V55.3615H17.1896V52.8135Z" fill="white"/>
    <path d="M19.7223 52.8135H17.1743V55.3615H19.7223V52.8135Z" fill="black"/>
    <path d="M17.1896 55.3613H14.6416V57.9093H17.1896V55.3613Z" fill="white"/>
    <path d="M19.7223 55.3613H17.1743V57.9093H19.7223V55.3613Z" fill="white"/>
    <path d="M24.818 55.3613H22.27V57.9093H24.818V55.3613Z" fill="white"/>
    <path d="M27.3674 55.3613H24.8193V57.9093H27.3674V55.3613Z" fill="white"/>
    <path d="M29.9142 55.3613H27.3662V57.9093H29.9142V55.3613Z" fill="white"/>
    <path d="M32.448 55.3613H29.8999V57.9093H32.448V55.3613Z" fill="white"/>
    <path d="M34.9962 55.3613H32.4482V57.9093H34.9962V55.3613Z" fill="white"/>
    <path d="M37.5442 55.3613H34.9961V57.9093H37.5442V55.3613Z" fill="white"/>
    <path d="M40.0909 55.3613H37.543V57.9093H40.0909V55.3613Z" fill="white"/>
    <path d="M42.6404 55.3613H40.0923V57.9093H42.6404V55.3613Z" fill="white"/>
    <path d="M45.1729 55.3613H42.625V57.9093H45.1729V55.3613Z" fill="white"/>
    <path d="M47.7209 55.3613H45.1729V57.9093H47.7209V55.3613Z" fill="white"/>
    <path d="M50.2686 55.3613H47.7207V57.9093H50.2686V55.3613Z" fill="white"/>
    <path d="M52.8171 55.3613H50.269V57.9093H52.8171V55.3613Z" fill="white"/>
    <path d="M52.8171 12.0908H50.269V14.6388H52.8171V12.0908Z" fill="white"/>
    <path d="M52.8171 14.6387H50.269V17.1867H52.8171V14.6387Z" fill="black"/>
    <path d="M55.3648 14.6387H52.8169V17.1867H55.3648V14.6387Z" fill="white"/>
    <path d="M55.3648 17.1865H52.8169V19.7345H55.3648V17.1865Z" fill="black"/>
    <path d="M57.8977 17.1865H55.3496V19.7345H57.8977V17.1865Z" fill="white"/>
    <path d="M52.8171 19.7207H50.269V22.2687H52.8171V19.7207Z" fill="#E3E3E3"/>
    <path d="M55.3648 19.7207H52.8169V22.2687H55.3648V19.7207Z" fill="#E3E3E3"/>
    <path d="M57.8977 19.7207H55.3496V22.2687H57.8977V19.7207Z" fill="black"/>
    <path d="M60.4454 19.7207H57.8975V22.2687H60.4454V19.7207Z" fill="white"/>
    <path d="M52.8171 22.2676H50.269V24.8156H52.8171V22.2676Z" fill="#E3E3E3"/>
    <path d="M55.3648 22.2676H52.8169V24.8156H55.3648V22.2676Z" fill="#E3E3E3"/>
    <path d="M57.8977 22.2676H55.3496V24.8156H57.8977V22.2676Z" fill="black"/>
    <path d="M60.4454 22.2676H57.8975V24.8156H60.4454V22.2676Z" fill="white"/>
    <path d="M52.8171 24.8154H50.269V27.3634H52.8171V24.8154Z" fill="#E3E3E3"/>
    <path d="M55.3648 24.8154H52.8169V27.3634H55.3648V24.8154Z" fill="#E3E3E3"/>
    <path d="M57.8977 24.8154H55.3496V27.3634H57.8977V24.8154Z" fill="black"/>
    <path d="M60.4454 24.8154H57.8975V27.3634H60.4454V24.8154Z" fill="white"/>
    <path d="M52.8171 27.3633H50.269V29.9113H52.8171V27.3633Z" fill="#E3E3E3"/>
    <path d="M55.3648 27.3633H52.8169V29.9113H55.3648V27.3633Z" fill="#E3E3E3"/>
    <path d="M57.8977 27.3633H55.3496V29.9113H57.8977V27.3633Z" fill="black"/>
    <path d="M60.4454 27.3633H57.8975V29.9113H60.4454V27.3633Z" fill="white"/>
    <path d="M52.8171 29.9111H50.269V32.4591H52.8171V29.9111Z" fill="#E3E3E3"/>
    <path d="M55.3648 29.9111H52.8169V32.4591H55.3648V29.9111Z" fill="#E3E3E3"/>
    <path d="M57.8977 29.9111H55.3496V32.4591H57.8977V29.9111Z" fill="black"/>
    <path d="M60.4454 29.9111H57.8975V32.4591H60.4454V29.9111Z" fill="white"/>
    <path d="M52.8171 32.4443H50.269V34.9923H52.8171V32.4443Z" fill="#E3E3E3"/>
    <path d="M55.3648 32.4443H52.8169V34.9923H55.3648V32.4443Z" fill="#E3E3E3"/>
    <path d="M57.8977 32.4443H55.3496V34.9923H57.8977V32.4443Z" fill="black"/>
    <path d="M60.4454 32.4443H57.8975V34.9923H60.4454V32.4443Z" fill="white"/>
    <path d="M52.8171 34.9922H50.269V37.5402H52.8171V34.9922Z" fill="#E3E3E3"/>
    <path d="M55.3648 34.9922H52.8169V37.5402H55.3648V34.9922Z" fill="#E3E3E3"/>
    <path d="M57.8977 34.9922H55.3496V37.5402H57.8977V34.9922Z" fill="black"/>
    <path d="M60.4454 34.9922H57.8975V37.5402H60.4454V34.9922Z" fill="white"/>
    <path d="M52.8171 37.54H50.269V40.088H52.8171V37.54Z" fill="#E3E3E3"/>
    <path d="M55.3648 37.54H52.8169V40.088H55.3648V37.54Z" fill="#E3E3E3"/>
    <path d="M57.8977 37.54H55.3496V40.088H57.8977V37.54Z" fill="black"/>
    <path d="M60.4454 37.54H57.8975V40.088H60.4454V37.54Z" fill="white"/>
    <path d="M52.8171 40.0879H50.269V42.6359H52.8171V40.0879Z" fill="#E3E3E3"/>
    <path d="M55.3648 40.0879H52.8169V42.6359H55.3648V40.0879Z" fill="#E3E3E3"/>
    <path d="M57.8977 40.0879H55.3496V42.6359H57.8977V40.0879Z" fill="black"/>
    <path d="M60.4454 40.0879H57.8975V42.6359H60.4454V40.0879Z" fill="white"/>
    <path d="M52.8171 42.6367H50.269V45.1847H52.8171V42.6367Z" fill="#E3E3E3"/>
    <path d="M55.3648 42.6367H52.8169V45.1847H55.3648V42.6367Z" fill="white"/>
    <path d="M57.8977 42.6367H55.3496V45.1847H57.8977V42.6367Z" fill="black"/>
    <path d="M60.4454 42.6367H57.8975V45.1847H60.4454V42.6367Z" fill="white"/>
    <path d="M55.3648 45.1699H52.8169V47.7179H55.3648V45.1699Z" fill="#808080"/>
    <path d="M57.8977 45.1699H55.3496V47.7179H57.8977V45.1699Z" fill="black"/>
    <path d="M60.4454 45.1699H57.8975V47.7179H60.4454V45.1699Z" fill="white"/>
    <path d="M52.8171 47.7168H50.269V50.2648H52.8171V47.7168Z" fill="#808080"/>
    <path d="M55.3648 47.7168H52.8169V50.2648H55.3648V47.7168Z" fill="#8C8C8C"/>
    <path d="M57.8977 47.7168H55.3496V50.2648H57.8977V47.7168Z" fill="black"/>
    <path d="M60.4454 47.7168H57.8975V50.2648H60.4454V47.7168Z" fill="white"/>
    <path d="M52.8171 50.2646H50.269V52.8126H52.8171V50.2646Z" fill="#8C8C8C"/>
    <path d="M55.3648 50.2646H52.8169V52.8126H55.3648V50.2646Z" fill="black"/>
    <path d="M57.8977 50.2646H55.3496V52.8126H57.8977V50.2646Z" fill="white"/>
    <path d="M60.4454 50.2646H57.8975V52.8126H60.4454V50.2646Z" fill="white"/>
    <path d="M52.8171 52.8135H50.269V55.3615H52.8171V52.8135Z" fill="black"/>
    <path d="M55.3648 52.8135H52.8169V55.3615H55.3648V52.8135Z" fill="white"/>
    <path d="M57.8977 52.8135H55.3496V55.3615H57.8977V52.8135Z" fill="white"/>
    <path d="M52.8171 55.3613H50.269V57.9093H52.8171V55.3613Z" fill="white"/>
    <path d="M55.3648 55.3613H52.8169V57.9093H55.3648V55.3613Z" fill="white"/>
</svg>
