<svg width="70" height="70" viewBox="0 0 70 70" fill="none" xmlns="http://www.w3.org/2000/svg">
    <g clip-path="url(#clip0_2000_22266)">
        <path d="M7.00004 36.2729H4.45459V38.8184H7.00004V36.2729Z" fill="black"/>
        <path d="M7.00004 38.8184H4.45459V41.3638H7.00004V38.8184Z" fill="black"/>
        <path d="M7.00004 41.3638H4.45459V43.9092H7.00004V41.3638Z" fill="black"/>
        <path d="M7.00004 43.9092H4.45459V46.4546H7.00004V43.9092Z" fill="#ED1C24"/>
        <path d="M9.54545 43.9092H7V46.4546H9.54545V43.9092Z" fill="#ED1C24"/>
        <path d="M7.00004 46.4546H4.45459V49H7.00004V46.4546Z" fill="black"/>
        <path d="M9.54545 46.4546H7V49H9.54545V46.4546Z" fill="black"/>
        <path d="M12.0909 46.4546H9.54541V49H12.0909V46.4546Z" fill="black"/>
        <path d="M14.6363 46.4546H12.0908V49H14.6363V46.4546Z" fill="black"/>
        <path d="M7.00004 49H4.45459V51.5455H7.00004V49Z" fill="black"/>
        <path d="M7.00004 51.5459H4.45459V54.0914H7.00004V51.5459Z" fill="black"/>
        <path d="M7.00004 54.0913H4.45459V56.6368H7.00004V54.0913Z" fill="black"/>
        <path d="M7.00004 56.6367H4.45459V59.1822H7.00004V56.6367Z" fill="black"/>
        <path d="M19.7276 36.2729H17.1821V38.8184H19.7276V36.2729Z" fill="black"/>
        <path d="M22.273 36.2729H19.7275V38.8184H22.273V36.2729Z" fill="black"/>
        <path d="M24.8184 36.2729H22.2729V38.8184H24.8184V36.2729Z" fill="black"/>
        <path d="M27.3638 38.8184H24.8184V41.3638H27.3638V38.8184Z" fill="black"/>
        <path d="M27.3638 41.3638H24.8184V43.9092H27.3638V41.3638Z" fill="black"/>
        <path d="M27.3638 43.9092H24.8184V46.4546H27.3638V43.9092Z" fill="black"/>
        <path d="M24.8184 46.4546H22.2729V49H24.8184V46.4546Z" fill="black"/>
        <path d="M22.273 46.4546H19.7275V49H22.273V46.4546Z" fill="black"/>
        <path d="M24.8184 49H22.2729V51.5455H24.8184V49Z" fill="black"/>
        <path d="M27.3638 51.5459H24.8184V54.0914H27.3638V51.5459Z" fill="black"/>
        <path d="M27.3638 54.0913H24.8184V56.6368H27.3638V54.0913Z" fill="black"/>
        <path d="M27.3638 56.6367H24.8184V59.1822H27.3638V56.6367Z" fill="black"/>
        <path d="M19.7276 38.8184H17.1821V41.3638H19.7276V38.8184Z" fill="black"/>
        <path d="M19.7276 41.3638H17.1821V43.9092H19.7276V41.3638Z" fill="black"/>
        <path d="M19.7276 43.9092H17.1821V46.4546H19.7276V43.9092Z" fill="black"/>
        <path d="M19.7276 46.4546H17.1821V49H19.7276V46.4546Z" fill="black"/>
        <path d="M19.7276 49H17.1821V51.5455H19.7276V49Z" fill="black"/>
        <path d="M19.7276 51.5459H17.1821V54.0914H19.7276V51.5459Z" fill="black"/>
        <path d="M19.7276 54.0913H17.1821V56.6368H19.7276V54.0913Z" fill="black"/>
        <path d="M19.7276 56.6367H17.1821V59.1822H19.7276V56.6367Z" fill="black"/>
        <path d="M32.4546 36.2729H29.9092V38.8184H32.4546V36.2729Z" fill="black"/>
        <path d="M35 36.2729H32.4546V38.8184H35V36.2729Z" fill="black"/>
        <path d="M37.5455 36.2729H35V38.8184H37.5455V36.2729Z" fill="black"/>
        <path d="M40.0909 38.8184H37.5454V41.3638H40.0909V38.8184Z" fill="black"/>
        <path d="M40.0909 41.3638H37.5454V43.9092H40.0909V41.3638Z" fill="black"/>
        <path d="M40.0909 43.9092H37.5454V46.4546H40.0909V43.9092Z" fill="black"/>
        <path d="M37.5455 46.4546H35V49H37.5455V46.4546Z" fill="black"/>
        <path d="M35 46.4546H32.4546V49H35V46.4546Z" fill="black"/>
        <path d="M37.5455 49H35V51.5455H37.5455V49Z" fill="black"/>
        <path d="M40.0909 51.5459H37.5454V54.0914H40.0909V51.5459Z" fill="black"/>
        <path d="M40.0909 54.0913H37.5454V56.6368H40.0909V54.0913Z" fill="black"/>
        <path d="M40.0909 56.6367H37.5454V59.1822H40.0909V56.6367Z" fill="black"/>
        <path d="M32.4546 38.8184H29.9092V41.3638H32.4546V38.8184Z" fill="black"/>
        <path d="M32.4546 41.3638H29.9092V43.9092H32.4546V41.3638Z" fill="black"/>
        <path d="M32.4546 43.9092H29.9092V46.4546H32.4546V43.9092Z" fill="black"/>
        <path d="M32.4546 46.4546H29.9092V49H32.4546V46.4546Z" fill="black"/>
        <path d="M32.4546 49H29.9092V51.5455H32.4546V49Z" fill="black"/>
        <path d="M32.4546 51.5459H29.9092V54.0914H32.4546V51.5459Z" fill="black"/>
        <path d="M32.4546 54.0913H29.9092V56.6368H32.4546V54.0913Z" fill="black"/>
        <path d="M32.4546 56.6367H29.9092V59.1822H32.4546V56.6367Z" fill="black"/>
        <path d="M57.9092 36.2729H55.3638V38.8184H57.9092V36.2729Z" fill="black"/>
        <path d="M60.4546 36.2729H57.9092V38.8184H60.4546V36.2729Z" fill="black"/>
        <path d="M63 36.2729H60.4546V38.8184H63V36.2729Z" fill="black"/>
        <path d="M65.5455 38.8184H63V41.3638H65.5455V38.8184Z" fill="black"/>
        <path d="M65.5455 41.3638H63V43.9092H65.5455V41.3638Z" fill="black"/>
        <path d="M65.5455 43.9092H63V46.4546H65.5455V43.9092Z" fill="black"/>
        <path d="M63 46.4546H60.4546V49H63V46.4546Z" fill="black"/>
        <path d="M60.4546 46.4546H57.9092V49H60.4546V46.4546Z" fill="black"/>
        <path d="M63 49H60.4546V51.5455H63V49Z" fill="black"/>
        <path d="M65.5455 51.5459H63V54.0914H65.5455V51.5459Z" fill="black"/>
        <path d="M65.5455 54.0913H63V56.6368H65.5455V54.0913Z" fill="black"/>
        <path d="M65.5455 56.6367H63V59.1822H65.5455V56.6367Z" fill="black"/>
        <path d="M57.9092 38.8184H55.3638V41.3638H57.9092V38.8184Z" fill="black"/>
        <path d="M57.9092 41.3638H55.3638V43.9092H57.9092V41.3638Z" fill="black"/>
        <path d="M58.0147 43.9092H55.4692V46.4546H58.0147V43.9092Z" fill="black"/>
        <path d="M57.9092 46.4546H55.3638V49H57.9092V46.4546Z" fill="black"/>
        <path d="M57.9092 49H55.3638V51.5455H57.9092V49Z" fill="black"/>
        <path d="M57.9092 51.5459H55.3638V54.0914H57.9092V51.5459Z" fill="black"/>
        <path d="M57.9092 54.0913H55.3638V56.6368H57.9092V54.0913Z" fill="black"/>
        <path d="M57.9092 56.6367H55.3638V59.1822H57.9092V56.6367Z" fill="black"/>
        <path d="M9.54545 56.6367H7V59.1822H9.54545V56.6367Z" fill="black"/>
        <path d="M12.0909 56.6367H9.54541V59.1822H12.0909V56.6367Z" fill="black"/>
        <path d="M14.6363 56.6367H12.0908V59.1822H14.6363V56.6367Z" fill="black"/>
        <path d="M9.54545 36.2729H7V38.8184H9.54545V36.2729Z" fill="black"/>
        <path d="M12.0909 36.2729H9.54541V38.8184H12.0909V36.2729Z" fill="black"/>
        <path d="M45.1817 38.8184H42.6362V41.3638H45.1817V38.8184Z" fill="black"/>
        <path d="M45.1817 41.3638H42.6362V43.9092H45.1817V41.3638Z" fill="black"/>
        <path d="M45.1817 43.9092H42.6362V46.4546H45.1817V43.9092Z" fill="black"/>
        <path d="M45.1817 46.4546H42.6362V49H45.1817V46.4546Z" fill="black"/>
        <path d="M45.1817 49H42.6362V51.5455H45.1817V49Z" fill="black"/>
        <path d="M45.1817 51.5459H42.6362V54.0914H45.1817V51.5459Z" fill="black"/>
        <path d="M45.1817 54.0913H42.6362V56.6368H45.1817V54.0913Z" fill="black"/>
        <path d="M52.8184 38.8184H50.2729V41.3638H52.8184V38.8184Z" fill="black"/>
        <path d="M52.8184 41.3638H50.2729V43.9092H52.8184V41.3638Z" fill="black"/>
        <path d="M52.8184 43.9092H50.2729V46.4546H52.8184V43.9092Z" fill="black"/>
        <path d="M52.8184 46.4546H50.2729V49H52.8184V46.4546Z" fill="black"/>
        <path d="M52.8184 49H50.2729V51.5455H52.8184V49Z" fill="black"/>
        <path d="M52.8184 51.5459H50.2729V54.0914H52.8184V51.5459Z" fill="black"/>
        <path d="M52.8184 54.0913H50.2729V56.6368H52.8184V54.0913Z" fill="black"/>
        <path d="M47.7276 56.6367H45.1821V59.1822H47.7276V56.6367Z" fill="black"/>
        <path d="M50.273 56.6367H47.7275V59.1822H50.273V56.6367Z" fill="black"/>
        <path d="M47.7276 36.2729H45.1821V38.8184H47.7276V36.2729Z" fill="black"/>
        <path d="M50.273 36.2729H47.7275V38.8184H50.273V36.2729Z" fill="black"/>
        <path d="M14.6363 36.2729H12.0908V38.8184H14.6363V36.2729Z" fill="black"/>
        <path d="M12.0909 43.9092H9.54541V46.4546H12.0909V43.9092Z" fill="#ED1C24"/>
        <path d="M14.6363 43.9092H12.0908V46.4546H14.6363V43.9092Z" fill="#ED1C24"/>
        <path d="M17.1817 43.9092H14.6362V46.4546H17.1817V43.9092Z" fill="#ED1C24"/>
        <path d="M19.7276 43.9092H17.1821V46.4546H19.7276V43.9092Z" fill="#ED1C24"/>
        <path d="M22.273 43.9092H19.7275V46.4546H22.273V43.9092Z" fill="#ED1C24"/>
        <path d="M24.8184 43.9092H22.2729V46.4546H24.8184V43.9092Z" fill="#ED1C24"/>
        <path d="M27.3638 43.9092H24.8184V46.4546H27.3638V43.9092Z" fill="#ED1C24"/>
        <path d="M29.9092 43.9092H27.3638V46.4546H29.9092V43.9092Z" fill="#ED1C24"/>
        <path d="M32.4546 43.9092H29.9092V46.4546H32.4546V43.9092Z" fill="#ED1C24"/>
        <path d="M35 43.9092H32.4546V46.4546H35V43.9092Z" fill="#ED1C24"/>
        <path d="M37.5455 43.9092H35V46.4546H37.5455V43.9092Z" fill="#ED1C24"/>
        <path d="M40.0909 43.9092H37.5454V46.4546H40.0909V43.9092Z" fill="#ED1C24"/>
        <path d="M42.6363 43.9092H40.0908V46.4546H42.6363V43.9092Z" fill="#ED1C24"/>
        <path d="M45.1817 43.9092H42.6362V46.4546H45.1817V43.9092Z" fill="#ED1C24"/>
        <path d="M47.7276 43.9092H45.1821V46.4546H47.7276V43.9092Z" fill="#ED1C24"/>
        <path d="M50.273 43.9092H47.7275V46.4546H50.273V43.9092Z" fill="#ED1C24"/>
        <path d="M52.8184 43.9092H50.2729V46.4546H52.8184V43.9092Z" fill="#ED1C24"/>
        <path d="M55.3638 43.9092H52.8184V46.4546H55.3638V43.9092Z" fill="#ED1C24"/>
        <path d="M57.9092 43.9092H55.3638V46.4546H57.9092V43.9092Z" fill="#ED1C24"/>
        <path d="M60.4546 43.9092H57.9092V46.4546H60.4546V43.9092Z" fill="#ED1C24"/>
        <path d="M63 43.9092H60.4546V46.4546H63V43.9092Z" fill="#ED1C24"/>
        <path d="M65.5455 43.9092H63V46.4546H65.5455V43.9092Z" fill="#ED1C24"/>
        <path d="M50.2701 10.8208H47.7246V13.3663H50.2701V10.8208Z" fill="#49CE58"/>
        <path d="M52.8194 10.8208H50.2739V13.3663H52.8194V10.8208Z" fill="#39A84A"/>
        <path d="M47.7276 13.3638H45.1821V15.9092H47.7276V13.3638Z" fill="#49CE58"/>
        <path d="M45.1846 15.9082H42.6392V18.4537H45.1846V15.9082Z" fill="#49CE58"/>
        <path d="M50.2715 13.3613H47.7261V15.9068H50.2715V13.3613Z" fill="#39A84A"/>
        <path d="M47.7276 15.9092H45.1821V18.4546H47.7276V15.9092Z" fill="#39A84A"/>
        <path d="M45.1817 18.4546H42.6362V21H45.1817V18.4546Z" fill="#39A84A"/>
        <path d="M27.3623 18.4561H24.8169V21.0015H27.3623V18.4561Z" fill="#49CE58"/>
        <path d="M24.8184 18.4546H22.2729V21H24.8184V18.4546Z" fill="#39A84A"/>
        <path d="M24.8184 15.9092H22.2729V18.4546H24.8184V15.9092Z" fill="#49CE58"/>
        <path d="M22.273 15.9092H19.7275V18.4546H22.273V15.9092Z" fill="#39A84A"/>
        <path d="M37.5469 26.0923H35.0015V28.6377H37.5469V26.0923Z" fill="#39A84A"/>
        <path d="M35.0015 28.6377H32.4561V31.1831H35.0015V28.6377Z" fill="#39A84A"/>
        <path d="M40.0909 23.5469H37.5454V26.0923H40.0909V23.5469Z" fill="#39A84A"/>
        <path d="M42.6363 21H40.0908V23.5455H42.6363V21Z" fill="#39A84A"/>
        <path d="M42.6377 18.4546H40.0923V21H42.6377V18.4546Z" fill="#49CE58"/>
        <path d="M29.9107 20.999H27.3652V23.5445H29.9107V20.999Z" fill="#49CE58"/>
        <path d="M40.0923 21H37.5469V23.5455H40.0923V21Z" fill="#49CE58"/>
        <path d="M32.4561 23.5444H29.9106V26.0899H32.4561V23.5444Z" fill="#49CE58"/>
        <path d="M27.3623 20.999H24.8169V23.5445H27.3623V20.999Z" fill="#39A84A"/>
        <path d="M29.9107 23.5469H27.3652V26.0923H29.9107V23.5469Z" fill="#39A84A"/>
        <path d="M32.4532 26.0898H29.9077V28.6353H32.4532V26.0898Z" fill="#39A84A"/>
        <path d="M37.5455 23.5459H35V26.0914H37.5455V23.5459Z" fill="#49CE58"/>
        <path d="M34.9986 26.0923H32.4531V28.6377H34.9986V26.0923Z" fill="#49CE58"/>
        <path d="M19.7276 15.9092H17.1821V18.4546H19.7276V15.9092Z" fill="white"/>
        <path d="M22.273 18.4561H19.7275V21.0015H22.273V18.4561Z" fill="white"/>
        <path d="M24.8184 20.999H22.2729V23.5445H24.8184V20.999Z" fill="white"/>
        <path d="M27.3638 23.5459H24.8184V26.0914H27.3638V23.5459Z" fill="white"/>
        <path d="M29.9092 26.0913H27.3638V28.6368H29.9092V26.0913Z" fill="white"/>
        <path d="M32.4546 28.6367H29.9092V31.1822H32.4546V28.6367Z" fill="white"/>
        <path d="M35.0015 31.1821H32.4561V33.7276H35.0015V31.1821Z" fill="white"/>
        <path d="M19.7222 18.4561H17.1768V21.0015H19.7222V18.4561Z" fill="white"/>
        <path d="M22.2676 20.999H19.7222V23.5445H22.2676V20.999Z" fill="white"/>
        <path d="M24.813 23.5459H22.2676V26.0914H24.813V23.5459Z" fill="white"/>
        <path d="M27.3584 26.0913H24.813V28.6368H27.3584V26.0913Z" fill="white"/>
        <path d="M29.9039 28.6367H27.3584V31.1822H29.9039V28.6367Z" fill="white"/>
        <path d="M32.4507 31.1821H29.9053V33.7276H32.4507V31.1821Z" fill="white"/>
        <path d="M37.5457 33.7354H32.4561V36.2808H37.5457V33.7354Z" fill="white"/>
        <path d="M50.2727 33.7354H45.1831V36.2808H50.2727V33.7354Z" fill="white"/>
        <path d="M63.0003 33.7354H55.3652V36.2808H63.0003V33.7354Z" fill="white"/>
        <path d="M32.4546 33.7354H29.9092V36.2808H32.4546V33.7354Z" fill="white"/>
        <path d="M29.9092 36.2729H27.3638V38.8184H29.9092V36.2729Z" fill="white"/>
        <path d="M27.3638 36.2729H24.8184V38.8184H27.3638V36.2729Z" fill="white"/>
        <path d="M24.8184 33.7275H22.2729V36.273H24.8184V33.7275Z" fill="white"/>
        <path d="M22.273 33.7275H19.7275V36.273H22.273V33.7275Z" fill="white"/>
        <path d="M19.7276 33.7275H17.1821V36.273H19.7276V33.7275Z" fill="white"/>
        <path d="M17.1817 33.7275H14.6362V36.273H17.1817V33.7275Z" fill="white"/>
        <path d="M17.1817 36.2729H14.6362V38.8184H17.1817V36.2729Z" fill="white"/>
        <path d="M17.1817 38.8184H14.6362V41.3638H17.1817V38.8184Z" fill="white"/>
        <path d="M24.8184 38.8184H19.7275V43.9093H24.8184V38.8184Z" fill="white"/>
        <path d="M37.544 38.8184H32.4531V43.9093H37.544V38.8184Z" fill="white"/>
        <path d="M63.0001 38.8184H57.9092V43.9093H63.0001V38.8184Z" fill="white"/>
        <path d="M17.1817 41.3638H14.6362V43.9092H17.1817V41.3638Z" fill="white"/>
        <path d="M17.1817 46.4585H14.6362V49.004H17.1817V46.4585Z" fill="white"/>
        <path d="M17.1817 51.5532H14.6362V54.0987H17.1817V51.5532Z" fill="white"/>
        <path d="M17.1817 56.6479H14.6362V59.1934H17.1817V56.6479Z" fill="white"/>
        <path d="M22.273 49.0039H19.7275V59.1934H22.273V49.0039Z" fill="white"/>
        <path d="M24.8184 51.5532H22.2729V59.1934H24.8184V51.5532Z" fill="white"/>
        <path d="M34.9986 49.0039H32.4531V59.1934H34.9986V49.0039Z" fill="white"/>
        <path d="M37.5445 51.5532H34.999V59.1934H37.5445V51.5532Z" fill="white"/>
        <path d="M17.1817 54.1064H14.6362V56.6519H17.1817V54.1064Z" fill="white"/>
        <path d="M17.1817 49H14.6362V51.5455H17.1817V49Z" fill="white"/>
        <path d="M14.6363 49H12.0908V54.1062H14.6363V49Z" fill="white"/>
        <path d="M12.0909 49H9.54541V54.1062H12.0909V49Z" fill="white"/>
        <path d="M9.54545 49H7V51.5455H9.54545V49Z" fill="white"/>
        <path d="M9.54545 51.5532H7V54.0987H9.54545V51.5532Z" fill="white"/>
        <path d="M9.54545 54.1064H7V56.6519H9.54545V54.1064Z" fill="white"/>
        <path d="M12.0909 54.1064H9.54541V56.6519H12.0909V54.1064Z" fill="white"/>
        <path d="M14.6363 54.1064H12.0908V56.6519H14.6363V54.1064Z" fill="white"/>
        <path d="M14.6363 38.8105H12.0908V41.356H14.6363V38.8105Z" fill="white"/>
        <path d="M12.0909 38.8105H9.54541V41.356H12.0909V38.8105Z" fill="white"/>
        <path d="M9.54545 38.8105H7V41.356H9.54545V38.8105Z" fill="white"/>
        <path d="M9.54545 41.3638H7V43.9092H9.54545V41.3638Z" fill="white"/>
        <path d="M14.6363 41.3638H9.54541V43.9092H14.6363V41.3638Z" fill="white"/>
        <path d="M14.6363 33.7275H12.0908V36.273H14.6363V33.7275Z" fill="white"/>
        <path d="M12.0909 33.7275H9.54541V36.273H12.0909V33.7275Z" fill="white"/>
        <path d="M9.54545 33.7275H7V36.273H9.54545V33.7275Z" fill="white"/>
        <path d="M7.00004 33.7275H4.45459V36.273H7.00004V33.7275Z" fill="white"/>
        <path d="M29.9092 38.8223H27.3638V41.3677H29.9092V38.8223Z" fill="white"/>
        <path d="M29.9092 41.3716H27.3638V43.917H29.9092V41.3716Z" fill="white"/>
        <path d="M29.9092 46.4585H27.3638V49.004H29.9092V46.4585Z" fill="white"/>
        <path d="M29.9092 51.5459H27.3638V54.0914H29.9092V51.5459Z" fill="white"/>
        <path d="M29.9092 56.6328H27.3638V59.1783H29.9092V56.6328Z" fill="white"/>
        <path d="M29.9092 59.1821H27.3638V61.7276H29.9092V59.1821Z" fill="white"/>
        <path d="M29.9092 54.0913H27.3638V56.6368H29.9092V54.0913Z" fill="white"/>
        <path d="M29.9092 49H27.3638V51.5455H29.9092V49Z" fill="white"/>
        <path d="M27.3638 46.4585H24.8184V49.004H27.3638V46.4585Z" fill="white"/>
        <path d="M27.3638 49H24.8184V51.5455H27.3638V49Z" fill="white"/>
        <path d="M45.1821 36.2729H37.5674V38.8184H45.1821V36.2729Z" fill="white"/>
        <path d="M42.6363 38.8223H40.0908V41.3677H42.6363V38.8223Z" fill="white"/>
        <path d="M50.273 38.8223H45.1821V43.9094H50.273V38.8223Z" fill="white"/>
        <path d="M42.6363 41.3716H40.0908V43.917H42.6363V41.3716Z" fill="white"/>
        <path d="M42.6367 46.4585H37.5674V49.004H42.6367V46.4585Z" fill="white"/>
        <path d="M42.6363 51.5459H40.0908V54.0914H42.6363V51.5459Z" fill="white"/>
        <path d="M42.6363 56.6328H40.0908V59.1783H42.6363V56.6328Z" fill="white"/>
        <path d="M42.6363 59.1821H40.0908V61.7276H42.6363V59.1821Z" fill="white"/>
        <path d="M42.6363 54.0913H40.0908V56.6368H42.6363V54.0913Z" fill="white"/>
        <path d="M42.6367 49H37.5674V51.5455H42.6367V49Z" fill="white"/>
        <path d="M55.3639 36.2729H50.2729V38.8184H55.3639V36.2729Z" fill="white"/>
        <path d="M55.3638 38.8223H52.8184V41.3677H55.3638V38.8223Z" fill="white"/>
        <path d="M65.5455 36.2651H63V38.8106H65.5455V36.2651Z" fill="white"/>
        <path d="M55.3638 41.3716H52.8184V43.917H55.3638V41.3716Z" fill="white"/>
        <path d="M55.3638 46.4585H52.8184V49.004H55.3638V46.4585Z" fill="white"/>
        <path d="M55.3638 51.5459H52.8184V54.0914H55.3638V51.5459Z" fill="white"/>
        <path d="M55.3638 56.6328H52.8184V59.1783H55.3638V56.6328Z" fill="white"/>
        <path d="M52.8184 56.6328H50.2729V59.1783H52.8184V56.6328Z" fill="white"/>
        <path d="M45.1817 56.6328H42.6362V59.1783H45.1817V56.6328Z" fill="white"/>
        <path d="M50.273 46.4546H45.1821V56.6517H50.273V46.4546Z" fill="white"/>
        <path d="M55.3638 59.1821H52.8184V61.7276H55.3638V59.1821Z" fill="white"/>
        <path d="M55.3638 54.0913H52.8184V56.6368H55.3638V54.0913Z" fill="white"/>
        <path d="M55.3638 49H52.8184V51.5455H55.3638V49Z" fill="white"/>
        <path d="M68.0909 36.2729H65.5454V38.8184H68.0909V36.2729Z" fill="white"/>
        <path d="M68.0909 38.8223H65.5454V41.3677H68.0909V38.8223Z" fill="white"/>
        <path d="M68.0909 41.3716H65.5454V43.917H68.0909V41.3716Z" fill="white"/>
        <path d="M68.0909 46.4585H63V49.004H68.0909V46.4585Z" fill="white"/>
        <path d="M68.0909 43.9106H65.5454V46.4561H68.0909V43.9106Z" fill="white"/>
        <path d="M68.0909 51.5459H65.5454V54.0914H68.0909V51.5459Z" fill="white"/>
        <path d="M68.0909 56.6328H65.5454V59.1783H68.0909V56.6328Z" fill="white"/>
        <path d="M68.0909 59.1821H65.5454V61.7276H68.0909V59.1821Z" fill="white"/>
        <path d="M60.4546 49H57.9092V59.178H60.4546V49Z" fill="white"/>
        <path d="M63 51.5532H60.4546V59.1781H63V51.5532Z" fill="white"/>
        <path d="M68.0909 54.0913H65.5454V56.6368H68.0909V54.0913Z" fill="white"/>
        <path d="M68.0909 49H63V51.5455H68.0909V49Z" fill="white"/>
        <path d="M4.45463 36.2729H1.90918V38.8184H4.45463V36.2729Z" fill="white"/>
        <path d="M4.45463 38.8223H1.90918V41.3677H4.45463V38.8223Z" fill="white"/>
        <path d="M4.45463 41.3716H1.90918V43.917H4.45463V41.3716Z" fill="white"/>
        <path d="M4.45463 46.4585H1.90918V49.004H4.45463V46.4585Z" fill="white"/>
        <path d="M4.45463 43.9106H1.90918V46.4561H4.45463V43.9106Z" fill="white"/>
        <path d="M4.45463 51.5459H1.90918V54.0914H4.45463V51.5459Z" fill="white"/>
        <path d="M4.45463 56.6328H1.90918V59.1783H4.45463V56.6328Z" fill="white"/>
        <path d="M65.5456 59.1821H1.90918V61.7276H65.5456V59.1821Z" fill="white"/>
        <path d="M4.45463 54.0913H1.90918V56.6368H4.45463V54.0913Z" fill="white"/>
        <path d="M4.45463 49H1.90918V51.5455H4.45463V49Z" fill="white"/>
        <path d="M37.5469 28.6377H35.0015V31.1831H37.5469V28.6377Z" fill="white"/>
        <path d="M40.0909 26.1216H37.5454V28.667H40.0909V26.1216Z" fill="white"/>
        <path d="M42.6377 23.5469H40.0923V26.0923H42.6377V23.5469Z" fill="white"/>
        <path d="M45.1846 21.0015H42.6392V23.5469H45.1846V21.0015Z" fill="white"/>
        <path d="M47.731 18.4561H45.1855V21.0015H47.731V18.4561Z" fill="white"/>
        <path d="M50.2779 15.9106H47.7324V18.4561H50.2779V15.9106Z" fill="white"/>
        <path d="M52.8248 13.3652H50.2793V15.9107H52.8248V13.3652Z" fill="white"/>
        <path d="M37.543 31.1821H34.9976V33.7276H37.543V31.1821Z" fill="white"/>
        <path d="M40.0884 28.6377H37.543V31.1831H40.0884V28.6377Z" fill="white"/>
        <path d="M42.6329 26.1216H40.0874V28.667H42.6329V26.1216Z" fill="white"/>
        <path d="M45.1792 23.5469H42.6338V26.0923H45.1792V23.5469Z" fill="white"/>
        <path d="M47.7261 21.0015H45.1807V23.5469H47.7261V21.0015Z" fill="white"/>
        <path d="M50.273 18.4561H47.7275V21.0015H50.273V18.4561Z" fill="white"/>
        <path d="M52.8194 15.9106H50.2739V18.4561H52.8194V15.9106Z" fill="white"/>
        <path d="M55.3663 13.3652H52.8208V15.9107H55.3663V13.3652Z" fill="white"/>
        <path d="M55.3711 10.8198H52.8257V13.3653H55.3711V10.8198Z" fill="white"/>
        <path d="M52.8184 8.27295H50.2729V10.8184H52.8184V8.27295Z" fill="white"/>
        <path d="M50.2701 8.27295H47.7246V10.8184H50.2701V8.27295Z" fill="white"/>
        <path d="M47.73 10.8208H45.1846V13.3663H47.73V10.8208Z" fill="white"/>
        <path d="M45.1895 13.3691H42.644V15.9146H45.1895V13.3691Z" fill="white"/>
        <path d="M42.649 15.917H40.1035V18.4624H42.649V15.917Z" fill="white"/>
        <path d="M40.1075 18.4648H37.562V21.0103H40.1075V18.4648Z" fill="white"/>
        <path d="M37.5669 21.0132H35.0215V23.5586H37.5669V21.0132Z" fill="white"/>
        <path d="M35.0269 23.561H32.4814V26.1065H35.0269V23.561Z" fill="white"/>
        <path d="M32.4561 21.0015H29.9106V23.5469H32.4561V21.0015Z" fill="white"/>
        <path d="M29.9092 18.4546H27.3638V21H29.9092V18.4546Z" fill="white"/>
        <path d="M27.3638 15.9092H24.8184V18.4546H27.3638V15.9092Z" fill="white"/>
        <path d="M24.8184 13.3638H22.2729V15.9092H24.8184V13.3638Z" fill="white"/>
        <path d="M22.273 13.3638H19.7275V15.9092H22.273V13.3638Z" fill="white"/>
    </g>
    <defs>
        <clipPath id="clip0_2000_22266">
            <rect width="66.1818" height="53.4545" fill="white" transform="translate(1.90918 8.27295)"/>
        </clipPath>
    </defs>
</svg>
