<svg width="94" height="63" viewBox="0 0 94 63" fill="none" xmlns="http://www.w3.org/2000/svg">
    <path d="M33.5244 41.4298L29.6704 40.0837L28.3244 43.9376L32.1784 45.2836L33.5244 41.4298Z" fill="black"/>
    <path d="M37.3784 42.776L33.5244 41.4299L32.1784 45.2837L36.0324 46.6298L37.3784 42.776Z" fill="black"/>
    <path d="M41.2324 44.122L37.3784 42.7759L36.0324 46.6297L39.8864 47.9758L41.2324 44.122Z" fill="black"/>
    <path d="M45.0862 45.4679L41.2322 44.1218L39.8862 47.9756L43.7402 49.3217L45.0862 45.4679Z" fill="black"/>
    <path d="M22.5144 -1.33092L18.6604 -2.677L17.3144 1.17681L21.1684 2.52289L22.5144 -1.33092Z" fill="black"/>
    <path d="M21.1682 2.52284L17.3142 1.17676L15.9682 5.03057L19.8222 6.37665L21.1682 2.52284Z" fill="black"/>
    <path d="M36.7683 -5.00047L29.0603 -7.69263L26.3683 0.0150001L34.0763 2.70716L36.7683 -5.00047Z" fill="#FFA219"/>
    <path d="M28.6922 18.1226L20.9841 15.4304L18.2921 23.138L26.0001 25.8302L28.6922 18.1226Z" fill="#FFA219"/>
    <path d="M40.6223 -3.65441L36.7683 -5.00049L35.4223 -1.14667L39.2763 0.199403L40.6223 -3.65441Z" fill="black"/>
    <path d="M37.9302 4.05326L22.5142 -1.33105L19.8221 6.37657L35.2382 11.7609L37.9302 4.05326Z" fill="#FFA219"/>
    <path d="M29.8543 27.1762L26.0002 25.8301L23.3082 33.5377L27.1622 34.8838L29.8543 27.1762Z" fill="#FFA219"/>
    <path d="M56.8323 36.5985L52.9783 35.2524L50.2863 42.9601L54.1403 44.3061L56.8323 36.5985Z" fill="#FFA219"/>
    <path d="M70.2925 -1.93835L66.4385 -3.28442L63.7465 4.4232L67.6005 5.76928L70.2925 -1.93835Z" fill="#FFA219"/>
    <path d="M67.6003 5.76844L63.7463 4.42236L62.4003 8.27618L66.2543 9.62225L67.6003 5.76844Z" fill="black"/>
    <path d="M66.2544 9.62244L62.4004 8.27637L61.0544 12.1302L64.9084 13.4763L66.2544 9.62244Z" fill="black"/>
    <path d="M61.0545 12.1303L57.2004 10.7842L55.8544 14.638L59.7084 15.9841L61.0545 12.1303Z" fill="black"/>
    <path d="M39.2761 0.200081L35.4221 -1.146L34.0761 2.70782L37.9301 4.05389L39.2761 0.200081Z" fill="black"/>
    <path d="M32.5462 19.4686L28.6921 18.1226L27.3461 21.9764L31.2001 23.3224L32.5462 19.4686Z" fill="black"/>
    <path d="M31.2002 23.3231L27.3462 21.9771L26.0002 25.8309L29.8542 27.1769L31.2002 23.3231Z" fill="black"/>
    <path d="M59.5244 28.891L55.6704 27.5449L54.3244 31.3987L58.1784 32.7448L59.5244 28.891Z" fill="black"/>
    <path d="M58.1785 32.7455L54.3245 31.3994L52.9785 35.2532L56.8325 36.5993L58.1785 32.7455Z" fill="black"/>
    <path d="M41.7842 5.40003L37.9302 4.05396L36.5842 7.90777L40.4382 9.25385L41.7842 5.40003Z" fill="black"/>
    <path d="M40.4385 9.25306L36.5845 7.90698L35.2385 11.7608L39.0925 13.1069L40.4385 9.25306Z" fill="#FFA219"/>
    <path d="M33.8921 15.6148L18.4761 10.2305L17.1301 14.0843L32.5461 19.4686L33.8921 15.6148Z" fill="#FFA219"/>
    <path d="M47.1682 -10.0155L43.3142 -11.3616L37.9302 4.05368L41.7842 5.39976L47.1682 -10.0155Z" fill="#FFA219"/>
    <path d="M36.4004 20.8146L32.5464 19.4685L27.1624 34.8838L31.0164 36.2298L36.4004 20.8146Z" fill="#FFA219"/>
    <path d="M55.6704 27.5455L51.8164 26.1995L46.4324 41.6147L50.2864 42.9608L55.6704 27.5455Z" fill="#FFA219"/>
    <path d="M66.4382 -3.28527L62.5842 -4.63135L57.2002 10.7839L61.0542 12.13L66.4382 -3.28527Z" fill="#FFA219"/>
    <path d="M57.0161 23.6918L53.1621 22.3457L51.8161 26.1995L55.6701 27.5456L57.0161 23.6918Z" fill="black"/>
    <path d="M37.7463 16.9608L33.8923 15.6147L32.5463 19.4686L36.4003 20.8146L37.7463 16.9608Z" fill="black"/>
    <path d="M42.9461 14.4537L39.092 13.1077L37.746 16.9615L41.6 18.3076L42.9461 14.4537Z" fill="black"/>
    <path d="M44.2925 10.5993L40.4385 9.25317L39.0925 13.107L42.9465 14.4531L44.2925 10.5993Z" fill="black"/>
    <path d="M39.0923 13.1071L19.8223 6.37671L18.4763 10.2305L37.7463 16.9609L39.0923 13.1071Z" fill="black"/>
    <path d="M56.2224 -11.1778L52.3684 -12.5239L42.9463 14.4528L46.8004 15.7989L56.2224 -11.1778Z" fill="black"/>
    <path d="M50.6543 17.1459L46.8003 15.7998L37.3782 42.7765L41.2322 44.1226L50.6543 17.1459Z" fill="black"/>
    <path d="M75.1243 21.3683L55.8542 14.6379L54.5082 18.4918L73.7783 25.2221L75.1243 21.3683Z" fill="black"/>
    <path d="M54.5083 18.4918L50.6543 17.1458L49.3083 20.9996L53.1623 22.3456L54.5083 18.4918Z" fill="black"/>
    <path d="M73.7784 25.2221L54.5083 18.4917L53.1623 22.3455L72.4324 29.0759L73.7784 25.2221Z" fill="#FFA219"/>
    <path d="M76.4702 17.5144L61.0542 12.1301L59.7082 15.9839L75.1242 21.3683L76.4702 17.5144Z" fill="#FFA219"/>
    <path d="M72.4322 29.076L57.0161 23.6917L55.6701 27.5455L71.0862 32.9298L72.4322 29.076Z" fill="#FFA219"/>
    <path d="M67.2324 31.583L59.5244 28.8909L56.8324 36.5985L64.5404 39.2907L67.2324 31.583Z" fill="#FFA219"/>
    <path d="M75.3084 8.45998L67.6003 5.76782L64.9083 13.4754L72.6163 16.1676L75.3084 8.45998Z" fill="#FFA219"/>
    <path d="M55.8543 14.6373L52.0002 13.2913L50.6542 17.1451L54.5082 18.4912L55.8543 14.6373Z" fill="black"/>
    <path d="M18.292 23.1381L14.438 21.792L13.092 25.6458L16.946 26.9919L18.292 23.1381Z" fill="white"/>
    <path d="M20.8003 28.338L16.9463 26.9919L15.6003 30.8458L19.4543 32.1918L20.8003 28.338Z" fill="white"/>
    <path d="M57.9941 45.6522L54.1401 44.3062L52.7941 48.16L56.6481 49.506L57.9941 45.6522Z" fill="white"/>
    <path d="M63.1943 43.1451L59.3403 41.7991L57.9943 45.6529L61.8483 46.999L63.1943 43.1451Z" fill="white"/>
    <path d="M68.3945 40.6366L64.5405 39.2905L63.1945 43.1443L67.0485 44.4904L68.3945 40.6366Z" fill="white"/>
    <path d="M74.9404 34.2758L71.0864 32.9297L68.3944 40.6373L72.2484 41.9834L74.9404 34.2758Z" fill="white"/>
    <path d="M84.1785 20.2064L80.3245 18.8604L74.9404 34.2756L78.7944 35.6217L84.1785 20.2064Z" fill="white"/>
    <path d="M83.0164 11.1527L79.1624 9.80664L76.4703 17.5143L80.3243 18.8603L83.0164 11.1527Z" fill="white"/>
    <path d="M80.5083 5.95277L76.6543 4.60669L75.3083 8.4605L79.1623 9.80658L80.5083 5.95277Z" fill="white"/>
    <path d="M78.0005 0.75306L74.1465 -0.593018L72.8005 3.2608L76.6545 4.60687L78.0005 0.75306Z" fill="white"/>
    <path d="M23.3081 33.538L19.4541 32.1919L18.1081 36.0457L21.9621 37.3918L23.3081 33.538Z" fill="white"/>
    <path d="M29.6702 40.0845L21.9622 37.3923L20.6161 41.2461L28.3242 43.9383L29.6702 40.0845Z" fill="white"/>
    <path d="M52.7923 48.1663L45.0842 45.4741L43.7382 49.3279L51.4462 52.0201L52.7923 48.1663Z" fill="white"/>
    <path d="M43.7403 49.3221L28.3242 43.9377L26.9782 47.7916L42.3943 53.1759L43.7403 49.3221Z" fill="white"/>
    <path d="M17.1301 14.0844L13.2761 12.7383L10.5841 20.4459L14.4381 21.792L17.1301 14.0844Z" fill="white"/>
    <path d="M18.6604 -2.67712L14.8064 -4.02319L9.42236 11.3921L13.2764 12.7381L18.6604 -2.67712Z" fill="white"/>
    <path d="M22.146 24.4843L18.292 23.1382L16.946 26.992L20.8 28.3381L22.146 24.4843Z" fill="black"/>
    <path d="M26 25.8302L22.146 24.4841L20.8 28.3379L24.654 29.684L26 25.8302Z" fill="black"/>
    <path d="M24.6543 29.6847L20.8003 28.3386L19.4543 32.1924L23.3083 33.5385L24.6543 29.6847Z" fill="black"/>
    <path d="M64.5403 39.2907L60.6863 37.9446L59.3403 41.7984L63.1943 43.1445L64.5403 39.2907Z" fill="black"/>
    <path d="M60.6863 37.9447L56.8323 36.5986L55.4863 40.4524L59.3403 41.7985L60.6863 37.9447Z" fill="black"/>
    <path d="M59.3403 41.7992L55.4863 40.4531L54.1403 44.3069L57.9943 45.653L59.3403 41.7992Z" fill="black"/>
    <path d="M76.6543 4.60682L72.8003 3.26074L71.4543 7.11456L75.3083 8.46063L76.6543 4.60682Z" fill="black"/>
    <path d="M72.8003 3.26063L68.9463 1.91455L67.6003 5.76836L71.4543 7.11444L72.8003 3.26063Z" fill="black"/>
    <path d="M74.1465 -0.593864L70.2925 -1.93994L68.9465 1.91387L72.8005 3.25995L74.1465 -0.593864Z" fill="black"/>
    <path d="M52.3684 -12.5238L48.5144 -13.8699L40.4384 9.25301L44.2924 10.5991L52.3684 -12.5238Z" fill="#FFA219"/>
    <path d="M41.6003 18.3068L37.7463 16.9607L29.6703 40.0836L33.5243 41.4297L41.6003 18.3068Z" fill="#FFA219"/>
    <path d="M53.1624 22.3449L49.3083 20.9988L41.2323 44.1217L45.0863 45.4677L53.1624 22.3449Z" fill="#FFA219"/>
    <path d="M63.9304 -8.48498L60.0764 -9.83105L52.0004 13.2918L55.8544 14.6379L63.9304 -8.48498Z" fill="#FFA219"/>
    <path d="M60.0764 -9.8319L56.2224 -11.178L46.8004 15.7987L50.6544 17.1448L60.0764 -9.8319Z" fill="#FFA219"/>
    <path d="M46.8003 15.7997L42.9463 14.4536L33.5242 41.4303L37.3782 42.7764L46.8003 15.7997Z" fill="#FFA219"/>
    <path d="M27.1621 34.8839L23.3081 33.5378L21.9621 37.3917L25.8161 38.7377L27.1621 34.8839Z" fill="black"/>
    <path d="M31.0161 36.2299L27.1621 34.8838L25.8161 38.7376L29.6701 40.0837L31.0161 36.2299Z" fill="black"/>
    <path d="M50.2864 42.9608L46.4324 41.6147L45.0864 45.4686L48.9404 46.8146L50.2864 42.9608Z" fill="black"/>
    <path d="M54.1404 44.3063L50.2864 42.9602L48.9404 46.814L52.7944 48.1601L54.1404 44.3063Z" fill="black"/>
    <path d="M27.7144 -3.838L23.8604 -5.18408L22.5143 -1.33027L26.3684 0.015809L27.7144 -3.838Z" fill="black"/>
    <path d="M26.3682 0.0150228L22.5142 -1.33105L21.1682 2.52276L25.0222 3.86884L26.3682 0.0150228Z" fill="#AF6400"/>
    <path d="M32.9143 -6.34655L29.0603 -7.69263L26.3683 0.0150001L30.2223 1.36108L32.9143 -6.34655Z" fill="#AF6400"/>
    <path d="M25.0222 3.86952L21.1682 2.52344L19.8222 6.37725L23.6762 7.72333L25.0222 3.86952Z" fill="#AF6400"/>
    <path d="M22.3301 11.5765L18.4761 10.2305L17.1301 14.0843L20.9841 15.4304L22.3301 11.5765Z" fill="#AF6400"/>
    <path d="M24.8381 16.7765L20.9841 15.4304L19.6381 19.2842L23.4921 20.6303L24.8381 16.7765Z" fill="#AF6400"/>
    <path d="M30.2222 1.36121L26.3682 0.0151367L25.0222 3.86895L28.8762 5.21503L30.2222 1.36121Z" fill="#D98100"/>
    <path d="M36.7683 -5.0006L32.9143 -6.34668L30.2223 1.36095L34.0763 2.70702L36.7683 -5.0006Z" fill="#D98100"/>
    <path d="M28.8762 5.21571L25.0222 3.86963L23.6762 7.72344L27.5302 9.06952L28.8762 5.21571Z" fill="#D98100"/>
    <path d="M26.1843 12.9232L22.3303 11.5771L20.9843 15.431L24.8383 16.777L26.1843 12.9232Z" fill="#D98100"/>
    <path d="M28.6921 18.1224L24.8381 16.7764L23.4921 20.6302L27.3461 21.9763L28.6921 18.1224Z" fill="#D98100"/>
    <path d="M33.7083 28.5223L29.8542 27.1763L28.5082 31.0301L32.3623 32.3762L33.7083 28.5223Z" fill="#D98100"/>
    <path d="M36.2161 33.7223L32.3621 32.3762L31.0161 36.23L34.8701 37.5761L36.2161 33.7223Z" fill="#D98100"/>
    <path d="M40.0701 35.0682L36.2161 33.7222L34.8701 37.576L38.7241 38.9221L40.0701 35.0682Z" fill="#D98100"/>
    <path d="M47.7783 37.7604L43.9243 36.4143L42.5783 40.2681L46.4323 41.6142L47.7783 37.7604Z" fill="#D98100"/>
    <path d="M52.9783 35.2533L49.1243 33.9072L47.7783 37.761L51.6323 39.1071L52.9783 35.2533Z" fill="#D98100"/>
    <path d="M56.8323 36.5985L52.9783 35.2524L51.6323 39.1063L55.4863 40.4523L56.8323 36.5985Z" fill="#D98100"/>
    <path d="M76.4705 17.5143L72.6165 16.1682L71.2704 20.022L75.1245 21.3681L76.4705 17.5143Z" fill="#FFBF66"/>
    <path d="M73.9627 12.3146L70.1086 10.9685L68.7626 14.8223L72.6166 16.1684L73.9627 12.3146Z" fill="#FFBF66"/>
    <path d="M75.3084 8.45985L71.4543 7.11377L70.1083 10.9676L73.9623 12.3137L75.3084 8.45985Z" fill="#FFBF66"/>
    <path d="M71.4544 7.1139L67.6003 5.76782L66.2543 9.62164L70.1083 10.9677L71.4544 7.1139Z" fill="#FFBF66"/>
    <path d="M68.9463 1.91468L65.0923 0.568604L63.7463 4.42242L67.6003 5.76849L68.9463 1.91468Z" fill="#FFBF66"/>
    <path d="M70.2925 -1.93835L66.4385 -3.28442L65.0925 0.56939L68.9465 1.91547L70.2925 -1.93835Z" fill="#FFBF66"/>
    <path d="M66.4382 -3.28527L62.5842 -4.63135L61.2382 -0.777534L65.0922 0.568543L66.4382 -3.28527Z" fill="#FFBF66"/>
    <path d="M23.4924 20.631L19.6384 19.2849L18.2924 23.1387L22.1464 24.4848L23.4924 20.631Z" fill="#AF6400"/>
    <path d="M27.3462 21.9769L23.4922 20.6309L22.1462 24.4847L26.0002 25.8308L27.3462 21.9769Z" fill="#AF6400"/>
    <path d="M29.8543 27.1762L26.0002 25.8301L24.6542 29.6839L28.5082 31.03L29.8543 27.1762Z" fill="#AF6400"/>
    <path d="M28.5083 31.0309L24.6543 29.6848L23.3083 33.5386L27.1623 34.8847L28.5083 31.0309Z" fill="#AF6400"/>
    <path d="M32.3623 32.3761L28.5083 31.03L27.1623 34.8838L31.0163 36.2299L32.3623 32.3761Z" fill="#AF6400"/>
    <path d="M34.8701 37.5761L31.0161 36.23L29.6701 40.0838L33.5241 41.4299L34.8701 37.5761Z" fill="#AF6400"/>
    <path d="M38.7244 38.9227L34.8704 37.5767L33.5244 41.4305L37.3784 42.7766L38.7244 38.9227Z" fill="#AF6400"/>
    <path d="M46.4324 41.6149L42.5784 40.2688L41.2324 44.1226L45.0864 45.4687L46.4324 41.6149Z" fill="#AF6400"/>
    <path d="M51.6323 39.1063L47.7783 37.7603L46.4323 41.6141L50.2863 42.9601L51.6323 39.1063Z" fill="#AF6400"/>
    <path d="M55.4863 40.453L51.6323 39.1069L50.2863 42.9607L54.1403 44.3068L55.4863 40.453Z" fill="#AF6400"/>
    <path d="M79.1624 9.80677L75.3083 8.46069L73.9623 12.3145L77.8164 13.6606L79.1624 9.80677Z" fill="black"/>
    <path d="M77.8162 13.6605L73.9622 12.3145L72.6161 16.1683L76.4702 17.5143L77.8162 13.6605Z" fill="black"/>
    <path d="M71.0864 32.9291L67.2324 31.583L65.8864 35.4368L69.7404 36.7829L71.0864 32.9291Z" fill="black"/>
    <path d="M69.7402 36.7836L65.8862 35.4375L64.5402 39.2913L68.3942 40.6374L69.7402 36.7836Z" fill="black"/>
    <path d="M20.9841 15.4306L17.1301 14.0845L15.7841 17.9383L19.6381 19.2844L20.9841 15.4306Z" fill="black"/>
    <path d="M19.6384 19.2843L15.7844 17.9382L14.4384 21.792L18.2924 23.1381L19.6384 19.2843Z" fill="black"/>
    <path d="M19.8223 6.3766L15.9683 5.03052L14.6223 8.88433L18.4763 10.2304L19.8223 6.3766Z" fill="black"/>
    <path d="M18.4761 10.2306L14.6221 8.88452L13.2761 12.7383L17.1301 14.0844L18.4761 10.2306Z" fill="black"/>
    <path d="M80.3245 18.8605L76.4705 17.5144L75.1245 21.3682L78.9785 22.7143L80.3245 18.8605Z" fill="black"/>
    <path d="M78.9785 22.7142L75.1245 21.3682L73.7785 25.222L77.6325 26.5681L78.9785 22.7142Z" fill="black"/>
    <path d="M77.6323 26.568L73.7783 25.2219L72.4323 29.0757L76.2863 30.4218L77.6323 26.568Z" fill="black"/>
    <path d="M76.2864 30.422L72.4324 29.0759L71.0864 32.9297L74.9404 34.2758L76.2864 30.422Z" fill="black"/>
</svg>
