<svg width="153" height="135" viewBox="0 0 153 135" fill="none" xmlns="http://www.w3.org/2000/svg">
    <path d="M-11.0036 63.0104L-18.3052 65.8579L15.8629 153.473L23.1645 150.625L-11.0036 63.0104Z" fill="white"/>
    <path d="M113.124 14.6037L105.823 17.4512L139.991 105.066L147.292 102.219L113.124 14.6037Z" fill="white"/>
    <path d="M102.975 10.1491L95.6736 12.9966L98.5209 20.2978L105.823 17.4503L102.975 10.1491Z" fill="white"/>
    <path d="M139.991 105.067L132.689 107.914L135.536 115.215L142.838 112.368L139.991 105.067Z" fill="white"/>
    <path d="M51.864 30.0824L37.2607 35.7773L40.1081 43.0786L54.7113 37.3836L51.864 30.0824Z" fill="white"/>
    <path d="M88.8791 124.998L74.2759 130.693L77.1232 137.995L91.7265 132.3L88.8791 124.998Z" fill="white"/>
    <path d="M34.4132 28.4746L-9.39648 45.5596L-6.54914 52.8608L37.2606 35.7759L34.4132 28.4746Z" fill="white"/>
    <path d="M92.8263 5.69486L49.0166 22.7798L51.8639 30.081L95.6737 12.9961L92.8263 5.69486Z" fill="white"/>
    <path d="M135.536 115.215L91.7266 132.3L94.5739 139.602L138.384 122.517L135.536 115.215Z" fill="white"/>
    <path d="M35.6535 53.2272L6.44702 64.6172L34.9204 137.63L64.1269 126.24L35.6535 53.2272Z" fill="white"/>
    <path d="M94.0666 30.4475L64.8601 41.8374L93.3335 114.85L122.54 103.46L94.0666 30.4475Z" fill="white"/>
    <path d="M3.59996 57.3161L-3.70166 60.1636L-0.854319 67.4648L6.4473 64.6173L3.59996 57.3161Z" fill="#EEB81D"/>
    <path d="M6.44737 64.6169L-0.854248 67.4644L1.99309 74.7656L9.29471 71.9181L6.44737 64.6169Z" fill="#BB891A"/>
    <path d="M10.9015 54.4675L3.59985 57.3149L6.44719 64.6162L13.7488 61.7687L10.9015 54.4675Z" fill="#F0C915"/>
    <path d="M41.3482 67.8291L19.4434 76.3716L22.2907 83.6728L44.1956 75.1304L41.3482 67.8291Z" fill="#808080"/>
    <path d="M39.7412 85.2791L25.1379 90.9741L27.9853 98.2754L42.5885 92.5804L39.7412 85.2791Z" fill="#808080"/>
    <path d="M52.7379 97.0357L30.833 105.578L33.6803 112.879L55.5852 104.337L52.7379 97.0357Z" fill="#808080"/>
    <path d="M92.4598 47.8965L70.5549 56.439L73.4023 63.7402L95.3071 55.1978L92.4598 47.8965Z" fill="#808080"/>
    <path d="M90.8525 65.3456L76.2493 71.0405L79.0966 78.3418L93.6999 72.6468L90.8525 65.3456Z" fill="#808080"/>
    <path d="M103.849 77.1021L81.9443 85.6445L84.7917 92.9458L106.697 84.4033L103.849 77.1021Z" fill="#808080"/>
    <path d="M40.1081 43.0778L10.9016 54.4678L13.749 61.769L42.9554 50.3791L40.1081 43.0778Z" fill="#39A84A"/>
    <path d="M98.5209 20.298L91.2192 23.1455L94.0666 30.4468L101.368 27.5993L98.5209 20.298Z" fill="#EEB81D"/>
    <path d="M101.368 27.6003L94.0667 30.4478L96.914 37.749L104.216 34.9015L101.368 27.6003Z" fill="#BB891A"/>
    <path d="M104.216 34.902L96.9141 37.7495L119.693 96.1595L126.994 93.312L104.216 34.902Z" fill="#39A84A"/>
    <path d="M9.29479 71.9186L1.99316 74.7661L24.7719 133.176L32.0735 130.329L9.29479 71.9186Z" fill="#39A84A"/>
    <path d="M91.2193 23.1467L83.9177 25.9941L86.7651 33.2954L94.0667 30.4479L91.2193 23.1467Z" fill="#F0C915"/>
    <path d="M83.9174 25.9938L54.7109 37.3838L57.5583 44.685L86.7648 33.2951L83.9174 25.9938Z" fill="#39A84A"/>
    <path d="M71.4289 123.391L42.2224 134.781L45.0698 142.082L74.2762 130.693L71.4289 123.391Z" fill="#39A84A"/>
    <path d="M115.238 106.306L86.0317 117.696L88.8791 124.998L118.086 113.608L115.238 106.306Z" fill="#39A84A"/>
    <path d="M42.222 134.781L34.9204 137.628L37.7678 144.93L45.0694 142.082L42.222 134.781Z" fill="#F0C915"/>
    <path d="M32.0734 130.329L24.7717 133.176L27.6191 140.478L34.9207 137.63L32.0734 130.329Z" fill="#BB891A"/>
    <path d="M129.842 100.611L122.54 103.459L125.387 110.76L132.689 107.913L129.842 100.611Z" fill="#EEB81D"/>
    <path d="M122.54 103.459L115.239 106.306L118.086 113.607L125.387 110.76L122.54 103.459Z" fill="#F0C915"/>
    <path d="M126.994 93.3122L119.693 96.1597L122.54 103.461L129.842 100.613L126.994 93.3122Z" fill="#BB891A"/>
    <path d="M54.7114 37.3832L40.1082 43.0781L42.9555 50.3794L57.5587 44.6844L54.7114 37.3832Z" fill="black"/>
    <path d="M86.0317 117.697L71.4285 123.392L74.2758 130.693L88.8791 124.998L86.0317 117.697Z" fill="black"/>
    <path d="M53.1041 54.8322L45.8025 57.6797L68.5812 116.09L75.8828 113.242L53.1041 54.8322Z" fill="#E6E6E6"/>
    <path d="M45.8028 57.6818L38.5012 60.5293L61.2799 118.939L68.5816 116.092L45.8028 57.6818Z" fill="white"/>
    <path d="M67.7074 49.1393L60.4058 51.9868L83.1845 110.397L90.4861 107.549L67.7074 49.1393Z" fill="white"/>
    <path d="M60.4059 51.985L53.1042 54.8325L75.883 113.242L83.1846 110.395L60.4059 51.985Z" fill="#F2F2F2"/>
    <path d="M37.2604 35.7764L-6.54932 52.8613L-3.70198 60.1626L40.1078 43.0777L37.2604 35.7764Z" fill="black"/>
    <path d="M95.6737 12.9971L51.864 30.082L54.7114 37.3833L98.5211 20.2984L95.6737 12.9971Z" fill="black"/>
    <path d="M74.2763 130.693L30.4666 147.778L33.3139 155.079L77.1236 137.994L74.2763 130.693Z" fill="black"/>
    <path d="M132.689 107.913L88.8794 124.998L91.7267 132.299L135.536 115.214L132.689 107.913Z" fill="black"/>
    <path d="M-3.7018 60.1633L-11.0034 63.0107L23.1647 150.626L30.4663 147.778L-3.7018 60.1633Z" fill="black"/>
    <path d="M105.823 17.4509L98.521 20.2983L132.689 107.913L139.991 105.066L105.823 17.4509Z" fill="black"/>
    <path d="M64.8603 41.8371L35.6538 53.2271L38.5011 60.5283L67.7076 49.1384L64.8603 41.8371Z" fill="#39A84A"/>
    <path d="M90.4863 107.549L61.2798 118.939L64.1271 126.24L93.3336 114.85L90.4863 107.549Z" fill="#39A84A"/>
</svg>
