<svg width="99" height="99" viewBox="0 0 99 99" fill="none" xmlns="http://www.w3.org/2000/svg">
    <path d="M47.0375 21.152L43.141 19.5747L41.5637 23.471L45.4602 25.0483L47.0375 21.152Z" fill="white"/>
    <path d="M39.2445 17.9982L35.348 16.4209L33.7708 20.3172L37.6672 21.8945L39.2445 17.9982Z" fill="white"/>
    <path d="M51.7691 9.46453L47.8727 7.88721L46.2954 11.7835L50.1919 13.3608L51.7691 9.46453Z" fill="white"/>
    <path d="M63.4584 14.196L59.5619 12.6187L57.9846 16.5149L61.8811 18.0922L63.4584 14.196Z" fill="white"/>
    <path d="M75.1479 18.9279L71.2515 17.3506L69.6742 21.2468L73.5707 22.8242L75.1479 18.9279Z" fill="white"/>
    <path d="M54.0884 14.9382L50.1919 13.3608L47.0374 21.1534L50.9339 22.7307L54.0884 14.9382Z" fill="white"/>
    <path d="M46.2954 11.7829L42.3989 10.2056L39.2444 17.9981L43.1409 19.5754L46.2954 11.7829Z" fill="white"/>
    <path d="M58.7269 25.8845L54.8304 24.3071L53.2532 28.2034L57.1497 29.7807L58.7269 25.8845Z" fill="white"/>
    <path d="M50.9338 22.7297L47.0374 21.1523L45.4601 25.0486L49.3566 26.6259L50.9338 22.7297Z" fill="white"/>
    <path d="M62.6233 27.4621L58.7268 25.8848L57.1496 29.781L61.046 31.3584L62.6233 27.4621Z" fill="white"/>
    <path d="M65.7778 19.6696L61.8813 18.0923L58.7269 25.8848L62.6233 27.4621L65.7778 19.6696Z" fill="white"/>
    <path d="M69.6743 21.2472L65.7778 19.6699L62.6233 27.4624L66.5198 29.0398L69.6743 21.2472Z" fill="white"/>
    <path d="M57.9848 16.5148L54.0884 14.9375L50.9339 22.73L54.8303 24.3073L57.9848 16.5148Z" fill="white"/>
    <path d="M70.4161 30.6174L66.5197 29.04L64.9424 32.9363L68.8388 34.5136L70.4161 30.6174Z" fill="white"/>
    <path d="M77.4673 24.4011L73.5708 22.8237L70.4163 30.6163L74.3128 32.1936L77.4673 24.4011Z" fill="white"/>
    <path d="M24.4005 21.0588L20.504 19.4814L7.88605 50.6515L11.7825 52.2289L24.4005 21.0588Z" fill="white"/>
    <path d="M76.6319 37.6679L25.9779 17.1626L24.4007 21.0589L75.0546 41.5641L76.6319 37.6679Z" fill="white"/>
    <path d="M15.6792 53.8063L11.7827 52.229L10.2055 56.1253L14.1019 57.7026L15.6792 53.8063Z" fill="white"/>
    <path d="M62.4366 72.7336L58.5402 71.1562L56.9629 75.0525L60.8594 76.6298L62.4366 72.7336Z" fill="white"/>
    <path d="M71.8068 71.9925L64.0139 68.8379L62.4367 72.7342L70.2296 75.8888L71.8068 71.9925Z" fill="white"/>
    <path d="M8.62815 60.0212L4.73169 58.4438L3.15444 62.3401L7.0509 63.9174L8.62815 60.0212Z" fill="white"/>
    <path d="M63.1787 82.1037L59.2822 80.5264L57.705 84.4226L61.6014 86L63.1787 82.1037Z" fill="white"/>
    <path d="M77.2806 69.6735L73.3842 68.0962L71.8069 71.9925L75.7034 73.5698L77.2806 69.6735Z" fill="white"/>
    <path d="M79.6931 52.5111L71.9001 49.3564L65.5912 64.9415L73.3841 68.0961L79.6931 52.5111Z" fill="white"/>
    <path d="M86.7439 46.2959L75.0546 41.564L73.4773 45.4602L85.1667 50.1922L86.7439 46.2959Z" fill="white"/>
    <path d="M89.063 51.7702L85.1665 50.1929L77.2803 69.6742L81.1767 71.2515L89.063 51.7702Z" fill="white"/>
    <path d="M48.3348 85.1642L13.2667 70.9683L11.6895 74.8645L46.7576 89.0605L48.3348 85.1642Z" fill="white"/>
    <path d="M14.8437 67.0721L7.05078 63.9175L5.47353 67.8137L13.2665 70.9684L14.8437 67.0721Z" fill="white"/>
    <path d="M57.6698 84.4086L49.8768 81.2539L48.2996 85.1502L56.0925 88.3048L57.6698 84.4086Z" fill="white"/>
    <path d="M17.9984 59.2797L10.2054 56.125L8.6282 60.0213L16.4211 63.1759L17.9984 59.2797Z" fill="white"/>
    <path d="M60.8946 76.6439L53.1017 73.4893L51.5244 77.3855L59.3174 80.5402L60.8946 76.6439Z" fill="white"/>
    <path d="M69.5458 43.8691L26.7198 26.5327L25.1426 30.429L67.9686 47.7654L69.5458 43.8691Z" fill="#DE9B64"/>
    <path d="M67.9686 47.7646L25.1426 30.4282L23.5653 34.3245L66.3913 51.6609L67.9686 47.7646Z" fill="#AD7246"/>
    <path d="M60.0822 67.2466L17.2562 49.9102L15.679 53.8064L58.505 71.1428L60.0822 67.2466Z" fill="#ECE6E6"/>
    <path d="M54.6085 69.5651L19.5754 55.3833L17.9982 59.2796L53.0313 73.4613L54.6085 69.5651Z" fill="#ECE6E6"/>
    <path d="M49.1348 71.885L21.8947 60.8579L20.3174 64.7542L47.5576 75.7813L49.1348 71.885Z" fill="#ECE6E6"/>
    <path d="M66.3913 51.6616L23.5653 34.3252L17.2563 49.9102L60.0823 67.2466L66.3913 51.6616Z" fill="white"/>
    <path d="M43.141 19.5744L39.2445 17.9971L37.6673 21.8933L41.5637 23.4707L43.141 19.5744Z" fill="black"/>
    <path d="M50.1917 13.3596L46.2953 11.7822L43.1408 19.5747L47.0373 21.1521L50.1917 13.3596Z" fill="black"/>
    <path d="M54.8303 24.3068L50.9338 22.7295L49.3566 26.6258L53.2531 28.2031L54.8303 24.3068Z" fill="black"/>
    <path d="M61.8812 18.092L57.9847 16.5146L54.8302 24.3072L58.7267 25.8845L61.8812 18.092Z" fill="black"/>
    <path d="M66.5196 29.0397L62.6232 27.4624L61.0459 31.3587L64.9424 32.936L66.5196 29.0397Z" fill="black"/>
    <path d="M73.5708 22.8234L69.6743 21.2461L66.5198 29.0386L70.4163 30.6159L73.5708 22.8234Z" fill="black"/>
    <path d="M73.3839 68.0961L65.5909 64.9414L64.0137 68.8377L71.8066 71.9923L73.3839 68.0961Z" fill="black"/>
    <path d="M21.8948 60.8561L17.9983 59.2788L16.421 63.1751L20.3175 64.7524L21.8948 60.8561Z" fill="black"/>
    <path d="M53.1013 73.4894L49.2048 71.9121L47.6276 75.8084L51.5241 77.3857L53.1013 73.4894Z" fill="black"/>
    <path d="M83.5893 54.0876L79.6929 52.5103L73.3839 68.0953L77.2803 69.6726L83.5893 54.0876Z" fill="black"/>
    <path d="M19.5754 55.3825L15.679 53.8052L14.1017 57.7014L17.9982 59.2788L19.5754 55.3825Z" fill="black"/>
    <path d="M58.505 71.1423L54.6085 69.5649L53.0313 73.4612L56.9277 75.0385L58.505 71.1423Z" fill="black"/>
    <path d="M49.8768 81.253L14.8438 67.0713L13.2665 70.9675L48.2996 85.1493L49.8768 81.253Z" fill="black"/>
    <path d="M59.2821 80.5253L8.62817 60.02L7.05093 63.9163L57.7049 84.4215L59.2821 80.5253Z" fill="black"/>
    <path d="M71.8999 49.3561L68.0034 47.7788L58.5399 71.1564L62.4364 72.7337L71.8999 49.3561Z" fill="black"/>
    <path d="M26.7197 26.5319L22.8232 24.9546L11.7825 52.2284L15.679 53.8057L26.7197 26.5319Z" fill="black"/>
    <path d="M85.1668 50.1916L69.5809 43.8823L68.0037 47.7786L83.5895 54.0879L85.1668 50.1916Z" fill="black"/>
    <path d="M75.0545 41.5634L24.4005 21.0581L22.8233 24.9544L73.4772 45.4596L75.0545 41.5634Z" fill="black"/>
</svg>
