<svg width="85" height="82" viewBox="0 0 85 82" fill="none" xmlns="http://www.w3.org/2000/svg">
    <path d="M15.943 36.4735L12.6042 34.9292L11.06 38.2678L14.3988 39.8121L15.943 36.4735Z" fill="white"/>
    <path d="M29.8407 6.4271L26.502 4.88281L24.9577 8.22138L28.2965 9.76567L29.8407 6.4271Z" fill="white"/>
    <path d="M24.9579 8.22105L21.6191 6.67676L9.26547 33.3853L12.6042 34.9296L24.9579 8.22105Z" fill="white"/>
    <path d="M17.7372 41.3568L14.3984 39.8125L11.31 46.4896L14.6488 48.0339L17.7372 41.3568Z" fill="white"/>
    <path d="M17.9875 49.5788L16.3181 48.8066L14.6471 48.0337L13.1029 51.3723L14.7739 52.1452L16.4433 52.9173L18.1127 53.6895L19.782 54.4616L21.3262 51.123L19.6569 50.3509L17.9875 49.5788Z" fill="white"/>
    <path d="M31.0922 47.534L27.7534 45.9897L26.2092 49.3283L29.5479 50.8726L31.0922 47.534Z" fill="white"/>
    <path d="M26.2092 49.3285L22.8705 47.7842L21.3263 51.1227L24.665 52.667L26.2092 49.3285Z" fill="white"/>
    <path d="M32.8867 52.4168L29.548 50.8726L28.0038 54.2111L31.3425 55.7554L32.8867 52.4168Z" fill="white"/>
    <path d="M46.4922 66.8158L43.1534 65.2715L41.6092 68.61L44.948 70.1543L46.4922 66.8158Z" fill="white"/>
    <path d="M62.9352 66.3158L59.5964 64.7715L58.0522 68.11L61.391 69.6543L62.9352 66.3158Z" fill="white"/>
    <path d="M76.8332 36.2682L73.4945 34.7239L71.9503 38.0624L75.289 39.6067L76.8332 36.2682Z" fill="white"/>
    <path d="M63.2279 21.8702L59.8892 20.3259L58.345 23.6645L61.6837 25.2088L63.2279 21.8702Z" fill="white"/>
    <path d="M75.0389 31.3854L61.684 25.2083L60.1398 28.5468L73.4947 34.724L75.0389 31.3854Z" fill="white"/>
    <path d="M78.6277 41.1512L75.2889 39.6069L62.9353 66.3155L66.274 67.8597L78.6277 41.1512Z" fill="white"/>
    <path d="M58.0539 68.1112L54.7152 66.5669L51.6268 73.244L54.9655 74.7883L58.0539 68.1112Z" fill="white"/>
    <path d="M51.6253 73.2429L44.9479 70.1543L43.4037 73.4929L50.0811 76.5814L51.6253 73.2429Z" fill="white"/>
    <path d="M44.6974 61.933L31.3424 55.7559L29.7982 59.0944L43.1531 65.2716L44.6974 61.933Z" fill="white"/>
    <path d="M61.4335 16.987L31.3832 3.08765L29.839 6.42621L59.8893 20.3256L61.4335 16.987Z" fill="white"/>
    <path d="M28.2964 9.76597L24.9576 8.22168L12.604 34.9302L15.9427 36.4745L28.2964 9.76597Z" fill="black"/>
    <path d="M59.8893 20.3256L29.8407 6.427L28.2965 9.76557L58.3451 23.6642L59.8893 20.3256Z" fill="black"/>
    <path d="M22.6184 39.5622L15.9409 36.4736L14.3967 39.8122L21.0742 42.9008L22.6184 39.5622Z" fill="black"/>
    <path d="M21.0763 42.9012L17.7375 41.3569L16.1933 44.6955L19.5321 46.2398L21.0763 42.9012Z" fill="black"/>
    <path d="M19.532 46.2398L16.1932 44.6956L14.649 48.0341L17.9878 49.5784L19.532 46.2398Z" fill="black"/>
    <path d="M22.8706 47.784L19.5319 46.2397L17.9877 49.5783L21.3264 51.1226L22.8706 47.784Z" fill="black"/>
    <path d="M27.7537 45.9896L24.4149 44.4453L22.8707 47.7839L26.2094 49.3282L27.7537 45.9896Z" fill="black"/>
    <path d="M45.9914 50.3733L29.2977 42.6519L27.7535 45.9904L44.4472 53.7119L45.9914 50.3733Z" fill="black"/>
    <path d="M61.6837 25.2088L58.345 23.6646L45.9913 50.3731L49.33 51.9174L61.6837 25.2088Z" fill="black"/>
    <path d="M59.5986 64.7721L62.9374 66.3164L75.291 39.6079L71.9523 38.0636L59.5986 64.7721Z" fill="#666666"/>
    <path d="M58.5974 31.8868L71.9524 38.064L73.4966 34.7254L60.1417 28.5482L58.5974 31.8868Z" fill="#666666"/>
    <path d="M59.5986 64.7722L52.9211 61.6836L51.3769 65.0222L58.0544 68.1107L59.5986 64.7722Z" fill="#666666"/>
    <path d="M54.7141 66.5653L51.3754 65.021L49.8312 68.3596L53.1699 69.9038L54.7141 66.5653Z" fill="#666666"/>
    <path d="M53.1698 69.9042L49.8311 68.3599L48.2868 71.6984L51.6256 73.2427L53.1698 69.9042Z" fill="#666666"/>
    <path d="M49.8313 68.3597L46.4926 66.8154L44.9483 70.154L48.2871 71.6983L49.8313 68.3597Z" fill="#666666"/>
    <path d="M48.0369 63.4769L44.6981 61.9326L43.1539 65.2712L46.4926 66.8155L48.0369 63.4769Z" fill="#666666"/>
    <path d="M34.4313 49.0785L31.0925 47.5342L29.5483 50.8727L32.8871 52.417L34.4313 49.0785Z" fill="#666666"/>
    <path d="M46.242 58.5946L32.8871 52.4175L31.3429 55.756L44.6978 61.9332L46.242 58.5946Z" fill="#666666"/>
    <path d="M58.5954 31.8856L49.3302 51.917L45.9914 50.3727L44.4472 53.7113L34.431 49.0784L32.8868 52.417L46.2418 58.5942L44.6975 61.9327L48.0363 63.477L46.4921 66.8156L49.8308 68.3599L52.9192 61.6827L59.5967 64.7713L71.9504 38.0628L58.5954 31.8856Z" fill="white"/>
    <path d="M28.2964 9.76611L15.9427 36.4746L22.6202 39.5632L21.076 42.9018L19.5318 46.2403L22.8705 47.7846L24.4147 44.4461L27.7535 45.9903L29.2977 42.6518L45.9913 50.3732L58.345 23.6647L28.2964 9.76611Z" fill="white"/>
    <path d="M51.918 28.7973L28.5469 17.9873L27.0027 21.3259L50.3738 32.1359L51.918 28.7973Z" fill="black"/>
    <path d="M48.8298 35.4743L25.4586 24.6643L23.9144 28.0029L47.2856 38.8129L48.8298 35.4743Z" fill="black"/>
    <path d="M20.8257 34.6803L17.4869 33.136L15.9427 36.4746L19.2815 38.0188L20.8257 34.6803Z" fill="#CCCCCC"/>
    <path d="M24.1644 36.2247L20.8257 34.6804L19.2815 38.019L22.6202 39.5633L24.1644 36.2247Z" fill="#CCCCCC"/>
    <path d="M25.7087 32.8856L22.37 31.3413L20.8258 34.6799L24.1645 36.2242L25.7087 32.8856Z" fill="#E6E6E6"/>
    <path d="M22.37 31.3417L19.0312 29.7974L17.487 33.1359L20.8258 34.6802L22.37 31.3417Z" fill="#CCCCCC"/>
    <path d="M23.9142 28.0028L20.5754 26.4585L19.0312 29.7971L22.37 31.3413L23.9142 28.0028Z" fill="#CCCCCC"/>
    <path d="M25.4585 24.6642L22.1198 23.1199L20.5755 26.4584L23.9143 28.0027L25.4585 24.6642Z" fill="#E6E6E6"/>
    <path d="M27.0024 21.3263L23.6637 19.782L22.1195 23.1205L25.4582 24.6648L27.0024 21.3263Z" fill="#E6E6E6"/>
    <path d="M28.5467 17.9872L25.208 16.4429L23.6638 19.7814L27.0025 21.3257L28.5467 17.9872Z" fill="#F2F2F2"/>
    <path d="M30.0911 14.6485L26.7523 13.1042L25.2081 16.4428L28.5468 17.9871L30.0911 14.6485Z" fill="#F2F2F2"/>
    <path d="M31.6354 11.3097L28.2966 9.76538L26.7524 13.1039L30.0912 14.6482L31.6354 11.3097Z" fill="#F2F2F2"/>
    <path d="M27.5032 37.7691L24.1644 36.2249L22.6202 39.5634L25.959 41.1077L27.5032 37.7691Z" fill="#E6E6E6"/>
    <path d="M25.9592 41.107L22.6205 39.5627L21.0763 42.9013L24.415 44.4456L25.9592 41.107Z" fill="#CCCCCC"/>
    <path d="M29.298 42.6515L25.9592 41.1072L24.415 44.4457L27.7538 45.99L29.298 42.6515Z" fill="#E6E6E6"/>
    <path d="M24.4149 44.4457L21.0762 42.9014L19.532 46.2399L22.8707 47.7842L24.4149 44.4457Z" fill="#CCCCCC"/>
</svg>
