<svg width="100" height="100" viewBox="0 0 100 100" fill="none" xmlns="http://www.w3.org/2000/svg">
    <g clip-path="url(#clip0_1951_20283)">
        <path d="M38.0881 0H33.3286V4.75952H38.0881V0Z" fill="white"/>
        <path d="M42.8499 0H38.0903V4.75952H42.8499V0Z" fill="white"/>
        <path d="M47.6096 0H42.8501V4.75952H47.6096V0Z" fill="white"/>
        <path d="M52.3811 0H47.6216V4.75952H52.3811V0Z" fill="white"/>
        <path d="M57.1379 0H52.3784V4.75952H57.1379V0Z" fill="white"/>
        <path d="M61.9001 0H57.1406V4.75952H61.9001V0Z" fill="white"/>
        <path d="M66.6594 0H61.8999V4.75952H66.6594V0Z" fill="white"/>
        <path d="M28.5691 4.75977H23.8096V9.51929H28.5691V4.75977Z" fill="white"/>
        <path d="M33.3284 4.75977H28.5688V9.51929H33.3284V4.75977Z" fill="white"/>
        <path d="M38.0881 4.75977H33.3286V9.51929H38.0881V4.75977Z" fill="black"/>
        <path d="M42.8499 4.75977H38.0903V9.51929H42.8499V4.75977Z" fill="black"/>
        <path d="M47.6096 4.75977H42.8501V9.51929H47.6096V4.75977Z" fill="black"/>
        <path d="M52.3811 4.75977H47.6216V9.51929H52.3811V4.75977Z" fill="black"/>
        <path d="M57.1379 4.75977H52.3784V9.51929H57.1379V4.75977Z" fill="black"/>
        <path d="M61.9001 4.75977H57.1406V9.51929H61.9001V4.75977Z" fill="black"/>
        <path d="M66.6594 4.75977H61.8999V9.51929H66.6594V4.75977Z" fill="black"/>
        <path d="M71.4192 4.75977H66.6597V9.51929H71.4192V4.75977Z" fill="white"/>
        <path d="M76.1907 4.75977H71.4312V9.51929H76.1907V4.75977Z" fill="white"/>
        <path d="M23.7976 9.51904H19.0381V14.2786H23.7976V9.51904Z" fill="white"/>
        <path d="M28.5691 9.51904H23.8096V14.2786H28.5691V9.51904Z" fill="black"/>
        <path d="M33.3284 9.51904H28.5688V14.2786H33.3284V9.51904Z" fill="black"/>
        <path d="M38.0881 9.51904H33.3286V14.2786H38.0881V9.51904Z" fill="#F2DE98"/>
        <path d="M42.8499 9.51904H38.0903V14.2786H42.8499V9.51904Z" fill="#F2DE98"/>
        <path d="M47.6096 9.51904H42.8501V14.2786H47.6096V9.51904Z" fill="#F2DE98"/>
        <path d="M52.3811 9.51904H47.6216V14.2786H52.3811V9.51904Z" fill="#F2DE98"/>
        <path d="M57.1379 9.51904H52.3784V14.2786H57.1379V9.51904Z" fill="#F2DE98"/>
        <path d="M61.9001 9.51904H57.1406V14.2786H61.9001V9.51904Z" fill="#F2DE98"/>
        <path d="M66.6594 9.51904H61.8999V14.2786H66.6594V9.51904Z" fill="#F2DE98"/>
        <path d="M71.4192 9.51904H66.6597V14.2786H71.4192V9.51904Z" fill="black"/>
        <path d="M76.1907 9.51904H71.4312V14.2786H76.1907V9.51904Z" fill="black"/>
        <path d="M80.95 9.51904H76.1904V14.2786H80.95V9.51904Z" fill="white"/>
        <path d="M19.0378 14.2905H14.2783V19.0501H19.0378V14.2905Z" fill="white"/>
        <path d="M23.7976 14.2905H19.0381V19.0501H23.7976V14.2905Z" fill="black"/>
        <path d="M28.5691 14.2905H23.8096V19.0501H28.5691V14.2905Z" fill="#F2DE98"/>
        <path d="M33.3284 14.2905H28.5688V19.0501H33.3284V14.2905Z" fill="#F2DE98"/>
        <path d="M38.0881 14.2905H33.3286V19.0501H38.0881V14.2905Z" fill="#FFC522"/>
        <path d="M42.8499 14.2905H38.0903V19.0501H42.8499V14.2905Z" fill="#FFC522"/>
        <path d="M47.6096 14.2905H42.8501V19.0501H47.6096V14.2905Z" fill="#FFC522"/>
        <path d="M52.3811 14.2905H47.6216V19.0501H52.3811V14.2905Z" fill="#FFC522"/>
        <path d="M57.1379 14.2905H52.3784V19.0501H57.1379V14.2905Z" fill="#FFC522"/>
        <path d="M61.9001 14.2905H57.1406V19.0501H61.9001V14.2905Z" fill="#FFC522"/>
        <path d="M66.6594 14.2905H61.8999V19.0501H66.6594V14.2905Z" fill="#FFC522"/>
        <path d="M71.4192 14.2905H66.6597V19.0501H71.4192V14.2905Z" fill="#F2DE98"/>
        <path d="M76.1907 14.2905H71.4312V19.0501H76.1907V14.2905Z" fill="#F2DE98"/>
        <path d="M80.95 14.2905H76.1904V19.0501H80.95V14.2905Z" fill="black"/>
        <path d="M85.7097 14.2905H80.9502V19.0501H85.7097V14.2905Z" fill="white"/>
        <path d="M14.2786 19.0498H9.51904V23.8093H14.2786V19.0498Z" fill="white"/>
        <path d="M19.0378 19.0498H14.2783V23.8093H19.0378V19.0498Z" fill="black"/>
        <path d="M23.7976 19.0498H19.0381V23.8093H23.7976V19.0498Z" fill="#FF9605"/>
        <path d="M28.5691 19.0498H23.8096V23.8093H28.5691V19.0498Z" fill="#FFC522"/>
        <path d="M33.3284 19.0498H28.5688V23.8093H33.3284V19.0498Z" fill="#FFC522"/>
        <path d="M38.0881 19.0498H33.3286V23.8093H38.0881V19.0498Z" fill="#FFC522"/>
        <path d="M42.8499 19.0498H38.0903V23.8093H42.8499V19.0498Z" fill="#FFC522"/>
        <path d="M47.6096 19.0498H42.8501V23.8093H47.6096V19.0498Z" fill="#FFC522"/>
        <path d="M52.3811 19.0498H47.6216V23.8093H52.3811V19.0498Z" fill="#FFC522"/>
        <path d="M57.1379 19.0498H52.3784V23.8093H57.1379V19.0498Z" fill="white"/>
        <path d="M61.9001 19.0498H57.1406V23.8093H61.9001V19.0498Z" fill="#FFC522"/>
        <path d="M66.6594 19.0498H61.8999V23.8093H66.6594V19.0498Z" fill="white"/>
        <path d="M71.4192 19.0498H66.6597V23.8093H71.4192V19.0498Z" fill="#FFC522"/>
        <path d="M76.1907 19.0498H71.4312V23.8093H76.1907V19.0498Z" fill="#FFC522"/>
        <path d="M80.95 19.0498H76.1904V23.8093H80.95V19.0498Z" fill="#F2DE98"/>
        <path d="M85.7097 19.0498H80.9502V23.8093H85.7097V19.0498Z" fill="black"/>
        <path d="M90.469 19.0498H85.7095V23.8093H90.469V19.0498Z" fill="white"/>
        <path d="M9.51929 23.812H4.75977V28.5715H9.51929V23.812Z" fill="white"/>
        <path d="M14.2786 23.812H9.51904V28.5715H14.2786V23.812Z" fill="black"/>
        <path d="M19.0378 23.812H14.2783V28.5715H19.0378V23.812Z" fill="#FF9605"/>
        <path d="M23.7976 23.812H19.0381V28.5715H23.7976V23.812Z" fill="#FFC522"/>
        <path d="M28.5691 23.812H23.8096V28.5715H28.5691V23.812Z" fill="#FFC522"/>
        <path d="M33.3284 23.812H28.5688V28.5715H33.3284V23.812Z" fill="#FFC522"/>
        <path d="M38.0881 23.812H33.3286V28.5715H38.0881V23.812Z" fill="#FFC522"/>
        <path d="M42.8499 23.812H38.0903V28.5715H42.8499V23.812Z" fill="#FFC522"/>
        <path d="M47.6096 23.812H42.8501V28.5715H47.6096V23.812Z" fill="#FFC522"/>
        <path d="M52.3811 23.812H47.6216V28.5715H52.3811V23.812Z" fill="#FFC522"/>
        <path d="M57.1379 23.812H52.3784V28.5715H57.1379V23.812Z" fill="#FFC522"/>
        <path d="M61.9001 23.812H57.1406V28.5715H61.9001V23.812Z" fill="#FFC522"/>
        <path d="M66.6594 23.812H61.8999V28.5715H66.6594V23.812Z" fill="#FFC522"/>
        <path d="M71.4192 23.812H66.6597V28.5715H71.4192V23.812Z" fill="#FFC522"/>
        <path d="M76.1907 23.812H71.4312V28.5715H76.1907V23.812Z" fill="#FFC522"/>
        <path d="M80.95 23.812H76.1904V28.5715H80.95V23.812Z" fill="#FFC522"/>
        <path d="M85.7097 23.812H80.9502V28.5715H85.7097V23.812Z" fill="#F2DE98"/>
        <path d="M90.469 23.812H85.7095V28.5715H90.469V23.812Z" fill="black"/>
        <path d="M95.2288 23.812H90.4692V28.5715H95.2288V23.812Z" fill="white"/>
        <path d="M9.51929 28.5693H4.75977V33.3289H9.51929V28.5693Z" fill="white"/>
        <path d="M14.2786 28.5693H9.51904V33.3289H14.2786V28.5693Z" fill="black"/>
        <path d="M19.0378 28.5693H14.2783V33.3289H19.0378V28.5693Z" fill="#FF9605"/>
        <path d="M23.7976 28.5693H19.0381V33.3289H23.7976V28.5693Z" fill="#FFC522"/>
        <path d="M28.5691 28.5693H23.8096V33.3289H28.5691V28.5693Z" fill="#FFC522"/>
        <path d="M33.3284 28.5693H28.5688V33.3289H33.3284V28.5693Z" fill="#FFC522"/>
        <path d="M38.0881 28.5693H33.3286V33.3289H38.0881V28.5693Z" fill="#FFC522"/>
        <path d="M42.8499 28.5693H38.0903V33.3289H42.8499V28.5693Z" fill="#FFC522"/>
        <path d="M47.6096 28.5693H42.8501V33.3289H47.6096V28.5693Z" fill="#FFC522"/>
        <path d="M52.3811 28.5693H47.6216V33.3289H52.3811V28.5693Z" fill="#FFC522"/>
        <path d="M57.1379 28.5693H52.3784V33.3289H57.1379V28.5693Z" fill="#FFC522"/>
        <path d="M61.9001 28.5693H57.1406V33.3289H61.9001V28.5693Z" fill="#FFC522"/>
        <path d="M66.6594 28.5693H61.8999V33.3289H66.6594V28.5693Z" fill="#FFC522"/>
        <path d="M71.4192 28.5693H66.6597V33.3289H71.4192V28.5693Z" fill="#FFC522"/>
        <path d="M76.1907 28.5693H71.4312V33.3289H76.1907V28.5693Z" fill="#FFC522"/>
        <path d="M80.95 28.5693H76.1904V33.3289H80.95V28.5693Z" fill="#FFC522"/>
        <path d="M85.7097 28.5693H80.9502V33.3289H85.7097V28.5693Z" fill="#F2DE98"/>
        <path d="M90.469 28.5693H85.7095V33.3289H90.469V28.5693Z" fill="black"/>
        <path d="M95.2288 28.5693H90.4692V33.3289H95.2288V28.5693Z" fill="white"/>
        <path d="M4.75952 33.3286H0V38.0881H4.75952V33.3286Z" fill="white"/>
        <path d="M9.51929 33.3286H4.75977V38.0881H9.51929V33.3286Z" fill="black"/>
        <path d="M14.2786 33.3286H9.51904V38.0881H14.2786V33.3286Z" fill="#1A1A1A"/>
        <path d="M19.0378 33.3286H14.2783V38.0881H19.0378V33.3286Z" fill="#FFC522"/>
        <path d="M23.7976 33.3286H19.0381V38.0881H23.7976V33.3286Z" fill="#FFC522"/>
        <path d="M28.5691 33.3286H23.8096V38.0881H28.5691V33.3286Z" fill="black"/>
        <path d="M33.3284 33.3286H28.5688V38.0881H33.3284V33.3286Z" fill="#FFC522"/>
        <path d="M38.0881 33.3286H33.3286V38.0881H38.0881V33.3286Z" fill="#FFC522"/>
        <path d="M42.8499 33.3286H38.0903V38.0881H42.8499V33.3286Z" fill="#FFC522"/>
        <path d="M47.6096 33.3286H42.8501V38.0881H47.6096V33.3286Z" fill="#FFC522"/>
        <path d="M52.3811 33.3286H47.6216V38.0881H52.3811V33.3286Z" fill="#FFC522"/>
        <path d="M57.1379 33.3286H52.3784V38.0881H57.1379V33.3286Z" fill="#FFC522"/>
        <path d="M61.9001 33.3286H57.1406V38.0881H61.9001V33.3286Z" fill="#FFC522"/>
        <path d="M66.6594 33.3286H61.8999V38.0881H66.6594V33.3286Z" fill="#FFC522"/>
        <path d="M71.4192 33.3286H66.6597V38.0881H71.4192V33.3286Z" fill="#FFC522"/>
        <path d="M76.1907 33.3286H71.4312V38.0881H76.1907V33.3286Z" fill="#FFC522"/>
        <path d="M80.95 33.3286H76.1904V38.0881H80.95V33.3286Z" fill="#FFC522"/>
        <path d="M85.7097 33.3286H80.9502V38.0881H85.7097V33.3286Z" fill="#FFC522"/>
        <path d="M90.469 33.3286H85.7095V38.0881H90.469V33.3286Z" fill="#1A1A1A"/>
        <path d="M95.2288 33.3286H90.4692V38.0881H95.2288V33.3286Z" fill="black"/>
        <path d="M99.9998 33.3286H95.2402V38.0881H99.9998V33.3286Z" fill="white"/>
        <path d="M4.75952 38.1001H0V42.8596H4.75952V38.1001Z" fill="white"/>
        <path d="M9.51929 38.1001H4.75977V42.8596H9.51929V38.1001Z" fill="black"/>
        <path d="M14.2786 38.1001H9.51904V42.8596H14.2786V38.1001Z" fill="#FF9605"/>
        <path d="M19.0378 38.1001H14.2783V42.8596H19.0378V38.1001Z" fill="#FFC522"/>
        <path d="M23.7976 38.1001H19.0381V42.8596H23.7976V38.1001Z" fill="#FFC522"/>
        <path d="M28.5691 38.1001H23.8096V42.8596H28.5691V38.1001Z" fill="#FFC522"/>
        <path d="M33.3284 38.1001H28.5688V42.8596H33.3284V38.1001Z" fill="black"/>
        <path d="M38.0881 38.1001H33.3286V42.8596H38.0881V38.1001Z" fill="#FFC522"/>
        <path d="M42.8499 38.1001H38.0903V42.8596H42.8499V38.1001Z" fill="#FFC522"/>
        <path d="M47.6096 38.1001H42.8501V42.8596H47.6096V38.1001Z" fill="#FFC522"/>
        <path d="M52.3811 38.1001H47.6216V42.8596H52.3811V38.1001Z" fill="#FFC522"/>
        <path d="M57.1379 38.1001H52.3784V42.8596H57.1379V38.1001Z" fill="#FFC522"/>
        <path d="M61.9001 38.1001H57.1406V42.8596H61.9001V38.1001Z" fill="#FFC522"/>
        <path d="M66.6594 38.1001H61.8999V42.8596H66.6594V38.1001Z" fill="#FFC522"/>
        <path d="M71.4192 38.1001H66.6597V42.8596H71.4192V38.1001Z" fill="#FFC522"/>
        <path d="M76.1907 38.1001H71.4312V42.8596H76.1907V38.1001Z" fill="#FFC522"/>
        <path d="M80.95 38.1001H76.1904V42.8596H80.95V38.1001Z" fill="#FFC522"/>
        <path d="M85.7097 38.1001H80.9502V42.8596H85.7097V38.1001Z" fill="#FFC522"/>
        <path d="M90.469 38.1001H85.7095V42.8596H90.469V38.1001Z" fill="#F2DE98"/>
        <path d="M95.2288 38.1001H90.4692V42.8596H95.2288V38.1001Z" fill="black"/>
        <path d="M99.9998 38.1001H95.2402V42.8596H99.9998V38.1001Z" fill="white"/>
        <path d="M4.75952 42.8594H0V47.6189H4.75952V42.8594Z" fill="white"/>
        <path d="M9.51929 42.8594H4.75977V47.6189H9.51929V42.8594Z" fill="black"/>
        <path d="M14.2786 42.8594H9.51904V47.6189H14.2786V42.8594Z" fill="#FF9605"/>
        <path d="M19.0378 42.8594H14.2783V47.6189H19.0378V42.8594Z" fill="#FFC522"/>
        <path d="M23.7976 42.8594H19.0381V47.6189H23.7976V42.8594Z" fill="#FFC522"/>
        <path d="M28.5691 42.8594H23.8096V47.6189H28.5691V42.8594Z" fill="#FFC522"/>
        <path d="M33.3284 42.8594H28.5688V47.6189H33.3284V42.8594Z" fill="#FFC522"/>
        <path d="M38.0881 42.8594H33.3286V47.6189H38.0881V42.8594Z" fill="black"/>
        <path d="M42.8499 42.8594H38.0903V47.6189H42.8499V42.8594Z" fill="#FFC522"/>
        <path d="M47.6096 42.8594H42.8501V47.6189H47.6096V42.8594Z" fill="#FFC522"/>
        <path d="M52.3811 42.8594H47.6216V47.6189H52.3811V42.8594Z" fill="#FFC522"/>
        <path d="M57.1379 42.8594H52.3784V47.6189H57.1379V42.8594Z" fill="#FFC522"/>
        <path d="M61.9001 42.8594H57.1406V47.6189H61.9001V42.8594Z" fill="#FFC522"/>
        <path d="M66.6594 42.8594H61.8999V47.6189H66.6594V42.8594Z" fill="#FFC522"/>
        <path d="M71.4192 42.8594H66.6597V47.6189H71.4192V42.8594Z" fill="#FFC522"/>
        <path d="M76.1907 42.8594H71.4312V47.6189H76.1907V42.8594Z" fill="#FFC522"/>
        <path d="M80.95 42.8594H76.1904V47.6189H80.95V42.8594Z" fill="#FFC522"/>
        <path d="M85.7097 42.8594H80.9502V47.6189H85.7097V42.8594Z" fill="#FFC522"/>
        <path d="M90.469 42.8594H85.7095V47.6189H90.469V42.8594Z" fill="#F2DE98"/>
        <path d="M95.2288 42.8594H90.4692V47.6189H95.2288V42.8594Z" fill="black"/>
        <path d="M99.9998 42.8594H95.2402V47.6189H99.9998V42.8594Z" fill="white"/>
        <path d="M4.75952 47.6216H0V52.3811H4.75952V47.6216Z" fill="white"/>
        <path d="M9.51929 47.6216H4.75977V52.3811H9.51929V47.6216Z" fill="black"/>
        <path d="M14.2786 47.6216H9.51904V52.3811H14.2786V47.6216Z" fill="#FF9605"/>
        <path d="M19.0378 47.6216H14.2783V52.3811H19.0378V47.6216Z" fill="#FFC522"/>
        <path d="M23.7976 47.6216H19.0381V52.3811H23.7976V47.6216Z" fill="#FFC522"/>
        <path d="M28.5691 47.6216H23.8096V52.3811H28.5691V47.6216Z" fill="#FFC522"/>
        <path d="M33.3284 47.6216H28.5688V52.3811H33.3284V47.6216Z" fill="black"/>
        <path d="M38.0881 47.6216H33.3286V52.3811H38.0881V47.6216Z" fill="#FFC522"/>
        <path d="M42.8499 47.6216H38.0903V52.3811H42.8499V47.6216Z" fill="#FFC522"/>
        <path d="M47.6096 47.6216H42.8501V52.3811H47.6096V47.6216Z" fill="#FFC522"/>
        <path d="M52.3811 47.6216H47.6216V52.3811H52.3811V47.6216Z" fill="#FFC522"/>
        <path d="M57.1379 47.6216H52.3784V52.3811H57.1379V47.6216Z" fill="#FFC522"/>
        <path d="M61.9001 47.6216H57.1406V52.3811H61.9001V47.6216Z" fill="#FFC522"/>
        <path d="M66.6594 47.6216H61.8999V52.3811H66.6594V47.6216Z" fill="#FFC522"/>
        <path d="M71.4192 47.6216H66.6597V52.3811H71.4192V47.6216Z" fill="#FFC522"/>
        <path d="M76.1907 47.6216H71.4312V52.3811H76.1907V47.6216Z" fill="#FFC522"/>
        <path d="M80.95 47.6216H76.1904V52.3811H80.95V47.6216Z" fill="#FFC522"/>
        <path d="M85.7097 47.6216H80.9502V52.3811H85.7097V47.6216Z" fill="#FFC522"/>
        <path d="M90.469 47.6216H85.7095V52.3811H90.469V47.6216Z" fill="#F2DE98"/>
        <path d="M95.2288 47.6216H90.4692V52.3811H95.2288V47.6216Z" fill="black"/>
        <path d="M99.9998 47.6216H95.2402V52.3811H99.9998V47.6216Z" fill="white"/>
        <path d="M4.75952 52.3809H0V57.1404H4.75952V52.3809Z" fill="white"/>
        <path d="M9.51929 52.3809H4.75977V57.1404H9.51929V52.3809Z" fill="black"/>
        <path d="M14.2786 52.3809H9.51904V57.1404H14.2786V52.3809Z" fill="#FF9605"/>
        <path d="M19.0378 52.3809H14.2783V57.1404H19.0378V52.3809Z" fill="#FFC522"/>
        <path d="M23.7976 52.3809H19.0381V57.1404H23.7976V52.3809Z" fill="#FFC522"/>
        <path d="M28.5691 52.3809H23.8096V57.1404H28.5691V52.3809Z" fill="black"/>
        <path d="M33.3284 52.3809H28.5688V57.1404H33.3284V52.3809Z" fill="#FFC522"/>
        <path d="M38.0881 52.3809H33.3286V57.1404H38.0881V52.3809Z" fill="#FFC522"/>
        <path d="M42.8499 52.3809H38.0903V57.1404H42.8499V52.3809Z" fill="#FFC522"/>
        <path d="M47.6096 52.3809H42.8501V57.1404H47.6096V52.3809Z" fill="#FFC522"/>
        <path d="M52.3811 52.3809H47.6216V57.1404H52.3811V52.3809Z" fill="#FFC522"/>
        <path d="M57.1379 52.3809H52.3784V57.1404H57.1379V52.3809Z" fill="#FFC522"/>
        <path d="M61.9001 52.3809H57.1406V57.1404H61.9001V52.3809Z" fill="#FFC522"/>
        <path d="M66.6594 52.3809H61.8999V57.1404H66.6594V52.3809Z" fill="#FFC522"/>
        <path d="M71.4192 52.3809H66.6597V57.1404H71.4192V52.3809Z" fill="#FFC522"/>
        <path d="M76.1907 52.3809H71.4312V57.1404H76.1907V52.3809Z" fill="black"/>
        <path d="M80.95 52.3809H76.1904V57.1404H80.95V52.3809Z" fill="#FFC522"/>
        <path d="M85.7097 52.3809H80.9502V57.1404H85.7097V52.3809Z" fill="#FFC522"/>
        <path d="M90.469 52.3809H85.7095V57.1404H90.469V52.3809Z" fill="#F2DE98"/>
        <path d="M95.2288 52.3809H90.4692V57.1404H95.2288V52.3809Z" fill="black"/>
        <path d="M99.9998 52.3809H95.2402V57.1404H99.9998V52.3809Z" fill="white"/>
        <path d="M4.75952 57.1406H0V61.9001H4.75952V57.1406Z" fill="white"/>
        <path d="M9.51929 57.1406H4.75977V61.9001H9.51929V57.1406Z" fill="black"/>
        <path d="M14.2786 57.1406H9.51904V61.9001H14.2786V57.1406Z" fill="#FF9605"/>
        <path d="M19.0378 57.1406H14.2783V61.9001H19.0378V57.1406Z" fill="#FFC522"/>
        <path d="M23.7976 57.1406H19.0381V61.9001H23.7976V57.1406Z" fill="#FFC522"/>
        <path d="M28.5691 57.1406H23.8096V61.9001H28.5691V57.1406Z" fill="#FFC522"/>
        <path d="M33.3284 57.1406H28.5688V61.9001H33.3284V57.1406Z" fill="#FFC522"/>
        <path d="M38.0881 57.1406H33.3286V61.9001H38.0881V57.1406Z" fill="#FFC522"/>
        <path d="M42.8499 57.1406H38.0903V61.9001H42.8499V57.1406Z" fill="#FFC522"/>
        <path d="M47.6096 57.1406H42.8501V61.9001H47.6096V57.1406Z" fill="#FFC522"/>
        <path d="M52.3811 57.1406H47.6216V61.9001H52.3811V57.1406Z" fill="#FFC522"/>
        <path d="M57.1379 57.1406H52.3784V61.9001H57.1379V57.1406Z" fill="#FFC522"/>
        <path d="M61.9001 57.1406H57.1406V61.9001H61.9001V57.1406Z" fill="#FFC522"/>
        <path d="M66.6594 57.1406H61.8999V61.9001H66.6594V57.1406Z" fill="#FFC522"/>
        <path d="M71.4192 57.1406H66.6597V61.9001H71.4192V57.1406Z" fill="#FFC522"/>
        <path d="M76.1907 57.1406H71.4312V61.9001H76.1907V57.1406Z" fill="#FFC522"/>
        <path d="M80.95 57.1406H76.1904V61.9001H80.95V57.1406Z" fill="#FFC522"/>
        <path d="M85.7097 57.1406H80.9502V61.9001H85.7097V57.1406Z" fill="#FFC522"/>
        <path d="M90.469 57.1406H85.7095V61.9001H90.469V57.1406Z" fill="#F2DE98"/>
        <path d="M95.2288 57.1406H90.4692V61.9001H95.2288V57.1406Z" fill="black"/>
        <path d="M99.9998 57.1406H95.2402V61.9001H99.9998V57.1406Z" fill="white"/>
        <path d="M4.75952 61.9116H0V66.6711H4.75952V61.9116Z" fill="white"/>
        <path d="M9.51929 61.9116H4.75977V66.6711H9.51929V61.9116Z" fill="black"/>
        <path d="M14.2786 61.9116H9.51904V66.6711H14.2786V61.9116Z" fill="#FF9605"/>
        <path d="M19.0378 61.9116H14.2783V66.6711H19.0378V61.9116Z" fill="#FFC522"/>
        <path d="M23.7976 61.9116H19.0381V66.6711H23.7976V61.9116Z" fill="#FFC522"/>
        <path d="M28.5691 61.9116H23.8096V66.6711H28.5691V61.9116Z" fill="#FFC522"/>
        <path d="M33.3284 61.9116H28.5688V66.6711H33.3284V61.9116Z" fill="#FFC522"/>
        <path d="M38.0881 61.9116H33.3286V66.6711H38.0881V61.9116Z" fill="#FFC522"/>
        <path d="M42.8499 61.9116H38.0903V66.6711H42.8499V61.9116Z" fill="#FFC522"/>
        <path d="M47.6096 61.9116H42.8501V66.6711H47.6096V61.9116Z" fill="#FFC522"/>
        <path d="M52.3811 61.9116H47.6216V66.6711H52.3811V61.9116Z" fill="#FFC522"/>
        <path d="M57.1379 61.9116H52.3784V66.6711H57.1379V61.9116Z" fill="#FFC522"/>
        <path d="M61.9001 61.9116H57.1406V66.6711H61.9001V61.9116Z" fill="#FFC522"/>
        <path d="M66.6594 61.9116H61.8999V66.6711H66.6594V61.9116Z" fill="#FFC522"/>
        <path d="M71.4192 61.9116H66.6597V66.6711H71.4192V61.9116Z" fill="#FFC522"/>
        <path d="M76.1907 61.9116H71.4312V66.6711H76.1907V61.9116Z" fill="#FFC522"/>
        <path d="M80.95 61.9116H76.1904V66.6711H80.95V61.9116Z" fill="#FFC522"/>
        <path d="M85.7097 61.9116H80.9502V66.6711H85.7097V61.9116Z" fill="#FFC522"/>
        <path d="M90.469 61.9116H85.7095V66.6711H90.469V61.9116Z" fill="#F2DE98"/>
        <path d="M95.2288 61.9116H90.4692V66.6711H95.2288V61.9116Z" fill="black"/>
        <path d="M99.9998 61.9116H95.2402V66.6711H99.9998V61.9116Z" fill="white"/>
        <path d="M9.51929 66.6738H4.75977V71.4333H9.51929V66.6738Z" fill="white"/>
        <path d="M14.2786 66.6738H9.51904V71.4333H14.2786V66.6738Z" fill="black"/>
        <path d="M19.0378 66.6738H14.2783V71.4333H19.0378V66.6738Z" fill="#FF9605"/>
        <path d="M23.7976 66.6738H19.0381V71.4333H23.7976V66.6738Z" fill="#FFC522"/>
        <path d="M28.5691 66.6738H23.8096V71.4333H28.5691V66.6738Z" fill="#FFC522"/>
        <path d="M33.3284 66.6738H28.5688V71.4333H33.3284V66.6738Z" fill="#FFC522"/>
        <path d="M38.0881 66.6738H33.3286V71.4333H38.0881V66.6738Z" fill="#71382A"/>
        <path d="M42.8499 66.6738H38.0903V71.4333H42.8499V66.6738Z" fill="#71382A"/>
        <path d="M47.6096 66.6738H42.8501V71.4333H47.6096V66.6738Z" fill="#71382A"/>
        <path d="M52.3811 66.6738H47.6216V71.4333H52.3811V66.6738Z" fill="#71382A"/>
        <path d="M57.1379 66.6738H52.3784V71.4333H57.1379V66.6738Z" fill="#71382A"/>
        <path d="M61.9001 66.6738H57.1406V71.4333H61.9001V66.6738Z" fill="#71382A"/>
        <path d="M66.6594 66.6738H61.8999V71.4333H66.6594V66.6738Z" fill="#71382A"/>
        <path d="M71.4192 66.6738H66.6597V71.4333H71.4192V66.6738Z" fill="#FFC522"/>
        <path d="M76.1907 66.6738H71.4312V71.4333H76.1907V66.6738Z" fill="#FFC522"/>
        <path d="M80.95 66.6738H76.1904V71.4333H80.95V66.6738Z" fill="#FFC522"/>
        <path d="M85.7097 66.6738H80.9502V71.4333H85.7097V66.6738Z" fill="#F2DE98"/>
        <path d="M90.469 66.6738H85.7095V71.4333H90.469V66.6738Z" fill="black"/>
        <path d="M95.2288 66.6738H90.4692V71.4333H95.2288V66.6738Z" fill="white"/>
        <path d="M9.51929 71.4307H4.75977V76.1902H9.51929V71.4307Z" fill="white"/>
        <path d="M14.2786 71.4307H9.51904V76.1902H14.2786V71.4307Z" fill="black"/>
        <path d="M19.0378 71.4307H14.2783V76.1902H19.0378V71.4307Z" fill="#FF9605"/>
        <path d="M23.7976 71.4307H19.0381V76.1902H23.7976V71.4307Z" fill="#FFC522"/>
        <path d="M28.5691 71.4307H23.8096V76.1902H28.5691V71.4307Z" fill="#FFC522"/>
        <path d="M33.3284 71.4307H28.5688V76.1902H33.3284V71.4307Z" fill="#FFC522"/>
        <path d="M38.0881 71.4307H33.3286V76.1902H38.0881V71.4307Z" fill="#FFC522"/>
        <path d="M42.8499 71.4307H38.0903V76.1902H42.8499V71.4307Z" fill="#FFC522"/>
        <path d="M47.6096 71.4307H42.8501V76.1902H47.6096V71.4307Z" fill="#FFC522"/>
        <path d="M52.3811 71.4307H47.6216V76.1902H52.3811V71.4307Z" fill="#FFC522"/>
        <path d="M57.1379 71.4307H52.3784V76.1902H57.1379V71.4307Z" fill="#FFC522"/>
        <path d="M61.9001 71.4307H57.1406V76.1902H61.9001V71.4307Z" fill="#FFC522"/>
        <path d="M66.6594 71.4307H61.8999V76.1902H66.6594V71.4307Z" fill="#FFC522"/>
        <path d="M71.4192 71.4307H66.6597V76.1902H71.4192V71.4307Z" fill="#FFC522"/>
        <path d="M76.1907 71.4307H71.4312V76.1902H76.1907V71.4307Z" fill="#FFC522"/>
        <path d="M80.95 71.4307H76.1904V76.1902H80.95V71.4307Z" fill="#FFC522"/>
        <path d="M85.7097 71.4307H80.9502V76.1902H85.7097V71.4307Z" fill="#F2DE98"/>
        <path d="M90.469 71.4307H85.7095V76.1902H90.469V71.4307Z" fill="black"/>
        <path d="M95.2288 71.4307H90.4692V76.1902H95.2288V71.4307Z" fill="white"/>
        <path d="M9.51929 76.1904H4.75977V80.95H9.51929V76.1904Z" fill="white"/>
        <path d="M14.2786 76.1904H9.51904V80.95H14.2786V76.1904Z" fill="white"/>
        <path d="M19.0378 76.1904H14.2783V80.95H19.0378V76.1904Z" fill="black"/>
        <path d="M23.7976 76.1904H19.0381V80.95H23.7976V76.1904Z" fill="#FF9605"/>
        <path d="M28.5691 76.1904H23.8096V80.95H28.5691V76.1904Z" fill="#FFC522"/>
        <path d="M33.3284 76.1904H28.5688V80.95H33.3284V76.1904Z" fill="#FFC522"/>
        <path d="M38.0881 76.1904H33.3286V80.95H38.0881V76.1904Z" fill="#FFC522"/>
        <path d="M42.8499 76.1904H38.0903V80.95H42.8499V76.1904Z" fill="#FFC522"/>
        <path d="M47.6096 76.1904H42.8501V80.95H47.6096V76.1904Z" fill="#FFC522"/>
        <path d="M52.3811 76.1904H47.6216V80.95H52.3811V76.1904Z" fill="#FFC522"/>
        <path d="M57.1379 76.1904H52.3784V80.95H57.1379V76.1904Z" fill="#FFC522"/>
        <path d="M61.9001 76.1904H57.1406V80.95H61.9001V76.1904Z" fill="#FFC522"/>
        <path d="M66.6594 76.1904H61.8999V80.95H66.6594V76.1904Z" fill="#FFC522"/>
        <path d="M71.4192 76.1904H66.6597V80.95H71.4192V76.1904Z" fill="#FFC522"/>
        <path d="M76.1907 76.1904H71.4312V80.95H76.1907V76.1904Z" fill="#FFC522"/>
        <path d="M80.95 76.1904H76.1904V80.95H80.95V76.1904Z" fill="#F2DE98"/>
        <path d="M85.7097 76.1904H80.9502V80.95H85.7097V76.1904Z" fill="black"/>
        <path d="M90.469 76.1904H85.7095V80.95H90.469V76.1904Z" fill="white"/>
        <path d="M95.2288 76.1904H90.4692V80.95H95.2288V76.1904Z" fill="white"/>
        <path d="M14.2786 80.9502H9.51904V85.7097H14.2786V80.9502Z" fill="white"/>
        <path d="M19.0378 80.9502H14.2783V85.7097H19.0378V80.9502Z" fill="white"/>
        <path d="M23.7976 80.9502H19.0381V85.7097H23.7976V80.9502Z" fill="black"/>
        <path d="M28.5691 80.9502H23.8096V85.7097H28.5691V80.9502Z" fill="#FF9605"/>
        <path d="M33.3284 80.9502H28.5688V85.7097H33.3284V80.9502Z" fill="#FF9605"/>
        <path d="M38.0881 80.9502H33.3286V85.7097H38.0881V80.9502Z" fill="#FFC522"/>
        <path d="M42.8499 80.9502H38.0903V85.7097H42.8499V80.9502Z" fill="#FFC522"/>
        <path d="M47.6096 80.9502H42.8501V85.7097H47.6096V80.9502Z" fill="#FFC522"/>
        <path d="M52.3811 80.9502H47.6216V85.7097H52.3811V80.9502Z" fill="#FFC522"/>
        <path d="M57.1379 80.9502H52.3784V85.7097H57.1379V80.9502Z" fill="#FFC522"/>
        <path d="M61.9001 80.9502H57.1406V85.7097H61.9001V80.9502Z" fill="#FFC522"/>
        <path d="M66.6594 80.9502H61.8999V85.7097H66.6594V80.9502Z" fill="#FFC522"/>
        <path d="M71.4192 80.9502H66.6597V85.7097H71.4192V80.9502Z" fill="#F2DE98"/>
        <path d="M76.1907 80.9502H71.4312V85.7097H76.1907V80.9502Z" fill="#F2DE98"/>
        <path d="M80.95 80.9502H76.1904V85.7097H80.95V80.9502Z" fill="black"/>
        <path d="M85.7097 80.9502H80.9502V85.7097H85.7097V80.9502Z" fill="white"/>
        <path d="M90.469 80.9502H85.7095V85.7097H90.469V80.9502Z" fill="white"/>
        <path d="M19.0378 85.7212H14.2783V90.4807H19.0378V85.7212Z" fill="white"/>
        <path d="M23.7976 85.7212H19.0381V90.4807H23.7976V85.7212Z" fill="white"/>
        <path d="M28.5691 85.7212H23.8096V90.4807H28.5691V85.7212Z" fill="black"/>
        <path d="M33.3284 85.7212H28.5688V90.4807H33.3284V85.7212Z" fill="black"/>
        <path d="M38.0881 85.7212H33.3286V90.4807H38.0881V85.7212Z" fill="#FF9605"/>
        <path d="M42.8499 85.7212H38.0903V90.4807H42.8499V85.7212Z" fill="#FF9605"/>
        <path d="M47.6096 85.7212H42.8501V90.4807H47.6096V85.7212Z" fill="#FF9605"/>
        <path d="M52.3811 85.7212H47.6216V90.4807H52.3811V85.7212Z" fill="#FF9605"/>
        <path d="M57.1379 85.7212H52.3784V90.4807H57.1379V85.7212Z" fill="#FF9605"/>
        <path d="M61.9001 85.7212H57.1406V90.4807H61.9001V85.7212Z" fill="#FF9605"/>
        <path d="M66.6594 85.7212H61.8999V90.4807H66.6594V85.7212Z" fill="#FF9605"/>
        <path d="M71.4192 85.7212H66.6597V90.4807H71.4192V85.7212Z" fill="black"/>
        <path d="M76.1907 85.7212H71.4312V90.4807H76.1907V85.7212Z" fill="black"/>
        <path d="M80.95 85.7212H76.1904V90.4807H80.95V85.7212Z" fill="white"/>
        <path d="M85.7097 85.7212H80.9502V90.4807H85.7097V85.7212Z" fill="white"/>
        <path d="M23.7976 90.4834H19.0381V95.2429H23.7976V90.4834Z" fill="white"/>
        <path d="M28.5691 90.4834H23.8096V95.2429H28.5691V90.4834Z" fill="white"/>
        <path d="M33.3284 90.4834H28.5688V95.2429H33.3284V90.4834Z" fill="white"/>
        <path d="M38.0881 90.4834H33.3286V95.2429H38.0881V90.4834Z" fill="black"/>
        <path d="M42.8499 90.4834H38.0903V95.2429H42.8499V90.4834Z" fill="black"/>
        <path d="M47.6096 90.4834H42.8501V95.2429H47.6096V90.4834Z" fill="black"/>
        <path d="M52.3811 90.4834H47.6216V95.2429H52.3811V90.4834Z" fill="black"/>
        <path d="M57.1379 90.4834H52.3784V95.2429H57.1379V90.4834Z" fill="black"/>
        <path d="M61.9001 90.4834H57.1406V95.2429H61.9001V90.4834Z" fill="black"/>
        <path d="M66.6594 90.4834H61.8999V95.2429H66.6594V90.4834Z" fill="black"/>
        <path d="M71.4192 90.4834H66.6597V95.2429H71.4192V90.4834Z" fill="white"/>
        <path d="M76.1907 90.4834H71.4312V95.2429H76.1907V90.4834Z" fill="white"/>
        <path d="M80.95 90.4834H76.1904V95.2429H80.95V90.4834Z" fill="white"/>
        <path d="M33.3284 95.2402H28.5688V99.9998H33.3284V95.2402Z" fill="white"/>
        <path d="M38.0881 95.2402H33.3286V99.9998H38.0881V95.2402Z" fill="white"/>
        <path d="M42.8499 95.2402H38.0903V99.9998H42.8499V95.2402Z" fill="white"/>
        <path d="M47.6096 95.2402H42.8501V99.9998H47.6096V95.2402Z" fill="white"/>
        <path d="M52.3811 95.2402H47.6216V99.9998H52.3811V95.2402Z" fill="white"/>
        <path d="M57.1379 95.2402H52.3784V99.9998H57.1379V95.2402Z" fill="white"/>
        <path d="M61.9001 95.2402H57.1406V99.9998H61.9001V95.2402Z" fill="white"/>
        <path d="M66.6594 95.2402H61.8999V99.9998H66.6594V95.2402Z" fill="white"/>
        <path d="M71.4192 95.2402H66.6597V99.9998H71.4192V95.2402Z" fill="white"/>
        <path d="M61.8928 28.5693H57.1333V33.3289H61.8928V28.5693Z" fill="#FFC522"/>
        <path d="M66.6643 28.5693H61.9048V33.3289H66.6643V28.5693Z" fill="#FFC522"/>
        <path d="M76.1833 28.5693H71.4238V33.3289H76.1833V28.5693Z" fill="#FFC522"/>
        <path d="M80.9426 28.5693H76.1831V33.3289H80.9426V28.5693Z" fill="#FFC522"/>
        <path d="M57.1335 33.3286H52.374V38.0881H57.1335V33.3286Z" fill="#FFC522"/>
        <path d="M61.8928 33.3286H57.1333V38.0881H61.8928V33.3286Z" fill="#FFC522"/>
        <path d="M66.6643 33.3286H61.9048V38.0881H66.6643V33.3286Z" fill="#FFC522"/>
        <path d="M71.4236 33.3286H66.6641V38.0881H71.4236V33.3286Z" fill="#FFC522"/>
        <path d="M76.1833 33.3286H71.4238V38.0881H76.1833V33.3286Z" fill="black"/>
        <path d="M80.9426 33.3286H76.1831V38.0881H80.9426V33.3286Z" fill="#FFC522"/>
        <path d="M85.7024 33.3286H80.9429V38.0881H85.7024V33.3286Z" fill="#FFC522"/>
        <path d="M61.8928 38.1001H57.1333V42.8596H61.8928V38.1001Z" fill="#FFC522"/>
        <path d="M66.6643 38.1001H61.9048V42.8596H66.6643V38.1001Z" fill="#FFC522"/>
        <path d="M71.4236 38.1001H66.6641V42.8596H71.4236V38.1001Z" fill="black"/>
        <path d="M76.1833 38.1001H71.4238V42.8596H76.1833V38.1001Z" fill="#FFC522"/>
        <path d="M80.9426 38.1001H76.1831V42.8596H80.9426V38.1001Z" fill="#FFC522"/>
        <path d="M66.6643 42.8594H61.9048V47.6189H66.6643V42.8594Z" fill="black"/>
        <path d="M71.4236 42.8594H66.6641V47.6189H71.4236V42.8594Z" fill="#FFC522"/>
        <path d="M76.1833 42.8594H71.4238V47.6189H76.1833V42.8594Z" fill="#FFC522"/>
        <path d="M71.4236 47.6216H66.6641V52.3811H71.4236V47.6216Z" fill="black"/>
    </g>
    <defs>
        <clipPath id="clip0_1951_20283">
            <rect width="100" height="100" fill="white"/>
        </clipPath>
    </defs>
</svg>
