<svg width="40" height="50" viewBox="0 0 40 50" fill="none" xmlns="http://www.w3.org/2000/svg">
    <path d="M23.9122 0L21.7361 0V2.1761H23.9122V0Z" fill="white"/>
    <path d="M21.7357 2.17578H19.5596V4.35188H21.7357V2.17578Z" fill="white"/>
    <path d="M23.9122 2.17578H21.7361V4.35188H23.9122V2.17578Z" fill="black"/>
    <path d="M26.0877 2.17578H23.9116V4.35188H26.0877V2.17578Z" fill="white"/>
    <path d="M19.5601 4.35254H17.384V6.52864H19.5601V4.35254Z" fill="white"/>
    <path d="M21.7357 4.35254H19.5596V6.52864H21.7357V4.35254Z" fill="black"/>
    <path d="M23.9122 4.35254H21.7361V6.52864H23.9122V4.35254Z" fill="#BF4400"/>
    <path d="M26.0877 4.35254H23.9116V6.52864H26.0877V4.35254Z" fill="black"/>
    <path d="M28.2645 4.35254H26.0884V6.52864H28.2645V4.35254Z" fill="white"/>
    <path d="M17.3958 6.51611H15.2197V8.69221H17.3958V6.51611Z" fill="white"/>
    <path d="M19.5601 6.51611H17.384V8.69221H19.5601V6.51611Z" fill="black"/>
    <path d="M21.7357 6.51611H19.5596V8.69221H21.7357V6.51611Z" fill="#BF4400"/>
    <path d="M23.9122 6.51611H21.7361V8.69221H23.9122V6.51611Z" fill="#BF4400"/>
    <path d="M26.0877 6.51611H23.9116V8.69221H26.0877V6.51611Z" fill="black"/>
    <path d="M28.2645 6.51611H26.0884V8.69221H28.2645V6.51611Z" fill="white"/>
    <path d="M15.2205 8.69238H13.0444V10.8685H15.2205V8.69238Z" fill="white"/>
    <path d="M17.3958 8.69238H15.2197V10.8685H17.3958V8.69238Z" fill="black"/>
    <path d="M19.5601 8.69238H17.384V10.8685H19.5601V8.69238Z" fill="#BF4400"/>
    <path d="M21.7357 8.69238H19.5596V10.8685H21.7357V8.69238Z" fill="#FF8000"/>
    <path d="M23.9122 8.69238H21.7361V10.8685H23.9122V8.69238Z" fill="#BF4400"/>
    <path d="M26.0877 8.69238H23.9116V10.8685H26.0877V8.69238Z" fill="black"/>
    <path d="M28.2645 8.69238H26.0884V10.8685H28.2645V8.69238Z" fill="white"/>
    <path d="M13.0438 10.8682H10.8677V13.0443H13.0438V10.8682Z" fill="white"/>
    <path d="M15.2205 10.8682H13.0444V13.0443H15.2205V10.8682Z" fill="black"/>
    <path d="M17.3958 10.8682H15.2197V13.0443H17.3958V10.8682Z" fill="#BF4400"/>
    <path d="M19.5601 10.8682H17.384V13.0443H19.5601V10.8682Z" fill="#BF4400"/>
    <path d="M21.7357 10.8682H19.5596V13.0443H21.7357V10.8682Z" fill="#BF4400"/>
    <path d="M23.9122 10.8682H21.7361V13.0443H23.9122V10.8682Z" fill="black"/>
    <path d="M26.0877 10.8682H23.9116V13.0443H26.0877V10.8682Z" fill="white"/>
    <path d="M13.0438 13.0439H10.8677V15.22H13.0438V13.0439Z" fill="white"/>
    <path d="M15.2205 13.0439H13.0444V15.22H15.2205V13.0439Z" fill="black"/>
    <path d="M17.3958 13.0439H15.2197V15.22H17.3958V13.0439Z" fill="#BF4400"/>
    <path d="M19.5601 13.0439H17.384V15.22H19.5601V13.0439Z" fill="#FF8000"/>
    <path d="M21.7357 13.0439H19.5596V15.22H21.7357V13.0439Z" fill="#BF4400"/>
    <path d="M23.9122 13.0439H21.7361V15.22H23.9122V13.0439Z" fill="black"/>
    <path d="M26.0877 13.0439H23.9116V15.22H26.0877V13.0439Z" fill="white"/>
    <path d="M10.868 15.2202H8.69189V17.3963H10.868V15.2202Z" fill="white"/>
    <path d="M13.0438 15.2202H10.8677V17.3963H13.0438V15.2202Z" fill="black"/>
    <path d="M15.2205 15.2202H13.0444V17.3963H15.2205V15.2202Z" fill="#BF4400"/>
    <path d="M17.3958 15.2202H15.2197V17.3963H17.3958V15.2202Z" fill="#BF4400"/>
    <path d="M19.5601 15.2202H17.384V17.3963H19.5601V15.2202Z" fill="#FF8000"/>
    <path d="M21.7357 15.2202H19.5596V17.3963H21.7357V15.2202Z" fill="#BF4400"/>
    <path d="M23.9122 15.2202H21.7361V17.3963H23.9122V15.2202Z" fill="#BF4400"/>
    <path d="M26.0877 15.2202H23.9116V17.3963H26.0877V15.2202Z" fill="black"/>
    <path d="M28.2645 15.2202H26.0884V17.3963H28.2645V15.2202Z" fill="white"/>
    <path d="M10.868 17.3833H8.69189V19.5594H10.868V17.3833Z" fill="white"/>
    <path d="M13.0438 17.3833H10.8677V19.5594H13.0438V17.3833Z" fill="black"/>
    <path d="M15.2205 17.3833H13.0444V19.5594H15.2205V17.3833Z" fill="#D95C17"/>
    <path d="M17.3958 17.3833H15.2197V19.5594H17.3958V17.3833Z" fill="#BF4400"/>
    <path d="M19.5601 17.3833H17.384V19.5594H19.5601V17.3833Z" fill="#D95C17"/>
    <path d="M21.7357 17.3833H19.5596V19.5594H21.7357V17.3833Z" fill="#BF4400"/>
    <path d="M23.9122 17.3833H21.7361V19.5594H23.9122V17.3833Z" fill="#D95C17"/>
    <path d="M26.0877 17.3833H23.9116V19.5594H26.0877V17.3833Z" fill="black"/>
    <path d="M28.2645 17.3833H26.0884V19.5594H28.2645V17.3833Z" fill="white"/>
    <path d="M4.35286 19.5596H2.17676V21.7357H4.35286V19.5596Z" fill="white"/>
    <path d="M8.69124 19.5596H6.51514V21.7357H8.69124V19.5596Z" fill="white"/>
    <path d="M10.868 19.5596H8.69189V21.7357H10.868V19.5596Z" fill="black"/>
    <path d="M13.0438 19.5596H10.8677V21.7357H13.0438V19.5596Z" fill="#BF4400"/>
    <path d="M15.2205 19.5596H13.0444V21.7357H15.2205V19.5596Z" fill="#D95C17"/>
    <path d="M17.3958 19.5596H15.2197V21.7357H17.3958V19.5596Z" fill="#D95C17"/>
    <path d="M19.5601 19.5596H17.384V21.7357H19.5601V19.5596Z" fill="#FF8000"/>
    <path d="M21.7357 19.5596H19.5596V21.7357H21.7357V19.5596Z" fill="#D95C17"/>
    <path d="M23.9122 19.5596H21.7361V21.7357H23.9122V19.5596Z" fill="#BF4400"/>
    <path d="M26.0877 19.5596H23.9116V21.7357H26.0877V19.5596Z" fill="#BF4400"/>
    <path d="M28.2645 19.5596H26.0884V21.7357H28.2645V19.5596Z" fill="black"/>
    <path d="M30.4276 19.5596H28.2515V21.7357H30.4276V19.5596Z" fill="white"/>
    <path d="M32.6043 19.5596H30.4282V21.7357H32.6043V19.5596Z" fill="white"/>
    <path d="M2.1761 21.7363H0L0 23.9124H2.1761V21.7363Z" fill="white"/>
    <path d="M4.35286 21.7363H2.17676V23.9124H4.35286V21.7363Z" fill="black"/>
    <path d="M6.52815 21.7363H4.35205V23.9124H6.52815V21.7363Z" fill="white"/>
    <path d="M8.69124 21.7363H6.51514V23.9124H8.69124V21.7363Z" fill="white"/>
    <path d="M10.868 21.7363H8.69189V23.9124H10.868V21.7363Z" fill="black"/>
    <path d="M13.0438 21.7363H10.8677V23.9124H13.0438V21.7363Z" fill="#D95C17"/>
    <path d="M15.2205 21.7363H13.0444V23.9124H15.2205V21.7363Z" fill="#BF4400"/>
    <path d="M17.3958 21.7363H15.2197V23.9124H17.3958V21.7363Z" fill="#D95C17"/>
    <path d="M19.5601 21.7363H17.384V23.9124H19.5601V21.7363Z" fill="#FFAE33"/>
    <path d="M21.7357 21.7363H19.5596V23.9124H21.7357V21.7363Z" fill="#FF8000"/>
    <path d="M23.9122 21.7363H21.7361V23.9124H23.9122V21.7363Z" fill="#D95C17"/>
    <path d="M26.0877 21.7363H23.9116V23.9124H26.0877V21.7363Z" fill="#BF4400"/>
    <path d="M28.2645 21.7363H26.0884V23.9124H28.2645V21.7363Z" fill="black"/>
    <path d="M30.4276 21.7363H28.2515V23.9124H30.4276V21.7363Z" fill="white"/>
    <path d="M32.6043 21.7363H30.4282V23.9124H32.6043V21.7363Z" fill="black"/>
    <path d="M34.7799 21.7363H32.6038V23.9124H34.7799V21.7363Z" fill="white"/>
    <path d="M2.1761 23.9116H0L0 26.0877H2.1761V23.9116Z" fill="white"/>
    <path d="M4.35286 23.9116H2.17676V26.0877H4.35286V23.9116Z" fill="black"/>
    <path d="M6.52815 23.9116H4.35205V26.0877H6.52815V23.9116Z" fill="black"/>
    <path d="M8.69124 23.9116H6.51514V26.0877H8.69124V23.9116Z" fill="white"/>
    <path d="M10.868 23.9116H8.69189V26.0877H10.868V23.9116Z" fill="black"/>
    <path d="M13.0438 23.9116H10.8677V26.0877H13.0438V23.9116Z" fill="#FF8000"/>
    <path d="M15.2205 23.9116H13.0444V26.0877H15.2205V23.9116Z" fill="#D95C17"/>
    <path d="M17.3958 23.9116H15.2197V26.0877H17.3958V23.9116Z" fill="#D95C17"/>
    <path d="M19.5601 23.9116H17.384V26.0877H19.5601V23.9116Z" fill="#D95C17"/>
    <path d="M21.7357 23.9116H19.5596V26.0877H21.7357V23.9116Z" fill="#FFAE33"/>
    <path d="M23.9122 23.9116H21.7361V26.0877H23.9122V23.9116Z" fill="#BF4400"/>
    <path d="M26.0877 23.9116H23.9116V26.0877H26.0877V23.9116Z" fill="#D95C17"/>
    <path d="M28.2645 23.9116H26.0884V26.0877H28.2645V23.9116Z" fill="black"/>
    <path d="M30.4276 23.9116H28.2515V26.0877H30.4276V23.9116Z" fill="white"/>
    <path d="M32.6043 23.9116H30.4282V26.0877H32.6043V23.9116Z" fill="black"/>
    <path d="M34.7799 23.9116H32.6038V26.0877H34.7799V23.9116Z" fill="white"/>
    <path d="M2.1761 26.0889H0L0 28.265H2.1761V26.0889Z" fill="white"/>
    <path d="M4.35286 26.0889H2.17676V28.265H4.35286V26.0889Z" fill="black"/>
    <path d="M6.52815 26.0889H4.35205V28.265H6.52815V26.0889Z" fill="#BF4400"/>
    <path d="M8.69124 26.0889H6.51514V28.265H8.69124V26.0889Z" fill="black"/>
    <path d="M10.868 26.0889H8.69189V28.265H10.868V26.0889Z" fill="#BF4400"/>
    <path d="M13.0438 26.0889H10.8677V28.265H13.0438V26.0889Z" fill="#D95C17"/>
    <path d="M15.2205 26.0889H13.0444V28.265H15.2205V26.0889Z" fill="#D95C17"/>
    <path d="M17.3958 26.0889H15.2197V28.265H17.3958V26.0889Z" fill="#D95C17"/>
    <path d="M19.5601 26.0889H17.384V28.265H19.5601V26.0889Z" fill="#D95C17"/>
    <path d="M21.7357 26.0889H19.5596V28.265H21.7357V26.0889Z" fill="#D95C17"/>
    <path d="M23.9122 26.0889H21.7361V28.265H23.9122V26.0889Z" fill="#D95C17"/>
    <path d="M26.0877 26.0889H23.9116V28.265H26.0877V26.0889Z" fill="#D95C17"/>
    <path d="M28.2645 26.0889H26.0884V28.265H28.2645V26.0889Z" fill="#BF4400"/>
    <path d="M30.4276 26.0889H28.2515V28.265H30.4276V26.0889Z" fill="black"/>
    <path d="M32.6043 26.0889H30.4282V28.265H32.6043V26.0889Z" fill="#BF4400"/>
    <path d="M34.7799 26.0889H32.6038V28.265H34.7799V26.0889Z" fill="black"/>
    <path d="M36.9564 26.0889H34.7803V28.265H36.9564V26.0889Z" fill="white"/>
    <path d="M2.1761 28.2515H0L0 30.4276H2.1761V28.2515Z" fill="white"/>
    <path d="M4.35286 28.2515H2.17676V30.4276H4.35286V28.2515Z" fill="black"/>
    <path d="M6.52815 28.2515H4.35205V30.4276H6.52815V28.2515Z" fill="#D95C17"/>
    <path d="M8.69124 28.2515H6.51514V30.4276H8.69124V28.2515Z" fill="#D95C17"/>
    <path d="M10.868 28.2515H8.69189V30.4276H10.868V28.2515Z" fill="black"/>
    <path d="M13.0438 28.2515H10.8677V30.4276H13.0438V28.2515Z" fill="#D95C17"/>
    <path d="M15.2205 28.2515H13.0444V30.4276H15.2205V28.2515Z" fill="#FF8000"/>
    <path d="M17.3958 28.2515H15.2197V30.4276H17.3958V28.2515Z" fill="#D95C17"/>
    <path d="M19.5601 28.2515H17.384V30.4276H19.5601V28.2515Z" fill="#D95C17"/>
    <path d="M21.7357 28.2515H19.5596V30.4276H21.7357V28.2515Z" fill="#FF8000"/>
    <path d="M23.9122 28.2515H21.7361V30.4276H23.9122V28.2515Z" fill="#D95C17"/>
    <path d="M26.0877 28.2515H23.9116V30.4276H26.0877V28.2515Z" fill="#D95C17"/>
    <path d="M28.2645 28.2515H26.0884V30.4276H28.2645V28.2515Z" fill="black"/>
    <path d="M30.4276 28.2515H28.2515V30.4276H30.4276V28.2515Z" fill="#D95C17"/>
    <path d="M32.6043 28.2515H30.4282V30.4276H32.6043V28.2515Z" fill="#FF8000"/>
    <path d="M34.7799 28.2515H32.6038V30.4276H34.7799V28.2515Z" fill="black"/>
    <path d="M36.9564 28.2515H34.7803V30.4276H36.9564V28.2515Z" fill="white"/>
    <path d="M2.1761 30.4277H0L0 32.6038H2.1761V30.4277Z" fill="white"/>
    <path d="M4.35286 30.4277H2.17676V32.6038H4.35286V30.4277Z" fill="black"/>
    <path d="M6.52815 30.4277H4.35205V32.6038H6.52815V30.4277Z" fill="#D95C17"/>
    <path d="M8.69124 30.4277H6.51514V32.6038H8.69124V30.4277Z" fill="#FF8000"/>
    <path d="M10.868 30.4277H8.69189V32.6038H10.868V30.4277Z" fill="#D95C17"/>
    <path d="M13.0438 30.4277H10.8677V32.6038H13.0438V30.4277Z" fill="#D95C17"/>
    <path d="M15.2205 30.4277H13.0444V32.6038H15.2205V30.4277Z" fill="#FFAE33"/>
    <path d="M17.3958 30.4277H15.2197V32.6038H17.3958V30.4277Z" fill="#D95C17"/>
    <path d="M19.5601 30.4277H17.384V32.6038H19.5601V30.4277Z" fill="#D95C17"/>
    <path d="M21.7357 30.4277H19.5596V32.6038H21.7357V30.4277Z" fill="#FFAE33"/>
    <path d="M23.9122 30.4277H21.7361V32.6038H23.9122V30.4277Z" fill="#FF8000"/>
    <path d="M26.0877 30.4277H23.9116V32.6038H26.0877V30.4277Z" fill="#D95C17"/>
    <path d="M28.2645 30.4277H26.0884V32.6038H28.2645V30.4277Z" fill="#D95C17"/>
    <path d="M30.4276 30.4277H28.2515V32.6038H30.4276V30.4277Z" fill="#FF8000"/>
    <path d="M32.6043 30.4277H30.4282V32.6038H32.6043V30.4277Z" fill="#D95C17"/>
    <path d="M34.7799 30.4277H32.6038V32.6038H34.7799V30.4277Z" fill="#D95C17"/>
    <path d="M36.9564 30.4277H34.7803V32.6038H36.9564V30.4277Z" fill="black"/>
    <path d="M39.1319 30.4277H36.9558V32.6038H39.1319V30.4277Z" fill="white"/>
    <path d="M2.1761 32.6035H0L0 34.7796H2.1761V32.6035Z" fill="white"/>
    <path d="M4.35286 32.6035H2.17676V34.7796H4.35286V32.6035Z" fill="black"/>
    <path d="M6.52815 32.6035H4.35205V34.7796H6.52815V32.6035Z" fill="#D95C17"/>
    <path d="M8.69124 32.6035H6.51514V34.7796H8.69124V32.6035Z" fill="#FF8000"/>
    <path d="M10.868 32.6035H8.69189V34.7796H10.868V32.6035Z" fill="#D95C17"/>
    <path d="M13.0438 32.6035H10.8677V34.7796H13.0438V32.6035Z" fill="#D95C17"/>
    <path d="M15.2205 32.6035H13.0444V34.7796H15.2205V32.6035Z" fill="#D95C17"/>
    <path d="M17.3958 32.6035H15.2197V34.7796H17.3958V32.6035Z" fill="#D95C17"/>
    <path d="M19.5601 32.6035H17.384V34.7796H19.5601V32.6035Z" fill="#FF8000"/>
    <path d="M21.7357 32.6035H19.5596V34.7796H21.7357V32.6035Z" fill="#FFBF66"/>
    <path d="M23.9122 32.6035H21.7361V34.7796H23.9122V32.6035Z" fill="#FFAE33"/>
    <path d="M26.0877 32.6035H23.9116V34.7796H26.0877V32.6035Z" fill="#D95C17"/>
    <path d="M28.2645 32.6035H26.0884V34.7796H28.2645V32.6035Z" fill="#FF8000"/>
    <path d="M30.4276 32.6035H28.2515V34.7796H30.4276V32.6035Z" fill="#D95C17"/>
    <path d="M32.6043 32.6035H30.4282V34.7796H32.6043V32.6035Z" fill="#D95C17"/>
    <path d="M34.7799 32.6035H32.6038V34.7796H34.7799V32.6035Z" fill="#FF8000"/>
    <path d="M36.9564 32.6035H34.7803V34.7796H36.9564V32.6035Z" fill="black"/>
    <path d="M39.1319 32.6035H36.9558V34.7796H39.1319V32.6035Z" fill="white"/>
    <path d="M2.1761 34.7798H0L0 36.9559H2.1761V34.7798Z" fill="white"/>
    <path d="M4.35286 34.7798H2.17676V36.9559H4.35286V34.7798Z" fill="black"/>
    <path d="M6.52815 34.7798H4.35205V36.9559H6.52815V34.7798Z" fill="#D95C17"/>
    <path d="M8.69124 34.7798H6.51514V36.9559H8.69124V34.7798Z" fill="#D95C17"/>
    <path d="M10.868 34.7798H8.69189V36.9559H10.868V34.7798Z" fill="#FFAE33"/>
    <path d="M13.0438 34.7798H10.8677V36.9559H13.0438V34.7798Z" fill="#D95C17"/>
    <path d="M15.2205 34.7798H13.0444V36.9559H15.2205V34.7798Z" fill="#D95C17"/>
    <path d="M17.3958 34.7798H15.2197V36.9559H17.3958V34.7798Z" fill="#FF8000"/>
    <path d="M19.5601 34.7798H17.384V36.9559H19.5601V34.7798Z" fill="#FFBF66"/>
    <path d="M21.7357 34.7798H19.5596V36.9559H21.7357V34.7798Z" fill="#FFBF66"/>
    <path d="M23.9122 34.7798H21.7361V36.9559H23.9122V34.7798Z" fill="#FFBF66"/>
    <path d="M26.0877 34.7798H23.9116V36.9559H26.0877V34.7798Z" fill="#FFAE33"/>
    <path d="M28.2645 34.7798H26.0884V36.9559H28.2645V34.7798Z" fill="#FFBF66"/>
    <path d="M30.4276 34.7798H28.2515V36.9559H30.4276V34.7798Z" fill="#FFAE33"/>
    <path d="M32.6043 34.7798H30.4282V36.9559H32.6043V34.7798Z" fill="#FF8000"/>
    <path d="M34.7799 34.7798H32.6038V36.9559H34.7799V34.7798Z" fill="#D95C17"/>
    <path d="M36.9564 34.7798H34.7803V36.9559H36.9564V34.7798Z" fill="black"/>
    <path d="M39.1319 34.7798H36.9558V36.9559H39.1319V34.7798Z" fill="white"/>
    <path d="M2.1761 36.9561H0L0 39.1322H2.1761V36.9561Z" fill="white"/>
    <path d="M4.35286 36.9561H2.17676V39.1322H4.35286V36.9561Z" fill="black"/>
    <path d="M6.52815 36.9561H4.35205V39.1322H6.52815V36.9561Z" fill="#BF4400"/>
    <path d="M8.69124 36.9561H6.51514V39.1322H8.69124V36.9561Z" fill="#D95C17"/>
    <path d="M10.868 36.9561H8.69189V39.1322H10.868V36.9561Z" fill="#FF8000"/>
    <path d="M13.0438 36.9561H10.8677V39.1322H13.0438V36.9561Z" fill="#FFAE33"/>
    <path d="M15.2205 36.9561H13.0444V39.1322H15.2205V36.9561Z" fill="#FFAE33"/>
    <path d="M17.3958 36.9561H15.2197V39.1322H17.3958V36.9561Z" fill="#FFBF66"/>
    <path d="M19.5601 36.9561H17.384V39.1322H19.5601V36.9561Z" fill="white"/>
    <path d="M21.7357 36.9561H19.5596V39.1322H21.7357V36.9561Z" fill="white"/>
    <path d="M23.9122 36.9561H21.7361V39.1322H23.9122V36.9561Z" fill="white"/>
    <path d="M26.0877 36.9561H23.9116V39.1322H26.0877V36.9561Z" fill="#FFBF66"/>
    <path d="M28.2645 36.9561H26.0884V39.1322H28.2645V36.9561Z" fill="#FFAE33"/>
    <path d="M30.4276 36.9561H28.2515V39.1322H30.4276V36.9561Z" fill="#FF8000"/>
    <path d="M32.6043 36.9561H30.4282V39.1322H32.6043V36.9561Z" fill="#D95C17"/>
    <path d="M34.7799 36.9561H32.6038V39.1322H34.7799V36.9561Z" fill="#BF4400"/>
    <path d="M36.9564 36.9561H34.7803V39.1322H36.9564V36.9561Z" fill="black"/>
    <path d="M39.1319 36.9561H36.9558V39.1322H39.1319V36.9561Z" fill="white"/>
    <path d="M4.35286 39.1191H2.17676V41.2952H4.35286V39.1191Z" fill="white"/>
    <path d="M6.52815 39.1191H4.35205V41.2952H6.52815V39.1191Z" fill="black"/>
    <path d="M8.69124 39.1191H6.51514V41.2952H8.69124V39.1191Z" fill="#BF4400"/>
    <path d="M10.868 39.1191H8.69189V41.2952H10.868V39.1191Z" fill="#D95C17"/>
    <path d="M13.0438 39.1191H10.8677V41.2952H13.0438V39.1191Z" fill="#FF8000"/>
    <path d="M15.2205 39.1191H13.0444V41.2952H15.2205V39.1191Z" fill="#FFBF66"/>
    <path d="M17.3958 39.1191H15.2197V41.2952H17.3958V39.1191Z" fill="white"/>
    <path d="M19.5601 39.1191H17.384V41.2952H19.5601V39.1191Z" fill="white"/>
    <path d="M21.7357 39.1191H19.5596V41.2952H21.7357V39.1191Z" fill="white"/>
    <path d="M23.9122 39.1191H21.7361V41.2952H23.9122V39.1191Z" fill="white"/>
    <path d="M26.0877 39.1191H23.9116V41.2952H26.0877V39.1191Z" fill="white"/>
    <path d="M28.2645 39.1191H26.0884V41.2952H28.2645V39.1191Z" fill="#FFBF66"/>
    <path d="M30.4276 39.1191H28.2515V41.2952H30.4276V39.1191Z" fill="#FF8000"/>
    <path d="M32.6043 39.1191H30.4282V41.2952H32.6043V39.1191Z" fill="#D95C17"/>
    <path d="M34.7799 39.1191H32.6038V41.2952H34.7799V39.1191Z" fill="black"/>
    <path d="M36.9564 39.1191H34.7803V41.2952H36.9564V39.1191Z" fill="white"/>
    <path d="M6.52815 41.2959H4.35205V43.472H6.52815V41.2959Z" fill="white"/>
    <path d="M8.69124 41.2959H6.51514V43.472H8.69124V41.2959Z" fill="black"/>
    <path d="M10.868 41.2959H8.69189V43.472H10.868V41.2959Z" fill="#BF4400"/>
    <path d="M13.0438 41.2959H10.8677V43.472H13.0438V41.2959Z" fill="#FF8000"/>
    <path d="M15.2205 41.2959H13.0444V43.472H15.2205V41.2959Z" fill="#FFAE33"/>
    <path d="M17.3958 41.2959H15.2197V43.472H17.3958V41.2959Z" fill="white"/>
    <path d="M19.5601 41.2959H17.384V43.472H19.5601V41.2959Z" fill="white"/>
    <path d="M21.7357 41.2959H19.5596V43.472H21.7357V41.2959Z" fill="white"/>
    <path d="M23.9122 41.2959H21.7361V43.472H23.9122V41.2959Z" fill="white"/>
    <path d="M26.0877 41.2959H23.9116V43.472H26.0877V41.2959Z" fill="#FFBF66"/>
    <path d="M28.2645 41.2959H26.0884V43.472H28.2645V41.2959Z" fill="#FF8000"/>
    <path d="M30.4276 41.2959H28.2515V43.472H30.4276V41.2959Z" fill="#D95C17"/>
    <path d="M32.6043 41.2959H30.4282V43.472H32.6043V41.2959Z" fill="#BF4400"/>
    <path d="M34.7799 41.2959H32.6038V43.472H34.7799V41.2959Z" fill="black"/>
    <path d="M36.9564 41.2959H34.7803V43.472H36.9564V41.2959Z" fill="white"/>
    <path d="M8.69124 43.4717H6.51514V45.6478H8.69124V43.4717Z" fill="white"/>
    <path d="M10.868 43.4717H8.69189V45.6478H10.868V43.4717Z" fill="black"/>
    <path d="M13.0438 43.4717H10.8677V45.6478H13.0438V43.4717Z" fill="black"/>
    <path d="M15.2205 43.4717H13.0444V45.6478H15.2205V43.4717Z" fill="#FFAE33"/>
    <path d="M17.3958 43.4717H15.2197V45.6478H17.3958V43.4717Z" fill="#FFBF66"/>
    <path d="M19.5601 43.4717H17.384V45.6478H19.5601V43.4717Z" fill="white"/>
    <path d="M21.7357 43.4717H19.5596V45.6478H21.7357V43.4717Z" fill="white"/>
    <path d="M23.9122 43.4717H21.7361V45.6478H23.9122V43.4717Z" fill="white"/>
    <path d="M26.0877 43.4717H23.9116V45.6478H26.0877V43.4717Z" fill="#FFBF66"/>
    <path d="M28.2645 43.4717H26.0884V45.6478H28.2645V43.4717Z" fill="#BF4400"/>
    <path d="M30.4276 43.4717H28.2515V45.6478H30.4276V43.4717Z" fill="#BF4400"/>
    <path d="M32.6043 43.4717H30.4282V45.6478H32.6043V43.4717Z" fill="black"/>
    <path d="M34.7799 43.4717H32.6038V45.6478H34.7799V43.4717Z" fill="white"/>
    <path d="M36.9564 43.4717H34.7803V45.6478H36.9564V43.4717Z" fill="white"/>
    <path d="M10.868 45.6475H8.69189V47.8236H10.868V45.6475Z" fill="white"/>
    <path d="M13.0438 45.6475H10.8677V47.8236H13.0438V45.6475Z" fill="white"/>
    <path d="M15.2205 45.6475H13.0444V47.8236H15.2205V45.6475Z" fill="black"/>
    <path d="M17.3958 45.6475H15.2197V47.8236H17.3958V45.6475Z" fill="black"/>
    <path d="M19.5601 45.6475H17.384V47.8236H19.5601V45.6475Z" fill="black"/>
    <path d="M21.7357 45.6475H19.5596V47.8236H21.7357V45.6475Z" fill="black"/>
    <path d="M23.9122 45.6475H21.7361V47.8236H23.9122V45.6475Z" fill="black"/>
    <path d="M26.0877 45.6475H23.9116V47.8236H26.0877V45.6475Z" fill="black"/>
    <path d="M28.2645 45.6475H26.0884V47.8236H28.2645V45.6475Z" fill="black"/>
    <path d="M30.4276 45.6475H28.2515V47.8236H30.4276V45.6475Z" fill="black"/>
    <path d="M32.6043 45.6475H30.4282V47.8236H32.6043V45.6475Z" fill="white"/>
    <path d="M34.7799 45.6475H32.6038V47.8236H34.7799V45.6475Z" fill="white"/>
    <path d="M13.0438 47.8242H10.8677V50.0003H13.0438V47.8242Z" fill="white"/>
    <path d="M15.2205 47.8242H13.0444V50.0003H15.2205V47.8242Z" fill="white"/>
    <path d="M17.3958 47.8242H15.2197V50.0003H17.3958V47.8242Z" fill="white"/>
    <path d="M19.5601 47.8242H17.384V50.0003H19.5601V47.8242Z" fill="white"/>
    <path d="M21.7357 47.8242H19.5596V50.0003H21.7357V47.8242Z" fill="white"/>
    <path d="M23.9122 47.8242H21.7361V50.0003H23.9122V47.8242Z" fill="white"/>
    <path d="M26.0877 47.8242H23.9116V50.0003H26.0877V47.8242Z" fill="white"/>
    <path d="M28.2645 47.8242H26.0884V50.0003H28.2645V47.8242Z" fill="white"/>
    <path d="M30.4276 47.8242H28.2515V50.0003H30.4276V47.8242Z" fill="white"/>
    <path d="M32.6043 47.8242H30.4282V50.0003H32.6043V47.8242Z" fill="white"/>
</svg>
