<svg width="76" height="76" viewBox="0 0 76 76" fill="none" xmlns="http://www.w3.org/2000/svg">
    <g clip-path="url(#clip0_1830_15633)">
        <path d="M50.6666 67.5557H25.3333V71.7779H50.6666V67.5557Z" fill="black"/>
        <path d="M25.3334 8.44434H16.8889V12.6666H25.3334V8.44434Z" fill="black"/>
        <path d="M25.3334 4.22217H16.8889V8.44439H25.3334V4.22217Z" fill="white"/>
        <path d="M59.1112 4.22217H50.6667V8.44439H59.1112V4.22217Z" fill="white"/>
        <path d="M59.1111 8.44434H50.6287V12.6666H59.1111V8.44434Z" fill="black"/>
        <path d="M59.1111 12.6665H50.6287V16.8887H59.1111V12.6665Z" fill="#BB891A"/>
        <path d="M59.1111 16.8887H50.6287V54.8887H59.1111V16.8887Z" fill="#F0C915"/>
        <path d="M25.3523 16.8887H16.8699V54.8887H25.3523V16.8887Z" fill="#F0C915"/>
        <path d="M25.3523 12.6665H16.8699V16.8887H25.3523V12.6665Z" fill="#BB891A"/>
        <path d="M59.1112 63.3335H50.6667V67.5557H59.1112V63.3335Z" fill="black"/>
        <path d="M25.3334 63.3335H16.8889V67.5557H25.3334V63.3335Z" fill="black"/>
        <path d="M63.3333 12.6665H59.1111V16.8887H63.3333V12.6665Z" fill="black"/>
        <path d="M16.889 12.6665H12.6667V16.8887H16.889V12.6665Z" fill="black"/>
        <path d="M12.6666 12.6665H8.44434V16.8887H12.6666V12.6665Z" fill="white"/>
        <path d="M67.5555 12.6665H63.3333V16.8887H67.5555V12.6665Z" fill="white"/>
        <path d="M16.889 8.44434H12.6667V12.6666H16.889V8.44434Z" fill="white"/>
        <path d="M63.3333 8.44434H59.1111V12.6666H63.3333V8.44434Z" fill="white"/>
        <path d="M50.6666 8.44434H25.3333V12.6666H50.6666V8.44434Z" fill="#BB891A"/>
        <path d="M50.6856 12.6665H25.3523V59.111H50.6856V12.6665Z" fill="#F0C915"/>
        <path d="M63.3333 59.1113H59.1111V63.3336H63.3333V59.1113Z" fill="black"/>
        <path d="M16.889 59.1113H12.6667V63.3336H16.889V59.1113Z" fill="black"/>
        <path d="M67.5555 16.8887H63.3333V25.3331H67.5555V16.8887Z" fill="black"/>
        <path d="M63.3333 16.8887H59.1111V25.3331H63.3333V16.8887Z" fill="#BB891A"/>
        <path d="M16.889 16.8887H12.6667V25.3331H16.889V16.8887Z" fill="#BB891A"/>
        <path d="M16.889 25.3335H12.6667V46.4446H16.889V25.3335Z" fill="#F0C915"/>
        <path d="M63.3333 25.3335H59.1111V46.4446H63.3333V25.3335Z" fill="#F0C915"/>
        <path d="M63.3333 46.4443H59.1111V59.111H63.3333V46.4443Z" fill="#BB891A"/>
        <path d="M16.889 46.4443H12.6667V59.111H16.889V46.4443Z" fill="#BB891A"/>
        <path d="M59.1112 54.8887H50.6667V63.3331H59.1112V54.8887Z" fill="#BB891A"/>
        <path d="M25.3334 54.8887H16.8889V63.3331H25.3334V54.8887Z" fill="#BB891A"/>
        <path d="M50.6666 59.1113H25.3333V67.5558H50.6666V59.1113Z" fill="#BB891A"/>
        <path d="M67.5555 25.3335H63.3333V50.6668H67.5555V25.3335Z" fill="#BB891A"/>
        <path d="M12.6666 25.3335H8.44434V50.6668H12.6666V25.3335Z" fill="#BB891A"/>
        <path d="M12.6666 16.8887H8.44434V25.3331H12.6666V16.8887Z" fill="black"/>
        <path d="M8.44439 16.8887H4.22217V25.3331H8.44439V16.8887Z" fill="white"/>
        <path d="M71.7779 16.8887H67.5557V25.3331H71.7779V16.8887Z" fill="white"/>
        <path d="M8.44439 50.6665H4.22217V59.1109H8.44439V50.6665Z" fill="white"/>
        <path d="M71.7779 50.6665H67.5557V59.1109H71.7779V50.6665Z" fill="white"/>
        <path d="M4.22222 25.3335H0V50.6668H4.22222V25.3335Z" fill="white"/>
        <path d="M76.0001 25.3335H71.7778V50.6668H76.0001V25.3335Z" fill="white"/>
        <path d="M67.5555 50.6665H63.3333V59.1109H67.5555V50.6665Z" fill="black"/>
        <path d="M12.6666 50.6665H8.44434V59.1109H12.6666V50.6665Z" fill="black"/>
        <path d="M71.7779 25.3335H67.5557V50.6668H71.7779V25.3335Z" fill="black"/>
        <path d="M8.44439 25.3335H4.22217V50.6668H8.44439V25.3335Z" fill="black"/>
        <path d="M50.6666 4.22217H25.3333V8.44439H50.6666V4.22217Z" fill="black"/>
        <path d="M50.6666 0H25.3333V4.22222H50.6666V0Z" fill="white"/>
        <path d="M50.6666 71.7778H25.3333V76.0001H50.6666V71.7778Z" fill="white"/>
        <path d="M12.6666 59.1113H8.44434V63.3336H12.6666V59.1113Z" fill="white"/>
        <path d="M67.5555 59.1113H63.3333V63.3336H67.5555V59.1113Z" fill="white"/>
        <path d="M16.889 63.3335H12.6667V67.5557H16.889V63.3335Z" fill="white"/>
        <path d="M63.3333 63.3335H59.1111V67.5557H63.3333V63.3335Z" fill="white"/>
        <path d="M25.3334 67.5557H16.8889V71.7779H25.3334V67.5557Z" fill="white"/>
        <path d="M59.1131 67.5557H50.6687V71.7779H59.1131V67.5557Z" fill="white"/>
        <path d="M50.6666 46.4443H46.4443V50.6666H50.6666V46.4443Z" fill="black"/>
        <path d="M54.889 42.2222H50.6667V46.4444H54.889V42.2222Z" fill="black"/>
        <path d="M29.5555 46.4443H25.3333V50.6666H29.5555V46.4443Z" fill="black"/>
        <path d="M25.3333 42.2222H21.1111V46.4444H25.3333V42.2222Z" fill="black"/>
        <path d="M21.1111 21.1113H16.8889V25.3336H21.1111V21.1113Z" fill="#ED1C24"/>
        <path d="M25.3333 25.3335H21.1111V29.5557H25.3333V25.3335Z" fill="#ED1C24"/>
        <path d="M16.889 25.3335H12.6667V29.5557H16.889V25.3335Z" fill="#C1272D"/>
        <path d="M21.1111 25.3335H16.8889V29.5557H21.1111V25.3335Z" fill="#ED1C24"/>
        <path d="M29.5555 25.3335H25.3333V29.5557H29.5555V25.3335Z" fill="#ED1C24"/>
        <path d="M33.7779 25.3335H29.5557V29.5557H33.7779V25.3335Z" fill="#ED1C24"/>
        <path d="M29.5555 29.5557H25.3333V33.7779H29.5555V29.5557Z" fill="#C1272D"/>
        <path d="M25.3333 33.7778H21.1111V38.0001H25.3333V33.7778Z" fill="#C1272D"/>
        <path d="M21.1111 29.5557H16.8889V33.7779H21.1111V29.5557Z" fill="#C1272D"/>
        <path d="M25.3333 29.5557H21.1111V33.7779H25.3333V29.5557Z" fill="#ED1C24"/>
        <path d="M29.5555 21.1113H25.3333V25.3336H29.5555V21.1113Z" fill="#ED1C24"/>
        <path d="M50.6666 21.1113H46.4443V25.3336H50.6666V21.1113Z" fill="#ED1C24"/>
        <path d="M54.889 25.3335H50.6667V29.5557H54.889V25.3335Z" fill="#ED1C24"/>
        <path d="M46.4444 25.3335H42.2222V29.5557H46.4444V25.3335Z" fill="#C1272D"/>
        <path d="M50.6666 25.3335H46.4443V29.5557H50.6666V25.3335Z" fill="#ED1C24"/>
        <path d="M59.1111 25.3335H54.8889V29.5557H59.1111V25.3335Z" fill="#ED1C24"/>
        <path d="M63.3333 25.3335H59.1111V29.5557H63.3333V25.3335Z" fill="#ED1C24"/>
        <path d="M59.1111 29.5557H54.8889V33.7779H59.1111V29.5557Z" fill="#C1272D"/>
        <path d="M54.889 33.7778H50.6667V38.0001H54.889V33.7778Z" fill="#C1272D"/>
        <path d="M50.6666 29.5557H46.4443V33.7779H50.6666V29.5557Z" fill="#C1272D"/>
        <path d="M54.889 29.5557H50.6667V33.7779H54.889V29.5557Z" fill="#ED1C24"/>
        <path d="M59.1111 21.1113H54.8889V25.3336H59.1111V21.1113Z" fill="#ED1C24"/>
        <path d="M46.4446 50.6665H29.5557V54.8887H46.4446V50.6665Z" fill="black"/>
    </g>
    <defs>
        <clipPath id="clip0_1830_15633">
            <rect width="76" height="76" fill="white"/>
        </clipPath>
    </defs>
</svg>
