<svg width="75" height="75" viewBox="0 0 75 75" fill="none" xmlns="http://www.w3.org/2000/svg">
    <path d="M11.14 25.0326L8.2854 26.3208L9.57355 29.1752L12.4281 27.887L11.14 25.0326Z" fill="black"/>
    <path d="M45.3946 9.5736L42.54 10.8618L43.8282 13.7162L46.6827 12.428L45.3946 9.5736Z" fill="#BB891A"/>
    <path d="M17.5808 39.3046L14.7262 40.5928L16.0143 43.4472L18.8689 42.159L17.5808 39.3046Z" fill="white"/>
    <path d="M25.0313 63.4281L22.1768 64.7163L23.4649 67.5707L26.3195 66.2825L25.0313 63.4281Z" fill="white"/>
    <path d="M8.28546 26.3207L5.43091 27.6089L6.71906 30.4633L9.57361 29.1751L8.28546 26.3207Z" fill="white"/>
    <path d="M9.85187 22.1781L6.99731 23.4663L8.28546 26.3207L11.14 25.0325L9.85187 22.1781Z" fill="white"/>
    <path d="M46.961 5.43102L44.1064 6.71924L45.3946 9.57365L48.2492 8.28543L46.961 5.43102Z" fill="white"/>
    <path d="M51.1037 6.99694L48.2491 8.28516L49.5373 11.1396L52.3919 9.85135L51.1037 6.99694Z" fill="white"/>
    <path d="M42.8184 3.86464L8.56372 19.3232L9.85187 22.1777L44.1065 6.71905L42.8184 3.86464Z" fill="white"/>
    <path d="M29.174 64.994L26.3195 66.2822L27.6076 69.1366L30.4622 67.8484L29.174 64.994Z" fill="white"/>
    <path d="M66.2831 48.2469L63.4286 49.5352L64.7167 52.3896L67.5713 51.1013L66.2831 48.2469Z" fill="white"/>
    <path d="M67.8496 44.1044L64.995 45.3926L66.2831 48.247L69.1377 46.9588L67.8496 44.1044Z" fill="white"/>
    <path d="M55.2464 8.56335L52.3918 9.85156L67.8496 44.1045L70.7042 42.8162L55.2464 8.56335Z" fill="white"/>
    <path d="M64.6783 52.4074L30.4622 67.8486L31.7503 70.703L65.9664 55.2618L64.6783 52.4074Z" fill="white"/>
    <path d="M6.71906 30.4632L3.8645 31.7515L19.3223 66.0044L22.1769 64.7162L6.71906 30.4632Z" fill="white"/>
    <path d="M26.5977 59.285L23.7432 60.5732L25.0313 63.4277L27.8859 62.1394L26.5977 59.285Z" fill="#BB891A"/>
    <path d="M60.8523 43.8266L26.5977 59.2852L27.8858 62.1396L62.1405 46.681L60.8523 43.8266Z" fill="#EEB81D"/>
    <path d="M16.2925 36.4501L13.438 37.7383L14.7261 40.5927L17.5807 39.3045L16.2925 36.4501Z" fill="#EEB81D"/>
    <path d="M18.8688 42.1586L16.0143 43.4468L23.7432 60.5732L26.5977 59.285L18.8688 42.1586Z" fill="#EEB81D"/>
    <path d="M16.5709 29.453L13.7163 30.7412L26.5978 59.2853L29.4524 57.9971L16.5709 29.453Z" fill="#F0C915"/>
    <path d="M49.5373 11.14L46.6827 12.4282L62.1405 46.6811L64.9951 45.3929L49.5373 11.14Z" fill="#BB891A"/>
    <path d="M13.7162 30.7416L10.8617 32.0298L13.438 37.7386L16.2926 36.4504L13.7162 30.7416Z" fill="white"/>
    <path d="M19.7037 21.1676L11.14 25.0322L12.4282 27.8866L20.9918 24.022L19.7037 21.1676Z" fill="white"/>
    <path d="M42.5402 10.8617L19.7037 21.1675L20.9919 24.0219L43.8283 13.7162L42.5402 10.8617Z" fill="#EEB81D"/>
    <path d="M62.1405 46.6811L27.8859 62.1396L29.174 64.9941L63.4287 49.5355L62.1405 46.6811Z" fill="#BB891A"/>
    <path d="M15.2827 26.5989L9.57361 29.1753L10.8618 32.0297L16.5709 29.4533L15.2827 26.5989Z" fill="white"/>
    <path d="M48.2492 8.28551L45.3947 9.57373L46.6828 12.4281L49.5374 11.1399L48.2492 8.28551Z" fill="black"/>
    <path d="M46.6828 12.4283L15.2827 26.5986L29.4524 57.9971L60.8525 43.8267L46.6828 12.4283Z" fill="#F0C915"/>
    <path d="M27.8858 62.1395L25.0312 63.4277L26.3194 66.2821L29.174 64.9939L27.8858 62.1395Z" fill="black"/>
    <path d="M64.9952 45.3924L62.1406 46.6807L63.4288 49.5351L66.2833 48.2469L64.9952 45.3924Z" fill="black"/>
    <path d="M44.1063 6.71914L9.85168 22.1777L11.1398 25.0321L45.3945 9.57354L44.1063 6.71914Z" fill="black"/>
    <path d="M63.4286 49.5355L29.174 64.9941L30.4621 67.8485L64.7168 52.39L63.4286 49.5355Z" fill="black"/>
    <path d="M9.57355 29.1752L6.71899 30.4634L22.1768 64.7163L25.0314 63.4281L9.57355 29.1752Z" fill="black"/>
    <path d="M52.3919 9.85143L49.5374 11.1396L64.9952 45.3926L67.8497 44.1043L52.3919 9.85143Z" fill="black"/>
    <path d="M19.1472 35.162L16.2926 36.4502L17.5808 39.3046L20.4353 38.0164L19.1472 35.162Z" fill="black"/>
    <path d="M28.999 34.152L20.4353 38.0166L21.7235 40.871L30.2871 37.0064L28.999 34.152Z" fill="black"/>
    <path d="M17.8589 32.3075L15.0044 33.5957L16.2925 36.4501L19.1471 35.1619L17.8589 32.3075Z" fill="black"/>
    <path d="M19.4252 28.1649L16.5707 29.4531L17.8588 32.3075L20.7134 31.0193L19.4252 28.1649Z" fill="black"/>
    <path d="M39.3816 19.1591L19.4254 28.165L22.0017 33.8739L41.9579 24.8679L39.3816 19.1591Z" fill="white"/>
    <path d="M26.4227 28.443L17.859 32.3076L20.4353 38.0164L28.999 34.1518L26.4227 28.443Z" fill="white"/>
    <path d="M38.8508 33.1417L30.2871 37.0063L32.8634 42.7152L41.4271 38.8505L38.8508 33.1417Z" fill="white"/>
    <path d="M42.7152 41.7042L34.1515 45.5688L36.7278 51.2777L45.2915 47.413L42.7152 41.7042Z" fill="white"/>
    <path d="M43.5499 20.7135L34.9862 24.5781L38.8507 33.1414L47.4143 29.2767L43.5499 20.7135Z" fill="white"/>
    <path d="M38.0933 16.3046L18.1371 25.3105L19.4252 28.165L39.3814 19.159L38.0933 16.3046Z" fill="black"/>
    <path d="M46.4045 19.4252L43.5499 20.7134L47.4144 29.2766L50.2689 27.9884L46.4045 19.4252Z" fill="black"/>
    <path d="M42.236 17.871L39.3815 19.1592L40.6696 22.0136L43.5242 20.7254L42.236 17.871Z" fill="black"/>
    <path d="M30.2871 37.0062L27.4325 38.2944L28.7206 41.1488L31.5752 39.8606L30.2871 37.0062Z" fill="black"/>
    <path d="M30.5654 30.0091L27.7108 31.2974L28.999 34.1518L31.8535 32.8636L30.5654 30.0091Z" fill="black"/>
    <path d="M33.42 28.7211L30.5654 30.0093L31.8536 32.8637L34.7081 31.5755L33.42 28.7211Z" fill="black"/>
    <path d="M36.2744 27.4325L33.4198 28.7207L34.708 31.5751L37.5625 30.2869L36.2744 27.4325Z" fill="black"/>
    <path d="M37.5624 30.2872L28.9988 34.1519L30.2869 37.0063L38.8506 33.1416L37.5624 30.2872Z" fill="black"/>
    <path d="M31.5753 39.8602L28.7207 41.1484L30.0089 44.0028L32.8634 42.7146L31.5753 39.8602Z" fill="black"/>
    <path d="M35.718 41.4261L32.8634 42.7144L34.1516 45.5688L37.0061 44.2805L35.718 41.4261Z" fill="black"/>
    <path d="M34.1516 45.5687L31.297 46.8569L32.5851 49.7113L35.4397 48.4231L34.1516 45.5687Z" fill="black"/>
    <path d="M35.4396 48.4232L32.5851 49.7114L33.8732 52.5658L36.7278 51.2776L35.4396 48.4232Z" fill="black"/>
    <path d="M39.5823 49.9896L36.7278 51.2778L38.0159 54.1322L40.8705 52.844L39.5823 49.9896Z" fill="black"/>
    <path d="M42.437 48.7015L39.5824 49.9897L40.8705 52.8442L43.7251 51.5559L42.437 48.7015Z" fill="black"/>
    <path d="M45.2914 47.413L42.4369 48.7012L43.725 51.5556L46.5796 50.2674L45.2914 47.413Z" fill="black"/>
    <path d="M45.5698 40.4159L42.7152 41.7041L44.0034 44.5585L46.8579 43.2703L45.5698 40.4159Z" fill="black"/>
    <path d="M46.858 43.2704L44.0034 44.5586L45.2916 47.413L48.1461 46.1248L46.858 43.2704Z" fill="black"/>
    <path d="M38.5723 40.1381L35.7178 41.4263L37.0059 44.2807L39.8605 42.9925L38.5723 40.1381Z" fill="black"/>
    <path d="M41.4271 38.8505L38.5725 40.1387L39.8607 42.9931L42.7152 41.7049L41.4271 38.8505Z" fill="black"/>
    <path d="M42.9933 34.7079L40.1388 35.9961L41.4269 38.8505L44.2815 37.5623L42.9933 34.7079Z" fill="black"/>
    <path d="M45.848 33.4193L42.9934 34.7075L44.2816 37.5619L47.1361 36.2737L45.848 33.4193Z" fill="black"/>
    <path d="M47.4144 29.2767L44.5598 30.5649L45.848 33.4193L48.7025 32.1311L47.4144 29.2767Z" fill="black"/>
    <path d="M44.5599 30.5652L38.8508 33.1416L40.139 35.996L45.8481 33.4196L44.5599 30.5652Z" fill="white"/>
</svg>
