<svg width="44" height="40" viewBox="0 0 44 40" fill="none" xmlns="http://www.w3.org/2000/svg">
    <path d="M22.86 0L20.9531 0V1.90685H22.86V0Z" fill="white"/>
    <path d="M20.9537 1.90674H19.0469V3.81359H20.9537V1.90674Z" fill="white"/>
    <path d="M22.86 1.90674H20.9531V3.81359H22.86V1.90674Z" fill="black"/>
    <path d="M24.7672 1.90674H22.8604V3.81359H24.7672V1.90674Z" fill="white"/>
    <path d="M19.0463 3.81396H17.1394V5.72081H19.0463V3.81396Z" fill="white"/>
    <path d="M20.9537 3.81396H19.0469V5.72081H20.9537V3.81396Z" fill="black"/>
    <path d="M22.86 3.81396H20.9531V5.72081H22.86V3.81396Z" fill="#EEB81D"/>
    <path d="M24.7672 3.81396H22.8604V5.72081H24.7672V3.81396Z" fill="black"/>
    <path d="M26.6627 3.81396H24.7559V5.72081H26.6627V3.81396Z" fill="white"/>
    <path d="M17.1399 5.70996H15.233V7.61681H17.1399V5.70996Z" fill="white"/>
    <path d="M19.0463 5.70996H17.1394V7.61681H19.0463V5.70996Z" fill="black"/>
    <path d="M20.9537 5.70996H19.0469V7.61681H20.9537V5.70996Z" fill="#EEB81D"/>
    <path d="M22.86 5.70996H20.9531V7.61681H22.86V5.70996Z" fill="#F0C915"/>
    <path d="M24.7673 5.70996H22.8605V7.61681H24.7673V5.70996Z" fill="#F0C915"/>
    <path d="M26.6628 5.70996H24.756V7.61681H26.6628V5.70996Z" fill="black"/>
    <path d="M28.5702 5.70996H26.6633V7.61681H28.5702V5.70996Z" fill="white"/>
    <path d="M17.14 7.6167H15.2332V9.52355H17.14V7.6167Z" fill="white"/>
    <path d="M19.0463 7.6167H17.1394V9.52355H19.0463V7.6167Z" fill="black"/>
    <path d="M20.9537 7.6167H19.0469V9.52355H20.9537V7.6167Z" fill="#EEB81D"/>
    <path d="M22.86 7.6167H20.9531V9.52355H22.86V7.6167Z" fill="#F0C915"/>
    <path d="M24.7673 7.6167H22.8605V9.52355H24.7673V7.6167Z" fill="#F0C915"/>
    <path d="M26.6628 7.6167H24.756V9.52355H26.6628V7.6167Z" fill="black"/>
    <path d="M28.5702 7.6167H26.6633V9.52355H28.5702V7.6167Z" fill="white"/>
    <path d="M15.2433 9.52344H13.3364V11.4303H15.2433V9.52344Z" fill="white"/>
    <path d="M17.14 9.52344H15.2332V11.4303H17.14V9.52344Z" fill="black"/>
    <path d="M19.0463 9.52344H17.1394V11.4303H19.0463V9.52344Z" fill="#EEB81D"/>
    <path d="M20.9537 9.52344H19.0469V11.4303H20.9537V9.52344Z" fill="#F0C915"/>
    <path d="M22.86 9.52368H20.9531V11.4305H22.86V9.52368Z" fill="#F0C915"/>
    <path d="M24.7673 9.52344H22.8605V11.4303H24.7673V9.52344Z" fill="#F0C915"/>
    <path d="M26.663 9.52344H24.7561V11.4303H26.663V9.52344Z" fill="#F0C915"/>
    <path d="M28.5702 9.52344H26.6633V11.4303H28.5702V9.52344Z" fill="black"/>
    <path d="M30.4764 9.52344H28.5696V11.4303H30.4764V9.52344Z" fill="white"/>
    <path d="M5.72057 11.4302H3.81372V13.337H5.72057V11.4302Z" fill="white"/>
    <path d="M7.61608 11.4302H5.70923V13.337H7.61608V11.4302Z" fill="white"/>
    <path d="M9.52343 11.4302H7.61658V13.337H9.52343V11.4302Z" fill="white"/>
    <path d="M11.4298 11.4307H9.52295V13.3375H11.4298V11.4307Z" fill="white"/>
    <path d="M13.337 11.4307H11.4302V13.3375H13.337V11.4307Z" fill="white"/>
    <path d="M15.2433 11.4302H13.3364V13.337H15.2433V11.4302Z" fill="white"/>
    <path d="M17.14 11.4302H15.2332V13.337H17.14V11.4302Z" fill="black"/>
    <path d="M19.0463 11.4302H17.1394V13.337H19.0463V11.4302Z" fill="#EEB81D"/>
    <path d="M20.9537 11.4302H19.0469V13.337H20.9537V11.4302Z" fill="#F0C915"/>
    <path d="M22.86 11.4302H20.9531V13.337H22.86V11.4302Z" fill="#F0C915"/>
    <path d="M24.7672 11.4307H22.8604V13.3375H24.7672V11.4307Z" fill="white"/>
    <path d="M26.6628 11.4307H24.756V13.3375H26.6628V11.4307Z" fill="#F0C915"/>
    <path d="M28.5702 11.4302H26.6633V13.337H28.5702V11.4302Z" fill="black"/>
    <path d="M30.4765 11.4302H28.5697V13.337H30.4765V11.4302Z" fill="white"/>
    <path d="M32.3839 11.4307H30.4771V13.3375H32.3839V11.4307Z" fill="white"/>
    <path d="M34.2902 11.4307H32.3833V13.3375H34.2902V11.4307Z" fill="white"/>
    <path d="M36.1857 11.4307H34.2788V13.3375H36.1857V11.4307Z" fill="white"/>
    <path d="M38.093 11.4302H36.1862V13.337H38.093V11.4302Z" fill="white"/>
    <path d="M39.9994 11.4302H38.0925V13.337H39.9994V11.4302Z" fill="white"/>
    <path d="M3.81432 13.3369H1.90747V15.2438H3.81432V13.3369Z" fill="white"/>
    <path d="M5.72045 13.3369H3.8136V15.2438H5.72045V13.3369Z" fill="black"/>
    <path d="M7.61608 13.3369H5.70923V15.2438H7.61608V13.3369Z" fill="black"/>
    <path d="M9.52355 13.3369H7.6167V15.2438H9.52355V13.3369Z" fill="black"/>
    <path d="M11.4298 13.3369H9.52295V15.2438H11.4298V13.3369Z" fill="black"/>
    <path d="M13.337 13.3369H11.4302V15.2438H13.337V13.3369Z" fill="black"/>
    <path d="M15.2433 13.3369H13.3364V15.2438H15.2433V13.3369Z" fill="black"/>
    <path d="M17.14 13.3369H15.2332V15.2438H17.14V13.3369Z" fill="#EEB81D"/>
    <path d="M19.0463 13.3369H17.1394V15.2438H19.0463V13.3369Z" fill="#F0C915"/>
    <path d="M20.9537 13.3369H19.0469V15.2438H20.9537V13.3369Z" fill="#F0C915"/>
    <path d="M22.86 13.3369H20.9531V15.2438H22.86V13.3369Z" fill="#F0C915"/>
    <path d="M24.7673 13.3369H22.8605V15.2438H24.7673V13.3369Z" fill="white"/>
    <path d="M26.663 13.3369H24.7561V15.2438H26.663V13.3369Z" fill="#F0C915"/>
    <path d="M28.5702 13.3369H26.6633V15.2438H28.5702V13.3369Z" fill="#F0C915"/>
    <path d="M30.4764 13.3369H28.5696V15.2438H30.4764V13.3369Z" fill="black"/>
    <path d="M32.3839 13.3369H30.4771V15.2438H32.3839V13.3369Z" fill="black"/>
    <path d="M34.2902 13.3369H32.3833V15.2438H34.2902V13.3369Z" fill="black"/>
    <path d="M36.1857 13.3369H34.2788V15.2438H36.1857V13.3369Z" fill="black"/>
    <path d="M38.0931 13.3369H36.1863V15.2438H38.0931V13.3369Z" fill="black"/>
    <path d="M39.9994 13.3369H38.0925V15.2438H39.9994V13.3369Z" fill="black"/>
    <path d="M41.9066 13.3369H39.9998V15.2438H41.9066V13.3369Z" fill="white"/>
    <path d="M1.90685 15.2324H0L0 17.1393H1.90685V15.2324Z" fill="white"/>
    <path d="M3.81432 15.2324H1.90747V17.1393H3.81432V15.2324Z" fill="black"/>
    <path d="M5.72057 15.2324H3.81372V17.1393H5.72057V15.2324Z" fill="#BB891A"/>
    <path d="M7.61608 15.2324H5.70923V17.1393H7.61608V15.2324Z" fill="#D2991E"/>
    <path d="M9.52355 15.2324H7.6167V17.1393H9.52355V15.2324Z" fill="#D2991E"/>
    <path d="M11.4298 15.2324H9.52295V17.1393H11.4298V15.2324Z" fill="#EEB81D"/>
    <path d="M13.337 15.2324H11.4302V17.1393H13.337V15.2324Z" fill="#EEB81D"/>
    <path d="M15.2433 15.2324H13.3364V17.1393H15.2433V15.2324Z" fill="#EEB81D"/>
    <path d="M17.1399 15.2329H15.233V17.1398H17.1399V15.2329Z" fill="#F0C915"/>
    <path d="M19.0463 15.2324H17.1394V17.1393H19.0463V15.2324Z" fill="#F0C915"/>
    <path d="M20.9537 15.2324H19.0469V17.1393H20.9537V15.2324Z" fill="#F0C915"/>
    <path d="M22.86 15.2324H20.9531V17.1393H22.86V15.2324Z" fill="#F0C915"/>
    <path d="M24.7673 15.2324H22.8605V17.1393H24.7673V15.2324Z" fill="#F0C915"/>
    <path d="M26.6628 15.2324H24.756V17.1393H26.6628V15.2324Z" fill="white"/>
    <path d="M28.5702 15.2329H26.6633V17.1398H28.5702V15.2329Z" fill="#F0C915"/>
    <path d="M30.4764 15.2324H28.5696V17.1393H30.4764V15.2324Z" fill="#F0C915"/>
    <path d="M32.3838 15.2329H30.4769V17.1398H32.3838V15.2329Z" fill="#F0C915"/>
    <path d="M34.2902 15.2324H32.3833V17.1393H34.2902V15.2324Z" fill="#F0C915"/>
    <path d="M36.1857 15.2324H34.2788V17.1393H36.1857V15.2324Z" fill="#F0C915"/>
    <path d="M38.0929 15.2324H36.186V17.1393H38.0929V15.2324Z" fill="#F0C915"/>
    <path d="M39.9994 15.2324H38.0925V17.1393H39.9994V15.2324Z" fill="#F0C915"/>
    <path d="M41.9066 15.2324H39.9998V17.1393H41.9066V15.2324Z" fill="black"/>
    <path d="M43.8129 15.2324H41.906V17.1393H43.8129V15.2324Z" fill="white"/>
    <path d="M3.81432 17.1396H1.90747V19.0465H3.81432V17.1396Z" fill="white"/>
    <path d="M5.72057 17.1396H3.81372V19.0465H5.72057V17.1396Z" fill="black"/>
    <path d="M7.61608 17.1396H5.70923V19.0465H7.61608V17.1396Z" fill="black"/>
    <path d="M9.52343 17.1396H7.61658V19.0465H9.52343V17.1396Z" fill="#BB891A"/>
    <path d="M11.4298 17.1396H9.52295V19.0465H11.4298V17.1396Z" fill="#F0C915"/>
    <path d="M13.337 17.1396H11.4302V19.0465H13.337V17.1396Z" fill="#F0C915"/>
    <path d="M15.2433 17.1396H13.3364V19.0465H15.2433V17.1396Z" fill="#F0C915"/>
    <path d="M17.14 17.1396H15.2332V19.0465H17.14V17.1396Z" fill="#F0C915"/>
    <path d="M19.0463 17.1396H17.1394V19.0465H19.0463V17.1396Z" fill="#F0C915"/>
    <path d="M20.9536 17.1396H19.0468V19.0465H20.9536V17.1396Z" fill="#F0C915"/>
    <path d="M22.86 17.1396H20.9531V19.0465H22.86V17.1396Z" fill="#F0C915"/>
    <path d="M24.7672 17.1396H22.8604V19.0465H24.7672V17.1396Z" fill="#F0C915"/>
    <path d="M26.6628 17.1396H24.756V19.0465H26.6628V17.1396Z" fill="#F0C915"/>
    <path d="M28.5703 17.1396H26.6635V19.0465H28.5703V17.1396Z" fill="white"/>
    <path d="M30.4764 17.1396H28.5696V19.0465H30.4764V17.1396Z" fill="#F0C915"/>
    <path d="M32.3839 17.1396H30.4771V19.0465H32.3839V17.1396Z" fill="#F0C915"/>
    <path d="M34.2902 17.1396H32.3833V19.0465H34.2902V17.1396Z" fill="#F0C915"/>
    <path d="M36.1857 17.1396H34.2788V19.0465H36.1857V17.1396Z" fill="#F0C915"/>
    <path d="M38.0929 17.1396H36.186V19.0465H38.0929V17.1396Z" fill="black"/>
    <path d="M39.9994 17.1396H38.0925V19.0465H39.9994V17.1396Z" fill="black"/>
    <path d="M41.9066 17.1396H39.9998V19.0465H41.9066V17.1396Z" fill="white"/>
    <path d="M5.72057 19.0464H3.81372V20.9532H5.72057V19.0464Z" fill="white"/>
    <path d="M7.61608 19.0464H5.70923V20.9532H7.61608V19.0464Z" fill="white"/>
    <path d="M9.52343 19.0464H7.61658V20.9532H9.52343V19.0464Z" fill="black"/>
    <path d="M11.4297 19.0464H9.52283V20.9532H11.4297V19.0464Z" fill="#BB891A"/>
    <path d="M13.337 19.0464H11.4302V20.9532H13.337V19.0464Z" fill="#BB891A"/>
    <path d="M15.2433 19.0464H13.3364V20.9532H15.2433V19.0464Z" fill="#F0C915"/>
    <path d="M17.14 19.0464H15.2332V20.9532H17.14V19.0464Z" fill="#F0C915"/>
    <path d="M19.0463 19.0464H17.1394V20.9532H19.0463V19.0464Z" fill="#F0C915"/>
    <path d="M20.9537 19.0464H19.0469V20.9532H20.9537V19.0464Z" fill="#F0C915"/>
    <path d="M22.86 19.0464H20.9531V20.9532H22.86V19.0464Z" fill="#F0C915"/>
    <path d="M24.7673 19.0464H22.8605V20.9532H24.7673V19.0464Z" fill="#F0C915"/>
    <path d="M26.6628 19.0464H24.756V20.9532H26.6628V19.0464Z" fill="#F0C915"/>
    <path d="M28.5702 19.0464H26.6633V20.9532H28.5702V19.0464Z" fill="#F0C915"/>
    <path d="M30.4764 19.0464H28.5696V20.9532H30.4764V19.0464Z" fill="#F0C915"/>
    <path d="M32.3838 19.0464H30.4769V20.9532H32.3838V19.0464Z" fill="#F0C915"/>
    <path d="M34.2902 19.0464H32.3833V20.9532H34.2902V19.0464Z" fill="#F0C915"/>
    <path d="M36.1857 19.0464H34.2788V20.9532H36.1857V19.0464Z" fill="black"/>
    <path d="M38.093 19.0464H36.1862V20.9532H38.093V19.0464Z" fill="white"/>
    <path d="M39.9994 19.0464H38.0925V20.9532H39.9994V19.0464Z" fill="white"/>
    <path d="M9.52343 20.9531H7.61658V22.86H9.52343V20.9531Z" fill="white"/>
    <path d="M11.4298 20.9531H9.52295V22.86H11.4298V20.9531Z" fill="black"/>
    <path d="M13.337 20.9531H11.4302V22.86H13.337V20.9531Z" fill="black"/>
    <path d="M15.2433 20.9531H13.3364V22.86H15.2433V20.9531Z" fill="#BB891A"/>
    <path d="M17.14 20.9531H15.2332V22.86H17.14V20.9531Z" fill="#F0C915"/>
    <path d="M19.0463 20.9531H17.1394V22.86H19.0463V20.9531Z" fill="#F0C915"/>
    <path d="M20.9537 20.9531H19.0469V22.86H20.9537V20.9531Z" fill="#F0C915"/>
    <path d="M22.86 20.9531H20.9531V22.86H22.86V20.9531Z" fill="#F0C915"/>
    <path d="M24.7672 20.9531H22.8604V22.86H24.7672V20.9531Z" fill="#F0C915"/>
    <path d="M26.6628 20.9531H24.756V22.86H26.6628V20.9531Z" fill="#F0C915"/>
    <path d="M28.5702 20.9531H26.6633V22.86H28.5702V20.9531Z" fill="#F0C915"/>
    <path d="M30.4764 20.9531H28.5696V22.86H30.4764V20.9531Z" fill="#F0C915"/>
    <path d="M32.3839 20.9531H30.4771V22.86H32.3839V20.9531Z" fill="black"/>
    <path d="M34.2902 20.9531H32.3833V22.86H34.2902V20.9531Z" fill="black"/>
    <path d="M36.1857 20.9531H34.2788V22.86H36.1857V20.9531Z" fill="white"/>
    <path d="M13.337 22.8604H11.4302V24.7672H13.337V22.8604Z" fill="white"/>
    <path d="M15.2433 22.8604H13.3364V24.7672H15.2433V22.8604Z" fill="black"/>
    <path d="M17.14 22.8604H15.2332V24.7672H17.14V22.8604Z" fill="#D2991E"/>
    <path d="M19.0463 22.8604H17.1394V24.7672H19.0463V22.8604Z" fill="#F0C915"/>
    <path d="M20.9537 22.8604H19.0469V24.7672H20.9537V22.8604Z" fill="#F0C915"/>
    <path d="M22.86 22.8604H20.9531V24.7672H22.86V22.8604Z" fill="#F0C915"/>
    <path d="M24.7673 22.8604H22.8605V24.7672H24.7673V22.8604Z" fill="#F0C915"/>
    <path d="M26.6628 22.8604H24.756V24.7672H26.6628V22.8604Z" fill="#F0C915"/>
    <path d="M28.5702 22.8604H26.6633V24.7672H28.5702V22.8604Z" fill="#F0C915"/>
    <path d="M30.4764 22.8604H28.5696V24.7672H30.4764V22.8604Z" fill="black"/>
    <path d="M32.3838 22.8604H30.4769V24.7672H32.3838V22.8604Z" fill="white"/>
    <path d="M11.4298 24.7559H9.52295V26.6627H11.4298V24.7559Z" fill="white"/>
    <path d="M13.3371 24.7559H11.4303V26.6627H13.3371V24.7559Z" fill="black"/>
    <path d="M15.2434 24.7559H13.3365V26.6627H15.2434V24.7559Z" fill="#BB891A"/>
    <path d="M17.1399 24.7559H15.233V26.6627H17.1399V24.7559Z" fill="#EEB81D"/>
    <path d="M19.0463 24.7559H17.1394V26.6627H19.0463V24.7559Z" fill="#F0C915"/>
    <path d="M20.9537 24.7559H19.0469V26.6627H20.9537V24.7559Z" fill="#F0C915"/>
    <path d="M22.86 24.7559H20.9531V26.6627H22.86V24.7559Z" fill="#F0C915"/>
    <path d="M24.7673 24.7559H22.8605V26.6627H24.7673V24.7559Z" fill="#F0C915"/>
    <path d="M26.6628 24.7559H24.756V26.6627H26.6628V24.7559Z" fill="#F0C915"/>
    <path d="M28.5702 24.7559H26.6633V26.6627H28.5702V24.7559Z" fill="#F0C915"/>
    <path d="M30.4764 24.7559H28.5696V26.6627H30.4764V24.7559Z" fill="#F0C915"/>
    <path d="M32.3838 24.7559H30.4769V26.6627H32.3838V24.7559Z" fill="black"/>
    <path d="M34.2902 24.7559H32.3833V26.6627H34.2902V24.7559Z" fill="white"/>
    <path d="M11.4298 26.6631H9.52295V28.5699H11.4298V26.6631Z" fill="white"/>
    <path d="M13.337 26.6631H11.4302V28.5699H13.337V26.6631Z" fill="black"/>
    <path d="M15.2433 26.6631H13.3364V28.5699H15.2433V26.6631Z" fill="#BB891A"/>
    <path d="M17.14 26.6631H15.2332V28.5699H17.14V26.6631Z" fill="#F0C915"/>
    <path d="M19.0463 26.6631H17.1394V28.5699H19.0463V26.6631Z" fill="#F0C915"/>
    <path d="M20.9537 26.6631H19.0469V28.5699H20.9537V26.6631Z" fill="#F0C915"/>
    <path d="M22.86 26.6631H20.9531V28.5699H22.86V26.6631Z" fill="#F0C915"/>
    <path d="M24.7673 26.6631H22.8605V28.5699H24.7673V26.6631Z" fill="#F0C915"/>
    <path d="M26.6628 26.6631H24.756V28.5699H26.6628V26.6631Z" fill="#F0C915"/>
    <path d="M28.5703 26.6626H26.6635V28.5694H28.5703V26.6626Z" fill="#F0C915"/>
    <path d="M30.4764 26.6631H28.5696V28.5699H30.4764V26.6631Z" fill="#F0C915"/>
    <path d="M32.3839 26.6631H30.4771V28.5699H32.3839V26.6631Z" fill="black"/>
    <path d="M34.2902 26.6631H32.3833V28.5699H34.2902V26.6631Z" fill="white"/>
    <path d="M11.4298 28.5698H9.52295V30.4767H11.4298V28.5698Z" fill="white"/>
    <path d="M13.3371 28.5698H11.4303V30.4767H13.3371V28.5698Z" fill="black"/>
    <path d="M15.2433 28.5698H13.3364V30.4767H15.2433V28.5698Z" fill="#BB891A"/>
    <path d="M17.14 28.5698H15.2332V30.4767H17.14V28.5698Z" fill="#F0C915"/>
    <path d="M19.0463 28.5698H17.1394V30.4767H19.0463V28.5698Z" fill="#F0C915"/>
    <path d="M20.9536 28.5698H19.0468V30.4767H20.9536V28.5698Z" fill="#EEB81D"/>
    <path d="M22.86 28.5698H20.9531V30.4767H22.86V28.5698Z" fill="#EEB81D"/>
    <path d="M24.7673 28.5698H22.8605V30.4767H24.7673V28.5698Z" fill="#EEB81D"/>
    <path d="M26.6628 28.5698H24.756V30.4767H26.6628V28.5698Z" fill="#F0C915"/>
    <path d="M28.5702 28.5698H26.6633V30.4767H28.5702V28.5698Z" fill="#F0C915"/>
    <path d="M30.4765 28.5698H28.5697V30.4767H30.4765V28.5698Z" fill="#F0C915"/>
    <path d="M32.3838 28.5698H30.4769V30.4767H32.3838V28.5698Z" fill="black"/>
    <path d="M34.2902 28.5698H32.3833V30.4767H34.2902V28.5698Z" fill="white"/>
    <path d="M9.52355 30.4766H7.6167V32.3834H9.52355V30.4766Z" fill="white"/>
    <path d="M11.4298 30.4766H9.52295V32.3834H11.4298V30.4766Z" fill="black"/>
    <path d="M13.337 30.4766H11.4302V32.3834H13.337V30.4766Z" fill="#BB891A"/>
    <path d="M15.2433 30.4766H13.3364V32.3834H15.2433V30.4766Z" fill="#EEB81D"/>
    <path d="M17.14 30.4766H15.2332V32.3834H17.14V30.4766Z" fill="#F0C915"/>
    <path d="M19.0463 30.4766H17.1394V32.3834H19.0463V30.4766Z" fill="#EEB81D"/>
    <path d="M20.9537 30.4766H19.0469V32.3834H20.9537V30.4766Z" fill="#BB891A"/>
    <path d="M22.86 30.4766H20.9531V32.3834H22.86V30.4766Z" fill="black"/>
    <path d="M24.7673 30.4766H22.8605V32.3834H24.7673V30.4766Z" fill="#D2991E"/>
    <path d="M26.663 30.4766H24.7561V32.3834H26.663V30.4766Z" fill="#EEB81D"/>
    <path d="M28.5703 30.4766H26.6635V32.3834H28.5703V30.4766Z" fill="#F0C915"/>
    <path d="M30.4764 30.4766H28.5696V32.3834H30.4764V30.4766Z" fill="#F0C915"/>
    <path d="M32.3839 30.4766H30.4771V32.3834H32.3839V30.4766Z" fill="#F0C915"/>
    <path d="M34.2902 30.4766H32.3833V32.3834H34.2902V30.4766Z" fill="black"/>
    <path d="M36.1857 30.4766H34.2788V32.3834H36.1857V30.4766Z" fill="white"/>
    <path d="M9.52343 32.3838H7.61658V34.2906H9.52343V32.3838Z" fill="white"/>
    <path d="M11.4297 32.3838H9.52283V34.2906H11.4297V32.3838Z" fill="black"/>
    <path d="M13.337 32.3838H11.4302V34.2906H13.337V32.3838Z" fill="#BB891A"/>
    <path d="M15.2433 32.3838H13.3364V34.2906H15.2433V32.3838Z" fill="#EEB81D"/>
    <path d="M17.14 32.3833H15.2332V34.2902H17.14V32.3833Z" fill="#EEB81D"/>
    <path d="M19.0463 32.3838H17.1394V34.2906H19.0463V32.3838Z" fill="#BB891A"/>
    <path d="M20.9537 32.3833H19.0469V34.2902H20.9537V32.3833Z" fill="black"/>
    <path d="M22.86 32.3838H20.9531V34.2906H22.86V32.3838Z" fill="white"/>
    <path d="M24.7672 32.3838H22.8604V34.2906H24.7672V32.3838Z" fill="black"/>
    <path d="M26.663 32.3833H24.7561V34.2902H26.663V32.3833Z" fill="#D2991E"/>
    <path d="M28.5702 32.3838H26.6633V34.2906H28.5702V32.3838Z" fill="#EEB81D"/>
    <path d="M30.4765 32.3833H28.5697V34.2902H30.4765V32.3833Z" fill="#EEB81D"/>
    <path d="M32.3839 32.3838H30.4771V34.2906H32.3839V32.3838Z" fill="#F0C915"/>
    <path d="M34.2902 32.3838H32.3833V34.2906H34.2902V32.3838Z" fill="black"/>
    <path d="M36.1857 32.3838H34.2788V34.2906H36.1857V32.3838Z" fill="white"/>
    <path d="M7.61608 34.2793H5.70923V36.1861H7.61608V34.2793Z" fill="white"/>
    <path d="M9.52343 34.2793H7.61658V36.1861H9.52343V34.2793Z" fill="black"/>
    <path d="M11.4299 34.2793H9.52307V36.1861H11.4299V34.2793Z" fill="#BB891A"/>
    <path d="M13.337 34.2793H11.4302V36.1861H13.337V34.2793Z" fill="#D2991E"/>
    <path d="M15.2433 34.2793H13.3364V36.1861H15.2433V34.2793Z" fill="#D2991E"/>
    <path d="M17.1399 34.2793H15.233V36.1861H17.1399V34.2793Z" fill="black"/>
    <path d="M19.0463 34.2793H17.1394V36.1861H19.0463V34.2793Z" fill="black"/>
    <path d="M20.9537 34.2793H19.0469V36.1861H20.9537V34.2793Z" fill="white"/>
    <path d="M24.7672 34.2793H22.8604V36.1861H24.7672V34.2793Z" fill="white"/>
    <path d="M26.6628 34.2793H24.756V36.1861H26.6628V34.2793Z" fill="black"/>
    <path d="M28.5702 34.2793H26.6633V36.1861H28.5702V34.2793Z" fill="black"/>
    <path d="M30.4764 34.2793H28.5696V36.1861H30.4764V34.2793Z" fill="#D2991E"/>
    <path d="M32.3838 34.2793H30.4769V36.1861H32.3838V34.2793Z" fill="#EEB81D"/>
    <path d="M34.2902 34.2793H32.3833V36.1861H34.2902V34.2793Z" fill="#F0C915"/>
    <path d="M36.1857 34.2793H34.2788V36.1861H36.1857V34.2793Z" fill="black"/>
    <path d="M38.0931 34.2793H36.1863V36.1861H38.0931V34.2793Z" fill="white"/>
    <path d="M9.52343 36.1865H7.61658V38.0934H9.52343V36.1865Z" fill="white"/>
    <path d="M11.4298 36.1865H9.52295V38.0934H11.4298V36.1865Z" fill="black"/>
    <path d="M13.337 36.186H11.4302V38.0929H13.337V36.186Z" fill="black"/>
    <path d="M15.2433 36.1865H13.3364V38.0934H15.2433V36.1865Z" fill="black"/>
    <path d="M17.14 36.186H15.2332V38.0929H17.14V36.186Z" fill="white"/>
    <path d="M19.0463 36.186H17.1394V38.0929H19.0463V36.186Z" fill="white"/>
    <path d="M26.663 36.186H24.7561V38.0929H26.663V36.186Z" fill="white"/>
    <path d="M28.5702 36.1865H26.6633V38.0934H28.5702V36.1865Z" fill="white"/>
    <path d="M30.4764 36.1865H28.5696V38.0934H30.4764V36.1865Z" fill="black"/>
    <path d="M32.3839 36.186H30.4771V38.0929H32.3839V36.186Z" fill="black"/>
    <path d="M34.2902 36.186H32.3833V38.0929H34.2902V36.186Z" fill="black"/>
    <path d="M36.1857 36.186H34.2788V38.0929H36.1857V36.186Z" fill="white"/>
    <path d="M11.4298 38.0928H9.52295V39.9996H11.4298V38.0928Z" fill="white"/>
    <path d="M13.337 38.0928H11.4302V39.9996H13.337V38.0928Z" fill="white"/>
    <path d="M15.2433 38.0928H13.3364V39.9996H15.2433V38.0928Z" fill="white"/>
    <path d="M30.4764 38.0928H28.5696V39.9996H30.4764V38.0928Z" fill="white"/>
    <path d="M32.3837 38.0928H30.4768V39.9996H32.3837V38.0928Z" fill="white"/>
    <path d="M34.29 38.0928H32.3832V39.9996H34.29V38.0928Z" fill="white"/>
</svg>
