
<svg width="200" height="57" viewBox="0 0 200 57" fill="none" xmlns="http://www.w3.org/2000/svg">
    <g clip-path="url(#clip0_1940_20235)">
        <path d="M15.3834 31.4577H193.552V29.2993H195.724V6.43429H193.566V4.28955H6.44776V6.44801H4.28931V29.313H6.44776V31.4714H11.0665V35.7838H13.2249V33.6162H15.3834V31.4577Z" fill="white" stroke="white" stroke-width="4.26661" stroke-miterlimit="10"/>
        <path d="M195.711 29.2993H193.552V31.4578H195.711V29.2993Z" fill="white" stroke="white" stroke-width="4.26661" stroke-miterlimit="10"/>
        <path d="M15.3836 33.6162H13.2251V35.7747H15.3836V33.6162Z" fill="white" stroke="white" stroke-width="4.26661" stroke-miterlimit="10"/>
        <path d="M193.552 31.458H15.3835V33.6165H193.552V31.458Z" fill="white" stroke="white" stroke-width="4.26661" stroke-miterlimit="10"/>
        <path d="M4.28931 6.44824H2.13086V29.3041H4.28931V6.44824Z" fill="white" stroke="white" stroke-width="4.26661" stroke-miterlimit="10"/>
        <path d="M193.552 2.13135H6.448V4.2898H193.552V2.13135Z" fill="white" stroke="white" stroke-width="4.26661" stroke-miterlimit="10"/>
        <path d="M197.869 6.44824H195.71V29.3041H197.869V6.44824Z" fill="white" stroke="white" stroke-width="4.26661" stroke-miterlimit="10"/>
        <path d="M6.44776 4.28955H4.28931V6.44801H6.44776V4.28955Z" fill="white" stroke="white" stroke-width="4.26661" stroke-miterlimit="10"/>
        <path d="M6.44776 29.2993H4.28931V31.4578H6.44776V29.2993Z" fill="white" stroke="white" stroke-width="4.26661" stroke-miterlimit="10"/>
        <path d="M195.711 4.28955H193.552V6.44801H195.711V4.28955Z" fill="white" stroke="white" stroke-width="4.26661" stroke-miterlimit="10"/>
        <path d="M11.0667 35.7703H13.2252V38.2352H11.0667V40.3936H8.91284V33.6165H6.448V31.458H11.0667V35.7703Z" fill="white" stroke="white" stroke-width="4.26661" stroke-miterlimit="10"/>
        <path d="M15.3834 31.4577H193.552V29.2993H195.724V6.43429H193.566V4.28955H6.44776V6.44801H4.28931V29.313H6.44776V31.4714H11.0665V35.7838H13.2249V33.6162H15.3834V31.4577Z" fill="white"/>
        <path d="M195.711 29.2993H193.552V31.4578H195.711V29.2993Z" fill="black"/>
        <path d="M15.3836 33.6162H13.2251V35.7747H15.3836V33.6162Z" fill="black"/>
        <path d="M193.552 31.458H15.3835V33.6165H193.552V31.458Z" fill="black"/>
        <path d="M4.28931 6.44824H2.13086V29.3041H4.28931V6.44824Z" fill="black"/>
        <path d="M193.552 2.13135H6.448V4.2898H193.552V2.13135Z" fill="black"/>
        <path d="M197.869 6.44824H195.71V29.3041H197.869V6.44824Z" fill="black"/>
        <path d="M6.44776 4.28955H4.28931V6.44801H6.44776V4.28955Z" fill="black"/>
        <path d="M6.44776 29.2993H4.28931V31.4578H6.44776V29.2993Z" fill="black"/>
        <path d="M195.711 4.28955H193.552V6.44801H195.711V4.28955Z" fill="black"/>
        <path d="M11.0667 35.7703H13.2252V38.2352H11.0667V40.3936H8.91284V33.6165H6.448V31.458H11.0667V35.7703Z" fill="black"/>
        <path d="M23.9237 16.4639H20.8602V19.5274H23.9237V22.5908H20.8602V25.6543H17.7968V22.5908H14.7333V25.6543H11.6699V22.5908H8.60645V19.5274H11.6699V16.4639H8.60645V13.4005H11.6699V10.337H14.7333V13.4005H17.7968V10.337H20.8602V13.4005H23.9237V16.4639ZM17.7968 19.5274V16.4639H14.7333V19.5274H17.7968ZM33.1106 10.337H36.1741V22.5908H33.1106V19.5274H26.9837V10.337H30.0472V16.4639H33.1106V10.337ZM26.9837 22.5908H33.1106V25.6543H26.9837V22.5908ZM45.355 10.337H48.4185V25.6543H45.355V19.5274H39.2281V10.337H42.2916V16.4639H45.355V10.337ZM54.536 13.4005V16.4639H57.5994V19.5274H54.536V22.5908H60.6629V25.6543H51.4725V10.337H60.6629V13.4005H54.536ZM75.9707 16.4639V22.5908H72.9073V19.5274H66.7804V22.5908H72.9073V25.6543H63.7169V10.337H72.9073V13.4005H66.7804V16.4639H75.9707ZM91.2922 10.337V25.6543H88.2288V21.0591H82.1019V25.6543H79.0384V13.4005H82.1019V17.9957H88.2288V13.4005H82.1019V10.337H91.2922ZM97.4234 16.4639H100.487V19.5274H97.4234V25.6543H94.36V10.337H97.4234V16.4639ZM103.55 10.337H106.614V25.6543H103.55V16.4639H100.487V13.4005H103.55V10.337ZM118.872 10.337V19.5274H112.745V25.6543H109.681V10.337H118.872ZM115.808 16.4639V13.4005H112.745V16.4639H115.808ZM134.18 10.337V25.6543H131.116V21.0591H124.989V25.6543H121.926V13.4005H124.989V17.9957H131.116V13.4005H124.989V10.337H134.18ZM149.501 16.4639V22.5908H146.438V19.5274H140.311V22.5908H146.438V25.6543H137.247V10.337H146.438V13.4005H140.311V16.4639H149.501ZM161.759 10.337V25.6543H152.569V13.4005H155.632V22.5908H158.696V13.4005H155.632V10.337H161.759ZM174.004 10.337V13.4005H170.94V25.6543H167.877V13.4005H164.813V10.337H174.004ZM189.312 10.337V25.6543H186.248V21.0591H180.121V25.6543H177.058V13.4005H180.121V17.9957H186.248V13.4005H180.121V10.337H189.312Z" fill="black"/>
    </g>
    <defs>
        <clipPath id="clip0_1940_20235">
            <rect width="200" height="56.1747" fill="white"/>
        </clipPath>
    </defs>
</svg>
