<svg width="44" height="42" viewBox="0 0 44 42" fill="none" xmlns="http://www.w3.org/2000/svg">
    <path d="M5.61053 34.0151H4.01721V35.6084H5.61053V34.0151Z" fill="black"/>
    <path d="M7.20403 34.0151H5.61072V35.6084H7.20403V34.0151Z" fill="black"/>
    <path d="M8.79717 34.0151H7.20386V35.6084H8.79717V34.0151Z" fill="black"/>
    <path d="M10.3906 34.0151H8.79724V35.6084H10.3906V34.0151Z" fill="black"/>
    <path d="M11.9838 34.0151H10.3905V35.6084H11.9838V34.0151Z" fill="black"/>
    <path d="M13.5771 34.0151H11.9838V35.6084H13.5771V34.0151Z" fill="black"/>
    <path d="M15.1705 34.0151H13.5771V35.6084H15.1705V34.0151Z" fill="black"/>
    <path d="M16.7637 34.0151H15.1704V35.6084H16.7637V34.0151Z" fill="black"/>
    <path d="M18.3571 34.0151H16.7638V35.6084H18.3571V34.0151Z" fill="black"/>
    <path d="M19.9504 34.0151H18.3571V35.6084H19.9504V34.0151Z" fill="black"/>
    <path d="M21.5438 34.0151H19.9504V35.6084H21.5438V34.0151Z" fill="black"/>
    <path d="M23.1371 34.0151H21.5438V35.6084H23.1371V34.0151Z" fill="black"/>
    <path d="M24.7302 34.0151H23.1368V35.6084H24.7302V34.0151Z" fill="black"/>
    <path d="M26.3235 34.0151H24.7302V35.6084H26.3235V34.0151Z" fill="black"/>
    <path d="M27.9168 34.0151H26.3235V35.6084H27.9168V34.0151Z" fill="black"/>
    <path d="M29.5102 34.0151H27.9169V35.6084H29.5102V34.0151Z" fill="black"/>
    <path d="M31.1034 34.0151H29.5101V35.6084H31.1034V34.0151Z" fill="black"/>
    <path d="M32.6967 34.0151H31.1034V35.6084H32.6967V34.0151Z" fill="black"/>
    <path d="M34.2903 34.0151H32.697V35.6084H34.2903V34.0151Z" fill="black"/>
    <path d="M35.8836 34.0151H34.2903V35.6084H35.8836V34.0151Z" fill="black"/>
    <path d="M37.4767 34.0151H35.8834V35.6084H37.4767V34.0151Z" fill="black"/>
    <path d="M39.0701 34.0151H37.4768V35.6084H39.0701V34.0151Z" fill="black"/>
    <path d="M40.6634 32.4219H39.0701V34.0152H40.6634V32.4219Z" fill="black"/>
    <path d="M40.6634 30.8291H39.0701V32.4224H40.6634V30.8291Z" fill="black"/>
    <path d="M39.0701 29.2358H37.4768V30.8292H39.0701V29.2358Z" fill="black"/>
    <path d="M39.0701 27.6421H37.4768V29.2354H39.0701V27.6421Z" fill="black"/>
    <path d="M37.4767 26.0488H35.8834V27.6421H37.4767V26.0488Z" fill="black"/>
    <path d="M37.4767 24.4551H35.8834V26.0484H37.4767V24.4551Z" fill="black"/>
    <path d="M39.0701 32.4219H37.4768V34.0152H39.0701V32.4219Z" fill="#333333"/>
    <path d="M39.0701 30.8291H37.4768V32.4224H39.0701V30.8291Z" fill="#333333"/>
    <path d="M37.4767 32.4219H35.8834V34.0152H37.4767V32.4219Z" fill="#333333"/>
    <path d="M37.4767 30.8291H35.8834V32.4224H37.4767V30.8291Z" fill="#333333"/>
    <path d="M35.8836 32.4219H34.2903V34.0152H35.8836V32.4219Z" fill="#333333"/>
    <path d="M35.8836 30.8291H34.2903V32.4224H35.8836V30.8291Z" fill="#333333"/>
    <path d="M34.2903 32.4219H32.697V34.0152H34.2903V32.4219Z" fill="#333333"/>
    <path d="M34.2903 30.8291H32.697V32.4224H34.2903V30.8291Z" fill="#333333"/>
    <path d="M32.6967 32.4219H31.1034V34.0152H32.6967V32.4219Z" fill="#333333"/>
    <path d="M32.6967 30.8291H31.1034V32.4224H32.6967V30.8291Z" fill="#333333"/>
    <path d="M31.1034 32.4219H29.5101V34.0152H31.1034V32.4219Z" fill="#333333"/>
    <path d="M31.1034 30.8291H29.5101V32.4224H31.1034V30.8291Z" fill="#333333"/>
    <path d="M29.5102 32.4219H27.9169V34.0152H29.5102V32.4219Z" fill="#333333"/>
    <path d="M29.5102 30.8291H27.9169V32.4224H29.5102V30.8291Z" fill="#333333"/>
    <path d="M27.9168 32.4219H26.3235V34.0152H27.9168V32.4219Z" fill="#333333"/>
    <path d="M27.9168 30.8291H26.3235V32.4224H27.9168V30.8291Z" fill="#333333"/>
    <path d="M26.3235 32.4219H24.7302V34.0152H26.3235V32.4219Z" fill="#333333"/>
    <path d="M26.3235 30.8291H24.7302V32.4224H26.3235V30.8291Z" fill="#333333"/>
    <path d="M24.7302 32.4219H23.1368V34.0152H24.7302V32.4219Z" fill="#333333"/>
    <path d="M24.7302 30.8291H23.1368V32.4224H24.7302V30.8291Z" fill="#333333"/>
    <path d="M23.1371 32.4219H21.5438V34.0152H23.1371V32.4219Z" fill="#333333"/>
    <path d="M23.1371 30.8291H21.5438V32.4224H23.1371V30.8291Z" fill="#333333"/>
    <path d="M21.5438 32.4219H19.9504V34.0152H21.5438V32.4219Z" fill="#333333"/>
    <path d="M21.5438 30.8291H19.9504V32.4224H21.5438V30.8291Z" fill="#333333"/>
    <path d="M19.9504 32.4219H18.3571V34.0152H19.9504V32.4219Z" fill="#333333"/>
    <path d="M19.9504 30.8291H18.3571V32.4224H19.9504V30.8291Z" fill="#333333"/>
    <path d="M18.3571 32.4219H16.7638V34.0152H18.3571V32.4219Z" fill="#333333"/>
    <path d="M18.3571 30.8291H16.7638V32.4224H18.3571V30.8291Z" fill="#333333"/>
    <path d="M16.7637 32.4219H15.1704V34.0152H16.7637V32.4219Z" fill="#333333"/>
    <path d="M16.7637 30.8291H15.1704V32.4224H16.7637V30.8291Z" fill="#333333"/>
    <path d="M15.1705 32.4219H13.5771V34.0152H15.1705V32.4219Z" fill="#333333"/>
    <path d="M15.1705 30.8291H13.5771V32.4224H15.1705V30.8291Z" fill="#333333"/>
    <path d="M13.5771 32.4219H11.9838V34.0152H13.5771V32.4219Z" fill="#333333"/>
    <path d="M13.5771 30.8291H11.9838V32.4224H13.5771V30.8291Z" fill="#333333"/>
    <path d="M11.9838 32.4219H10.3905V34.0152H11.9838V32.4219Z" fill="#333333"/>
    <path d="M11.9838 30.8291H10.3905V32.4224H11.9838V30.8291Z" fill="#333333"/>
    <path d="M10.3906 32.4219H8.79724V34.0152H10.3906V32.4219Z" fill="#333333"/>
    <path d="M10.3906 30.8291H8.79724V32.4224H10.3906V30.8291Z" fill="#333333"/>
    <path d="M8.79717 32.4219H7.20386V34.0152H8.79717V32.4219Z" fill="#333333"/>
    <path d="M8.79717 30.8291H7.20386V32.4224H8.79717V30.8291Z" fill="#333333"/>
    <path d="M7.20403 32.4219H5.61072V34.0152H7.20403V32.4219Z" fill="#333333"/>
    <path d="M7.20403 30.8291H5.61072V32.4224H7.20403V30.8291Z" fill="#333333"/>
    <path d="M37.4767 29.2358H35.8834V30.8292H37.4767V29.2358Z" fill="#333333"/>
    <path d="M37.4767 27.6421H35.8834V29.2354H37.4767V27.6421Z" fill="#333333"/>
    <path d="M35.8836 29.2358H34.2903V30.8292H35.8836V29.2358Z" fill="#CCCCCC"/>
    <path d="M35.8836 27.6421H34.2903V29.2354H35.8836V27.6421Z" fill="#333333"/>
    <path d="M34.2903 29.2358H32.697V30.8292H34.2903V29.2358Z" fill="#CCCCCC"/>
    <path d="M34.2903 27.6421H32.697V29.2354H34.2903V27.6421Z" fill="#333333"/>
    <path d="M32.6967 29.2358H31.1034V30.8292H32.6967V29.2358Z" fill="#CCCCCC"/>
    <path d="M32.6967 27.6421H31.1034V29.2354H32.6967V27.6421Z" fill="#333333"/>
    <path d="M31.1034 29.2358H29.5101V30.8292H31.1034V29.2358Z" fill="#333333"/>
    <path d="M31.1034 27.6421H29.5101V29.2354H31.1034V27.6421Z" fill="#333333"/>
    <path d="M29.5102 29.2358H27.9169V30.8292H29.5102V29.2358Z" fill="#CCCCCC"/>
    <path d="M29.5102 27.6421H27.9169V29.2354H29.5102V27.6421Z" fill="#333333"/>
    <path d="M27.9168 29.2358H26.3235V30.8292H27.9168V29.2358Z" fill="#CCCCCC"/>
    <path d="M27.9168 27.6421H26.3235V29.2354H27.9168V27.6421Z" fill="#333333"/>
    <path d="M26.3235 29.2358H24.7302V30.8292H26.3235V29.2358Z" fill="#333333"/>
    <path d="M26.3235 27.6421H24.7302V29.2354H26.3235V27.6421Z" fill="#333333"/>
    <path d="M24.7302 29.2358H23.1368V30.8292H24.7302V29.2358Z" fill="#CCCCCC"/>
    <path d="M24.7302 27.6421H23.1368V29.2354H24.7302V27.6421Z" fill="#333333"/>
    <path d="M23.1371 29.2358H21.5438V30.8292H23.1371V29.2358Z" fill="#CCCCCC"/>
    <path d="M23.1371 27.6421H21.5438V29.2354H23.1371V27.6421Z" fill="#333333"/>
    <path d="M21.5438 29.2358H19.9504V30.8292H21.5438V29.2358Z" fill="#333333"/>
    <path d="M21.5438 27.6421H19.9504V29.2354H21.5438V27.6421Z" fill="#333333"/>
    <path d="M19.9504 29.2358H18.3571V30.8292H19.9504V29.2358Z" fill="#CCCCCC"/>
    <path d="M19.9504 27.6421H18.3571V29.2354H19.9504V27.6421Z" fill="#333333"/>
    <path d="M18.3571 29.2358H16.7638V30.8292H18.3571V29.2358Z" fill="#CCCCCC"/>
    <path d="M18.3571 27.6421H16.7638V29.2354H18.3571V27.6421Z" fill="#333333"/>
    <path d="M16.7637 29.2358H15.1704V30.8292H16.7637V29.2358Z" fill="#333333"/>
    <path d="M16.7637 27.6421H15.1704V29.2354H16.7637V27.6421Z" fill="#333333"/>
    <path d="M15.1705 29.2358H13.5771V30.8292H15.1705V29.2358Z" fill="#CCCCCC"/>
    <path d="M15.1705 27.6421H13.5771V29.2354H15.1705V27.6421Z" fill="#333333"/>
    <path d="M13.5771 29.2358H11.9838V30.8292H13.5771V29.2358Z" fill="#CCCCCC"/>
    <path d="M13.5771 27.6421H11.9838V29.2354H13.5771V27.6421Z" fill="#333333"/>
    <path d="M11.9838 29.2358H10.3905V30.8292H11.9838V29.2358Z" fill="#333333"/>
    <path d="M11.9838 27.6421H10.3905V29.2354H11.9838V27.6421Z" fill="#333333"/>
    <path d="M10.3906 29.2358H8.79724V30.8292H10.3906V29.2358Z" fill="#CCCCCC"/>
    <path d="M10.3906 27.6421H8.79724V29.2354H10.3906V27.6421Z" fill="#333333"/>
    <path d="M8.79717 29.2358H7.20386V30.8292H8.79717V29.2358Z" fill="#CCCCCC"/>
    <path d="M8.79717 27.6421H7.20386V29.2354H8.79717V27.6421Z" fill="#333333"/>
    <path d="M35.8836 26.0488H34.2903V27.6421H35.8836V26.0488Z" fill="#333333"/>
    <path d="M35.8836 24.4551H34.2903V26.0484H35.8836V24.4551Z" fill="#333333"/>
    <path d="M34.2903 26.0488H32.697V27.6421H34.2903V26.0488Z" fill="#CCCCCC"/>
    <path d="M34.2903 24.4551H32.697V26.0484H34.2903V24.4551Z" fill="#333333"/>
    <path d="M34.2903 22.8628H32.697V24.4561H34.2903V22.8628Z" fill="#333333"/>
    <path d="M34.2903 21.269H32.697V22.8624H34.2903V21.269Z" fill="#333333"/>
    <path d="M32.6967 22.8628H31.1034V24.4561H32.6967V22.8628Z" fill="#CCCCCC"/>
    <path d="M32.6967 21.269H31.1034V22.8624H32.6967V21.269Z" fill="#333333"/>
    <path d="M31.1034 22.8628H29.5101V24.4561H31.1034V22.8628Z" fill="#CCCCCC"/>
    <path d="M31.1034 21.269H29.5101V22.8624H31.1034V21.269Z" fill="#333333"/>
    <path d="M29.5102 22.8628H27.9169V24.4561H29.5102V22.8628Z" fill="#333333"/>
    <path d="M29.5102 21.269H27.9169V22.8624H29.5102V21.269Z" fill="#333333"/>
    <path d="M27.9168 22.8628H26.3235V24.4561H27.9168V22.8628Z" fill="#CCCCCC"/>
    <path d="M27.9168 21.269H26.3235V22.8624H27.9168V21.269Z" fill="#333333"/>
    <path d="M26.3235 22.8628H24.7302V24.4561H26.3235V22.8628Z" fill="#CCCCCC"/>
    <path d="M26.3235 21.269H24.7302V22.8624H26.3235V21.269Z" fill="#333333"/>
    <path d="M24.7302 22.8628H23.1368V24.4561H24.7302V22.8628Z" fill="#333333"/>
    <path d="M24.7302 21.269H23.1368V22.8624H24.7302V21.269Z" fill="#333333"/>
    <path d="M23.1371 22.8628H21.5438V24.4561H23.1371V22.8628Z" fill="#CCCCCC"/>
    <path d="M23.1371 21.269H21.5438V22.8624H23.1371V21.269Z" fill="#333333"/>
    <path d="M21.5438 22.8628H19.9504V24.4561H21.5438V22.8628Z" fill="#CCCCCC"/>
    <path d="M21.5438 21.269H19.9504V22.8624H21.5438V21.269Z" fill="#333333"/>
    <path d="M19.9504 22.8628H18.3571V24.4561H19.9504V22.8628Z" fill="#333333"/>
    <path d="M19.9504 21.269H18.3571V22.8624H19.9504V21.269Z" fill="#333333"/>
    <path d="M18.3571 22.8628H16.7638V24.4561H18.3571V22.8628Z" fill="#CCCCCC"/>
    <path d="M18.3571 21.269H16.7638V22.8624H18.3571V21.269Z" fill="#333333"/>
    <path d="M16.7637 22.8628H15.1704V24.4561H16.7637V22.8628Z" fill="#CCCCCC"/>
    <path d="M16.7637 21.269H15.1704V22.8624H16.7637V21.269Z" fill="#333333"/>
    <path d="M15.1705 22.8628H13.5771V24.4561H15.1705V22.8628Z" fill="#333333"/>
    <path d="M15.1705 21.269H13.5771V22.8624H15.1705V21.269Z" fill="#333333"/>
    <path d="M13.5771 22.8628H11.9838V24.4561H13.5771V22.8628Z" fill="#CCCCCC"/>
    <path d="M13.5771 21.269H11.9838V22.8624H13.5771V21.269Z" fill="#333333"/>
    <path d="M11.9838 22.8628H10.3905V24.4561H11.9838V22.8628Z" fill="#CCCCCC"/>
    <path d="M11.9838 21.269H10.3905V22.8624H11.9838V21.269Z" fill="#333333"/>
    <path d="M32.6967 26.0488H31.1034V27.6421H32.6967V26.0488Z" fill="#CCCCCC"/>
    <path d="M32.6967 24.4551H31.1034V26.0484H32.6967V24.4551Z" fill="#333333"/>
    <path d="M31.1034 26.0488H29.5101V27.6421H31.1034V26.0488Z" fill="#CCCCCC"/>
    <path d="M31.1034 24.4551H29.5101V26.0484H31.1034V24.4551Z" fill="#333333"/>
    <path d="M29.5102 26.0488H27.9169V27.6421H29.5102V26.0488Z" fill="#CCCCCC"/>
    <path d="M29.5102 24.4551H27.9169V26.0484H29.5102V24.4551Z" fill="#333333"/>
    <path d="M27.9168 26.0488H26.3235V27.6421H27.9168V26.0488Z" fill="#333333"/>
    <path d="M27.9168 24.4551H26.3235V26.0484H27.9168V24.4551Z" fill="#333333"/>
    <path d="M26.3235 26.0488H24.7302V27.6421H26.3235V26.0488Z" fill="#CCCCCC"/>
    <path d="M26.3235 24.4551H24.7302V26.0484H26.3235V24.4551Z" fill="#333333"/>
    <path d="M24.7302 26.0488H23.1368V27.6421H24.7302V26.0488Z" fill="#CCCCCC"/>
    <path d="M24.7302 24.4551H23.1368V26.0484H24.7302V24.4551Z" fill="#333333"/>
    <path d="M23.1371 26.0488H21.5438V27.6421H23.1371V26.0488Z" fill="#333333"/>
    <path d="M23.1371 24.4551H21.5438V26.0484H23.1371V24.4551Z" fill="#333333"/>
    <path d="M21.5438 26.0488H19.9504V27.6421H21.5438V26.0488Z" fill="#CCCCCC"/>
    <path d="M21.5438 24.4551H19.9504V26.0484H21.5438V24.4551Z" fill="#333333"/>
    <path d="M19.9504 26.0488H18.3571V27.6421H19.9504V26.0488Z" fill="#CCCCCC"/>
    <path d="M19.9504 24.4551H18.3571V26.0484H19.9504V24.4551Z" fill="#333333"/>
    <path d="M18.3571 26.0488H16.7638V27.6421H18.3571V26.0488Z" fill="#333333"/>
    <path d="M18.3571 24.4551H16.7638V26.0484H18.3571V24.4551Z" fill="#333333"/>
    <path d="M16.7637 26.0488H15.1704V27.6421H16.7637V26.0488Z" fill="#CCCCCC"/>
    <path d="M16.7637 24.4551H15.1704V26.0484H16.7637V24.4551Z" fill="#333333"/>
    <path d="M15.1705 26.0488H13.5771V27.6421H15.1705V26.0488Z" fill="#CCCCCC"/>
    <path d="M15.1705 24.4551H13.5771V26.0484H15.1705V24.4551Z" fill="#333333"/>
    <path d="M13.5771 26.0488H11.9838V27.6421H13.5771V26.0488Z" fill="#333333"/>
    <path d="M13.5771 24.4551H11.9838V26.0484H13.5771V24.4551Z" fill="#333333"/>
    <path d="M11.9838 26.0488H10.3905V27.6421H11.9838V26.0488Z" fill="#CCCCCC"/>
    <path d="M11.9838 24.4551H10.3905V26.0484H11.9838V24.4551Z" fill="#333333"/>
    <path d="M10.3906 26.0488H8.79724V27.6421H10.3906V26.0488Z" fill="#CCCCCC"/>
    <path d="M10.3906 24.4551H8.79724V26.0484H10.3906V24.4551Z" fill="#333333"/>
    <path d="M4.01726 32.4219H2.42395V34.0152H4.01726V32.4219Z" fill="black"/>
    <path d="M4.01726 34.0151H2.42395V35.6084H4.01726V34.0151Z" fill="white"/>
    <path d="M5.61053 35.6094H4.01721V37.2027H5.61053V35.6094Z" fill="white"/>
    <path d="M4.01726 35.6094H2.42395V37.2027H4.01726V35.6094Z" fill="white"/>
    <path d="M2.42156 34.0142H0.828247V35.6075H2.42156V34.0142Z" fill="white"/>
    <path d="M2.42156 32.4219H0.828247V34.0152H2.42156V32.4219Z" fill="white"/>
    <path d="M2.42156 30.8311H0.828247V32.4244H2.42156V30.8311Z" fill="white"/>
    <path d="M2.42156 29.2358H0.828247V30.8292H2.42156V29.2358Z" fill="white"/>
    <path d="M4.01726 29.2358H2.42395V30.8292H4.01726V29.2358Z" fill="white"/>
    <path d="M4.01726 27.6421H2.42395V29.2354H4.01726V27.6421Z" fill="white"/>
    <path d="M5.61053 26.0488H4.01721V27.6421H5.61053V26.0488Z" fill="white"/>
    <path d="M5.61053 24.4551H4.01721V26.0484H5.61053V24.4551Z" fill="white"/>
    <path d="M7.20403 22.8628H5.61072V24.4561H7.20403V22.8628Z" fill="white"/>
    <path d="M7.20403 21.269H5.61072V22.8624H7.20403V21.269Z" fill="white"/>
    <path d="M7.20403 19.6758H5.61072V21.2691H7.20403V19.6758Z" fill="white"/>
    <path d="M8.79717 18.082H7.20386V19.6753H8.79717V18.082Z" fill="white"/>
    <path d="M7.20403 16.4893H5.61072V18.0826H7.20403V16.4893Z" fill="white"/>
    <path d="M7.20403 14.896H5.61072V16.4893H7.20403V14.896Z" fill="white"/>
    <path d="M8.79717 13.3027H7.20386V14.896H8.79717V13.3027Z" fill="white"/>
    <path d="M8.79717 11.7085H7.20386V13.3018H8.79717V11.7085Z" fill="white"/>
    <path d="M8.79717 10.1157H7.20386V11.709H8.79717V10.1157Z" fill="white"/>
    <path d="M8.79717 8.52295H7.20386V10.1163H8.79717V8.52295Z" fill="white"/>
    <path d="M8.79717 6.9292H7.20386V8.52251H8.79717V6.9292Z" fill="white"/>
    <path d="M8.79717 5.33545H7.20386V6.92876H8.79717V5.33545Z" fill="white"/>
    <path d="M10.3906 3.74219H8.79724V5.3355H10.3906V3.74219Z" fill="white"/>
    <path d="M11.9838 3.74219H10.3905V5.3355H11.9838V3.74219Z" fill="white"/>
    <path d="M13.5771 3.74219H11.9838V5.3355H13.5771V3.74219Z" fill="white"/>
    <path d="M15.1705 3.74219H13.5771V5.3355H15.1705V3.74219Z" fill="white"/>
    <path d="M16.7637 3.74219H15.1704V5.3355H16.7637V3.74219Z" fill="white"/>
    <path d="M18.3571 3.74219H16.7638V5.3355H18.3571V3.74219Z" fill="white"/>
    <path d="M19.9504 3.74219H18.3571V5.3355H19.9504V3.74219Z" fill="white"/>
    <path d="M21.5438 3.74219H19.9504V5.3355H21.5438V3.74219Z" fill="white"/>
    <path d="M23.1371 3.74219H21.5438V5.3355H23.1371V3.74219Z" fill="white"/>
    <path d="M24.7302 3.74219H23.1368V5.3355H24.7302V3.74219Z" fill="white"/>
    <path d="M26.3235 3.74219H24.7302V5.3355H26.3235V3.74219Z" fill="white"/>
    <path d="M27.9168 3.74219H26.3235V5.3355H27.9168V3.74219Z" fill="white"/>
    <path d="M29.5102 3.74219H27.9169V5.3355H29.5102V3.74219Z" fill="white"/>
    <path d="M31.1034 3.74219H29.5101V5.3355H31.1034V3.74219Z" fill="white"/>
    <path d="M32.6967 3.74219H31.1034V5.3355H32.6967V3.74219Z" fill="white"/>
    <path d="M34.2903 3.74219H32.697V5.3355H34.2903V3.74219Z" fill="white"/>
    <path d="M35.8836 5.33545H34.2903V6.92876H35.8836V5.33545Z" fill="white"/>
    <path d="M35.8836 6.9292H34.2903V8.52251H35.8836V6.9292Z" fill="white"/>
    <path d="M35.8836 8.52295H34.2903V10.1163H35.8836V8.52295Z" fill="white"/>
    <path d="M35.8836 10.1157H34.2903V11.709H35.8836V10.1157Z" fill="white"/>
    <path d="M35.8836 11.7085H34.2903V13.3018H35.8836V11.7085Z" fill="white"/>
    <path d="M35.8836 13.3027H34.2903V14.896H35.8836V13.3027Z" fill="white"/>
    <path d="M37.4767 14.896H35.8834V16.4893H37.4767V14.896Z" fill="white"/>
    <path d="M37.4767 16.4893H35.8834V18.0826H37.4767V16.4893Z" fill="white"/>
    <path d="M35.8836 18.082H34.2903V19.6753H35.8836V18.082Z" fill="white"/>
    <path d="M37.4767 19.6758H35.8834V21.2691H37.4767V19.6758Z" fill="white"/>
    <path d="M37.4767 21.269H35.8834V22.8624H37.4767V21.269Z" fill="white"/>
    <path d="M37.4767 22.8628H35.8834V24.4561H37.4767V22.8628Z" fill="white"/>
    <path d="M39.0701 24.4551H37.4768V26.0484H39.0701V24.4551Z" fill="white"/>
    <path d="M39.0701 26.0488H37.4768V27.6421H39.0701V26.0488Z" fill="white"/>
    <path d="M40.6634 27.6421H39.0701V29.2354H40.6634V27.6421Z" fill="white"/>
    <path d="M40.6634 29.2358H39.0701V30.8292H40.6634V29.2358Z" fill="white"/>
    <path d="M42.2568 29.2358H40.6635V30.8292H42.2568V29.2358Z" fill="white"/>
    <path d="M42.2568 30.8291H40.6635V32.4224H42.2568V30.8291Z" fill="white"/>
    <path d="M42.2568 32.4219H40.6635V34.0152H42.2568V32.4219Z" fill="white"/>
    <path d="M42.2568 34.0151H40.6635V35.6084H42.2568V34.0151Z" fill="white"/>
    <path d="M40.6634 34.0151H39.0701V35.6084H40.6634V34.0151Z" fill="white"/>
    <path d="M40.6634 35.6094H39.0701V37.2027H40.6634V35.6094Z" fill="white"/>
    <path d="M39.0701 35.6094H37.4768V37.2027H39.0701V35.6094Z" fill="white"/>
    <path d="M37.4767 35.6094H35.8834V37.2027H37.4767V35.6094Z" fill="white"/>
    <path d="M35.8836 35.6094H34.2903V37.2027H35.8836V35.6094Z" fill="white"/>
    <path d="M34.2903 35.6094H32.697V37.2027H34.2903V35.6094Z" fill="white"/>
    <path d="M32.6967 35.6094H31.1034V37.2027H32.6967V35.6094Z" fill="white"/>
    <path d="M31.1034 35.6094H29.5101V37.2027H31.1034V35.6094Z" fill="white"/>
    <path d="M29.5102 35.6094H27.9169V37.2027H29.5102V35.6094Z" fill="white"/>
    <path d="M27.9168 35.6094H26.3235V37.2027H27.9168V35.6094Z" fill="white"/>
    <path d="M26.3235 35.6094H24.7302V37.2027H26.3235V35.6094Z" fill="white"/>
    <path d="M24.7302 35.6094H23.1368V37.2027H24.7302V35.6094Z" fill="white"/>
    <path d="M23.1371 35.6094H21.5438V37.2027H23.1371V35.6094Z" fill="white"/>
    <path d="M21.5438 35.6094H19.9504V37.2027H21.5438V35.6094Z" fill="white"/>
    <path d="M19.9504 35.6094H18.3571V37.2027H19.9504V35.6094Z" fill="white"/>
    <path d="M18.3571 35.6094H16.7638V37.2027H18.3571V35.6094Z" fill="white"/>
    <path d="M16.7637 35.6094H15.1704V37.2027H16.7637V35.6094Z" fill="white"/>
    <path d="M15.1705 35.6094H13.5771V37.2027H15.1705V35.6094Z" fill="white"/>
    <path d="M13.5771 35.6094H11.9838V37.2027H13.5771V35.6094Z" fill="white"/>
    <path d="M11.9838 35.6094H10.3905V37.2027H11.9838V35.6094Z" fill="white"/>
    <path d="M10.3906 35.6094H8.79724V37.2027H10.3906V35.6094Z" fill="white"/>
    <path d="M8.79717 35.6094H7.20386V37.2027H8.79717V35.6094Z" fill="white"/>
    <path d="M7.20403 35.6094H5.61072V37.2027H7.20403V35.6094Z" fill="white"/>
    <path d="M4.01726 30.8291H2.42395V32.4224H4.01726V30.8291Z" fill="black"/>
    <path d="M5.61053 29.2358H4.01721V30.8292H5.61053V29.2358Z" fill="black"/>
    <path d="M5.61053 27.6421H4.01721V29.2354H5.61053V27.6421Z" fill="black"/>
    <path d="M7.20403 26.0488H5.61072V27.6421H7.20403V26.0488Z" fill="black"/>
    <path d="M7.20403 24.4551H5.61072V26.0484H7.20403V24.4551Z" fill="black"/>
    <path d="M5.61053 32.4219H4.01721V34.0152H5.61053V32.4219Z" fill="#808080"/>
    <path d="M5.61053 30.8291H4.01721V32.4224H5.61053V30.8291Z" fill="#808080"/>
    <path d="M7.20403 29.2358H5.61072V30.8292H7.20403V29.2358Z" fill="#808080"/>
    <path d="M7.20403 27.6421H5.61072V29.2354H7.20403V27.6421Z" fill="#808080"/>
    <path d="M8.79717 26.0488H7.20386V27.6421H8.79717V26.0488Z" fill="#808080"/>
    <path d="M8.79717 24.4551H7.20386V26.0484H8.79717V24.4551Z" fill="#808080"/>
    <path d="M10.3906 22.8628H8.79724V24.4561H10.3906V22.8628Z" fill="#808080"/>
    <path d="M10.3906 21.269H8.79724V22.8624H10.3906V21.269Z" fill="#808080"/>
    <path d="M10.3906 19.6758H8.79724V21.2691H10.3906V19.6758Z" fill="#808080"/>
    <path d="M10.3906 14.896H8.79724V16.4893H10.3906V14.896Z" fill="#808080"/>
    <path d="M11.9838 14.896H10.3905V16.4893H11.9838V14.896Z" fill="#808080"/>
    <path d="M13.5771 14.896H11.9838V16.4893H13.5771V14.896Z" fill="#808080"/>
    <path d="M15.1705 14.896H13.5771V16.4893H15.1705V14.896Z" fill="#808080"/>
    <path d="M16.7637 14.896H15.1704V16.4893H16.7637V14.896Z" fill="#808080"/>
    <path d="M18.3571 14.896H16.7638V16.4893H18.3571V14.896Z" fill="#808080"/>
    <path d="M19.9504 14.896H18.3571V16.4893H19.9504V14.896Z" fill="#808080"/>
    <path d="M21.5438 14.896H19.9504V16.4893H21.5438V14.896Z" fill="#808080"/>
    <path d="M23.1371 14.896H21.5438V16.4893H23.1371V14.896Z" fill="#808080"/>
    <path d="M24.7302 14.896H23.1368V16.4893H24.7302V14.896Z" fill="#808080"/>
    <path d="M26.3235 14.896H24.7302V16.4893H26.3235V14.896Z" fill="#808080"/>
    <path d="M27.9168 14.896H26.3235V16.4893H27.9168V14.896Z" fill="#808080"/>
    <path d="M29.5102 14.896H27.9169V16.4893H29.5102V14.896Z" fill="#808080"/>
    <path d="M31.1034 14.896H29.5101V16.4893H31.1034V14.896Z" fill="#808080"/>
    <path d="M32.6967 14.896H31.1034V16.4893H32.6967V14.896Z" fill="#808080"/>
    <path d="M34.2903 14.896H32.697V16.4893H34.2903V14.896Z" fill="#808080"/>
    <path d="M34.2903 16.4893H32.697V18.0826H34.2903V16.4893Z" fill="#4D4D4D"/>
    <path d="M32.6967 16.4893H31.1034V18.0826H32.6967V16.4893Z" fill="#4D4D4D"/>
    <path d="M31.1034 16.4893H29.5101V18.0826H31.1034V16.4893Z" fill="#4D4D4D"/>
    <path d="M29.5102 16.4893H27.9169V18.0826H29.5102V16.4893Z" fill="#4D4D4D"/>
    <path d="M27.9168 16.4893H26.3235V18.0826H27.9168V16.4893Z" fill="#4D4D4D"/>
    <path d="M26.3235 16.4893H24.7302V18.0826H26.3235V16.4893Z" fill="#4D4D4D"/>
    <path d="M24.7302 16.4893H23.1368V18.0826H24.7302V16.4893Z" fill="#4D4D4D"/>
    <path d="M23.1371 16.4893H21.5438V18.0826H23.1371V16.4893Z" fill="#4D4D4D"/>
    <path d="M21.5438 16.4893H19.9504V18.0826H21.5438V16.4893Z" fill="#4D4D4D"/>
    <path d="M19.9504 16.4893H18.3571V18.0826H19.9504V16.4893Z" fill="#4D4D4D"/>
    <path d="M18.3571 16.4893H16.7638V18.0826H18.3571V16.4893Z" fill="#4D4D4D"/>
    <path d="M16.7637 16.4893H15.1704V18.0826H16.7637V16.4893Z" fill="#4D4D4D"/>
    <path d="M15.1705 16.4893H13.5771V18.0826H15.1705V16.4893Z" fill="#4D4D4D"/>
    <path d="M13.5771 16.4893H11.9838V18.0826H13.5771V16.4893Z" fill="#4D4D4D"/>
    <path d="M11.9838 16.4893H10.3905V18.0826H11.9838V16.4893Z" fill="#4D4D4D"/>
    <path d="M10.3906 16.4893H8.79724V18.0826H10.3906V16.4893Z" fill="#4D4D4D"/>
    <path d="M11.9838 19.6758H10.3905V21.2691H11.9838V19.6758Z" fill="#808080"/>
    <path d="M13.5771 19.6758H11.9838V21.2691H13.5771V19.6758Z" fill="#808080"/>
    <path d="M15.1705 19.6758H13.5771V21.2691H15.1705V19.6758Z" fill="#808080"/>
    <path d="M16.7637 19.6758H15.1704V21.2691H16.7637V19.6758Z" fill="#808080"/>
    <path d="M18.3571 19.6758H16.7638V21.2691H18.3571V19.6758Z" fill="#808080"/>
    <path d="M19.9504 19.6758H18.3571V21.2691H19.9504V19.6758Z" fill="#808080"/>
    <path d="M21.5438 19.6758H19.9504V21.2691H21.5438V19.6758Z" fill="#808080"/>
    <path d="M23.1371 19.6758H21.5438V21.2691H23.1371V19.6758Z" fill="#808080"/>
    <path d="M24.7302 19.6758H23.1368V21.2691H24.7302V19.6758Z" fill="#808080"/>
    <path d="M26.3235 19.6758H24.7302V21.2691H26.3235V19.6758Z" fill="#808080"/>
    <path d="M27.9168 19.6758H26.3235V21.2691H27.9168V19.6758Z" fill="#808080"/>
    <path d="M29.5102 19.6758H27.9169V21.2691H29.5102V19.6758Z" fill="#808080"/>
    <path d="M31.1034 19.6758H29.5101V21.2691H31.1034V19.6758Z" fill="#808080"/>
    <path d="M32.6967 19.6758H31.1034V21.2691H32.6967V19.6758Z" fill="#808080"/>
    <path d="M34.2903 19.6758H32.697V21.2691H34.2903V19.6758Z" fill="#808080"/>
    <path d="M8.79717 22.8628H7.20386V24.4561H8.79717V22.8628Z" fill="black"/>
    <path d="M8.79717 21.269H7.20386V22.8624H8.79717V21.269Z" fill="black"/>
    <path d="M8.79717 19.6758H7.20386V21.2691H8.79717V19.6758Z" fill="black"/>
    <path d="M35.8836 22.8628H34.2903V24.4561H35.8836V22.8628Z" fill="black"/>
    <path d="M35.8836 21.269H34.2903V22.8624H35.8836V21.269Z" fill="black"/>
    <path d="M35.8836 19.6758H34.2903V21.2691H35.8836V19.6758Z" fill="black"/>
    <path d="M34.2903 18.082H32.697V19.6753H34.2903V18.082Z" fill="black"/>
    <path d="M35.8836 16.4893H34.2903V18.0826H35.8836V16.4893Z" fill="black"/>
    <path d="M35.8836 14.896H34.2903V16.4893H35.8836V14.896Z" fill="black"/>
    <path d="M34.2903 13.3027H32.697V14.896H34.2903V13.3027Z" fill="black"/>
    <path d="M34.2903 11.7085H32.697V13.3018H34.2903V11.7085Z" fill="black"/>
    <path d="M32.6967 18.082H31.1034V19.6753H32.6967V18.082Z" fill="black"/>
    <path d="M31.1034 18.082H29.5101V19.6753H31.1034V18.082Z" fill="black"/>
    <path d="M29.5102 18.082H27.9169V19.6753H29.5102V18.082Z" fill="black"/>
    <path d="M27.9168 18.082H26.3235V19.6753H27.9168V18.082Z" fill="black"/>
    <path d="M26.3235 18.082H24.7302V19.6753H26.3235V18.082Z" fill="black"/>
    <path d="M24.7302 18.082H23.1368V19.6753H24.7302V18.082Z" fill="black"/>
    <path d="M23.1371 18.082H21.5438V19.6753H23.1371V18.082Z" fill="black"/>
    <path d="M21.5438 18.082H19.9504V19.6753H21.5438V18.082Z" fill="black"/>
    <path d="M19.9504 18.082H18.3571V19.6753H19.9504V18.082Z" fill="black"/>
    <path d="M18.3571 18.082H16.7638V19.6753H18.3571V18.082Z" fill="black"/>
    <path d="M16.7637 18.082H15.1704V19.6753H16.7637V18.082Z" fill="black"/>
    <path d="M15.1705 18.082H13.5771V19.6753H15.1705V18.082Z" fill="black"/>
    <path d="M13.5771 18.082H11.9838V19.6753H13.5771V18.082Z" fill="black"/>
    <path d="M11.9838 18.082H10.3905V19.6753H11.9838V18.082Z" fill="black"/>
    <path d="M10.3906 18.082H8.79724V19.6753H10.3906V18.082Z" fill="black"/>
    <path d="M8.79717 16.4893H7.20386V18.0826H8.79717V16.4893Z" fill="black"/>
    <path d="M8.79717 14.896H7.20386V16.4893H8.79717V14.896Z" fill="black"/>
    <path d="M10.3906 13.3027H8.79724V14.896H10.3906V13.3027Z" fill="black"/>
    <path d="M11.9838 13.3027H10.3905V14.896H11.9838V13.3027Z" fill="#C9CFDF"/>
    <path d="M13.5771 13.3027H11.9838V14.896H13.5771V13.3027Z" fill="#C9CFDF"/>
    <path d="M15.1705 13.3027H13.5771V14.896H15.1705V13.3027Z" fill="#C9CFDF"/>
    <path d="M16.7637 13.3027H15.1704V14.896H16.7637V13.3027Z" fill="#C9CFDF"/>
    <path d="M18.3571 13.3027H16.7638V14.896H18.3571V13.3027Z" fill="#C9CFDF"/>
    <path d="M19.9504 13.3027H18.3571V14.896H19.9504V13.3027Z" fill="#C9CFDF"/>
    <path d="M21.5438 13.3027H19.9504V14.896H21.5438V13.3027Z" fill="#C9CFDF"/>
    <path d="M23.1371 13.3027H21.5438V14.896H23.1371V13.3027Z" fill="#C9CFDF"/>
    <path d="M24.7302 13.3027H23.1368V14.896H24.7302V13.3027Z" fill="#C9CFDF"/>
    <path d="M26.3235 13.3027H24.7302V14.896H26.3235V13.3027Z" fill="#C9CFDF"/>
    <path d="M27.9168 13.3027H26.3235V14.896H27.9168V13.3027Z" fill="#C9CFDF"/>
    <path d="M29.5102 13.3027H27.9169V14.896H29.5102V13.3027Z" fill="#C9CFDF"/>
    <path d="M31.1034 13.3027H29.5101V14.896H31.1034V13.3027Z" fill="#C9CFDF"/>
    <path d="M32.6967 13.3027H31.1034V14.896H32.6967V13.3027Z" fill="#C9CFDF"/>
    <path d="M11.9838 11.7085H10.3905V13.3018H11.9838V11.7085Z" fill="#DDE4EE"/>
    <path d="M13.5771 11.7085H11.9838V13.3018H13.5771V11.7085Z" fill="black"/>
    <path d="M15.1705 11.7085H13.5771V13.3018H15.1705V11.7085Z" fill="black"/>
    <path d="M16.7637 11.7085H15.1704V13.3018H16.7637V11.7085Z" fill="black"/>
    <path d="M18.3571 11.7085H16.7638V13.3018H18.3571V11.7085Z" fill="#DDE4EE"/>
    <path d="M19.9504 11.7085H18.3571V13.3018H19.9504V11.7085Z" fill="black"/>
    <path d="M21.5438 11.7085H19.9504V13.3018H21.5438V11.7085Z" fill="black"/>
    <path d="M23.1371 11.7085H21.5438V13.3018H23.1371V11.7085Z" fill="black"/>
    <path d="M24.7302 11.7085H23.1368V13.3018H24.7302V11.7085Z" fill="#DDE4EE"/>
    <path d="M26.3235 11.7085H24.7302V13.3018H26.3235V11.7085Z" fill="black"/>
    <path d="M27.9168 11.7085H26.3235V13.3018H27.9168V11.7085Z" fill="#DDE4EE"/>
    <path d="M29.5102 11.7085H27.9169V13.3018H29.5102V11.7085Z" fill="black"/>
    <path d="M31.1034 11.7085H29.5101V13.3018H31.1034V11.7085Z" fill="black"/>
    <path d="M32.6967 11.7085H31.1034V13.3018H32.6967V11.7085Z" fill="#DDE4EE"/>
    <path d="M11.9838 10.1157H10.3905V11.709H11.9838V10.1157Z" fill="#F1F2F7"/>
    <path d="M13.5771 10.1157H11.9838V11.709H13.5771V10.1157Z" fill="#F1F2F7"/>
    <path d="M15.1705 10.1157H13.5771V11.709H15.1705V10.1157Z" fill="#F1F2F7"/>
    <path d="M16.7637 10.1157H15.1704V11.709H16.7637V10.1157Z" fill="#F1F2F7"/>
    <path d="M18.3571 10.1157H16.7638V11.709H18.3571V10.1157Z" fill="#F1F2F7"/>
    <path d="M19.9504 10.1157H18.3571V11.709H19.9504V10.1157Z" fill="#F1F2F7"/>
    <path d="M21.5438 10.1157H19.9504V11.709H21.5438V10.1157Z" fill="#F1F2F7"/>
    <path d="M23.1371 10.1157H21.5438V11.709H23.1371V10.1157Z" fill="#F1F2F7"/>
    <path d="M24.7302 10.1157H23.1368V11.709H24.7302V10.1157Z" fill="#F1F2F7"/>
    <path d="M26.3235 10.1157H24.7302V11.709H26.3235V10.1157Z" fill="#F1F2F7"/>
    <path d="M27.9168 10.1157H26.3235V11.709H27.9168V10.1157Z" fill="#F1F2F7"/>
    <path d="M29.5102 10.1157H27.9169V11.709H29.5102V10.1157Z" fill="#F1F2F7"/>
    <path d="M31.1034 10.1157H29.5101V11.709H31.1034V10.1157Z" fill="#F1F2F7"/>
    <path d="M32.6967 10.1157H31.1034V11.709H32.6967V10.1157Z" fill="#F1F2F7"/>
    <path d="M11.9838 8.52295H10.3905V10.1163H11.9838V8.52295Z" fill="#F1F2F7"/>
    <path d="M13.5771 8.52295H11.9838V10.1163H13.5771V8.52295Z" fill="black"/>
    <path d="M15.1705 8.52295H13.5771V10.1163H15.1705V8.52295Z" fill="black"/>
    <path d="M16.7637 8.52295H15.1704V10.1163H16.7637V8.52295Z" fill="black"/>
    <path d="M18.3571 8.52295H16.7638V10.1163H18.3571V8.52295Z" fill="black"/>
    <path d="M19.9504 8.52295H18.3571V10.1163H19.9504V8.52295Z" fill="black"/>
    <path d="M21.5438 8.52295H19.9504V10.1163H21.5438V8.52295Z" fill="black"/>
    <path d="M23.1371 8.52295H21.5438V10.1163H23.1371V8.52295Z" fill="black"/>
    <path d="M24.7302 8.52295H23.1368V10.1163H24.7302V8.52295Z" fill="#F1F2F7"/>
    <path d="M26.3235 8.52295H24.7302V10.1163H26.3235V8.52295Z" fill="black"/>
    <path d="M27.9168 8.52295H26.3235V10.1163H27.9168V8.52295Z" fill="#F1F2F7"/>
    <path d="M29.5102 8.52295H27.9169V10.1163H29.5102V8.52295Z" fill="#F1F2F7"/>
    <path d="M31.1034 8.52295H29.5101V10.1163H31.1034V8.52295Z" fill="#F1F2F7"/>
    <path d="M32.6967 8.52295H31.1034V10.1163H32.6967V8.52295Z" fill="#F1F2F7"/>
    <path d="M11.9838 6.9292H10.3905V8.52251H11.9838V6.9292Z" fill="#F1F2F7"/>
    <path d="M13.5771 6.9292H11.9838V8.52251H13.5771V6.9292Z" fill="#F1F2F7"/>
    <path d="M15.1705 6.9292H13.5771V8.52251H15.1705V6.9292Z" fill="#F1F2F7"/>
    <path d="M16.7637 6.9292H15.1704V8.52251H16.7637V6.9292Z" fill="#F1F2F7"/>
    <path d="M18.3571 6.9292H16.7638V8.52251H18.3571V6.9292Z" fill="#F1F2F7"/>
    <path d="M19.9504 6.9292H18.3571V8.52251H19.9504V6.9292Z" fill="#F1F2F7"/>
    <path d="M21.5438 6.9292H19.9504V8.52251H21.5438V6.9292Z" fill="#F1F2F7"/>
    <path d="M23.1371 6.9292H21.5438V8.52251H23.1371V6.9292Z" fill="#F1F2F7"/>
    <path d="M24.7302 6.9292H23.1368V8.52251H24.7302V6.9292Z" fill="#F1F2F7"/>
    <path d="M26.3235 6.9292H24.7302V8.52251H26.3235V6.9292Z" fill="#F1F2F7"/>
    <path d="M27.9168 6.9292H26.3235V8.52251H27.9168V6.9292Z" fill="#F1F2F7"/>
    <path d="M29.5102 6.9292H27.9169V8.52251H29.5102V6.9292Z" fill="#F1F2F7"/>
    <path d="M31.1034 6.9292H29.5101V8.52251H31.1034V6.9292Z" fill="#F1F2F7"/>
    <path d="M32.6967 6.9292H31.1034V8.52251H32.6967V6.9292Z" fill="#F1F2F7"/>
    <path d="M10.3906 11.7085H8.79724V13.3018H10.3906V11.7085Z" fill="black"/>
    <path d="M34.2903 10.1157H32.697V11.709H34.2903V10.1157Z" fill="black"/>
    <path d="M10.3906 10.1157H8.79724V11.709H10.3906V10.1157Z" fill="black"/>
    <path d="M34.2903 8.52295H32.697V10.1163H34.2903V8.52295Z" fill="black"/>
    <path d="M10.3906 8.52295H8.79724V10.1163H10.3906V8.52295Z" fill="black"/>
    <path d="M34.2903 6.9292H32.697V8.52251H34.2903V6.9292Z" fill="black"/>
    <path d="M10.3906 6.9292H8.79724V8.52251H10.3906V6.9292Z" fill="black"/>
    <path d="M34.2903 5.33545H32.697V6.92876H34.2903V5.33545Z" fill="black"/>
    <path d="M32.6967 5.33545H31.1034V6.92876H32.6967V5.33545Z" fill="black"/>
    <path d="M31.1034 5.33545H29.5101V6.92876H31.1034V5.33545Z" fill="black"/>
    <path d="M29.5102 5.33545H27.9169V6.92876H29.5102V5.33545Z" fill="black"/>
    <path d="M27.9168 5.33545H26.3235V6.92876H27.9168V5.33545Z" fill="black"/>
    <path d="M26.3235 5.33545H24.7302V6.92876H26.3235V5.33545Z" fill="black"/>
    <path d="M24.7302 5.33545H23.1368V6.92876H24.7302V5.33545Z" fill="black"/>
    <path d="M23.1371 5.33545H21.5438V6.92876H23.1371V5.33545Z" fill="black"/>
    <path d="M21.5438 5.33545H19.9504V6.92876H21.5438V5.33545Z" fill="black"/>
    <path d="M19.9504 5.33545H18.3571V6.92876H19.9504V5.33545Z" fill="black"/>
    <path d="M18.3571 5.33545H16.7638V6.92876H18.3571V5.33545Z" fill="black"/>
    <path d="M16.7637 5.33545H15.1704V6.92876H16.7637V5.33545Z" fill="black"/>
    <path d="M15.1705 5.33545H13.5771V6.92876H15.1705V5.33545Z" fill="black"/>
    <path d="M13.5771 5.33545H11.9838V6.92876H13.5771V5.33545Z" fill="black"/>
    <path d="M11.9838 5.33545H10.3905V6.92876H11.9838V5.33545Z" fill="black"/>
    <path d="M10.3906 5.33545H8.79724V6.92876H10.3906V5.33545Z" fill="black"/>
</svg>
