<svg width="60" height="60" viewBox="0 0 60 60" fill="none" xmlns="http://www.w3.org/2000/svg">
    <path d="M6.66656 26.667H3.33323V50.0003H6.66656V26.667Z" fill="white"/>
    <path d="M3.33333 50.0005H0V56.6672H3.33333V50.0005Z" fill="white"/>
    <path d="M3.33333 23.3335H0V26.6668H3.33333V23.3335Z" fill="white"/>
    <path d="M3.33333 26.667H0V30.0003H3.33333V26.667Z" fill="white"/>
    <path d="M3.33333 56.6665H0V59.9998H3.33333V56.6665Z" fill="white"/>
    <path d="M60 56.6665H56.6666V59.9998H60V56.6665Z" fill="white"/>
    <path d="M60 46.6665H56.6666V49.9998H60V46.6665Z" fill="white"/>
    <path d="M3.33333 46.6665H0V49.9998H3.33333V46.6665Z" fill="white"/>
    <path d="M60 26.667H56.6666V30.0003H60V26.667Z" fill="white"/>
    <path d="M6.66656 19.9995H3.33323V23.3328H6.66656V19.9995Z" fill="white"/>
    <path d="M9.99994 16.6665H6.6666V19.9998H9.99994V16.6665Z" fill="white"/>
    <path d="M13.3333 13.3335H9.99998V16.6668H13.3333V13.3335Z" fill="white"/>
    <path d="M16.6666 10.0005H13.3333V13.3338H16.6666V10.0005Z" fill="white"/>
    <path d="M20 6.66699H16.6667V10.0003H20V6.66699Z" fill="white"/>
    <path d="M23.3333 3.33301H20V6.66634H23.3333V3.33301Z" fill="white"/>
    <path d="M40 3.33301H36.6666V6.66634H40V3.33301Z" fill="white"/>
    <path d="M43.3333 6.66699H39.9999V10.0003H43.3333V6.66699Z" fill="white"/>
    <path d="M46.6666 10.0005H43.3333V13.3338H46.6666V10.0005Z" fill="white"/>
    <path d="M49.9999 13.3335H46.6666V16.6668H49.9999V13.3335Z" fill="white"/>
    <path d="M53.3333 16.6665H50V19.9998H53.3333V16.6665Z" fill="white"/>
    <path d="M56.6666 19.9995H53.3333V23.3328H56.6666V19.9995Z" fill="white"/>
    <path d="M60 23.3335H56.6666V26.6668H60V23.3335Z" fill="white"/>
    <path d="M56.6666 56.6665H3.33323V59.9998H56.6666V56.6665Z" fill="white"/>
    <path d="M60 50.0005H56.6666V56.6672H60V50.0005Z" fill="white"/>
    <path d="M56.6666 26.667H53.3333V50.0003H56.6666V26.667Z" fill="white"/>
    <path d="M36.6667 0H23.3333V3.33333H36.6667V0Z" fill="white"/>
    <path d="M10 26.667H6.66668V30.0003H10V26.667Z" fill="black"/>
    <path d="M53.3333 26.667H50V30.0003H53.3333V26.667Z" fill="black"/>
    <path d="M10 30H6.66668V46.6667H10V30Z" fill="black"/>
    <path d="M53.3333 30H50V46.6667H53.3333V30Z" fill="black"/>
    <path d="M6.66671 50.0005H3.33337V53.3338H6.66671V50.0005Z" fill="black"/>
    <path d="M56.6667 50.0005H53.3333V53.3338H56.6667V50.0005Z" fill="black"/>
    <path d="M50 16.6665H46.6667V19.9998H50V16.6665Z" fill="black"/>
    <path d="M46.6667 13.3335H43.3334V16.6668H46.6667V13.3335Z" fill="black"/>
    <path d="M43.3333 10.0005H40V13.3338H43.3333V10.0005Z" fill="black"/>
    <path d="M40 6.66699H36.6667V10.0003H40V6.66699Z" fill="black"/>
    <path d="M36.6667 3.33301H23.3333V6.66634H36.6667V3.33301Z" fill="black"/>
    <path d="M13.3333 16.6665H9.99998V19.9998H13.3333V16.6665Z" fill="black"/>
    <path d="M16.6667 13.3335H13.3334V16.6668H16.6667V13.3335Z" fill="black"/>
    <path d="M20 10.0005H16.6667V13.3338H20V10.0005Z" fill="black"/>
    <path d="M23.3334 6.66699H20V10.0003H23.3334V6.66699Z" fill="black"/>
    <path d="M53.3333 23.3335H16.6667V26.6668H53.3333V23.3335Z" fill="#D95C17"/>
    <path d="M46.6667 16.6665H23.3333V19.9998H46.6667V16.6665Z" fill="#D95C17"/>
    <path d="M43.3333 13.3335H26.6666V16.6668H43.3333V13.3335Z" fill="#D95C17"/>
    <path d="M40 10.0005H30V13.3338H40V10.0005Z" fill="#D95C17"/>
    <path d="M36.6666 6.66699H33.3333V10.0003H36.6666V6.66699Z" fill="#D95C17"/>
    <path d="M56.6667 23.3335H53.3333V26.6668H56.6667V23.3335Z" fill="black"/>
    <path d="M6.66671 23.3335H3.33337V26.6668H6.66671V23.3335Z" fill="black"/>
    <path d="M10 19.9995H6.66668V23.3328H10V19.9995Z" fill="black"/>
    <path d="M53.3333 19.9995H50V23.3328H53.3333V19.9995Z" fill="black"/>
    <path d="M50 19.9995H20V23.3328H50V19.9995Z" fill="#D95C17"/>
    <path d="M20 26.667H9.99998V46.667H20V26.667Z" fill="#D98100"/>
    <path d="M10 46.6665H6.66668V49.9998H10V46.6665Z" fill="black"/>
    <path d="M53.3333 46.6665H50V49.9998H53.3333V46.6665Z" fill="black"/>
    <path d="M50 46.6665H9.99998V49.9998H50V46.6665Z" fill="#B3B3B3"/>
    <path d="M50 26.667H20V46.667H50V26.667Z" fill="#FFA219"/>
    <path d="M56.6667 53.3335H3.33337V56.6668H56.6667V53.3335Z" fill="black"/>
    <path d="M53.3333 50.0005H6.66668V53.3338H53.3333V50.0005Z" fill="#808080"/>
    <path d="M50 26.667H46.6667V46.667H50V26.667Z" fill="#FFBF66"/>
    <path d="M53.3333 23.3335H50V26.6668H53.3333V23.3335Z" fill="#FF8000"/>
    <path d="M50 19.9995H46.6667V23.3328H50V19.9995Z" fill="#FF8000"/>
    <path d="M46.6667 16.6665H43.3334V19.9998H46.6667V16.6665Z" fill="#FF8000"/>
    <path d="M43.3333 13.3335H40V16.6668H43.3333V13.3335Z" fill="#FF8000"/>
    <path d="M40 10.0005H36.6667V13.3338H40V10.0005Z" fill="#FF8000"/>
    <path d="M36.6666 6.66699H33.3333V10.0003H36.6666V6.66699Z" fill="#FF8000"/>
    <path d="M20 23.3335H6.66668V26.6668H20V23.3335Z" fill="#BF4400"/>
    <path d="M26.6667 16.6665H13.3334V19.9998H26.6667V16.6665Z" fill="#BF4400"/>
    <path d="M30 13.3335H16.6667V16.6668H30V13.3335Z" fill="#BF4400"/>
    <path d="M33.3334 10.0005H20V13.3338H33.3334V10.0005Z" fill="#BF4400"/>
    <path d="M36.6667 6.66699H23.3333V10.0003H36.6667V6.66699Z" fill="#BF4400"/>
    <path d="M23.3333 19.9995H9.99998V23.3328H23.3333V19.9995Z" fill="#BF4400"/>
    <path d="M40 33.333H30V46.6663H40V33.333Z" fill="#D95C17"/>
    <path d="M16.6667 33.333H13.3334V43.333H16.6667V33.333Z" fill="#BF4400"/>
    <path d="M33.3333 33.333H30V46.6663H33.3333V33.333Z" fill="#BF4400"/>
</svg>
