<svg width="70" height="70" viewBox="0 0 70 70" fill="none" xmlns="http://www.w3.org/2000/svg">
    <g clip-path="url(#clip0_1976_10236)">
        <path d="M4.80019 4.80029H2.40009V7.20039H4.80019V4.80029Z" fill="black"/>
        <path d="M36.0026 4.80029H33.6025V7.20039H36.0026V4.80029Z" fill="black"/>
        <path d="M4.80019 7.2002H2.40009V9.60029H4.80019V7.2002Z" fill="black"/>
        <path d="M36.0026 7.2002H33.6025V9.60029H36.0026V7.2002Z" fill="black"/>
        <path d="M4.80019 9.60059H2.40009V12.0007H4.80019V9.60059Z" fill="black"/>
        <path d="M36.0026 9.60059H33.6025V12.0007H36.0026V9.60059Z" fill="black"/>
        <path d="M4.80019 12.0005H2.40009V14.4006H4.80019V12.0005Z" fill="black"/>
        <path d="M36.0026 12.0005H33.6025V14.4006H36.0026V12.0005Z" fill="black"/>
        <path d="M4.80019 14.4004H2.40009V16.8005H4.80019V14.4004Z" fill="black"/>
        <path d="M36.0026 14.4004H33.6025V16.8005H36.0026V14.4004Z" fill="black"/>
        <path d="M4.80019 16.8008H2.40009V19.2009H4.80019V16.8008Z" fill="black"/>
        <path d="M36.0026 16.8008H33.6025V19.2009H36.0026V16.8008Z" fill="black"/>
        <path d="M4.80019 19.2007H2.40009V21.6008H4.80019V19.2007Z" fill="black"/>
        <path d="M36.0026 19.2007H33.6025V21.6008H36.0026V19.2007Z" fill="black"/>
        <path d="M4.80019 21.6011H2.40009V24.0012H4.80019V21.6011Z" fill="black"/>
        <path d="M36.0026 21.6011H33.6025V24.0012H36.0026V21.6011Z" fill="black"/>
        <path d="M4.80019 24.001H2.40009V26.4011H4.80019V24.001Z" fill="black"/>
        <path d="M36.0026 24.001H33.6025V26.4011H36.0026V24.001Z" fill="black"/>
        <path d="M4.80019 26.4009H2.40009V28.801H4.80019V26.4009Z" fill="black"/>
        <path d="M36.0026 26.4009H33.6025V28.801H36.0026V26.4009Z" fill="black"/>
        <path d="M4.80019 28.8013H2.40009V31.2014H4.80019V28.8013Z" fill="black"/>
        <path d="M36.0026 28.8013H33.6025V31.2014H36.0026V28.8013Z" fill="black"/>
        <path d="M4.80019 31.2012H2.40009V33.6013H4.80019V31.2012Z" fill="black"/>
        <path d="M7.20149 33.6016H4.80139V36.0017H7.20149V33.6016Z" fill="black"/>
        <path d="M9.60158 33.6016H7.20148V36.0017H9.60158V33.6016Z" fill="black"/>
        <path d="M12.0017 33.6016H9.60159V36.0017H12.0017V33.6016Z" fill="black"/>
        <path d="M12.0017 36.0015H9.60159V38.4016H12.0017V36.0015Z" fill="black"/>
        <path d="M12.0017 38.4014H9.60159V40.8015H12.0017V38.4014Z" fill="black"/>
        <path d="M12.0017 40.8018H9.60159V43.2019H12.0017V40.8018Z" fill="black"/>
        <path d="M14.4018 40.8018H12.0017V43.2019H14.4018V40.8018Z" fill="black"/>
        <path d="M16.8019 38.4014H14.4018V40.8015H16.8019V38.4014Z" fill="black"/>
        <path d="M19.2008 36.0015H16.8007V38.4016H19.2008V36.0015Z" fill="black"/>
        <path d="M21.6033 33.6016H19.2032V36.0017H21.6033V33.6016Z" fill="black"/>
        <path d="M24.0022 33.6016H21.6021V36.0017H24.0022V33.6016Z" fill="black"/>
        <path d="M26.4011 33.6016H24.001V36.0017H26.4011V33.6016Z" fill="black"/>
        <path d="M26.4011 36.0015H24.001V38.4016H26.4011V36.0015Z" fill="black"/>
        <path d="M28.8 38.4014H26.3999V40.8015H28.8V38.4014Z" fill="black"/>
        <path d="M31.1988 38.4014H28.7988V40.8015H31.1988V38.4014Z" fill="black"/>
        <path d="M33.5977 38.4014H31.1976V40.8015H33.5977V38.4014Z" fill="black"/>
        <path d="M35.9966 38.4014H33.5965V40.8015H35.9966V38.4014Z" fill="black"/>
        <path d="M38.4027 38.4014H36.0026V40.8015H38.4027V38.4014Z" fill="black"/>
        <path d="M40.8028 38.4014H38.4027V40.8015H40.8028V38.4014Z" fill="black"/>
        <path d="M43.2029 40.8018H40.8028V43.2019H43.2029V40.8018Z" fill="black"/>
        <path d="M45.603 43.2017H43.2029V45.6018H45.603V43.2017Z" fill="black"/>
        <path d="M48.0031 45.6021H45.603V48.0021H48.0031V45.6021Z" fill="black"/>
        <path d="M50.4032 45.6021H48.0031V48.0021H50.4032V45.6021Z" fill="black"/>
        <path d="M50.4032 43.2017H48.0031V45.6018H50.4032V43.2017Z" fill="black"/>
        <path d="M50.4032 40.8018H48.0031V43.2019H50.4032V40.8018Z" fill="black"/>
        <path d="M50.3948 38.4014H47.9947V40.8015H50.3948V38.4014Z" fill="black"/>
        <path d="M52.7949 38.4014H50.3948V40.8015H52.7949V38.4014Z" fill="black"/>
        <path d="M55.195 38.4014H52.7949V40.8015H55.195V38.4014Z" fill="black"/>
        <path d="M57.5951 36.0015H55.195V38.4016H57.5951V36.0015Z" fill="black"/>
        <path d="M57.6035 33.6016H55.2034V36.0017H57.6035V33.6016Z" fill="black"/>
        <path d="M57.6035 31.2012H55.2034V33.6013H57.6035V31.2012Z" fill="black"/>
        <path d="M57.6035 28.8013H55.2034V31.2014H57.6035V28.8013Z" fill="black"/>
        <path d="M57.6035 26.4009H55.2034V28.801H57.6035V26.4009Z" fill="black"/>
        <path d="M57.6035 24.001H55.2034V26.4011H57.6035V24.001Z" fill="black"/>
        <path d="M57.6035 21.6011H55.2034V24.0012H57.6035V21.6011Z" fill="black"/>
        <path d="M57.6035 19.2007H55.2034V21.6008H57.6035V19.2007Z" fill="black"/>
        <path d="M57.6035 16.8008H55.2034V19.2009H57.6035V16.8008Z" fill="black"/>
        <path d="M57.6035 14.4004H55.2034V16.8005H57.6035V14.4004Z" fill="black"/>
        <path d="M57.6035 12.0005H55.2034V14.4006H57.6035V12.0005Z" fill="black"/>
        <path d="M57.6035 9.60059H55.2034V12.0007H57.6035V9.60059Z" fill="black"/>
        <path d="M55.2034 7.2002H52.8033V9.60029H55.2034V7.2002Z" fill="black"/>
        <path d="M52.8033 7.2002H50.4032V9.60029H52.8033V7.2002Z" fill="black"/>
        <path d="M50.4032 7.2002H48.0031V9.60029H50.4032V7.2002Z" fill="black"/>
        <path d="M48.0031 7.2002H45.603V9.60029H48.0031V7.2002Z" fill="black"/>
        <path d="M45.603 7.2002H43.2029V9.60029H45.603V7.2002Z" fill="black"/>
        <path d="M43.2029 7.2002H40.8028V9.60029H43.2029V7.2002Z" fill="black"/>
        <path d="M40.8028 7.2002H38.4027V9.60029H40.8028V7.2002Z" fill="black"/>
        <path d="M38.4027 7.2002H36.0026V9.60029H38.4027V7.2002Z" fill="black"/>
        <path d="M28.8 33.6016H26.3999V36.0017H28.8V33.6016Z" fill="black"/>
        <path d="M31.1988 33.6016H28.7988V36.0017H31.1988V33.6016Z" fill="black"/>
        <path d="M33.5977 33.6016H31.1976V36.0017H33.5977V33.6016Z" fill="black"/>
        <path d="M36.0026 31.2012H33.6025V33.6013H36.0026V31.2012Z" fill="black"/>
        <path d="M7.20149 2.3999H4.80139V4.8H7.20149V2.3999Z" fill="black"/>
        <path d="M9.60158 2.3999H7.20148V4.8H9.60158V2.3999Z" fill="black"/>
        <path d="M12.0017 2.3999H9.60159V4.8H12.0017V2.3999Z" fill="black"/>
        <path d="M14.4018 2.3999H12.0017V4.8H14.4018V2.3999Z" fill="black"/>
        <path d="M16.8019 2.3999H14.4018V4.8H16.8019V2.3999Z" fill="black"/>
        <path d="M19.202 2.3999H16.8019V4.8H19.202V2.3999Z" fill="black"/>
        <path d="M21.6033 2.3999H19.2032V4.8H21.6033V2.3999Z" fill="black"/>
        <path d="M24.0034 2.3999H21.6033V4.8H24.0034V2.3999Z" fill="black"/>
        <path d="M26.4035 2.3999H24.0034V4.8H26.4035V2.3999Z" fill="black"/>
        <path d="M28.8036 2.3999H26.4035V4.8H28.8036V2.3999Z" fill="black"/>
        <path d="M31.2036 2.3999H28.8036V4.8H31.2036V2.3999Z" fill="black"/>
        <path d="M33.6037 2.3999H31.2036V4.8H33.6037V2.3999Z" fill="black"/>
        <path d="M38.4027 31.2012H36.0026V33.6013H38.4027V31.2012Z" fill="#45B3E9"/>
        <path d="M38.4027 33.6016H36.0026V36.0017H38.4027V33.6016Z" fill="#2986FF"/>
        <path d="M35.9966 33.6016H33.5965V36.0017H35.9966V33.6016Z" fill="#2986FF"/>
        <path d="M38.4027 28.8013H36.0026V31.2014H38.4027V28.8013Z" fill="#45B3E9"/>
        <path d="M38.4027 26.4009H36.0026V28.801H38.4027V26.4009Z" fill="#2986FF"/>
        <path d="M38.4027 24.001H36.0026V26.4011H38.4027V24.001Z" fill="#FF9605"/>
        <path d="M38.4027 21.6011H36.0026V24.0012H38.4027V21.6011Z" fill="#FF9605"/>
        <path d="M38.4027 19.2007H36.0026V21.6008H38.4027V19.2007Z" fill="black"/>
        <path d="M38.4027 16.8008H36.0026V19.2009H38.4027V16.8008Z" fill="#FFC522"/>
        <path d="M38.4027 14.4004H36.0026V16.8005H38.4027V14.4004Z" fill="#71382A"/>
        <path d="M40.8028 31.2012H38.4027V33.6013H40.8028V31.2012Z" fill="#45B3E9"/>
        <path d="M40.8028 33.6016H38.4027V36.0017H40.8028V33.6016Z" fill="#2986FF"/>
        <path d="M40.8028 28.8013H38.4027V31.2014H40.8028V28.8013Z" fill="#45B3E9"/>
        <path d="M40.8028 26.4009H38.4027V28.801H40.8028V26.4009Z" fill="#2986FF"/>
        <path d="M40.8028 24.001H38.4027V26.4011H40.8028V24.001Z" fill="#FF9605"/>
        <path d="M40.8028 21.6011H38.4027V24.0012H40.8028V21.6011Z" fill="#ED1C24"/>
        <path d="M40.8028 19.2007H38.4027V21.6008H40.8028V19.2007Z" fill="#FFC522"/>
        <path d="M40.8028 16.8008H38.4027V19.2009H40.8028V16.8008Z" fill="#FFC522"/>
        <path d="M40.8028 14.4004H38.4027V16.8005H40.8028V14.4004Z" fill="#71382A"/>
        <path d="M43.2029 31.2012H40.8028V33.6013H43.2029V31.2012Z" fill="#45B3E9"/>
        <path d="M43.2029 33.6016H40.8028V36.0017H43.2029V33.6016Z" fill="#2986FF"/>
        <path d="M43.2029 28.8013H40.8028V31.2014H43.2029V28.8013Z" fill="#45B3E9"/>
        <path d="M43.2029 26.4009H40.8028V28.801H43.2029V26.4009Z" fill="#2986FF"/>
        <path d="M43.2029 24.001H40.8028V26.4011H43.2029V24.001Z" fill="#FF9605"/>
        <path d="M43.2029 21.6011H40.8028V24.0012H43.2029V21.6011Z" fill="#ED1C24"/>
        <path d="M43.2029 19.2007H40.8028V21.6008H43.2029V19.2007Z" fill="#FFC522"/>
        <path d="M43.2029 16.8008H40.8028V19.2009H43.2029V16.8008Z" fill="#FFC522"/>
        <path d="M43.2029 14.4004H40.8028V16.8005H43.2029V14.4004Z" fill="#71382A"/>
        <path d="M45.603 31.2012H43.2029V33.6013H45.603V31.2012Z" fill="#45B3E9"/>
        <path d="M45.603 33.6016H43.2029V36.0017H45.603V33.6016Z" fill="#2986FF"/>
        <path d="M45.603 28.8013H43.2029V31.2014H45.603V28.8013Z" fill="#45B3E9"/>
        <path d="M45.603 26.4009H43.2029V28.801H45.603V26.4009Z" fill="#2986FF"/>
        <path d="M45.603 24.001H43.2029V26.4011H45.603V24.001Z" fill="#FF9605"/>
        <path d="M45.603 21.6011H43.2029V24.0012H45.603V21.6011Z" fill="#FF9605"/>
        <path d="M45.603 19.2007H43.2029V21.6008H45.603V19.2007Z" fill="black"/>
        <path d="M45.603 16.8008H43.2029V19.2009H45.603V16.8008Z" fill="#FFC522"/>
        <path d="M45.603 14.4004H43.2029V16.8005H45.603V14.4004Z" fill="#71382A"/>
        <path d="M48.0031 31.2012H45.603V33.6013H48.0031V31.2012Z" fill="#45B3E9"/>
        <path d="M48.0031 33.6016H45.603V36.0017H48.0031V33.6016Z" fill="#2986FF"/>
        <path d="M48.0031 28.8013H45.603V31.2014H48.0031V28.8013Z" fill="#82CBE8"/>
        <path d="M48.0031 21.6011H45.603V24.0012H48.0031V21.6011Z" fill="#FFC522"/>
        <path d="M48.0031 19.2007H45.603V21.6008H48.0031V19.2007Z" fill="#FFC522"/>
        <path d="M48.0031 16.8008H45.603V19.2009H48.0031V16.8008Z" fill="#71382A"/>
        <path d="M50.4032 31.2012H48.0031V33.6013H50.4032V31.2012Z" fill="#82CBE8"/>
        <path d="M50.4032 33.6016H48.0031V36.0017H50.4032V33.6016Z" fill="#2986FF"/>
        <path d="M16.8019 26.4009H14.4018V28.801H16.8019V26.4009Z" fill="#D62F73"/>
        <path d="M16.8019 28.8013H14.4018V31.2014H16.8019V28.8013Z" fill="#BD1E55"/>
        <path d="M14.4018 28.8013H12.0017V31.2014H14.4018V28.8013Z" fill="#BD1E55"/>
        <path d="M12.0017 28.8013H9.60159V31.2014H12.0017V28.8013Z" fill="#BD1E55"/>
        <path d="M16.8019 24.001H14.4018V26.4011H16.8019V24.001Z" fill="#D62F73"/>
        <path d="M14.4018 24.001H12.0017V26.4011H14.4018V24.001Z" fill="#D62F73"/>
        <path d="M16.8019 21.6011H14.4018V24.0012H16.8019V21.6011Z" fill="#BD1E55"/>
        <path d="M16.8019 19.2007H14.4018V21.6008H16.8019V19.2007Z" fill="#FFC522"/>
        <path d="M16.8019 16.8008H14.4018V19.2009H16.8019V16.8008Z" fill="#FFC522"/>
        <path d="M16.8019 14.4004H14.4018V16.8005H16.8019V14.4004Z" fill="black"/>
        <path d="M16.8019 12.0005H14.4018V14.4006H16.8019V12.0005Z" fill="#FFC522"/>
        <path d="M16.8019 9.60059H14.4018V12.0007H16.8019V9.60059Z" fill="black"/>
        <path d="M19.202 26.4009H16.8019V28.801H19.202V26.4009Z" fill="#D62F73"/>
        <path d="M12.0017 26.4009H9.60159V28.801H12.0017V26.4009Z" fill="#D62F73"/>
        <path d="M14.4018 26.4009H12.0017V28.801H14.4018V26.4009Z" fill="#D62F73"/>
        <path d="M19.202 28.8013H16.8019V31.2014H19.202V28.8013Z" fill="#BD1E55"/>
        <path d="M19.202 24.001H16.8019V26.4011H19.202V24.001Z" fill="#D62F73"/>
        <path d="M19.202 21.6011H16.8019V24.0012H19.202V21.6011Z" fill="#BD1E55"/>
        <path d="M19.202 19.2007H16.8019V21.6008H19.202V19.2007Z" fill="#FFC522"/>
        <path d="M19.202 16.8008H16.8019V19.2009H19.202V16.8008Z" fill="#ED1C24"/>
        <path d="M19.202 14.4004H16.8019V16.8005H19.202V14.4004Z" fill="#FFC522"/>
        <path d="M19.202 12.0005H16.8019V14.4006H19.202V12.0005Z" fill="#FFC522"/>
        <path d="M19.202 9.60059H16.8019V12.0007H19.202V9.60059Z" fill="black"/>
        <path d="M21.6021 26.4009H19.202V28.801H21.6021V26.4009Z" fill="#D62F73"/>
        <path d="M21.6021 28.8013H19.202V31.2014H21.6021V28.8013Z" fill="#BD1E55"/>
        <path d="M21.6021 24.001H19.202V26.4011H21.6021V24.001Z" fill="#D62F73"/>
        <path d="M21.6021 21.6011H19.202V24.0012H21.6021V21.6011Z" fill="#BD1E55"/>
        <path d="M21.6021 19.2007H19.202V21.6008H21.6021V19.2007Z" fill="#FFC522"/>
        <path d="M21.6021 16.8008H19.202V19.2009H21.6021V16.8008Z" fill="#ED1C24"/>
        <path d="M21.6021 14.4004H19.202V16.8005H21.6021V14.4004Z" fill="#FFC522"/>
        <path d="M21.6021 12.0015H19.202V14.4016H21.6021V12.0015Z" fill="#FFC522"/>
        <path d="M21.6021 9.60059H19.202V12.0007H21.6021V9.60059Z" fill="black"/>
        <path d="M24.0022 26.4009H21.6021V28.801H24.0022V26.4009Z" fill="#D62F73"/>
        <path d="M24.0022 28.8013H21.6021V31.2014H24.0022V28.8013Z" fill="#BD1E55"/>
        <path d="M24.0022 24.001H21.6021V26.4011H24.0022V24.001Z" fill="#D62F73"/>
        <path d="M24.0022 21.6011H21.6021V24.0012H24.0022V21.6011Z" fill="#BD1E55"/>
        <path d="M24.0022 19.2007H21.6021V21.6008H24.0022V19.2007Z" fill="#FFC522"/>
        <path d="M24.0022 16.8008H21.6021V19.2009H24.0022V16.8008Z" fill="#FFC522"/>
        <path d="M24.0022 14.4019H21.6021V16.802H24.0022V14.4019Z" fill="black"/>
        <path d="M24.0022 12.0015H21.6021V14.4016H24.0022V12.0015Z" fill="#FFC522"/>
        <path d="M24.0022 9.60059H21.6021V12.0007H24.0022V9.60059Z" fill="black"/>
        <path d="M21.6021 7.2002H19.202V9.60029H21.6021V7.2002Z" fill="black"/>
        <path d="M19.202 7.2002H16.8019V9.60029H19.202V7.2002Z" fill="black"/>
        <path d="M16.8019 7.2002H14.4018V9.60029H16.8019V7.2002Z" fill="black"/>
        <path d="M14.4018 7.2002H12.0017V9.60029H14.4018V7.2002Z" fill="black"/>
        <path d="M14.4018 9.60059H12.0017V12.0007H14.4018V9.60059Z" fill="black"/>
        <path d="M12.0017 9.60059H9.60159V12.0007H12.0017V9.60059Z" fill="black"/>
        <path d="M12.0017 12.0005H9.60159V14.4006H12.0017V12.0005Z" fill="black"/>
        <path d="M12.0017 14.4004H9.60159V16.8005H12.0017V14.4004Z" fill="black"/>
        <path d="M12.0017 16.8008H9.60159V19.2009H12.0017V16.8008Z" fill="black"/>
        <path d="M12.0017 19.2007H9.60159V21.6008H12.0017V19.2007Z" fill="black"/>
        <path d="M14.4018 19.2007H12.0017V21.6008H14.4018V19.2007Z" fill="black"/>
        <path d="M26.4023 26.4009H24.0022V28.801H26.4023V26.4009Z" fill="#D62F73"/>
        <path d="M26.4023 28.8013H24.0022V31.2014H26.4023V28.8013Z" fill="#BD1E55"/>
        <path d="M26.4023 24.001H24.0022V26.4011H26.4023V24.001Z" fill="#E05080"/>
        <path d="M26.4023 16.8008H24.0022V19.2009H26.4023V16.8008Z" fill="#FFC522"/>
        <path d="M26.4023 14.4019H24.0022V16.802H26.4023V14.4019Z" fill="#FFC522"/>
        <path d="M26.4023 12.0005H24.0022V14.4006H26.4023V12.0005Z" fill="black"/>
        <path d="M28.8023 14.4004H26.4023V16.8005H28.8023V14.4004Z" fill="black"/>
        <path d="M28.8023 16.8018H26.4023V19.2019H28.8023V16.8018Z" fill="black"/>
        <path d="M28.8023 19.2021H26.4023V21.6022H28.8023V19.2021Z" fill="black"/>
        <path d="M26.4023 19.2007H24.0022V21.6008H26.4023V19.2007Z" fill="black"/>
        <path d="M14.4018 16.8008H12.0017V19.2009H14.4018V16.8008Z" fill="#FFC522"/>
        <path d="M14.4018 14.4004H12.0017V16.8005H14.4018V14.4004Z" fill="#FFC522"/>
        <path d="M14.4018 12.0005H12.0017V14.4006H14.4018V12.0005Z" fill="black"/>
        <path d="M28.8023 26.4072H26.4023V28.8073H28.8023V26.4072Z" fill="#E05080"/>
        <path d="M28.8023 28.8013H26.4023V31.2014H28.8023V28.8013Z" fill="#BD1E55"/>
        <path d="M7.20149 31.2012H4.80139V33.6013H7.20149V31.2012Z" fill="#CCCCCC"/>
        <path d="M9.60158 31.2012H7.20148V33.6013H9.60158V31.2012Z" fill="#CCCCCC"/>
        <path d="M9.60158 28.8013H7.20148V31.2014H9.60158V28.8013Z" fill="#E6E6E6"/>
        <path d="M7.20149 28.8013H4.80139V31.2014H7.20149V28.8013Z" fill="#CCCCCC"/>
        <path d="M7.20149 26.4009H4.80139V28.801H7.20149V26.4009Z" fill="#CCCCCC"/>
        <path d="M7.20149 24.001H4.80139V26.4011H7.20149V24.001Z" fill="#E6E6E6"/>
        <path d="M7.20149 21.6011H4.80139V24.0012H7.20149V21.6011Z" fill="#E6E6E6"/>
        <path d="M7.20149 19.2007H4.80139V21.6008H7.20149V19.2007Z" fill="#F2F2F2"/>
        <path d="M7.20149 16.8008H4.80139V19.2009H7.20149V16.8008Z" fill="#F2F2F2"/>
        <path d="M7.20149 14.4004H4.80139V16.8005H7.20149V14.4004Z" fill="#F2F2F2"/>
        <path d="M7.20149 12.0005H4.80139V14.4006H7.20149V12.0005Z" fill="#F2F2F2"/>
        <path d="M7.20149 9.60059H4.80139V12.0007H7.20149V9.60059Z" fill="#F2F2F2"/>
        <path d="M7.20149 7.2002H4.80139V9.60029H7.20149V7.2002Z" fill="#F2F2F2"/>
        <path d="M7.20149 4.80127H4.80139V7.20137H7.20149V4.80127Z" fill="#F2F2F2"/>
        <path d="M9.60158 4.80127H7.20148V7.20137H9.60158V4.80127Z" fill="white"/>
        <path d="M4.80019 2.3999H2.40009V4.8H4.80019V2.3999Z" fill="white"/>
        <path d="M2.4001 4.80029H0V33.6014H2.4001V4.80029Z" fill="white"/>
        <path d="M7.20149 0H4.80139V2.4001H7.20149V0Z" fill="white"/>
        <path d="M9.60158 0H7.20148V2.4001H9.60158V0Z" fill="white"/>
        <path d="M12.0017 0H9.60159V2.4001H12.0017V0Z" fill="white"/>
        <path d="M14.4018 0H12.0017V2.4001H14.4018V0Z" fill="white"/>
        <path d="M16.8019 0H14.4018V2.4001H16.8019V0Z" fill="white"/>
        <path d="M19.202 0H16.8019V2.4001H19.202V0Z" fill="white"/>
        <path d="M21.6033 0H19.2032V2.4001H21.6033V0Z" fill="white"/>
        <path d="M24.0034 0H21.6033V2.4001H24.0034V0Z" fill="white"/>
        <path d="M26.4035 0H24.0034V2.4001H26.4035V0Z" fill="white"/>
        <path d="M28.8036 0H26.4035V2.4001H28.8036V0Z" fill="white"/>
        <path d="M31.2036 0H28.8036V2.4001H31.2036V0Z" fill="white"/>
        <path d="M33.6037 0H31.2036V2.4001H33.6037V0Z" fill="white"/>
        <path d="M36.0026 2.3999H33.6025V4.8H36.0026V2.3999Z" fill="white"/>
        <path d="M38.4027 4.80029H36.0026V7.20039H38.4027V4.80029Z" fill="white"/>
        <path d="M40.8028 4.80029H38.4027V7.20039H40.8028V4.80029Z" fill="white"/>
        <path d="M43.2029 4.80029H40.8028V7.20039H43.2029V4.80029Z" fill="white"/>
        <path d="M45.6042 4.80029H43.2041V7.20039H45.6042V4.80029Z" fill="white"/>
        <path d="M48.0043 4.80029H45.6042V7.20039H48.0043V4.80029Z" fill="white"/>
        <path d="M50.4044 4.80029H48.0043V7.20039H50.4044V4.80029Z" fill="white"/>
        <path d="M52.8057 4.80029H50.4056V7.20039H52.8057V4.80029Z" fill="white"/>
        <path d="M55.2058 4.80029H52.8057V7.20039H55.2058V4.80029Z" fill="white"/>
        <path d="M57.6035 7.2002H55.2034V9.60029H57.6035V7.2002Z" fill="white"/>
        <path d="M60 9.60059H57.5999V12.0007H60V9.60059Z" fill="white"/>
        <path d="M60 12.0005H57.5999V14.4006H60V12.0005Z" fill="white"/>
        <path d="M60 14.4004H57.5999V16.8005H60V14.4004Z" fill="white"/>
        <path d="M60 16.8008H57.5999V19.2009H60V16.8008Z" fill="white"/>
        <path d="M60 19.2007H57.5999V21.6008H60V19.2007Z" fill="white"/>
        <path d="M60 21.6011H57.5999V24.0012H60V21.6011Z" fill="white"/>
        <path d="M60 24.001H57.5999V26.4011H60V24.001Z" fill="white"/>
        <path d="M60 26.4009H57.5999V28.801H60V26.4009Z" fill="white"/>
        <path d="M60 28.8013H57.5999V31.2014H60V28.8013Z" fill="white"/>
        <path d="M60 31.2012H57.5999V33.6013H60V31.2012Z" fill="white"/>
        <path d="M60 33.6016H57.5999V36.0017H60V33.6016Z" fill="white"/>
        <path d="M59.9952 36.0015H57.5951V38.4016H59.9952V36.0015Z" fill="white"/>
        <path d="M57.5951 38.4014H55.195V40.8015H57.5951V38.4014Z" fill="white"/>
        <path d="M59.994 38.4014H57.5939V40.8015H59.994V38.4014Z" fill="white"/>
        <path d="M55.2034 40.8018H52.8033V43.2019H55.2034V40.8018Z" fill="white"/>
        <path d="M52.8057 40.8018H50.4056V43.2019H52.8057V40.8018Z" fill="white"/>
        <path d="M52.8057 43.2017H50.4056V45.6018H52.8057V43.2017Z" fill="white"/>
        <path d="M52.8057 45.6021H50.4056V48.0021H52.8057V45.6021Z" fill="white"/>
        <path d="M52.8057 48.002H50.4056V50.402H52.8057V48.002Z" fill="white"/>
        <path d="M50.4032 48.002H48.0031V50.402H50.4032V48.002Z" fill="white"/>
        <path d="M48.0007 48.002H45.6006V50.402H48.0007V48.002Z" fill="white"/>
        <path d="M45.597 48.002H43.1969V50.402H45.597V48.002Z" fill="white"/>
        <path d="M45.603 45.6021H43.2029V48.0021H45.603V45.6021Z" fill="white"/>
        <path d="M43.2029 45.6021H40.8028V48.0021H43.2029V45.6021Z" fill="white"/>
        <path d="M43.2029 43.2017H40.8028V45.6018H43.2029V43.2017Z" fill="white"/>
        <path d="M40.8028 43.2017H38.4027V45.6018H40.8028V43.2017Z" fill="white"/>
        <path d="M40.8028 40.8018H38.4027V43.2019H40.8028V40.8018Z" fill="white"/>
        <path d="M26.4011 38.4014H24.001V43.2016H26.4011V38.4014Z" fill="white"/>
        <path d="M23.9998 36.0015H21.5997V40.8017H23.9998V36.0015Z" fill="white"/>
        <path d="M21.6033 36.0015H19.2032V40.8017H21.6033V36.0015Z" fill="white"/>
        <path d="M19.2008 38.4028H16.8007V43.203H19.2008V38.4028Z" fill="white"/>
        <path d="M16.8043 40.8027H14.4042V45.6029H16.8043V40.8027Z" fill="white"/>
        <path d="M14.4018 43.2075H9.60159V45.6076H14.4018V43.2075Z" fill="white"/>
        <path d="M7.20028 36.0015H2.40009V38.4016H7.20028V36.0015Z" fill="white"/>
        <path d="M4.80019 33.6016H0V36.0017H4.80019V33.6016Z" fill="white"/>
        <path d="M9.60158 36.0015H7.20148V45.6018H9.60158V36.0015Z" fill="white"/>
        <path d="M38.4027 40.8018H26.3999V43.2019H38.4027V40.8018Z" fill="white"/>
        <path d="M57.6035 40.8018H55.2034V43.2019H57.6035V40.8018Z" fill="white"/>
        <path d="M12.0017 4.80127H9.60159V7.20137H12.0017V4.80127Z" fill="white"/>
        <path d="M9.60158 7.2002H7.20148V9.60029H9.60158V7.2002Z" fill="white"/>
        <path d="M9.60158 9.60059H7.20148V12.0007H9.60158V9.60059Z" fill="white"/>
        <path d="M9.60158 12.0005H7.20148V14.4006H9.60158V12.0005Z" fill="white"/>
        <path d="M9.60158 14.3994H7.20148V16.7995H9.60158V14.3994Z" fill="white"/>
        <path d="M9.60158 16.7993H7.20148V19.1994H9.60158V16.7993Z" fill="white"/>
        <path d="M9.60158 19.1997H7.20148V21.5998H9.60158V19.1997Z" fill="white"/>
        <path d="M9.60158 21.5986H7.20148V23.9987H9.60158V21.5986Z" fill="white"/>
        <path d="M9.60158 23.9985H7.20148V26.3986H9.60158V23.9985Z" fill="white"/>
        <path d="M12.0017 21.5986H9.60159V23.9987H12.0017V21.5986Z" fill="white"/>
        <path d="M14.4018 21.5986H12.0017V23.9987H14.4018V21.5986Z" fill="white"/>
        <path d="M12.0017 23.9985H9.60159V26.3986H12.0017V23.9985Z" fill="white"/>
        <path d="M9.60158 26.3984H7.20148V28.7985H9.60158V26.3984Z" fill="white"/>
        <path d="M12.0017 7.2002H9.60159V9.60029H12.0017V7.2002Z" fill="white"/>
        <path d="M14.4018 4.80127H12.0017V7.20137H14.4018V4.80127Z" fill="white"/>
        <path d="M16.8031 4.80127H14.403V7.20137H16.8031V4.80127Z" fill="white"/>
        <path d="M19.2032 4.80127H16.8031V7.20137H19.2032V4.80127Z" fill="white"/>
        <path d="M21.6033 4.80127H19.2032V7.20137H21.6033V4.80127Z" fill="white"/>
        <path d="M24.0046 4.80127H21.6045V7.20137H24.0046V4.80127Z" fill="white"/>
        <path d="M26.4047 4.80127H24.0046V7.20137H26.4047V4.80127Z" fill="white"/>
        <path d="M28.8048 4.80127H26.4047V7.20137H28.8048V4.80127Z" fill="white"/>
        <path d="M31.206 4.80127H28.8059V7.20137H31.206V4.80127Z" fill="white"/>
        <path d="M33.6061 4.80127H31.206V7.20137H33.6061V4.80127Z" fill="white"/>
        <path d="M38.4027 9.60059H36.0026V12.0007H38.4027V9.60059Z" fill="white"/>
        <path d="M40.8028 9.60059H38.4027V12.0007H40.8028V9.60059Z" fill="white"/>
        <path d="M43.2029 9.60059H40.8028V12.0007H43.2029V9.60059Z" fill="white"/>
        <path d="M45.6042 9.60059H43.2041V12.0007H45.6042V9.60059Z" fill="white"/>
        <path d="M38.4027 12.0005H36.0026V14.4006H38.4027V12.0005Z" fill="white"/>
        <path d="M40.8028 12.0005H38.4027V14.4006H40.8028V12.0005Z" fill="white"/>
        <path d="M43.2029 12.0005H40.8028V14.4006H43.2029V12.0005Z" fill="white"/>
        <path d="M45.6042 12.0005H43.2041V14.4006H45.6042V12.0005Z" fill="white"/>
        <path d="M48.0043 9.60059H45.6042V12.0007H48.0043V9.60059Z" fill="white"/>
        <path d="M50.4044 9.60059H48.0043V12.0007H50.4044V9.60059Z" fill="white"/>
        <path d="M52.8057 9.60059H50.4056V12.0007H52.8057V9.60059Z" fill="white"/>
        <path d="M55.2058 9.60059H52.8057V12.0007H55.2058V9.60059Z" fill="white"/>
        <path d="M48.0043 12.0005H45.6042V14.4006H48.0043V12.0005Z" fill="white"/>
        <path d="M50.4044 12.0005H48.0043V14.4006H50.4044V12.0005Z" fill="white"/>
        <path d="M52.8057 12.0005H50.4056V14.4006H52.8057V12.0005Z" fill="white"/>
        <path d="M55.2058 12.0005H52.8057V14.4006H55.2058V12.0005Z" fill="white"/>
        <path d="M48.0043 14.4004H45.6042V16.8005H48.0043V14.4004Z" fill="white"/>
        <path d="M50.4044 14.4004H48.0043V16.8005H50.4044V14.4004Z" fill="white"/>
        <path d="M52.8057 14.4004H50.4056V16.8005H52.8057V14.4004Z" fill="white"/>
        <path d="M55.2058 14.4004H52.8057V16.8005H55.2058V14.4004Z" fill="white"/>
        <path d="M50.4044 16.8008H48.0043V19.2009H50.4044V16.8008Z" fill="white"/>
        <path d="M52.8057 16.8008H50.4056V19.2009H52.8057V16.8008Z" fill="white"/>
        <path d="M55.2058 16.8008H52.8057V19.2009H55.2058V16.8008Z" fill="white"/>
        <path d="M50.4044 19.2007H48.0043V21.6008H50.4044V19.2007Z" fill="white"/>
        <path d="M52.8057 19.2007H50.4056V21.6008H52.8057V19.2007Z" fill="white"/>
        <path d="M55.2058 19.2007H52.8057V21.6008H55.2058V19.2007Z" fill="white"/>
        <path d="M50.4044 21.6011H48.0043V24.0012H50.4044V21.6011Z" fill="white"/>
        <path d="M52.8057 21.6011H50.4056V24.0012H52.8057V21.6011Z" fill="white"/>
        <path d="M55.2058 21.6011H52.8057V24.0012H55.2058V21.6011Z" fill="white"/>
        <path d="M50.4044 24.001H48.0043V26.4011H50.4044V24.001Z" fill="white"/>
        <path d="M52.8057 24.001H50.4056V26.4011H52.8057V24.001Z" fill="white"/>
        <path d="M55.2058 24.001H52.8057V26.4011H55.2058V24.001Z" fill="white"/>
        <path d="M50.4044 26.4009H48.0043V28.801H50.4044V26.4009Z" fill="white"/>
        <path d="M48.0043 24.001H45.6042V26.4011H48.0043V24.001Z" fill="white"/>
        <path d="M48.0043 26.4009H45.6042V28.801H48.0043V26.4009Z" fill="white"/>
        <path d="M52.8057 26.4009H50.4056V28.801H52.8057V26.4009Z" fill="white"/>
        <path d="M55.2058 26.4009H52.8057V28.801H55.2058V26.4009Z" fill="white"/>
        <path d="M50.4044 28.8013H48.0043V31.2014H50.4044V28.8013Z" fill="white"/>
        <path d="M52.8057 28.8013H50.4056V31.2014H52.8057V28.8013Z" fill="white"/>
        <path d="M55.2058 28.8013H52.8057V31.2014H55.2058V28.8013Z" fill="white"/>
        <path d="M52.8057 31.2012H50.4056V33.6013H52.8057V31.2012Z" fill="white"/>
        <path d="M55.2058 31.2012H52.8057V33.6013H55.2058V31.2012Z" fill="white"/>
        <path d="M52.8057 33.6016H50.4056V36.0017H52.8057V33.6016Z" fill="white"/>
        <path d="M55.2058 33.6016H52.8057V36.0017H55.2058V33.6016Z" fill="white"/>
        <path d="M52.8057 36.0015H50.4056V38.4016H52.8057V36.0015Z" fill="white"/>
        <path d="M55.195 36.0015H52.7949V38.4016H55.195V36.0015Z" fill="white"/>
        <path d="M47.9983 36.0015H45.5982V38.4016H47.9983V36.0015Z" fill="white"/>
        <path d="M50.3984 36.0015H47.9983V38.4016H50.3984V36.0015Z" fill="white"/>
        <path d="M43.1945 36.0015H26.4023V38.4016H43.1945V36.0015Z" fill="white"/>
        <path d="M45.5946 36.0015H43.1945V38.4016H45.5946V36.0015Z" fill="white"/>
        <path d="M47.9947 38.4014H45.5946V40.8015H47.9947V38.4014Z" fill="white"/>
        <path d="M43.2029 38.4014H40.8028V40.8015H43.2029V38.4014Z" fill="white"/>
        <path d="M45.5946 38.4014H43.1945V40.8015H45.5946V38.4014Z" fill="white"/>
        <path d="M47.9983 40.8018H45.5982V43.2019H47.9983V40.8018Z" fill="white"/>
        <path d="M48.0031 43.2017H45.603V45.6018H48.0031V43.2017Z" fill="white"/>
        <path d="M45.603 40.8018H43.2029V43.2019H45.603V40.8018Z" fill="white"/>
        <path d="M24.0046 7.2002H21.6045V9.60029H24.0046V7.2002Z" fill="white"/>
        <path d="M26.4047 7.2002H24.0046V9.60029H26.4047V7.2002Z" fill="white"/>
        <path d="M28.8048 7.2002H26.4047V9.60029H28.8048V7.2002Z" fill="white"/>
        <path d="M31.206 7.2002H28.8059V9.60029H31.206V7.2002Z" fill="white"/>
        <path d="M33.6061 7.2002H31.206V9.60029H33.6061V7.2002Z" fill="white"/>
        <path d="M26.4047 9.60059H24.0046V12.0007H26.4047V9.60059Z" fill="white"/>
        <path d="M28.8048 9.60059H26.4047V12.0007H28.8048V9.60059Z" fill="white"/>
        <path d="M31.206 9.60059H28.8059V12.0007H31.206V9.60059Z" fill="white"/>
        <path d="M33.6061 9.60059H31.206V12.0007H33.6061V9.60059Z" fill="white"/>
        <path d="M28.8048 12.0005H26.4047V14.4006H28.8048V12.0005Z" fill="white"/>
        <path d="M31.206 12.0005H28.8059V14.4006H31.206V12.0005Z" fill="white"/>
        <path d="M33.6061 12.0005H31.206V14.4006H33.6061V12.0005Z" fill="white"/>
        <path d="M31.206 14.4004H28.8059V16.8005H31.206V14.4004Z" fill="white"/>
        <path d="M33.6061 14.4004H31.206V16.8005H33.6061V14.4004Z" fill="white"/>
        <path d="M31.206 16.8008H28.8059V19.2009H31.206V16.8008Z" fill="white"/>
        <path d="M33.6061 16.8008H31.206V19.2009H33.6061V16.8008Z" fill="white"/>
        <path d="M31.206 19.2007H28.8059V21.6008H31.206V19.2007Z" fill="white"/>
        <path d="M33.6061 19.2007H31.206V21.6008H33.6061V19.2007Z" fill="white"/>
        <path d="M31.206 21.6011H28.8059V24.0012H31.206V21.6011Z" fill="white"/>
        <path d="M33.6061 21.6011H31.206V24.0012H33.6061V21.6011Z" fill="white"/>
        <path d="M31.206 24.001H28.8059V26.4011H31.206V24.001Z" fill="white"/>
        <path d="M33.6061 24.001H31.206V26.4011H33.6061V24.001Z" fill="white"/>
        <path d="M26.4047 21.6011H24.0046V24.0012H26.4047V21.6011Z" fill="white"/>
        <path d="M28.8048 21.6011H26.4047V24.0012H28.8048V21.6011Z" fill="white"/>
        <path d="M28.8048 24.001H26.4047V26.4011H28.8048V24.001Z" fill="white"/>
        <path d="M31.206 26.4009H28.8059V28.801H31.206V26.4009Z" fill="white"/>
        <path d="M33.6061 26.4009H31.206V28.801H33.6061V26.4009Z" fill="white"/>
        <path d="M31.206 28.8013H28.8059V31.2014H31.206V28.8013Z" fill="white"/>
        <path d="M33.6061 28.8013H31.206V31.2014H33.6061V28.8013Z" fill="white"/>
        <path d="M31.206 31.2012H28.8059V33.6013H31.206V31.2012Z" fill="white"/>
        <path d="M33.6061 31.2012H31.206V33.6013H33.6061V31.2012Z" fill="white"/>
        <path d="M26.4047 31.2012H24.0046V33.6013H26.4047V31.2012Z" fill="white"/>
        <path d="M28.8059 31.2012H26.4059V33.6013H28.8059V31.2012Z" fill="white"/>
        <path d="M21.6045 31.2012H19.2044V33.6013H21.6045V31.2012Z" fill="white"/>
        <path d="M24.0046 31.2012H21.6045V33.6013H24.0046V31.2012Z" fill="white"/>
        <path d="M16.8043 31.2012H14.4042V33.6013H16.8043V31.2012Z" fill="white"/>
        <path d="M19.2044 31.2012H16.8043V33.6013H19.2044V31.2012Z" fill="white"/>
        <path d="M16.8043 33.6016H14.4042V36.0017H16.8043V33.6016Z" fill="white"/>
        <path d="M16.8043 36.0015H14.4042V38.4016H16.8043V36.0015Z" fill="white"/>
        <path d="M19.2044 33.6016H16.8043V36.0017H19.2044V33.6016Z" fill="white"/>
        <path d="M12.0017 31.2012H9.60159V33.6013H12.0017V31.2012Z" fill="#E6E6E6"/>
        <path d="M14.4018 33.6016H12.0017V36.0017H14.4018V33.6016Z" fill="#CCCCCC"/>
        <path d="M14.4018 31.2012H12.0017V33.6013H14.4018V31.2012Z" fill="#E6E6E6"/>
        <path d="M14.4018 36.0015H12.0017V38.4016H14.4018V36.0015Z" fill="#CCCCCC"/>
        <path d="M14.4018 38.3965H12.0017V40.7966H14.4018V38.3965Z" fill="#CCCCCC"/>
    </g>
    <defs>
        <clipPath id="clip0_1976_10236">
            <rect width="60" height="50.402" fill="white"/>
        </clipPath>
    </defs>
</svg>
