<svg width="14" height="24" viewBox="0 0 14 24" fill="none" xmlns="http://www.w3.org/2000/svg">
    <path d="M13.5652 6.21069C13.5652 7.21221 13.4302 8.04885 13.1603 8.72061C12.9026 9.38015 12.5652 9.96031 12.148 10.4611C11.7308 10.9618 11.289 11.4198 10.8227 11.8351C10.3687 12.2382 9.9331 12.6901 9.5159 13.1908C9.0987 13.6916 8.75512 14.2779 8.48516 14.9496C8.22748 15.6092 8.09864 16.4397 8.09864 17.4412V17.6244H5.08005V17.4412C5.08005 16.2687 5.2089 15.2855 5.46658 14.4916C5.73653 13.6855 6.08011 13.0015 6.49732 12.4397C6.91452 11.8656 7.35626 11.3771 7.82255 10.974C8.28883 10.5588 8.72444 10.1313 9.12937 9.6916C9.54657 9.25191 9.88402 8.76336 10.1417 8.22595C10.4117 7.68855 10.5466 7.01679 10.5466 6.21069C10.5466 5.16031 10.2153 4.29924 9.55271 3.62748C8.89009 2.95573 8.03115 2.61985 6.97587 2.61985C5.74881 2.61985 4.77942 3.00458 4.06772 3.77405C3.3683 4.5313 3.01858 5.70992 3.01858 7.30992V7.67634H0V7.30992C0 4.95267 0.638074 3.14504 1.91422 1.88702C3.20264 0.629008 4.88986 0 6.97587 0C7.90844 0 8.77966 0.158779 9.58952 0.476336C10.3994 0.781679 11.0927 1.20916 11.6694 1.75878C12.2584 2.3084 12.7185 2.96183 13.0498 3.71908C13.3934 4.47634 13.5652 5.30687 13.5652 6.21069ZM4.71193 22.1313C4.71193 21.5573 4.87759 21.0992 5.2089 20.7573C5.55247 20.4153 6.01262 20.2443 6.58935 20.2443C7.16607 20.2443 7.62008 20.4153 7.95139 20.7573C8.29497 21.0992 8.46676 21.5573 8.46676 22.1313C8.46676 22.7053 8.29497 23.1634 7.95139 23.5053C7.62008 23.8351 7.16607 24 6.58935 24C6.01262 24 5.55247 23.8351 5.2089 23.5053C4.87759 23.1634 4.71193 22.7053 4.71193 22.1313Z" fill="black"/>
</svg>
