<svg width="40" height="40" viewBox="0 0 40 40" fill="none" xmlns="http://www.w3.org/2000/svg">
    <path d="M15.2438 0H13.3369V1.90686H15.2438V0Z" fill="white"/>
    <path d="M17.1505 0H15.2437V1.90686H17.1505V0Z" fill="white"/>
    <path d="M19.0465 0H17.1396V1.90686H19.0465V0Z" fill="white"/>
    <path d="M20.9532 0H19.0464V1.90686H20.9532V0Z" fill="white"/>
    <path d="M22.8602 0H20.9534V1.90686H22.8602V0Z" fill="white"/>
    <path d="M24.7672 0H22.8604V1.90686H24.7672V0Z" fill="white"/>
    <path d="M26.6739 0H24.7671V1.90686H26.6739V0Z" fill="white"/>
    <path d="M11.4303 1.90674H9.52344V3.8136H11.4303V1.90674Z" fill="white"/>
    <path d="M13.337 1.90674H11.4302V3.8136H13.337V1.90674Z" fill="white"/>
    <path d="M15.2438 1.90674H13.3369V3.8136H15.2438V1.90674Z" fill="black"/>
    <path d="M17.1505 1.90674H15.2437V3.8136H17.1505V1.90674Z" fill="black"/>
    <path d="M19.0465 1.90674H17.1396V3.8136H19.0465V1.90674Z" fill="black"/>
    <path d="M20.9532 1.90674H19.0464V3.8136H20.9532V1.90674Z" fill="black"/>
    <path d="M22.8602 1.90674H20.9534V3.8136H22.8602V1.90674Z" fill="black"/>
    <path d="M24.7672 1.90674H22.8604V3.8136H24.7672V1.90674Z" fill="black"/>
    <path d="M26.6739 1.90674H24.7671V3.8136H26.6739V1.90674Z" fill="black"/>
    <path d="M28.5699 1.90674H26.6631V3.8136H28.5699V1.90674Z" fill="white"/>
    <path d="M30.4767 1.90674H28.5698V3.8136H30.4767V1.90674Z" fill="white"/>
    <path d="M9.52333 3.81372H7.61646V5.72058H9.52333V3.81372Z" fill="white"/>
    <path d="M11.4303 3.81372H9.52344V5.72058H11.4303V3.81372Z" fill="black"/>
    <path d="M13.337 3.81372H11.4302V5.72058H13.337V3.81372Z" fill="black"/>
    <path d="M15.2438 3.81372H13.3369V5.72058H15.2438V3.81372Z" fill="white"/>
    <path d="M17.1505 3.81372H15.2437V5.72058H17.1505V3.81372Z" fill="#1A1A1A"/>
    <path d="M19.0465 3.81372H17.1396V5.72058H19.0465V3.81372Z" fill="#1A1A1A"/>
    <path d="M20.9532 3.81372H19.0464V5.72058H20.9532V3.81372Z" fill="#1A1A1A"/>
    <path d="M22.8602 3.81372H20.9534V5.72058H22.8602V3.81372Z" fill="#1A1A1A"/>
    <path d="M24.7672 3.81372H22.8604V5.72058H24.7672V3.81372Z" fill="#1A1A1A"/>
    <path d="M26.6739 3.81372H24.7671V5.72058H26.6739V3.81372Z" fill="white"/>
    <path d="M28.5699 3.81372H26.6631V5.72058H28.5699V3.81372Z" fill="black"/>
    <path d="M30.4767 3.81372H28.5698V5.72058H30.4767V3.81372Z" fill="black"/>
    <path d="M32.3834 3.81372H30.4766V5.72058H32.3834V3.81372Z" fill="white"/>
    <path d="M7.62756 5.70947H5.7207V7.61633H7.62756V5.70947Z" fill="white"/>
    <path d="M9.52333 5.70947H7.61646V7.61633H9.52333V5.70947Z" fill="black"/>
    <path d="M11.4303 5.70947H9.52344V7.61633H11.4303V5.70947Z" fill="white"/>
    <path d="M13.337 5.70947H11.4302V7.61633H13.337V5.70947Z" fill="white"/>
    <path d="M15.2438 5.70947H13.3369V7.61633H15.2438V5.70947Z" fill="white"/>
    <path d="M17.1505 5.70947H15.2437V7.61633H17.1505V5.70947Z" fill="white"/>
    <path d="M19.0465 5.70947H17.1396V7.61633H19.0465V5.70947Z" fill="#1A1A1A"/>
    <path d="M20.9532 5.70947H19.0464V7.61633H20.9532V5.70947Z" fill="#1A1A1A"/>
    <path d="M22.8602 5.70947H20.9534V7.61633H22.8602V5.70947Z" fill="#1A1A1A"/>
    <path d="M24.7672 5.70947H22.8604V7.61633H24.7672V5.70947Z" fill="white"/>
    <path d="M26.6739 5.70947H24.7671V7.61633H26.6739V5.70947Z" fill="white"/>
    <path d="M28.5699 5.70947H26.6631V7.61633H28.5699V5.70947Z" fill="white"/>
    <path d="M30.4767 5.70947H28.5698V7.61633H30.4767V5.70947Z" fill="white"/>
    <path d="M32.3834 5.70947H30.4766V7.61633H32.3834V5.70947Z" fill="black"/>
    <path d="M34.2904 5.70947H32.3835V7.61633H34.2904V5.70947Z" fill="white"/>
    <path d="M5.7206 7.61621H3.81372V9.52307H5.7206V7.61621Z" fill="white"/>
    <path d="M7.62756 7.61621H5.7207V9.52307H7.62756V7.61621Z" fill="black"/>
    <path d="M9.52333 7.61621H7.61646V9.52307H9.52333V7.61621Z" fill="#1A1A1A"/>
    <path d="M11.4303 7.61621H9.52344V9.52307H11.4303V7.61621Z" fill="white"/>
    <path d="M13.337 7.61621H11.4302V9.52307H13.337V7.61621Z" fill="white"/>
    <path d="M15.2438 7.61621H13.3369V9.52307H15.2438V7.61621Z" fill="#BFBFBF"/>
    <path d="M17.1505 7.61621H15.2437V9.52307H17.1505V7.61621Z" fill="#BFBFBF"/>
    <path d="M19.0465 7.61621H17.1396V9.52307H19.0465V7.61621Z" fill="white"/>
    <path d="M20.9532 7.61621H19.0464V9.52307H20.9532V7.61621Z" fill="#BFBFBF"/>
    <path d="M22.8602 7.61621H20.9534V9.52307H22.8602V7.61621Z" fill="white"/>
    <path d="M24.7672 7.61621H22.8604V9.52307H24.7672V7.61621Z" fill="#BFBFBF"/>
    <path d="M26.6739 7.61621H24.7671V9.52307H26.6739V7.61621Z" fill="#BFBFBF"/>
    <path d="M28.5699 7.61621H26.6631V9.52307H28.5699V7.61621Z" fill="white"/>
    <path d="M30.4767 7.61621H28.5698V9.52307H30.4767V7.61621Z" fill="white"/>
    <path d="M32.3834 7.61621H30.4766V9.52307H32.3834V7.61621Z" fill="#1A1A1A"/>
    <path d="M34.2904 7.61621H32.3835V9.52307H34.2904V7.61621Z" fill="black"/>
    <path d="M36.1974 7.61621H34.2905V9.52307H36.1974V7.61621Z" fill="white"/>
    <path d="M3.8136 9.52319H1.90674V11.4301H3.8136V9.52319Z" fill="white"/>
    <path d="M5.7206 9.52319H3.81372V11.4301H5.7206V9.52319Z" fill="black"/>
    <path d="M7.62756 9.52319H5.7207V11.4301H7.62756V9.52319Z" fill="#1A1A1A"/>
    <path d="M9.52333 9.52319H7.61646V11.4301H9.52333V9.52319Z" fill="#1A1A1A"/>
    <path d="M11.4303 9.52319H9.52344V11.4301H11.4303V9.52319Z" fill="#1A1A1A"/>
    <path d="M13.337 9.52319H11.4302V11.4301H13.337V9.52319Z" fill="#BFBFBF"/>
    <path d="M15.2438 9.52319H13.3369V11.4301H15.2438V9.52319Z" fill="white"/>
    <path d="M17.1505 9.52319H15.2437V11.4301H17.1505V9.52319Z" fill="white"/>
    <path d="M19.0465 9.52319H17.1396V11.4301H19.0465V9.52319Z" fill="white"/>
    <path d="M20.9532 9.52319H19.0464V11.4301H20.9532V9.52319Z" fill="#BFBFBF"/>
    <path d="M22.8602 9.52319H20.9534V11.4301H22.8602V9.52319Z" fill="white"/>
    <path d="M24.7672 9.52319H22.8604V11.4301H24.7672V9.52319Z" fill="white"/>
    <path d="M26.6739 9.52319H24.7671V11.4301H26.6739V9.52319Z" fill="white"/>
    <path d="M28.5699 9.52319H26.6631V11.4301H28.5699V9.52319Z" fill="#BFBFBF"/>
    <path d="M30.4767 9.52319H28.5698V11.4301H30.4767V9.52319Z" fill="#1A1A1A"/>
    <path d="M32.3834 9.52319H30.4766V11.4301H32.3834V9.52319Z" fill="#1A1A1A"/>
    <path d="M34.2904 9.52319H32.3835V11.4301H34.2904V9.52319Z" fill="#1A1A1A"/>
    <path d="M36.1974 9.52319H34.2905V11.4301H36.1974V9.52319Z" fill="black"/>
    <path d="M38.0931 9.52319H36.1863V11.4301H38.0931V9.52319Z" fill="white"/>
    <path d="M3.8136 11.4302H1.90674V13.337H3.8136V11.4302Z" fill="white"/>
    <path d="M5.7206 11.4302H3.81372V13.337H5.7206V11.4302Z" fill="black"/>
    <path d="M7.62756 11.4302H5.7207V13.337H7.62756V11.4302Z" fill="#1A1A1A"/>
    <path d="M9.52333 11.4302H7.61646V13.337H9.52333V11.4302Z" fill="#1A1A1A"/>
    <path d="M11.4303 11.4302H9.52344V13.337H11.4303V11.4302Z" fill="white"/>
    <path d="M13.337 11.4302H11.4302V13.337H13.337V11.4302Z" fill="white"/>
    <path d="M15.2438 11.4302H13.3369V13.337H15.2438V11.4302Z" fill="white"/>
    <path d="M17.1505 11.4302H15.2437V13.337H17.1505V11.4302Z" fill="white"/>
    <path d="M19.0465 11.4302H17.1396V13.337H19.0465V11.4302Z" fill="white"/>
    <path d="M20.9532 11.4302H19.0464V13.337H20.9532V11.4302Z" fill="#BFBFBF"/>
    <path d="M22.8602 11.4302H20.9534V13.337H22.8602V11.4302Z" fill="white"/>
    <path d="M24.7672 11.4302H22.8604V13.337H24.7672V11.4302Z" fill="white"/>
    <path d="M26.6739 11.4302H24.7671V13.337H26.6739V11.4302Z" fill="white"/>
    <path d="M28.5699 11.4302H26.6631V13.337H28.5699V11.4302Z" fill="white"/>
    <path d="M30.4767 11.4302H28.5698V13.337H30.4767V11.4302Z" fill="white"/>
    <path d="M32.3834 11.4302H30.4766V13.337H32.3834V11.4302Z" fill="#1A1A1A"/>
    <path d="M34.2904 11.4302H32.3835V13.337H34.2904V11.4302Z" fill="#1A1A1A"/>
    <path d="M36.1974 11.4302H34.2905V13.337H36.1974V11.4302Z" fill="black"/>
    <path d="M38.0931 11.4302H36.1863V13.337H38.0931V11.4302Z" fill="white"/>
    <path d="M1.90686 13.3369H0V15.2438H1.90686V13.3369Z" fill="white"/>
    <path d="M3.8136 13.3369H1.90674V15.2438H3.8136V13.3369Z" fill="black"/>
    <path d="M5.7206 13.3369H3.81372V15.2438H5.7206V13.3369Z" fill="#1A1A1A"/>
    <path d="M7.62756 13.3369H5.7207V15.2438H7.62756V13.3369Z" fill="#1A1A1A"/>
    <path d="M9.52333 13.3369H7.61646V15.2438H9.52333V13.3369Z" fill="#BFBFBF"/>
    <path d="M11.4303 13.3369H9.52344V15.2438H11.4303V13.3369Z" fill="#BFBFBF"/>
    <path d="M13.337 13.3369H11.4302V15.2438H13.337V13.3369Z" fill="white"/>
    <path d="M15.2438 13.3369H13.3369V15.2438H15.2438V13.3369Z" fill="white"/>
    <path d="M17.1505 13.3369H15.2437V15.2438H17.1505V13.3369Z" fill="white"/>
    <path d="M19.0465 13.3369H17.1396V15.2438H19.0465V13.3369Z" fill="white"/>
    <path d="M20.9532 13.3369H19.0464V15.2438H20.9532V13.3369Z" fill="#BFBFBF"/>
    <path d="M22.8602 13.3369H20.9534V15.2438H22.8602V13.3369Z" fill="white"/>
    <path d="M24.7672 13.3369H22.8604V15.2438H24.7672V13.3369Z" fill="white"/>
    <path d="M26.6739 13.3369H24.7671V15.2438H26.6739V13.3369Z" fill="white"/>
    <path d="M28.5699 13.3369H26.6631V15.2438H28.5699V13.3369Z" fill="white"/>
    <path d="M30.4767 13.3369H28.5698V15.2438H30.4767V13.3369Z" fill="#BFBFBF"/>
    <path d="M32.3834 13.3369H30.4766V15.2438H32.3834V13.3369Z" fill="#BFBFBF"/>
    <path d="M34.2904 13.3369H32.3835V15.2438H34.2904V13.3369Z" fill="#1A1A1A"/>
    <path d="M36.1974 13.3369H34.2905V15.2438H36.1974V13.3369Z" fill="#1A1A1A"/>
    <path d="M38.0931 13.3369H36.1863V15.2438H38.0931V13.3369Z" fill="black"/>
    <path d="M40.0001 13.3369H38.0933V15.2438H40.0001V13.3369Z" fill="white"/>
    <path d="M1.90686 15.2329H0V17.1398H1.90686V15.2329Z" fill="white"/>
    <path d="M3.8136 15.2329H1.90674V17.1398H3.8136V15.2329Z" fill="black"/>
    <path d="M5.7206 15.2329H3.81372V17.1398H5.7206V15.2329Z" fill="#1A1A1A"/>
    <path d="M7.62756 15.2329H5.7207V17.1398H7.62756V15.2329Z" fill="white"/>
    <path d="M9.52333 15.2329H7.61646V17.1398H9.52333V15.2329Z" fill="white"/>
    <path d="M11.4303 15.2329H9.52344V17.1398H11.4303V15.2329Z" fill="white"/>
    <path d="M13.337 15.2329H11.4302V17.1398H13.337V15.2329Z" fill="#BFBFBF"/>
    <path d="M15.2438 15.2329H13.3369V17.1398H15.2438V15.2329Z" fill="white"/>
    <path d="M17.1505 15.2329H15.2437V17.1398H17.1505V15.2329Z" fill="white"/>
    <path d="M19.0465 15.2329H17.1396V17.1398H19.0465V15.2329Z" fill="#1A1A1A"/>
    <path d="M20.9532 15.2329H19.0464V17.1398H20.9532V15.2329Z" fill="#1A1A1A"/>
    <path d="M22.8602 15.2329H20.9534V17.1398H22.8602V15.2329Z" fill="#1A1A1A"/>
    <path d="M24.7672 15.2329H22.8604V17.1398H24.7672V15.2329Z" fill="white"/>
    <path d="M26.6739 15.2329H24.7671V17.1398H26.6739V15.2329Z" fill="white"/>
    <path d="M28.5699 15.2329H26.6631V17.1398H28.5699V15.2329Z" fill="#BFBFBF"/>
    <path d="M30.4767 15.2329H28.5698V17.1398H30.4767V15.2329Z" fill="white"/>
    <path d="M32.3834 15.2329H30.4766V17.1398H32.3834V15.2329Z" fill="white"/>
    <path d="M34.2904 15.2329H32.3835V17.1398H34.2904V15.2329Z" fill="white"/>
    <path d="M36.1974 15.2329H34.2905V17.1398H36.1974V15.2329Z" fill="#1A1A1A"/>
    <path d="M38.0931 15.2329H36.1863V17.1398H38.0931V15.2329Z" fill="black"/>
    <path d="M40.0001 15.2329H38.0933V17.1398H40.0001V15.2329Z" fill="white"/>
    <path d="M1.90686 17.1396H0V19.0465H1.90686V17.1396Z" fill="white"/>
    <path d="M3.8136 17.1396H1.90674V19.0465H3.8136V17.1396Z" fill="black"/>
    <path d="M5.7206 17.1396H3.81372V19.0465H5.7206V17.1396Z" fill="#BFBFBF"/>
    <path d="M7.62756 17.1396H5.7207V19.0465H7.62756V17.1396Z" fill="white"/>
    <path d="M9.52333 17.1396H7.61646V19.0465H9.52333V17.1396Z" fill="white"/>
    <path d="M11.4303 17.1396H9.52344V19.0465H11.4303V17.1396Z" fill="white"/>
    <path d="M13.337 17.1396H11.4302V19.0465H13.337V17.1396Z" fill="white"/>
    <path d="M15.2438 17.1396H13.3369V19.0465H15.2438V17.1396Z" fill="#BFBFBF"/>
    <path d="M17.1505 17.1396H15.2437V19.0465H17.1505V17.1396Z" fill="#1A1A1A"/>
    <path d="M19.0465 17.1396H17.1396V19.0465H19.0465V17.1396Z" fill="#1A1A1A"/>
    <path d="M20.9532 17.1396H19.0464V19.0465H20.9532V17.1396Z" fill="#1A1A1A"/>
    <path d="M22.8602 17.1396H20.9534V19.0465H22.8602V17.1396Z" fill="#1A1A1A"/>
    <path d="M24.7672 17.1396H22.8604V19.0465H24.7672V17.1396Z" fill="#1A1A1A"/>
    <path d="M26.6739 17.1396H24.7671V19.0465H26.6739V17.1396Z" fill="#BFBFBF"/>
    <path d="M28.5699 17.1396H26.6631V19.0465H28.5699V17.1396Z" fill="white"/>
    <path d="M30.4767 17.1396H28.5698V19.0465H30.4767V17.1396Z" fill="white"/>
    <path d="M32.3834 17.1396H30.4766V19.0465H32.3834V17.1396Z" fill="white"/>
    <path d="M34.2904 17.1396H32.3835V19.0465H34.2904V17.1396Z" fill="white"/>
    <path d="M36.1974 17.1396H34.2905V19.0465H36.1974V17.1396Z" fill="#BFBFBF"/>
    <path d="M38.0931 17.1396H36.1863V19.0465H38.0931V17.1396Z" fill="black"/>
    <path d="M40.0001 17.1396H38.0933V19.0465H40.0001V17.1396Z" fill="white"/>
    <path d="M1.90686 19.0464H0V20.9532H1.90686V19.0464Z" fill="white"/>
    <path d="M3.8136 19.0464H1.90674V20.9532H3.8136V19.0464Z" fill="black"/>
    <path d="M5.7206 19.0464H3.81372V20.9532H5.7206V19.0464Z" fill="#BFBFBF"/>
    <path d="M7.62756 19.0464H5.7207V20.9532H7.62756V19.0464Z" fill="white"/>
    <path d="M9.52333 19.0464H7.61646V20.9532H9.52333V19.0464Z" fill="white"/>
    <path d="M11.4303 19.0464H9.52344V20.9532H11.4303V19.0464Z" fill="white"/>
    <path d="M13.337 19.0464H11.4302V20.9532H13.337V19.0464Z" fill="white"/>
    <path d="M15.2438 19.0464H13.3369V20.9532H15.2438V19.0464Z" fill="#1A1A1A"/>
    <path d="M17.1505 19.0464H15.2437V20.9532H17.1505V19.0464Z" fill="#1A1A1A"/>
    <path d="M19.0465 19.0464H17.1396V20.9532H19.0465V19.0464Z" fill="#1A1A1A"/>
    <path d="M20.9532 19.0464H19.0464V20.9532H20.9532V19.0464Z" fill="#1A1A1A"/>
    <path d="M22.8602 19.0464H20.9534V20.9532H22.8602V19.0464Z" fill="#1A1A1A"/>
    <path d="M24.7672 19.0464H22.8604V20.9532H24.7672V19.0464Z" fill="#1A1A1A"/>
    <path d="M26.6739 19.0464H24.7671V20.9532H26.6739V19.0464Z" fill="#1A1A1A"/>
    <path d="M28.5699 19.0464H26.6631V20.9532H28.5699V19.0464Z" fill="white"/>
    <path d="M30.4767 19.0464H28.5698V20.9532H30.4767V19.0464Z" fill="white"/>
    <path d="M32.3834 19.0464H30.4766V20.9532H32.3834V19.0464Z" fill="white"/>
    <path d="M34.2904 19.0464H32.3835V20.9532H34.2904V19.0464Z" fill="white"/>
    <path d="M36.1974 19.0464H34.2905V20.9532H36.1974V19.0464Z" fill="#BFBFBF"/>
    <path d="M38.0931 19.0464H36.1863V20.9532H38.0931V19.0464Z" fill="black"/>
    <path d="M40.0001 19.0464H38.0933V20.9532H40.0001V19.0464Z" fill="white"/>
    <path d="M1.90686 20.9534H0V22.8602H1.90686V20.9534Z" fill="white"/>
    <path d="M3.8136 20.9534H1.90674V22.8602H3.8136V20.9534Z" fill="black"/>
    <path d="M5.7206 20.9534H3.81372V22.8602H5.7206V20.9534Z" fill="white"/>
    <path d="M7.62756 20.9534H5.7207V22.8602H7.62756V20.9534Z" fill="#BFBFBF"/>
    <path d="M9.52333 20.9534H7.61646V22.8602H9.52333V20.9534Z" fill="white"/>
    <path d="M11.4303 20.9534H9.52344V22.8602H11.4303V20.9534Z" fill="white"/>
    <path d="M13.337 20.9534H11.4302V22.8602H13.337V20.9534Z" fill="white"/>
    <path d="M15.2438 20.9534H13.3369V22.8602H15.2438V20.9534Z" fill="#1A1A1A"/>
    <path d="M17.1505 20.9534H15.2437V22.8602H17.1505V20.9534Z" fill="#1A1A1A"/>
    <path d="M19.0465 20.9534H17.1396V22.8602H19.0465V20.9534Z" fill="#1A1A1A"/>
    <path d="M20.9532 20.9534H19.0464V22.8602H20.9532V20.9534Z" fill="#1A1A1A"/>
    <path d="M22.8602 20.9534H20.9534V22.8602H22.8602V20.9534Z" fill="#1A1A1A"/>
    <path d="M24.7672 20.9534H22.8604V22.8602H24.7672V20.9534Z" fill="#1A1A1A"/>
    <path d="M26.6739 20.9534H24.7671V22.8602H26.6739V20.9534Z" fill="#1A1A1A"/>
    <path d="M28.5699 20.9534H26.6631V22.8602H28.5699V20.9534Z" fill="white"/>
    <path d="M30.4767 20.9534H28.5698V22.8602H30.4767V20.9534Z" fill="white"/>
    <path d="M32.3834 20.9534H30.4766V22.8602H32.3834V20.9534Z" fill="white"/>
    <path d="M34.2904 20.9534H32.3835V22.8602H34.2904V20.9534Z" fill="#BFBFBF"/>
    <path d="M36.1974 20.9534H34.2905V22.8602H36.1974V20.9534Z" fill="white"/>
    <path d="M38.0931 20.9534H36.1863V22.8602H38.0931V20.9534Z" fill="black"/>
    <path d="M40.0001 20.9534H38.0933V22.8602H40.0001V20.9534Z" fill="white"/>
    <path d="M1.90686 22.8604H0V24.7672H1.90686V22.8604Z" fill="white"/>
    <path d="M3.8136 22.8604H1.90674V24.7672H3.8136V22.8604Z" fill="black"/>
    <path d="M5.7206 22.8604H3.81372V24.7672H5.7206V22.8604Z" fill="white"/>
    <path d="M7.62756 22.8604H5.7207V24.7672H7.62756V22.8604Z" fill="#BFBFBF"/>
    <path d="M9.52333 22.8604H7.61646V24.7672H9.52333V22.8604Z" fill="white"/>
    <path d="M11.4303 22.8604H9.52344V24.7672H11.4303V22.8604Z" fill="white"/>
    <path d="M13.337 22.8604H11.4302V24.7672H13.337V22.8604Z" fill="white"/>
    <path d="M15.2438 22.8604H13.3369V24.7672H15.2438V22.8604Z" fill="white"/>
    <path d="M17.1505 22.8604H15.2437V24.7672H17.1505V22.8604Z" fill="#1A1A1A"/>
    <path d="M19.0465 22.8604H17.1396V24.7672H19.0465V22.8604Z" fill="#1A1A1A"/>
    <path d="M20.9532 22.8604H19.0464V24.7672H20.9532V22.8604Z" fill="#1A1A1A"/>
    <path d="M22.8602 22.8604H20.9534V24.7672H22.8602V22.8604Z" fill="#1A1A1A"/>
    <path d="M24.7672 22.8604H22.8604V24.7672H24.7672V22.8604Z" fill="#1A1A1A"/>
    <path d="M26.6739 22.8604H24.7671V24.7672H26.6739V22.8604Z" fill="white"/>
    <path d="M28.5699 22.8604H26.6631V24.7672H28.5699V22.8604Z" fill="white"/>
    <path d="M30.4767 22.8604H28.5698V24.7672H30.4767V22.8604Z" fill="white"/>
    <path d="M32.3834 22.8604H30.4766V24.7672H32.3834V22.8604Z" fill="white"/>
    <path d="M34.2904 22.8604H32.3835V24.7672H34.2904V22.8604Z" fill="#BFBFBF"/>
    <path d="M36.1974 22.8604H34.2905V24.7672H36.1974V22.8604Z" fill="white"/>
    <path d="M38.0931 22.8604H36.1863V24.7672H38.0931V22.8604Z" fill="black"/>
    <path d="M40.0001 22.8604H38.0933V24.7672H40.0001V22.8604Z" fill="white"/>
    <path d="M1.90686 24.7561H0V26.663H1.90686V24.7561Z" fill="white"/>
    <path d="M3.8136 24.7561H1.90674V26.663H3.8136V24.7561Z" fill="black"/>
    <path d="M5.7206 24.7561H3.81372V26.663H5.7206V24.7561Z" fill="white"/>
    <path d="M7.62756 24.7561H5.7207V26.663H7.62756V24.7561Z" fill="#BFBFBF"/>
    <path d="M9.52333 24.7561H7.61646V26.663H9.52333V24.7561Z" fill="white"/>
    <path d="M11.4303 24.7561H9.52344V26.663H11.4303V24.7561Z" fill="white"/>
    <path d="M13.337 24.7561H11.4302V26.663H13.337V24.7561Z" fill="white"/>
    <path d="M15.2438 24.7561H13.3369V26.663H15.2438V24.7561Z" fill="#BFBFBF"/>
    <path d="M17.1505 24.7561H15.2437V26.663H17.1505V24.7561Z" fill="white"/>
    <path d="M19.0465 24.7561H17.1396V26.663H19.0465V24.7561Z" fill="#1A1A1A"/>
    <path d="M20.9532 24.7561H19.0464V26.663H20.9532V24.7561Z" fill="#1A1A1A"/>
    <path d="M22.8602 24.7561H20.9534V26.663H22.8602V24.7561Z" fill="#1A1A1A"/>
    <path d="M24.7672 24.7561H22.8604V26.663H24.7672V24.7561Z" fill="white"/>
    <path d="M26.6739 24.7561H24.7671V26.663H26.6739V24.7561Z" fill="#BFBFBF"/>
    <path d="M28.5699 24.7561H26.6631V26.663H28.5699V24.7561Z" fill="white"/>
    <path d="M30.4767 24.7561H28.5698V26.663H30.4767V24.7561Z" fill="white"/>
    <path d="M32.3834 24.7561H30.4766V26.663H32.3834V24.7561Z" fill="white"/>
    <path d="M34.2904 24.7561H32.3835V26.663H34.2904V24.7561Z" fill="#BFBFBF"/>
    <path d="M36.1974 24.7561H34.2905V26.663H36.1974V24.7561Z" fill="white"/>
    <path d="M38.0931 24.7561H36.1863V26.663H38.0931V24.7561Z" fill="black"/>
    <path d="M40.0001 24.7561H38.0933V26.663H40.0001V24.7561Z" fill="white"/>
    <path d="M3.8136 26.6628H1.90674V28.5697H3.8136V26.6628Z" fill="black"/>
    <path d="M5.7206 26.6628H3.81372V28.5697H5.7206V26.6628Z" fill="#1A1A1A"/>
    <path d="M7.62756 26.6628H5.7207V28.5697H7.62756V26.6628Z" fill="#1A1A1A"/>
    <path d="M9.52333 26.6628H7.61646V28.5697H9.52333V26.6628Z" fill="#1A1A1A"/>
    <path d="M11.4303 26.6628H9.52344V28.5697H11.4303V26.6628Z" fill="white"/>
    <path d="M13.337 26.6628H11.4302V28.5697H13.337V26.6628Z" fill="#BFBFBF"/>
    <path d="M15.2438 26.6628H13.3369V28.5697H15.2438V26.6628Z" fill="white"/>
    <path d="M17.1505 26.6628H15.2437V28.5697H17.1505V26.6628Z" fill="white"/>
    <path d="M19.0465 26.6628H17.1396V28.5697H19.0465V26.6628Z" fill="white"/>
    <path d="M20.9532 26.6628H19.0464V28.5697H20.9532V26.6628Z" fill="white"/>
    <path d="M22.8602 26.6628H20.9534V28.5697H22.8602V26.6628Z" fill="white"/>
    <path d="M24.7672 26.6628H22.8604V28.5697H24.7672V26.6628Z" fill="white"/>
    <path d="M26.6739 26.6628H24.7671V28.5697H26.6739V26.6628Z" fill="white"/>
    <path d="M28.5699 26.6628H26.6631V28.5697H28.5699V26.6628Z" fill="#BFBFBF"/>
    <path d="M30.4767 26.6628H28.5698V28.5697H30.4767V26.6628Z" fill="white"/>
    <path d="M32.3834 26.6628H30.4766V28.5697H32.3834V26.6628Z" fill="#1A1A1A"/>
    <path d="M34.2904 26.6628H32.3835V28.5697H34.2904V26.6628Z" fill="#1A1A1A"/>
    <path d="M36.1974 26.6628H34.2905V28.5697H36.1974V26.6628Z" fill="black"/>
    <path d="M38.0931 26.6628H36.1863V28.5697H38.0931V26.6628Z" fill="black"/>
    <path d="M3.8136 28.5698H1.90674V30.4767H3.8136V28.5698Z" fill="white"/>
    <path d="M5.7206 28.5698H3.81372V30.4767H5.7206V28.5698Z" fill="black"/>
    <path d="M7.62756 28.5698H5.7207V30.4767H7.62756V28.5698Z" fill="#1A1A1A"/>
    <path d="M9.52333 28.5698H7.61646V30.4767H9.52333V28.5698Z" fill="#1A1A1A"/>
    <path d="M11.4303 28.5698H9.52344V30.4767H11.4303V28.5698Z" fill="#1A1A1A"/>
    <path d="M13.337 28.5698H11.4302V30.4767H13.337V28.5698Z" fill="#BFBFBF"/>
    <path d="M15.2438 28.5698H13.3369V30.4767H15.2438V28.5698Z" fill="white"/>
    <path d="M17.1505 28.5698H15.2437V30.4767H17.1505V28.5698Z" fill="white"/>
    <path d="M19.0465 28.5698H17.1396V30.4767H19.0465V28.5698Z" fill="white"/>
    <path d="M20.9532 28.5698H19.0464V30.4767H20.9532V28.5698Z" fill="white"/>
    <path d="M22.8602 28.5698H20.9534V30.4767H22.8602V28.5698Z" fill="white"/>
    <path d="M24.7672 28.5698H22.8604V30.4767H24.7672V28.5698Z" fill="white"/>
    <path d="M26.6739 28.5698H24.7671V30.4767H26.6739V28.5698Z" fill="white"/>
    <path d="M28.5699 28.5698H26.6631V30.4767H28.5699V28.5698Z" fill="#BFBFBF"/>
    <path d="M30.4767 28.5698H28.5698V30.4767H30.4767V28.5698Z" fill="#1A1A1A"/>
    <path d="M32.3834 28.5698H30.4766V30.4767H32.3834V28.5698Z" fill="#1A1A1A"/>
    <path d="M34.2904 28.5698H32.3835V30.4767H34.2904V28.5698Z" fill="#1A1A1A"/>
    <path d="M36.1974 28.5698H34.2905V30.4767H36.1974V28.5698Z" fill="black"/>
    <path d="M38.0931 28.5698H36.1863V30.4767H38.0931V28.5698Z" fill="white"/>
    <path d="M3.8136 30.4768H1.90674V32.3837H3.8136V30.4768Z" fill="white"/>
    <path d="M5.7206 30.4768H3.81372V32.3837H5.7206V30.4768Z" fill="white"/>
    <path d="M7.62756 30.4768H5.7207V32.3837H7.62756V30.4768Z" fill="black"/>
    <path d="M9.52333 30.4768H7.61646V32.3837H9.52333V30.4768Z" fill="#1A1A1A"/>
    <path d="M11.4303 30.4768H9.52344V32.3837H11.4303V30.4768Z" fill="#1A1A1A"/>
    <path d="M13.337 30.4768H11.4302V32.3837H13.337V30.4768Z" fill="white"/>
    <path d="M15.2438 30.4768H13.3369V32.3837H15.2438V30.4768Z" fill="white"/>
    <path d="M17.1505 30.4768H15.2437V32.3837H17.1505V30.4768Z" fill="white"/>
    <path d="M19.0465 30.4768H17.1396V32.3837H19.0465V30.4768Z" fill="white"/>
    <path d="M20.9532 30.4768H19.0464V32.3837H20.9532V30.4768Z" fill="white"/>
    <path d="M22.8602 30.4768H20.9534V32.3837H22.8602V30.4768Z" fill="white"/>
    <path d="M24.7672 30.4768H22.8604V32.3837H24.7672V30.4768Z" fill="white"/>
    <path d="M26.6739 30.4768H24.7671V32.3837H26.6739V30.4768Z" fill="white"/>
    <path d="M28.5699 30.4768H26.6631V32.3837H28.5699V30.4768Z" fill="white"/>
    <path d="M30.4767 30.4768H28.5698V32.3837H30.4767V30.4768Z" fill="#1A1A1A"/>
    <path d="M32.3834 30.4768H30.4766V32.3837H32.3834V30.4768Z" fill="#1A1A1A"/>
    <path d="M34.2904 30.4768H32.3835V32.3837H34.2904V30.4768Z" fill="black"/>
    <path d="M36.1974 30.4768H34.2905V32.3837H36.1974V30.4768Z" fill="white"/>
    <path d="M38.0931 30.4768H36.1863V32.3837H38.0931V30.4768Z" fill="white"/>
    <path d="M5.7206 32.3838H3.81372V34.2907H5.7206V32.3838Z" fill="white"/>
    <path d="M7.62756 32.3838H5.7207V34.2907H7.62756V32.3838Z" fill="white"/>
    <path d="M9.52333 32.3838H7.61646V34.2907H9.52333V32.3838Z" fill="black"/>
    <path d="M11.4303 32.3838H9.52344V34.2907H11.4303V32.3838Z" fill="#1A1A1A"/>
    <path d="M13.337 32.3838H11.4302V34.2907H13.337V32.3838Z" fill="#1A1A1A"/>
    <path d="M15.2438 32.3838H13.3369V34.2907H15.2438V32.3838Z" fill="#BFBFBF"/>
    <path d="M17.1505 32.3838H15.2437V34.2907H17.1505V32.3838Z" fill="white"/>
    <path d="M19.0465 32.3838H17.1396V34.2907H19.0465V32.3838Z" fill="white"/>
    <path d="M20.9532 32.3838H19.0464V34.2907H20.9532V32.3838Z" fill="white"/>
    <path d="M22.8602 32.3838H20.9534V34.2907H22.8602V32.3838Z" fill="white"/>
    <path d="M24.7672 32.3838H22.8604V34.2907H24.7672V32.3838Z" fill="#BFBFBF"/>
    <path d="M26.6739 32.3838H24.7671V34.2907H26.6739V32.3838Z" fill="#BFBFBF"/>
    <path d="M28.5699 32.3838H26.6631V34.2907H28.5699V32.3838Z" fill="#1A1A1A"/>
    <path d="M30.4767 32.3838H28.5698V34.2907H30.4767V32.3838Z" fill="#1A1A1A"/>
    <path d="M32.3834 32.3838H30.4766V34.2907H32.3834V32.3838Z" fill="black"/>
    <path d="M34.2904 32.3838H32.3835V34.2907H34.2904V32.3838Z" fill="white"/>
    <path d="M36.1974 32.3838H34.2905V34.2907H36.1974V32.3838Z" fill="white"/>
    <path d="M7.62756 34.2793H5.7207V36.1862H7.62756V34.2793Z" fill="white"/>
    <path d="M9.52333 34.2793H7.61646V36.1862H9.52333V34.2793Z" fill="white"/>
    <path d="M11.4303 34.2793H9.52344V36.1862H11.4303V34.2793Z" fill="black"/>
    <path d="M13.337 34.2793H11.4302V36.1862H13.337V34.2793Z" fill="black"/>
    <path d="M15.2438 34.2793H13.3369V36.1862H15.2438V34.2793Z" fill="white"/>
    <path d="M17.1505 34.2793H15.2437V36.1862H17.1505V34.2793Z" fill="#BFBFBF"/>
    <path d="M19.0465 34.2793H17.1396V36.1862H19.0465V34.2793Z" fill="#BFBFBF"/>
    <path d="M20.9532 34.2793H19.0464V36.1862H20.9532V34.2793Z" fill="#BFBFBF"/>
    <path d="M22.8602 34.2793H20.9534V36.1862H22.8602V34.2793Z" fill="#BFBFBF"/>
    <path d="M24.7672 34.2793H22.8604V36.1862H24.7672V34.2793Z" fill="white"/>
    <path d="M26.6739 34.2793H24.7671V36.1862H26.6739V34.2793Z" fill="white"/>
    <path d="M28.5699 34.2793H26.6631V36.1862H28.5699V34.2793Z" fill="black"/>
    <path d="M30.4767 34.2793H28.5698V36.1862H30.4767V34.2793Z" fill="black"/>
    <path d="M32.3834 34.2793H30.4766V36.1862H32.3834V34.2793Z" fill="white"/>
    <path d="M34.2904 34.2793H32.3835V36.1862H34.2904V34.2793Z" fill="white"/>
    <path d="M9.52333 36.1865H7.61646V38.0934H9.52333V36.1865Z" fill="white"/>
    <path d="M11.4303 36.1865H9.52344V38.0934H11.4303V36.1865Z" fill="white"/>
    <path d="M13.337 36.1865H11.4302V38.0934H13.337V36.1865Z" fill="white"/>
    <path d="M15.2438 36.1865H13.3369V38.0934H15.2438V36.1865Z" fill="black"/>
    <path d="M17.1505 36.1865H15.2437V38.0934H17.1505V36.1865Z" fill="black"/>
    <path d="M19.0465 36.1865H17.1396V38.0934H19.0465V36.1865Z" fill="black"/>
    <path d="M20.9532 36.1865H19.0464V38.0934H20.9532V36.1865Z" fill="black"/>
    <path d="M22.8602 36.1865H20.9534V38.0934H22.8602V36.1865Z" fill="black"/>
    <path d="M24.7672 36.1865H22.8604V38.0934H24.7672V36.1865Z" fill="black"/>
    <path d="M26.6739 36.1865H24.7671V38.0934H26.6739V36.1865Z" fill="black"/>
    <path d="M28.5699 36.1865H26.6631V38.0934H28.5699V36.1865Z" fill="white"/>
    <path d="M30.4767 36.1865H28.5698V38.0934H30.4767V36.1865Z" fill="white"/>
    <path d="M32.3834 36.1865H30.4766V38.0934H32.3834V36.1865Z" fill="white"/>
    <path d="M13.337 38.0928H11.4302V39.9996H13.337V38.0928Z" fill="white"/>
    <path d="M15.2438 38.0928H13.3369V39.9996H15.2438V38.0928Z" fill="white"/>
    <path d="M17.1505 38.0928H15.2437V39.9996H17.1505V38.0928Z" fill="white"/>
    <path d="M19.0465 38.0928H17.1396V39.9996H19.0465V38.0928Z" fill="white"/>
    <path d="M20.9532 38.0928H19.0464V39.9996H20.9532V38.0928Z" fill="white"/>
    <path d="M22.8602 38.0928H20.9534V39.9996H22.8602V38.0928Z" fill="white"/>
    <path d="M24.7672 38.0928H22.8604V39.9996H24.7672V38.0928Z" fill="white"/>
    <path d="M26.6739 38.0928H24.7671V39.9996H26.6739V38.0928Z" fill="white"/>
    <path d="M28.5699 38.0928H26.6631V39.9996H28.5699V38.0928Z" fill="white"/>
</svg>
