<svg width="45" height="40" viewBox="0 0 45 40" fill="none" xmlns="http://www.w3.org/2000/svg">
    <path d="M11.7633 0H9.40796V2.35535H11.7633V0Z" fill="white"/>
    <path d="M14.118 0H11.7627V2.35535H14.118V0Z" fill="white"/>
    <path d="M16.474 0H14.1187V2.35535H16.474V0Z" fill="white"/>
    <path d="M30.5928 0H28.2374V2.35535H30.5928V0Z" fill="white"/>
    <path d="M32.9341 0H30.5787V2.35535H32.9341V0Z" fill="white"/>
    <path d="M35.29 0H32.9347V2.35535H35.29V0Z" fill="white"/>
    <path d="M9.40735 2.35547H7.052V4.71081H9.40735V2.35547Z" fill="white"/>
    <path d="M11.7633 2.35547H9.40796V4.71081H11.7633V2.35547Z" fill="black"/>
    <path d="M14.1183 2.35547H11.7629V4.71081H14.1183V2.35547Z" fill="black"/>
    <path d="M16.4741 2.35547H14.1188V4.71081H16.4741V2.35547Z" fill="black"/>
    <path d="M18.8287 2.35547H16.4734V4.71081H18.8287V2.35547Z" fill="white"/>
    <path d="M28.2367 2.35547H25.8813V4.71081H28.2367V2.35547Z" fill="white"/>
    <path d="M30.5928 2.35547H28.2374V4.71081H30.5928V2.35547Z" fill="black"/>
    <path d="M32.9341 2.35547H30.5787V4.71081H32.9341V2.35547Z" fill="black"/>
    <path d="M35.29 2.35547H32.9347V4.71081H35.29V2.35547Z" fill="black"/>
    <path d="M37.6447 2.35547H35.2893V4.71081H37.6447V2.35547Z" fill="white"/>
    <path d="M7.06592 4.71094H4.71057V7.06628H7.06592V4.71094Z" fill="white"/>
    <path d="M9.40735 4.71094H7.052V7.06628H9.40735V4.71094Z" fill="black"/>
    <path d="M11.7633 4.71094H9.40796V7.06628H11.7633V4.71094Z" fill="#BD1E55"/>
    <path d="M18.8287 4.71094H16.4734V7.06628H18.8287V4.71094Z" fill="black"/>
    <path d="M21.1715 4.71094H18.8162V7.06628H21.1715V4.71094Z" fill="white"/>
    <path d="M25.882 4.71094H23.5266V7.06628H25.882V4.71094Z" fill="white"/>
    <path d="M28.2367 4.71094H25.8813V7.06628H28.2367V4.71094Z" fill="black"/>
    <path d="M30.5928 4.71094H28.2374V7.06628H30.5928V4.71094Z" fill="#E05080"/>
    <path d="M32.9341 4.71094H30.5787V7.06628H32.9341V4.71094Z" fill="#E05080"/>
    <path d="M35.2902 4.71094H32.9348V7.06628H35.2902V4.71094Z" fill="#E05080"/>
    <path d="M37.6447 4.71094H35.2893V7.06628H37.6447V4.71094Z" fill="black"/>
    <path d="M40.0006 4.71094H37.6453V7.06628H40.0006V4.71094Z" fill="white"/>
    <path d="M4.71155 7.05273H2.3562V9.40808H4.71155V7.05273Z" fill="white"/>
    <path d="M7.06592 7.05273H4.71057V9.40808H7.06592V7.05273Z" fill="black"/>
    <path d="M9.40735 7.05273H7.052V9.40808H9.40735V7.05273Z" fill="#BD1E55"/>
    <path d="M14.118 7.05273H11.7627V9.40808H14.118V7.05273Z" fill="#E05080"/>
    <path d="M16.4741 7.05273H14.1188V9.40808H16.4741V7.05273Z" fill="#E05080"/>
    <path d="M18.8287 7.05273H16.4734V9.40808H18.8287V7.05273Z" fill="#E05080"/>
    <path d="M21.1715 7.05273H18.8162V9.40808H21.1715V7.05273Z" fill="black"/>
    <path d="M23.5262 7.05273H21.1709V9.40808H23.5262V7.05273Z" fill="white"/>
    <path d="M25.882 7.05273H23.5266V9.40808H25.882V7.05273Z" fill="black"/>
    <path d="M28.2367 7.05273H25.8813V9.40808H28.2367V7.05273Z" fill="#E05080"/>
    <path d="M30.5927 7.05273H28.2373V9.40808H30.5927V7.05273Z" fill="#E05080"/>
    <path d="M32.9341 7.05273H30.5787V9.40808H32.9341V7.05273Z" fill="white"/>
    <path d="M35.29 7.05273H32.9347V9.40808H35.29V7.05273Z" fill="#E05080"/>
    <path d="M37.6447 7.05273H35.2893V9.40808H37.6447V7.05273Z" fill="#E05080"/>
    <path d="M40.0006 7.05273H37.6453V9.40808H40.0006V7.05273Z" fill="black"/>
    <path d="M42.3553 7.05273H40V9.40808H42.3553V7.05273Z" fill="white"/>
    <path d="M2.35535 9.4082H0V11.7636H2.35535V9.4082Z" fill="white"/>
    <path d="M4.71155 9.4082H2.3562V11.7636H4.71155V9.4082Z" fill="black"/>
    <path d="M7.06592 9.4082H4.71057V11.7636H7.06592V9.4082Z" fill="#BD1E55"/>
    <path d="M11.7633 9.4082H9.40796V11.7636H11.7633V9.4082Z" fill="#E05080"/>
    <path d="M14.118 9.4082H11.7627V11.7636H14.118V9.4082Z" fill="#E05080"/>
    <path d="M16.4741 9.4082H14.1188V11.7636H16.4741V9.4082Z" fill="#E05080"/>
    <path d="M18.8287 9.4082H16.4734V11.7636H18.8287V9.4082Z" fill="#E05080"/>
    <path d="M21.1715 9.4082H18.8162V11.7636H21.1715V9.4082Z" fill="#E05080"/>
    <path d="M23.526 9.40771H21.1707V11.7631H23.526V9.40771Z" fill="black"/>
    <path d="M25.882 9.4082H23.5266V11.7636H25.882V9.4082Z" fill="#E05080"/>
    <path d="M28.2367 9.40771H25.8813V11.7631H28.2367V9.40771Z" fill="#E05080"/>
    <path d="M30.5928 9.40771H28.2374V11.7631H30.5928V9.40771Z" fill="#E05080"/>
    <path d="M32.9341 9.4082H30.5787V11.7636H32.9341V9.4082Z" fill="#E05080"/>
    <path d="M35.2902 9.4082H32.9348V11.7636H35.2902V9.4082Z" fill="white"/>
    <path d="M37.6447 9.4082H35.2893V11.7636H37.6447V9.4082Z" fill="#E05080"/>
    <path d="M40.0006 9.4082H37.6453V11.7636H40.0006V9.4082Z" fill="#E05080"/>
    <path d="M42.3553 9.4082H40V11.7636H42.3553V9.4082Z" fill="black"/>
    <path d="M44.6965 9.4082H42.3412V11.7636H44.6965V9.4082Z" fill="white"/>
    <path d="M2.35535 11.7632H0V14.1185H2.35535V11.7632Z" fill="white"/>
    <path d="M4.71155 11.7632H2.3562V14.1185H4.71155V11.7632Z" fill="black"/>
    <path d="M7.06592 11.7632H4.71057V14.1185H7.06592V11.7632Z" fill="#BD1E55"/>
    <path d="M11.7633 11.7632H9.40796V14.1185H11.7633V11.7632Z" fill="#E05080"/>
    <path d="M14.118 11.7632H11.7627V14.1185H14.118V11.7632Z" fill="#E05080"/>
    <path d="M16.4741 11.7632H14.1188V14.1185H16.4741V11.7632Z" fill="#E05080"/>
    <path d="M18.8287 11.7632H16.4734V14.1185H18.8287V11.7632Z" fill="#E05080"/>
    <path d="M21.1715 11.7632H18.8162V14.1185H21.1715V11.7632Z" fill="#E05080"/>
    <path d="M23.526 11.7627H21.1707V14.118H23.526V11.7627Z" fill="#E05080"/>
    <path d="M25.882 11.7632H23.5266V14.1185H25.882V11.7632Z" fill="#E05080"/>
    <path d="M28.2368 11.7632H25.8815V14.1185H28.2368V11.7632Z" fill="#E05080"/>
    <path d="M30.5927 11.7627H28.2373V14.118H30.5927V11.7627Z" fill="#E05080"/>
    <path d="M32.9341 11.7632H30.5787V14.1185H32.9341V11.7632Z" fill="#E05080"/>
    <path d="M35.2902 11.7632H32.9348V14.1185H35.2902V11.7632Z" fill="white"/>
    <path d="M37.6447 11.7632H35.2893V14.1185H37.6447V11.7632Z" fill="#E05080"/>
    <path d="M40.0006 11.7632H37.6453V14.1185H40.0006V11.7632Z" fill="#E05080"/>
    <path d="M42.3553 11.7632H40V14.1185H42.3553V11.7632Z" fill="black"/>
    <path d="M44.6965 11.7632H42.3412V14.1185H44.6965V11.7632Z" fill="white"/>
    <path d="M2.35535 14.1187H0V16.474H2.35535V14.1187Z" fill="white"/>
    <path d="M4.71155 14.1187H2.3562V16.474H4.71155V14.1187Z" fill="black"/>
    <path d="M7.06592 14.1187H4.71057V16.474H7.06592V14.1187Z" fill="#BD1E55"/>
    <path d="M11.7633 14.1187H9.40796V16.474H11.7633V14.1187Z" fill="#E05080"/>
    <path d="M14.118 14.1187H11.7627V16.474H14.118V14.1187Z" fill="#E05080"/>
    <path d="M16.474 14.1187H14.1187V16.474H16.474V14.1187Z" fill="#E05080"/>
    <path d="M18.8287 14.1187H16.4734V16.474H18.8287V14.1187Z" fill="#E05080"/>
    <path d="M21.1715 14.1187H18.8162V16.474H21.1715V14.1187Z" fill="#E05080"/>
    <path d="M23.526 14.1187H21.1707V16.474H23.526V14.1187Z" fill="#E05080"/>
    <path d="M25.882 14.1187H23.5266V16.474H25.882V14.1187Z" fill="#E05080"/>
    <path d="M28.2367 14.1187H25.8813V16.474H28.2367V14.1187Z" fill="#E05080"/>
    <path d="M30.5928 14.1187H28.2374V16.474H30.5928V14.1187Z" fill="#E05080"/>
    <path d="M32.9341 14.1187H30.5787V16.474H32.9341V14.1187Z" fill="#E05080"/>
    <path d="M35.29 14.1187H32.9347V16.474H35.29V14.1187Z" fill="#E05080"/>
    <path d="M37.6447 14.1187H35.2893V16.474H37.6447V14.1187Z" fill="#E05080"/>
    <path d="M40.0006 14.1187H37.6453V16.474H40.0006V14.1187Z" fill="#E05080"/>
    <path d="M42.3553 14.1187H40V16.474H42.3553V14.1187Z" fill="black"/>
    <path d="M44.6967 14.1187H42.3413V16.474H44.6967V14.1187Z" fill="white"/>
    <path d="M2.35535 16.4736H0V18.829H2.35535V16.4736Z" fill="white"/>
    <path d="M4.71155 16.4736H2.3562V18.829H4.71155V16.4736Z" fill="black"/>
    <path d="M7.06592 16.4736H4.71057V18.829H7.06592V16.4736Z" fill="#931C3D"/>
    <path d="M9.40747 16.4736H7.05212V18.829H9.40747V16.4736Z" fill="#BD1E55"/>
    <path d="M14.118 16.4736H11.7627V18.829H14.118V16.4736Z" fill="#E05080"/>
    <path d="M16.474 16.4736H14.1187V18.829H16.474V16.4736Z" fill="#E05080"/>
    <path d="M18.8287 16.4736H16.4734V18.829H18.8287V16.4736Z" fill="#E05080"/>
    <path d="M21.1715 16.4736H18.8162V18.829H21.1715V16.4736Z" fill="#E05080"/>
    <path d="M23.526 16.4736H21.1707V18.829H23.526V16.4736Z" fill="#E05080"/>
    <path d="M25.8818 16.4736H23.5265V18.829H25.8818V16.4736Z" fill="#E05080"/>
    <path d="M28.2368 16.4736H25.8815V18.829H28.2368V16.4736Z" fill="#E05080"/>
    <path d="M30.5928 16.4736H28.2374V18.829H30.5928V16.4736Z" fill="#E05080"/>
    <path d="M32.9341 16.4736H30.5787V18.829H32.9341V16.4736Z" fill="white"/>
    <path d="M35.29 16.4736H32.9347V18.829H35.29V16.4736Z" fill="#E05080"/>
    <path d="M37.6447 16.4736H35.2893V18.829H37.6447V16.4736Z" fill="#E05080"/>
    <path d="M40.0006 16.4736H37.6453V18.829H40.0006V16.4736Z" fill="#E05080"/>
    <path d="M42.3553 16.4736H40V18.829H42.3553V16.4736Z" fill="black"/>
    <path d="M44.6965 16.4736H42.3412V18.829H44.6965V16.4736Z" fill="white"/>
    <path d="M4.71155 18.8149H2.3562V21.1703H4.71155V18.8149Z" fill="white"/>
    <path d="M7.06592 18.8149H4.71057V21.1703H7.06592V18.8149Z" fill="black"/>
    <path d="M9.40735 18.8149H7.052V21.1703H9.40735V18.8149Z" fill="#931C3D"/>
    <path d="M11.7633 18.8154H9.40796V21.1708H11.7633V18.8154Z" fill="#BD1E55"/>
    <path d="M16.4741 18.8154H14.1188V21.1708H16.4741V18.8154Z" fill="#E05080"/>
    <path d="M18.8287 18.8154H16.4734V21.1708H18.8287V18.8154Z" fill="#E05080"/>
    <path d="M21.1715 18.8149H18.8162V21.1703H21.1715V18.8149Z" fill="#E05080"/>
    <path d="M23.526 18.8149H21.1707V21.1703H23.526V18.8149Z" fill="#E05080"/>
    <path d="M25.882 18.8149H23.5266V21.1703H25.882V18.8149Z" fill="#E05080"/>
    <path d="M28.2367 18.8149H25.8813V21.1703H28.2367V18.8149Z" fill="#E05080"/>
    <path d="M30.5927 18.8149H28.2373V21.1703H30.5927V18.8149Z" fill="#E05080"/>
    <path d="M32.9341 18.8154H30.5787V21.1708H32.9341V18.8154Z" fill="#E05080"/>
    <path d="M35.2902 18.8154H32.9348V21.1708H35.2902V18.8154Z" fill="#E05080"/>
    <path d="M37.6447 18.8154H35.2893V21.1708H37.6447V18.8154Z" fill="#E05080"/>
    <path d="M40.0006 18.8154H37.6453V21.1708H40.0006V18.8154Z" fill="black"/>
    <path d="M42.3553 18.8154H40V21.1708H42.3553V18.8154Z" fill="white"/>
    <path d="M7.06592 21.1704H4.71057V23.5258H7.06592V21.1704Z" fill="white"/>
    <path d="M9.40735 21.1704H7.052V23.5258H9.40735V21.1704Z" fill="black"/>
    <path d="M11.7633 21.1704H9.40796V23.5258H11.7633V21.1704Z" fill="#931C3D"/>
    <path d="M14.118 21.1709H11.7627V23.5262H14.118V21.1709Z" fill="#BD1E55"/>
    <path d="M18.8287 21.1709H16.4734V23.5262H18.8287V21.1709Z" fill="#E05080"/>
    <path d="M21.1715 21.1704H18.8162V23.5258H21.1715V21.1704Z" fill="#E05080"/>
    <path d="M23.526 21.1704H21.1707V23.5258H23.526V21.1704Z" fill="#E05080"/>
    <path d="M25.882 21.1704H23.5266V23.5258H25.882V21.1704Z" fill="#E05080"/>
    <path d="M28.2367 21.1704H25.8813V23.5258H28.2367V21.1704Z" fill="#E05080"/>
    <path d="M30.5927 21.1704H28.2373V23.5258H30.5927V21.1704Z" fill="#E05080"/>
    <path d="M32.9341 21.1709H30.5787V23.5262H32.9341V21.1709Z" fill="#E05080"/>
    <path d="M35.2902 21.1709H32.9348V23.5262H35.2902V21.1709Z" fill="#E05080"/>
    <path d="M37.6447 21.1704H35.2893V23.5258H37.6447V21.1704Z" fill="black"/>
    <path d="M40.0006 21.1709H37.6453V23.5262H40.0006V21.1709Z" fill="white"/>
    <path d="M9.40735 23.5264H7.052V25.8817H9.40735V23.5264Z" fill="white"/>
    <path d="M11.7633 23.5264H9.40796V25.8817H11.7633V23.5264Z" fill="black"/>
    <path d="M14.1183 23.5264H11.7629V25.8817H14.1183V23.5264Z" fill="#931C3D"/>
    <path d="M16.4741 23.5264H14.1188V25.8817H16.4741V23.5264Z" fill="#BD1E55"/>
    <path d="M21.1715 23.5264H18.8162V25.8817H21.1715V23.5264Z" fill="#E05080"/>
    <path d="M23.526 23.5264H21.1707V25.8817H23.526V23.5264Z" fill="#E05080"/>
    <path d="M25.882 23.5264H23.5266V25.8817H25.882V23.5264Z" fill="#E05080"/>
    <path d="M28.2367 23.5264H25.8813V25.8817H28.2367V23.5264Z" fill="#E05080"/>
    <path d="M30.5927 23.5264H28.2373V25.8817H30.5927V23.5264Z" fill="#E05080"/>
    <path d="M32.9341 23.5264H30.5787V25.8817H32.9341V23.5264Z" fill="#E05080"/>
    <path d="M35.2902 23.5264H32.9348V25.8817H35.2902V23.5264Z" fill="black"/>
    <path d="M37.6447 23.5264H35.2893V25.8817H37.6447V23.5264Z" fill="white"/>
    <path d="M11.7633 25.8813H9.40796V28.2367H11.7633V25.8813Z" fill="white"/>
    <path d="M14.1183 25.8813H11.7629V28.2367H14.1183V25.8813Z" fill="black"/>
    <path d="M16.474 25.8813H14.1187V28.2367H16.474V25.8813Z" fill="#931C3D"/>
    <path d="M18.8287 25.8813H16.4734V28.2367H18.8287V25.8813Z" fill="#BD1E55"/>
    <path d="M23.526 25.8809H21.1707V28.2362H23.526V25.8809Z" fill="#E05080"/>
    <path d="M25.882 25.8813H23.5266V28.2367H25.882V25.8813Z" fill="#E05080"/>
    <path d="M28.2367 25.8813H25.8813V28.2367H28.2367V25.8813Z" fill="#E05080"/>
    <path d="M32.9341 25.8813H30.5787V28.2367H32.9341V25.8813Z" fill="black"/>
    <path d="M35.29 25.8813H32.9347V28.2367H35.29V25.8813Z" fill="white"/>
    <path d="M14.1183 28.2373H11.7629V30.5927H14.1183V28.2373Z" fill="white"/>
    <path d="M16.4741 28.2373H14.1188V30.5927H16.4741V28.2373Z" fill="black"/>
    <path d="M18.8287 28.2373H16.4734V30.5927H18.8287V28.2373Z" fill="#931C3D"/>
    <path d="M21.1715 28.2373H18.8162V30.5927H21.1715V28.2373Z" fill="#BD1E55"/>
    <path d="M25.882 28.2373H23.5266V30.5927H25.882V28.2373Z" fill="#E05080"/>
    <path d="M30.5928 28.2373H28.2374V30.5927H30.5928V28.2373Z" fill="black"/>
    <path d="M32.9341 28.2373H30.5787V30.5927H32.9341V28.2373Z" fill="white"/>
    <path d="M16.4741 30.5791H14.1188V32.9344H16.4741V30.5791Z" fill="white"/>
    <path d="M18.8287 30.5791H16.4734V32.9344H18.8287V30.5791Z" fill="black"/>
    <path d="M21.1715 30.5791H18.8162V32.9344H21.1715V30.5791Z" fill="#931C3D"/>
    <path d="M23.526 30.5786H21.1707V32.934H23.526V30.5786Z" fill="#BD1E55"/>
    <path d="M14.118 4.71094H11.7627V7.06628H14.118V4.71094Z" fill="#D62F73"/>
    <path d="M16.474 4.71094H14.1187V7.06628H16.474V4.71094Z" fill="#D62F73"/>
    <path d="M11.7633 7.05273H9.40796V9.40808H11.7633V7.05273Z" fill="#D62F73"/>
    <path d="M9.40747 9.4082H7.05212V11.7636H9.40747V9.4082Z" fill="#D62F73"/>
    <path d="M9.40735 11.7627H7.052V14.118H9.40735V11.7627Z" fill="#D62F73"/>
    <path d="M9.40735 14.1187H7.052V16.474H9.40735V14.1187Z" fill="#D62F73"/>
    <path d="M11.7633 16.4736H9.40796V18.829H11.7633V16.4736Z" fill="#D62F73"/>
    <path d="M14.118 18.8154H11.7627V21.1708H14.118V18.8154Z" fill="#D62F73"/>
    <path d="M16.4741 21.1709H14.1188V23.5262H16.4741V21.1709Z" fill="#D62F73"/>
    <path d="M18.8287 23.5264H16.4734V25.8817H18.8287V23.5264Z" fill="#D62F73"/>
    <path d="M21.1715 25.8813H18.8162V28.2367H21.1715V25.8813Z" fill="#D62F73"/>
    <path d="M30.5928 25.8813H28.2374V28.2367H30.5928V25.8813Z" fill="#D62F73"/>
    <path d="M23.526 28.2373H21.1707V30.5927H23.526V28.2373Z" fill="#D62F73"/>
    <path d="M28.2367 28.2373H25.8813V30.5927H28.2367V28.2373Z" fill="#D62F73"/>
    <path d="M25.882 30.5791H23.5266V32.9344H25.882V30.5791Z" fill="#D62F73"/>
    <path d="M28.2367 30.5786H25.8813V32.934H28.2367V30.5786Z" fill="black"/>
    <path d="M30.5927 30.5786H28.2373V32.934H30.5927V30.5786Z" fill="white"/>
    <path d="M18.8287 32.9341H16.4734V35.2894H18.8287V32.9341Z" fill="white"/>
    <path d="M21.1715 32.9341H18.8162V35.2894H21.1715V32.9341Z" fill="black"/>
    <path d="M23.526 32.9336H21.1707V35.2889H23.526V32.9336Z" fill="#931C3D"/>
    <path d="M25.882 32.9341H23.5266V35.2894H25.882V32.9341Z" fill="black"/>
    <path d="M28.2367 32.9336H25.8813V35.2889H28.2367V32.9336Z" fill="white"/>
    <path d="M21.1715 35.2891H18.8162V37.6444H21.1715V35.2891Z" fill="white"/>
    <path d="M23.526 35.2891H21.1707V37.6444H23.526V35.2891Z" fill="black"/>
    <path d="M25.882 35.2891H23.5266V37.6444H25.882V35.2891Z" fill="white"/>
    <path d="M23.5262 37.6445H21.1709V39.9999H23.5262V37.6445Z" fill="white"/>
</svg>
