<svg width="80" height="80" viewBox="0 0 80 80" fill="none" xmlns="http://www.w3.org/2000/svg">
    <g clip-path="url(#clip0_1976_10844)">
        <path d="M30.4705 0H26.6628V3.80762H30.4705V0Z" fill="white"/>
        <path d="M34.28 0H30.4724V3.80762H34.28V0Z" fill="white"/>
        <path d="M38.0876 0H34.28V3.80762H38.0876V0Z" fill="white"/>
        <path d="M41.9048 0H38.0971V3.80762H41.9048V0Z" fill="white"/>
        <path d="M45.7105 0H41.9029V3.80762H45.7105V0Z" fill="white"/>
        <path d="M49.52 0H45.7124V3.80762H49.52V0Z" fill="white"/>
        <path d="M53.3276 0H49.52V3.80762H53.3276V0Z" fill="white"/>
        <path d="M22.8552 3.80762H19.0476V7.61524H22.8552V3.80762Z" fill="white"/>
        <path d="M26.6628 3.80762H22.8552V7.61524H26.6628V3.80762Z" fill="white"/>
        <path d="M30.4705 3.80762H26.6628V7.61524H30.4705V3.80762Z" fill="black"/>
        <path d="M34.28 3.80762H30.4724V7.61524H34.28V3.80762Z" fill="black"/>
        <path d="M38.0876 3.80762H34.28V7.61524H38.0876V3.80762Z" fill="black"/>
        <path d="M41.9048 3.80762H38.0971V7.61524H41.9048V3.80762Z" fill="black"/>
        <path d="M45.7105 3.80762H41.9029V7.61524H45.7105V3.80762Z" fill="black"/>
        <path d="M49.52 3.80762H45.7124V7.61524H49.52V3.80762Z" fill="black"/>
        <path d="M53.3276 3.80762H49.52V7.61524H53.3276V3.80762Z" fill="black"/>
        <path d="M57.1352 3.80762H53.3276V7.61524H57.1352V3.80762Z" fill="white"/>
        <path d="M60.9524 3.80762H57.1448V7.61524H60.9524V3.80762Z" fill="white"/>
        <path d="M19.0381 7.61523H15.2305V11.4229H19.0381V7.61523Z" fill="white"/>
        <path d="M22.8552 7.61523H19.0476V11.4229H22.8552V7.61523Z" fill="black"/>
        <path d="M26.6628 7.61523H22.8552V11.4229H26.6628V7.61523Z" fill="black"/>
        <path d="M30.4705 7.61523H26.6628V11.4229H30.4705V7.61523Z" fill="#F2DE98"/>
        <path d="M34.28 7.61523H30.4724V11.4229H34.28V7.61523Z" fill="#F2DE98"/>
        <path d="M38.0876 7.61523H34.28V11.4229H38.0876V7.61523Z" fill="#F2DE98"/>
        <path d="M41.9048 7.61523H38.0971V11.4229H41.9048V7.61523Z" fill="#F2DE98"/>
        <path d="M45.7105 7.61523H41.9029V11.4229H45.7105V7.61523Z" fill="#F2DE98"/>
        <path d="M49.52 7.61523H45.7124V11.4229H49.52V7.61523Z" fill="#F2DE98"/>
        <path d="M53.3276 7.61523H49.52V11.4229H53.3276V7.61523Z" fill="#F2DE98"/>
        <path d="M57.1352 7.61523H53.3276V11.4229H57.1352V7.61523Z" fill="black"/>
        <path d="M60.9524 7.61523H57.1448V11.4229H60.9524V7.61523Z" fill="black"/>
        <path d="M64.76 7.61523H60.9524V11.4229H64.76V7.61523Z" fill="white"/>
        <path d="M15.2305 11.4326H11.4229V15.2402H15.2305V11.4326Z" fill="white"/>
        <path d="M19.0381 11.4326H15.2305V15.2402H19.0381V11.4326Z" fill="black"/>
        <path d="M22.8552 11.4326H19.0476V15.2402H22.8552V11.4326Z" fill="#F2DE98"/>
        <path d="M26.6628 11.4326H22.8552V15.2402H26.6628V11.4326Z" fill="#F2DE98"/>
        <path d="M30.4705 11.4326H26.6628V15.2402H30.4705V11.4326Z" fill="#FFC522"/>
        <path d="M34.28 11.4326H30.4724V15.2402H34.28V11.4326Z" fill="#FFC522"/>
        <path d="M38.0876 11.4326H34.28V15.2402H38.0876V11.4326Z" fill="#FFC522"/>
        <path d="M41.9048 11.4326H38.0971V15.2402H41.9048V11.4326Z" fill="#FFC522"/>
        <path d="M45.7105 11.4326H41.9029V15.2402H45.7105V11.4326Z" fill="#FFC522"/>
        <path d="M49.52 11.4326H45.7124V15.2402H49.52V11.4326Z" fill="#FFC522"/>
        <path d="M53.3276 11.4326H49.52V15.2402H53.3276V11.4326Z" fill="#FFC522"/>
        <path d="M57.1352 11.4326H53.3276V15.2402H57.1352V11.4326Z" fill="#F2DE98"/>
        <path d="M60.9524 11.4326H57.1448V15.2402H60.9524V11.4326Z" fill="#F2DE98"/>
        <path d="M64.76 11.4326H60.9524V15.2402H64.76V11.4326Z" fill="black"/>
        <path d="M68.5676 11.4326H64.76V15.2402H68.5676V11.4326Z" fill="white"/>
        <path d="M11.4229 15.2402H7.61523V19.0479H11.4229V15.2402Z" fill="white"/>
        <path d="M15.2305 15.2402H11.4229V19.0479H15.2305V15.2402Z" fill="black"/>
        <path d="M19.0381 15.2402H15.2305V19.0479H19.0381V15.2402Z" fill="#FF9605"/>
        <path d="M22.8552 15.2402H19.0476V19.0479H22.8552V15.2402Z" fill="#FFC522"/>
        <path d="M26.6628 15.2402H22.8552V19.0479H26.6628V15.2402Z" fill="#FFC522"/>
        <path d="M30.4705 15.2402H26.6628V19.0479H30.4705V15.2402Z" fill="#FFC522"/>
        <path d="M34.28 15.2402H30.4724V19.0479H34.28V15.2402Z" fill="#FFC522"/>
        <path d="M38.0876 15.2402H34.28V19.0479H38.0876V15.2402Z" fill="#FFC522"/>
        <path d="M41.9048 15.2402H38.0971V19.0479H41.9048V15.2402Z" fill="#FFC522"/>
        <path d="M45.7105 15.2402H41.9029V19.0479H45.7105V15.2402Z" fill="white"/>
        <path d="M49.52 15.2402H45.7124V19.0479H49.52V15.2402Z" fill="#FFC522"/>
        <path d="M53.3276 15.2402H49.52V19.0479H53.3276V15.2402Z" fill="white"/>
        <path d="M57.1352 15.2402H53.3276V19.0479H57.1352V15.2402Z" fill="#FFC522"/>
        <path d="M60.9524 15.2402H57.1448V19.0479H60.9524V15.2402Z" fill="#FFC522"/>
        <path d="M64.76 15.2402H60.9524V19.0479H64.76V15.2402Z" fill="#F2DE98"/>
        <path d="M68.5676 15.2402H64.76V19.0479H68.5676V15.2402Z" fill="black"/>
        <path d="M72.3752 15.2402H68.5676V19.0479H72.3752V15.2402Z" fill="white"/>
        <path d="M7.61524 19.0493H3.80762V22.8569H7.61524V19.0493Z" fill="white"/>
        <path d="M11.4229 19.0493H7.61523V22.8569H11.4229V19.0493Z" fill="black"/>
        <path d="M15.2305 19.0493H11.4229V22.8569H15.2305V19.0493Z" fill="#FF9605"/>
        <path d="M19.0381 19.0493H15.2305V22.8569H19.0381V19.0493Z" fill="#FFC522"/>
        <path d="M22.8552 19.0493H19.0476V22.8569H22.8552V19.0493Z" fill="#FFC522"/>
        <path d="M26.6628 19.0493H22.8552V22.8569H26.6628V19.0493Z" fill="#FFC522"/>
        <path d="M30.4705 19.0493H26.6628V22.8569H30.4705V19.0493Z" fill="#FFC522"/>
        <path d="M34.28 19.0493H30.4724V22.8569H34.28V19.0493Z" fill="#FFC522"/>
        <path d="M38.0876 19.0493H34.28V22.8569H38.0876V19.0493Z" fill="#FFC522"/>
        <path d="M41.9048 19.0493H38.0971V22.8569H41.9048V19.0493Z" fill="#FFC522"/>
        <path d="M45.7105 19.0493H41.9029V22.8569H45.7105V19.0493Z" fill="#FFC522"/>
        <path d="M49.52 19.0493H45.7124V22.8569H49.52V19.0493Z" fill="#FFC522"/>
        <path d="M53.3276 19.0493H49.52V22.8569H53.3276V19.0493Z" fill="#FFC522"/>
        <path d="M57.1352 19.0493H53.3276V22.8569H57.1352V19.0493Z" fill="#FFC522"/>
        <path d="M60.9524 19.0493H57.1448V22.8569H60.9524V19.0493Z" fill="#FFC522"/>
        <path d="M64.76 19.0493H60.9524V22.8569H64.76V19.0493Z" fill="#FFC522"/>
        <path d="M68.5676 19.0493H64.76V22.8569H68.5676V19.0493Z" fill="#F2DE98"/>
        <path d="M72.3752 19.0493H68.5676V22.8569H72.3752V19.0493Z" fill="black"/>
        <path d="M76.1829 19.0493H72.3752V22.8569H76.1829V19.0493Z" fill="white"/>
        <path d="M7.61524 22.8555H3.80762V26.6631H7.61524V22.8555Z" fill="white"/>
        <path d="M11.4229 22.8555H7.61523V26.6631H11.4229V22.8555Z" fill="black"/>
        <path d="M15.2305 22.8555H11.4229V26.6631H15.2305V22.8555Z" fill="#FF9605"/>
        <path d="M19.0381 22.8555H15.2305V26.6631H19.0381V22.8555Z" fill="#C1272D"/>
        <path d="M22.8552 22.8555H19.0476V26.6631H22.8552V22.8555Z" fill="#ED1C24"/>
        <path d="M26.6628 22.8555H22.8552V26.6631H26.6628V22.8555Z" fill="#FFC522"/>
        <path d="M30.4705 22.8555H26.6628V26.6631H30.4705V22.8555Z" fill="#ED1C24"/>
        <path d="M34.28 22.8555H30.4724V26.6631H34.28V22.8555Z" fill="#ED1C24"/>
        <path d="M38.0876 22.8555H34.28V26.6631H38.0876V22.8555Z" fill="#FFC522"/>
        <path d="M41.9048 22.8555H38.0971V26.6631H41.9048V22.8555Z" fill="#FFC522"/>
        <path d="M45.7105 22.8555H41.9029V26.6631H45.7105V22.8555Z" fill="#FFC522"/>
        <path d="M49.52 22.8555H45.7124V26.6631H49.52V22.8555Z" fill="#FFC522"/>
        <path d="M53.3276 22.8555H49.52V26.6631H53.3276V22.8555Z" fill="#FFC522"/>
        <path d="M57.1352 22.8555H53.3276V26.6631H57.1352V22.8555Z" fill="#FFC522"/>
        <path d="M60.9524 22.8555H57.1448V26.6631H60.9524V22.8555Z" fill="#FFC522"/>
        <path d="M64.76 22.8555H60.9524V26.6631H64.76V22.8555Z" fill="#FFC522"/>
        <path d="M68.5676 22.8555H64.76V26.6631H68.5676V22.8555Z" fill="#F2DE98"/>
        <path d="M72.3752 22.8555H68.5676V26.6631H72.3752V22.8555Z" fill="black"/>
        <path d="M76.1829 22.8555H72.3752V26.6631H76.1829V22.8555Z" fill="white"/>
        <path d="M3.80762 26.6631H0V30.4707H3.80762V26.6631Z" fill="white"/>
        <path d="M7.61524 26.6631H3.80762V30.4707H7.61524V26.6631Z" fill="black"/>
        <path d="M11.4229 26.6631H7.61523V30.4707H11.4229V26.6631Z" fill="#1A1A1A"/>
        <path d="M15.2305 26.6631H11.4229V30.4707H15.2305V26.6631Z" fill="#C1272D"/>
        <path d="M19.0381 26.6631H15.2305V30.4707H19.0381V26.6631Z" fill="#ED1C24"/>
        <path d="M22.8552 26.6631H19.0476V30.4707H22.8552V26.6631Z" fill="#ED1C24"/>
        <path d="M26.6628 26.6631H22.8552V30.4707H26.6628V26.6631Z" fill="#ED1C24"/>
        <path d="M30.4705 26.6631H26.6628V30.4707H30.4705V26.6631Z" fill="#ED1C24"/>
        <path d="M34.28 26.6631H30.4724V30.4707H34.28V26.6631Z" fill="#ED1C24"/>
        <path d="M38.0876 26.6631H34.28V30.4707H38.0876V26.6631Z" fill="#C1272D"/>
        <path d="M41.9048 26.6631H38.0971V30.4707H41.9048V26.6631Z" fill="#FFC522"/>
        <path d="M45.7105 26.6631H41.9029V30.4707H45.7105V26.6631Z" fill="#FFC522"/>
        <path d="M49.52 26.6631H45.7124V30.4707H49.52V26.6631Z" fill="#FFC522"/>
        <path d="M53.3276 26.6631H49.52V30.4707H53.3276V26.6631Z" fill="#FFC522"/>
        <path d="M57.1352 26.6631H53.3276V30.4707H57.1352V26.6631Z" fill="#FFC522"/>
        <path d="M60.9524 26.6631H57.1448V30.4707H60.9524V26.6631Z" fill="#FFC522"/>
        <path d="M64.76 26.6631H60.9524V30.4707H64.76V26.6631Z" fill="#FFC522"/>
        <path d="M68.5676 26.6631H64.76V30.4707H68.5676V26.6631Z" fill="#F2DE98"/>
        <path d="M72.3752 26.6631H68.5676V30.4707H72.3752V26.6631Z" fill="#1A1A1A"/>
        <path d="M76.1829 26.6631H72.3752V30.4707H76.1829V26.6631Z" fill="black"/>
        <path d="M80 26.6631H76.1924V30.4707H80V26.6631Z" fill="white"/>
        <path d="M3.80762 30.48H0V34.2876H3.80762V30.48Z" fill="white"/>
        <path d="M7.61524 30.48H3.80762V34.2876H7.61524V30.48Z" fill="black"/>
        <path d="M11.4229 30.48H7.61523V34.2876H11.4229V30.48Z" fill="#FF9605"/>
        <path d="M15.2305 30.48H11.4229V34.2876H15.2305V30.48Z" fill="#FFC522"/>
        <path d="M19.0381 30.48H15.2305V34.2876H19.0381V30.48Z" fill="#C1272D"/>
        <path d="M22.8552 30.48H19.0476V34.2876H22.8552V30.48Z" fill="#ED1C24"/>
        <path d="M26.6628 30.48H22.8552V34.2876H26.6628V30.48Z" fill="#ED1C24"/>
        <path d="M30.4705 30.48H26.6628V34.2876H30.4705V30.48Z" fill="#ED1C24"/>
        <path d="M34.28 30.48H30.4724V34.2876H34.28V30.48Z" fill="#C1272D"/>
        <path d="M38.0876 30.48H34.28V34.2876H38.0876V30.48Z" fill="#FFC522"/>
        <path d="M41.9048 30.48H38.0971V34.2876H41.9048V30.48Z" fill="#FFC522"/>
        <path d="M45.7105 30.48H41.9029V34.2876H45.7105V30.48Z" fill="#FFC522"/>
        <path d="M49.52 30.48H45.7124V34.2876H49.52V30.48Z" fill="#FFC522"/>
        <path d="M53.3276 30.48H49.52V34.2876H53.3276V30.48Z" fill="#FFC522"/>
        <path d="M57.1352 30.48H53.3276V34.2876H57.1352V30.48Z" fill="#FFC522"/>
        <path d="M60.9524 30.48H57.1448V34.2876H60.9524V30.48Z" fill="#FFC522"/>
        <path d="M64.76 30.48H60.9524V34.2876H64.76V30.48Z" fill="#FFC522"/>
        <path d="M68.5676 30.48H64.76V34.2876H68.5676V30.48Z" fill="#FFC522"/>
        <path d="M72.3752 30.48H68.5676V34.2876H72.3752V30.48Z" fill="#F2DE98"/>
        <path d="M76.1829 30.48H72.3752V34.2876H76.1829V30.48Z" fill="black"/>
        <path d="M80 30.48H76.1924V34.2876H80V30.48Z" fill="white"/>
        <path d="M3.80762 34.2876H0V38.0952H3.80762V34.2876Z" fill="white"/>
        <path d="M7.61524 34.2876H3.80762V38.0952H7.61524V34.2876Z" fill="black"/>
        <path d="M11.4229 34.2876H7.61523V38.0952H11.4229V34.2876Z" fill="#FF9605"/>
        <path d="M15.2305 34.2876H11.4229V38.0952H15.2305V34.2876Z" fill="#FFC522"/>
        <path d="M19.0381 34.2876H15.2305V38.0952H19.0381V34.2876Z" fill="#FFC522"/>
        <path d="M22.8552 34.2876H19.0476V38.0952H22.8552V34.2876Z" fill="#C1272D"/>
        <path d="M26.6628 34.2876H22.8552V38.0952H26.6628V34.2876Z" fill="#ED1C24"/>
        <path d="M30.4705 34.2876H26.6628V38.0952H30.4705V34.2876Z" fill="#C1272D"/>
        <path d="M34.28 34.2876H30.4724V38.0952H34.28V34.2876Z" fill="#FFC522"/>
        <path d="M38.0876 34.2876H34.28V38.0952H38.0876V34.2876Z" fill="#FFC522"/>
        <path d="M41.9048 34.2876H38.0971V38.0952H41.9048V34.2876Z" fill="#FFC522"/>
        <path d="M45.7105 34.2876H41.9029V38.0952H45.7105V34.2876Z" fill="#FFC522"/>
        <path d="M49.52 34.2876H45.7124V38.0952H49.52V34.2876Z" fill="#FFC522"/>
        <path d="M53.3276 34.2876H49.52V38.0952H53.3276V34.2876Z" fill="#FFC522"/>
        <path d="M57.1352 34.2876H53.3276V38.0952H57.1352V34.2876Z" fill="#FFC522"/>
        <path d="M60.9524 34.2876H57.1448V38.0952H60.9524V34.2876Z" fill="#FFC522"/>
        <path d="M64.76 34.2876H60.9524V38.0952H64.76V34.2876Z" fill="#FFC522"/>
        <path d="M68.5676 34.2876H64.76V38.0952H68.5676V34.2876Z" fill="#FFC522"/>
        <path d="M72.3752 34.2876H68.5676V38.0952H72.3752V34.2876Z" fill="#F2DE98"/>
        <path d="M76.1829 34.2876H72.3752V38.0952H76.1829V34.2876Z" fill="black"/>
        <path d="M80 34.2876H76.1924V38.0952H80V34.2876Z" fill="white"/>
        <path d="M3.80762 38.0972H0V41.9048H3.80762V38.0972Z" fill="white"/>
        <path d="M7.61524 38.0972H3.80762V41.9048H7.61524V38.0972Z" fill="black"/>
        <path d="M11.4229 38.0972H7.61523V41.9048H11.4229V38.0972Z" fill="#FF9605"/>
        <path d="M15.2305 38.0972H11.4229V41.9048H15.2305V38.0972Z" fill="#FFC522"/>
        <path d="M19.0381 38.0972H15.2305V41.9048H19.0381V38.0972Z" fill="#FFC522"/>
        <path d="M22.8552 38.0972H19.0476V41.9048H22.8552V38.0972Z" fill="#FFC522"/>
        <path d="M26.6628 38.0972H22.8552V41.9048H26.6628V38.0972Z" fill="#C1272D"/>
        <path d="M30.4705 38.0972H26.6628V41.9048H30.4705V38.0972Z" fill="#FFC522"/>
        <path d="M34.28 38.0972H30.4724V41.9048H34.28V38.0972Z" fill="#FFC522"/>
        <path d="M38.0876 38.0972H34.28V41.9048H38.0876V38.0972Z" fill="#FFC522"/>
        <path d="M41.9048 38.0972H38.0971V41.9048H41.9048V38.0972Z" fill="#FFC522"/>
        <path d="M45.7105 38.0972H41.9029V41.9048H45.7105V38.0972Z" fill="#FFC522"/>
        <path d="M49.52 38.0972H45.7124V41.9048H49.52V38.0972Z" fill="#FFC522"/>
        <path d="M53.3276 38.0972H49.52V41.9048H53.3276V38.0972Z" fill="#FFC522"/>
        <path d="M57.1352 38.0972H53.3276V41.9048H57.1352V38.0972Z" fill="#FFC522"/>
        <path d="M60.9524 38.0972H57.1448V41.9048H60.9524V38.0972Z" fill="#FFC522"/>
        <path d="M64.76 38.0972H60.9524V41.9048H64.76V38.0972Z" fill="#FFC522"/>
        <path d="M68.5676 38.0972H64.76V41.9048H68.5676V38.0972Z" fill="#FFC522"/>
        <path d="M72.3752 38.0972H68.5676V41.9048H72.3752V38.0972Z" fill="#F2DE98"/>
        <path d="M76.1829 38.0972H72.3752V41.9048H76.1829V38.0972Z" fill="black"/>
        <path d="M80 38.0972H76.1924V41.9048H80V38.0972Z" fill="white"/>
        <path d="M3.80762 41.9048H0V45.7124H3.80762V41.9048Z" fill="white"/>
        <path d="M7.61524 41.9048H3.80762V45.7124H7.61524V41.9048Z" fill="black"/>
        <path d="M11.4229 41.9048H7.61523V45.7124H11.4229V41.9048Z" fill="#FF9605"/>
        <path d="M15.2305 41.9048H11.4229V45.7124H15.2305V41.9048Z" fill="#FFC522"/>
        <path d="M19.0381 41.9048H15.2305V45.7124H19.0381V41.9048Z" fill="#FFC522"/>
        <path d="M22.8552 41.9048H19.0476V45.7124H22.8552V41.9048Z" fill="#FFC522"/>
        <path d="M26.6628 41.9048H22.8552V45.7124H26.6628V41.9048Z" fill="#FFC522"/>
        <path d="M30.4705 41.9048H26.6628V45.7124H30.4705V41.9048Z" fill="#FFC522"/>
        <path d="M34.28 41.9048H30.4724V45.7124H34.28V41.9048Z" fill="#FFC522"/>
        <path d="M38.0876 41.9048H34.28V45.7124H38.0876V41.9048Z" fill="#FFC522"/>
        <path d="M41.9048 41.9048H38.0971V45.7124H41.9048V41.9048Z" fill="#FFC522"/>
        <path d="M45.7105 41.9048H41.9029V45.7124H45.7105V41.9048Z" fill="#FFC522"/>
        <path d="M49.52 41.9048H45.7124V45.7124H49.52V41.9048Z" fill="#FFC522"/>
        <path d="M53.3276 41.9048H49.52V45.7124H53.3276V41.9048Z" fill="#FFC522"/>
        <path d="M57.1352 41.9048H53.3276V45.7124H57.1352V41.9048Z" fill="#FFC522"/>
        <path d="M60.9524 41.9048H57.1448V45.7124H60.9524V41.9048Z" fill="#FFC522"/>
        <path d="M64.76 41.9048H60.9524V45.7124H64.76V41.9048Z" fill="#FFC522"/>
        <path d="M68.5676 41.9048H64.76V45.7124H68.5676V41.9048Z" fill="#FFC522"/>
        <path d="M72.3752 41.9048H68.5676V45.7124H72.3752V41.9048Z" fill="#F2DE98"/>
        <path d="M76.1829 41.9048H72.3752V45.7124H76.1829V41.9048Z" fill="black"/>
        <path d="M80 41.9048H76.1924V45.7124H80V41.9048Z" fill="white"/>
        <path d="M3.80762 45.7124H0V49.52H3.80762V45.7124Z" fill="white"/>
        <path d="M7.61524 45.7124H3.80762V49.52H7.61524V45.7124Z" fill="black"/>
        <path d="M11.4229 45.7124H7.61523V49.52H11.4229V45.7124Z" fill="#FF9605"/>
        <path d="M15.2305 45.7124H11.4229V49.52H15.2305V45.7124Z" fill="#FFC522"/>
        <path d="M19.0381 45.7124H15.2305V49.52H19.0381V45.7124Z" fill="#FFC522"/>
        <path d="M22.8552 45.7124H19.0476V49.52H22.8552V45.7124Z" fill="#FFC522"/>
        <path d="M26.6628 45.7124H22.8552V49.52H26.6628V45.7124Z" fill="#FFC522"/>
        <path d="M30.4705 45.7124H26.6628V49.52H30.4705V45.7124Z" fill="#FFC522"/>
        <path d="M34.28 45.7124H30.4724V49.52H34.28V45.7124Z" fill="#FFC522"/>
        <path d="M38.0876 45.7124H34.28V49.52H38.0876V45.7124Z" fill="#FFC522"/>
        <path d="M41.9048 45.7124H38.0971V49.52H41.9048V45.7124Z" fill="#FFC522"/>
        <path d="M45.7105 45.7124H41.9029V49.52H45.7105V45.7124Z" fill="#FFC522"/>
        <path d="M49.52 45.7124H45.7124V49.52H49.52V45.7124Z" fill="#FFC522"/>
        <path d="M53.3276 45.7124H49.52V49.52H53.3276V45.7124Z" fill="#FFC522"/>
        <path d="M57.1352 45.7124H53.3276V49.52H57.1352V45.7124Z" fill="#FFC522"/>
        <path d="M60.9524 45.7124H57.1448V49.52H60.9524V45.7124Z" fill="#FFC522"/>
        <path d="M64.76 45.7124H60.9524V49.52H64.76V45.7124Z" fill="#FFC522"/>
        <path d="M68.5676 45.7124H64.76V49.52H68.5676V45.7124Z" fill="#FFC522"/>
        <path d="M72.3752 45.7124H68.5676V49.52H72.3752V45.7124Z" fill="#F2DE98"/>
        <path d="M76.1829 45.7124H72.3752V49.52H76.1829V45.7124Z" fill="black"/>
        <path d="M80 45.7124H76.1924V49.52H80V45.7124Z" fill="white"/>
        <path d="M3.80762 49.5293H0V53.3369H3.80762V49.5293Z" fill="white"/>
        <path d="M7.61524 49.5293H3.80762V53.3369H7.61524V49.5293Z" fill="black"/>
        <path d="M11.4229 49.5293H7.61523V53.3369H11.4229V49.5293Z" fill="#FF9605"/>
        <path d="M15.2305 49.5293H11.4229V53.3369H15.2305V49.5293Z" fill="#FFC522"/>
        <path d="M19.0381 49.5293H15.2305V53.3369H19.0381V49.5293Z" fill="#FFC522"/>
        <path d="M22.8552 49.5293H19.0476V53.3369H22.8552V49.5293Z" fill="#FFC522"/>
        <path d="M26.6628 49.5293H22.8552V53.3369H26.6628V49.5293Z" fill="#71382A"/>
        <path d="M30.4705 49.5293H26.6628V53.3369H30.4705V49.5293Z" fill="#FFC522"/>
        <path d="M34.28 49.5293H30.4724V53.3369H34.28V49.5293Z" fill="#FFC522"/>
        <path d="M38.0876 49.5293H34.28V53.3369H38.0876V49.5293Z" fill="#FFC522"/>
        <path d="M41.9048 49.5293H38.0971V53.3369H41.9048V49.5293Z" fill="#FFC522"/>
        <path d="M45.7105 49.5293H41.9029V53.3369H45.7105V49.5293Z" fill="#FFC522"/>
        <path d="M49.52 49.5293H45.7124V53.3369H49.52V49.5293Z" fill="#FFC522"/>
        <path d="M53.3276 49.5293H49.52V53.3369H53.3276V49.5293Z" fill="#FFC522"/>
        <path d="M57.1352 49.5293H53.3276V53.3369H57.1352V49.5293Z" fill="#71382A"/>
        <path d="M60.9524 49.5293H57.1448V53.3369H60.9524V49.5293Z" fill="#FFC522"/>
        <path d="M64.76 49.5293H60.9524V53.3369H64.76V49.5293Z" fill="#FFC522"/>
        <path d="M68.5676 49.5293H64.76V53.3369H68.5676V49.5293Z" fill="#FFC522"/>
        <path d="M72.3752 49.5293H68.5676V53.3369H72.3752V49.5293Z" fill="#F2DE98"/>
        <path d="M76.1829 49.5293H72.3752V53.3369H76.1829V49.5293Z" fill="black"/>
        <path d="M80 49.5293H76.1924V53.3369H80V49.5293Z" fill="white"/>
        <path d="M7.61524 53.3389H3.80762V57.1465H7.61524V53.3389Z" fill="white"/>
        <path d="M11.4229 53.3389H7.61523V57.1465H11.4229V53.3389Z" fill="black"/>
        <path d="M15.2305 53.3389H11.4229V57.1465H15.2305V53.3389Z" fill="#FF9605"/>
        <path d="M19.0381 53.3389H15.2305V57.1465H19.0381V53.3389Z" fill="#FFC522"/>
        <path d="M22.8552 53.3389H19.0476V57.1465H22.8552V53.3389Z" fill="#FFC522"/>
        <path d="M26.6628 53.3389H22.8552V57.1465H26.6628V53.3389Z" fill="#FFC522"/>
        <path d="M30.4705 53.3389H26.6628V57.1465H30.4705V53.3389Z" fill="#71382A"/>
        <path d="M34.28 53.3389H30.4724V57.1465H34.28V53.3389Z" fill="#FFC522"/>
        <path d="M38.0876 53.3389H34.28V57.1465H38.0876V53.3389Z" fill="#FFC522"/>
        <path d="M41.9048 53.3389H38.0971V57.1465H41.9048V53.3389Z" fill="#FFC522"/>
        <path d="M45.7105 53.3389H41.9029V57.1465H45.7105V53.3389Z" fill="#FFC522"/>
        <path d="M49.52 53.3389H45.7124V57.1465H49.52V53.3389Z" fill="#FFC522"/>
        <path d="M53.3276 53.3389H49.52V57.1465H53.3276V53.3389Z" fill="#71382A"/>
        <path d="M57.1352 53.3389H53.3276V57.1465H57.1352V53.3389Z" fill="#FFC522"/>
        <path d="M60.9524 53.3389H57.1448V57.1465H60.9524V53.3389Z" fill="#FFC522"/>
        <path d="M64.76 53.3389H60.9524V57.1465H64.76V53.3389Z" fill="#FFC522"/>
        <path d="M68.5676 53.3389H64.76V57.1465H68.5676V53.3389Z" fill="#F2DE98"/>
        <path d="M72.3752 53.3389H68.5676V57.1465H72.3752V53.3389Z" fill="black"/>
        <path d="M76.1829 53.3389H72.3752V57.1465H76.1829V53.3389Z" fill="white"/>
        <path d="M7.61524 57.1445H3.80762V60.9521H7.61524V57.1445Z" fill="white"/>
        <path d="M11.4229 57.1445H7.61523V60.9521H11.4229V57.1445Z" fill="black"/>
        <path d="M15.2305 57.1445H11.4229V60.9521H15.2305V57.1445Z" fill="#FF9605"/>
        <path d="M19.0381 57.1445H15.2305V60.9521H19.0381V57.1445Z" fill="#FFC522"/>
        <path d="M22.8552 57.1445H19.0476V60.9521H22.8552V57.1445Z" fill="#FFC522"/>
        <path d="M26.6628 57.1445H22.8552V60.9521H26.6628V57.1445Z" fill="#FFC522"/>
        <path d="M30.4705 57.1445H26.6628V60.9521H30.4705V57.1445Z" fill="#FFC522"/>
        <path d="M34.28 57.1445H30.4724V60.9521H34.28V57.1445Z" fill="#71382A"/>
        <path d="M38.0876 57.1445H34.28V60.9521H38.0876V57.1445Z" fill="#71382A"/>
        <path d="M41.9048 57.1445H38.0971V60.9521H41.9048V57.1445Z" fill="#71382A"/>
        <path d="M45.7105 57.1445H41.9029V60.9521H45.7105V57.1445Z" fill="#71382A"/>
        <path d="M49.52 57.1445H45.7124V60.9521H49.52V57.1445Z" fill="#71382A"/>
        <path d="M53.3276 57.1445H49.52V60.9521H53.3276V57.1445Z" fill="#FFC522"/>
        <path d="M57.1352 57.1445H53.3276V60.9521H57.1352V57.1445Z" fill="#FFC522"/>
        <path d="M60.9524 57.1445H57.1448V60.9521H60.9524V57.1445Z" fill="#FFC522"/>
        <path d="M64.76 57.1445H60.9524V60.9521H64.76V57.1445Z" fill="#FFC522"/>
        <path d="M68.5676 57.1445H64.76V60.9521H68.5676V57.1445Z" fill="#F2DE98"/>
        <path d="M72.3752 57.1445H68.5676V60.9521H72.3752V57.1445Z" fill="black"/>
        <path d="M76.1829 57.1445H72.3752V60.9521H76.1829V57.1445Z" fill="white"/>
        <path d="M7.61524 60.9521H3.80762V64.7598H7.61524V60.9521Z" fill="white"/>
        <path d="M11.4229 60.9521H7.61523V64.7598H11.4229V60.9521Z" fill="white"/>
        <path d="M15.2305 60.9521H11.4229V64.7598H15.2305V60.9521Z" fill="black"/>
        <path d="M19.0381 60.9521H15.2305V64.7598H19.0381V60.9521Z" fill="#FF9605"/>
        <path d="M22.8552 60.9521H19.0476V64.7598H22.8552V60.9521Z" fill="#FFC522"/>
        <path d="M26.6628 60.9521H22.8552V64.7598H26.6628V60.9521Z" fill="#FFC522"/>
        <path d="M30.4705 60.9521H26.6628V64.7598H30.4705V60.9521Z" fill="#FFC522"/>
        <path d="M34.28 60.9521H30.4724V64.7598H34.28V60.9521Z" fill="#FFC522"/>
        <path d="M38.0876 60.9521H34.28V64.7598H38.0876V60.9521Z" fill="#FFC522"/>
        <path d="M41.9048 60.9521H38.0971V64.7598H41.9048V60.9521Z" fill="#FFC522"/>
        <path d="M45.7105 60.9521H41.9029V64.7598H45.7105V60.9521Z" fill="#FFC522"/>
        <path d="M49.52 60.9521H45.7124V64.7598H49.52V60.9521Z" fill="#FFC522"/>
        <path d="M53.3276 60.9521H49.52V64.7598H53.3276V60.9521Z" fill="#FFC522"/>
        <path d="M57.1352 60.9521H53.3276V64.7598H57.1352V60.9521Z" fill="#FFC522"/>
        <path d="M60.9524 60.9521H57.1448V64.7598H60.9524V60.9521Z" fill="#FFC522"/>
        <path d="M64.76 60.9521H60.9524V64.7598H64.76V60.9521Z" fill="#F2DE98"/>
        <path d="M68.5676 60.9521H64.76V64.7598H68.5676V60.9521Z" fill="black"/>
        <path d="M72.3752 60.9521H68.5676V64.7598H72.3752V60.9521Z" fill="white"/>
        <path d="M76.1829 60.9521H72.3752V64.7598H76.1829V60.9521Z" fill="white"/>
        <path d="M11.4229 64.7598H7.61523V68.5674H11.4229V64.7598Z" fill="white"/>
        <path d="M15.2305 64.7598H11.4229V68.5674H15.2305V64.7598Z" fill="white"/>
        <path d="M19.0381 64.7598H15.2305V68.5674H19.0381V64.7598Z" fill="black"/>
        <path d="M22.8552 64.7598H19.0476V68.5674H22.8552V64.7598Z" fill="#FF9605"/>
        <path d="M26.6628 64.7598H22.8552V68.5674H26.6628V64.7598Z" fill="#FF9605"/>
        <path d="M30.4705 64.7598H26.6628V68.5674H30.4705V64.7598Z" fill="#FFC522"/>
        <path d="M34.28 64.7598H30.4724V68.5674H34.28V64.7598Z" fill="#FFC522"/>
        <path d="M38.0876 64.7598H34.28V68.5674H38.0876V64.7598Z" fill="#FFC522"/>
        <path d="M41.9048 64.7598H38.0971V68.5674H41.9048V64.7598Z" fill="#FFC522"/>
        <path d="M45.7105 64.7598H41.9029V68.5674H45.7105V64.7598Z" fill="#FFC522"/>
        <path d="M49.52 64.7598H45.7124V68.5674H49.52V64.7598Z" fill="#FFC522"/>
        <path d="M53.3276 64.7598H49.52V68.5674H53.3276V64.7598Z" fill="#FFC522"/>
        <path d="M57.1352 64.7598H53.3276V68.5674H57.1352V64.7598Z" fill="#F2DE98"/>
        <path d="M60.9524 64.7598H57.1448V68.5674H60.9524V64.7598Z" fill="#F2DE98"/>
        <path d="M64.76 64.7598H60.9524V68.5674H64.76V64.7598Z" fill="black"/>
        <path d="M68.5676 64.7598H64.76V68.5674H68.5676V64.7598Z" fill="white"/>
        <path d="M72.3752 64.7598H68.5676V68.5674H72.3752V64.7598Z" fill="white"/>
        <path d="M15.2305 68.5771H11.4229V72.3848H15.2305V68.5771Z" fill="white"/>
        <path d="M19.0381 68.5771H15.2305V72.3848H19.0381V68.5771Z" fill="white"/>
        <path d="M22.8552 68.5771H19.0476V72.3848H22.8552V68.5771Z" fill="black"/>
        <path d="M26.6628 68.5771H22.8552V72.3848H26.6628V68.5771Z" fill="black"/>
        <path d="M30.4705 68.5771H26.6628V72.3848H30.4705V68.5771Z" fill="#FF9605"/>
        <path d="M34.28 68.5771H30.4724V72.3848H34.28V68.5771Z" fill="#FF9605"/>
        <path d="M38.0876 68.5771H34.28V72.3848H38.0876V68.5771Z" fill="#FF9605"/>
        <path d="M41.9048 68.5771H38.0971V72.3848H41.9048V68.5771Z" fill="#FF9605"/>
        <path d="M45.7105 68.5771H41.9029V72.3848H45.7105V68.5771Z" fill="#FF9605"/>
        <path d="M49.52 68.5771H45.7124V72.3848H49.52V68.5771Z" fill="#FF9605"/>
        <path d="M53.3276 68.5771H49.52V72.3848H53.3276V68.5771Z" fill="#FF9605"/>
        <path d="M57.1352 68.5771H53.3276V72.3848H57.1352V68.5771Z" fill="black"/>
        <path d="M60.9524 68.5771H57.1448V72.3848H60.9524V68.5771Z" fill="black"/>
        <path d="M64.76 68.5771H60.9524V72.3848H64.76V68.5771Z" fill="white"/>
        <path d="M68.5676 68.5771H64.76V72.3848H68.5676V68.5771Z" fill="white"/>
        <path d="M19.0381 72.3867H15.2305V76.1943H19.0381V72.3867Z" fill="white"/>
        <path d="M22.8552 72.3867H19.0476V76.1943H22.8552V72.3867Z" fill="white"/>
        <path d="M26.6628 72.3867H22.8552V76.1943H26.6628V72.3867Z" fill="white"/>
        <path d="M30.4705 72.3867H26.6628V76.1943H30.4705V72.3867Z" fill="black"/>
        <path d="M34.28 72.3867H30.4724V76.1943H34.28V72.3867Z" fill="black"/>
        <path d="M38.0876 72.3867H34.28V76.1943H38.0876V72.3867Z" fill="black"/>
        <path d="M41.9048 72.3867H38.0971V76.1943H41.9048V72.3867Z" fill="black"/>
        <path d="M45.7105 72.3867H41.9029V76.1943H45.7105V72.3867Z" fill="black"/>
        <path d="M49.52 72.3867H45.7124V76.1943H49.52V72.3867Z" fill="black"/>
        <path d="M53.3276 72.3867H49.52V76.1943H53.3276V72.3867Z" fill="black"/>
        <path d="M57.1352 72.3867H53.3276V76.1943H57.1352V72.3867Z" fill="white"/>
        <path d="M60.9524 72.3867H57.1448V76.1943H60.9524V72.3867Z" fill="white"/>
        <path d="M64.76 72.3867H60.9524V76.1943H64.76V72.3867Z" fill="white"/>
        <path d="M26.6628 76.1924H22.8552V80H26.6628V76.1924Z" fill="white"/>
        <path d="M30.4705 76.1924H26.6628V80H30.4705V76.1924Z" fill="white"/>
        <path d="M34.28 76.1924H30.4724V80H34.28V76.1924Z" fill="white"/>
        <path d="M38.0876 76.1924H34.28V80H38.0876V76.1924Z" fill="white"/>
        <path d="M41.9048 76.1924H38.0971V80H41.9048V76.1924Z" fill="white"/>
        <path d="M45.7105 76.1924H41.9029V80H45.7105V76.1924Z" fill="white"/>
        <path d="M49.52 76.1924H45.7124V80H49.52V76.1924Z" fill="white"/>
        <path d="M53.3276 76.1924H49.52V80H53.3276V76.1924Z" fill="white"/>
        <path d="M57.1352 76.1924H53.3276V80H57.1352V76.1924Z" fill="white"/>
        <path d="M49.5143 22.8555H45.7067V26.6631H49.5143V22.8555Z" fill="#C1272D"/>
        <path d="M53.3314 22.8555H49.5238V26.6631H53.3314V22.8555Z" fill="#ED1C24"/>
        <path d="M60.9467 22.8555H57.139V26.6631H60.9467V22.8555Z" fill="#ED1C24"/>
        <path d="M64.7543 22.8555H60.9467V26.6631H64.7543V22.8555Z" fill="#ED1C24"/>
        <path d="M45.7067 26.6631H41.899V30.4707H45.7067V26.6631Z" fill="#C1272D"/>
        <path d="M49.5143 26.6631H45.7067V30.4707H49.5143V26.6631Z" fill="#ED1C24"/>
        <path d="M53.3314 26.6631H49.5238V30.4707H53.3314V26.6631Z" fill="#ED1C24"/>
        <path d="M57.139 26.6631H53.3314V30.4707H57.139V26.6631Z" fill="#ED1C24"/>
        <path d="M60.9467 26.6631H57.139V30.4707H60.9467V26.6631Z" fill="#ED1C24"/>
        <path d="M64.7543 26.6631H60.9467V30.4707H64.7543V26.6631Z" fill="#ED1C24"/>
        <path d="M68.5619 26.6631H64.7543V30.4707H68.5619V26.6631Z" fill="#C1272D"/>
        <path d="M49.5143 30.48H45.7067V34.2876H49.5143V30.48Z" fill="#C1272D"/>
        <path d="M53.3314 30.48H49.5238V34.2876H53.3314V30.48Z" fill="#ED1C24"/>
        <path d="M57.139 30.48H53.3314V34.2876H57.139V30.48Z" fill="#ED1C24"/>
        <path d="M60.9467 30.48H57.139V34.2876H60.9467V30.48Z" fill="#ED1C24"/>
        <path d="M64.7543 30.48H60.9467V34.2876H64.7543V30.48Z" fill="#C1272D"/>
        <path d="M53.3314 34.2876H49.5238V38.0952H53.3314V34.2876Z" fill="#C1272D"/>
        <path d="M57.139 34.2876H53.3314V38.0952H57.139V34.2876Z" fill="#ED1C24"/>
        <path d="M60.9467 34.2876H57.139V38.0952H60.9467V34.2876Z" fill="#C1272D"/>
        <path d="M57.139 38.0972H53.3314V41.9048H57.139V38.0972Z" fill="#C1272D"/>
    </g>
    <defs>
        <clipPath id="clip0_1976_10844">
            <rect width="80" height="80" fill="white"/>
        </clipPath>
    </defs>
</svg>
