<svg width="60" height="60" viewBox="0 0 60 60" fill="none" xmlns="http://www.w3.org/2000/svg">
    <g clip-path="url(#clip0_2279_14806)">
        <path d="M23.9965 4.7998H21.5977V7.1986H23.9965V4.7998Z" fill="white"/>
        <path d="M26.3964 4.7998H23.9976V7.1986H26.3964V4.7998Z" fill="white"/>
        <path d="M28.7953 4.7998H26.3965V7.1986H28.7953V4.7998Z" fill="white"/>
        <path d="M31.2001 4.7998H28.8013V7.1986H31.2001V4.7998Z" fill="white"/>
        <path d="M33.5975 4.7998H31.1987V7.1986H33.5975V4.7998Z" fill="white"/>
        <path d="M35.9977 4.7998H33.5989V7.1986H35.9977V4.7998Z" fill="white"/>
        <path d="M38.3964 4.7998H35.9976V7.1986H38.3964V4.7998Z" fill="white"/>
        <path d="M19.1988 7.19824H16.8V9.59704H19.1988V7.19824Z" fill="white"/>
        <path d="M21.5975 7.19824H19.1987V9.59704H21.5975V7.19824Z" fill="white"/>
        <path d="M23.9965 7.19824H21.5977V9.59704H23.9965V7.19824Z" fill="black"/>
        <path d="M26.3964 7.19824H23.9976V9.59704H26.3964V7.19824Z" fill="black"/>
        <path d="M28.7953 7.19824H26.3965V9.59704H28.7953V7.19824Z" fill="black"/>
        <path d="M31.2001 7.19824H28.8013V9.59704H31.2001V7.19824Z" fill="black"/>
        <path d="M33.5975 7.19824H31.1987V9.59704H33.5975V7.19824Z" fill="black"/>
        <path d="M35.9977 7.19824H33.5989V9.59704H35.9977V7.19824Z" fill="black"/>
        <path d="M38.3964 7.19824H35.9976V9.59704H38.3964V7.19824Z" fill="black"/>
        <path d="M40.7953 7.19824H38.3965V9.59704H40.7953V7.19824Z" fill="white"/>
        <path d="M43.2001 7.19824H40.8013V9.59704H43.2001V7.19824Z" fill="white"/>
        <path d="M16.7941 9.59766H14.3953V11.9965H16.7941V9.59766Z" fill="white"/>
        <path d="M19.1988 9.59766H16.8V11.9965H19.1988V9.59766Z" fill="black"/>
        <path d="M21.5975 9.59766H19.1987V11.9965H21.5975V9.59766Z" fill="black"/>
        <path d="M23.9965 9.59766H21.5977V11.9965H23.9965V9.59766Z" fill="#F2DE98"/>
        <path d="M26.3964 9.59766H23.9976V11.9965H26.3964V9.59766Z" fill="#F2DE98"/>
        <path d="M28.7953 9.59766H26.3965V11.9965H28.7953V9.59766Z" fill="#F2DE98"/>
        <path d="M31.2001 9.59766H28.8013V11.9965H31.2001V9.59766Z" fill="#F2DE98"/>
        <path d="M33.5975 9.59766H31.1987V11.9965H33.5975V9.59766Z" fill="#F2DE98"/>
        <path d="M35.9977 9.59766H33.5989V11.9965H35.9977V9.59766Z" fill="#F2DE98"/>
        <path d="M38.3964 9.59766H35.9976V11.9965H38.3964V9.59766Z" fill="#F2DE98"/>
        <path d="M40.7953 9.59766H38.3965V11.9965H40.7953V9.59766Z" fill="black"/>
        <path d="M43.2001 9.59766H40.8013V11.9965H43.2001V9.59766Z" fill="black"/>
        <path d="M45.5988 9.59766H43.2V11.9965H45.5988V9.59766Z" fill="white"/>
        <path d="M14.3951 12.002H11.9963V14.4008H14.3951V12.002Z" fill="white"/>
        <path d="M16.7941 12.002H14.3953V14.4008H16.7941V12.002Z" fill="black"/>
        <path d="M19.1988 12.002H16.8V14.4008H19.1988V12.002Z" fill="#F2DE98"/>
        <path d="M21.5975 12.002H19.1987V14.4008H21.5975V12.002Z" fill="#F2DE98"/>
        <path d="M23.9965 12.002H21.5977V14.4008H23.9965V12.002Z" fill="#FFC522"/>
        <path d="M26.3964 12.002H23.9976V14.4008H26.3964V12.002Z" fill="#FFC522"/>
        <path d="M28.7953 12.002H26.3965V14.4008H28.7953V12.002Z" fill="#FFC522"/>
        <path d="M31.2001 12.002H28.8013V14.4008H31.2001V12.002Z" fill="#FFC522"/>
        <path d="M33.5975 12.002H31.1987V14.4008H33.5975V12.002Z" fill="#FFC522"/>
        <path d="M35.9977 12.002H33.5989V14.4008H35.9977V12.002Z" fill="#FFC522"/>
        <path d="M38.3964 12.002H35.9976V14.4008H38.3964V12.002Z" fill="#FFC522"/>
        <path d="M40.7953 12.002H38.3965V14.4008H40.7953V12.002Z" fill="#F2DE98"/>
        <path d="M43.2001 12.002H40.8013V14.4008H43.2001V12.002Z" fill="#F2DE98"/>
        <path d="M45.5988 12.002H43.2V14.4008H45.5988V12.002Z" fill="black"/>
        <path d="M47.9977 12.002H45.5989V14.4008H47.9977V12.002Z" fill="white"/>
        <path d="M11.9965 14.4014H9.59766V16.8002H11.9965V14.4014Z" fill="white"/>
        <path d="M14.3951 14.4014H11.9963V16.8002H14.3951V14.4014Z" fill="black"/>
        <path d="M16.7941 14.4014H14.3953V16.8002H16.7941V14.4014Z" fill="#FF9605"/>
        <path d="M19.1988 14.4014H16.8V16.8002H19.1988V14.4014Z" fill="#FFC522"/>
        <path d="M21.5975 14.4014H19.1987V16.8002H21.5975V14.4014Z" fill="#FFC522"/>
        <path d="M23.9965 14.4014H21.5977V16.8002H23.9965V14.4014Z" fill="#FFC522"/>
        <path d="M26.3964 14.4014H23.9976V16.8002H26.3964V14.4014Z" fill="#FFC522"/>
        <path d="M28.7953 14.4014H26.3965V16.8002H28.7953V14.4014Z" fill="#FFC522"/>
        <path d="M31.2001 14.4014H28.8013V16.8002H31.2001V14.4014Z" fill="#FFC522"/>
        <path d="M33.5975 14.4014H31.1987V16.8002H33.5975V14.4014Z" fill="white"/>
        <path d="M35.9977 14.4014H33.5989V16.8002H35.9977V14.4014Z" fill="#FFC522"/>
        <path d="M38.3964 14.4014H35.9976V16.8002H38.3964V14.4014Z" fill="white"/>
        <path d="M40.7953 14.4014H38.3965V16.8002H40.7953V14.4014Z" fill="#FFC522"/>
        <path d="M43.2001 14.4014H40.8013V16.8002H43.2001V14.4014Z" fill="#FFC522"/>
        <path d="M45.5988 14.4014H43.2V16.8002H45.5988V14.4014Z" fill="#F2DE98"/>
        <path d="M47.9977 14.4014H45.5989V16.8002H47.9977V14.4014Z" fill="black"/>
        <path d="M50.3964 14.4014H47.9976V16.8002H50.3964V14.4014Z" fill="white"/>
        <path d="M9.59753 16.8008H7.19873V19.1996H9.59753V16.8008Z" fill="white"/>
        <path d="M11.9965 16.8008H9.59766V19.1996H11.9965V16.8008Z" fill="black"/>
        <path d="M14.3951 16.8008H11.9963V19.1996H14.3951V16.8008Z" fill="#FF9605"/>
        <path d="M16.7941 16.8008H14.3953V19.1996H16.7941V16.8008Z" fill="#FFC522"/>
        <path d="M19.1988 16.8008H16.8V19.1996H19.1988V16.8008Z" fill="#FFC522"/>
        <path d="M21.5975 16.8008H19.1987V19.1996H21.5975V16.8008Z" fill="#FFC522"/>
        <path d="M23.9965 16.8008H21.5977V19.1996H23.9965V16.8008Z" fill="#FFC522"/>
        <path d="M26.3964 16.8008H23.9976V19.1996H26.3964V16.8008Z" fill="#FFC522"/>
        <path d="M28.7953 16.8008H26.3965V19.1996H28.7953V16.8008Z" fill="#FFC522"/>
        <path d="M31.2001 16.8008H28.8013V19.1996H31.2001V16.8008Z" fill="#FFC522"/>
        <path d="M33.5975 16.8008H31.1987V19.1996H33.5975V16.8008Z" fill="#FFC522"/>
        <path d="M35.9977 16.8008H33.5989V19.1996H35.9977V16.8008Z" fill="#FFC522"/>
        <path d="M38.3964 16.8008H35.9976V19.1996H38.3964V16.8008Z" fill="#FFC522"/>
        <path d="M40.7953 16.8008H38.3965V19.1996H40.7953V16.8008Z" fill="white"/>
        <path d="M43.2001 16.8008H40.8013V19.1996H43.2001V16.8008Z" fill="#FFC522"/>
        <path d="M45.5988 16.8008H43.2V19.1996H45.5988V16.8008Z" fill="#FFC522"/>
        <path d="M47.9977 16.8008H45.5989V19.1996H47.9977V16.8008Z" fill="#F2DE98"/>
        <path d="M50.3964 16.8008H47.9976V19.1996H50.3964V16.8008Z" fill="black"/>
        <path d="M52.7953 16.8008H50.3965V19.1996H52.7953V16.8008Z" fill="white"/>
        <path d="M9.59753 19.1982H7.19873V21.597H9.59753V19.1982Z" fill="white"/>
        <path d="M11.9965 19.1982H9.59766V21.597H11.9965V19.1982Z" fill="black"/>
        <path d="M14.3951 19.1982H11.9963V21.597H14.3951V19.1982Z" fill="#FF9605"/>
        <path d="M16.7941 19.1982H14.3953V21.597H16.7941V19.1982Z" fill="#FFC522"/>
        <path d="M19.1988 19.1982H16.8V21.597H19.1988V19.1982Z" fill="#FFC522"/>
        <path d="M21.5975 19.1982H19.1987V21.597H21.5975V19.1982Z" fill="#FFC522"/>
        <path d="M23.9965 19.1982H21.5977V21.597H23.9965V19.1982Z" fill="#FFC522"/>
        <path d="M26.3964 19.1982H23.9976V21.597H26.3964V19.1982Z" fill="#FFC522"/>
        <path d="M28.7953 19.1982H26.3965V21.597H28.7953V19.1982Z" fill="#FFC522"/>
        <path d="M31.2001 19.1982H28.8013V21.597H31.2001V19.1982Z" fill="#FFC522"/>
        <path d="M33.5975 19.1982H31.1987V21.597H33.5975V19.1982Z" fill="#FFC522"/>
        <path d="M35.9977 19.1982H33.5989V21.597H35.9977V19.1982Z" fill="#FFC522"/>
        <path d="M38.3964 19.1982H35.9976V21.597H38.3964V19.1982Z" fill="#FFC522"/>
        <path d="M40.7953 19.1982H38.3965V21.597H40.7953V19.1982Z" fill="#FFC522"/>
        <path d="M43.2001 19.1982H40.8013V21.597H43.2001V19.1982Z" fill="#FFC522"/>
        <path d="M45.5988 19.1982H43.2V21.597H45.5988V19.1982Z" fill="#FFC522"/>
        <path d="M47.9977 19.1982H45.5989V21.597H47.9977V19.1982Z" fill="#F2DE98"/>
        <path d="M50.3964 19.1982H47.9976V21.597H50.3964V19.1982Z" fill="black"/>
        <path d="M52.7953 19.1982H50.3965V21.597H52.7953V19.1982Z" fill="white"/>
        <path d="M7.19885 21.5977H4.80005V23.9965H7.19885V21.5977Z" fill="white"/>
        <path d="M9.59753 21.5977H7.19873V23.9965H9.59753V21.5977Z" fill="black"/>
        <path d="M11.9965 21.5977H9.59766V23.9965H11.9965V21.5977Z" fill="#1A1A1A"/>
        <path d="M14.3951 21.5977H11.9963V23.9965H14.3951V21.5977Z" fill="#1A1A1A"/>
        <path d="M16.7941 21.5977H14.3953V23.9965H16.7941V21.5977Z" fill="#1A1A1A"/>
        <path d="M19.1988 21.5977H16.8V23.9965H19.1988V21.5977Z" fill="#1A1A1A"/>
        <path d="M21.5975 21.5977H19.1987V23.9965H21.5975V21.5977Z" fill="#1A1A1A"/>
        <path d="M23.9965 21.5977H21.5977V23.9965H23.9965V21.5977Z" fill="#1A1A1A"/>
        <path d="M26.3964 21.5977H23.9976V23.9965H26.3964V21.5977Z" fill="#1A1A1A"/>
        <path d="M28.7953 21.5977H26.3965V23.9965H28.7953V21.5977Z" fill="#1A1A1A"/>
        <path d="M31.2001 21.5977H28.8013V23.9965H31.2001V21.5977Z" fill="#1A1A1A"/>
        <path d="M33.5975 21.5977H31.1987V23.9965H33.5975V21.5977Z" fill="#1A1A1A"/>
        <path d="M35.9977 21.5977H33.5989V23.9965H35.9977V21.5977Z" fill="#1A1A1A"/>
        <path d="M38.3964 21.5977H35.9976V23.9965H38.3964V21.5977Z" fill="#1A1A1A"/>
        <path d="M40.7953 21.5977H38.3965V23.9965H40.7953V21.5977Z" fill="#1A1A1A"/>
        <path d="M43.2001 21.5977H40.8013V23.9965H43.2001V21.5977Z" fill="#1A1A1A"/>
        <path d="M45.5988 21.5977H43.2V23.9965H45.5988V21.5977Z" fill="#1A1A1A"/>
        <path d="M47.9977 21.5977H45.5989V23.9965H47.9977V21.5977Z" fill="#1A1A1A"/>
        <path d="M50.3964 21.5977H47.9976V23.9965H50.3964V21.5977Z" fill="#1A1A1A"/>
        <path d="M52.7953 21.5977H50.3965V23.9965H52.7953V21.5977Z" fill="black"/>
        <path d="M55.2001 21.5977H52.8013V23.9965H55.2001V21.5977Z" fill="white"/>
        <path d="M7.19885 24.002H4.80005V26.4008H7.19885V24.002Z" fill="white"/>
        <path d="M9.59753 24.002H7.19873V26.4008H9.59753V24.002Z" fill="black"/>
        <path d="M11.9965 24.002H9.59766V26.4008H11.9965V24.002Z" fill="#FF9605"/>
        <path d="M14.3951 24.002H11.9963V26.4008H14.3951V24.002Z" fill="black"/>
        <path d="M16.7941 24.002H14.3953V26.4008H16.7941V24.002Z" fill="#00A6E8"/>
        <path d="M19.1988 24.002H16.8V26.4008H19.1988V24.002Z" fill="#00A6E8"/>
        <path d="M21.5975 24.002H19.1987V26.4008H21.5975V24.002Z" fill="#00A6E8"/>
        <path d="M23.9965 24.002H21.5977V26.4008H23.9965V24.002Z" fill="#45B3E9"/>
        <path d="M26.3964 24.002H23.9976V26.4008H26.3964V24.002Z" fill="white"/>
        <path d="M28.7953 24.002H26.3965V26.4008H28.7953V24.002Z" fill="black"/>
        <path d="M31.2001 24.002H28.8013V26.4008H31.2001V24.002Z" fill="black"/>
        <path d="M33.5975 24.002H31.1987V26.4008H33.5975V24.002Z" fill="black"/>
        <path d="M35.9977 24.002H33.5989V26.4008H35.9977V24.002Z" fill="#D62F73"/>
        <path d="M38.3964 24.002H35.9976V26.4008H38.3964V24.002Z" fill="#D62F73"/>
        <path d="M40.7953 24.002H38.3965V26.4008H40.7953V24.002Z" fill="#D62F73"/>
        <path d="M43.2001 24.002H40.8013V26.4008H43.2001V24.002Z" fill="#E05080"/>
        <path d="M45.5988 24.002H43.2V26.4008H45.5988V24.002Z" fill="white"/>
        <path d="M47.9977 24.002H45.5989V26.4008H47.9977V24.002Z" fill="black"/>
        <path d="M50.3964 24.002H47.9976V26.4008H50.3964V24.002Z" fill="#F2DE98"/>
        <path d="M52.7953 24.002H50.3965V26.4008H52.7953V24.002Z" fill="black"/>
        <path d="M55.2001 24.002H52.8013V26.4008H55.2001V24.002Z" fill="white"/>
        <path d="M7.19885 26.4014H4.80005V28.8002H7.19885V26.4014Z" fill="white"/>
        <path d="M9.59753 26.4014H7.19873V28.8002H9.59753V26.4014Z" fill="black"/>
        <path d="M11.9965 26.4014H9.59766V28.8002H11.9965V26.4014Z" fill="#FF9605"/>
        <path d="M14.3951 26.4014H11.9963V28.8002H14.3951V26.4014Z" fill="black"/>
        <path d="M16.7941 26.4014H14.3953V28.8002H16.7941V26.4014Z" fill="#00A6E8"/>
        <path d="M19.1988 26.4014H16.8V28.8002H19.1988V26.4014Z" fill="#00A6E8"/>
        <path d="M21.5975 26.4014H19.1987V28.8002H21.5975V26.4014Z" fill="#45B3E9"/>
        <path d="M23.9965 26.4014H21.5977V28.8002H23.9965V26.4014Z" fill="#45B3E9"/>
        <path d="M26.3964 26.4014H23.9976V28.8002H26.3964V26.4014Z" fill="#45B3E9"/>
        <path d="M28.7953 26.4014H26.3965V28.8002H28.7953V26.4014Z" fill="#1A1A1A"/>
        <path d="M31.2001 26.4014H28.8013V28.8002H31.2001V26.4014Z" fill="#FFC522"/>
        <path d="M33.5975 26.4014H31.1987V28.8002H33.5975V26.4014Z" fill="black"/>
        <path d="M35.9977 26.4014H33.5989V28.8002H35.9977V26.4014Z" fill="#D62F73"/>
        <path d="M38.3964 26.4014H35.9976V28.8002H38.3964V26.4014Z" fill="#D62F73"/>
        <path d="M40.7953 26.4014H38.3965V28.8002H40.7953V26.4014Z" fill="#E05080"/>
        <path d="M43.2001 26.4014H40.8013V28.8002H43.2001V26.4014Z" fill="#E05080"/>
        <path d="M45.5988 26.4014H43.2V28.8002H45.5988V26.4014Z" fill="#E05080"/>
        <path d="M47.9977 26.4014H45.5989V28.8002H47.9977V26.4014Z" fill="#1A1A1A"/>
        <path d="M50.3964 26.4014H47.9976V28.8002H50.3964V26.4014Z" fill="#F2DE98"/>
        <path d="M52.7953 26.4014H50.3965V28.8002H52.7953V26.4014Z" fill="black"/>
        <path d="M55.2001 26.4014H52.8013V28.8002H55.2001V26.4014Z" fill="white"/>
        <path d="M7.19885 28.8008H4.80005V31.1996H7.19885V28.8008Z" fill="white"/>
        <path d="M9.59753 28.8008H7.19873V31.1996H9.59753V28.8008Z" fill="black"/>
        <path d="M11.9965 28.8008H9.59766V31.1996H11.9965V28.8008Z" fill="#FF9605"/>
        <path d="M14.3951 28.8008H11.9963V31.1996H14.3951V28.8008Z" fill="#FFC522"/>
        <path d="M16.7941 28.8008H14.3953V31.1996H16.7941V28.8008Z" fill="black"/>
        <path d="M19.1988 28.8008H16.8V31.1996H19.1988V28.8008Z" fill="#00A6E8"/>
        <path d="M21.5975 28.8008H19.1987V31.1996H21.5975V28.8008Z" fill="#00A6E8"/>
        <path d="M23.9965 28.8008H21.5977V31.1996H23.9965V28.8008Z" fill="#45B3E9"/>
        <path d="M26.3964 28.8008H23.9976V31.1996H26.3964V28.8008Z" fill="#1A1A1A"/>
        <path d="M28.7953 28.8008H26.3965V31.1996H28.7953V28.8008Z" fill="#FFC522"/>
        <path d="M31.2001 28.8008H28.8013V31.1996H31.2001V28.8008Z" fill="#FFC522"/>
        <path d="M33.5975 28.8008H31.1987V31.1996H33.5975V28.8008Z" fill="#FFC522"/>
        <path d="M35.9977 28.8008H33.5989V31.1996H35.9977V28.8008Z" fill="black"/>
        <path d="M38.3964 28.8008H35.9976V31.1996H38.3964V28.8008Z" fill="#D62F73"/>
        <path d="M40.7953 28.8008H38.3965V31.1996H40.7953V28.8008Z" fill="#D62F73"/>
        <path d="M43.2001 28.8008H40.8013V31.1996H43.2001V28.8008Z" fill="#E05080"/>
        <path d="M45.5988 28.8008H43.2V31.1996H45.5988V28.8008Z" fill="#1A1A1A"/>
        <path d="M47.9977 28.8008H45.5989V31.1996H47.9977V28.8008Z" fill="#FFC522"/>
        <path d="M50.3964 28.8008H47.9976V31.1996H50.3964V28.8008Z" fill="#F2DE98"/>
        <path d="M52.7953 28.8008H50.3965V31.1996H52.7953V28.8008Z" fill="black"/>
        <path d="M55.2001 28.8008H52.8013V31.1996H55.2001V28.8008Z" fill="white"/>
        <path d="M7.19885 31.2002H4.80005V33.599H7.19885V31.2002Z" fill="white"/>
        <path d="M9.59753 31.2002H7.19873V33.599H9.59753V31.2002Z" fill="black"/>
        <path d="M11.9965 31.2002H9.59766V33.599H11.9965V31.2002Z" fill="#FF9605"/>
        <path d="M14.3951 31.2002H11.9963V33.599H14.3951V31.2002Z" fill="#FFC522"/>
        <path d="M16.7941 31.2002H14.3953V33.599H16.7941V31.2002Z" fill="#FFC522"/>
        <path d="M19.1988 31.2002H16.8V33.599H19.1988V31.2002Z" fill="#1A1A1A"/>
        <path d="M21.5975 31.2002H19.1987V33.599H21.5975V31.2002Z" fill="#1A1A1A"/>
        <path d="M23.9965 31.2002H21.5977V33.599H23.9965V31.2002Z" fill="#1A1A1A"/>
        <path d="M26.3964 31.2002H23.9976V33.599H26.3964V31.2002Z" fill="#FFC522"/>
        <path d="M28.7953 31.2002H26.3965V33.599H28.7953V31.2002Z" fill="#FFC522"/>
        <path d="M31.2001 31.2002H28.8013V33.599H31.2001V31.2002Z" fill="#FFC522"/>
        <path d="M33.5975 31.2002H31.1987V33.599H33.5975V31.2002Z" fill="#FFC522"/>
        <path d="M35.9977 31.2002H33.5989V33.599H35.9977V31.2002Z" fill="#FFC522"/>
        <path d="M38.3964 31.2002H35.9976V33.599H38.3964V31.2002Z" fill="#1A1A1A"/>
        <path d="M40.7953 31.2002H38.3965V33.599H40.7953V31.2002Z" fill="#1A1A1A"/>
        <path d="M43.2001 31.2002H40.8013V33.599H43.2001V31.2002Z" fill="#1A1A1A"/>
        <path d="M45.5988 31.2002H43.2V33.599H45.5988V31.2002Z" fill="#FFC522"/>
        <path d="M47.9977 31.2002H45.5989V33.599H47.9977V31.2002Z" fill="#FFC522"/>
        <path d="M50.3964 31.2002H47.9976V33.599H50.3964V31.2002Z" fill="#F2DE98"/>
        <path d="M52.7953 31.2002H50.3965V33.599H52.7953V31.2002Z" fill="black"/>
        <path d="M55.2001 31.2002H52.8013V33.599H55.2001V31.2002Z" fill="white"/>
        <path d="M7.19885 33.5986H4.80005V35.9974H7.19885V33.5986Z" fill="white"/>
        <path d="M9.59753 33.5986H7.19873V35.9974H9.59753V33.5986Z" fill="black"/>
        <path d="M11.9965 33.5986H9.59766V35.9974H11.9965V33.5986Z" fill="#FF9605"/>
        <path d="M14.3951 33.5986H11.9963V35.9974H14.3951V33.5986Z" fill="#FFC522"/>
        <path d="M16.7941 33.5986H14.3953V35.9974H16.7941V33.5986Z" fill="#FFC522"/>
        <path d="M19.1988 33.5986H16.8V35.9974H19.1988V33.5986Z" fill="#FFC522"/>
        <path d="M21.5975 33.5986H19.1987V35.9974H21.5975V33.5986Z" fill="#FFC522"/>
        <path d="M23.9965 33.5986H21.5977V35.9974H23.9965V33.5986Z" fill="#FFC522"/>
        <path d="M26.3964 33.5986H23.9976V35.9974H26.3964V33.5986Z" fill="#FFC522"/>
        <path d="M28.7953 33.5986H26.3965V35.9974H28.7953V33.5986Z" fill="#FFC522"/>
        <path d="M31.2001 33.5986H28.8013V35.9974H31.2001V33.5986Z" fill="#FFC522"/>
        <path d="M33.5975 33.5986H31.1987V35.9974H33.5975V33.5986Z" fill="#FFC522"/>
        <path d="M35.9977 33.5986H33.5989V35.9974H35.9977V33.5986Z" fill="#FFC522"/>
        <path d="M38.3964 33.5986H35.9976V35.9974H38.3964V33.5986Z" fill="#FFC522"/>
        <path d="M40.7953 33.5986H38.3965V35.9974H40.7953V33.5986Z" fill="#FFC522"/>
        <path d="M43.2001 33.5986H40.8013V35.9974H43.2001V33.5986Z" fill="#FFC522"/>
        <path d="M45.5988 33.5986H43.2V35.9974H45.5988V33.5986Z" fill="#FFC522"/>
        <path d="M47.9977 33.5986H45.5989V35.9974H47.9977V33.5986Z" fill="#FFC522"/>
        <path d="M50.3964 33.5986H47.9976V35.9974H50.3964V33.5986Z" fill="#F2DE98"/>
        <path d="M52.7953 33.5986H50.3965V35.9974H52.7953V33.5986Z" fill="black"/>
        <path d="M55.2001 33.5986H52.8013V35.9974H55.2001V33.5986Z" fill="white"/>
        <path d="M7.19885 36.0029H4.80005V38.4017H7.19885V36.0029Z" fill="white"/>
        <path d="M9.59753 36.0029H7.19873V38.4017H9.59753V36.0029Z" fill="black"/>
        <path d="M11.9965 36.0029H9.59766V38.4017H11.9965V36.0029Z" fill="#FF9605"/>
        <path d="M14.3951 36.0029H11.9963V38.4017H14.3951V36.0029Z" fill="#FFC522"/>
        <path d="M16.7941 36.0029H14.3953V38.4017H16.7941V36.0029Z" fill="#FFC522"/>
        <path d="M19.1988 36.0029H16.8V38.4017H19.1988V36.0029Z" fill="#FFC522"/>
        <path d="M21.5975 36.0029H19.1987V38.4017H21.5975V36.0029Z" fill="#FFC522"/>
        <path d="M23.9965 36.0029H21.5977V38.4017H23.9965V36.0029Z" fill="#FFC522"/>
        <path d="M26.3964 36.0029H23.9976V38.4017H26.3964V36.0029Z" fill="#FFC522"/>
        <path d="M28.7953 36.0029H26.3965V38.4017H28.7953V36.0029Z" fill="#FFC522"/>
        <path d="M31.2001 36.0029H28.8013V38.4017H31.2001V36.0029Z" fill="#FFC522"/>
        <path d="M33.5975 36.0029H31.1987V38.4017H33.5975V36.0029Z" fill="#FFC522"/>
        <path d="M35.9977 36.0029H33.5989V38.4017H35.9977V36.0029Z" fill="#FFC522"/>
        <path d="M38.3964 36.0029H35.9976V38.4017H38.3964V36.0029Z" fill="#FFC522"/>
        <path d="M40.7953 36.0029H38.3965V38.4017H40.7953V36.0029Z" fill="#FFC522"/>
        <path d="M43.2001 36.0029H40.8013V38.4017H43.2001V36.0029Z" fill="#FFC522"/>
        <path d="M45.5988 36.0029H43.2V38.4017H45.5988V36.0029Z" fill="#FFC522"/>
        <path d="M47.9977 36.0029H45.5989V38.4017H47.9977V36.0029Z" fill="#FFC522"/>
        <path d="M50.3964 36.0029H47.9976V38.4017H50.3964V36.0029Z" fill="#F2DE98"/>
        <path d="M52.7953 36.0029H50.3965V38.4017H52.7953V36.0029Z" fill="black"/>
        <path d="M55.2001 36.0029H52.8013V38.4017H55.2001V36.0029Z" fill="white"/>
        <path d="M9.59753 38.4033H7.19873V40.8021H9.59753V38.4033Z" fill="white"/>
        <path d="M11.9965 38.4033H9.59766V40.8021H11.9965V38.4033Z" fill="black"/>
        <path d="M14.3951 38.4033H11.9963V40.8021H14.3951V38.4033Z" fill="#FF9605"/>
        <path d="M16.7941 38.4033H14.3953V40.8021H16.7941V38.4033Z" fill="#FFC522"/>
        <path d="M19.1988 38.4033H16.8V40.8021H19.1988V38.4033Z" fill="#FFC522"/>
        <path d="M21.5975 38.4033H19.1987V40.8021H21.5975V38.4033Z" fill="#71382A"/>
        <path d="M23.9965 38.4033H21.5977V40.8021H23.9965V38.4033Z" fill="#FFC522"/>
        <path d="M26.3964 38.4033H23.9976V40.8021H26.3964V38.4033Z" fill="#FFC522"/>
        <path d="M28.7953 38.4033H26.3965V40.8021H28.7953V38.4033Z" fill="#FFC522"/>
        <path d="M31.2001 38.4033H28.8013V40.8021H31.2001V38.4033Z" fill="#FFC522"/>
        <path d="M33.5975 38.4033H31.1987V40.8021H33.5975V38.4033Z" fill="#FFC522"/>
        <path d="M35.9977 38.4033H33.5989V40.8021H35.9977V38.4033Z" fill="#FFC522"/>
        <path d="M38.3964 38.4033H35.9976V40.8021H38.3964V38.4033Z" fill="#FFC522"/>
        <path d="M40.7953 38.4033H38.3965V40.8021H40.7953V38.4033Z" fill="#71382A"/>
        <path d="M43.2001 38.4033H40.8013V40.8021H43.2001V38.4033Z" fill="#FFC522"/>
        <path d="M45.5988 38.4033H43.2V40.8021H45.5988V38.4033Z" fill="#FFC522"/>
        <path d="M47.9977 38.4033H45.5989V40.8021H47.9977V38.4033Z" fill="#F2DE98"/>
        <path d="M50.3964 38.4033H47.9976V40.8021H50.3964V38.4033Z" fill="black"/>
        <path d="M52.7953 38.4033H50.3965V40.8021H52.7953V38.4033Z" fill="white"/>
        <path d="M9.59753 40.8008H7.19873V43.1996H9.59753V40.8008Z" fill="white"/>
        <path d="M11.9965 40.8008H9.59766V43.1996H11.9965V40.8008Z" fill="black"/>
        <path d="M14.3951 40.8008H11.9963V43.1996H14.3951V40.8008Z" fill="#FF9605"/>
        <path d="M16.7941 40.8008H14.3953V43.1996H16.7941V40.8008Z" fill="#FFC522"/>
        <path d="M19.1988 40.8008H16.8V43.1996H19.1988V40.8008Z" fill="#FFC522"/>
        <path d="M21.5975 40.8008H19.1987V43.1996H21.5975V40.8008Z" fill="#FFC522"/>
        <path d="M23.9965 40.8008H21.5977V43.1996H23.9965V40.8008Z" fill="#71382A"/>
        <path d="M26.3964 40.8008H23.9976V43.1996H26.3964V40.8008Z" fill="#71382A"/>
        <path d="M28.7953 40.8008H26.3965V43.1996H28.7953V40.8008Z" fill="#71382A"/>
        <path d="M31.2001 40.8008H28.8013V43.1996H31.2001V40.8008Z" fill="#71382A"/>
        <path d="M33.5975 40.8008H31.1987V43.1996H33.5975V40.8008Z" fill="#71382A"/>
        <path d="M35.9977 40.8008H33.5989V43.1996H35.9977V40.8008Z" fill="#71382A"/>
        <path d="M38.3964 40.8008H35.9976V43.1996H38.3964V40.8008Z" fill="#71382A"/>
        <path d="M40.7953 40.8008H38.3965V43.1996H40.7953V40.8008Z" fill="#FFC522"/>
        <path d="M43.2001 40.8008H40.8013V43.1996H43.2001V40.8008Z" fill="#FFC522"/>
        <path d="M45.5988 40.8008H43.2V43.1996H45.5988V40.8008Z" fill="#FFC522"/>
        <path d="M47.9977 40.8008H45.5989V43.1996H47.9977V40.8008Z" fill="#F2DE98"/>
        <path d="M50.3964 40.8008H47.9976V43.1996H50.3964V40.8008Z" fill="black"/>
        <path d="M52.7953 40.8008H50.3965V43.1996H52.7953V40.8008Z" fill="white"/>
        <path d="M9.59753 43.2002H7.19873V45.599H9.59753V43.2002Z" fill="white"/>
        <path d="M11.9965 43.2002H9.59766V45.599H11.9965V43.2002Z" fill="white"/>
        <path d="M14.3951 43.2002H11.9963V45.599H14.3951V43.2002Z" fill="black"/>
        <path d="M16.7941 43.2002H14.3953V45.599H16.7941V43.2002Z" fill="#FF9605"/>
        <path d="M19.1988 43.2002H16.8V45.599H19.1988V43.2002Z" fill="#FFC522"/>
        <path d="M21.5975 43.2002H19.1987V45.599H21.5975V43.2002Z" fill="#FFC522"/>
        <path d="M23.9965 43.2002H21.5977V45.599H23.9965V43.2002Z" fill="#FFC522"/>
        <path d="M26.3964 43.2002H23.9976V45.599H26.3964V43.2002Z" fill="#FFC522"/>
        <path d="M28.7953 43.2002H26.3965V45.599H28.7953V43.2002Z" fill="#FFC522"/>
        <path d="M31.2001 43.2002H28.8013V45.599H31.2001V43.2002Z" fill="#FFC522"/>
        <path d="M33.5975 43.2002H31.1987V45.599H33.5975V43.2002Z" fill="#FFC522"/>
        <path d="M35.9977 43.2002H33.5989V45.599H35.9977V43.2002Z" fill="#FFC522"/>
        <path d="M38.3964 43.2002H35.9976V45.599H38.3964V43.2002Z" fill="#FFC522"/>
        <path d="M40.7953 43.2002H38.3965V45.599H40.7953V43.2002Z" fill="#FFC522"/>
        <path d="M43.2001 43.2002H40.8013V45.599H43.2001V43.2002Z" fill="#FFC522"/>
        <path d="M45.5988 43.2002H43.2V45.599H45.5988V43.2002Z" fill="#F2DE98"/>
        <path d="M47.9977 43.2002H45.5989V45.599H47.9977V43.2002Z" fill="black"/>
        <path d="M50.3964 43.2002H47.9976V45.599H50.3964V43.2002Z" fill="white"/>
        <path d="M52.7953 43.2002H50.3965V45.599H52.7953V43.2002Z" fill="white"/>
        <path d="M11.9965 45.5986H9.59766V47.9974H11.9965V45.5986Z" fill="white"/>
        <path d="M14.3951 45.5986H11.9963V47.9974H14.3951V45.5986Z" fill="white"/>
        <path d="M16.7941 45.5986H14.3953V47.9974H16.7941V45.5986Z" fill="black"/>
        <path d="M19.1988 45.5986H16.8V47.9974H19.1988V45.5986Z" fill="#FF9605"/>
        <path d="M21.5975 45.5986H19.1987V47.9974H21.5975V45.5986Z" fill="#FF9605"/>
        <path d="M23.9965 45.5986H21.5977V47.9974H23.9965V45.5986Z" fill="#FFC522"/>
        <path d="M26.3964 45.5986H23.9976V47.9974H26.3964V45.5986Z" fill="#FFC522"/>
        <path d="M28.7953 45.5986H26.3965V47.9974H28.7953V45.5986Z" fill="#FFC522"/>
        <path d="M31.2001 45.5986H28.8013V47.9974H31.2001V45.5986Z" fill="#FFC522"/>
        <path d="M33.5975 45.5986H31.1987V47.9974H33.5975V45.5986Z" fill="#FFC522"/>
        <path d="M35.9977 45.5986H33.5989V47.9974H35.9977V45.5986Z" fill="#FFC522"/>
        <path d="M38.3964 45.5986H35.9976V47.9974H38.3964V45.5986Z" fill="#FFC522"/>
        <path d="M40.7953 45.5986H38.3965V47.9974H40.7953V45.5986Z" fill="#F2DE98"/>
        <path d="M43.2001 45.5986H40.8013V47.9974H43.2001V45.5986Z" fill="#F2DE98"/>
        <path d="M45.5988 45.5986H43.2V47.9974H45.5988V45.5986Z" fill="black"/>
        <path d="M47.9977 45.5986H45.5989V47.9974H47.9977V45.5986Z" fill="white"/>
        <path d="M50.3964 45.5986H47.9976V47.9974H50.3964V45.5986Z" fill="white"/>
        <path d="M14.3951 48.0029H11.9963V50.4017H14.3951V48.0029Z" fill="white"/>
        <path d="M16.7941 48.0029H14.3953V50.4017H16.7941V48.0029Z" fill="white"/>
        <path d="M19.1988 48.0029H16.8V50.4017H19.1988V48.0029Z" fill="black"/>
        <path d="M21.5975 48.0029H19.1987V50.4017H21.5975V48.0029Z" fill="black"/>
        <path d="M23.9965 48.0029H21.5977V50.4017H23.9965V48.0029Z" fill="#FF9605"/>
        <path d="M26.3964 48.0029H23.9976V50.4017H26.3964V48.0029Z" fill="#FF9605"/>
        <path d="M28.7953 48.0029H26.3965V50.4017H28.7953V48.0029Z" fill="#FF9605"/>
        <path d="M31.2001 48.0029H28.8013V50.4017H31.2001V48.0029Z" fill="#FF9605"/>
        <path d="M33.5975 48.0029H31.1987V50.4017H33.5975V48.0029Z" fill="#FF9605"/>
        <path d="M35.9977 48.0029H33.5989V50.4017H35.9977V48.0029Z" fill="#FF9605"/>
        <path d="M38.3964 48.0029H35.9976V50.4017H38.3964V48.0029Z" fill="#FF9605"/>
        <path d="M40.7953 48.0029H38.3965V50.4017H40.7953V48.0029Z" fill="black"/>
        <path d="M43.2001 48.0029H40.8013V50.4017H43.2001V48.0029Z" fill="black"/>
        <path d="M45.5988 48.0029H43.2V50.4017H45.5988V48.0029Z" fill="white"/>
        <path d="M47.9977 48.0029H45.5989V50.4017H47.9977V48.0029Z" fill="white"/>
        <path d="M16.7941 50.4033H14.3953V52.8021H16.7941V50.4033Z" fill="white"/>
        <path d="M19.1988 50.4033H16.8V52.8021H19.1988V50.4033Z" fill="white"/>
        <path d="M21.5975 50.4033H19.1987V52.8021H21.5975V50.4033Z" fill="white"/>
        <path d="M23.9965 50.4033H21.5977V52.8021H23.9965V50.4033Z" fill="black"/>
        <path d="M26.3964 50.4033H23.9976V52.8021H26.3964V50.4033Z" fill="black"/>
        <path d="M28.7953 50.4033H26.3965V52.8021H28.7953V50.4033Z" fill="black"/>
        <path d="M31.2001 50.4033H28.8013V52.8021H31.2001V50.4033Z" fill="black"/>
        <path d="M33.5975 50.4033H31.1987V52.8021H33.5975V50.4033Z" fill="black"/>
        <path d="M35.9977 50.4033H33.5989V52.8021H35.9977V50.4033Z" fill="black"/>
        <path d="M38.3964 50.4033H35.9976V52.8021H38.3964V50.4033Z" fill="black"/>
        <path d="M40.7953 50.4033H38.3965V52.8021H40.7953V50.4033Z" fill="white"/>
        <path d="M43.2001 50.4033H40.8013V52.8021H43.2001V50.4033Z" fill="white"/>
        <path d="M45.5988 50.4033H43.2V52.8021H45.5988V50.4033Z" fill="white"/>
        <path d="M21.5975 52.8008H19.1987V55.1996H21.5975V52.8008Z" fill="white"/>
        <path d="M23.9965 52.8008H21.5977V55.1996H23.9965V52.8008Z" fill="white"/>
        <path d="M26.3964 52.8008H23.9976V55.1996H26.3964V52.8008Z" fill="white"/>
        <path d="M28.7953 52.8008H26.3965V55.1996H28.7953V52.8008Z" fill="white"/>
        <path d="M31.2001 52.8008H28.8013V55.1996H31.2001V52.8008Z" fill="white"/>
        <path d="M33.5975 52.8008H31.1987V55.1996H33.5975V52.8008Z" fill="white"/>
        <path d="M35.9977 52.8008H33.5989V55.1996H35.9977V52.8008Z" fill="white"/>
        <path d="M38.3964 52.8008H35.9976V55.1996H38.3964V52.8008Z" fill="white"/>
        <path d="M40.7953 52.8008H38.3965V55.1996H40.7953V52.8008Z" fill="white"/>
    </g>
    <defs>
        <clipPath id="clip0_2279_14806">
            <rect width="50.4" height="50.4" fill="white" transform="translate(4.80005 4.7998)"/>
        </clipPath>
    </defs>
</svg>
