<svg width="60" height="60" viewBox="0 0 60 60" fill="none" xmlns="http://www.w3.org/2000/svg">
    <path d="M14.4816 8.3999H12.4135V10.4679H14.4816V8.3999Z" fill="white"/>
    <path d="M16.5497 8.3999H14.4816V10.4679H16.5497V8.3999Z" fill="white"/>
    <path d="M18.6178 8.3999H16.5498V10.4679H18.6178V8.3999Z" fill="white"/>
    <path d="M20.6911 8.3999H18.623V10.4679H20.6911V8.3999Z" fill="white"/>
    <path d="M22.7593 8.3999H20.6912V10.4679H22.7593V8.3999Z" fill="white"/>
    <path d="M24.8271 8.3999H22.759V10.4679H24.8271V8.3999Z" fill="white"/>
    <path d="M37.2409 8.3999H35.1728V10.4679H37.2409V8.3999Z" fill="white"/>
    <path d="M39.3092 8.3999H37.2411V10.4679H39.3092V8.3999Z" fill="white"/>
    <path d="M41.3819 8.3999H39.3138V10.4679H41.3819V8.3999Z" fill="white"/>
    <path d="M43.4501 8.3999H41.3821V10.4679H43.4501V8.3999Z" fill="white"/>
    <path d="M45.5183 8.3999H43.4502V10.4679H45.5183V8.3999Z" fill="white"/>
    <path d="M47.5866 8.3999H45.5185V10.4679H47.5866V8.3999Z" fill="white"/>
    <path d="M12.4138 10.4683H10.3457V12.5364H12.4138V10.4683Z" fill="white"/>
    <path d="M14.4816 10.4683H12.4135V12.5364H14.4816V10.4683Z" fill="black"/>
    <path d="M16.5497 10.4683H14.4816V12.5364H16.5497V10.4683Z" fill="black"/>
    <path d="M18.6178 10.4683H16.5498V12.5364H18.6178V10.4683Z" fill="black"/>
    <path d="M20.6911 10.4683H18.623V12.5364H20.6911V10.4683Z" fill="black"/>
    <path d="M22.7593 10.4683H20.6912V12.5364H22.7593V10.4683Z" fill="black"/>
    <path d="M24.8271 10.4683H22.759V12.5364H24.8271V10.4683Z" fill="black"/>
    <path d="M26.8952 10.4683H24.8272V12.5364H26.8952V10.4683Z" fill="white"/>
    <path d="M35.1727 10.4683H33.1046V12.5364H35.1727V10.4683Z" fill="white"/>
    <path d="M37.2409 10.4683H35.1728V12.5364H37.2409V10.4683Z" fill="black"/>
    <path d="M39.3092 10.4683H37.2411V12.5364H39.3092V10.4683Z" fill="black"/>
    <path d="M41.3819 10.4683H39.3138V12.5364H41.3819V10.4683Z" fill="black"/>
    <path d="M43.4501 10.4683H41.3821V12.5364H43.4501V10.4683Z" fill="black"/>
    <path d="M45.5183 10.4683H43.4502V12.5364H45.5183V10.4683Z" fill="black"/>
    <path d="M47.5866 10.4683H45.5185V12.5364H47.5866V10.4683Z" fill="black"/>
    <path d="M49.6543 10.4683H47.5862V12.5364H49.6543V10.4683Z" fill="white"/>
    <path d="M10.3453 12.5361H8.27728V14.6042H10.3453V12.5361Z" fill="white"/>
    <path d="M12.4138 12.5361H10.3457V14.6042H12.4138V12.5361Z" fill="black"/>
    <path d="M14.4816 12.5361H12.4135V14.6042H14.4816V12.5361Z" fill="white"/>
    <path d="M16.5497 12.5361H14.4816V14.6042H16.5497V12.5361Z" fill="white"/>
    <path d="M18.6178 12.5361H16.5498V14.6042H18.6178V12.5361Z" fill="white"/>
    <path d="M20.6911 12.5361H18.623V14.6042H20.6911V12.5361Z" fill="white"/>
    <path d="M22.7593 12.5361H20.6912V14.6042H22.7593V12.5361Z" fill="white"/>
    <path d="M24.8271 12.5361H22.759V14.6042H24.8271V12.5361Z" fill="white"/>
    <path d="M26.8952 12.5361H24.8272V14.6042H26.8952V12.5361Z" fill="black"/>
    <path d="M28.9635 12.5361H26.8954V14.6042H28.9635V12.5361Z" fill="white"/>
    <path d="M33.1044 12.5361H31.0363V14.6042H33.1044V12.5361Z" fill="white"/>
    <path d="M35.1727 12.5361H33.1046V14.6042H35.1727V12.5361Z" fill="black"/>
    <path d="M37.2409 12.5361H35.1728V14.6042H37.2409V12.5361Z" fill="white"/>
    <path d="M39.3092 12.5361H37.2411V14.6042H39.3092V12.5361Z" fill="white"/>
    <path d="M41.3819 12.5361H39.3138V14.6042H41.3819V12.5361Z" fill="white"/>
    <path d="M43.4501 12.5361H41.3821V14.6042H43.4501V12.5361Z" fill="white"/>
    <path d="M45.5183 12.5361H43.4502V14.6042H45.5183V12.5361Z" fill="white"/>
    <path d="M47.5866 12.5361H45.5185V14.6042H47.5866V12.5361Z" fill="white"/>
    <path d="M49.6543 12.5361H47.5862V14.6042H49.6543V12.5361Z" fill="black"/>
    <path d="M51.7275 12.5361H49.6595V14.6042H51.7275V12.5361Z" fill="white"/>
    <path d="M8.27228 14.6094H6.20418V16.6774H8.27228V14.6094Z" fill="white"/>
    <path d="M10.3453 14.6094H8.27728V16.6774H10.3453V14.6094Z" fill="black"/>
    <path d="M12.4138 14.6094H10.3457V16.6774H12.4138V14.6094Z" fill="white"/>
    <path d="M14.4816 14.6094H12.4135V16.6774H14.4816V14.6094Z" fill="white"/>
    <path d="M16.5497 14.6094H14.4816V16.6774H16.5497V14.6094Z" fill="white"/>
    <path d="M18.6178 14.6094H16.5498V16.6774H18.6178V14.6094Z" fill="white"/>
    <path d="M20.6911 14.6094H18.623V16.6774H20.6911V14.6094Z" fill="white"/>
    <path d="M22.7593 14.6094H20.6912V16.6774H22.7593V14.6094Z" fill="white"/>
    <path d="M24.8271 14.6094H22.759V16.6774H24.8271V14.6094Z" fill="white"/>
    <path d="M26.8952 14.6094H24.8272V16.6774H26.8952V14.6094Z" fill="white"/>
    <path d="M28.9635 14.6094H26.8954V16.6774H28.9635V14.6094Z" fill="black"/>
    <path d="M31.0367 14.6094H28.9686V16.6774H31.0367V14.6094Z" fill="white"/>
    <path d="M33.1044 14.6094H31.0363V16.6774H33.1044V14.6094Z" fill="black"/>
    <path d="M35.1727 14.6094H33.1046V16.6774H35.1727V14.6094Z" fill="white"/>
    <path d="M37.2409 14.6094H35.1728V16.6774H37.2409V14.6094Z" fill="white"/>
    <path d="M39.3092 14.6094H37.2411V16.6774H39.3092V14.6094Z" fill="white"/>
    <path d="M41.3819 14.6094H39.3138V16.6774H41.3819V14.6094Z" fill="white"/>
    <path d="M43.4501 14.6094H41.3821V16.6774H43.4501V14.6094Z" fill="white"/>
    <path d="M45.5183 14.6094H43.4502V16.6774H45.5183V14.6094Z" fill="white"/>
    <path d="M47.5866 14.6094H45.5185V16.6774H47.5866V14.6094Z" fill="white"/>
    <path d="M49.6543 14.6094H47.5862V16.6774H49.6543V14.6094Z" fill="white"/>
    <path d="M51.7275 14.6094H49.6595V16.6774H51.7275V14.6094Z" fill="black"/>
    <path d="M53.7958 14.6094H51.7277V16.6774H53.7958V14.6094Z" fill="white"/>
    <path d="M6.20396 16.6777H4.13586V18.7458H6.20396V16.6777Z" fill="white"/>
    <path d="M8.27228 16.6777H6.20418V18.7458H8.27228V16.6777Z" fill="black"/>
    <path d="M10.3453 16.6777H8.27728V18.7458H10.3453V16.6777Z" fill="white"/>
    <path d="M12.4138 16.6777H10.3457V18.7458H12.4138V16.6777Z" fill="white"/>
    <path d="M14.4816 16.6777H12.4135V18.7458H14.4816V16.6777Z" fill="white"/>
    <path d="M16.5497 16.6777H14.4816V18.7458H16.5497V16.6777Z" fill="white"/>
    <path d="M18.6178 16.6777H16.5498V18.7458H18.6178V16.6777Z" fill="white"/>
    <path d="M20.6911 16.6777H18.623V18.7458H20.6911V16.6777Z" fill="white"/>
    <path d="M22.7593 16.6777H20.6912V18.7458H22.7593V16.6777Z" fill="white"/>
    <path d="M24.8271 16.6777H22.759V18.7458H24.8271V16.6777Z" fill="white"/>
    <path d="M26.8952 16.6777H24.8272V18.7458H26.8952V16.6777Z" fill="white"/>
    <path d="M28.9635 16.6777H26.8954V18.7458H28.9635V16.6777Z" fill="#DADADA"/>
    <path d="M31.0367 16.6777H28.9686V18.7458H31.0367V16.6777Z" fill="black"/>
    <path d="M33.1044 16.6777H31.0363V18.7458H33.1044V16.6777Z" fill="#DADADA"/>
    <path d="M35.1727 16.6777H33.1046V18.7458H35.1727V16.6777Z" fill="white"/>
    <path d="M37.2409 16.6777H35.1728V18.7458H37.2409V16.6777Z" fill="white"/>
    <path d="M39.3092 16.6777H37.2411V18.7458H39.3092V16.6777Z" fill="white"/>
    <path d="M41.3819 16.6777H39.3138V18.7458H41.3819V16.6777Z" fill="white"/>
    <path d="M43.4501 16.6777H41.3821V18.7458H43.4501V16.6777Z" fill="white"/>
    <path d="M45.5183 16.6777H43.4502V18.7458H45.5183V16.6777Z" fill="white"/>
    <path d="M47.5866 16.6777H45.5185V18.7458H47.5866V16.6777Z" fill="white"/>
    <path d="M49.6543 16.6777H47.5862V18.7458H49.6543V16.6777Z" fill="white"/>
    <path d="M51.7275 16.6777H49.6595V18.7458H51.7275V16.6777Z" fill="white"/>
    <path d="M53.7958 16.6777H51.7277V18.7458H53.7958V16.6777Z" fill="black"/>
    <path d="M55.8639 16.6777H53.7958V18.7458H55.8639V16.6777Z" fill="white"/>
    <path d="M4.1358 18.7451H2.0677V20.8132H4.1358V18.7451Z" fill="white"/>
    <path d="M6.20396 18.7451H4.13586V20.8132H6.20396V18.7451Z" fill="black"/>
    <path d="M8.27228 18.7451H6.20418V20.8132H8.27228V18.7451Z" fill="#C0C0C0"/>
    <path d="M10.3453 18.7451H8.27728V20.8132H10.3453V18.7451Z" fill="white"/>
    <path d="M12.4138 18.7451H10.3457V20.8132H12.4138V18.7451Z" fill="white"/>
    <path d="M14.4816 18.7451H12.4135V20.8132H14.4816V18.7451Z" fill="#DADADA"/>
    <path d="M16.5497 18.7451H14.4816V20.8132H16.5497V18.7451Z" fill="#DADADA"/>
    <path d="M18.6178 18.7451H16.5498V20.8132H18.6178V18.7451Z" fill="white"/>
    <path d="M20.6911 18.7451H18.623V20.8132H20.6911V18.7451Z" fill="#DADADA"/>
    <path d="M22.7593 18.7451H20.6912V20.8132H22.7593V18.7451Z" fill="#DADADA"/>
    <path d="M24.8271 18.7451H22.759V20.8132H24.8271V18.7451Z" fill="white"/>
    <path d="M26.8952 18.7451H24.8272V20.8132H26.8952V18.7451Z" fill="white"/>
    <path d="M28.9635 18.7451H26.8954V20.8132H28.9635V18.7451Z" fill="#DADADA"/>
    <path d="M31.0367 18.7451H28.9686V20.8132H31.0367V18.7451Z" fill="#C0C0C0"/>
    <path d="M33.1044 18.7451H31.0363V20.8132H33.1044V18.7451Z" fill="#DADADA"/>
    <path d="M35.1727 18.7451H33.1046V20.8132H35.1727V18.7451Z" fill="white"/>
    <path d="M37.2409 18.7451H35.1728V20.8132H37.2409V18.7451Z" fill="#DADADA"/>
    <path d="M39.3092 18.7451H37.2411V20.8132H39.3092V18.7451Z" fill="white"/>
    <path d="M41.3819 18.7451H39.3138V20.8132H41.3819V18.7451Z" fill="#DADADA"/>
    <path d="M43.4501 18.7451H41.3821V20.8132H43.4501V18.7451Z" fill="#DADADA"/>
    <path d="M45.5183 18.7451H43.4502V20.8132H45.5183V18.7451Z" fill="#DADADA"/>
    <path d="M47.5866 18.7451H45.5185V20.8132H47.5866V18.7451Z" fill="#DADADA"/>
    <path d="M49.6543 18.7451H47.5862V20.8132H49.6543V18.7451Z" fill="white"/>
    <path d="M51.7275 18.7451H49.6595V20.8132H51.7275V18.7451Z" fill="white"/>
    <path d="M53.7958 18.7451H51.7277V20.8132H53.7958V18.7451Z" fill="#C0C0C0"/>
    <path d="M55.8639 18.7451H53.7958V20.8132H55.8639V18.7451Z" fill="black"/>
    <path d="M57.9316 18.7451H55.8635V20.8132H57.9316V18.7451Z" fill="white"/>
    <path d="M2.06804 20.813H0V22.8811H2.06804V20.813Z" fill="white"/>
    <path d="M4.1358 20.813H2.0677V22.8811H4.1358V20.813Z" fill="black"/>
    <path d="M6.20396 20.813H4.13586V22.8811H6.20396V20.813Z" fill="#24CFDF"/>
    <path d="M8.27228 20.813H6.20418V22.8811H8.27228V20.813Z" fill="#C0C0C0"/>
    <path d="M10.3453 20.813H8.27728V22.8811H10.3453V20.813Z" fill="white"/>
    <path d="M12.4138 20.813H10.3457V22.8811H12.4138V20.813Z" fill="white"/>
    <path d="M14.4816 20.813H12.4135V22.8811H14.4816V20.813Z" fill="white"/>
    <path d="M16.5497 20.813H14.4816V22.8811H16.5497V20.813Z" fill="white"/>
    <path d="M18.6178 20.813H16.5498V22.8811H18.6178V20.813Z" fill="white"/>
    <path d="M20.6911 20.813H18.623V22.8811H20.6911V20.813Z" fill="white"/>
    <path d="M22.7593 20.813H20.6912V22.8811H22.7593V20.813Z" fill="white"/>
    <path d="M24.8271 20.813H22.759V22.8811H24.8271V20.813Z" fill="white"/>
    <path d="M26.8952 20.813H24.8272V22.8811H26.8952V20.813Z" fill="white"/>
    <path d="M28.9635 20.813H26.8954V22.8811H28.9635V20.813Z" fill="#DADADA"/>
    <path d="M31.0367 20.813H28.9686V22.8811H31.0367V20.813Z" fill="#C0C0C0"/>
    <path d="M33.1044 20.813H31.0363V22.8811H33.1044V20.813Z" fill="#DADADA"/>
    <path d="M35.1727 20.813H33.1046V22.8811H35.1727V20.813Z" fill="white"/>
    <path d="M37.2409 20.813H35.1728V22.8811H37.2409V20.813Z" fill="white"/>
    <path d="M39.3092 20.813H37.2411V22.8811H39.3092V20.813Z" fill="white"/>
    <path d="M41.3819 20.813H39.3138V22.8811H41.3819V20.813Z" fill="white"/>
    <path d="M43.4501 20.813H41.3821V22.8811H43.4501V20.813Z" fill="white"/>
    <path d="M45.5183 20.813H43.4502V22.8811H45.5183V20.813Z" fill="white"/>
    <path d="M47.5866 20.813H45.5185V22.8811H47.5866V20.813Z" fill="white"/>
    <path d="M49.6543 20.813H47.5862V22.8811H49.6543V20.813Z" fill="white"/>
    <path d="M51.7275 20.813H49.6595V22.8811H51.7275V20.813Z" fill="white"/>
    <path d="M53.7958 20.813H51.7277V22.8811H53.7958V20.813Z" fill="#C0C0C0"/>
    <path d="M55.8639 20.813H53.7958V22.8811H55.8639V20.813Z" fill="#94EAFF"/>
    <path d="M57.9316 20.813H55.8635V22.8811H57.9316V20.813Z" fill="black"/>
    <path d="M60 20.813H57.932V22.8811H60V20.813Z" fill="white"/>
    <path d="M2.06804 22.8818H0V24.9499H2.06804V22.8818Z" fill="white"/>
    <path d="M4.1358 22.8818H2.0677V24.9499H4.1358V22.8818Z" fill="black"/>
    <path d="M6.20396 22.8818H4.13586V24.9499H6.20396V22.8818Z" fill="#24CFDF"/>
    <path d="M8.27228 22.8818H6.20418V24.9499H8.27228V22.8818Z" fill="#C0C0C0"/>
    <path d="M10.3453 22.8818H8.27728V24.9499H10.3453V22.8818Z" fill="white"/>
    <path d="M12.4138 22.8818H10.3457V24.9499H12.4138V22.8818Z" fill="white"/>
    <path d="M14.4816 22.8818H12.4135V24.9499H14.4816V22.8818Z" fill="#DADADA"/>
    <path d="M16.5497 22.8818H14.4816V24.9499H16.5497V22.8818Z" fill="white"/>
    <path d="M18.6178 22.8818H16.5498V24.9499H18.6178V22.8818Z" fill="#DADADA"/>
    <path d="M20.6911 22.8818H18.623V24.9499H20.6911V22.8818Z" fill="#DADADA"/>
    <path d="M22.7593 22.8818H20.6912V24.9499H22.7593V22.8818Z" fill="#DADADA"/>
    <path d="M24.8271 22.8818H22.759V24.9499H24.8271V22.8818Z" fill="#DADADA"/>
    <path d="M26.8952 22.8818H24.8272V24.9499H26.8952V22.8818Z" fill="white"/>
    <path d="M28.9635 22.8818H26.8954V24.9499H28.9635V22.8818Z" fill="#DADADA"/>
    <path d="M31.0367 22.8818H28.9686V24.9499H31.0367V22.8818Z" fill="#C0C0C0"/>
    <path d="M33.1044 22.8818H31.0363V24.9499H33.1044V22.8818Z" fill="#DADADA"/>
    <path d="M35.1727 22.8818H33.1046V24.9499H35.1727V22.8818Z" fill="white"/>
    <path d="M37.2409 22.8818H35.1728V24.9499H37.2409V22.8818Z" fill="#DADADA"/>
    <path d="M39.3092 22.8818H37.2411V24.9499H39.3092V22.8818Z" fill="#DADADA"/>
    <path d="M41.3819 22.8818H39.3138V24.9499H41.3819V22.8818Z" fill="#DADADA"/>
    <path d="M43.4501 22.8818H41.3821V24.9499H43.4501V22.8818Z" fill="white"/>
    <path d="M45.5183 22.8818H43.4502V24.9499H45.5183V22.8818Z" fill="#DADADA"/>
    <path d="M47.5866 22.8818H45.5185V24.9499H47.5866V22.8818Z" fill="#DADADA"/>
    <path d="M49.6543 22.8818H47.5862V24.9499H49.6543V22.8818Z" fill="white"/>
    <path d="M51.7275 22.8818H49.6595V24.9499H51.7275V22.8818Z" fill="white"/>
    <path d="M53.7958 22.8818H51.7277V24.9499H53.7958V22.8818Z" fill="#C0C0C0"/>
    <path d="M55.8639 22.8818H53.7958V24.9499H55.8639V22.8818Z" fill="#94EAFF"/>
    <path d="M57.9316 22.8818H55.8635V24.9499H57.9316V22.8818Z" fill="black"/>
    <path d="M60 22.8818H57.932V24.9499H60V22.8818Z" fill="white"/>
    <path d="M2.06804 24.9546H0V27.0227H2.06804V24.9546Z" fill="white"/>
    <path d="M4.1358 24.9546H2.0677V27.0227H4.1358V24.9546Z" fill="black"/>
    <path d="M6.20396 24.9546H4.13586V27.0227H6.20396V24.9546Z" fill="#24CFDF"/>
    <path d="M8.27228 24.9546H6.20418V27.0227H8.27228V24.9546Z" fill="#C0C0C0"/>
    <path d="M10.3453 24.9546H8.27728V27.0227H10.3453V24.9546Z" fill="white"/>
    <path d="M12.4138 24.9546H10.3457V27.0227H12.4138V24.9546Z" fill="#DADADA"/>
    <path d="M14.4816 24.9546H12.4135V27.0227H14.4816V24.9546Z" fill="white"/>
    <path d="M16.5497 24.9546H14.4816V27.0227H16.5497V24.9546Z" fill="white"/>
    <path d="M18.6178 24.9546H16.5498V27.0227H18.6178V24.9546Z" fill="white"/>
    <path d="M20.6911 24.9546H18.623V27.0227H20.6911V24.9546Z" fill="white"/>
    <path d="M22.7593 24.9546H20.6912V27.0227H22.7593V24.9546Z" fill="white"/>
    <path d="M24.8271 24.9546H22.759V27.0227H24.8271V24.9546Z" fill="white"/>
    <path d="M26.8952 24.9546H24.8272V27.0227H26.8952V24.9546Z" fill="white"/>
    <path d="M28.9635 24.9546H26.8954V27.0227H28.9635V24.9546Z" fill="#DADADA"/>
    <path d="M31.0367 24.9546H28.9686V27.0227H31.0367V24.9546Z" fill="#C0C0C0"/>
    <path d="M33.1044 24.9546H31.0363V27.0227H33.1044V24.9546Z" fill="#DADADA"/>
    <path d="M35.1727 24.9546H33.1046V27.0227H35.1727V24.9546Z" fill="white"/>
    <path d="M37.2409 24.9546H35.1728V27.0227H37.2409V24.9546Z" fill="white"/>
    <path d="M39.3092 24.9546H37.2411V27.0227H39.3092V24.9546Z" fill="white"/>
    <path d="M41.3819 24.9546H39.3138V27.0227H41.3819V24.9546Z" fill="white"/>
    <path d="M43.4501 24.9546H41.3821V27.0227H43.4501V24.9546Z" fill="white"/>
    <path d="M45.5183 24.9546H43.4502V27.0227H45.5183V24.9546Z" fill="white"/>
    <path d="M47.5866 24.9546H45.5185V27.0227H47.5866V24.9546Z" fill="white"/>
    <path d="M49.6543 24.9546H47.5862V27.0227H49.6543V24.9546Z" fill="#DADADA"/>
    <path d="M51.7275 24.9546H49.6595V27.0227H51.7275V24.9546Z" fill="white"/>
    <path d="M53.7958 24.9546H51.7277V27.0227H53.7958V24.9546Z" fill="#C0C0C0"/>
    <path d="M55.8639 24.9546H53.7958V27.0227H55.8639V24.9546Z" fill="#94EAFF"/>
    <path d="M57.9316 24.9546H55.8635V27.0227H57.9316V24.9546Z" fill="black"/>
    <path d="M60 24.9546H57.932V27.0227H60V24.9546Z" fill="white"/>
    <path d="M2.06804 27.0229H0V29.091H2.06804V27.0229Z" fill="white"/>
    <path d="M4.1358 27.0229H2.0677V29.091H4.1358V27.0229Z" fill="black"/>
    <path d="M6.20396 27.0229H4.13586V29.091H6.20396V27.0229Z" fill="#24CFDF"/>
    <path d="M8.27228 27.0229H6.20418V29.091H8.27228V27.0229Z" fill="#C0C0C0"/>
    <path d="M10.3453 27.0229H8.27728V29.091H10.3453V27.0229Z" fill="white"/>
    <path d="M12.4138 27.0229H10.3457V29.091H12.4138V27.0229Z" fill="white"/>
    <path d="M14.4816 27.0229H12.4135V29.091H14.4816V27.0229Z" fill="white"/>
    <path d="M16.5497 27.0229H14.4816V29.091H16.5497V27.0229Z" fill="white"/>
    <path d="M18.6178 27.0229H16.5498V29.091H18.6178V27.0229Z" fill="white"/>
    <path d="M20.6911 27.0229H18.623V29.091H20.6911V27.0229Z" fill="white"/>
    <path d="M22.7593 27.0229H20.6912V29.091H22.7593V27.0229Z" fill="white"/>
    <path d="M24.8271 27.0229H22.759V29.091H24.8271V27.0229Z" fill="white"/>
    <path d="M26.8952 27.0229H24.8272V29.091H26.8952V27.0229Z" fill="white"/>
    <path d="M28.9635 27.0229H26.8954V29.091H28.9635V27.0229Z" fill="#DADADA"/>
    <path d="M31.0367 27.0229H28.9686V29.091H31.0367V27.0229Z" fill="#C0C0C0"/>
    <path d="M33.1044 27.0229H31.0363V29.091H33.1044V27.0229Z" fill="#DADADA"/>
    <path d="M35.1727 27.0229H33.1046V29.091H35.1727V27.0229Z" fill="white"/>
    <path d="M37.2409 27.0229H35.1728V29.091H37.2409V27.0229Z" fill="white"/>
    <path d="M39.3092 27.0229H37.2411V29.091H39.3092V27.0229Z" fill="white"/>
    <path d="M41.3819 27.0229H39.3138V29.091H41.3819V27.0229Z" fill="white"/>
    <path d="M43.4501 27.0229H41.3821V29.091H43.4501V27.0229Z" fill="white"/>
    <path d="M45.5183 27.0229H43.4502V29.091H45.5183V27.0229Z" fill="white"/>
    <path d="M47.5866 27.0229H45.5185V29.091H47.5866V27.0229Z" fill="white"/>
    <path d="M49.6543 27.0229H47.5862V29.091H49.6543V27.0229Z" fill="white"/>
    <path d="M51.7275 27.0229H49.6595V29.091H51.7275V27.0229Z" fill="white"/>
    <path d="M53.7958 27.0229H51.7277V29.091H53.7958V27.0229Z" fill="#C0C0C0"/>
    <path d="M55.8639 27.0229H53.7958V29.091H55.8639V27.0229Z" fill="#94EAFF"/>
    <path d="M57.9316 27.0229H55.8635V29.091H57.9316V27.0229Z" fill="black"/>
    <path d="M60 27.0229H57.932V29.091H60V27.0229Z" fill="white"/>
    <path d="M2.06804 29.0908H0V31.1589H2.06804V29.0908Z" fill="white"/>
    <path d="M4.1358 29.0908H2.0677V31.1589H4.1358V29.0908Z" fill="black"/>
    <path d="M6.20396 29.0908H4.13586V31.1589H6.20396V29.0908Z" fill="#24CFDF"/>
    <path d="M8.27228 29.0908H6.20418V31.1589H8.27228V29.0908Z" fill="#C0C0C0"/>
    <path d="M10.3453 29.0908H8.27728V31.1589H10.3453V29.0908Z" fill="white"/>
    <path d="M12.4138 29.0908H10.3457V31.1589H12.4138V29.0908Z" fill="white"/>
    <path d="M14.4816 29.0908H12.4135V31.1589H14.4816V29.0908Z" fill="#DADADA"/>
    <path d="M16.5497 29.0908H14.4816V31.1589H16.5497V29.0908Z" fill="#DADADA"/>
    <path d="M18.6178 29.0908H16.5498V31.1589H18.6178V29.0908Z" fill="#DADADA"/>
    <path d="M20.6911 29.0908H18.623V31.1589H20.6911V29.0908Z" fill="#DADADA"/>
    <path d="M22.7593 29.0908H20.6912V31.1589H22.7593V29.0908Z" fill="#DADADA"/>
    <path d="M24.8271 29.0908H22.759V31.1589H24.8271V29.0908Z" fill="#DADADA"/>
    <path d="M26.8952 29.0908H24.8272V31.1589H26.8952V29.0908Z" fill="white"/>
    <path d="M28.9635 29.0908H26.8954V31.1589H28.9635V29.0908Z" fill="#DADADA"/>
    <path d="M31.0367 29.0908H28.9686V31.1589H31.0367V29.0908Z" fill="#C0C0C0"/>
    <path d="M33.1044 29.0908H31.0363V31.1589H33.1044V29.0908Z" fill="#DADADA"/>
    <path d="M35.1727 29.0908H33.1046V31.1589H35.1727V29.0908Z" fill="white"/>
    <path d="M37.2409 29.0908H35.1728V31.1589H37.2409V29.0908Z" fill="#DADADA"/>
    <path d="M39.3092 29.0908H37.2411V31.1589H39.3092V29.0908Z" fill="#DADADA"/>
    <path d="M41.3819 29.0908H39.3138V31.1589H41.3819V29.0908Z" fill="#DADADA"/>
    <path d="M43.4501 29.0908H41.3821V31.1589H43.4501V29.0908Z" fill="#DADADA"/>
    <path d="M45.5183 29.0908H43.4502V31.1589H45.5183V29.0908Z" fill="#DADADA"/>
    <path d="M47.5866 29.0908H45.5185V31.1589H47.5866V29.0908Z" fill="#DADADA"/>
    <path d="M49.6543 29.0908H47.5862V31.1589H49.6543V29.0908Z" fill="white"/>
    <path d="M51.7275 29.0908H49.6595V31.1589H51.7275V29.0908Z" fill="white"/>
    <path d="M53.7958 29.0908H51.7277V31.1589H53.7958V29.0908Z" fill="#C0C0C0"/>
    <path d="M55.8639 29.0908H53.7958V31.1589H55.8639V29.0908Z" fill="#94EAFF"/>
    <path d="M57.9316 29.0908H55.8635V31.1589H57.9316V29.0908Z" fill="black"/>
    <path d="M60 29.0908H57.932V31.1589H60V29.0908Z" fill="white"/>
    <path d="M2.06804 31.1592H0V33.2272H2.06804V31.1592Z" fill="white"/>
    <path d="M4.1358 31.1592H2.0677V33.2272H4.1358V31.1592Z" fill="black"/>
    <path d="M6.20396 31.1592H4.13586V33.2272H6.20396V31.1592Z" fill="#24CFDF"/>
    <path d="M8.27228 31.1592H6.20418V33.2272H8.27228V31.1592Z" fill="#C0C0C0"/>
    <path d="M10.3453 31.1592H8.27728V33.2272H10.3453V31.1592Z" fill="white"/>
    <path d="M12.4138 31.1592H10.3457V33.2272H12.4138V31.1592Z" fill="#DADADA"/>
    <path d="M14.4816 31.1592H12.4135V33.2272H14.4816V31.1592Z" fill="white"/>
    <path d="M16.5497 31.1592H14.4816V33.2272H16.5497V31.1592Z" fill="white"/>
    <path d="M18.6178 31.1592H16.5498V33.2272H18.6178V31.1592Z" fill="white"/>
    <path d="M20.6911 31.1592H18.623V33.2272H20.6911V31.1592Z" fill="white"/>
    <path d="M22.7593 31.1592H20.6912V33.2272H22.7593V31.1592Z" fill="white"/>
    <path d="M24.8271 31.1592H22.759V33.2272H24.8271V31.1592Z" fill="white"/>
    <path d="M26.8952 31.1592H24.8272V33.2272H26.8952V31.1592Z" fill="white"/>
    <path d="M28.9635 31.1592H26.8954V33.2272H28.9635V31.1592Z" fill="#DADADA"/>
    <path d="M31.0367 31.1592H28.9686V33.2272H31.0367V31.1592Z" fill="#C0C0C0"/>
    <path d="M33.1044 31.1592H31.0363V33.2272H33.1044V31.1592Z" fill="#DADADA"/>
    <path d="M35.1727 31.1592H33.1046V33.2272H35.1727V31.1592Z" fill="white"/>
    <path d="M37.2409 31.1592H35.1728V33.2272H37.2409V31.1592Z" fill="white"/>
    <path d="M39.3092 31.1592H37.2411V33.2272H39.3092V31.1592Z" fill="white"/>
    <path d="M41.3819 31.1592H39.3138V33.2272H41.3819V31.1592Z" fill="white"/>
    <path d="M43.4501 31.1592H41.3821V33.2272H43.4501V31.1592Z" fill="white"/>
    <path d="M45.5183 31.1592H43.4502V33.2272H45.5183V31.1592Z" fill="white"/>
    <path d="M47.5866 31.1592H45.5185V33.2272H47.5866V31.1592Z" fill="white"/>
    <path d="M49.6543 31.1592H47.5862V33.2272H49.6543V31.1592Z" fill="#DADADA"/>
    <path d="M51.7275 31.1592H49.6595V33.2272H51.7275V31.1592Z" fill="white"/>
    <path d="M53.7958 31.1592H51.7277V33.2272H53.7958V31.1592Z" fill="#C0C0C0"/>
    <path d="M55.8639 31.1592H53.7958V33.2272H55.8639V31.1592Z" fill="#94EAFF"/>
    <path d="M57.9316 31.1592H55.8635V33.2272H57.9316V31.1592Z" fill="black"/>
    <path d="M60 31.1592H57.932V33.2272H60V31.1592Z" fill="white"/>
    <path d="M2.06804 33.2275H0V35.2956H2.06804V33.2275Z" fill="white"/>
    <path d="M4.1358 33.2275H2.0677V35.2956H4.1358V33.2275Z" fill="black"/>
    <path d="M6.20396 33.2275H4.13586V35.2956H6.20396V33.2275Z" fill="#24CFDF"/>
    <path d="M8.27228 33.2275H6.20418V35.2956H8.27228V33.2275Z" fill="#C0C0C0"/>
    <path d="M10.3453 33.2275H8.27728V35.2956H10.3453V33.2275Z" fill="white"/>
    <path d="M12.4138 33.2275H10.3457V35.2956H12.4138V33.2275Z" fill="white"/>
    <path d="M14.4816 33.2275H12.4135V35.2956H14.4816V33.2275Z" fill="white"/>
    <path d="M16.5497 33.2275H14.4816V35.2956H16.5497V33.2275Z" fill="white"/>
    <path d="M18.6178 33.2275H16.5498V35.2956H18.6178V33.2275Z" fill="white"/>
    <path d="M20.6911 33.2275H18.623V35.2956H20.6911V33.2275Z" fill="white"/>
    <path d="M22.7593 33.2275H20.6912V35.2956H22.7593V33.2275Z" fill="white"/>
    <path d="M24.8271 33.2275H22.759V35.2956H24.8271V33.2275Z" fill="white"/>
    <path d="M26.8952 33.2275H24.8272V35.2956H26.8952V33.2275Z" fill="white"/>
    <path d="M28.9635 33.2275H26.8954V35.2956H28.9635V33.2275Z" fill="#DADADA"/>
    <path d="M31.0367 33.2275H28.9686V35.2956H31.0367V33.2275Z" fill="#C0C0C0"/>
    <path d="M33.1044 33.2275H31.0363V35.2956H33.1044V33.2275Z" fill="#DADADA"/>
    <path d="M35.1727 33.2275H33.1046V35.2956H35.1727V33.2275Z" fill="white"/>
    <path d="M37.2409 33.2275H35.1728V35.2956H37.2409V33.2275Z" fill="white"/>
    <path d="M39.3092 33.2275H37.2411V35.2956H39.3092V33.2275Z" fill="white"/>
    <path d="M41.3819 33.2275H39.3138V35.2956H41.3819V33.2275Z" fill="white"/>
    <path d="M43.4501 33.2275H41.3821V35.2956H43.4501V33.2275Z" fill="white"/>
    <path d="M45.5183 33.2275H43.4502V35.2956H45.5183V33.2275Z" fill="white"/>
    <path d="M47.5866 33.2275H45.5185V35.2956H47.5866V33.2275Z" fill="white"/>
    <path d="M49.6543 33.2275H47.5862V35.2956H49.6543V33.2275Z" fill="white"/>
    <path d="M51.7275 33.2275H49.6595V35.2956H51.7275V33.2275Z" fill="white"/>
    <path d="M53.7958 33.2275H51.7277V35.2956H53.7958V33.2275Z" fill="#C0C0C0"/>
    <path d="M55.8639 33.2275H53.7958V35.2956H55.8639V33.2275Z" fill="#94EAFF"/>
    <path d="M57.9316 33.2275H55.8635V35.2956H57.9316V33.2275Z" fill="black"/>
    <path d="M60 33.2275H57.932V35.2956H60V33.2275Z" fill="white"/>
    <path d="M2.06804 35.3003H0V37.3684H2.06804V35.3003Z" fill="white"/>
    <path d="M4.1358 35.3003H2.0677V37.3684H4.1358V35.3003Z" fill="black"/>
    <path d="M6.20396 35.3003H4.13586V37.3684H6.20396V35.3003Z" fill="#24CFDF"/>
    <path d="M8.27228 35.3003H6.20418V37.3684H8.27228V35.3003Z" fill="#C0C0C0"/>
    <path d="M10.3453 35.3003H8.27728V37.3684H10.3453V35.3003Z" fill="white"/>
    <path d="M12.4138 35.3003H10.3457V37.3684H12.4138V35.3003Z" fill="white"/>
    <path d="M14.4816 35.3003H12.4135V37.3684H14.4816V35.3003Z" fill="#DADADA"/>
    <path d="M16.5497 35.3003H14.4816V37.3684H16.5497V35.3003Z" fill="#DADADA"/>
    <path d="M18.6178 35.3003H16.5498V37.3684H18.6178V35.3003Z" fill="#DADADA"/>
    <path d="M20.6911 35.3003H18.623V37.3684H20.6911V35.3003Z" fill="#DADADA"/>
    <path d="M22.7593 35.3003H20.6912V37.3684H22.7593V35.3003Z" fill="#DADADA"/>
    <path d="M24.8271 35.3003H22.759V37.3684H24.8271V35.3003Z" fill="#DADADA"/>
    <path d="M26.8952 35.3003H24.8272V37.3684H26.8952V35.3003Z" fill="white"/>
    <path d="M28.9635 35.3003H26.8954V37.3684H28.9635V35.3003Z" fill="#DADADA"/>
    <path d="M31.0367 35.3003H28.9686V37.3684H31.0367V35.3003Z" fill="#C0C0C0"/>
    <path d="M33.1044 35.3003H31.0363V37.3684H33.1044V35.3003Z" fill="#DADADA"/>
    <path d="M35.1727 35.3003H33.1046V37.3684H35.1727V35.3003Z" fill="white"/>
    <path d="M37.2409 35.3003H35.1728V37.3684H37.2409V35.3003Z" fill="#DADADA"/>
    <path d="M39.3092 35.3003H37.2411V37.3684H39.3092V35.3003Z" fill="#DADADA"/>
    <path d="M41.3819 35.3003H39.3138V37.3684H41.3819V35.3003Z" fill="#DADADA"/>
    <path d="M43.4501 35.3003H41.3821V37.3684H43.4501V35.3003Z" fill="#DADADA"/>
    <path d="M45.5183 35.3003H43.4502V37.3684H45.5183V35.3003Z" fill="#DADADA"/>
    <path d="M47.5866 35.3003H45.5185V37.3684H47.5866V35.3003Z" fill="#DADADA"/>
    <path d="M49.6543 35.3003H47.5862V37.3684H49.6543V35.3003Z" fill="white"/>
    <path d="M51.7275 35.3003H49.6595V37.3684H51.7275V35.3003Z" fill="white"/>
    <path d="M53.7958 35.3003H51.7277V37.3684H53.7958V35.3003Z" fill="#C0C0C0"/>
    <path d="M55.8639 35.3003H53.7958V37.3684H55.8639V35.3003Z" fill="#94EAFF"/>
    <path d="M57.9316 35.3003H55.8635V37.3684H57.9316V35.3003Z" fill="black"/>
    <path d="M60 35.3003H57.932V37.3684H60V35.3003Z" fill="white"/>
    <path d="M2.06804 37.3687H0V39.4368H2.06804V37.3687Z" fill="white"/>
    <path d="M4.1358 37.3687H2.0677V39.4368H4.1358V37.3687Z" fill="black"/>
    <path d="M6.20396 37.3687H4.13586V39.4368H6.20396V37.3687Z" fill="#24CFDF"/>
    <path d="M8.27228 37.3687H6.20418V39.4368H8.27228V37.3687Z" fill="#C0C0C0"/>
    <path d="M10.3453 37.3687H8.27728V39.4368H10.3453V37.3687Z" fill="white"/>
    <path d="M12.4138 37.3687H10.3457V39.4368H12.4138V37.3687Z" fill="#DADADA"/>
    <path d="M14.4816 37.3687H12.4135V39.4368H14.4816V37.3687Z" fill="#C0C0C0"/>
    <path d="M16.5497 37.3687H14.4816V39.4368H16.5497V37.3687Z" fill="#C0C0C0"/>
    <path d="M18.6178 37.3687H16.5498V39.4368H18.6178V37.3687Z" fill="#C0C0C0"/>
    <path d="M20.6911 37.3687H18.623V39.4368H20.6911V37.3687Z" fill="#C0C0C0"/>
    <path d="M22.7593 37.3687H20.6912V39.4368H22.7593V37.3687Z" fill="#C0C0C0"/>
    <path d="M24.8271 37.3687H22.759V39.4368H24.8271V37.3687Z" fill="#C0C0C0"/>
    <path d="M26.8952 37.3687H24.8272V39.4368H26.8952V37.3687Z" fill="#DADADA"/>
    <path d="M28.9635 37.3687H26.8954V39.4368H28.9635V37.3687Z" fill="#DADADA"/>
    <path d="M31.0367 37.3687H28.9686V39.4368H31.0367V37.3687Z" fill="#C0C0C0"/>
    <path d="M33.1044 37.3687H31.0363V39.4368H33.1044V37.3687Z" fill="#DADADA"/>
    <path d="M35.1727 37.3687H33.1046V39.4368H35.1727V37.3687Z" fill="#DADADA"/>
    <path d="M37.2409 37.3687H35.1728V39.4368H37.2409V37.3687Z" fill="#C0C0C0"/>
    <path d="M39.3092 37.3687H37.2411V39.4368H39.3092V37.3687Z" fill="#C0C0C0"/>
    <path d="M41.3819 37.3687H39.3138V39.4368H41.3819V37.3687Z" fill="#C0C0C0"/>
    <path d="M43.4501 37.3687H41.3821V39.4368H43.4501V37.3687Z" fill="#C0C0C0"/>
    <path d="M45.5183 37.3687H43.4502V39.4368H45.5183V37.3687Z" fill="#C0C0C0"/>
    <path d="M47.5866 37.3687H45.5185V39.4368H47.5866V37.3687Z" fill="#C0C0C0"/>
    <path d="M49.6543 37.3687H47.5862V39.4368H49.6543V37.3687Z" fill="#DADADA"/>
    <path d="M51.7275 37.3687H49.6595V39.4368H51.7275V37.3687Z" fill="white"/>
    <path d="M53.7958 37.3687H51.7277V39.4368H53.7958V37.3687Z" fill="#C0C0C0"/>
    <path d="M55.8639 37.3687H53.7958V39.4368H55.8639V37.3687Z" fill="#94EAFF"/>
    <path d="M57.9316 37.3687H55.8635V39.4368H57.9316V37.3687Z" fill="black"/>
    <path d="M60 37.3687H57.932V39.4368H60V37.3687Z" fill="white"/>
    <path d="M2.06804 39.4365H0V41.5046H2.06804V39.4365Z" fill="white"/>
    <path d="M4.1358 39.4365H2.0677V41.5046H4.1358V39.4365Z" fill="black"/>
    <path d="M6.20396 39.4365H4.13586V41.5046H6.20396V39.4365Z" fill="#24CFDF"/>
    <path d="M8.27228 39.4365H6.20418V41.5046H8.27228V39.4365Z" fill="#C0C0C0"/>
    <path d="M10.3453 39.4365H8.27728V41.5046H10.3453V39.4365Z" fill="#DADADA"/>
    <path d="M12.4138 39.4365H10.3457V41.5046H12.4138V39.4365Z" fill="#C0C0C0"/>
    <path d="M14.4816 39.4365H12.4135V41.5046H14.4816V39.4365Z" fill="#0AABBB"/>
    <path d="M16.5497 39.4365H14.4816V41.5046H16.5497V39.4365Z" fill="#0AABBB"/>
    <path d="M18.6178 39.4365H16.5498V41.5046H18.6178V39.4365Z" fill="#0AABBB"/>
    <path d="M20.6911 39.4365H18.623V41.5046H20.6911V39.4365Z" fill="#0AABBB"/>
    <path d="M22.7593 39.4365H20.6912V41.5046H22.7593V39.4365Z" fill="#0AABBB"/>
    <path d="M24.8271 39.4365H22.759V41.5046H24.8271V39.4365Z" fill="#0AABBB"/>
    <path d="M26.8952 39.4365H24.8272V41.5046H26.8952V39.4365Z" fill="#C0C0C0"/>
    <path d="M28.9635 39.4365H26.8954V41.5046H28.9635V39.4365Z" fill="#DADADA"/>
    <path d="M31.0367 39.4365H28.9686V41.5046H31.0367V39.4365Z" fill="#C0C0C0"/>
    <path d="M33.1044 39.4365H31.0363V41.5046H33.1044V39.4365Z" fill="#DADADA"/>
    <path d="M35.1727 39.4365H33.1046V41.5046H35.1727V39.4365Z" fill="#C0C0C0"/>
    <path d="M37.2409 39.4365H35.1728V41.5046H37.2409V39.4365Z" fill="#0AABBB"/>
    <path d="M39.3092 39.4365H37.2411V41.5046H39.3092V39.4365Z" fill="#0AABBB"/>
    <path d="M41.3819 39.4365H39.3138V41.5046H41.3819V39.4365Z" fill="#0AABBB"/>
    <path d="M43.4501 39.4365H41.3821V41.5046H43.4501V39.4365Z" fill="#0AABBB"/>
    <path d="M45.5183 39.4365H43.4502V41.5046H45.5183V39.4365Z" fill="#0AABBB"/>
    <path d="M47.5866 39.4365H45.5185V41.5046H47.5866V39.4365Z" fill="#0AABBB"/>
    <path d="M49.6543 39.4365H47.5862V41.5046H49.6543V39.4365Z" fill="#C0C0C0"/>
    <path d="M51.7275 39.4365H49.6595V41.5046H51.7275V39.4365Z" fill="#DADADA"/>
    <path d="M53.7958 39.4365H51.7277V41.5046H53.7958V39.4365Z" fill="#C0C0C0"/>
    <path d="M55.8639 39.4365H53.7958V41.5046H55.8639V39.4365Z" fill="#94EAFF"/>
    <path d="M57.9316 39.4365H55.8635V41.5046H57.9316V39.4365Z" fill="black"/>
    <path d="M60 39.4365H57.932V41.5046H60V39.4365Z" fill="white"/>
    <path d="M2.06804 41.5049H0V43.573H2.06804V41.5049Z" fill="white"/>
    <path d="M4.1358 41.5049H2.0677V43.573H4.1358V41.5049Z" fill="black"/>
    <path d="M6.20396 41.5049H4.13586V43.573H6.20396V41.5049Z" fill="#24CFDF"/>
    <path d="M8.27228 41.5049H6.20418V43.573H8.27228V41.5049Z" fill="#6BE5FF"/>
    <path d="M10.3453 41.5049H8.27728V43.573H10.3453V41.5049Z" fill="#C0C0C0"/>
    <path d="M12.4138 41.5049H10.3457V43.573H12.4138V41.5049Z" fill="#6BE5FF"/>
    <path d="M14.4816 41.5049H12.4135V43.573H14.4816V41.5049Z" fill="#24CFDF"/>
    <path d="M16.5497 41.5049H14.4816V43.573H16.5497V41.5049Z" fill="#24CFDF"/>
    <path d="M18.6178 41.5049H16.5498V43.573H18.6178V41.5049Z" fill="#24CFDF"/>
    <path d="M20.6911 41.5049H18.623V43.573H20.6911V41.5049Z" fill="#24CFDF"/>
    <path d="M22.7593 41.5049H20.6912V43.573H22.7593V41.5049Z" fill="#24CFDF"/>
    <path d="M24.8271 41.5049H22.759V43.573H24.8271V41.5049Z" fill="#24CFDF"/>
    <path d="M26.8952 41.5049H24.8272V43.573H26.8952V41.5049Z" fill="#6BE5FF"/>
    <path d="M28.9635 41.5049H26.8954V43.573H28.9635V41.5049Z" fill="#C0C0C0"/>
    <path d="M31.0367 41.5049H28.9686V43.573H31.0367V41.5049Z" fill="#C0C0C0"/>
    <path d="M33.1044 41.5049H31.0363V43.573H33.1044V41.5049Z" fill="#C0C0C0"/>
    <path d="M35.1727 41.5049H33.1046V43.573H35.1727V41.5049Z" fill="#6BE5FF"/>
    <path d="M37.2409 41.5049H35.1728V43.573H37.2409V41.5049Z" fill="#24CFDF"/>
    <path d="M39.3092 41.5049H37.2411V43.573H39.3092V41.5049Z" fill="#24CFDF"/>
    <path d="M41.3819 41.5049H39.3138V43.573H41.3819V41.5049Z" fill="#24CFDF"/>
    <path d="M43.4501 41.5049H41.3821V43.573H43.4501V41.5049Z" fill="#24CFDF"/>
    <path d="M45.5183 41.5049H43.4502V43.573H45.5183V41.5049Z" fill="#24CFDF"/>
    <path d="M47.5866 41.5049H45.5185V43.573H47.5866V41.5049Z" fill="#24CFDF"/>
    <path d="M49.6543 41.5049H47.5862V43.573H49.6543V41.5049Z" fill="#6BE5FF"/>
    <path d="M51.7275 41.5049H49.6595V43.573H51.7275V41.5049Z" fill="#C0C0C0"/>
    <path d="M53.7958 41.5049H51.7277V43.573H53.7958V41.5049Z" fill="#6BE5FF"/>
    <path d="M55.8639 41.5049H53.7958V43.573H55.8639V41.5049Z" fill="#94EAFF"/>
    <path d="M57.9316 41.5049H55.8635V43.573H57.9316V41.5049Z" fill="black"/>
    <path d="M60 41.5049H57.932V43.573H60V41.5049Z" fill="white"/>
    <path d="M2.06804 43.5737H0V45.6418H2.06804V43.5737Z" fill="white"/>
    <path d="M4.1358 43.5737H2.0677V45.6418H4.1358V43.5737Z" fill="black"/>
    <path d="M6.20396 43.5737H4.13586V45.6418H6.20396V43.5737Z" fill="#24CFDF"/>
    <path d="M8.27228 43.5737H6.20418V45.6418H8.27228V43.5737Z" fill="#6BE5FF"/>
    <path d="M10.3453 43.5737H8.27728V45.6418H10.3453V43.5737Z" fill="#24CFDF"/>
    <path d="M12.4138 43.5737H10.3457V45.6418H12.4138V43.5737Z" fill="#24CFDF"/>
    <path d="M14.4816 43.5737H12.4135V45.6418H14.4816V43.5737Z" fill="black"/>
    <path d="M16.5497 43.5737H14.4816V45.6418H16.5497V43.5737Z" fill="black"/>
    <path d="M18.6178 43.5737H16.5498V45.6418H18.6178V43.5737Z" fill="black"/>
    <path d="M20.6911 43.5737H18.623V45.6418H20.6911V43.5737Z" fill="black"/>
    <path d="M22.7593 43.5737H20.6912V45.6418H22.7593V43.5737Z" fill="black"/>
    <path d="M24.8271 43.5737H22.759V45.6418H24.8271V43.5737Z" fill="black"/>
    <path d="M26.8952 43.5737H24.8272V45.6418H26.8952V43.5737Z" fill="#24CFDF"/>
    <path d="M28.9635 43.5737H26.8954V45.6418H28.9635V43.5737Z" fill="#24CFDF"/>
    <path d="M31.0367 43.5737H28.9686V45.6418H31.0367V43.5737Z" fill="#24CFDF"/>
    <path d="M33.1044 43.5737H31.0363V45.6418H33.1044V43.5737Z" fill="#24CFDF"/>
    <path d="M35.1727 43.5737H33.1046V45.6418H35.1727V43.5737Z" fill="#24CFDF"/>
    <path d="M37.2409 43.5737H35.1728V45.6418H37.2409V43.5737Z" fill="black"/>
    <path d="M39.3092 43.5737H37.2411V45.6418H39.3092V43.5737Z" fill="black"/>
    <path d="M41.3819 43.5737H39.3138V45.6418H41.3819V43.5737Z" fill="black"/>
    <path d="M43.4501 43.5737H41.3821V45.6418H43.4501V43.5737Z" fill="black"/>
    <path d="M45.5183 43.5737H43.4502V45.6418H45.5183V43.5737Z" fill="black"/>
    <path d="M47.5866 43.5737H45.5185V45.6418H47.5866V43.5737Z" fill="black"/>
    <path d="M49.6543 43.5737H47.5862V45.6418H49.6543V43.5737Z" fill="#24CFDF"/>
    <path d="M51.7275 43.5737H49.6595V45.6418H51.7275V43.5737Z" fill="#24CFDF"/>
    <path d="M53.7958 43.5737H51.7277V45.6418H53.7958V43.5737Z" fill="#6BE5FF"/>
    <path d="M55.8639 43.5737H53.7958V45.6418H55.8639V43.5737Z" fill="#94EAFF"/>
    <path d="M57.9316 43.5737H55.8635V45.6418H57.9316V43.5737Z" fill="black"/>
    <path d="M60 43.5737H57.932V45.6418H60V43.5737Z" fill="white"/>
    <path d="M2.06804 45.6465H0V47.7146H2.06804V45.6465Z" fill="white"/>
    <path d="M4.1358 45.6465H2.0677V47.7146H4.1358V45.6465Z" fill="black"/>
    <path d="M6.20396 45.6465H4.13586V47.7146H6.20396V45.6465Z" fill="#24CFDF"/>
    <path d="M8.27228 45.6465H6.20418V47.7146H8.27228V45.6465Z" fill="#24CFDF"/>
    <path d="M10.3453 45.6465H8.27728V47.7146H10.3453V45.6465Z" fill="black"/>
    <path d="M12.4138 45.6465H10.3457V47.7146H12.4138V45.6465Z" fill="black"/>
    <path d="M14.4816 45.6465H12.4135V47.7146H14.4816V45.6465Z" fill="white"/>
    <path d="M16.5497 45.6465H14.4816V47.7146H16.5497V45.6465Z" fill="white"/>
    <path d="M18.6178 45.6465H16.5498V47.7146H18.6178V45.6465Z" fill="white"/>
    <path d="M20.6911 45.6465H18.623V47.7146H20.6911V45.6465Z" fill="white"/>
    <path d="M22.7593 45.6465H20.6912V47.7146H22.7593V45.6465Z" fill="white"/>
    <path d="M24.8271 45.6465H22.759V47.7146H24.8271V45.6465Z" fill="white"/>
    <path d="M26.8952 45.6465H24.8272V47.7146H26.8952V45.6465Z" fill="black"/>
    <path d="M28.9635 45.6465H26.8954V47.7146H28.9635V45.6465Z" fill="black"/>
    <path d="M31.0367 45.6465H28.9686V47.7146H31.0367V45.6465Z" fill="black"/>
    <path d="M33.1044 45.6465H31.0363V47.7146H33.1044V45.6465Z" fill="black"/>
    <path d="M35.1727 45.6465H33.1046V47.7146H35.1727V45.6465Z" fill="black"/>
    <path d="M37.2409 45.6465H35.1728V47.7146H37.2409V45.6465Z" fill="white"/>
    <path d="M39.3092 45.6465H37.2411V47.7146H39.3092V45.6465Z" fill="white"/>
    <path d="M41.3819 45.6465H39.3138V47.7146H41.3819V45.6465Z" fill="white"/>
    <path d="M43.4501 45.6465H41.3821V47.7146H43.4501V45.6465Z" fill="white"/>
    <path d="M45.5183 45.6465H43.4502V47.7146H45.5183V45.6465Z" fill="white"/>
    <path d="M47.5866 45.6465H45.5185V47.7146H47.5866V45.6465Z" fill="white"/>
    <path d="M49.6543 45.6465H47.5862V47.7146H49.6543V45.6465Z" fill="black"/>
    <path d="M51.7275 45.6465H49.6595V47.7146H51.7275V45.6465Z" fill="black"/>
    <path d="M53.7958 45.6465H51.7277V47.7146H53.7958V45.6465Z" fill="#24CFDF"/>
    <path d="M55.8639 45.6465H53.7958V47.7146H55.8639V45.6465Z" fill="#94EAFF"/>
    <path d="M57.9316 45.6465H55.8635V47.7146H57.9316V45.6465Z" fill="black"/>
    <path d="M60 45.6465H57.932V47.7146H60V45.6465Z" fill="white"/>
    <path d="M2.06804 47.7134H0V49.7814H2.06804V47.7134Z" fill="white"/>
    <path d="M4.1358 47.7134H2.0677V49.7814H4.1358V47.7134Z" fill="white"/>
    <path d="M6.20396 47.7134H4.13586V49.7814H6.20396V47.7134Z" fill="black"/>
    <path d="M8.27228 47.7134H6.20418V49.7814H8.27228V47.7134Z" fill="black"/>
    <path d="M10.3453 47.7134H8.27728V49.7814H10.3453V47.7134Z" fill="white"/>
    <path d="M12.4138 47.7134H10.3457V49.7814H12.4138V47.7134Z" fill="white"/>
    <path d="M14.4816 47.7134H12.4135V49.7814H14.4816V47.7134Z" fill="white"/>
    <path d="M24.8271 47.7134H22.759V49.7814H24.8271V47.7134Z" fill="white"/>
    <path d="M26.8952 47.7134H24.8272V49.7814H26.8952V47.7134Z" fill="white"/>
    <path d="M28.9635 47.7134H26.8954V49.7814H28.9635V47.7134Z" fill="white"/>
    <path d="M31.0367 47.7134H28.9686V49.7814H31.0367V47.7134Z" fill="white"/>
    <path d="M33.1044 47.7134H31.0363V49.7814H33.1044V47.7134Z" fill="white"/>
    <path d="M35.1727 47.7134H33.1046V49.7814H35.1727V47.7134Z" fill="white"/>
    <path d="M37.2409 47.7134H35.1728V49.7814H37.2409V47.7134Z" fill="white"/>
    <path d="M47.5866 47.7134H45.5185V49.7814H47.5866V47.7134Z" fill="white"/>
    <path d="M49.6543 47.7134H47.5862V49.7814H49.6543V47.7134Z" fill="white"/>
    <path d="M51.7275 47.7134H49.6595V49.7814H51.7275V47.7134Z" fill="white"/>
    <path d="M53.7958 47.7134H51.7277V49.7814H53.7958V47.7134Z" fill="black"/>
    <path d="M55.8639 47.7134H53.7958V49.7814H55.8639V47.7134Z" fill="black"/>
    <path d="M57.9316 47.7134H55.8635V49.7814H57.9316V47.7134Z" fill="white"/>
    <path d="M60 47.7134H57.932V49.7814H60V47.7134Z" fill="white"/>
    <path d="M4.1358 49.7822H2.0677V51.8503H4.1358V49.7822Z" fill="white"/>
    <path d="M6.20396 49.7822H4.13586V51.8503H6.20396V49.7822Z" fill="white"/>
    <path d="M8.27228 49.7822H6.20418V51.8503H8.27228V49.7822Z" fill="white"/>
    <path d="M10.3453 49.7822H8.27728V51.8503H10.3453V49.7822Z" fill="white"/>
    <path d="M51.7275 49.7822H49.6595V51.8503H51.7275V49.7822Z" fill="white"/>
    <path d="M53.7958 49.7822H51.7277V51.8503H53.7958V49.7822Z" fill="white"/>
    <path d="M55.8639 49.7822H53.7958V51.8503H55.8639V49.7822Z" fill="white"/>
    <path d="M57.9316 49.7822H55.8635V51.8503H57.9316V49.7822Z" fill="white"/>
</svg>
