<svg width="50" height="50" viewBox="0 0 50 50" fill="none" xmlns="http://www.w3.org/2000/svg">
    <path d="M23.8335 8.66699H20.3335V25.0003H23.8335V8.66699Z" fill="#ADDD37"/>
    <path d="M22.6668 6.33301H20.3335V8.66634H22.6668V6.33301Z" fill="black"/>
    <path d="M24.9998 6.33301H22.6665V8.66634H24.9998V6.33301Z" fill="black"/>
    <path d="M27.3333 6.33301H25V8.66634H27.3333V6.33301Z" fill="black"/>
    <path d="M29.6668 6.33301H27.3335V8.66634H29.6668V6.33301Z" fill="black"/>
    <path d="M22.6668 41.3335H20.3335V43.6668H22.6668V41.3335Z" fill="black"/>
    <path d="M24.9998 41.3335H22.6665V43.6668H24.9998V41.3335Z" fill="black"/>
    <path d="M27.3333 41.3335H25V43.6668H27.3333V41.3335Z" fill="black"/>
    <path d="M29.6668 41.3335H27.3335V43.6668H29.6668V41.3335Z" fill="black"/>
    <path d="M8.66634 20.3335H6.33301V22.6668H8.66634V20.3335Z" fill="black"/>
    <path d="M8.66634 22.6665H6.33301V24.9998H8.66634V22.6665Z" fill="black"/>
    <path d="M11.0003 15.667H8.66699V18.0003H11.0003V15.667Z" fill="black"/>
    <path d="M15.6667 15.667H11V20.3337H15.6667V15.667Z" fill="#FFA219"/>
    <path d="M15.6667 29.6665H11V34.3332H15.6667V29.6665Z" fill="#FFA219"/>
    <path d="M13.3333 13.333H11V15.6663H13.3333V13.333Z" fill="black"/>
    <path d="M15.6663 13.333H13.333V15.6663H15.6663V13.333Z" fill="white"/>
    <path d="M18.0003 15.667H15.667V18.0003H18.0003V15.667Z" fill="white"/>
    <path d="M18.0003 11H15.667V15.6667H18.0003V11Z" fill="#FFA219"/>
    <path d="M18.0003 20.3335H8.66699V25.0002H18.0003V20.3335Z" fill="#ADDD37"/>
    <path d="M18.0003 18H15.667V20.3333H18.0003V18Z" fill="#ADDD37"/>
    <path d="M18.0003 29.6665H15.667V31.9998H18.0003V29.6665Z" fill="#ADDD37"/>
    <path d="M18.0003 34.3335H15.667V39.0002H18.0003V34.3335Z" fill="#FFA219"/>
    <path d="M34.3333 34.3335H32V39.0002H34.3333V34.3335Z" fill="#FFA219"/>
    <path d="M34.3333 11H32V15.6667H34.3333V11Z" fill="#FFA219"/>
    <path d="M34.3333 15.667H32V18.0003H34.3333V15.667Z" fill="white"/>
    <path d="M31.9998 20.3335H29.6665V22.6668H31.9998V20.3335Z" fill="white"/>
    <path d="M18.0003 32H15.667V34.3333H18.0003V32Z" fill="white"/>
    <path d="M34.3333 32H32V34.3333H34.3333V32Z" fill="white"/>
    <path d="M20.3333 20.3335H18V22.6668H20.3333V20.3335Z" fill="white"/>
    <path d="M20.3333 22.6665H18V24.9998H20.3333V22.6665Z" fill="#ADDD37"/>
    <path d="M18.0003 27.3335H8.66699V29.6668H18.0003V27.3335Z" fill="#ADDD37"/>
    <path d="M20.3333 11H18V20.3333H20.3333V11Z" fill="#ADDD37"/>
    <path d="M20.3333 32H18V39H20.3333V32Z" fill="#ADDD37"/>
    <path d="M31.9998 32H29.6665V39H31.9998V32Z" fill="#ADDD37"/>
    <path d="M31.9998 11H29.6665V20.3333H31.9998V11Z" fill="#ADDD37"/>
    <path d="M31.9998 27.3335H29.6665V29.6668H31.9998V27.3335Z" fill="white"/>
    <path d="M20.3333 27.3335H18V29.6668H20.3333V27.3335Z" fill="white"/>
    <path d="M22.6668 25H20.3335V27.3333H22.6668V25Z" fill="white"/>
    <path d="M22.6668 22.6665H20.3335V24.9998H22.6668V22.6665Z" fill="white"/>
    <path d="M29.6668 25H27.3335V27.3333H29.6668V25Z" fill="white"/>
    <path d="M41.3332 25H29.6665V27.3333H41.3332V25Z" fill="#ADDD37"/>
    <path d="M41.3332 22.6665H29.6665V24.9998H41.3332V22.6665Z" fill="#ADDD37"/>
    <path d="M41.3333 20.3335H32V22.6668H41.3333V20.3335Z" fill="#ADDD37"/>
    <path d="M41.3333 27.3335H32V29.6668H41.3333V27.3335Z" fill="#ADDD37"/>
    <path d="M39.0002 29.6665H34.3335V34.3332H39.0002V29.6665Z" fill="#ADDD37"/>
    <path d="M39.0002 15.667H34.3335V20.3337H39.0002V15.667Z" fill="#ADDD37"/>
    <path d="M29.6668 22.6665H27.3335V24.9998H29.6668V22.6665Z" fill="white"/>
    <path d="M15.6663 11H13.333V13.3333H15.6663V11Z" fill="black"/>
    <path d="M15.6663 8.66699H13.333V11.0003H15.6663V8.66699Z" fill="white"/>
    <path d="M13.3333 11H11V13.3333H13.3333V11Z" fill="white"/>
    <path d="M11.0003 13.333H8.66699V15.6663H11.0003V13.333Z" fill="white"/>
    <path d="M11.0003 34.3335H8.66699V36.6668H11.0003V34.3335Z" fill="white"/>
    <path d="M11.0003 36.6665H8.66699V38.9998H11.0003V36.6665Z" fill="white"/>
    <path d="M8.66634 34.3335H6.33301V36.6668H8.66634V34.3335Z" fill="white"/>
    <path d="M6.33333 29.6665H4V31.9998H6.33333V29.6665Z" fill="white"/>
    <path d="M13.3333 36.6665H11V38.9998H13.3333V36.6665Z" fill="white"/>
    <path d="M13.3333 39H11V41.3333H13.3333V39Z" fill="white"/>
    <path d="M36.6668 39H34.3335V41.3333H36.6668V39Z" fill="white"/>
    <path d="M31.9998 43.6665H29.6665V45.9998H31.9998V43.6665Z" fill="white"/>
    <path d="M36.6668 41.3369H34.3335V43.6702H36.6668V41.3369Z" fill="white"/>
    <path d="M38.9998 36.6665H36.6665V38.9998H38.9998V36.6665Z" fill="white"/>
    <path d="M41.3333 34.3335H39V36.6668H41.3333V34.3335Z" fill="white"/>
    <path d="M38.9998 39H36.6665V41.3333H38.9998V39Z" fill="white"/>
    <path d="M41.3333 36.6665H39V38.9998H41.3333V36.6665Z" fill="white"/>
    <path d="M43.6668 34.3335H41.3335V36.6668H43.6668V34.3335Z" fill="white"/>
    <path d="M45.9998 29.6665H43.6665V31.9998H45.9998V29.6665Z" fill="white"/>
    <path d="M43.6668 29.6665H41.3335V34.3332H43.6668V29.6665Z" fill="white"/>
    <path d="M45.9998 20.3335H43.6665V29.6668H45.9998V20.3335Z" fill="white"/>
    <path d="M43.6668 15.667H41.3335V20.3337H43.6668V15.667Z" fill="white"/>
    <path d="M41.3333 13.333H39V15.6663H41.3333V13.333Z" fill="white"/>
    <path d="M38.9998 11H36.6665V13.3333H38.9998V11Z" fill="white"/>
    <path d="M36.6668 8.66699H34.3335V11.0003H36.6668V8.66699Z" fill="white"/>
    <path d="M34.3332 6.33301H29.6665V8.66634H34.3332V6.33301Z" fill="white"/>
    <path d="M20.3337 6.33301H15.667V8.66634H20.3337V6.33301Z" fill="white"/>
    <path d="M29.6668 4H20.3335V6.33333H29.6668V4Z" fill="white"/>
    <path d="M15.6663 39H13.333V41.3333H15.6663V39Z" fill="white"/>
    <path d="M15.6663 41.3335H13.333V43.6668H15.6663V41.3335Z" fill="white"/>
    <path d="M20.3333 43.6665H18V45.9998H20.3333V43.6665Z" fill="white"/>
    <path d="M20.3337 41.3335H15.667V43.6668H20.3337V41.3335Z" fill="white"/>
    <path d="M34.3332 41.3369H29.6665V43.6702H34.3332V41.3369Z" fill="white"/>
    <path d="M29.6668 43.6665H20.3335V45.9998H29.6668V43.6665Z" fill="white"/>
    <path d="M8.66634 15.667H6.33301V20.3337H8.66634V15.667Z" fill="white"/>
    <path d="M8.66634 29.6665H6.33301V34.3332H8.66634V29.6665Z" fill="white"/>
    <path d="M6.33333 20.3335H4V29.6668H6.33333V20.3335Z" fill="white"/>
    <path d="M13.3333 34.3335H11V36.6668H13.3333V34.3335Z" fill="black"/>
    <path d="M15.6663 34.3335H13.333V36.6668H15.6663V34.3335Z" fill="white"/>
    <path d="M15.6663 36.6665H13.333V38.9998H15.6663V36.6665Z" fill="black"/>
    <path d="M38.9998 34.3335H36.6665V36.6668H38.9998V34.3335Z" fill="black"/>
    <path d="M36.6668 34.3335H34.3335V36.6668H36.6668V34.3335Z" fill="white"/>
    <path d="M36.6668 36.6665H34.3335V38.9998H36.6668V36.6665Z" fill="black"/>
    <path d="M38.9998 13.333H36.6665V15.6663H38.9998V13.333Z" fill="black"/>
    <path d="M36.6668 13.333H34.3335V15.6663H36.6668V13.333Z" fill="white"/>
    <path d="M36.6668 11H34.3335V13.3333H36.6668V11Z" fill="black"/>
    <path d="M18.0003 8.66699H15.667V11.0003H18.0003V8.66699Z" fill="black"/>
    <path d="M20.3333 8.66699H18V11.0003H20.3333V8.66699Z" fill="black"/>
    <path d="M22.6668 27.3335H20.3335V41.3335H22.6668V27.3335Z" fill="#ADDD37"/>
    <path d="M29.6667 27.3335H25V36.6668H29.6667V27.3335Z" fill="#ADDD37"/>
    <path d="M29.6668 8.66699H27.3335V22.667H29.6668V8.66699Z" fill="#ADDD37"/>
    <path d="M27.3335 8.66699H23.8335V27.3337H27.3335V8.66699Z" fill="#ADDD37"/>
    <path d="M24.9998 25H22.6665V41.3333H24.9998V25Z" fill="#ADDD37"/>
    <path d="M31.9998 8.66699H29.6665V11.0003H31.9998V8.66699Z" fill="black"/>
    <path d="M34.3333 8.66699H32V11.0003H34.3333V8.66699Z" fill="black"/>
    <path d="M18.0003 39H15.667V41.3333H18.0003V39Z" fill="black"/>
    <path d="M20.3333 39H18V41.3333H20.3333V39Z" fill="black"/>
    <path d="M31.9998 39H29.6665V41.3333H31.9998V39Z" fill="black"/>
    <path d="M34.3333 39H32V41.3333H34.3333V39Z" fill="black"/>
    <path d="M11.0003 18H8.66699V20.3333H11.0003V18Z" fill="black"/>
    <path d="M11.0003 20.3335H8.66699V22.6668H11.0003V20.3335Z" fill="#60721F"/>
    <path d="M13.3333 15.667H11V20.3337H13.3333V15.667Z" fill="#60721F"/>
    <path d="M11.0003 22.6665H8.66699V24.9998H11.0003V22.6665Z" fill="#60721F"/>
    <path d="M11.0003 27.3335H8.66699V29.6668H11.0003V27.3335Z" fill="#60721F"/>
    <path d="M13.3333 29.6665H11V31.9998H13.3333V29.6665Z" fill="#60721F"/>
    <path d="M13.3333 20.3335H11V22.6668H13.3333V20.3335Z" fill="#98BA31"/>
    <path d="M15.6663 15.667H13.333V20.3337H15.6663V15.667Z" fill="#98BA31"/>
    <path d="M18.0003 11H15.667V15.6667H18.0003V11Z" fill="#98BA31"/>
    <path d="M13.3333 22.6665H11V24.9998H13.3333V22.6665Z" fill="#98BA31"/>
    <path d="M13.3333 27.3335H11V29.6668H13.3333V27.3335Z" fill="#98BA31"/>
    <path d="M20.3337 25H8.66699V27.3333H20.3337V25Z" fill="#ADDD37"/>
    <path d="M11.0003 25H8.66699V27.3333H11.0003V25Z" fill="#60721F"/>
    <path d="M13.3333 25H11V27.3333H13.3333V25Z" fill="#98BA31"/>
    <path d="M15.6663 29.6665H13.333V31.9998H15.6663V29.6665Z" fill="#98BA31"/>
    <path d="M20.3333 34.3335H18V36.6668H20.3333V34.3335Z" fill="#98BA31"/>
    <path d="M22.6668 36.6665H20.3335V38.9998H22.6668V36.6665Z" fill="#98BA31"/>
    <path d="M29.6665 36.6665H22.6665V38.9998H29.6665V36.6665Z" fill="#98BA31"/>
    <path d="M31.9998 34.3335H29.6665V36.6668H31.9998V34.3335Z" fill="#98BA31"/>
    <path d="M34.3333 34.3335H32V36.6668H34.3333V34.3335Z" fill="#98BA31"/>
    <path d="M41.3333 20.3335H39V22.6668H41.3333V20.3335Z" fill="#D1FF43"/>
    <path d="M38.9998 18H36.6665V20.3333H38.9998V18Z" fill="#D1FF43"/>
    <path d="M38.9998 15.667H36.6665V18.0003H38.9998V15.667Z" fill="#D1FF43"/>
    <path d="M36.6668 15.667H34.3335V18.0003H36.6668V15.667Z" fill="#D1FF43"/>
    <path d="M34.3333 13.333H32V15.6663H34.3333V13.333Z" fill="#D1FF43"/>
    <path d="M34.3333 11H32V13.3333H34.3333V11Z" fill="#D1FF43"/>
    <path d="M31.9998 11H29.6665V13.3333H31.9998V11Z" fill="#D1FF43"/>
    <path d="M29.6668 8.66699H27.3335V11.0003H29.6668V8.66699Z" fill="#D1FF43"/>
    <path d="M27.3333 8.66699H25V11.0003H27.3333V8.66699Z" fill="#D1FF43"/>
    <path d="M13.3333 32H11V34.3333H13.3333V32Z" fill="#60721F"/>
    <path d="M15.6663 32H13.333V34.3333H15.6663V32Z" fill="#60721F"/>
    <path d="M18.0003 34.3335H15.667V36.6668H18.0003V34.3335Z" fill="#60721F"/>
    <path d="M18.0003 36.6665H15.667V38.9998H18.0003V36.6665Z" fill="#60721F"/>
    <path d="M20.3333 36.6665H18V38.9998H20.3333V36.6665Z" fill="#60721F"/>
    <path d="M22.6668 39H20.3335V41.3333H22.6668V39Z" fill="#60721F"/>
    <path d="M29.6665 39H22.6665V41.3333H29.6665V39Z" fill="#60721F"/>
    <path d="M31.9998 36.6665H29.6665V38.9998H31.9998V36.6665Z" fill="#60721F"/>
    <path d="M34.3333 36.6665H32V38.9998H34.3333V36.6665Z" fill="#60721F"/>
    <path d="M41.3333 15.667H39V18.0003H41.3333V15.667Z" fill="black"/>
    <path d="M41.3333 18H39V20.3333H41.3333V18Z" fill="black"/>
    <path d="M41.3333 29.6665H39V31.9998H41.3333V29.6665Z" fill="black"/>
    <path d="M41.3333 32H39V34.3333H41.3333V32Z" fill="black"/>
    <path d="M11.0003 29.6665H8.66699V31.9998H11.0003V29.6665Z" fill="black"/>
    <path d="M11.0003 32H8.66699V34.3333H11.0003V32Z" fill="black"/>
    <path d="M8.66634 25H6.33301V27.3333H8.66634V25Z" fill="black"/>
    <path d="M8.66634 27.3335H6.33301V29.6668H8.66634V27.3335Z" fill="black"/>
    <path d="M43.6668 20.3335H41.3335V22.6668H43.6668V20.3335Z" fill="black"/>
    <path d="M43.6668 22.6665H41.3335V24.9998H43.6668V22.6665Z" fill="black"/>
    <path d="M43.6668 25H41.3335V27.3333H43.6668V25Z" fill="black"/>
    <path d="M43.6668 27.3335H41.3335V29.6668H43.6668V27.3335Z" fill="black"/>
    <path d="M20.3333 18H18V20.3333H20.3333V18Z" fill="white"/>
    <path d="M20.3333 29.6665H18V31.9998H20.3333V29.6665Z" fill="white"/>
    <path d="M31.9998 18H29.6665V20.3333H31.9998V18Z" fill="white"/>
    <path d="M31.9998 29.6665H29.6665V31.9998H31.9998V29.6665Z" fill="white"/>
    <path d="M34.3333 29.6665H32V31.9998H34.3333V29.6665Z" fill="#ADDD37"/>
    <path d="M34.3333 18H32V20.3333H34.3333V18Z" fill="#ADDD37"/>
</svg>
