<svg width="70" height="70" viewBox="0 0 70 70" fill="none" xmlns="http://www.w3.org/2000/svg">
    <path d="M17.1817 32.4541H14.6362V50.2723H17.1817V32.4541Z" fill="white"/>
    <path d="M14.6363 50.2725H12.0908V55.3634H14.6363V50.2725Z" fill="white"/>
    <path d="M14.6363 29.9092H12.0908V32.4546H14.6363V29.9092Z" fill="white"/>
    <path d="M14.6363 55.3633H12.0908V57.9087H14.6363V55.3633Z" fill="white"/>
    <path d="M14.6363 47.7275H12.0908V50.273H14.6363V47.7275Z" fill="white"/>
    <path d="M57.9092 47.7275H55.3638V50.273H57.9092V47.7275Z" fill="white"/>
    <path d="M57.9092 55.3633H55.3638V57.9087H57.9092V55.3633Z" fill="white"/>
    <path d="M17.1817 27.3633H14.6362V29.9087H17.1817V27.3633Z" fill="white"/>
    <path d="M19.7271 24.8184H17.1816V27.3638H19.7271V24.8184Z" fill="white"/>
    <path d="M22.2725 22.2725H19.7271V24.8179H22.2725V22.2725Z" fill="white"/>
    <path d="M24.8179 19.7275H22.2725V22.273H24.8179V19.7275Z" fill="white"/>
    <path d="M27.3633 17.1816H24.8179V19.7271H27.3633V17.1816Z" fill="white"/>
    <path d="M29.9092 14.6367H27.3638V17.1822H29.9092V14.6367Z" fill="white"/>
    <path d="M42.6363 14.6367H40.0908V17.1822H42.6363V14.6367Z" fill="white"/>
    <path d="M45.1817 17.1816H42.6362V19.7271H45.1817V17.1816Z" fill="white"/>
    <path d="M47.7271 19.7275H45.1816V22.273H47.7271V19.7275Z" fill="white"/>
    <path d="M50.2725 22.2725H47.7271V24.8179H50.2725V22.2725Z" fill="white"/>
    <path d="M52.8179 24.8184H50.2725V27.3638H52.8179V24.8184Z" fill="white"/>
    <path d="M55.3633 24.8184H52.8179V27.3638H55.3633V24.8184Z" fill="white"/>
    <path d="M57.9092 29.9092H55.3638V32.4546H57.9092V29.9092Z" fill="white"/>
    <path d="M57.9092 27.3633H55.3638V29.9087H57.9092V27.3633Z" fill="white"/>
    <path d="M14.6363 27.3633H12.0908V29.9087H14.6363V27.3633Z" fill="white"/>
    <path d="M17.1817 24.8184H14.6362V27.3638H17.1817V24.8184Z" fill="white"/>
    <path d="M55.3635 55.3633H14.6362V57.9087H55.3635V55.3633Z" fill="white"/>
    <path d="M57.9092 50.2725H55.3638V55.3634H57.9092V50.2725Z" fill="white"/>
    <path d="M55.3633 32.4541H52.8179V50.2723H55.3633V32.4541Z" fill="white"/>
    <path d="M40.091 12.0908H29.9092V14.6363H40.091V12.0908Z" fill="white"/>
    <path d="M19.7271 32.4541H17.1816V34.9996H19.7271V32.4541Z" fill="black"/>
    <path d="M52.8179 32.4541H50.2725V34.9996H52.8179V32.4541Z" fill="black"/>
    <path d="M19.7271 35H17.1816V47.7273H19.7271V35Z" fill="black"/>
    <path d="M24.8179 35H22.2725V47.7273H24.8179V35Z" fill="#FFD9A6"/>
    <path d="M27.3633 35H24.8179V47.7273H27.3633V35Z" fill="#D3B38C"/>
    <path d="M35 35H32.4546V47.7273H35V35Z" fill="#FFD9A6"/>
    <path d="M37.5455 35H35V47.7273H37.5455V35Z" fill="#D3B38C"/>
    <path d="M45.1817 35H42.6362V47.7273H45.1817V35Z" fill="#FFD9A6"/>
    <path d="M47.7271 35H45.1816V47.7273H47.7271V35Z" fill="#D3B38C"/>
    <path d="M52.8179 35H50.2725V47.7273H52.8179V35Z" fill="black"/>
    <path d="M17.1817 50.2725H14.6362V52.8179H17.1817V50.2725Z" fill="black"/>
    <path d="M55.3633 50.2725H52.8179V52.8179H55.3633V50.2725Z" fill="black"/>
    <path d="M50.2725 24.8184H47.7271V27.3638H50.2725V24.8184Z" fill="black"/>
    <path d="M47.7271 22.2725H45.1816V24.8179H47.7271V22.2725Z" fill="black"/>
    <path d="M45.1817 19.7275H42.6362V22.273H45.1817V19.7275Z" fill="black"/>
    <path d="M42.6363 17.1816H40.0908V19.7271H42.6363V17.1816Z" fill="black"/>
    <path d="M40.091 14.6367H29.9092V17.1822H40.091V14.6367Z" fill="black"/>
    <path d="M22.2725 24.8184H19.7271V27.3638H22.2725V24.8184Z" fill="black"/>
    <path d="M24.8179 22.2725H22.2725V24.8179H24.8179V22.2725Z" fill="black"/>
    <path d="M27.3633 19.7275H24.8179V22.273H27.3633V19.7275Z" fill="black"/>
    <path d="M29.9092 17.1816H27.3638V19.7271H29.9092V17.1816Z" fill="black"/>
    <path d="M40.0909 17.1816H37.5454V19.7271H40.0909V17.1816Z" fill="#D95C17"/>
    <path d="M55.3633 29.9092H52.8179V32.4546H55.3633V29.9092Z" fill="black"/>
    <path d="M17.1817 29.9092H14.6362V32.4546H17.1817V29.9092Z" fill="black"/>
    <path d="M22.2725 32.4541H19.7271V34.9996H22.2725V32.4541Z" fill="#2B241D"/>
    <path d="M22.2725 35H19.7271V47.7273H22.2725V35Z" fill="#605140"/>
    <path d="M29.9092 35H27.3638V47.7273H29.9092V35Z" fill="#605140"/>
    <path d="M32.4546 35H29.9092V47.7273H32.4546V35Z" fill="#605140"/>
    <path d="M40.0909 35H37.5454V47.7273H40.0909V35Z" fill="#605140"/>
    <path d="M42.6363 35H40.0908V47.7273H42.6363V35Z" fill="#605140"/>
    <path d="M50.2725 35H47.7271V47.7273H50.2725V35Z" fill="#605140"/>
    <path d="M24.8179 32.4541H22.2725V34.9996H24.8179V32.4541Z" fill="#B29577"/>
    <path d="M27.3633 32.4541H24.8179V34.9996H27.3633V32.4541Z" fill="#B29577"/>
    <path d="M29.9092 32.4541H27.3638V34.9996H29.9092V32.4541Z" fill="#2B241D"/>
    <path d="M32.4546 32.4541H29.9092V34.9996H32.4546V32.4541Z" fill="#2B241D"/>
    <path d="M35 32.4541H32.4546V34.9996H35V32.4541Z" fill="#B29577"/>
    <path d="M37.5455 32.4541H35V34.9996H37.5455V32.4541Z" fill="#B29577"/>
    <path d="M40.0909 32.4541H37.5454V34.9996H40.0909V32.4541Z" fill="#2B241D"/>
    <path d="M42.6363 32.4541H40.0908V34.9996H42.6363V32.4541Z" fill="#2B241D"/>
    <path d="M45.1817 32.4541H42.6362V34.9996H45.1817V32.4541Z" fill="#B29577"/>
    <path d="M47.7271 32.4541H45.1816V34.9996H47.7271V32.4541Z" fill="#B29577"/>
    <path d="M50.2725 32.4541H47.7271V34.9996H50.2725V32.4541Z" fill="#2B241D"/>
    <path d="M19.7271 29.9092H17.1816V32.4546H19.7271V29.9092Z" fill="#FFD9A6"/>
    <path d="M17.1817 27.3633H14.6362V29.9087H17.1817V27.3633Z" fill="black"/>
    <path d="M55.3633 27.3633H52.8179V29.9087H55.3633V27.3633Z" fill="black"/>
    <path d="M52.8179 29.9092H50.2725V32.4546H52.8179V29.9092Z" fill="black"/>
    <path d="M22.2725 29.9092H19.7271V32.4546H22.2725V29.9092Z" fill="black"/>
    <path d="M24.8179 29.9092H22.2725V32.4546H24.8179V29.9092Z" fill="#FFD9A6"/>
    <path d="M27.3633 29.9092H24.8179V32.4546H27.3633V29.9092Z" fill="#FFD9A6"/>
    <path d="M29.9092 29.9092H27.3638V32.4546H29.9092V29.9092Z" fill="#D3B38C"/>
    <path d="M22.2725 29.9092H19.7271V32.4546H22.2725V29.9092Z" fill="#FFE8CA"/>
    <path d="M32.4546 29.9092H29.9092V32.4546H32.4546V29.9092Z" fill="#FFE8CA"/>
    <path d="M35 29.9092H32.4546V32.4546H35V29.9092Z" fill="#FFD9A6"/>
    <path d="M37.5455 29.9092H35V32.4546H37.5455V29.9092Z" fill="#FFD9A6"/>
    <path d="M40.0909 29.9092H37.5454V32.4546H40.0909V29.9092Z" fill="#D3B38C"/>
    <path d="M42.6363 29.9092H40.0908V32.4546H42.6363V29.9092Z" fill="#FFE8CA"/>
    <path d="M45.1817 29.9092H42.6362V32.4546H45.1817V29.9092Z" fill="#FFD9A6"/>
    <path d="M47.7271 29.9092H45.1816V32.4546H47.7271V29.9092Z" fill="#FFD9A6"/>
    <path d="M50.2725 29.9092H47.7271V32.4546H50.2725V29.9092Z" fill="#D3B38C"/>
    <path d="M19.7271 27.3633H17.1816V29.9087H19.7271V27.3633Z" fill="black"/>
    <path d="M52.8179 27.3633H50.2725V29.9087H52.8179V27.3633Z" fill="black"/>
    <path d="M19.7271 47.7275H17.1816V50.273H19.7271V47.7275Z" fill="black"/>
    <path d="M52.8179 47.7275H50.2725V50.273H52.8179V47.7275Z" fill="black"/>
    <path d="M50.2725 47.7275H19.7271V50.273H50.2725V47.7275Z" fill="#D3B38C"/>
    <path d="M55.3635 52.8184H14.6362V55.3638H55.3635V52.8184Z" fill="black"/>
    <path d="M52.818 50.2725H17.1816V52.8179H52.818V50.2725Z" fill="#FFD9A6"/>
    <path d="M52.8179 29.9092H50.2725V32.4546H52.8179V29.9092Z" fill="#FFD9A6"/>
    <path d="M50.2725 27.3633H47.7271V29.9087H50.2725V27.3633Z" fill="#D3B38C"/>
    <path d="M47.7271 24.8184H45.1816V27.3638H47.7271V24.8184Z" fill="#B29577"/>
    <path d="M45.1817 22.2725H42.6362V24.8179H45.1817V22.2725Z" fill="#B29577"/>
    <path d="M42.6363 19.7275H40.0908V22.273H42.6363V19.7275Z" fill="#B29577"/>
    <path d="M40.0909 17.1816H37.5454V19.7271H40.0909V17.1816Z" fill="#B29577"/>
    <path d="M47.7271 27.3633H45.1816V29.9087H47.7271V27.3633Z" fill="#D3B38C"/>
    <path d="M45.1817 24.8184H42.6362V27.3638H45.1817V24.8184Z" fill="#FFD9A6"/>
    <path d="M42.6363 22.2725H40.0908V24.8179H42.6363V22.2725Z" fill="#FFD9A6"/>
    <path d="M40.0909 19.7275H37.5454V22.273H40.0909V19.7275Z" fill="#FFD9A6"/>
    <path d="M37.5455 17.1816H35V19.7271H37.5455V17.1816Z" fill="#B29577"/>
    <path d="M45.1817 27.3633H42.6362V29.9087H45.1817V27.3633Z" fill="#D3B38C"/>
    <path d="M42.6363 24.8184H40.0908V27.3638H42.6363V24.8184Z" fill="#D3B38C"/>
    <path d="M40.0909 22.2725H37.5454V24.8179H40.0909V22.2725Z" fill="#D3B38C"/>
    <path d="M37.5455 19.7275H35V22.273H37.5455V19.7275Z" fill="#FFD9A6"/>
    <path d="M35 17.1816H32.4546V19.7271H35V17.1816Z" fill="#B29577"/>
    <path d="M42.6363 27.3633H40.0908V29.9087H42.6363V27.3633Z" fill="#D3B38C"/>
    <path d="M40.0909 24.8184H37.5454V27.3638H40.0909V24.8184Z" fill="#605140"/>
    <path d="M37.5455 22.2725H35V24.8179H37.5455V22.2725Z" fill="#D3B38C"/>
    <path d="M35 19.7275H32.4546V22.273H35V19.7275Z" fill="#FFD9A6"/>
    <path d="M40.0909 27.3633H37.5454V29.9087H40.0909V27.3633Z" fill="#D3B38C"/>
    <path d="M37.5455 24.8184H35V27.3638H37.5455V24.8184Z" fill="#2B241D"/>
    <path d="M35 22.2725H32.4546V24.8179H35V22.2725Z" fill="#D3B38C"/>
    <path d="M32.4546 19.7275H29.9092V22.273H32.4546V19.7275Z" fill="#FFD9A6"/>
    <path d="M37.5455 27.3633H35V29.9087H37.5455V27.3633Z" fill="#D3B38C"/>
    <path d="M35 24.8184H32.4546V27.3638H35V24.8184Z" fill="#2B241D"/>
    <path d="M32.4546 22.2725H29.9092V24.8179H32.4546V22.2725Z" fill="#D3B38C"/>
    <path d="M35 27.3633H32.4546V29.9087H35V27.3633Z" fill="#D3B38C"/>
    <path d="M32.4546 24.8184H29.9092V27.3638H32.4546V24.8184Z" fill="#605140"/>
    <path d="M29.9092 22.2725H27.3638V24.8179H29.9092V22.2725Z" fill="#FFD9A6"/>
    <path d="M32.4546 27.3633H29.9092V29.9087H32.4546V27.3633Z" fill="#D3B38C"/>
    <path d="M29.9092 24.8184H27.3638V27.3638H29.9092V24.8184Z" fill="#D3B38C"/>
    <path d="M29.9092 27.3633H27.3638V29.9087H29.9092V27.3633Z" fill="#D3B38C"/>
    <path d="M27.3633 24.8184H24.8179V27.3638H27.3633V24.8184Z" fill="#FFD9A6"/>
    <path d="M27.3633 27.3633H24.8179V29.9087H27.3633V27.3633Z" fill="#D3B38C"/>
    <path d="M24.8179 27.3633H22.2725V29.9087H24.8179V27.3633Z" fill="#D3B38C"/>
    <path d="M22.2725 27.3633H19.7271V29.9087H22.2725V27.3633Z" fill="#D3B38C"/>
    <path d="M24.8179 24.8184H22.2725V27.3638H24.8179V24.8184Z" fill="#B29577"/>
    <path d="M27.3633 22.2725H24.8179V24.8179H27.3633V22.2725Z" fill="#B29577"/>
    <path d="M29.9092 19.7275H27.3638V22.273H29.9092V19.7275Z" fill="#B29577"/>
    <path d="M32.4546 17.1816H29.9092V19.7271H32.4546V17.1816Z" fill="#B29577"/>
</svg>
