<svg width="50" height="50" viewBox="0 0 50 50" fill="none" xmlns="http://www.w3.org/2000/svg">
    <g clip-path="url(#clip0_1998_341)">
        <path d="M15.2942 18.5381H13.4354V20.1535H15.2942V18.5381Z" fill="black"/>
        <path d="M20.8708 42.769H15.2943V44.3844H20.8708V42.769Z" fill="black"/>
        <path d="M17.1531 20.1538H15.2943V28.2307H17.1531V20.1538Z" fill="black"/>
        <path d="M20.8708 20.1538H19.012V28.2307H20.8708V20.1538Z" fill="black"/>
        <path d="M22.7296 18.5381H20.8708V20.1535H22.7296V18.5381Z" fill="black"/>
        <path d="M15.2942 28.2305H13.4354V42.7689H15.2942V28.2305Z" fill="black"/>
        <path d="M22.7296 28.2305H20.8708V42.7689H22.7296V28.2305Z" fill="black"/>
        <path d="M41.3181 7.23047H39.4593V42.7689H41.3181V7.23047Z" fill="black"/>
        <path d="M13.4354 16.9229H11.5765V18.5382H13.4354V16.9229Z" fill="black"/>
        <path d="M24.5885 16.9229H22.7296V18.5382H24.5885V16.9229Z" fill="black"/>
        <path d="M11.5765 15.3076H9.71765V16.923H11.5765V15.3076Z" fill="black"/>
        <path d="M26.4474 15.3076H24.5885V16.923H26.4474V15.3076Z" fill="black"/>
        <path d="M15.2942 12.0767H13.4354V13.692H15.2942V12.0767Z" fill="black"/>
        <path d="M22.7296 12.0767H20.8708V13.692H22.7296V12.0767Z" fill="black"/>
        <path d="M17.1531 7.23047H15.2943V12.0766H17.1531V7.23047Z" fill="black"/>
        <path d="M11.5765 5.61523H9.71765V7.23062H11.5765V5.61523Z" fill="black"/>
        <path d="M11.5765 7.23047H9.71765V8.84585H11.5765V7.23047Z" fill="#F3F4F6"/>
        <path d="M11.5765 8.84619H9.71765V10.4616H11.5765V8.84619Z" fill="#F3F4F6"/>
        <path d="M11.5765 10.4614H9.71765V12.0768H11.5765V10.4614Z" fill="#C2C6CF"/>
        <path d="M11.5765 12.0767H9.71765V13.692H11.5765V12.0767Z" fill="#C2C6CF"/>
        <path d="M11.5765 13.6924H9.71765V15.3078H11.5765V13.6924Z" fill="#A4AAB6"/>
        <path d="M13.4354 12.0767H11.5765V13.692H13.4354V12.0767Z" fill="#A4AAB6"/>
        <path d="M13.4354 13.6924H11.5765V15.3078H13.4354V13.6924Z" fill="#C2C6CF"/>
        <path d="M15.2933 13.6924H13.4344V15.3078H15.2933V13.6924Z" fill="#A4AAB6"/>
        <path d="M17.1521 13.6924H15.2933V15.3078H17.1521V13.6924Z" fill="#C2C6CF"/>
        <path d="M19.011 13.6924H17.1522V15.3078H19.011V13.6924Z" fill="#C2C6CF"/>
        <path d="M20.8698 13.6924H19.011V15.3078H20.8698V13.6924Z" fill="#C2C6CF"/>
        <path d="M17.1521 12.0767H15.2933V13.692H17.1521V12.0767Z" fill="#A4AAB6"/>
        <path d="M19.011 12.0767H17.1522V13.692H19.011V12.0767Z" fill="#C2C6CF"/>
        <path d="M19.011 10.4614H17.1522V12.0768H19.011V10.4614Z" fill="#C2C6CF"/>
        <path d="M19.011 8.84619H17.1522V10.4616H19.011V8.84619Z" fill="#F3F4F6"/>
        <path d="M19.011 7.23047H17.1522V8.84585H19.011V7.23047Z" fill="#F3F4F6"/>
        <path d="M26.4455 10.4614H24.5866V12.0768H26.4455V10.4614Z" fill="#C2C6CF"/>
        <path d="M26.4455 8.84619H24.5866V10.4616H26.4455V8.84619Z" fill="#F3F4F6"/>
        <path d="M26.4455 7.23047H24.5866V8.84585H26.4455V7.23047Z" fill="#F3F4F6"/>
        <path d="M39.4593 7.23047H37.6005V8.84585H39.4593V7.23047Z" fill="#F3F4F6"/>
        <path d="M39.4593 8.84619H37.6005V10.4616H39.4593V8.84619Z" fill="#A4AAB6"/>
        <path d="M39.4593 10.4614H37.6005V12.0768H39.4593V10.4614Z" fill="#A4AAB6"/>
        <path d="M39.4593 12.0767H37.6005V13.692H39.4593V12.0767Z" fill="#C2C6CF"/>
        <path d="M39.4593 13.6924H37.6005V15.3078H39.4593V13.6924Z" fill="#C2C6CF"/>
        <path d="M39.4593 15.3076H37.6005V16.923H39.4593V15.3076Z" fill="#C2C6CF"/>
        <path d="M39.4593 16.9229H37.6005V18.5382H39.4593V16.9229Z" fill="#C2C6CF"/>
        <path d="M39.4593 18.5381H37.6005V20.1535H39.4593V18.5381Z" fill="#C2C6CF"/>
        <path d="M39.4593 20.1538H37.6005V21.7692H39.4593V20.1538Z" fill="#C2C6CF"/>
        <path d="M39.4593 21.769H37.6005V23.3844H39.4593V21.769Z" fill="#C2C6CF"/>
        <path d="M39.4593 23.3843H37.6005V24.9997H39.4593V23.3843Z" fill="#C2C6CF"/>
        <path d="M39.4593 25H37.6005V26.6154H39.4593V25Z" fill="#A4AAB6"/>
        <path d="M39.4593 26.6152H37.6005V28.2306H39.4593V26.6152Z" fill="#A4AAB6"/>
        <path d="M37.6004 8.84619H35.7416V10.4616H37.6004V8.84619Z" fill="#F3F4F6"/>
        <path d="M37.6004 10.4614H35.7416V12.0768H37.6004V10.4614Z" fill="#F3F4F6"/>
        <path d="M37.6004 12.0767H35.7416V13.692H37.6004V12.0767Z" fill="#A4AAB6"/>
        <path d="M37.6004 13.6924H35.7416V15.3078H37.6004V13.6924Z" fill="#A4AAB6"/>
        <path d="M37.6004 15.3076H35.7416V16.923H37.6004V15.3076Z" fill="#A4AAB6"/>
        <path d="M37.6004 16.9229H35.7416V18.5382H37.6004V16.9229Z" fill="#A4AAB6"/>
        <path d="M37.6004 18.5381H35.7416V20.1535H37.6004V18.5381Z" fill="#A4AAB6"/>
        <path d="M37.6004 20.1538H35.7416V21.7692H37.6004V20.1538Z" fill="#A4AAB6"/>
        <path d="M37.6004 21.769H35.7416V23.3844H37.6004V21.769Z" fill="#A4AAB6"/>
        <path d="M37.6004 23.3843H35.7416V24.9997H37.6004V23.3843Z" fill="#A4AAB6"/>
        <path d="M37.6004 25H35.7416V26.6154H37.6004V25Z" fill="#A4AAB6"/>
        <path d="M35.7416 12.0767H33.8828V13.692H35.7416V12.0767Z" fill="#F3F4F6"/>
        <path d="M35.7416 13.6924H33.8828V15.3078H35.7416V13.6924Z" fill="#F3F4F6"/>
        <path d="M35.7416 15.3076H33.8828V16.923H35.7416V15.3076Z" fill="#F3F4F6"/>
        <path d="M35.7416 16.9229H33.8828V18.5382H35.7416V16.9229Z" fill="#F3F4F6"/>
        <path d="M35.7416 18.5381H33.8828V20.1535H35.7416V18.5381Z" fill="#F3F4F6"/>
        <path d="M35.7416 20.1538H33.8828V21.7692H35.7416V20.1538Z" fill="#F3F4F6"/>
        <path d="M35.7416 21.769H33.8828V23.3844H35.7416V21.769Z" fill="#F3F4F6"/>
        <path d="M35.7416 23.3843H33.8828V24.9997H35.7416V23.3843Z" fill="#F3F4F6"/>
        <path d="M35.7416 25H33.8828V26.6154H35.7416V25Z" fill="#F3F4F6"/>
        <path d="M37.6004 26.6152H35.7416V28.2306H37.6004V26.6152Z" fill="#F3F4F6"/>
        <path d="M39.4593 28.2305H37.6005V29.8459H39.4593V28.2305Z" fill="#F3F4F6"/>
        <path d="M39.4593 29.8462H37.6005V31.4616H39.4593V29.8462Z" fill="#F3F4F6"/>
        <path d="M39.4593 31.4614H37.6005V33.0768H39.4593V31.4614Z" fill="#A4AAB6"/>
        <path d="M39.4593 33.0767H37.6005V34.692H39.4593V33.0767Z" fill="#C2C6CF"/>
        <path d="M39.4593 34.6924H37.6005V36.3078H39.4593V34.6924Z" fill="#C2C6CF"/>
        <path d="M39.4593 36.3076H37.6005V37.923H39.4593V36.3076Z" fill="#C2C6CF"/>
        <path d="M39.4593 37.9229H37.6005V39.5382H39.4593V37.9229Z" fill="#A4AAB6"/>
        <path d="M39.4593 39.5381H37.6005V41.1535H39.4593V39.5381Z" fill="#A4AAB6"/>
        <path d="M39.4593 41.1538H37.6005V42.7692H39.4593V41.1538Z" fill="#A4AAB6"/>
        <path d="M37.6004 31.4614H35.7416V33.0768H37.6004V31.4614Z" fill="#F3F4F6"/>
        <path d="M37.6004 33.0767H35.7416V34.692H37.6004V33.0767Z" fill="#C2C6CF"/>
        <path d="M37.6004 34.6924H35.7416V36.3078H37.6004V34.6924Z" fill="#C2C6CF"/>
        <path d="M37.6004 36.3076H35.7416V37.923H37.6004V36.3076Z" fill="#C2C6CF"/>
        <path d="M37.6004 37.9229H35.7416V39.5382H37.6004V37.9229Z" fill="#C2C6CF"/>
        <path d="M35.7416 34.6924H33.8828V36.3078H35.7416V34.6924Z" fill="#C2C6CF"/>
        <path d="M35.7416 36.3076H33.8828V37.923H35.7416V36.3076Z" fill="#C2C6CF"/>
        <path d="M35.7416 37.9229H33.8828V39.5382H35.7416V37.9229Z" fill="#A4AAB6"/>
        <path d="M37.6004 39.5381H35.7416V41.1535H37.6004V39.5381Z" fill="#A4AAB6"/>
        <path d="M37.6004 41.1538H35.7416V42.7692H37.6004V41.1538Z" fill="#A4AAB6"/>
        <path d="M20.8698 12.0767H19.011V13.692H20.8698V12.0767Z" fill="#A4AAB6"/>
        <path d="M22.7278 13.6924H20.869V15.3078H22.7278V13.6924Z" fill="#A4AAB6"/>
        <path d="M24.5866 13.6924H22.7278V15.3078H24.5866V13.6924Z" fill="#C2C6CF"/>
        <path d="M13.4354 15.3076H11.5765V16.923H13.4354V15.3076Z" fill="#A4AAB6"/>
        <path d="M15.2933 15.3076H13.4344V16.923H15.2933V15.3076Z" fill="#C2C6CF"/>
        <path d="M17.1521 15.3076H15.2933V16.923H17.1521V15.3076Z" fill="#C2C6CF"/>
        <path d="M19.011 15.3076H17.1522V16.923H19.011V15.3076Z" fill="#C2C6CF"/>
        <path d="M20.8698 15.3076H19.011V16.923H20.8698V15.3076Z" fill="#C2C6CF"/>
        <path d="M22.7278 15.3076H20.869V16.923H22.7278V15.3076Z" fill="#C2C6CF"/>
        <path d="M15.2933 16.9229H13.4344V18.5382H15.2933V16.9229Z" fill="#A4AAB6"/>
        <path d="M17.1521 16.9229H15.2933V18.5382H17.1521V16.9229Z" fill="#C2C6CF"/>
        <path d="M19.011 16.9229H17.1522V18.5382H19.011V16.9229Z" fill="#C2C6CF"/>
        <path d="M20.8698 16.9229H19.011V18.5382H20.8698V16.9229Z" fill="#C2C6CF"/>
        <path d="M17.1521 18.5381H15.2933V20.1535H17.1521V18.5381Z" fill="#A4AAB6"/>
        <path d="M19.011 18.5381H17.1522V20.1535H19.011V18.5381Z" fill="#C2C6CF"/>
        <path d="M19.011 20.1538H17.1522V21.7692H19.011V20.1538Z" fill="#A4AAB6"/>
        <path d="M19.011 21.769H17.1522V23.3844H19.011V21.769Z" fill="#A4AAB6"/>
        <path d="M19.011 23.3843H17.1522V24.9997H19.011V23.3843Z" fill="#C2C6CF"/>
        <path d="M19.011 25H17.1522V26.6154H19.011V25Z" fill="#C2C6CF"/>
        <path d="M19.011 26.6152H17.1522V28.2306H19.011V26.6152Z" fill="#C2C6CF"/>
        <path d="M17.1531 28.2305H15.2943V29.8459H17.1531V28.2305Z" fill="#F3F4F6"/>
        <path d="M19.011 28.2305H17.1522V29.8459H19.011V28.2305Z" fill="#C2C6CF"/>
        <path d="M20.8689 28.2305H19.0101V29.8459H20.8689V28.2305Z" fill="#C2C6CF"/>
        <path d="M17.1531 29.8462H15.2943V31.4616H17.1531V29.8462Z" fill="#F3F4F6"/>
        <path d="M19.011 29.8462H17.1522V31.4616H19.011V29.8462Z" fill="#C2C6CF"/>
        <path d="M20.8689 29.8462H19.0101V31.4616H20.8689V29.8462Z" fill="#C2C6CF"/>
        <path d="M17.1531 31.4614H15.2943V33.0768H17.1531V31.4614Z" fill="#F3F4F6"/>
        <path d="M19.011 31.4614H17.1522V33.0768H19.011V31.4614Z" fill="#C2C6CF"/>
        <path d="M20.8689 31.4614H19.0101V33.0768H20.8689V31.4614Z" fill="#C2C6CF"/>
        <path d="M17.1531 33.0767H15.2943V34.692H17.1531V33.0767Z" fill="#F3F4F6"/>
        <path d="M19.011 33.0767H17.1522V34.692H19.011V33.0767Z" fill="#C2C6CF"/>
        <path d="M20.8689 33.0767H19.0101V34.692H20.8689V33.0767Z" fill="#C2C6CF"/>
        <path d="M17.1531 34.6924H15.2943V36.3078H17.1531V34.6924Z" fill="#F3F4F6"/>
        <path d="M19.011 34.6924H17.1522V36.3078H19.011V34.6924Z" fill="#C2C6CF"/>
        <path d="M20.8689 34.6924H19.0101V36.3078H20.8689V34.6924Z" fill="#C2C6CF"/>
        <path d="M17.1531 36.3076H15.2943V37.923H17.1531V36.3076Z" fill="#F3F4F6"/>
        <path d="M19.011 36.3076H17.1522V37.923H19.011V36.3076Z" fill="#C2C6CF"/>
        <path d="M20.8689 36.3076H19.0101V37.923H20.8689V36.3076Z" fill="#C2C6CF"/>
        <path d="M17.1531 37.9229H15.2943V39.5382H17.1531V37.9229Z" fill="#F3F4F6"/>
        <path d="M19.011 37.9229H17.1522V39.5382H19.011V37.9229Z" fill="#C2C6CF"/>
        <path d="M20.8689 37.9229H19.0101V39.5382H20.8689V37.9229Z" fill="#C2C6CF"/>
        <path d="M17.1531 39.5381H15.2943V41.1535H17.1531V39.5381Z" fill="#F3F4F6"/>
        <path d="M19.011 39.5381H17.1522V41.1535H19.011V39.5381Z" fill="#C2C6CF"/>
        <path d="M20.8689 39.5381H19.0101V41.1535H20.8689V39.5381Z" fill="#C2C6CF"/>
        <path d="M17.1531 41.1538H15.2943V42.7692H17.1531V41.1538Z" fill="#F3F4F6"/>
        <path d="M19.011 41.1538H17.1522V42.7692H19.011V41.1538Z" fill="#C2C6CF"/>
        <path d="M20.8689 41.1538H19.0101V42.7692H20.8689V41.1538Z" fill="#C2C6CF"/>
        <path d="M20.8698 18.5381H19.011V20.1535H20.8698V18.5381Z" fill="#A4AAB6"/>
        <path d="M22.7278 16.9229H20.869V18.5382H22.7278V16.9229Z" fill="#A4AAB6"/>
        <path d="M24.5866 15.3076H22.7278V16.923H24.5866V15.3076Z" fill="#A4AAB6"/>
        <path d="M26.4455 13.6924H24.5866V15.3078H26.4455V13.6924Z" fill="#A4AAB6"/>
        <path d="M24.5866 12.0767H22.7278V13.692H24.5866V12.0767Z" fill="#A4AAB6"/>
        <path d="M26.4455 12.0767H24.5866V13.692H26.4455V12.0767Z" fill="#C2C6CF"/>
        <path d="M19.0119 5.61523H17.1531V7.23062H19.0119V5.61523Z" fill="black"/>
        <path d="M20.8708 7.23047H19.012V12.0766H20.8708V7.23047Z" fill="black"/>
        <path d="M24.5885 7.23047H22.7296V12.0766H24.5885V7.23047Z" fill="black"/>
        <path d="M26.4474 5.61523H24.5885V7.23062H26.4474V5.61523Z" fill="black"/>
        <path d="M39.4593 5.61523H37.6005V7.23062H39.4593V5.61523Z" fill="black"/>
        <path d="M37.6004 7.23047H35.7416V8.84585H37.6004V7.23047Z" fill="black"/>
        <path d="M35.7416 26.6152H33.8828V28.2306H35.7416V26.6152Z" fill="black"/>
        <path d="M35.7416 39.5381H33.8828V42.7689H35.7416V39.5381Z" fill="black"/>
        <path d="M39.4593 42.769H35.7416V44.3844H39.4593V42.769Z" fill="black"/>
        <path d="M37.6004 28.2305H35.7416V31.4612H37.6004V28.2305Z" fill="black"/>
        <path d="M35.7416 31.4614H33.8828V34.6922H35.7416V31.4614Z" fill="black"/>
        <path d="M33.8828 34.6924H32.0239V39.5385H33.8828V34.6924Z" fill="black"/>
        <path d="M35.7416 8.84619H33.8828V12.077H35.7416V8.84619Z" fill="black"/>
        <path d="M33.8828 12.0767H32.0239V26.6151H33.8828V12.0767Z" fill="black"/>
        <path d="M28.3062 7.23047H26.4473V15.3074H28.3062V7.23047Z" fill="black"/>
        <path d="M13.4354 7.23047H11.5765V12.0766H13.4354V7.23047Z" fill="black"/>
        <path d="M9.71768 7.23047H7.85883V15.3074H9.71768V7.23047Z" fill="black"/>
        <path d="M9.71768 5.61523H7.85883V7.23062H9.71768V5.61523Z" fill="white"/>
        <path d="M7.85885 7.23096H6V15.3079H7.85885V7.23096Z" fill="white"/>
        <path d="M11.5766 4H9.71771V5.61538H11.5766V4Z" fill="white"/>
        <path d="M19.012 4H17.1531V5.61538H19.012V4Z" fill="white"/>
        <path d="M26.4474 4H24.5885V5.61538H26.4474V4Z" fill="white"/>
        <path d="M39.4593 4H37.6005V5.61538H39.4593V4Z" fill="white"/>
        <path d="M41.3182 5.61523H39.4594V7.23062H41.3182V5.61523Z" fill="white"/>
        <path d="M43.1771 42.769H39.4594V44.3844H43.1771V42.769Z" fill="white"/>
        <path d="M35.7416 42.769H32.0239V44.3844H35.7416V42.769Z" fill="white"/>
        <path d="M33.8828 42.7693V39.5386H32.0239V42.7693H33.8828Z" fill="white"/>
        <path d="M32.0239 41.1539V34.6924H30.1651V41.1539H32.0239Z" fill="white"/>
        <path d="M33.8828 34.6922V31.4614H32.0239V34.6922H33.8828Z" fill="white"/>
        <path d="M35.7416 31.4617V28.231H33.8828V31.4617H35.7416Z" fill="white"/>
        <path d="M33.8828 28.2306V26.6152H32.0239V28.2306H33.8828Z" fill="white"/>
        <path d="M32.0239 26.6156V12.0771H30.1651V26.6156H32.0239Z" fill="white"/>
        <path d="M41.3182 44.3848H33.8828V46.0002H41.3182V44.3848Z" fill="white"/>
        <path d="M43.177 7.23096H41.3182V42.7694H43.177V7.23096Z" fill="white"/>
        <path d="M13.4354 5.61523H11.5765V7.23062H13.4354V5.61523Z" fill="white"/>
        <path d="M17.1531 5.61523H15.2943V7.23062H17.1531V5.61523Z" fill="white"/>
        <path d="M20.8708 5.61523H19.012V7.23062H20.8708V5.61523Z" fill="white"/>
        <path d="M24.5866 5.61523H22.7278V7.23062H24.5866V5.61523Z" fill="white"/>
        <path d="M28.3062 5.61523H26.4474V7.23062H28.3062V5.61523Z" fill="white"/>
        <path d="M35.7416 7.23096H33.8828V8.84634H35.7416V7.23096Z" fill="white"/>
        <path d="M37.6005 5.61523H35.7416V7.23062H37.6005V5.61523Z" fill="white"/>
        <path d="M33.8828 8.84619H32.0239V12.077H33.8828V8.84619Z" fill="white"/>
        <path d="M15.2943 7.23096H13.4354V8.84634H15.2943V7.23096Z" fill="white"/>
        <path d="M15.2943 8.84619H13.4354V10.4616H15.2943V8.84619Z" fill="white"/>
        <path d="M15.2943 10.4614H13.4354V12.0768H15.2943V10.4614Z" fill="white"/>
        <path d="M22.7296 7.23096H20.8708V8.84634H22.7296V7.23096Z" fill="white"/>
        <path d="M22.7296 8.84619H20.8708V10.4616H22.7296V8.84619Z" fill="white"/>
        <path d="M22.7296 10.4614H20.8708V12.0768H22.7296V10.4614Z" fill="white"/>
        <path d="M30.1651 7.23096H28.3062V8.84634H30.1651V7.23096Z" fill="white"/>
        <path d="M30.1651 8.84619H28.3062V10.4616H30.1651V8.84619Z" fill="white"/>
        <path d="M30.1651 10.4614H28.3062V12.0768H30.1651V10.4614Z" fill="white"/>
        <path d="M30.1651 12.0771H28.3062V13.6925H30.1651V12.0771Z" fill="white"/>
        <path d="M30.1651 13.6924H28.3062V15.3078H30.1651V13.6924Z" fill="white"/>
        <path d="M28.3062 15.3076H26.4474V16.923H28.3062V15.3076Z" fill="white"/>
        <path d="M9.71768 15.3076H7.85883V16.923H9.71768V15.3076Z" fill="white"/>
        <path d="M26.4455 16.9229H24.5867V18.5382H26.4455V16.9229Z" fill="white"/>
        <path d="M11.5766 16.9229H9.71771V18.5382H11.5766V16.9229Z" fill="white"/>
        <path d="M24.5885 18.5386H22.7297V20.154H24.5885V18.5386Z" fill="white"/>
        <path d="M24.5885 26.6152H22.7297V28.2306H24.5885V26.6152Z" fill="white"/>
        <path d="M13.4354 18.5386H11.5765V20.154H13.4354V18.5386Z" fill="white"/>
        <path d="M13.4354 26.6152H11.5765V28.2306H13.4354V26.6152Z" fill="white"/>
        <path d="M15.2933 42.769H13.4344V44.3844H15.2933V42.769Z" fill="white"/>
        <path d="M22.7296 42.769H20.8708V44.3844H22.7296V42.769Z" fill="white"/>
        <path d="M24.5885 28.231H22.7297V44.3848H24.5885V28.231Z" fill="white"/>
        <path d="M22.7296 44.3848H13.4344V46.0002H22.7296V44.3848Z" fill="white"/>
        <path d="M13.4354 42.769H11.5765V44.3844H13.4354V42.769Z" fill="white"/>
        <path d="M22.7296 20.1538H20.8708V28.2307H22.7296V20.1538Z" fill="white"/>
        <path d="M15.2933 20.1538H13.4344V28.2307H15.2933V20.1538Z" fill="white"/>
        <path d="M13.4354 28.231H11.5765V42.7694H13.4354V28.231Z" fill="white"/>
    </g>
    <defs>
        <clipPath id="clip0_1998_341">
            <rect width="37.177" height="42" fill="white" transform="translate(6 4)"/>
        </clipPath>
    </defs>
</svg>
