<svg width="50" height="50" viewBox="0 0 50 50" fill="none" xmlns="http://www.w3.org/2000/svg">
    <path d="M8.66634 23.0303H6.33301V39.3636H8.66634V23.0303Z" fill="white"/>
    <path d="M6.33333 39.3638H4V44.0304H6.33333V39.3638Z" fill="white"/>
    <path d="M6.33333 20.6973H4V23.0306H6.33333V20.6973Z" fill="white"/>
    <path d="M6.33333 44.0303H4V46.3636H6.33333V44.0303Z" fill="white"/>
    <path d="M6.33333 37.0303H4V39.3636H6.33333V37.0303Z" fill="white"/>
    <path d="M45.9998 37.0303H43.6665V39.3636H45.9998V37.0303Z" fill="white"/>
    <path d="M45.9998 44.0303H43.6665V46.3636H45.9998V44.0303Z" fill="white"/>
    <path d="M8.66634 18.3638H6.33301V20.6971H8.66634V18.3638Z" fill="white"/>
    <path d="M11.0003 16.0308H8.66699V18.3641H11.0003V16.0308Z" fill="white"/>
    <path d="M13.3333 13.6968H11V16.0301H13.3333V13.6968Z" fill="white"/>
    <path d="M15.6663 11.3638H13.333V13.6971H15.6663V11.3638Z" fill="white"/>
    <path d="M18.0003 9.03076H15.667V11.3641H18.0003V9.03076Z" fill="white"/>
    <path d="M20.3333 6.69678H18V9.03011H20.3333V6.69678Z" fill="white"/>
    <path d="M31.9998 6.69678H29.6665V9.03011H31.9998V6.69678Z" fill="white"/>
    <path d="M34.3333 9.03076H32V11.3641H34.3333V9.03076Z" fill="white"/>
    <path d="M36.6668 11.3638H34.3335V13.6971H36.6668V11.3638Z" fill="white"/>
    <path d="M38.9998 13.6968H36.6665V16.0301H38.9998V13.6968Z" fill="white"/>
    <path d="M41.3333 16.0308H39V18.3641H41.3333V16.0308Z" fill="white"/>
    <path d="M43.6668 16.0308H41.3335V18.3641H43.6668V16.0308Z" fill="white"/>
    <path d="M45.9998 20.6973H43.6665V23.0306H45.9998V20.6973Z" fill="white"/>
    <path d="M45.9998 18.3638H43.6665V20.6971H45.9998V18.3638Z" fill="white"/>
    <path d="M6.33333 18.3638H4V20.6971H6.33333V18.3638Z" fill="white"/>
    <path d="M8.66634 16.0308H6.33301V18.3641H8.66634V16.0308Z" fill="white"/>
    <path d="M43.6663 44.0303H6.33301V46.3636H43.6663V44.0303Z" fill="white"/>
    <path d="M45.9998 39.3638H43.6665V44.0304H45.9998V39.3638Z" fill="white"/>
    <path d="M43.6668 23.0303H41.3335V39.3636H43.6668V23.0303Z" fill="white"/>
    <path d="M29.6668 4.36377H20.3335V6.6971H29.6668V4.36377Z" fill="white"/>
    <path d="M11.0003 23.0303H8.66699V25.3636H11.0003V23.0303Z" fill="black"/>
    <path d="M41.3333 23.0303H39V25.3636H41.3333V23.0303Z" fill="black"/>
    <path d="M11.0003 25.3638H8.66699V37.0304H11.0003V25.3638Z" fill="black"/>
    <path d="M15.6663 25.3638H13.333V37.0304H15.6663V25.3638Z" fill="#FFD9A6"/>
    <path d="M18.0003 25.3638H15.667V37.0304H18.0003V25.3638Z" fill="#D3B38C"/>
    <path d="M24.9998 25.3638H22.6665V37.0304H24.9998V25.3638Z" fill="#FFD9A6"/>
    <path d="M27.3333 25.3638H25V37.0304H27.3333V25.3638Z" fill="#D3B38C"/>
    <path d="M34.3333 25.3638H32V37.0304H34.3333V25.3638Z" fill="#FFD9A6"/>
    <path d="M36.6668 25.3638H34.3335V37.0304H36.6668V25.3638Z" fill="#D3B38C"/>
    <path d="M41.3333 25.3638H39V37.0304H41.3333V25.3638Z" fill="black"/>
    <path d="M8.66634 39.3638H6.33301V41.6971H8.66634V39.3638Z" fill="black"/>
    <path d="M43.6668 39.3638H41.3335V41.6971H43.6668V39.3638Z" fill="black"/>
    <path d="M38.9998 16.0308H36.6665V18.3641H38.9998V16.0308Z" fill="black"/>
    <path d="M36.6668 13.6968H34.3335V16.0301H36.6668V13.6968Z" fill="black"/>
    <path d="M34.3333 11.3638H32V13.6971H34.3333V11.3638Z" fill="black"/>
    <path d="M31.9998 9.03076H29.6665V11.3641H31.9998V9.03076Z" fill="black"/>
    <path d="M29.6668 6.69678H20.3335V9.03011H29.6668V6.69678Z" fill="black"/>
    <path d="M13.3333 16.0308H11V18.3641H13.3333V16.0308Z" fill="black"/>
    <path d="M15.6663 13.6968H13.333V16.0301H15.6663V13.6968Z" fill="black"/>
    <path d="M18.0003 11.3638H15.667V13.6971H18.0003V11.3638Z" fill="black"/>
    <path d="M20.3333 9.03076H18V11.3641H20.3333V9.03076Z" fill="black"/>
    <path d="M29.6668 9.03076H27.3335V11.3641H29.6668V9.03076Z" fill="#D95C17"/>
    <path d="M43.6668 20.6973H41.3335V23.0306H43.6668V20.6973Z" fill="black"/>
    <path d="M8.66634 20.6973H6.33301V23.0306H8.66634V20.6973Z" fill="black"/>
    <path d="M13.3333 23.0303H11V25.3636H13.3333V23.0303Z" fill="#2B241D"/>
    <path d="M13.3333 25.3638H11V37.0304H13.3333V25.3638Z" fill="#605140"/>
    <path d="M20.3333 25.3638H18V37.0304H20.3333V25.3638Z" fill="#605140"/>
    <path d="M22.6668 25.3638H20.3335V37.0304H22.6668V25.3638Z" fill="#605140"/>
    <path d="M29.6668 25.3638H27.3335V37.0304H29.6668V25.3638Z" fill="#605140"/>
    <path d="M31.9998 25.3638H29.6665V37.0304H31.9998V25.3638Z" fill="#605140"/>
    <path d="M38.9998 25.3638H36.6665V37.0304H38.9998V25.3638Z" fill="#605140"/>
    <path d="M15.6663 23.0303H13.333V25.3636H15.6663V23.0303Z" fill="#B29577"/>
    <path d="M18.0003 23.0303H15.667V25.3636H18.0003V23.0303Z" fill="#B29577"/>
    <path d="M20.3333 23.0303H18V25.3636H20.3333V23.0303Z" fill="#2B241D"/>
    <path d="M22.6668 23.0303H20.3335V25.3636H22.6668V23.0303Z" fill="#2B241D"/>
    <path d="M24.9998 23.0303H22.6665V25.3636H24.9998V23.0303Z" fill="#B29577"/>
    <path d="M27.3333 23.0303H25V25.3636H27.3333V23.0303Z" fill="#B29577"/>
    <path d="M29.6668 23.0303H27.3335V25.3636H29.6668V23.0303Z" fill="#2B241D"/>
    <path d="M31.9998 23.0303H29.6665V25.3636H31.9998V23.0303Z" fill="#2B241D"/>
    <path d="M34.3333 23.0303H32V25.3636H34.3333V23.0303Z" fill="#B29577"/>
    <path d="M36.6668 23.0303H34.3335V25.3636H36.6668V23.0303Z" fill="#B29577"/>
    <path d="M38.9998 23.0303H36.6665V25.3636H38.9998V23.0303Z" fill="#2B241D"/>
    <path d="M11.0003 20.6973H8.66699V23.0306H11.0003V20.6973Z" fill="#FFD9A6"/>
    <path d="M8.66634 18.3638H6.33301V20.6971H8.66634V18.3638Z" fill="black"/>
    <path d="M43.6668 18.3638H41.3335V20.6971H43.6668V18.3638Z" fill="black"/>
    <path d="M41.3333 20.6973H39V23.0306H41.3333V20.6973Z" fill="black"/>
    <path d="M13.3333 20.6973H11V23.0306H13.3333V20.6973Z" fill="black"/>
    <path d="M15.6663 20.6973H13.333V23.0306H15.6663V20.6973Z" fill="#FFD9A6"/>
    <path d="M18.0003 20.6973H15.667V23.0306H18.0003V20.6973Z" fill="#FFD9A6"/>
    <path d="M20.3333 20.6973H18V23.0306H20.3333V20.6973Z" fill="#D3B38C"/>
    <path d="M13.3333 20.6973H11V23.0306H13.3333V20.6973Z" fill="#FFE8CA"/>
    <path d="M22.6668 20.6973H20.3335V23.0306H22.6668V20.6973Z" fill="#FFE8CA"/>
    <path d="M24.9998 20.6973H22.6665V23.0306H24.9998V20.6973Z" fill="#FFD9A6"/>
    <path d="M27.3333 20.6973H25V23.0306H27.3333V20.6973Z" fill="#FFD9A6"/>
    <path d="M29.6668 20.6973H27.3335V23.0306H29.6668V20.6973Z" fill="#D3B38C"/>
    <path d="M31.9998 20.6973H29.6665V23.0306H31.9998V20.6973Z" fill="#FFE8CA"/>
    <path d="M34.3333 20.6973H32V23.0306H34.3333V20.6973Z" fill="#FFD9A6"/>
    <path d="M36.6668 20.6973H34.3335V23.0306H36.6668V20.6973Z" fill="#FFD9A6"/>
    <path d="M38.9998 20.6973H36.6665V23.0306H38.9998V20.6973Z" fill="#D3B38C"/>
    <path d="M11.0003 18.3638H8.66699V20.6971H11.0003V18.3638Z" fill="black"/>
    <path d="M41.3333 18.3638H39V20.6971H41.3333V18.3638Z" fill="black"/>
    <path d="M11.0003 37.0303H8.66699V39.3636H11.0003V37.0303Z" fill="black"/>
    <path d="M41.3333 37.0303H39V39.3636H41.3333V37.0303Z" fill="black"/>
    <path d="M39 37.0303H11V39.3636H39V37.0303Z" fill="#D3B38C"/>
    <path d="M43.6663 41.6973H6.33301V44.0306H43.6663V41.6973Z" fill="black"/>
    <path d="M41.3337 39.3638H8.66699V41.6971H41.3337V39.3638Z" fill="#FFD9A6"/>
    <path d="M41.3333 20.6973H39V23.0306H41.3333V20.6973Z" fill="#FFD9A6"/>
    <path d="M38.9998 18.3638H36.6665V20.6971H38.9998V18.3638Z" fill="#D3B38C"/>
    <path d="M36.6668 16.0308H34.3335V18.3641H36.6668V16.0308Z" fill="#B29577"/>
    <path d="M34.3333 13.6968H32V16.0301H34.3333V13.6968Z" fill="#B29577"/>
    <path d="M31.9998 11.3638H29.6665V13.6971H31.9998V11.3638Z" fill="#B29577"/>
    <path d="M29.6668 9.03076H27.3335V11.3641H29.6668V9.03076Z" fill="#B29577"/>
    <path d="M36.6668 18.3638H34.3335V20.6971H36.6668V18.3638Z" fill="#D3B38C"/>
    <path d="M34.3333 16.0308H32V18.3641H34.3333V16.0308Z" fill="#FFD9A6"/>
    <path d="M31.9998 13.6968H29.6665V16.0301H31.9998V13.6968Z" fill="#FFD9A6"/>
    <path d="M29.6668 11.3638H27.3335V13.6971H29.6668V11.3638Z" fill="#FFD9A6"/>
    <path d="M27.3333 9.03076H25V11.3641H27.3333V9.03076Z" fill="#B29577"/>
    <path d="M34.3333 18.3638H32V20.6971H34.3333V18.3638Z" fill="#D3B38C"/>
    <path d="M31.9998 16.0308H29.6665V18.3641H31.9998V16.0308Z" fill="#D3B38C"/>
    <path d="M29.6668 13.6968H27.3335V16.0301H29.6668V13.6968Z" fill="#D3B38C"/>
    <path d="M27.3333 11.3638H25V13.6971H27.3333V11.3638Z" fill="#FFD9A6"/>
    <path d="M24.9998 9.03076H22.6665V11.3641H24.9998V9.03076Z" fill="#B29577"/>
    <path d="M31.9998 18.3638H29.6665V20.6971H31.9998V18.3638Z" fill="#D3B38C"/>
    <path d="M29.6668 16.0308H27.3335V18.3641H29.6668V16.0308Z" fill="#605140"/>
    <path d="M27.3333 13.6968H25V16.0301H27.3333V13.6968Z" fill="#D3B38C"/>
    <path d="M24.9998 11.3638H22.6665V13.6971H24.9998V11.3638Z" fill="#FFD9A6"/>
    <path d="M29.6668 18.3638H27.3335V20.6971H29.6668V18.3638Z" fill="#D3B38C"/>
    <path d="M27.3333 16.0308H25V18.3641H27.3333V16.0308Z" fill="#2B241D"/>
    <path d="M24.9998 13.6968H22.6665V16.0301H24.9998V13.6968Z" fill="#D3B38C"/>
    <path d="M22.6668 11.3638H20.3335V13.6971H22.6668V11.3638Z" fill="#FFD9A6"/>
    <path d="M27.3333 18.3638H25V20.6971H27.3333V18.3638Z" fill="#D3B38C"/>
    <path d="M24.9998 16.0308H22.6665V18.3641H24.9998V16.0308Z" fill="#2B241D"/>
    <path d="M22.6668 13.6968H20.3335V16.0301H22.6668V13.6968Z" fill="#D3B38C"/>
    <path d="M24.9998 18.3638H22.6665V20.6971H24.9998V18.3638Z" fill="#D3B38C"/>
    <path d="M22.6668 16.0308H20.3335V18.3641H22.6668V16.0308Z" fill="#605140"/>
    <path d="M20.3333 13.6968H18V16.0301H20.3333V13.6968Z" fill="#FFD9A6"/>
    <path d="M22.6668 18.3638H20.3335V20.6971H22.6668V18.3638Z" fill="#D3B38C"/>
    <path d="M20.3333 16.0308H18V18.3641H20.3333V16.0308Z" fill="#D3B38C"/>
    <path d="M20.3333 18.3638H18V20.6971H20.3333V18.3638Z" fill="#D3B38C"/>
    <path d="M18.0003 16.0308H15.667V18.3641H18.0003V16.0308Z" fill="#FFD9A6"/>
    <path d="M18.0003 18.3638H15.667V20.6971H18.0003V18.3638Z" fill="#D3B38C"/>
    <path d="M15.6663 18.3638H13.333V20.6971H15.6663V18.3638Z" fill="#D3B38C"/>
    <path d="M13.3333 18.3638H11V20.6971H13.3333V18.3638Z" fill="#D3B38C"/>
    <path d="M15.6663 16.0308H13.333V18.3641H15.6663V16.0308Z" fill="#B29577"/>
    <path d="M18.0003 13.6968H15.667V16.0301H18.0003V13.6968Z" fill="#B29577"/>
    <path d="M20.3333 11.3638H18V13.6971H20.3333V11.3638Z" fill="#B29577"/>
    <path d="M22.6668 9.03076H20.3335V11.3641H22.6668V9.03076Z" fill="#B29577"/>
</svg>
