<svg width="50" height="50" viewBox="0 0 50 50" fill="none" xmlns="http://www.w3.org/2000/svg">
    <g clip-path="url(#clip0_1998_747)">
        <path d="M20.4582 5.61523H18.9124V7.23062H20.4582V5.61523Z" fill="black"/>
        <path d="M20.4582 7.23096H18.9124V8.84634H20.4582V7.23096Z" fill="black"/>
        <path d="M42.0998 7.23096H20.4583V23.3848H42.0998V7.23096Z" fill="#F0C915"/>
        <path d="M40.5539 5.61523H20.4583V7.23062H40.5539V5.61523Z" fill="black"/>
        <path d="M20.4582 12.0771H18.9124V13.6925H20.4582V12.0771Z" fill="black"/>
        <path d="M20.4582 10.4614H18.9124V12.0768H20.4582V10.4614Z" fill="black"/>
        <path d="M20.4582 8.84619H18.9124V10.4616H20.4582V8.84619Z" fill="black"/>
        <path d="M20.4582 13.6924H18.9124V23.3847H20.4582V13.6924Z" fill="black"/>
        <path d="M22.0041 23.3848H20.4583V25.0002H22.0041V23.3848Z" fill="black"/>
        <path d="M22.0041 21.769H20.4583V23.3844H22.0041V21.769Z" fill="#EEB81D"/>
        <path d="M23.5499 21.769H22.004V23.3844H23.5499V21.769Z" fill="#EEB81D"/>
        <path d="M25.0957 21.769H23.5499V23.3844H25.0957V21.769Z" fill="#EEB81D"/>
        <path d="M26.6415 21.769H25.0957V23.3844H26.6415V21.769Z" fill="#EEB81D"/>
        <path d="M28.1874 21.769H26.6415V23.3844H28.1874V21.769Z" fill="#EEB81D"/>
        <path d="M22.0041 20.1538H20.4583V21.7692H22.0041V20.1538Z" fill="#EEB81D"/>
        <path d="M23.5499 20.1538H22.004V21.7692H23.5499V20.1538Z" fill="#EEB81D"/>
        <path d="M23.5499 18.5386H22.004V20.154H23.5499V18.5386Z" fill="#EEB81D"/>
        <path d="M25.0957 20.1538H23.5499V21.7692H25.0957V20.1538Z" fill="#EEB81D"/>
        <path d="M22.0041 18.5386H20.4583V20.154H22.0041V18.5386Z" fill="#EEB81D"/>
        <path d="M22.0041 7.23096H20.4583V18.5386H22.0041V7.23096Z" fill="#EEB81D"/>
        <path d="M42.0998 7.23096H40.554V18.5386H42.0998V7.23096Z" fill="white"/>
        <path d="M23.5499 25H22.004V26.6154H23.5499V25Z" fill="black"/>
        <path d="M25.0957 25H23.5499V26.6154H25.0957V25Z" fill="#BB891A"/>
        <path d="M26.6415 25H25.0957V26.6154H26.6415V25Z" fill="#BB891A"/>
        <path d="M26.6415 26.6152H25.0957V28.2306H26.6415V26.6152Z" fill="#BB891A"/>
        <path d="M9.6375 42.769H8.09167V44.3844H9.6375V42.769Z" fill="black"/>
        <path d="M8.09166 34.6924H6.54584V42.7693H8.09166V34.6924Z" fill="black"/>
        <path d="M11.1833 42.769H9.63745V44.3844H11.1833V42.769Z" fill="black"/>
        <path d="M12.7291 42.769H11.1833V44.3844H12.7291V42.769Z" fill="black"/>
        <path d="M12.7291 33.0771H11.1833V34.6925H12.7291V33.0771Z" fill="black"/>
        <path d="M12.7291 34.6924H11.1833V36.3078H12.7291V34.6924Z" fill="black"/>
        <path d="M12.7291 36.3076H11.1833V37.923H12.7291V36.3076Z" fill="black"/>
        <path d="M14.2749 36.3076H12.7291V37.923H14.2749V36.3076Z" fill="black"/>
        <path d="M12.7291 37.9229H11.1833V39.5382H12.7291V37.9229Z" fill="black"/>
        <path d="M14.2749 37.9229H12.7291V39.5382H14.2749V37.9229Z" fill="black"/>
        <path d="M14.2749 34.6924H12.7291V36.3078H14.2749V34.6924Z" fill="black"/>
        <path d="M23.5499 33.0771H22.004V34.6925H23.5499V33.0771Z" fill="black"/>
        <path d="M23.5499 34.6924H22.004V36.3078H23.5499V34.6924Z" fill="black"/>
        <path d="M23.5499 36.3076H22.004V37.923H23.5499V36.3076Z" fill="black"/>
        <path d="M25.0957 36.3076H23.5499V37.923H25.0957V36.3076Z" fill="black"/>
        <path d="M23.5499 37.9229H22.004V39.5382H23.5499V37.9229Z" fill="black"/>
        <path d="M25.0957 37.9229H23.5499V39.5382H25.0957V37.9229Z" fill="black"/>
        <path d="M25.0957 34.6924H23.5499V36.3078H25.0957V34.6924Z" fill="black"/>
        <path d="M14.2749 42.769H12.7291V44.3844H14.2749V42.769Z" fill="black"/>
        <path d="M15.8208 34.6924H14.275V42.7693H15.8208V34.6924Z" fill="black"/>
        <path d="M20.4582 42.769H18.9124V44.3844H20.4582V42.769Z" fill="black"/>
        <path d="M18.9124 34.6924H17.3666V42.7693H18.9124V34.6924Z" fill="black"/>
        <path d="M22.0041 42.769H20.4583V44.3844H22.0041V42.769Z" fill="black"/>
        <path d="M23.5499 42.769H22.004V44.3844H23.5499V42.769Z" fill="black"/>
        <path d="M11.1833 31.4614H9.63745V33.0768H11.1833V31.4614Z" fill="black"/>
        <path d="M12.7291 31.4614H11.1833V33.0768H12.7291V31.4614Z" fill="black"/>
        <path d="M22.0041 31.4614H20.4583V33.0768H22.0041V31.4614Z" fill="black"/>
        <path d="M23.5499 31.4614H22.004V33.0768H23.5499V31.4614Z" fill="black"/>
        <path d="M25.0957 42.769H23.5499V44.3844H25.0957V42.769Z" fill="black"/>
        <path d="M9.6375 33.0771H8.09167V34.6925H9.6375V33.0771Z" fill="black"/>
        <path d="M9.6375 31.4614H8.09167V33.0768H9.6375V31.4614Z" fill="white"/>
        <path d="M8.09166 33.0771H6.54584V34.6925H8.09166V33.0771Z" fill="white"/>
        <path d="M8.09165 42.769H5V44.3844H8.09165V42.769Z" fill="white"/>
        <path d="M6.54582 34.6924H5V42.7693H6.54582V34.6924Z" fill="white"/>
        <path d="M11.1833 29.8462H9.63745V31.4616H11.1833V29.8462Z" fill="white"/>
        <path d="M12.7291 29.8462H11.1833V31.4616H12.7291V29.8462Z" fill="white"/>
        <path d="M22.0041 29.8462H20.4583V31.4616H22.0041V29.8462Z" fill="white"/>
        <path d="M23.5499 29.8462H22.004V31.4616H23.5499V29.8462Z" fill="white"/>
        <path d="M26.6415 29.8462H23.5499V31.4616H26.6415V29.8462Z" fill="white"/>
        <path d="M43.6456 31.4614H25.0957V33.0768H43.6456V31.4614Z" fill="white"/>
        <path d="M25.0957 28.231H22.004V29.8463H25.0957V28.231Z" fill="white"/>
        <path d="M23.5499 26.6152H20.4583V28.2306H23.5499V26.6152Z" fill="white"/>
        <path d="M22.0041 25H18.9124V26.6154H22.0041V25Z" fill="white"/>
        <path d="M20.4582 23.3848H17.3666V25.0002H20.4582V23.3848Z" fill="white"/>
        <path d="M43.6456 4H18.9124V5.61538H43.6456V4Z" fill="white"/>
        <path d="M17.3666 5.61554V23.3848H18.9124V5.61554H17.3666Z" fill="white"/>
        <path d="M43.6455 5.61527V31.4614H45.1913V5.61527H43.6455Z" fill="white"/>
        <path d="M14.2749 31.4614H12.7291V33.0768H14.2749V31.4614Z" fill="white"/>
        <path d="M20.4582 31.4614H18.9124V33.0768H20.4582V31.4614Z" fill="white"/>
        <path d="M25.0957 31.4614H23.5499V33.0768H25.0957V31.4614Z" fill="white"/>
        <path d="M15.8207 34.6925V33.0771H14.2749V34.6925H15.8207Z" fill="white"/>
        <path d="M18.9124 34.6925V33.0771H17.3666V34.6925H18.9124Z" fill="white"/>
        <path d="M26.6415 34.6925V33.0771H25.0957V34.6925H26.6415Z" fill="white"/>
        <path d="M18.9124 42.769H14.275V44.3844H18.9124V42.769Z" fill="white"/>
        <path d="M28.1873 42.769H25.0957V44.3844H28.1873V42.769Z" fill="white"/>
        <path d="M26.6415 44.3848H6.54584V46.0002H26.6415V44.3848Z" fill="white"/>
        <path d="M17.3666 34.6924H15.8207V42.7693H17.3666V34.6924Z" fill="white"/>
        <path d="M28.1874 34.6924H26.6415V42.7693H28.1874V34.6924Z" fill="white"/>
        <path d="M11.1833 33.0771H9.63745V34.6925H11.1833V33.0771Z" fill="white"/>
        <path d="M11.1833 34.6924H9.63745V36.3078H11.1833V34.6924Z" fill="white"/>
        <path d="M9.6375 34.6924H8.09167V36.3078H9.6375V34.6924Z" fill="white"/>
        <path d="M11.1833 36.3076H9.63745V37.923H11.1833V36.3076Z" fill="white"/>
        <path d="M9.6375 36.3076H8.09167V37.923H9.6375V36.3076Z" fill="white"/>
        <path d="M11.1833 37.9229H9.63745V39.5382H11.1833V37.9229Z" fill="white"/>
        <path d="M9.6375 37.9229H8.09167V39.5382H9.6375V37.9229Z" fill="white"/>
        <path d="M11.1833 39.5386H9.63745V41.154H11.1833V39.5386Z" fill="white"/>
        <path d="M9.6375 39.5386H8.09167V41.154H9.6375V39.5386Z" fill="white"/>
        <path d="M11.1833 41.1538H9.63745V42.7692H11.1833V41.1538Z" fill="white"/>
        <path d="M9.6375 41.1538H8.09167V42.7692H9.6375V41.1538Z" fill="white"/>
        <path d="M14.2749 39.5386H12.7291V41.154H14.2749V39.5386Z" fill="white"/>
        <path d="M12.7291 39.5386H11.1833V41.154H12.7291V39.5386Z" fill="white"/>
        <path d="M14.2749 41.1538H12.7291V42.7692H14.2749V41.1538Z" fill="white"/>
        <path d="M12.7291 41.1538H11.1833V42.7692H12.7291V41.1538Z" fill="white"/>
        <path d="M22.0041 33.0771H20.4583V34.6925H22.0041V33.0771Z" fill="white"/>
        <path d="M22.0041 34.6924H20.4583V36.3078H22.0041V34.6924Z" fill="white"/>
        <path d="M20.4582 34.6924H18.9124V36.3078H20.4582V34.6924Z" fill="white"/>
        <path d="M22.0041 36.3076H20.4583V37.923H22.0041V36.3076Z" fill="white"/>
        <path d="M20.4582 36.3076H18.9124V37.923H20.4582V36.3076Z" fill="white"/>
        <path d="M22.0041 37.9229H20.4583V39.5382H22.0041V37.9229Z" fill="white"/>
        <path d="M20.4582 37.9229H18.9124V39.5382H20.4582V37.9229Z" fill="white"/>
        <path d="M22.0041 39.5386H20.4583V41.154H22.0041V39.5386Z" fill="white"/>
        <path d="M20.4582 39.5386H18.9124V41.154H20.4582V39.5386Z" fill="white"/>
        <path d="M22.0041 41.1538H20.4583V42.7692H22.0041V41.1538Z" fill="white"/>
        <path d="M20.4582 41.1538H18.9124V42.7692H20.4582V41.1538Z" fill="white"/>
        <path d="M25.0957 39.5386H23.5499V41.154H25.0957V39.5386Z" fill="white"/>
        <path d="M23.5499 39.5386H22.004V41.154H23.5499V39.5386Z" fill="white"/>
        <path d="M25.0957 41.1538H23.5499V42.7692H25.0957V41.1538Z" fill="white"/>
        <path d="M23.5499 41.1538H22.004V42.7692H23.5499V41.1538Z" fill="white"/>
        <path d="M14.2749 33.0771H12.7291V34.6925H14.2749V33.0771Z" fill="black"/>
        <path d="M20.4582 33.0771H18.9124V34.6925H20.4582V33.0771Z" fill="black"/>
        <path d="M25.0957 33.0771H23.5499V34.6925H25.0957V33.0771Z" fill="black"/>
        <path d="M26.6415 34.6924H25.0957V42.7693H26.6415V34.6924Z" fill="black"/>
        <path d="M25.0957 26.6152H23.5499V28.2306H25.0957V26.6152Z" fill="black"/>
        <path d="M42.0997 23.3848H28.1873V29.8463H42.0997V23.3848Z" fill="#F0C915"/>
        <path d="M26.6415 28.231H25.0957V29.8463H26.6415V28.231Z" fill="black"/>
        <path d="M42.0997 29.8462H28.1873V31.4616H42.0997V29.8462Z" fill="black"/>
        <path d="M28.1874 25H26.6415V31.4615H28.1874V25Z" fill="black"/>
        <path d="M28.1873 23.3848H22.004V25.0002H28.1873V23.3848Z" fill="black"/>
        <path d="M43.6456 5.61523H42.0997V7.23062H43.6456V5.61523Z" fill="black"/>
        <path d="M43.6456 7.23096H42.0997V31.4617H43.6456V7.23096Z" fill="black"/>
        <path d="M42.0998 5.61523H40.554V7.23062H42.0998V5.61523Z" fill="black"/>
        <path d="M29.7331 21.769H28.1873V29.846H29.7331V21.769Z" fill="#EEB81D"/>
        <path d="M31.279 28.231H29.7332V29.8463H31.279V28.231Z" fill="#EEB81D"/>
        <path d="M31.279 26.6152H29.7332V28.2306H31.279V26.6152Z" fill="#EEB81D"/>
        <path d="M32.8248 28.231H31.2789V29.8463H32.8248V28.231Z" fill="#EEB81D"/>
        <path d="M34.3707 28.231H32.8248V29.8463H34.3707V28.231Z" fill="#EEB81D"/>
        <path d="M35.9164 28.231H34.3706V29.8463H35.9164V28.231Z" fill="#EEB81D"/>
        <path d="M37.4623 28.231H35.9165V29.8463H37.4623V28.231Z" fill="#EEB81D"/>
        <path d="M39.0081 28.231H37.4623V29.8463H39.0081V28.231Z" fill="#EEB81D"/>
        <path d="M40.5539 28.231H39.0081V29.8463H40.5539V28.231Z" fill="#EEB81D"/>
        <path d="M42.0998 28.231H40.554V29.8463H42.0998V28.231Z" fill="#EEB81D"/>
        <path d="M32.8248 26.6152H31.2789V28.2306H32.8248V26.6152Z" fill="#EEB81D"/>
        <path d="M31.279 25H29.7332V26.6154H31.279V25Z" fill="#EEB81D"/>
    </g>
    <defs>
        <clipPath id="clip0_1998_747">
            <rect width="40.1914" height="42" fill="white" transform="translate(5 4)"/>
        </clipPath>
    </defs>
</svg>
