<svg width="50" height="50" viewBox="0 0 50 50" fill="none" xmlns="http://www.w3.org/2000/svg">
    <g clip-path="url(#clip0_2090_25164)">
        <path d="M37.25 39H35.5V40.75H37.25V39Z" fill="#2986FF"/>
        <path d="M11 37.25H9.25V39H11V37.25Z" fill="black"/>
        <path d="M11 39H9.25V40.75H11V39Z" fill="black"/>
        <path d="M7.5 40.75H5.75V42.5H7.5V40.75Z" fill="black"/>
        <path d="M9.25 40.75H7.5V42.5H9.25V40.75Z" fill="black"/>
        <path d="M9.25 42.5H7.5V44.25H9.25V42.5Z" fill="black"/>
        <path d="M11 42.5H9.25V44.25H11V42.5Z" fill="black"/>
        <path d="M12.75 42.5H11V44.25H12.75V42.5Z" fill="black"/>
        <path d="M14.5 42.5H12.75V44.25H14.5V42.5Z" fill="black"/>
        <path d="M16.25 42.5H14.5V44.25H16.25V42.5Z" fill="black"/>
        <path d="M18 42.5H16.25V44.25H18V42.5Z" fill="black"/>
        <path d="M19.75 42.5H18V44.25H19.75V42.5Z" fill="black"/>
        <path d="M21.5 42.5H19.75V44.25H21.5V42.5Z" fill="black"/>
        <path d="M23.25 42.5H21.5V44.25H23.25V42.5Z" fill="black"/>
        <path d="M25 42.5H23.25V44.25H25V42.5Z" fill="black"/>
        <path d="M26.75 42.5H25V44.25H26.75V42.5Z" fill="black"/>
        <path d="M28.5 42.5H26.75V44.25H28.5V42.5Z" fill="black"/>
        <path d="M30.25 42.5H28.5V44.25H30.25V42.5Z" fill="black"/>
        <path d="M32 42.5H30.25V44.25H32V42.5Z" fill="black"/>
        <path d="M33.75 42.5H32V44.25H33.75V42.5Z" fill="black"/>
        <path d="M35.5 42.5H33.75V44.25H35.5V42.5Z" fill="black"/>
        <path d="M37.25 42.5H35.5V44.25H37.25V42.5Z" fill="black"/>
        <path d="M39 42.5H37.25V44.25H39V42.5Z" fill="black"/>
        <path d="M40.75 42.5H39V44.25H40.75V42.5Z" fill="black"/>
        <path d="M42.5 42.5H40.75V44.25H42.5V42.5Z" fill="black"/>
        <path d="M11 40.75H9.25V42.5H11V40.75Z" fill="black"/>
        <path d="M12.75 40.75H11V42.5H12.75V40.75Z" fill="black"/>
        <path d="M14.5 40.75H12.75V42.5H14.5V40.75Z" fill="black"/>
        <path d="M16.25 40.75H14.5V42.5H16.25V40.75Z" fill="black"/>
        <path d="M18 40.75H16.25V42.5H18V40.75Z" fill="black"/>
        <path d="M19.75 40.75H18V42.5H19.75V40.75Z" fill="black"/>
        <path d="M21.5 40.75H19.75V42.5H21.5V40.75Z" fill="black"/>
        <path d="M23.25 40.75H21.5V42.5H23.25V40.75Z" fill="black"/>
        <path d="M25 40.75H23.25V42.5H25V40.75Z" fill="black"/>
        <path d="M26.75 40.75H25V42.5H26.75V40.75Z" fill="black"/>
        <path d="M28.5 40.75H26.75V42.5H28.5V40.75Z" fill="black"/>
        <path d="M30.25 40.75H28.5V42.5H30.25V40.75Z" fill="black"/>
        <path d="M32 40.75H30.25V42.5H32V40.75Z" fill="black"/>
        <path d="M33.75 40.75H32V42.5H33.75V40.75Z" fill="black"/>
        <path d="M35.5 40.75H33.75V42.5H35.5V40.75Z" fill="black"/>
        <path d="M37.25 40.75H35.5V42.5H37.25V40.75Z" fill="black"/>
        <path d="M39 40.75H37.25V42.5H39V40.75Z" fill="black"/>
        <path d="M40.75 40.75H39V42.5H40.75V40.75Z" fill="black"/>
        <path d="M42.5 40.75H40.75V42.5H42.5V40.75Z" fill="black"/>
        <path d="M44.25 40.75H42.5V42.5H44.25V40.75Z" fill="black"/>
        <path d="M11 35.5H9.25V37.25H11V35.5Z" fill="black"/>
        <path d="M11 33.75H9.25V35.5H11V33.75Z" fill="black"/>
        <path d="M11 32H9.25V33.75H11V32Z" fill="black"/>
        <path d="M11 30.25H9.25V32H11V30.25Z" fill="black"/>
        <path d="M11 28.5H9.25V30.25H11V28.5Z" fill="black"/>
        <path d="M11 26.75H9.25V28.5H11V26.75Z" fill="black"/>
        <path d="M11 25H9.25V26.75H11V25Z" fill="black"/>
        <path d="M11 23.25H9.25V25H11V23.25Z" fill="black"/>
        <path d="M12.75 37.25H11V39H12.75V37.25Z" fill="#2986FF"/>
        <path d="M12.75 39H11V40.75H12.75V39Z" fill="#2986FF"/>
        <path d="M12.75 35.5H11V37.25H12.75V35.5Z" fill="#2986FF"/>
        <path d="M12.75 33.75H11V35.5H12.75V33.75Z" fill="#2986FF"/>
        <path d="M12.75 32H11V33.75H12.75V32Z" fill="#2986FF"/>
        <path d="M12.75 30.25H11V32H12.75V30.25Z" fill="#2986FF"/>
        <path d="M12.75 28.5H11V30.25H12.75V28.5Z" fill="#2986FF"/>
        <path d="M12.75 26.75H11V28.5H12.75V26.75Z" fill="#2986FF"/>
        <path d="M12.75 25H11V26.75H12.75V25Z" fill="#2986FF"/>
        <path d="M12.75 23.25H11V25H12.75V23.25Z" fill="#2986FF"/>
        <path d="M14.5 37.25H12.75V39H14.5V37.25Z" fill="#45B3E9"/>
        <path d="M14.5 39H12.75V40.75H14.5V39Z" fill="#2986FF"/>
        <path d="M14.5 35.5H12.75V37.25H14.5V35.5Z" fill="#45B3E9"/>
        <path d="M14.5 33.75H12.75V35.5H14.5V33.75Z" fill="#45B3E9"/>
        <path d="M14.5 32H12.75V33.75H14.5V32Z" fill="#45B3E9"/>
        <path d="M14.5 30.25H12.75V32H14.5V30.25Z" fill="#45B3E9"/>
        <path d="M14.5 28.5H12.75V30.25H14.5V28.5Z" fill="#45B3E9"/>
        <path d="M14.5 26.75H12.75V28.5H14.5V26.75Z" fill="#45B3E9"/>
        <path d="M14.5 25H12.75V26.75H14.5V25Z" fill="#45B3E9"/>
        <path d="M14.5 23.25H12.75V25H14.5V23.25Z" fill="#2986FF"/>
        <path d="M16.25 37.25H14.5V39H16.25V37.25Z" fill="#45B3E9"/>
        <path d="M16.25 39H14.5V40.75H16.25V39Z" fill="#2986FF"/>
        <path d="M16.25 35.5H14.5V37.25H16.25V35.5Z" fill="#45B3E9"/>
        <path d="M16.25 33.75H14.5V35.5H16.25V33.75Z" fill="#45B3E9"/>
        <path d="M16.25 32H14.5V33.75H16.25V32Z" fill="#45B3E9"/>
        <path d="M16.25 30.25H14.5V32H16.25V30.25Z" fill="#45B3E9"/>
        <path d="M16.25 28.5H14.5V30.25H16.25V28.5Z" fill="#45B3E9"/>
        <path d="M16.25 26.75H14.5V28.5H16.25V26.75Z" fill="#45B3E9"/>
        <path d="M16.25 25H14.5V26.75H16.25V25Z" fill="#45B3E9"/>
        <path d="M16.25 23.25H14.5V25H16.25V23.25Z" fill="#2986FF"/>
        <path d="M18 37.25H16.25V39H18V37.25Z" fill="#45B3E9"/>
        <path d="M18 39H16.25V40.75H18V39Z" fill="#2986FF"/>
        <path d="M18 35.5H16.25V37.25H18V35.5Z" fill="#45B3E9"/>
        <path d="M18 33.75H16.25V35.5H18V33.75Z" fill="#45B3E9"/>
        <path d="M18 32H16.25V33.75H18V32Z" fill="#45B3E9"/>
        <path d="M18 30.25H16.25V32H18V30.25Z" fill="#45B3E9"/>
        <path d="M18 28.5H16.25V30.25H18V28.5Z" fill="#45B3E9"/>
        <path d="M18 26.75H16.25V28.5H18V26.75Z" fill="#45B3E9"/>
        <path d="M18 25H16.25V26.75H18V25Z" fill="#45B3E9"/>
        <path d="M18 23.25H16.25V25H18V23.25Z" fill="#2986FF"/>
        <path d="M19.75 37.25H18V39H19.75V37.25Z" fill="#98BA31"/>
        <path d="M19.75 39H18V40.75H19.75V39Z" fill="#98BA31"/>
        <path d="M19.75 35.5H18V37.25H19.75V35.5Z" fill="#45B3E9"/>
        <path d="M19.75 33.75H18V35.5H19.75V33.75Z" fill="#45B3E9"/>
        <path d="M19.75 32H18V33.75H19.75V32Z" fill="#45B3E9"/>
        <path d="M19.75 30.25H18V32H19.75V30.25Z" fill="#45B3E9"/>
        <path d="M19.75 28.5H18V30.25H19.75V28.5Z" fill="#45B3E9"/>
        <path d="M19.75 26.75H18V28.5H19.75V26.75Z" fill="#45B3E9"/>
        <path d="M19.75 25H18V26.75H19.75V25Z" fill="#45B3E9"/>
        <path d="M19.75 23.25H18V25H19.75V23.25Z" fill="#2986FF"/>
        <path d="M21.5 37.25H19.75V39H21.5V37.25Z" fill="#ADDD37"/>
        <path d="M21.5 39H19.75V40.75H21.5V39Z" fill="#98BA31"/>
        <path d="M21.5 35.5H19.75V37.25H21.5V35.5Z" fill="#98BA31"/>
        <path d="M21.5 33.75H19.75V35.5H21.5V33.75Z" fill="#45B3E9"/>
        <path d="M21.5 32H19.75V33.75H21.5V32Z" fill="#45B3E9"/>
        <path d="M21.5 30.25H19.75V32H21.5V30.25Z" fill="#666666"/>
        <path d="M21.5 28.5H19.75V30.25H21.5V28.5Z" fill="#333333"/>
        <path d="M21.5 26.75H19.75V28.5H21.5V26.75Z" fill="black"/>
        <path d="M12.75 19.75H11V21.5H12.75V19.75Z" fill="white"/>
        <path d="M11 21.5H9.25V23.25H11V21.5Z" fill="white"/>
        <path d="M9.25 23.25H7.5V25H9.25V23.25Z" fill="white"/>
        <path d="M9.25 25H7.5V26.75H9.25V25Z" fill="white"/>
        <path d="M9.25 26.75H7.5V28.5H9.25V26.75Z" fill="white"/>
        <path d="M9.25 28.5H7.5V30.25H9.25V28.5Z" fill="white"/>
        <path d="M9.25 30.25H7.5V32H9.25V30.25Z" fill="white"/>
        <path d="M9.25 32H7.5V33.75H9.25V32Z" fill="white"/>
        <path d="M9.25 33.75H7.5V35.5H9.25V33.75Z" fill="white"/>
        <path d="M9.25 35.5H7.5V37.25H9.25V35.5Z" fill="white"/>
        <path d="M9.25 37.25H7.5V39H9.25V37.25Z" fill="white"/>
        <path d="M9.25 39H7.5V40.75H9.25V39Z" fill="white"/>
        <path d="M7.5 39H5.75V40.75H7.5V39Z" fill="white"/>
        <path d="M5.75 39H4V40.75H5.75V39Z" fill="white"/>
        <path d="M5.75 40.75H4V42.5H5.75V40.75Z" fill="white"/>
        <path d="M5.75 42.5H4V44.25H5.75V42.5Z" fill="white"/>
        <path d="M7.5 42.5H5.75V44.25H7.5V42.5Z" fill="white"/>
        <path d="M7.5 44.25H5.75V46H7.5V44.25Z" fill="white"/>
        <path d="M9.25 44.25H7.5V46H9.25V44.25Z" fill="white"/>
        <path d="M11 44.25H9.25V46H11V44.25Z" fill="white"/>
        <path d="M12.75 44.25H11V46H12.75V44.25Z" fill="white"/>
        <path d="M14.5 44.25H12.75V46H14.5V44.25Z" fill="white"/>
        <path d="M16.25 44.25H14.5V46H16.25V44.25Z" fill="white"/>
        <path d="M18 44.25H16.25V46H18V44.25Z" fill="white"/>
        <path d="M19.75 44.25H18V46H19.75V44.25Z" fill="white"/>
        <path d="M21.5 44.25H19.75V46H21.5V44.25Z" fill="white"/>
        <path d="M23.25 44.25H21.5V46H23.25V44.25Z" fill="white"/>
        <path d="M25 44.25H23.25V46H25V44.25Z" fill="white"/>
        <path d="M26.75 44.25H25V46H26.75V44.25Z" fill="white"/>
        <path d="M28.5 44.25H26.75V46H28.5V44.25Z" fill="white"/>
        <path d="M30.25 44.25H28.5V46H30.25V44.25Z" fill="white"/>
        <path d="M32 44.25H30.25V46H32V44.25Z" fill="white"/>
        <path d="M33.75 44.25H32V46H33.75V44.25Z" fill="white"/>
        <path d="M35.5 44.25H33.75V46H35.5V44.25Z" fill="white"/>
        <path d="M37.25 44.25H35.5V46H37.25V44.25Z" fill="white"/>
        <path d="M39 44.25H37.25V46H39V44.25Z" fill="white"/>
        <path d="M40.75 44.25H39V46H40.75V44.25Z" fill="white"/>
        <path d="M42.5 44.25H40.75V46H42.5V44.25Z" fill="white"/>
        <path d="M44.25 44.25H42.5V46H44.25V44.25Z" fill="white"/>
        <path d="M44.25 42.5H42.5V44.25H44.25V42.5Z" fill="white"/>
        <path d="M46 42.5H44.25V44.25H46V42.5Z" fill="white"/>
        <path d="M46 40.75H44.25V42.5H46V40.75Z" fill="white"/>
        <path d="M46 39H44.25V40.75H46V39Z" fill="white"/>
        <path d="M44.25 39H42.5V40.75H44.25V39Z" fill="white"/>
        <path d="M42.5 39H40.75V40.75H42.5V39Z" fill="white"/>
        <path d="M42.5 37.25H40.75V39H42.5V37.25Z" fill="white"/>
        <path d="M42.5 35.5H40.75V37.25H42.5V35.5Z" fill="white"/>
        <path d="M42.5 33.75H40.75V35.5H42.5V33.75Z" fill="white"/>
        <path d="M42.5 32H40.75V33.75H42.5V32Z" fill="white"/>
        <path d="M42.5 30.25H40.75V32H42.5V30.25Z" fill="white"/>
        <path d="M42.5 28.5H40.75V30.25H42.5V28.5Z" fill="white"/>
        <path d="M42.5 26.75H40.75V28.5H42.5V26.75Z" fill="white"/>
        <path d="M42.5 25H40.75V26.75H42.5V25Z" fill="white"/>
        <path d="M42.5 23.25H40.75V25H42.5V23.25Z" fill="white"/>
        <path d="M40.75 21.5H39V23.25H40.75V21.5Z" fill="white"/>
        <path d="M39 19.75H37.25V21.5H39V19.75Z" fill="white"/>
        <path d="M37.25 18H35.5V19.75H37.25V18Z" fill="white"/>
        <path d="M35.5 18H33.75V19.75H35.5V18Z" fill="white"/>
        <path d="M33.75 18H32V19.75H33.75V18Z" fill="white"/>
        <path d="M32 18H30.25V19.75H32V18Z" fill="white"/>
        <path d="M30.25 18H28.5V19.75H30.25V18Z" fill="white"/>
        <path d="M28.5 18H26.75V19.75H28.5V18Z" fill="white"/>
        <path d="M26.75 18H25V19.75H26.75V18Z" fill="white"/>
        <path d="M25 18H23.25V19.75H25V18Z" fill="white"/>
        <path d="M23.25 18H21.5V19.75H23.25V18Z" fill="white"/>
        <path d="M21.5 18H19.75V19.75H21.5V18Z" fill="white"/>
        <path d="M19.75 18H18V19.75H19.75V18Z" fill="white"/>
        <path d="M18 18H16.25V19.75H18V18Z" fill="white"/>
        <path d="M16.25 18H14.5V19.75H16.25V18Z" fill="white"/>
        <path d="M14.5 18H12.75V19.75H14.5V18Z" fill="white"/>
        <path d="M21.5 25H19.75V26.75H21.5V25Z" fill="#45B3E9"/>
        <path d="M21.5 23.25H19.75V25H21.5V23.25Z" fill="#2986FF"/>
        <path d="M23.25 37.25H21.5V39H23.25V37.25Z" fill="#ADDD37"/>
        <path d="M23.25 39H21.5V40.75H23.25V39Z" fill="#98BA31"/>
        <path d="M23.25 35.5H21.5V37.25H23.25V35.5Z" fill="#ADDD37"/>
        <path d="M23.25 33.75H21.5V35.5H23.25V33.75Z" fill="#98BA31"/>
        <path d="M23.25 32H21.5V33.75H23.25V32Z" fill="#666666"/>
        <path d="M23.25 30.25H21.5V32H23.25V30.25Z" fill="#FF9605"/>
        <path d="M23.25 28.5H21.5V30.25H23.25V28.5Z" fill="black"/>
        <path d="M23.25 26.75H21.5V28.5H23.25V26.75Z" fill="#FFC522"/>
        <path d="M23.25 25H21.5V26.75H23.25V25Z" fill="black"/>
        <path d="M23.25 23.25H21.5V25H23.25V23.25Z" fill="#2986FF"/>
        <path d="M25 37.25H23.25V39H25V37.25Z" fill="#ADDD37"/>
        <path d="M25 39H23.25V40.75H25V39Z" fill="#98BA31"/>
        <path d="M25 35.5H23.25V37.25H25V35.5Z" fill="#ADDD37"/>
        <path d="M25 33.75H23.25V35.5H25V33.75Z" fill="#98BA31"/>
        <path d="M25 32H23.25V33.75H25V32Z" fill="#333333"/>
        <path d="M25 30.25H23.25V32H25V30.25Z" fill="#ED1C24"/>
        <path d="M25 28.5H23.25V30.25H25V28.5Z" fill="#FFC522"/>
        <path d="M25 26.75H23.25V28.5H25V26.75Z" fill="#FFC522"/>
        <path d="M25 25H23.25V26.75H25V25Z" fill="black"/>
        <path d="M25 23.25H23.25V25H25V23.25Z" fill="#2986FF"/>
        <path d="M26.75 37.25H25V39H26.75V37.25Z" fill="#ADDD37"/>
        <path d="M26.75 39H25V40.75H26.75V39Z" fill="#98BA31"/>
        <path d="M26.75 35.5H25V37.25H26.75V35.5Z" fill="#ADDD37"/>
        <path d="M26.75 33.75H25V35.5H26.75V33.75Z" fill="#98BA31"/>
        <path d="M26.75 32H25V33.75H26.75V32Z" fill="#FF9605"/>
        <path d="M26.75 30.25H25V32H26.75V30.25Z" fill="#ED1C24"/>
        <path d="M26.75 28.5H25V30.25H26.75V28.5Z" fill="#FFC522"/>
        <path d="M26.75 26.75H25V28.5H26.75V26.75Z" fill="#FFC522"/>
        <path d="M26.75 25H25V26.75H26.75V25Z" fill="black"/>
        <path d="M26.75 23.25H25V25H26.75V23.25Z" fill="#2986FF"/>
        <path d="M28.5 37.25H26.75V39H28.5V37.25Z" fill="#ADDD37"/>
        <path d="M28.5 39H26.75V40.75H28.5V39Z" fill="#98BA31"/>
        <path d="M28.5 35.5H26.75V37.25H28.5V35.5Z" fill="#ADDD37"/>
        <path d="M28.5 33.75H26.75V35.5H28.5V33.75Z" fill="#98BA31"/>
        <path d="M28.5 32H26.75V33.75H28.5V32Z" fill="#FF9605"/>
        <path d="M28.5 30.25H26.75V32H28.5V30.25Z" fill="#FF9605"/>
        <path d="M28.5 28.5H26.75V30.25H28.5V28.5Z" fill="black"/>
        <path d="M28.5 26.75H26.75V28.5H28.5V26.75Z" fill="#FFC522"/>
        <path d="M28.5 25H26.75V26.75H28.5V25Z" fill="black"/>
        <path d="M28.5 23.25H26.75V25H28.5V23.25Z" fill="#2986FF"/>
        <path d="M30.25 37.25H28.5V39H30.25V37.25Z" fill="#ADDD37"/>
        <path d="M30.25 39H28.5V40.75H30.25V39Z" fill="#98BA31"/>
        <path d="M30.25 35.5H28.5V37.25H30.25V35.5Z" fill="#D1FF43"/>
        <path d="M30.25 33.75H28.5V35.5H30.25V33.75Z" fill="#45B3E9"/>
        <path d="M30.25 32H28.5V33.75H30.25V32Z" fill="#45B3E9"/>
        <path d="M30.25 30.25H28.5V32H30.25V30.25Z" fill="#666666"/>
        <path d="M30.25 28.5H28.5V30.25H30.25V28.5Z" fill="#333333"/>
        <path d="M30.25 26.75H28.5V28.5H30.25V26.75Z" fill="black"/>
        <path d="M30.25 25H28.5V26.75H30.25V25Z" fill="#45B3E9"/>
        <path d="M30.25 23.25H28.5V25H30.25V23.25Z" fill="#2986FF"/>
        <path d="M32 37.25H30.25V39H32V37.25Z" fill="#D1FF43"/>
        <path d="M32 39H30.25V40.75H32V39Z" fill="#98BA31"/>
        <path d="M32 35.5H30.25V37.25H32V35.5Z" fill="#45B3E9"/>
        <path d="M32 33.75H30.25V35.5H32V33.75Z" fill="#45B3E9"/>
        <path d="M32 32H30.25V33.75H32V32Z" fill="#45B3E9"/>
        <path d="M32 30.25H30.25V32H32V30.25Z" fill="#45B3E9"/>
        <path d="M32 28.5H30.25V30.25H32V28.5Z" fill="#45B3E9"/>
        <path d="M32 26.75H30.25V28.5H32V26.75Z" fill="#45B3E9"/>
        <path d="M32 25H30.25V26.75H32V25Z" fill="#45B3E9"/>
        <path d="M32 23.25H30.25V25H32V23.25Z" fill="#2986FF"/>
        <path d="M33.75 37.25H32V39H33.75V37.25Z" fill="#45B3E9"/>
        <path d="M33.75 39H32V40.75H33.75V39Z" fill="#2986FF"/>
        <path d="M33.75 35.5H32V37.25H33.75V35.5Z" fill="#45B3E9"/>
        <path d="M33.75 33.75H32V35.5H33.75V33.75Z" fill="#45B3E9"/>
        <path d="M33.75 32H32V33.75H33.75V32Z" fill="#45B3E9"/>
        <path d="M33.75 30.25H32V32H33.75V30.25Z" fill="#45B3E9"/>
        <path d="M33.75 28.5H32V30.25H33.75V28.5Z" fill="#45B3E9"/>
        <path d="M33.75 26.75H32V28.5H33.75V26.75Z" fill="#45B3E9"/>
        <path d="M33.75 25H32V26.75H33.75V25Z" fill="#45B3E9"/>
        <path d="M33.75 23.25H32V25H33.75V23.25Z" fill="#2986FF"/>
        <path d="M35.5 37.25H33.75V39H35.5V37.25Z" fill="#45B3E9"/>
        <path d="M35.5 39H33.75V40.75H35.5V39Z" fill="#2986FF"/>
        <path d="M35.5 35.5H33.75V37.25H35.5V35.5Z" fill="#45B3E9"/>
        <path d="M35.5 33.75H33.75V35.5H35.5V33.75Z" fill="#45B3E9"/>
        <path d="M35.5 32H33.75V33.75H35.5V32Z" fill="#45B3E9"/>
        <path d="M35.5 30.25H33.75V32H35.5V30.25Z" fill="#45B3E9"/>
        <path d="M35.5 28.5H33.75V30.25H35.5V28.5Z" fill="#45B3E9"/>
        <path d="M35.5 26.75H33.75V28.5H35.5V26.75Z" fill="#45B3E9"/>
        <path d="M35.5 25H33.75V26.75H35.5V25Z" fill="#45B3E9"/>
        <path d="M35.5 23.25H33.75V25H35.5V23.25Z" fill="#2986FF"/>
        <path d="M37.25 37.25H35.5V39H37.25V37.25Z" fill="#45B3E9"/>
        <path d="M37.25 35.5H35.5V37.25H37.25V35.5Z" fill="#45B3E9"/>
        <path d="M37.25 33.75H35.5V35.5H37.25V33.75Z" fill="#45B3E9"/>
        <path d="M37.25 32H35.5V33.75H37.25V32Z" fill="#45B3E9"/>
        <path d="M37.25 30.25H35.5V32H37.25V30.25Z" fill="#45B3E9"/>
        <path d="M37.25 28.5H35.5V30.25H37.25V28.5Z" fill="#45B3E9"/>
        <path d="M37.25 26.75H35.5V28.5H37.25V26.75Z" fill="#45B3E9"/>
        <path d="M37.25 25H35.5V26.75H37.25V25Z" fill="#45B3E9"/>
        <path d="M37.25 23.25H35.5V25H37.25V23.25Z" fill="#2986FF"/>
        <path d="M39 37.25H37.25V39H39V37.25Z" fill="#2986FF"/>
        <path d="M39 39H37.25V40.75H39V39Z" fill="#2986FF"/>
        <path d="M39 35.5H37.25V37.25H39V35.5Z" fill="#2986FF"/>
        <path d="M39 33.75H37.25V35.5H39V33.75Z" fill="#2986FF"/>
        <path d="M39 32H37.25V33.75H39V32Z" fill="#2986FF"/>
        <path d="M39 30.25H37.25V32H39V30.25Z" fill="#2986FF"/>
        <path d="M39 28.5H37.25V30.25H39V28.5Z" fill="#2986FF"/>
        <path d="M39 26.75H37.25V28.5H39V26.75Z" fill="#2986FF"/>
        <path d="M39 25H37.25V26.75H39V25Z" fill="#2986FF"/>
        <path d="M39 23.25H37.25V25H39V23.25Z" fill="#2986FF"/>
        <path d="M12.75 21.5H11V23.25H12.75V21.5Z" fill="black"/>
        <path d="M14.5 21.5H12.75V23.25H14.5V21.5Z" fill="black"/>
        <path d="M16.25 21.5H14.5V23.25H16.25V21.5Z" fill="black"/>
        <path d="M18 21.5H16.25V23.25H18V21.5Z" fill="black"/>
        <path d="M19.75 21.5H18V23.25H19.75V21.5Z" fill="black"/>
        <path d="M21.5 21.5H19.75V23.25H21.5V21.5Z" fill="black"/>
        <path d="M23.25 21.5H21.5V23.25H23.25V21.5Z" fill="black"/>
        <path d="M25 21.5H23.25V23.25H25V21.5Z" fill="#333333"/>
        <path d="M26.75 21.5H25V23.25H26.75V21.5Z" fill="#1A1A1A"/>
        <path d="M28.5 21.5H26.75V23.25H28.5V21.5Z" fill="black"/>
        <path d="M30.25 21.5H28.5V23.25H30.25V21.5Z" fill="black"/>
        <path d="M32 21.5H30.25V23.25H32V21.5Z" fill="black"/>
        <path d="M33.75 21.5H32V23.25H33.75V21.5Z" fill="black"/>
        <path d="M35.5 21.5H33.75V23.25H35.5V21.5Z" fill="black"/>
        <path d="M37.25 21.5H35.5V23.25H37.25V21.5Z" fill="black"/>
        <path d="M14.5 19.75H12.75V21.5H14.5V19.75Z" fill="black"/>
        <path d="M16.25 19.75H14.5V21.5H16.25V19.75Z" fill="black"/>
        <path d="M18 19.75H16.25V21.5H18V19.75Z" fill="black"/>
        <path d="M19.75 19.75H18V21.5H19.75V19.75Z" fill="black"/>
        <path d="M21.5 19.75H19.75V21.5H21.5V19.75Z" fill="black"/>
        <path d="M23.25 19.75H21.5V21.5H23.25V19.75Z" fill="black"/>
        <path d="M25 19.75H23.25V21.5H25V19.75Z" fill="black"/>
        <path d="M26.75 19.75H25V21.5H26.75V19.75Z" fill="black"/>
        <path d="M28.5 19.75H26.75V21.5H28.5V19.75Z" fill="black"/>
        <path d="M30.25 19.75H28.5V21.5H30.25V19.75Z" fill="black"/>
        <path d="M32 19.75H30.25V21.5H32V19.75Z" fill="black"/>
        <path d="M33.75 19.75H32V21.5H33.75V19.75Z" fill="black"/>
        <path d="M35.5 19.75H33.75V21.5H35.5V19.75Z" fill="black"/>
        <path d="M37.25 19.75H35.5V21.5H37.25V19.75Z" fill="black"/>
        <path d="M39 21.5H37.25V23.25H39V21.5Z" fill="black"/>
        <path d="M40.75 23.25H39V25H40.75V23.25Z" fill="black"/>
        <path d="M40.75 25H39V26.75H40.75V25Z" fill="black"/>
        <path d="M40.75 26.75H39V28.5H40.75V26.75Z" fill="black"/>
        <path d="M40.75 28.5H39V30.25H40.75V28.5Z" fill="black"/>
        <path d="M40.75 30.25H39V32H40.75V30.25Z" fill="black"/>
        <path d="M40.75 32H39V33.75H40.75V32Z" fill="black"/>
        <path d="M40.75 33.75H39V35.5H40.75V33.75Z" fill="black"/>
        <path d="M40.75 35.5H39V37.25H40.75V35.5Z" fill="black"/>
        <path d="M40.75 37.25H39V39H40.75V37.25Z" fill="black"/>
        <path d="M40.75 39H39V40.75H40.75V39Z" fill="black"/>
        <path d="M7.5 5.75H5.75V7.5H7.5V5.75Z" fill="white"/>
        <path d="M25 5.75H23.25V7.5H25V5.75Z" fill="white"/>
        <path d="M23.2499 4H7.49902V5.75H23.2499V4Z" fill="white"/>
        <path d="M7.5 7.5H5.75V21.5H7.5V7.5Z" fill="black"/>
        <path d="M23.25 5.75H7.5V7.5H23.25V5.75Z" fill="black"/>
        <path d="M10.999 21.5H7.49902V23.25H10.999V21.5Z" fill="black"/>
        <path d="M11 23.25H9.25V25H11V23.25Z" fill="black"/>
        <path d="M11 25H9.25V26.75H11V25Z" fill="black"/>
        <path d="M12.75 25H11V26.75H12.75V25Z" fill="black"/>
        <path d="M14.5 23.25H12.75V25H14.5V23.25Z" fill="black"/>
        <path d="M23.25 21.5H14.5V23.25H23.25V21.5Z" fill="black"/>
        <path d="M25 7.5H23.25V21.5H25V7.5Z" fill="black"/>
        <path d="M7.5 7.5V21.5H11V23.25V25H12.75V23.25H14.5V21.5H23.25V7.5H7.5Z" fill="white"/>
        <path d="M9.25 19.75H7.5V21.5H9.25V19.75Z" fill="#CCCCCC"/>
        <path d="M11 19.75H9.25V21.5H11V19.75Z" fill="#CCCCCC"/>
        <path d="M11 18H9.25V19.75H11V18Z" fill="#E6E6E6"/>
        <path d="M9.25 18H7.5V19.75H9.25V18Z" fill="#CCCCCC"/>
        <path d="M9.25 16.25H7.5V18H9.25V16.25Z" fill="#CCCCCC"/>
        <path d="M9.25 14.5H7.5V16.25H9.25V14.5Z" fill="#E6E6E6"/>
        <path d="M9.25 12.75H7.5V14.5H9.25V12.75Z" fill="#E6E6E6"/>
        <path d="M9.25 11H7.5V12.75H9.25V11Z" fill="#F2F2F2"/>
        <path d="M9.25 9.25H7.5V11H9.25V9.25Z" fill="#F2F2F2"/>
        <path d="M9.25 7.5H7.5V9.25H9.25V7.5Z" fill="#F2F2F2"/>
        <path d="M12.75 19.75H11V21.5H12.75V19.75Z" fill="#E6E6E6"/>
        <path d="M12.75 21.5H11V23.25H12.75V21.5Z" fill="#CCCCCC"/>
        <path d="M14.5 21.5H12.75V23.25H14.5V21.5Z" fill="#E6E6E6"/>
        <path d="M12.75 23.25H11V25H12.75V23.25Z" fill="#CCCCCC"/>
        <path d="M26.75 7.5H25V18H26.75V7.5Z" fill="white"/>
        <path d="M5.75 7.5H4V21.5H5.75V7.5Z" fill="white"/>
        <path d="M7.5 21.5H5.75V23.25H7.5V21.5Z" fill="white"/>
        <path d="M14.5 9.25H12.75V11H14.5V9.25Z" fill="black"/>
        <path d="M16.25 9.25H14.5V11H16.25V9.25Z" fill="black"/>
        <path d="M18 9.25H16.25V11H18V9.25Z" fill="black"/>
        <path d="M19.75 11H18V12.75H19.75V11Z" fill="black"/>
        <path d="M18 12.75H16.25V14.5H18V12.75Z" fill="black"/>
        <path d="M16.25 12.75H14.5V14.5H16.25V12.75Z" fill="black"/>
        <path d="M16.25 14.5H14.5V16.25H16.25V14.5Z" fill="black"/>
        <path d="M16.25 18H14.5V19.75H16.25V18Z" fill="black"/>
        <path d="M12.75 11H11V12.75H12.75V11Z" fill="black"/>
    </g>
    <defs>
        <clipPath id="clip0_2090_25164">
            <rect width="42" height="42" fill="white" transform="translate(4 4)"/>
        </clipPath>
    </defs>
</svg>
