<svg width="60" height="60" viewBox="0 0 60 60" fill="none" xmlns="http://www.w3.org/2000/svg">
    <path d="M32 6H30V7.98864H32V6Z" fill="white"/>
    <path d="M34.0003 6H32.0002V7.98864H34.0003V6Z" fill="white"/>
    <path d="M30 7.98975H28V9.97839H30V7.98975Z" fill="white"/>
    <path d="M32 7.98975H30V9.97839H32V7.98975Z" fill="black"/>
    <path d="M34.0003 7.98975H32.0002V9.97839H34.0003V7.98975Z" fill="black"/>
    <path d="M36.0005 7.98975H34.0005V9.97839H36.0005V7.98975Z" fill="white"/>
    <path d="M38.0007 7.98975H36.0007V9.97839H38.0007V7.98975Z" fill="white"/>
    <path d="M27.9998 9.97656H25.9998V11.9652H27.9998V9.97656Z" fill="white"/>
    <path d="M30 9.97656H28V11.9652H30V9.97656Z" fill="black"/>
    <path d="M32 9.97656H30V11.9652H32V9.97656Z" fill="#333333"/>
    <path d="M34.0003 9.97656H32.0002V11.9652H34.0003V9.97656Z" fill="#333333"/>
    <path d="M36.0005 9.97656H34.0005V11.9652H36.0005V9.97656Z" fill="black"/>
    <path d="M38.0007 9.97656H36.0007V11.9652H38.0007V9.97656Z" fill="black"/>
    <path d="M39.9995 9.97656H37.9995V11.9652H39.9995V9.97656Z" fill="white"/>
    <path d="M41.9998 9.97656H39.9998V11.9652H41.9998V9.97656Z" fill="white"/>
    <path d="M25.9995 11.9658H23.9995V13.9545H25.9995V11.9658Z" fill="white"/>
    <path d="M27.9998 11.9658H25.9998V13.9545H27.9998V11.9658Z" fill="black"/>
    <path d="M30 11.9658H28V13.9545H30V11.9658Z" fill="#333333"/>
    <path d="M32 11.9658H30V13.9545H32V11.9658Z" fill="#1A1A1A"/>
    <path d="M34.0003 11.9658H32.0002V13.9545H34.0003V11.9658Z" fill="#1A1A1A"/>
    <path d="M36.0005 11.9658H34.0005V13.9545H36.0005V11.9658Z" fill="#333333"/>
    <path d="M38.0007 11.9658H36.0007V13.9545H38.0007V11.9658Z" fill="#333333"/>
    <path d="M39.9995 11.9658H37.9995V13.9545H39.9995V11.9658Z" fill="black"/>
    <path d="M41.9998 11.9658H39.9998V13.9545H41.9998V11.9658Z" fill="black"/>
    <path d="M43.9998 11.9658H41.9998V13.9545H43.9998V11.9658Z" fill="white"/>
    <path d="M46 11.9658H44V13.9545H46V11.9658Z" fill="white"/>
    <path d="M25.9995 13.9556H23.9995V15.9442H25.9995V13.9556Z" fill="white"/>
    <path d="M27.9998 13.9556H25.9998V15.9442H27.9998V13.9556Z" fill="black"/>
    <path d="M30 13.9556H28V15.9442H30V13.9556Z" fill="#333333"/>
    <path d="M32 13.9556H30V15.9442H32V13.9556Z" fill="#1A1A1A"/>
    <path d="M34.0003 13.9556H32.0002V15.9442H34.0003V13.9556Z" fill="#4D4D4D"/>
    <path d="M36.0005 13.9556H34.0005V15.9442H36.0005V13.9556Z" fill="#1A1A1A"/>
    <path d="M38.0007 13.9556H36.0007V15.9442H38.0007V13.9556Z" fill="#1A1A1A"/>
    <path d="M39.9995 13.9556H37.9995V15.9442H39.9995V13.9556Z" fill="#333333"/>
    <path d="M41.9998 13.9556H39.9998V15.9442H41.9998V13.9556Z" fill="#333333"/>
    <path d="M43.9998 13.9556H41.9998V15.9442H43.9998V13.9556Z" fill="black"/>
    <path d="M46 13.9556H44V15.9442H46V13.9556Z" fill="black"/>
    <path d="M48.0003 13.9556H46.0002V15.9442H48.0003V13.9556Z" fill="white"/>
    <path d="M50.0005 13.9556H48.0005V15.9442H50.0005V13.9556Z" fill="white"/>
    <path d="M24.0007 15.9424H22.0007V17.931H24.0007V15.9424Z" fill="white"/>
    <path d="M25.9995 15.9424H23.9995V17.931H25.9995V15.9424Z" fill="black"/>
    <path d="M27.9998 15.9424H25.9998V17.931H27.9998V15.9424Z" fill="#333333"/>
    <path d="M30 15.9424H28V17.931H30V15.9424Z" fill="#1A1A1A"/>
    <path d="M32 15.9424H30V17.931H32V15.9424Z" fill="#4D4D4D"/>
    <path d="M34.0003 15.9424H32.0002V17.931H34.0003V15.9424Z" fill="#4D4D4D"/>
    <path d="M36.0005 15.9424H34.0005V17.931H36.0005V15.9424Z" fill="#4D4D4D"/>
    <path d="M38.0007 15.9424H36.0007V17.931H38.0007V15.9424Z" fill="#4D4D4D"/>
    <path d="M39.9995 15.9424H37.9995V17.931H39.9995V15.9424Z" fill="#1A1A1A"/>
    <path d="M41.9998 15.9424H39.9998V17.931H41.9998V15.9424Z" fill="#1A1A1A"/>
    <path d="M43.9998 15.9424H41.9998V17.931H43.9998V15.9424Z" fill="#333333"/>
    <path d="M46 15.9424H44V17.931H46V15.9424Z" fill="#333333"/>
    <path d="M48.0003 15.9424H46.0002V17.931H48.0003V15.9424Z" fill="black"/>
    <path d="M50.0005 15.9424H48.0005V17.931H50.0005V15.9424Z" fill="black"/>
    <path d="M52.0005 15.9424H50.0005V17.931H52.0005V15.9424Z" fill="white"/>
    <path d="M54.0007 15.9424H52.0007V17.931H54.0007V15.9424Z" fill="white"/>
    <path d="M24.0007 17.9316H22.0007V19.9203H24.0007V17.9316Z" fill="white"/>
    <path d="M25.9995 17.9316H23.9995V19.9203H25.9995V17.9316Z" fill="black"/>
    <path d="M27.9998 17.9316H25.9998V19.9203H27.9998V17.9316Z" fill="#333333"/>
    <path d="M30 17.9316H28V19.9203H30V17.9316Z" fill="#1A1A1A"/>
    <path d="M32 17.9316H30V19.9203H32V17.9316Z" fill="#4D4D4D"/>
    <path d="M34.0003 17.9316H32.0002V19.9203H34.0003V17.9316Z" fill="#4D4D4D"/>
    <path d="M36.0005 17.9316H34.0005V19.9203H36.0005V17.9316Z" fill="#4D4D4D"/>
    <path d="M38.0007 17.9316H36.0007V19.9203H38.0007V17.9316Z" fill="#4D4D4D"/>
    <path d="M39.9995 17.9316H37.9995V19.9203H39.9995V17.9316Z" fill="#4D4D4D"/>
    <path d="M41.9998 17.9316H39.9998V19.9203H41.9998V17.9316Z" fill="#4D4D4D"/>
    <path d="M43.9998 17.9316H41.9998V19.9203H43.9998V17.9316Z" fill="#1A1A1A"/>
    <path d="M46 17.9316H44V19.9203H46V17.9316Z" fill="#1A1A1A"/>
    <path d="M48.0003 17.9316H46.0002V19.9203H48.0003V17.9316Z" fill="#333333"/>
    <path d="M50.0005 17.9316H48.0005V19.9203H50.0005V17.9316Z" fill="#4D4D4D"/>
    <path d="M52.0005 17.9316H50.0005V19.9203H52.0005V17.9316Z" fill="black"/>
    <path d="M54.0007 17.9316H52.0007V19.9203H54.0007V17.9316Z" fill="black"/>
    <path d="M55.9995 17.9316H53.9995V19.9203H55.9995V17.9316Z" fill="white"/>
    <path d="M22.0005 19.9214H20.0005V21.91H22.0005V19.9214Z" fill="white"/>
    <path d="M24.0007 19.9214H22.0007V21.91H24.0007V19.9214Z" fill="black"/>
    <path d="M25.9995 19.9214H23.9995V21.91H25.9995V19.9214Z" fill="#333333"/>
    <path d="M27.9998 19.9214H25.9998V21.91H27.9998V19.9214Z" fill="#1A1A1A"/>
    <path d="M30 19.9214H28V21.91H30V19.9214Z" fill="#4D4D4D"/>
    <path d="M32 19.9214H30V21.91H32V19.9214Z" fill="#4D4D4D"/>
    <path d="M34.0003 19.9214H32.0002V21.91H34.0003V19.9214Z" fill="#4D4D4D"/>
    <path d="M36.0005 19.9214H34.0005V21.91H36.0005V19.9214Z" fill="#4D4D4D"/>
    <path d="M38.0007 19.9214H36.0007V21.91H38.0007V19.9214Z" fill="#4D4D4D"/>
    <path d="M39.9995 19.9214H37.9995V21.91H39.9995V19.9214Z" fill="#4D4D4D"/>
    <path d="M41.9998 19.9214H39.9998V21.91H41.9998V19.9214Z" fill="#4D4D4D"/>
    <path d="M43.9998 19.9214H41.9998V21.91H43.9998V19.9214Z" fill="#4D4D4D"/>
    <path d="M46 19.9214H44V21.91H46V19.9214Z" fill="#4D4D4D"/>
    <path d="M48.0003 19.9214H46.0002V21.91H48.0003V19.9214Z" fill="#1A1A1A"/>
    <path d="M50.0005 19.9214H48.0005V21.91H50.0005V19.9214Z" fill="#333333"/>
    <path d="M52.0005 19.9214H50.0005V21.91H52.0005V19.9214Z" fill="#666666"/>
    <path d="M54.0007 19.9214H52.0007V21.91H54.0007V19.9214Z" fill="#333333"/>
    <path d="M55.9995 19.9214H53.9995V21.91H55.9995V19.9214Z" fill="black"/>
    <path d="M57.9998 19.9214H55.9998V21.91H57.9998V19.9214Z" fill="white"/>
    <path d="M22.0005 21.9082H20.0005V23.8968H22.0005V21.9082Z" fill="white"/>
    <path d="M24.0007 21.9082H22.0007V23.8968H24.0007V21.9082Z" fill="black"/>
    <path d="M25.9995 21.9082H23.9995V23.8968H25.9995V21.9082Z" fill="#333333"/>
    <path d="M27.9998 21.9082H25.9998V23.8968H27.9998V21.9082Z" fill="#1A1A1A"/>
    <path d="M30 21.9082H28V23.8968H30V21.9082Z" fill="#4D4D4D"/>
    <path d="M32 21.9082H30V23.8968H32V21.9082Z" fill="#4D4D4D"/>
    <path d="M34.0003 21.9082H32.0002V23.8968H34.0003V21.9082Z" fill="#4D4D4D"/>
    <path d="M36.0005 21.9082H34.0005V23.8968H36.0005V21.9082Z" fill="#4D4D4D"/>
    <path d="M38.0007 21.9082H36.0007V23.8968H38.0007V21.9082Z" fill="#4D4D4D"/>
    <path d="M39.9995 21.9082H37.9995V23.8968H39.9995V21.9082Z" fill="#4D4D4D"/>
    <path d="M41.9998 21.9082H39.9998V23.8968H41.9998V21.9082Z" fill="#4D4D4D"/>
    <path d="M43.9998 21.9082H41.9998V23.8968H43.9998V21.9082Z" fill="#4D4D4D"/>
    <path d="M46 21.9082H44V23.8968H46V21.9082Z" fill="#4D4D4D"/>
    <path d="M48.0003 21.9082H46.0002V23.8968H48.0003V21.9082Z" fill="#666666"/>
    <path d="M50.0005 21.9082H48.0005V23.8968H50.0005V21.9082Z" fill="#808080"/>
    <path d="M52.0005 21.9082H50.0005V23.8968H52.0005V21.9082Z" fill="#4D4D4D"/>
    <path d="M54.0007 21.9082H52.0007V23.8968H54.0007V21.9082Z" fill="#4D4D4D"/>
    <path d="M55.9995 21.9082H53.9995V23.8968H55.9995V21.9082Z" fill="#333333"/>
    <path d="M57.9998 21.9082H55.9998V23.8968H57.9998V21.9082Z" fill="black"/>
    <path d="M60 21.9082H58V23.8968H60V21.9082Z" fill="white"/>
    <path d="M20.0002 23.8979H18.0002V25.8866H20.0002V23.8979Z" fill="white"/>
    <path d="M22.0005 23.8979H20.0005V25.8866H22.0005V23.8979Z" fill="black"/>
    <path d="M24.0007 23.8979H22.0007V25.8866H24.0007V23.8979Z" fill="#333333"/>
    <path d="M25.9995 23.8979H23.9995V25.8866H25.9995V23.8979Z" fill="#1A1A1A"/>
    <path d="M27.9998 23.8979H25.9998V25.8866H27.9998V23.8979Z" fill="#4D4D4D"/>
    <path d="M30 23.8979H28V25.8866H30V23.8979Z" fill="#4D4D4D"/>
    <path d="M32 23.8979H30V25.8866H32V23.8979Z" fill="#4D4D4D"/>
    <path d="M34.0003 23.8979H32.0002V25.8866H34.0003V23.8979Z" fill="#4D4D4D"/>
    <path d="M36.0005 23.8979H34.0005V25.8866H36.0005V23.8979Z" fill="#4D4D4D"/>
    <path d="M38.0007 23.8979H36.0007V25.8866H38.0007V23.8979Z" fill="#4D4D4D"/>
    <path d="M39.9995 23.8979H37.9995V25.8866H39.9995V23.8979Z" fill="#4D4D4D"/>
    <path d="M41.9998 23.8979H39.9998V25.8866H41.9998V23.8979Z" fill="#4D4D4D"/>
    <path d="M43.9998 23.8979H41.9998V25.8866H43.9998V23.8979Z" fill="#4D4D4D"/>
    <path d="M46 23.8979H44V25.8866H46V23.8979Z" fill="#4D4D4D"/>
    <path d="M48.0003 23.8979H46.0002V25.8866H48.0003V23.8979Z" fill="#666666"/>
    <path d="M50.0005 23.8979H48.0005V25.8866H50.0005V23.8979Z" fill="#808080"/>
    <path d="M52.0005 23.8979H50.0005V25.8866H52.0005V23.8979Z" fill="#666666"/>
    <path d="M54.0007 23.8979H52.0007V25.8866H54.0007V23.8979Z" fill="#1A1A1A"/>
    <path d="M55.9995 23.8979H53.9995V25.8866H55.9995V23.8979Z" fill="#333333"/>
    <path d="M57.9998 23.8979H55.9998V25.8866H57.9998V23.8979Z" fill="black"/>
    <path d="M60 23.8979H58V25.8866H60V23.8979Z" fill="white"/>
    <path d="M18.0003 25.8872H16.0002V27.8759H18.0003V25.8872Z" fill="white"/>
    <path d="M20.0002 25.8872H18.0002V27.8759H20.0002V25.8872Z" fill="white"/>
    <path d="M22.0005 25.8872H20.0005V27.8759H22.0005V25.8872Z" fill="black"/>
    <path d="M24.0007 25.8872H22.0007V27.8759H24.0007V25.8872Z" fill="#333333"/>
    <path d="M25.9995 25.8872H23.9995V27.8759H25.9995V25.8872Z" fill="#1A1A1A"/>
    <path d="M27.9998 25.8872H25.9998V27.8759H27.9998V25.8872Z" fill="#1A1A1A"/>
    <path d="M30 25.8872H28V27.8759H30V25.8872Z" fill="#4D4D4D"/>
    <path d="M32 25.8872H30V27.8759H32V25.8872Z" fill="#4D4D4D"/>
    <path d="M34.0003 25.8872H32.0002V27.8759H34.0003V25.8872Z" fill="#4D4D4D"/>
    <path d="M36.0005 25.8872H34.0005V27.8759H36.0005V25.8872Z" fill="#4D4D4D"/>
    <path d="M38.0007 25.8872H36.0007V27.8759H38.0007V25.8872Z" fill="#4D4D4D"/>
    <path d="M39.9995 25.8872H37.9995V27.8759H39.9995V25.8872Z" fill="#4D4D4D"/>
    <path d="M41.9998 25.8872H39.9998V27.8759H41.9998V25.8872Z" fill="#4D4D4D"/>
    <path d="M43.9998 25.8872H41.9998V27.8759H43.9998V25.8872Z" fill="#4D4D4D"/>
    <path d="M46 25.8872H44V27.8759H46V25.8872Z" fill="#666666"/>
    <path d="M48.0003 25.8872H46.0002V27.8759H48.0003V25.8872Z" fill="#808080"/>
    <path d="M50.0005 25.8872H48.0005V27.8759H50.0005V25.8872Z" fill="#666666"/>
    <path d="M52.0005 25.8872H50.0005V27.8759H52.0005V25.8872Z" fill="#1A1A1A"/>
    <path d="M54.0007 25.8872H52.0007V27.8759H54.0007V25.8872Z" fill="#333333"/>
    <path d="M55.9995 25.8872H53.9995V27.8759H55.9995V25.8872Z" fill="black"/>
    <path d="M57.9998 25.8872H55.9998V27.8759H57.9998V25.8872Z" fill="white"/>
    <path d="M13.9998 27.874H11.9998V29.8627H13.9998V27.874Z" fill="white"/>
    <path d="M16 27.874H14V29.8627H16V27.874Z" fill="white"/>
    <path d="M18.0003 27.874H16.0002V29.8627H18.0003V27.874Z" fill="black"/>
    <path d="M20.0002 27.874H18.0002V29.8627H20.0002V27.874Z" fill="black"/>
    <path d="M22.0005 27.874H20.0005V29.8627H22.0005V27.874Z" fill="#1A1A1A"/>
    <path d="M24.0007 27.874H22.0007V29.8627H24.0007V27.874Z" fill="#333333"/>
    <path d="M25.9995 27.874H23.9995V29.8627H25.9995V27.874Z" fill="#333333"/>
    <path d="M27.9998 27.874H25.9998V29.8627H27.9998V27.874Z" fill="#333333"/>
    <path d="M30 27.874H28V29.8627H30V27.874Z" fill="#1A1A1A"/>
    <path d="M32 27.874H30V29.8627H32V27.874Z" fill="#1A1A1A"/>
    <path d="M34.0003 27.874H32.0002V29.8627H34.0003V27.874Z" fill="#4D4D4D"/>
    <path d="M36.0005 27.874H34.0005V29.8627H36.0005V27.874Z" fill="#4D4D4D"/>
    <path d="M38.0007 27.874H36.0007V29.8627H38.0007V27.874Z" fill="#4D4D4D"/>
    <path d="M39.9995 27.874H37.9995V29.8627H39.9995V27.874Z" fill="#4D4D4D"/>
    <path d="M41.9998 27.874H39.9998V29.8627H41.9998V27.874Z" fill="#4D4D4D"/>
    <path d="M43.9998 27.874H41.9998V29.8627H43.9998V27.874Z" fill="#4D4D4D"/>
    <path d="M46 27.874H44V29.8627H46V27.874Z" fill="#666666"/>
    <path d="M48.0003 27.874H46.0002V29.8627H48.0003V27.874Z" fill="#808080"/>
    <path d="M50.0005 27.874H48.0005V29.8627H50.0005V27.874Z" fill="#666666"/>
    <path d="M52.0005 27.874H50.0005V29.8627H52.0005V27.874Z" fill="#1A1A1A"/>
    <path d="M54.0007 27.874H52.0007V29.8627H54.0007V27.874Z" fill="#333333"/>
    <path d="M55.9995 27.874H53.9995V29.8627H55.9995V27.874Z" fill="black"/>
    <path d="M57.9998 27.874H55.9998V29.8627H57.9998V27.874Z" fill="white"/>
    <path d="M9.99952 29.8638H7.99951V31.8524H9.99952V29.8638Z" fill="white"/>
    <path d="M11.9995 29.8638H9.99951V31.8524H11.9995V29.8638Z" fill="white"/>
    <path d="M13.9998 29.8638H11.9998V31.8524H13.9998V29.8638Z" fill="black"/>
    <path d="M16 29.8638H14V31.8524H16V29.8638Z" fill="black"/>
    <path d="M18.0003 29.8638H16.0002V31.8524H18.0003V29.8638Z" fill="#7A99B8"/>
    <path d="M20.0002 29.8638H18.0002V31.8524H20.0002V29.8638Z" fill="#7A99B8"/>
    <path d="M22.0005 29.8638H20.0005V31.8524H22.0005V29.8638Z" fill="#7A99B8"/>
    <path d="M24.0007 29.8638H22.0007V31.8524H24.0007V29.8638Z" fill="#1A1A1A"/>
    <path d="M25.9995 29.8638H23.9995V31.8524H25.9995V29.8638Z" fill="#1A1A1A"/>
    <path d="M27.9998 29.8638H25.9998V31.8524H27.9998V29.8638Z" fill="#333333"/>
    <path d="M30 29.8638H28V31.8524H30V29.8638Z" fill="#333333"/>
    <path d="M32 29.8638H30V31.8524H32V29.8638Z" fill="#333333"/>
    <path d="M34.0003 29.8638H32.0002V31.8524H34.0003V29.8638Z" fill="#1A1A1A"/>
    <path d="M36.0005 29.8638H34.0005V31.8524H36.0005V29.8638Z" fill="#1A1A1A"/>
    <path d="M38.0007 29.8638H36.0007V31.8524H38.0007V29.8638Z" fill="#4D4D4D"/>
    <path d="M39.9995 29.8638H37.9995V31.8524H39.9995V29.8638Z" fill="#4D4D4D"/>
    <path d="M41.9998 29.8638H39.9998V31.8524H41.9998V29.8638Z" fill="#4D4D4D"/>
    <path d="M43.9998 29.8638H41.9998V31.8524H43.9998V29.8638Z" fill="#666666"/>
    <path d="M46 29.8638H44V31.8524H46V29.8638Z" fill="#808080"/>
    <path d="M48.0003 29.8638H46.0002V31.8524H48.0003V29.8638Z" fill="#666666"/>
    <path d="M50.0005 29.8638H48.0005V31.8524H50.0005V29.8638Z" fill="#1A1A1A"/>
    <path d="M52.0005 29.8638H50.0005V31.8524H52.0005V29.8638Z" fill="#333333"/>
    <path d="M54.0007 29.8638H52.0007V31.8524H54.0007V29.8638Z" fill="black"/>
    <path d="M55.9995 29.8638H53.9995V31.8524H55.9995V29.8638Z" fill="white"/>
    <path d="M6.00049 31.853H4.00049V33.8417H6.00049V31.853Z" fill="white"/>
    <path d="M8.00049 31.853H6.00049V33.8417H8.00049V31.853Z" fill="white"/>
    <path d="M9.99952 31.853H7.99951V33.8417H9.99952V31.853Z" fill="black"/>
    <path d="M11.9995 31.853H9.99951V33.8417H11.9995V31.853Z" fill="black"/>
    <path d="M13.9998 31.853H11.9998V33.8417H13.9998V31.853Z" fill="#7A99B8"/>
    <path d="M16 31.853H14V33.8417H16V31.853Z" fill="#7A99B8"/>
    <path d="M18.0003 31.853H16.0002V33.8417H18.0003V31.853Z" fill="#5980A6"/>
    <path d="M20.0002 31.853H18.0002V33.8417H20.0002V31.853Z" fill="#5980A6"/>
    <path d="M22.0005 31.853H20.0005V33.8417H22.0005V31.853Z" fill="#5980A6"/>
    <path d="M24.0007 31.853H22.0007V33.8417H24.0007V31.853Z" fill="#7A99B8"/>
    <path d="M25.9995 31.853H23.9995V33.8417H25.9995V31.853Z" fill="#7A99B8"/>
    <path d="M27.9998 31.853H25.9998V33.8417H27.9998V31.853Z" fill="#1A1A1A"/>
    <path d="M30 31.853H28V33.8417H30V31.853Z" fill="#1A1A1A"/>
    <path d="M32 31.853H30V33.8417H32V31.853Z" fill="#333333"/>
    <path d="M34.0003 31.853H32.0002V33.8417H34.0003V31.853Z" fill="#333333"/>
    <path d="M36.0005 31.853H34.0005V33.8417H36.0005V31.853Z" fill="#333333"/>
    <path d="M38.0007 31.853H36.0007V33.8417H38.0007V31.853Z" fill="#1A1A1A"/>
    <path d="M39.9995 31.853H37.9995V33.8417H39.9995V31.853Z" fill="#1A1A1A"/>
    <path d="M41.9998 31.853H39.9998V33.8417H41.9998V31.853Z" fill="#333333"/>
    <path d="M43.9998 31.853H41.9998V33.8417H43.9998V31.853Z" fill="#666666"/>
    <path d="M46 31.853H44V33.8417H46V31.853Z" fill="#808080"/>
    <path d="M48.0003 31.853H46.0002V33.8417H48.0003V31.853Z" fill="#666666"/>
    <path d="M50.0005 31.853H48.0005V33.8417H50.0005V31.853Z" fill="#1A1A1A"/>
    <path d="M52.0005 31.853H50.0005V33.8417H52.0005V31.853Z" fill="#333333"/>
    <path d="M54.0007 31.853H52.0007V33.8417H54.0007V31.853Z" fill="black"/>
    <path d="M55.9995 31.853H53.9995V33.8417H55.9995V31.853Z" fill="white"/>
    <path d="M4.00025 33.8403H2.00024V35.829H4.00025V33.8403Z" fill="white"/>
    <path d="M6.00049 33.8403H4.00049V35.829H6.00049V33.8403Z" fill="black"/>
    <path d="M8.00049 33.8403H6.00049V35.829H8.00049V33.8403Z" fill="black"/>
    <path d="M9.99952 33.8403H7.99951V35.829H9.99952V33.8403Z" fill="#7A99B8"/>
    <path d="M11.9995 33.8403H9.99951V35.829H11.9995V33.8403Z" fill="#7A99B8"/>
    <path d="M13.9998 33.8403H11.9998V35.829H13.9998V33.8403Z" fill="#5980A6"/>
    <path d="M16 33.8403H14V35.829H16V33.8403Z" fill="#5980A6"/>
    <path d="M18.0003 33.8403H16.0002V35.829H18.0003V33.8403Z" fill="#BDCCDB"/>
    <path d="M20.0002 33.8403H18.0002V35.829H20.0002V33.8403Z" fill="#7A99B8"/>
    <path d="M22.0005 33.8403H20.0005V35.829H22.0005V33.8403Z" fill="#BDCCDB"/>
    <path d="M24.0007 33.8403H22.0007V35.829H24.0007V33.8403Z" fill="#5980A6"/>
    <path d="M25.9995 33.8403H23.9995V35.829H25.9995V33.8403Z" fill="#5980A6"/>
    <path d="M27.9998 33.8403H25.9998V35.829H27.9998V33.8403Z" fill="#7A99B8"/>
    <path d="M30 33.8403H28V35.829H30V33.8403Z" fill="#7A99B8"/>
    <path d="M32 33.8403H30V35.829H32V33.8403Z" fill="#1A1A1A"/>
    <path d="M34.0003 33.8403H32.0002V35.829H34.0003V33.8403Z" fill="#1A1A1A"/>
    <path d="M36.0005 33.8403H34.0005V35.829H36.0005V33.8403Z" fill="#333333"/>
    <path d="M38.0007 33.8403H36.0007V35.829H38.0007V33.8403Z" fill="#333333"/>
    <path d="M39.9995 33.8403H37.9995V35.829H39.9995V33.8403Z" fill="#333333"/>
    <path d="M41.9998 33.8403H39.9998V35.829H41.9998V33.8403Z" fill="#4D4D4D"/>
    <path d="M43.9998 33.8403H41.9998V35.829H43.9998V33.8403Z" fill="#4D4D4D"/>
    <path d="M46 33.8403H44V35.829H46V33.8403Z" fill="#666666"/>
    <path d="M48.0003 33.8403H46.0002V35.829H48.0003V33.8403Z" fill="#1A1A1A"/>
    <path d="M50.0005 33.8403H48.0005V35.829H50.0005V33.8403Z" fill="#333333"/>
    <path d="M52.0005 33.8403H50.0005V35.829H52.0005V33.8403Z" fill="black"/>
    <path d="M54.0007 33.8403H52.0007V35.829H54.0007V33.8403Z" fill="white"/>
    <path d="M2.00001 35.8296H0V37.8182H2.00001V35.8296Z" fill="white"/>
    <path d="M4.00025 35.8296H2.00024V37.8182H4.00025V35.8296Z" fill="black"/>
    <path d="M6.00049 35.8296H4.00049V37.8182H6.00049V35.8296Z" fill="#7A99B8"/>
    <path d="M8.00049 35.8296H6.00049V37.8182H8.00049V35.8296Z" fill="#7A99B8"/>
    <path d="M9.99952 35.8296H7.99951V37.8182H9.99952V35.8296Z" fill="#7A99B8"/>
    <path d="M11.9995 35.8296H9.99951V37.8182H11.9995V35.8296Z" fill="#7A99B8"/>
    <path d="M13.9998 35.8296H11.9998V37.8182H13.9998V35.8296Z" fill="#7A99B8"/>
    <path d="M16 35.8296H14V37.8182H16V35.8296Z" fill="#5980A6"/>
    <path d="M18.0003 35.8296H16.0002V37.8182H18.0003V35.8296Z" fill="#5980A6"/>
    <path d="M20.0002 35.8296H18.0002V37.8182H20.0002V35.8296Z" fill="#BDCCDB"/>
    <path d="M22.0005 35.8296H20.0005V37.8182H22.0005V35.8296Z" fill="#7A99B8"/>
    <path d="M24.0007 35.8296H22.0007V37.8182H24.0007V35.8296Z" fill="#BDCCDB"/>
    <path d="M25.9995 35.8296H23.9995V37.8182H25.9995V35.8296Z" fill="#7A99B8"/>
    <path d="M27.9998 35.8296H25.9998V37.8182H27.9998V35.8296Z" fill="#5980A6"/>
    <path d="M30 35.8296H28V37.8182H30V35.8296Z" fill="#5980A6"/>
    <path d="M32 35.8296H30V37.8182H32V35.8296Z" fill="#7A99B8"/>
    <path d="M34.0003 35.8296H32.0002V37.8182H34.0003V35.8296Z" fill="#7A99B8"/>
    <path d="M36.0005 35.8296H34.0005V37.8182H36.0005V35.8296Z" fill="#1A1A1A"/>
    <path d="M38.0007 35.8296H36.0007V37.8182H38.0007V35.8296Z" fill="#1A1A1A"/>
    <path d="M39.9995 35.8296H37.9995V37.8182H39.9995V35.8296Z" fill="#333333"/>
    <path d="M41.9998 35.8296H39.9998V37.8182H41.9998V35.8296Z" fill="#4D4D4D"/>
    <path d="M43.9998 35.8296H41.9998V37.8182H43.9998V35.8296Z" fill="#666666"/>
    <path d="M46 35.8296H44V37.8182H46V35.8296Z" fill="#333333"/>
    <path d="M48.0003 35.8296H46.0002V37.8182H48.0003V35.8296Z" fill="#1A1A1A"/>
    <path d="M50.0005 35.8296H48.0005V37.8182H50.0005V35.8296Z" fill="#333333"/>
    <path d="M52.0005 35.8296H50.0005V37.8182H52.0005V35.8296Z" fill="black"/>
    <path d="M54.0007 35.8296H52.0007V37.8182H54.0007V35.8296Z" fill="white"/>
    <path d="M2.00001 37.8193H0V39.808H2.00001V37.8193Z" fill="white"/>
    <path d="M4.00025 37.8193H2.00024V39.808H4.00025V37.8193Z" fill="white"/>
    <path d="M6.00049 37.8193H4.00049V39.808H6.00049V37.8193Z" fill="black"/>
    <path d="M8.00049 37.8193H6.00049V39.808H8.00049V37.8193Z" fill="black"/>
    <path d="M9.99952 37.8193H7.99951V39.808H9.99952V37.8193Z" fill="#7A99B8"/>
    <path d="M11.9995 37.8193H9.99951V39.808H11.9995V37.8193Z" fill="#7A99B8"/>
    <path d="M13.9998 37.8193H11.9998V39.808H13.9998V37.8193Z" fill="#7A99B8"/>
    <path d="M16 37.8193H14V39.808H16V37.8193Z" fill="#7A99B8"/>
    <path d="M18.0003 37.8193H16.0002V39.808H18.0003V37.8193Z" fill="#7A99B8"/>
    <path d="M20.0002 37.8193H18.0002V39.808H20.0002V37.8193Z" fill="#5980A6"/>
    <path d="M22.0005 37.8193H20.0005V39.808H22.0005V37.8193Z" fill="#5980A6"/>
    <path d="M24.0007 37.8193H22.0007V39.808H24.0007V37.8193Z" fill="#7A99B8"/>
    <path d="M25.9995 37.8193H23.9995V39.808H25.9995V37.8193Z" fill="#BDCCDB"/>
    <path d="M27.9998 37.8193H25.9998V39.808H27.9998V37.8193Z" fill="#7A99B8"/>
    <path d="M30 37.8193H28V39.808H30V37.8193Z" fill="#BDCCDB"/>
    <path d="M32 37.8193H30V39.808H32V37.8193Z" fill="#5980A6"/>
    <path d="M34.0003 37.8193H32.0002V39.808H34.0003V37.8193Z" fill="#5980A6"/>
    <path d="M36.0005 37.8193H34.0005V39.808H36.0005V37.8193Z" fill="#7A99B8"/>
    <path d="M38.0007 37.8193H36.0007V39.808H38.0007V37.8193Z" fill="#7A99B8"/>
    <path d="M39.9995 37.8193H37.9995V39.808H39.9995V37.8193Z" fill="#1A1A1A"/>
    <path d="M41.9998 37.8193H39.9998V39.808H41.9998V37.8193Z" fill="#1A1A1A"/>
    <path d="M43.9998 37.8193H41.9998V39.808H43.9998V37.8193Z" fill="#666666"/>
    <path d="M46 37.8193H44V39.808H46V37.8193Z" fill="#4D4D4D"/>
    <path d="M48.0003 37.8193H46.0002V39.808H48.0003V37.8193Z" fill="#333333"/>
    <path d="M50.0005 37.8193H48.0005V39.808H50.0005V37.8193Z" fill="black"/>
    <path d="M52.0005 37.8193H50.0005V39.808H52.0005V37.8193Z" fill="white"/>
    <path d="M4.00025 39.8062H2.00024V41.7948H4.00025V39.8062Z" fill="white"/>
    <path d="M6.00049 39.8062H4.00049V41.7948H6.00049V39.8062Z" fill="white"/>
    <path d="M8.00049 39.8062H6.00049V41.7948H8.00049V39.8062Z" fill="white"/>
    <path d="M9.99952 39.8062H7.99951V41.7948H9.99952V39.8062Z" fill="black"/>
    <path d="M11.9995 39.8062H9.99951V41.7948H11.9995V39.8062Z" fill="black"/>
    <path d="M13.9998 39.8062H11.9998V41.7948H13.9998V39.8062Z" fill="#7A99B8"/>
    <path d="M16 39.8062H14V41.7948H16V39.8062Z" fill="#7A99B8"/>
    <path d="M18.0003 39.8062H16.0002V41.7948H18.0003V39.8062Z" fill="#7A99B8"/>
    <path d="M20.0002 39.8062H18.0002V41.7948H20.0002V39.8062Z" fill="#BDCCDB"/>
    <path d="M22.0005 39.8062H20.0005V41.7948H22.0005V39.8062Z" fill="#BDCCDB"/>
    <path d="M24.0007 39.8062H22.0007V41.7948H24.0007V39.8062Z" fill="#5980A6"/>
    <path d="M25.9995 39.8062H23.9995V41.7948H25.9995V39.8062Z" fill="#5980A6"/>
    <path d="M27.9998 39.8062H25.9998V41.7948H27.9998V39.8062Z" fill="#BDCCDB"/>
    <path d="M30 39.8062H28V41.7948H30V39.8062Z" fill="#7A99B8"/>
    <path d="M32 39.8062H30V41.7948H32V39.8062Z" fill="#BDCCDB"/>
    <path d="M34.0003 39.8062H32.0002V41.7948H34.0003V39.8062Z" fill="#7A99B8"/>
    <path d="M36.0005 39.8062H34.0005V41.7948H36.0005V39.8062Z" fill="#5980A6"/>
    <path d="M38.0007 39.8062H36.0007V41.7948H38.0007V39.8062Z" fill="#5980A6"/>
    <path d="M39.9995 39.8062H37.9995V41.7948H39.9995V39.8062Z" fill="#7A99B8"/>
    <path d="M41.9998 39.8062H39.9998V41.7948H41.9998V39.8062Z" fill="#7A99B8"/>
    <path d="M43.9998 39.8062H41.9998V41.7948H43.9998V39.8062Z" fill="#1A1A1A"/>
    <path d="M46 39.8062H44V41.7948H46V39.8062Z" fill="#1A1A1A"/>
    <path d="M48.0003 39.8062H46.0002V41.7948H48.0003V39.8062Z" fill="#333333"/>
    <path d="M50.0005 39.8062H48.0005V41.7948H50.0005V39.8062Z" fill="black"/>
    <path d="M52.0005 39.8062H50.0005V41.7948H52.0005V39.8062Z" fill="white"/>
    <path d="M8.00049 41.7954H6.00049V43.7841H8.00049V41.7954Z" fill="white"/>
    <path d="M9.99952 41.7954H7.99951V43.7841H9.99952V41.7954Z" fill="white"/>
    <path d="M11.9995 41.7954H9.99951V43.7841H11.9995V41.7954Z" fill="white"/>
    <path d="M13.9998 41.7954H11.9998V43.7841H13.9998V41.7954Z" fill="black"/>
    <path d="M16 41.7954H14V43.7841H16V41.7954Z" fill="black"/>
    <path d="M18.0003 41.7954H16.0002V43.7841H18.0003V41.7954Z" fill="#5980A6"/>
    <path d="M20.0002 41.7954H18.0002V43.7841H20.0002V41.7954Z" fill="#7A99B8"/>
    <path d="M22.0005 41.7954H20.0005V43.7841H22.0005V41.7954Z" fill="#BDCCDB"/>
    <path d="M24.0007 41.7954H22.0007V43.7841H24.0007V41.7954Z" fill="#BDCCDB"/>
    <path d="M25.9995 41.7954H23.9995V43.7841H25.9995V41.7954Z" fill="#BDCCDB"/>
    <path d="M27.9998 41.7954H25.9998V43.7841H27.9998V41.7954Z" fill="#5980A6"/>
    <path d="M30 41.7954H28V43.7841H30V41.7954Z" fill="#5980A6"/>
    <path d="M32 41.7954H30V43.7841H32V41.7954Z" fill="#7A99B8"/>
    <path d="M34.0003 41.7954H32.0002V43.7841H34.0003V41.7954Z" fill="#BDCCDB"/>
    <path d="M36.0005 41.7954H34.0005V43.7841H36.0005V41.7954Z" fill="#7A99B8"/>
    <path d="M38.0007 41.7954H36.0007V43.7841H38.0007V41.7954Z" fill="#BDCCDB"/>
    <path d="M39.9995 41.7954H37.9995V43.7841H39.9995V41.7954Z" fill="#5980A6"/>
    <path d="M41.9998 41.7954H39.9998V43.7841H41.9998V41.7954Z" fill="#5980A6"/>
    <path d="M43.9998 41.7954H41.9998V43.7841H43.9998V41.7954Z" fill="#7A99B8"/>
    <path d="M46 41.7954H44V43.7841H46V41.7954Z" fill="#7A99B8"/>
    <path d="M48.0003 41.7954H46.0002V43.7841H48.0003V41.7954Z" fill="black"/>
    <path d="M50.0005 41.7954H48.0005V43.7841H50.0005V41.7954Z" fill="white"/>
    <path d="M11.9995 43.7852H9.99951V45.7738H11.9995V43.7852Z" fill="white"/>
    <path d="M13.9998 43.7852H11.9998V45.7738H13.9998V43.7852Z" fill="white"/>
    <path d="M16 43.7852H14V45.7738H16V43.7852Z" fill="white"/>
    <path d="M18.0003 43.7852H16.0002V45.7738H18.0003V43.7852Z" fill="black"/>
    <path d="M20.0002 43.7852H18.0002V45.7738H20.0002V43.7852Z" fill="black"/>
    <path d="M22.0005 43.7852H20.0005V45.7738H22.0005V43.7852Z" fill="#7A99B8"/>
    <path d="M24.0007 43.7852H22.0007V45.7738H24.0007V43.7852Z" fill="#5980A6"/>
    <path d="M25.9995 43.7852H23.9995V45.7738H25.9995V43.7852Z" fill="#7A99B8"/>
    <path d="M27.9998 43.7852H25.9998V45.7738H27.9998V43.7852Z" fill="#7A99B8"/>
    <path d="M30 43.7852H28V45.7738H30V43.7852Z" fill="#7A99B8"/>
    <path d="M32 43.7852H30V45.7738H32V43.7852Z" fill="#5980A6"/>
    <path d="M34.0003 43.7852H32.0002V45.7738H34.0003V43.7852Z" fill="#5980A6"/>
    <path d="M36.0005 43.7852H34.0005V45.7738H36.0005V43.7852Z" fill="#5980A6"/>
    <path d="M38.0007 43.7852H36.0007V45.7738H38.0007V43.7852Z" fill="#5980A6"/>
    <path d="M39.9995 43.7852H37.9995V45.7738H39.9995V43.7852Z" fill="#7A99B8"/>
    <path d="M41.9998 43.7852H39.9998V45.7738H41.9998V43.7852Z" fill="#7A99B8"/>
    <path d="M43.9998 43.7852H41.9998V45.7738H43.9998V43.7852Z" fill="black"/>
    <path d="M46 43.7852H44V45.7738H46V43.7852Z" fill="black"/>
    <path d="M48.0003 43.7852H46.0002V45.7738H48.0003V43.7852Z" fill="white"/>
    <path d="M16 45.772H14V47.7606H16V45.772Z" fill="white"/>
    <path d="M18.0003 45.772H16.0002V47.7606H18.0003V45.772Z" fill="white"/>
    <path d="M20.0002 45.772H18.0002V47.7606H20.0002V45.772Z" fill="white"/>
    <path d="M22.0005 45.772H20.0005V47.7606H22.0005V45.772Z" fill="black"/>
    <path d="M24.0007 45.772H22.0007V47.7606H24.0007V45.772Z" fill="black"/>
    <path d="M25.9995 45.772H23.9995V47.7606H25.9995V45.772Z" fill="#7A99B8"/>
    <path d="M27.9998 45.772H25.9998V47.7606H27.9998V45.772Z" fill="#7A99B8"/>
    <path d="M30 45.772H28V47.7606H30V45.772Z" fill="#7A99B8"/>
    <path d="M32 45.772H30V47.7606H32V45.772Z" fill="#7A99B8"/>
    <path d="M34.0003 45.772H32.0002V47.7606H34.0003V45.772Z" fill="#7A99B8"/>
    <path d="M36.0005 45.772H34.0005V47.7606H36.0005V45.772Z" fill="#7A99B8"/>
    <path d="M38.0007 45.772H36.0007V47.7606H38.0007V45.772Z" fill="#7A99B8"/>
    <path d="M39.9995 45.772H37.9995V47.7606H39.9995V45.772Z" fill="black"/>
    <path d="M41.9998 45.772H39.9998V47.7606H41.9998V45.772Z" fill="black"/>
    <path d="M43.9998 45.772H41.9998V47.7606H43.9998V45.772Z" fill="white"/>
    <path d="M46 45.772H44V47.7606H46V45.772Z" fill="white"/>
    <path d="M20.0002 47.7617H18.0002V49.7504H20.0002V47.7617Z" fill="white"/>
    <path d="M22.0005 47.7617H20.0005V49.7504H22.0005V47.7617Z" fill="white"/>
    <path d="M24.0007 47.7617H22.0007V49.7504H24.0007V47.7617Z" fill="white"/>
    <path d="M25.9995 47.7617H23.9995V49.7504H25.9995V47.7617Z" fill="black"/>
    <path d="M27.9998 47.7617H25.9998V49.7504H27.9998V47.7617Z" fill="black"/>
    <path d="M30 47.7617H28V49.7504H30V47.7617Z" fill="#7A99B8"/>
    <path d="M32 47.7617H30V49.7504H32V47.7617Z" fill="#7A99B8"/>
    <path d="M34.0003 47.7617H32.0002V49.7504H34.0003V47.7617Z" fill="#7A99B8"/>
    <path d="M36.0005 47.7617H34.0005V49.7504H36.0005V47.7617Z" fill="black"/>
    <path d="M38.0007 47.7617H36.0007V49.7504H38.0007V47.7617Z" fill="black"/>
    <path d="M39.9995 47.7617H37.9995V49.7504H39.9995V47.7617Z" fill="white"/>
    <path d="M41.9998 47.7617H39.9998V49.7504H41.9998V47.7617Z" fill="white"/>
    <path d="M24.0007 49.751H22.0007V51.7396H24.0007V49.751Z" fill="white"/>
    <path d="M25.9995 49.751H23.9995V51.7396H25.9995V49.751Z" fill="white"/>
    <path d="M27.9998 49.751H25.9998V51.7396H27.9998V49.751Z" fill="white"/>
    <path d="M30 49.751H28V51.7396H30V49.751Z" fill="black"/>
    <path d="M32 49.751H30V51.7396H32V49.751Z" fill="black"/>
    <path d="M34.0003 49.751H32.0002V51.7396H34.0003V49.751Z" fill="black"/>
    <path d="M36.0005 49.751H34.0005V51.7396H36.0005V49.751Z" fill="white"/>
    <path d="M38.0007 49.751H36.0007V51.7396H38.0007V49.751Z" fill="white"/>
    <path d="M27.9998 51.7378H25.9998V53.7264H27.9998V51.7378Z" fill="white"/>
    <path d="M30 51.7378H28V53.7264H30V51.7378Z" fill="white"/>
    <path d="M32 51.7378H30V53.7264H32V51.7378Z" fill="white"/>
    <path d="M34.0003 51.7378H32.0002V53.7264H34.0003V51.7378Z" fill="white"/>
    <path d="M36.0005 51.7378H34.0005V53.7264H36.0005V51.7378Z" fill="white"/>
</svg>
