<svg width="50" height="50" viewBox="0 0 50 50" fill="none" xmlns="http://www.w3.org/2000/svg">
    <g clip-path="url(#clip0_1998_123)">
        <path d="M8.19998 30.5137H6.09998V34.9326H8.19998V30.5137Z" fill="black"/>
        <path d="M10.3 37.1421H8.20001V39.3516H10.3V37.1421Z" fill="black"/>
        <path d="M8.19998 37.1421H6.09998V39.3516H8.19998V37.1421Z" fill="black"/>
        <path d="M8.19998 39.3516H6.09998V41.561H8.19998V39.3516Z" fill="black"/>
        <path d="M10.3 39.3516H8.20001V41.561H10.3V39.3516Z" fill="black"/>
        <path d="M10.3 28.3042H8.20001V30.5137H10.3V28.3042Z" fill="black"/>
        <path d="M12.4 26.0947H10.3V28.3042H12.4V26.0947Z" fill="black"/>
        <path d="M14.5 23.8853H12.4V26.0947H14.5V23.8853Z" fill="black"/>
        <path d="M16.6 21.6758H14.5V23.8853H16.6V21.6758Z" fill="black"/>
        <path d="M18.7 19.4663H16.6V21.6758H18.7V19.4663Z" fill="black"/>
        <path d="M20.8 17.2568H18.7V19.4663H20.8V17.2568Z" fill="black"/>
        <path d="M22.9 15.0474H20.8V17.2568H22.9V15.0474Z" fill="black"/>
        <path d="M12.4 28.3042H10.3V30.5137H12.4V28.3042Z" fill="#FFA219"/>
        <path d="M14.5 26.0947H12.4V28.3042H14.5V26.0947Z" fill="#FFA219"/>
        <path d="M16.6 23.8853H14.5V26.0947H16.6V23.8853Z" fill="#FFA219"/>
        <path d="M18.7 21.6758H16.6V23.8853H18.7V21.6758Z" fill="#FFA219"/>
        <path d="M20.8 19.4663H18.7V21.6758H20.8V19.4663Z" fill="#FFA219"/>
        <path d="M22.9 17.2568H20.8V19.4663H22.9V17.2568Z" fill="#FFA219"/>
        <path d="M14.5 28.3042H12.4V30.5137H14.5V28.3042Z" fill="white"/>
        <path d="M16.6 26.0947H14.5V28.3042H16.6V26.0947Z" fill="white"/>
        <path d="M18.7 23.8853H16.6V26.0947H18.7V23.8853Z" fill="white"/>
        <path d="M20.8 21.6758H18.7V23.8853H20.8V21.6758Z" fill="#FFBF66"/>
        <path d="M22.9 19.4663H20.8V21.6758H22.9V19.4663Z" fill="#FFBF66"/>
        <path d="M14.5 30.5137H12.4V32.7231H14.5V30.5137Z" fill="#FFA219"/>
        <path d="M16.6 28.3042H14.5V30.5137H16.6V28.3042Z" fill="#FFA219"/>
        <path d="M18.7 26.0947H16.6V28.3042H18.7V26.0947Z" fill="#FFA219"/>
        <path d="M20.8 23.8853H18.7V26.0947H20.8V23.8853Z" fill="#FFA219"/>
        <path d="M22.9 21.6758H20.8V23.8853H22.9V21.6758Z" fill="#FFA219"/>
        <path d="M16.6 30.5137H14.5V32.7231H16.6V30.5137Z" fill="#FFA219"/>
        <path d="M18.7 28.3042H16.6V30.5137H18.7V28.3042Z" fill="#FFA219"/>
        <path d="M20.8 26.0947H18.7V28.3042H20.8V26.0947Z" fill="#FFA219"/>
        <path d="M22.9 23.8853H20.8V26.0947H22.9V23.8853Z" fill="#FFA219"/>
        <path d="M16.6 32.7231H14.5V34.9326H16.6V32.7231Z" fill="#D98100"/>
        <path d="M18.7 30.5137H16.6V32.7231H18.7V30.5137Z" fill="#D98100"/>
        <path d="M20.8 28.3042H18.7V30.5137H20.8V28.3042Z" fill="#D98100"/>
        <path d="M22.9 26.0947H20.8V28.3042H22.9V26.0947Z" fill="#D98100"/>
        <path d="M18.7 32.7231H16.6V34.9326H18.7V32.7231Z" fill="#D98100"/>
        <path d="M20.8 30.5137H18.7V32.7231H20.8V30.5137Z" fill="#D98100"/>
        <path d="M22.9 28.3042H20.8V30.5137H22.9V28.3042Z" fill="#D98100"/>
        <path d="M18.7 34.9326H16.6V37.1421H18.7V34.9326Z" fill="#AF6400"/>
        <path d="M20.8 32.7231H18.7V34.9326H20.8V32.7231Z" fill="#AF6400"/>
        <path d="M22.9 30.5137H20.8V32.7231H22.9V30.5137Z" fill="#AF6400"/>
        <path d="M25 15.0474H22.9V17.2568H25V15.0474Z" fill="#FFA219"/>
        <path d="M25 17.2568H22.9V19.4663H25V17.2568Z" fill="#FFBF66"/>
        <path d="M25 19.4663H22.9V21.6758H25V19.4663Z" fill="#FFA219"/>
        <path d="M25 21.6758H22.9V23.8853H25V21.6758Z" fill="#FFA219"/>
        <path d="M25 23.8853H22.9V26.0947H25V23.8853Z" fill="#D98100"/>
        <path d="M25 26.0947H22.9V28.3042H25V26.0947Z" fill="#D98100"/>
        <path d="M25 28.3042H22.9V30.5137H25V28.3042Z" fill="#AF6400"/>
        <path d="M25 12.8379H22.9V15.0474H25V12.8379Z" fill="black"/>
        <path d="M27.1 15.0474H25V17.2568H27.1V15.0474Z" fill="white"/>
        <path d="M29.2 17.2568H27.1V19.4663H29.2V17.2568Z" fill="#B7B7B7"/>
        <path d="M31.3 19.4663H29.2V21.6758H31.3V19.4663Z" fill="#A0A0A0"/>
        <path d="M27.1 10.6284H25V12.8379H27.1V10.6284Z" fill="black"/>
        <path d="M27.1 12.8379H25V15.0474H27.1V12.8379Z" fill="#B7B7B7"/>
        <path d="M29.2 15.0474H27.1V17.2568H29.2V15.0474Z" fill="#B7B7B7"/>
        <path d="M31.3 17.2568H29.2V19.4663H31.3V17.2568Z" fill="#A0A0A0"/>
        <path d="M29.2 12.8379H27.1V15.0474H29.2V12.8379Z" fill="white"/>
        <path d="M31.3 15.0474H29.2V17.2568H31.3V15.0474Z" fill="#B7B7B7"/>
        <path d="M33.4 17.2568H31.3V19.4663H33.4V17.2568Z" fill="#A0A0A0"/>
        <path d="M33.4 19.4663H31.3V21.6758H33.4V19.4663Z" fill="#808080"/>
        <path d="M29.2 8.41895H27.1V10.6284H29.2V8.41895Z" fill="black"/>
        <path d="M29.2 6.20947H27.1V8.41895H29.2V6.20947Z" fill="white"/>
        <path d="M27.1 8.41895H25V10.6284H27.1V8.41895Z" fill="white"/>
        <path d="M25 10.6284H22.9V12.8379H25V10.6284Z" fill="white"/>
        <path d="M22.9 12.8379H20.8V15.0474H22.9V12.8379Z" fill="white"/>
        <path d="M20.8 15.0474H18.7V17.2568H20.8V15.0474Z" fill="white"/>
        <path d="M18.7 17.2568H16.6V19.4663H18.7V17.2568Z" fill="white"/>
        <path d="M16.6 19.4663H14.5V21.6758H16.6V19.4663Z" fill="white"/>
        <path d="M14.5 21.6758H12.4V23.8853H14.5V21.6758Z" fill="white"/>
        <path d="M12.4 23.8853H10.3V26.0947H12.4V23.8853Z" fill="white"/>
        <path d="M10.3 26.0947H8.20001V28.3042H10.3V26.0947Z" fill="white"/>
        <path d="M8.19998 28.3042H6.09998V30.5137H8.19998V28.3042Z" fill="white"/>
        <path d="M18.7 39.3516H16.6V41.561H18.7V39.3516Z" fill="white"/>
        <path d="M20.8 39.3516H18.7V41.561H20.8V39.3516Z" fill="white"/>
        <path d="M18.7 41.561H16.6V43.7705H18.7V41.561Z" fill="white"/>
        <path d="M20.8 37.1421H18.7V39.3516H20.8V37.1421Z" fill="white"/>
        <path d="M22.9 34.9326H20.8V37.1421H22.9V34.9326Z" fill="white"/>
        <path d="M25 32.7231H22.9V34.9326H25V32.7231Z" fill="white"/>
        <path d="M27.1 30.5137H25V32.7231H27.1V30.5137Z" fill="white"/>
        <path d="M29.2 28.3042H27.1V30.5137H29.2V28.3042Z" fill="white"/>
        <path d="M31.3 26.0947H29.2V28.3042H31.3V26.0947Z" fill="white"/>
        <path d="M33.4 23.8853H31.3V26.0947H33.4V23.8853Z" fill="white"/>
        <path d="M35.5 21.6758H33.4V23.8853H35.5V21.6758Z" fill="white"/>
        <path d="M37.6 19.4663H35.5V21.6758H37.6V19.4663Z" fill="white"/>
        <path d="M39.7 17.2568H37.6V19.4663H39.7V17.2568Z" fill="white"/>
        <path d="M22.9 37.1421H20.8V39.3516H22.9V37.1421Z" fill="white"/>
        <path d="M25 34.9326H22.9V37.1421H25V34.9326Z" fill="white"/>
        <path d="M27.1 32.7231H25V34.9326H27.1V32.7231Z" fill="white"/>
        <path d="M29.2 30.5137H27.1V32.7231H29.2V30.5137Z" fill="white"/>
        <path d="M31.3 28.3042H29.2V30.5137H31.3V28.3042Z" fill="white"/>
        <path d="M33.4 26.0947H31.3V28.3042H33.4V26.0947Z" fill="white"/>
        <path d="M35.5 23.8853H33.4V26.0947H35.5V23.8853Z" fill="white"/>
        <path d="M37.6 21.6758H35.5V23.8853H37.6V21.6758Z" fill="white"/>
        <path d="M39.7 19.4663H37.6V21.6758H39.7V19.4663Z" fill="white"/>
        <path d="M41.8 17.2568H39.7V19.4663H41.8V17.2568Z" fill="white"/>
        <path d="M41.8 15.0474H39.7V17.2568H41.8V15.0474Z" fill="white"/>
        <path d="M41.8 12.8379H39.7V15.0474H41.8V12.8379Z" fill="white"/>
        <path d="M39.7 10.6284H37.6V12.8379H39.7V10.6284Z" fill="white"/>
        <path d="M37.6 8.41895H35.5V10.6284H37.6V8.41895Z" fill="white"/>
        <path d="M35.5 6.20947H33.4V8.41895H35.5V6.20947Z" fill="white"/>
        <path d="M33.4 4H29.2V6.20947H33.4V4Z" fill="white"/>
        <path d="M16.6 41.561H4V43.7705H16.6V41.561Z" fill="white"/>
        <path d="M6.1 30.5137H4V41.561H6.1V30.5137Z" fill="white"/>
        <path d="M29.2 10.6284H27.1V12.8379H29.2V10.6284Z" fill="#D62F73"/>
        <path d="M31.3 10.6284H29.2V12.8379H31.3V10.6284Z" fill="#E05080"/>
        <path d="M33.4 10.6284H31.3V12.8379H33.4V10.6284Z" fill="#D62F73"/>
        <path d="M33.4 8.41895H31.3V10.6284H33.4V8.41895Z" fill="#E05080"/>
        <path d="M33.4 12.8379H31.3V15.0474H33.4V12.8379Z" fill="#D62F73"/>
        <path d="M31.3 12.8379H29.2V15.0474H31.3V12.8379Z" fill="#D62F73"/>
        <path d="M31.3 8.41895H29.2V10.6284H31.3V8.41895Z" fill="#D62F73"/>
        <path d="M33.4 15.0474H31.3V17.2568H33.4V15.0474Z" fill="#BD1E55"/>
        <path d="M35.5 10.6284H33.4V12.8379H35.5V10.6284Z" fill="#D62F73"/>
        <path d="M35.5 12.8379H33.4V15.0474H35.5V12.8379Z" fill="#BD1E55"/>
        <path d="M35.5 15.0474H33.4V17.2568H35.5V15.0474Z" fill="#BD1E55"/>
        <path d="M35.5 17.2568H33.4V19.4663H35.5V17.2568Z" fill="#931C3D"/>
        <path d="M18.7 37.1421H16.6V39.3516H18.7V37.1421Z" fill="black"/>
        <path d="M20.8 34.9326H18.7V37.1421H20.8V34.9326Z" fill="black"/>
        <path d="M22.9 32.7231H20.8V34.9326H22.9V32.7231Z" fill="black"/>
        <path d="M25 30.5137H22.9V32.7231H25V30.5137Z" fill="black"/>
        <path d="M27.1 28.3042H25V30.5137H27.1V28.3042Z" fill="black"/>
        <path d="M29.2 26.0947H27.1V28.3042H29.2V26.0947Z" fill="black"/>
        <path d="M27.1 26.0947H25V28.3042H27.1V26.0947Z" fill="#AF6400"/>
        <path d="M29.2 23.8853H27.1V26.0947H29.2V23.8853Z" fill="#AF6400"/>
        <path d="M27.1 23.8853H25V26.0947H27.1V23.8853Z" fill="#D98100"/>
        <path d="M29.2 21.6758H27.1V23.8853H29.2V21.6758Z" fill="#D98100"/>
        <path d="M27.1 21.6758H25V23.8853H27.1V21.6758Z" fill="#D98100"/>
        <path d="M27.1 19.4663H25V21.6758H27.1V19.4663Z" fill="#FFA219"/>
        <path d="M27.1 17.2568H25V19.4663H27.1V17.2568Z" fill="#FFA219"/>
        <path d="M29.2 19.4663H27.1V21.6758H29.2V19.4663Z" fill="#D98100"/>
        <path d="M31.3 23.8853H29.2V26.0947H31.3V23.8853Z" fill="black"/>
        <path d="M31.3 21.6758H29.2V23.8853H31.3V21.6758Z" fill="#AF6400"/>
        <path d="M33.4 21.6758H31.3V23.8853H33.4V21.6758Z" fill="black"/>
        <path d="M35.5 19.4663H33.4V21.6758H35.5V19.4663Z" fill="black"/>
        <path d="M37.6 17.2568H35.5V19.4663H37.6V17.2568Z" fill="black"/>
        <path d="M37.6 15.0474H35.5V17.2568H37.6V15.0474Z" fill="#931C3D"/>
        <path d="M37.6 12.8379H35.5V15.0474H37.6V12.8379Z" fill="#931C3D"/>
        <path d="M39.7 15.0474H37.6V17.2568H39.7V15.0474Z" fill="black"/>
        <path d="M39.7 12.8379H37.6V15.0474H39.7V12.8379Z" fill="black"/>
        <path d="M37.6 10.6284H35.5V12.8379H37.6V10.6284Z" fill="black"/>
        <path d="M35.5 8.41895H33.4V10.6284H35.5V8.41895Z" fill="black"/>
        <path d="M33.4 6.20947H29.2V8.41895H33.4V6.20947Z" fill="black"/>
        <path d="M16.6 34.9326H14.5V37.1421H16.6V34.9326Z" fill="#D98100"/>
        <path d="M14.5 32.7231H12.4V34.9326H14.5V32.7231Z" fill="#FFA219"/>
        <path d="M12.4 30.5137H10.3V32.7231H12.4V30.5137Z" fill="#FFBF66"/>
        <path d="M10.3 30.5137H8.20001V32.7231H10.3V30.5137Z" fill="#F4A971"/>
        <path d="M16.6 37.1421H14.5V39.3516H16.6V37.1421Z" fill="#AD7246"/>
        <path d="M14.5 34.9326H12.4V37.1421H14.5V34.9326Z" fill="#DE9B64"/>
        <path d="M12.4 32.7231H10.3V34.9326H12.4V32.7231Z" fill="#F4A971"/>
        <path d="M10.3 32.7231H8.20001V34.9326H10.3V32.7231Z" fill="#FFAF78"/>
        <path d="M8.19998 34.9326H6.09998V37.1421H8.19998V34.9326Z" fill="black"/>
        <path d="M14.5 37.1421H12.4V39.3516H14.5V37.1421Z" fill="#DE9B64"/>
        <path d="M12.4 34.9326H10.3V37.1421H12.4V34.9326Z" fill="#F4A971"/>
        <path d="M10.3 34.9326H8.20001V37.1421H10.3V34.9326Z" fill="#F4A971"/>
        <path d="M12.4 37.1421H10.3V39.3516H12.4V37.1421Z" fill="#DE9B64"/>
        <path d="M16.6 39.3516H14.5V41.561H16.6V39.3516Z" fill="black"/>
        <path d="M14.5 39.3516H12.4V41.561H14.5V39.3516Z" fill="black"/>
        <path d="M12.4 39.3516H10.3V41.561H12.4V39.3516Z" fill="black"/>
        <path d="M41.8 26.0972H39.6979V28.3088H41.8V26.0972Z" fill="#49CE58"/>
        <path d="M43.9011 26.0972H41.799V28.3088H43.9011V26.0972Z" fill="#39A84A"/>
        <path d="M39.6968 28.3091H37.5947V30.5208H39.6968V28.3091Z" fill="#49CE58"/>
        <path d="M37.5947 30.5205H35.4926V32.7322H37.5947V30.5205Z" fill="#49CE58"/>
        <path d="M41.8 28.3022H39.6979V30.5139H41.8V28.3022Z" fill="#39A84A"/>
        <path d="M39.6968 30.5137H37.5947V32.7254H39.6968V30.5137Z" fill="#39A84A"/>
        <path d="M37.5947 32.7256H35.4926V34.9373H37.5947V32.7256Z" fill="#39A84A"/>
        <path d="M22.9031 32.7334H20.801V34.9451H22.9031V32.7334Z" fill="#49CE58"/>
        <path d="M20.801 32.7334H18.6989V34.9451H20.801V32.7334Z" fill="#39A84A"/>
        <path d="M20.801 30.5137H18.6989V32.7254H20.801V30.5137Z" fill="#49CE58"/>
        <path d="M18.701 30.5137H16.5989V32.7254H18.701V30.5137Z" fill="#39A84A"/>
        <path d="M31.301 39.355H29.1989V41.5667H31.301V39.355Z" fill="#39A84A"/>
        <path d="M29.1979 41.5679H27.0958V43.7796H29.1979V41.5679Z" fill="#39A84A"/>
        <path d="M33.4011 37.1436H31.299V39.3552H33.4011V37.1436Z" fill="#39A84A"/>
        <path d="M35.5063 34.9448H33.4042V37.1565H35.5063V34.9448Z" fill="#39A84A"/>
        <path d="M35.5042 32.7334H33.4021V34.9451H35.5042V32.7334Z" fill="#49CE58"/>
        <path d="M25.0052 34.9448H22.9031V37.1565H25.0052V34.9448Z" fill="#49CE58"/>
        <path d="M33.4021 34.9448H31.3V37.1565H33.4021V34.9448Z" fill="#49CE58"/>
        <path d="M27.0958 37.1436H24.9937V39.3552H27.0958V37.1436Z" fill="#49CE58"/>
        <path d="M22.9031 34.9385H20.801V37.1502H22.9031V34.9385Z" fill="#39A84A"/>
        <path d="M25.0052 37.1499H22.9031V39.3616H25.0052V37.1499Z" fill="#39A84A"/>
        <path d="M27.0958 39.3496H24.9937V41.5613H27.0958V39.3496Z" fill="#39A84A"/>
        <path d="M31.3 37.1436H29.1979V39.3552H31.3V37.1436Z" fill="#49CE58"/>
        <path d="M29.1979 39.355H27.0958V41.5667H29.1979V39.355Z" fill="#49CE58"/>
        <path d="M22.9021 39.3569H20.8021V41.5664H22.9021V39.3569Z" fill="white"/>
        <path d="M24.9926 39.3516H22.8926V41.561H24.9926V39.3516Z" fill="white"/>
        <path d="M24.9926 41.561H22.8926V43.7705H24.9926V41.561Z" fill="white"/>
        <path d="M27.0927 41.561H24.9927V43.7705H27.0927V41.561Z" fill="white"/>
        <path d="M27.0948 43.7803H24.9948V45.9897H27.0948V43.7803Z" fill="white"/>
        <path d="M29.1969 43.7803H27.0969V45.9897H29.1969V43.7803Z" fill="white"/>
        <path d="M31.299 43.7803H29.199V45.9897H31.299V43.7803Z" fill="white"/>
        <path d="M31.299 41.5688H29.199V43.7783H31.299V41.5688Z" fill="white"/>
        <path d="M33.4 41.5688H31.3V43.7783H33.4V41.5688Z" fill="white"/>
        <path d="M33.4 39.3569H31.3V41.5664H33.4V39.3569Z" fill="white"/>
        <path d="M35.5042 39.3569H33.4042V41.5664H35.5042V39.3569Z" fill="white"/>
        <path d="M35.5042 37.1509H33.4042V39.3604H35.5042V37.1509Z" fill="white"/>
        <path d="M37.6 37.1509H35.5V39.3604H37.6V37.1509Z" fill="white"/>
        <path d="M37.6 34.9458H35.5V37.1553H37.6V34.9458Z" fill="white"/>
        <path d="M39.7 34.9458H37.6V37.1553H39.7V34.9458Z" fill="white"/>
        <path d="M39.7 32.7344H37.6V34.9438H39.7V32.7344Z" fill="white"/>
        <path d="M41.7979 32.7344H39.6979V34.9438H41.7979V32.7344Z" fill="white"/>
        <path d="M41.7979 30.5215H39.6979V32.731H41.7979V30.5215Z" fill="white"/>
        <path d="M43.9 30.5215H41.8V32.731H43.9V30.5215Z" fill="white"/>
        <path d="M43.9 28.3096H41.8V30.519H43.9V28.3096Z" fill="white"/>
        <path d="M46 26.0981H43.9V28.3076H46V26.0981Z" fill="white"/>
        <path d="M43.9 23.8853H41.8V26.0947H43.9V23.8853Z" fill="white"/>
        <path d="M41.8 23.8853H39.7V26.0947H41.8V23.8853Z" fill="white"/>
        <path d="M39.6958 26.0947H37.5958V28.3042H39.6958V26.0947Z" fill="white"/>
        <path d="M37.5937 28.3032H35.4937V30.5127H37.5937V28.3032Z" fill="white"/>
        <path d="M35.5 30.5215H33.4V32.731H35.5V30.5215Z" fill="white"/>
        <path d="M33.401 32.7407H31.301V34.9502H33.401V32.7407Z" fill="white"/>
        <path d="M31.3 34.9458H29.2V37.1553H31.3V34.9458Z" fill="white"/>
        <path d="M29.2 37.1421H27.1V39.3516H29.2V37.1421Z" fill="white"/>
        <path d="M27.1052 34.9502H25.0052V37.1597H27.1052V34.9502Z" fill="white"/>
    </g>
    <defs>
        <clipPath id="clip0_1998_123">
            <rect width="42" height="41.9899" fill="white" transform="translate(4 4)"/>
        </clipPath>
    </defs>
</svg>
