<svg width="50" height="50" viewBox="0 0 50 50" fill="none" xmlns="http://www.w3.org/2000/svg">
    <path d="M19.9971 4.09082H17.998V6.08982H19.9971V4.09082Z" fill="white"/>
    <path d="M21.996 4.09082H19.9971V6.08982H21.996V4.09082Z" fill="white"/>
    <path d="M23.996 4.09082H21.9971V6.08982H23.996V4.09082Z" fill="white"/>
    <path d="M26 4.09082H24.001V6.08982H26V4.09082Z" fill="white"/>
    <path d="M27.998 4.09082H25.999V6.08982H27.998V4.09082Z" fill="white"/>
    <path d="M29.9971 4.09082H27.998V6.08982H29.9971V4.09082Z" fill="white"/>
    <path d="M31.9971 4.09082H29.998V6.08982H31.9971V4.09082Z" fill="white"/>
    <path d="M15.999 6.08984H14V8.08884H15.999V6.08984Z" fill="white"/>
    <path d="M17.998 6.08984H15.999V8.08884H17.998V6.08984Z" fill="white"/>
    <path d="M19.9971 6.08984H17.998V8.08884H19.9971V6.08984Z" fill="black"/>
    <path d="M21.996 6.08984H19.9971V8.08884H21.996V6.08984Z" fill="black"/>
    <path d="M23.996 6.08984H21.9971V8.08884H23.996V6.08984Z" fill="black"/>
    <path d="M26 6.08984H24.001V8.08884H26V6.08984Z" fill="black"/>
    <path d="M27.998 6.08984H25.999V8.08884H27.998V6.08984Z" fill="black"/>
    <path d="M29.9971 6.08984H27.998V8.08884H29.9971V6.08984Z" fill="black"/>
    <path d="M31.9971 6.08984H29.998V8.08884H31.9971V6.08984Z" fill="black"/>
    <path d="M33.9949 6.08984H31.9958V8.08884H33.9949V6.08984Z" fill="white"/>
    <path d="M35.999 6.08984H34V8.08884H35.999V6.08984Z" fill="white"/>
    <path d="M13.9951 8.08887H11.9961V10.0879H13.9951V8.08887Z" fill="white"/>
    <path d="M15.999 8.08887H14V10.0879H15.999V8.08887Z" fill="black"/>
    <path d="M17.998 8.08887H15.999V10.0879H17.998V8.08887Z" fill="black"/>
    <path d="M19.9971 8.08887H17.998V10.0879H19.9971V8.08887Z" fill="#F2DE98"/>
    <path d="M21.996 8.08887H19.9971V10.0879H21.996V8.08887Z" fill="#F2DE98"/>
    <path d="M23.996 8.08887H21.9971V10.0879H23.996V8.08887Z" fill="#F2DE98"/>
    <path d="M26 8.08887H24.001V10.0879H26V8.08887Z" fill="#F2DE98"/>
    <path d="M27.998 8.08887H25.999V10.0879H27.998V8.08887Z" fill="#F2DE98"/>
    <path d="M29.9971 8.08887H27.998V10.0879H29.9971V8.08887Z" fill="#F2DE98"/>
    <path d="M31.9971 8.08887H29.998V10.0879H31.9971V8.08887Z" fill="#F2DE98"/>
    <path d="M33.9949 8.08887H31.9958V10.0879H33.9949V8.08887Z" fill="black"/>
    <path d="M35.999 8.08887H34V10.0879H35.999V8.08887Z" fill="black"/>
    <path d="M37.999 8.08887H36V10.0879H37.999V8.08887Z" fill="white"/>
    <path d="M11.996 10.0928H9.99707V12.0918H11.996V10.0928Z" fill="white"/>
    <path d="M13.9951 10.0928H11.9961V12.0918H13.9951V10.0928Z" fill="black"/>
    <path d="M15.999 10.0928H14V12.0918H15.999V10.0928Z" fill="#F2DE98"/>
    <path d="M17.998 10.0928H15.999V12.0918H17.998V10.0928Z" fill="#F2DE98"/>
    <path d="M19.9971 10.0928H17.998V12.0918H19.9971V10.0928Z" fill="#FFC522"/>
    <path d="M21.996 10.0928H19.9971V12.0918H21.996V10.0928Z" fill="#FFC522"/>
    <path d="M23.996 10.0928H21.9971V12.0918H23.996V10.0928Z" fill="#FFC522"/>
    <path d="M26 10.0928H24.001V12.0918H26V10.0928Z" fill="#FFC522"/>
    <path d="M27.998 10.0928H25.999V12.0918H27.998V10.0928Z" fill="#FFC522"/>
    <path d="M29.9971 10.0928H27.998V12.0918H29.9971V10.0928Z" fill="#FFC522"/>
    <path d="M31.9971 10.0928H29.998V12.0918H31.9971V10.0928Z" fill="#FFC522"/>
    <path d="M33.9949 10.0928H31.9958V12.0918H33.9949V10.0928Z" fill="#F2DE98"/>
    <path d="M35.999 10.0928H34V12.0918H35.999V10.0928Z" fill="#F2DE98"/>
    <path d="M37.999 10.0928H36V12.0918H37.999V10.0928Z" fill="black"/>
    <path d="M39.998 10.0928H37.999V12.0918H39.998V10.0928Z" fill="white"/>
    <path d="M9.99707 12.0918H7.99805V14.0908H9.99707V12.0918Z" fill="white"/>
    <path d="M11.996 12.0918H9.99707V14.0908H11.996V12.0918Z" fill="black"/>
    <path d="M13.9951 12.0918H11.9961V14.0908H13.9951V12.0918Z" fill="#FF9605"/>
    <path d="M15.999 12.0918H14V14.0908H15.999V12.0918Z" fill="#FFC522"/>
    <path d="M17.998 12.0918H15.999V14.0908H17.998V12.0918Z" fill="#FFC522"/>
    <path d="M19.9971 12.0918H17.998V14.0908H19.9971V12.0918Z" fill="#FFC522"/>
    <path d="M21.996 12.0918H19.9971V14.0908H21.996V12.0918Z" fill="#FFC522"/>
    <path d="M23.996 12.0918H21.9971V14.0908H23.996V12.0918Z" fill="#FFC522"/>
    <path d="M26 12.0918H24.001V14.0908H26V12.0918Z" fill="#FFC522"/>
    <path d="M27.998 12.0918H25.999V14.0908H27.998V12.0918Z" fill="white"/>
    <path d="M29.9971 12.0918H27.998V14.0908H29.9971V12.0918Z" fill="#FFC522"/>
    <path d="M31.9971 12.0918H29.998V14.0908H31.9971V12.0918Z" fill="white"/>
    <path d="M33.9949 12.0918H31.9958V14.0908H33.9949V12.0918Z" fill="#FFC522"/>
    <path d="M35.999 12.0918H34V14.0908H35.999V12.0918Z" fill="#FFC522"/>
    <path d="M37.999 12.0918H36V14.0908H37.999V12.0918Z" fill="#F2DE98"/>
    <path d="M39.998 12.0918H37.999V14.0908H39.998V12.0918Z" fill="black"/>
    <path d="M41.9971 12.0918H39.998V14.0908H41.9971V12.0918Z" fill="white"/>
    <path d="M7.998 14.0918H5.99902V16.0908H7.998V14.0918Z" fill="white"/>
    <path d="M9.99707 14.0918H7.99805V16.0908H9.99707V14.0918Z" fill="black"/>
    <path d="M11.996 14.0918H9.99707V16.0908H11.996V14.0918Z" fill="#FF9605"/>
    <path d="M13.9951 14.0918H11.9961V16.0908H13.9951V14.0918Z" fill="#FFC522"/>
    <path d="M15.999 14.0918H14V16.0908H15.999V14.0918Z" fill="#FFC522"/>
    <path d="M17.998 14.0918H15.999V16.0908H17.998V14.0918Z" fill="#FFC522"/>
    <path d="M19.9971 14.0918H17.998V16.0908H19.9971V14.0918Z" fill="#FFC522"/>
    <path d="M21.996 14.0918H19.9971V16.0908H21.996V14.0918Z" fill="#FFC522"/>
    <path d="M23.996 14.0918H21.9971V16.0908H23.996V14.0918Z" fill="#FFC522"/>
    <path d="M26 14.0918H24.001V16.0908H26V14.0918Z" fill="#FFC522"/>
    <path d="M27.998 14.0918H25.999V16.0908H27.998V14.0918Z" fill="#FFC522"/>
    <path d="M29.9971 14.0918H27.998V16.0908H29.9971V14.0918Z" fill="#FFC522"/>
    <path d="M31.9971 14.0918H29.998V16.0908H31.9971V14.0918Z" fill="#FFC522"/>
    <path d="M33.9949 14.0918H31.9958V16.0908H33.9949V14.0918Z" fill="white"/>
    <path d="M35.999 14.0918H34V16.0908H35.999V14.0918Z" fill="#FFC522"/>
    <path d="M37.999 14.0918H36V16.0908H37.999V14.0918Z" fill="#FFC522"/>
    <path d="M39.998 14.0918H37.999V16.0908H39.998V14.0918Z" fill="#F2DE98"/>
    <path d="M41.9971 14.0918H39.998V16.0908H41.9971V14.0918Z" fill="black"/>
    <path d="M43.996 14.0918H41.9971V16.0908H43.996V14.0918Z" fill="white"/>
    <path d="M7.998 16.0898H5.99902V18.0888H7.998V16.0898Z" fill="white"/>
    <path d="M9.99707 16.0898H7.99805V18.0888H9.99707V16.0898Z" fill="black"/>
    <path d="M11.996 16.0898H9.99707V18.0888H11.996V16.0898Z" fill="#FF9605"/>
    <path d="M13.9951 16.0898H11.9961V18.0888H13.9951V16.0898Z" fill="#FFC522"/>
    <path d="M15.999 16.0898H14V18.0888H15.999V16.0898Z" fill="#FFC522"/>
    <path d="M17.998 16.0898H15.999V18.0888H17.998V16.0898Z" fill="#FFC522"/>
    <path d="M19.9971 16.0898H17.998V18.0888H19.9971V16.0898Z" fill="#FFC522"/>
    <path d="M21.996 16.0898H19.9971V18.0888H21.996V16.0898Z" fill="#FFC522"/>
    <path d="M23.996 16.0898H21.9971V18.0888H23.996V16.0898Z" fill="#FFC522"/>
    <path d="M26 16.0898H24.001V18.0888H26V16.0898Z" fill="#FFC522"/>
    <path d="M27.998 16.0898H25.999V18.0888H27.998V16.0898Z" fill="#FFC522"/>
    <path d="M29.9971 16.0898H27.998V18.0888H29.9971V16.0898Z" fill="#FFC522"/>
    <path d="M31.9971 16.0898H29.998V18.0888H31.9971V16.0898Z" fill="#FFC522"/>
    <path d="M33.9949 16.0898H31.9958V18.0888H33.9949V16.0898Z" fill="#FFC522"/>
    <path d="M35.999 16.0898H34V18.0888H35.999V16.0898Z" fill="#FFC522"/>
    <path d="M37.999 16.0898H36V18.0888H37.999V16.0898Z" fill="#FFC522"/>
    <path d="M39.998 16.0898H37.999V18.0888H39.998V16.0898Z" fill="#F2DE98"/>
    <path d="M41.9971 16.0898H39.998V18.0888H41.9971V16.0898Z" fill="black"/>
    <path d="M43.996 16.0898H41.9971V18.0888H43.996V16.0898Z" fill="white"/>
    <path d="M5.99902 18.0889H4V20.0879H5.99902V18.0889Z" fill="white"/>
    <path d="M7.998 18.0889H5.99902V20.0879H7.998V18.0889Z" fill="black"/>
    <path d="M9.99707 18.0889H7.99805V20.0879H9.99707V18.0889Z" fill="#1A1A1A"/>
    <path d="M11.996 18.0889H9.99707V20.0879H11.996V18.0889Z" fill="#1A1A1A"/>
    <path d="M13.9951 18.0889H11.9961V20.0879H13.9951V18.0889Z" fill="#1A1A1A"/>
    <path d="M15.999 18.0889H14V20.0879H15.999V18.0889Z" fill="#1A1A1A"/>
    <path d="M17.998 18.0889H15.999V20.0879H17.998V18.0889Z" fill="#1A1A1A"/>
    <path d="M19.9971 18.0889H17.998V20.0879H19.9971V18.0889Z" fill="#1A1A1A"/>
    <path d="M21.996 18.0889H19.9971V20.0879H21.996V18.0889Z" fill="#1A1A1A"/>
    <path d="M23.996 18.0889H21.9971V20.0879H23.996V18.0889Z" fill="#1A1A1A"/>
    <path d="M26 18.0889H24.001V20.0879H26V18.0889Z" fill="#1A1A1A"/>
    <path d="M27.998 18.0889H25.999V20.0879H27.998V18.0889Z" fill="#1A1A1A"/>
    <path d="M29.9971 18.0889H27.998V20.0879H29.9971V18.0889Z" fill="#1A1A1A"/>
    <path d="M31.9971 18.0889H29.998V20.0879H31.9971V18.0889Z" fill="#1A1A1A"/>
    <path d="M33.9949 18.0889H31.9958V20.0879H33.9949V18.0889Z" fill="#1A1A1A"/>
    <path d="M35.999 18.0889H34V20.0879H35.999V18.0889Z" fill="#1A1A1A"/>
    <path d="M37.999 18.0889H36V20.0879H37.999V18.0889Z" fill="#1A1A1A"/>
    <path d="M39.998 18.0889H37.999V20.0879H39.998V18.0889Z" fill="#1A1A1A"/>
    <path d="M41.9971 18.0889H39.998V20.0879H41.9971V18.0889Z" fill="#1A1A1A"/>
    <path d="M43.996 18.0889H41.9971V20.0879H43.996V18.0889Z" fill="black"/>
    <path d="M46 18.0889H44.001V20.0879H46V18.0889Z" fill="white"/>
    <path d="M5.99902 20.0928H4V22.0918H5.99902V20.0928Z" fill="white"/>
    <path d="M7.998 20.0928H5.99902V22.0918H7.998V20.0928Z" fill="black"/>
    <path d="M9.99707 20.0928H7.99805V22.0918H9.99707V20.0928Z" fill="#FF9605"/>
    <path d="M11.996 20.0928H9.99707V22.0918H11.996V20.0928Z" fill="black"/>
    <path d="M13.9951 20.0928H11.9961V22.0918H13.9951V20.0928Z" fill="#00A6E8"/>
    <path d="M15.999 20.0928H14V22.0918H15.999V20.0928Z" fill="#00A6E8"/>
    <path d="M17.998 20.0928H15.999V22.0918H17.998V20.0928Z" fill="#00A6E8"/>
    <path d="M19.9971 20.0928H17.998V22.0918H19.9971V20.0928Z" fill="#45B3E9"/>
    <path d="M21.996 20.0928H19.9971V22.0918H21.996V20.0928Z" fill="white"/>
    <path d="M23.996 20.0928H21.9971V22.0918H23.996V20.0928Z" fill="black"/>
    <path d="M26 20.0928H24.001V22.0918H26V20.0928Z" fill="black"/>
    <path d="M27.998 20.0928H25.999V22.0918H27.998V20.0928Z" fill="black"/>
    <path d="M29.9971 20.0928H27.998V22.0918H29.9971V20.0928Z" fill="#D62F73"/>
    <path d="M31.9971 20.0928H29.998V22.0918H31.9971V20.0928Z" fill="#D62F73"/>
    <path d="M33.9949 20.0928H31.9958V22.0918H33.9949V20.0928Z" fill="#D62F73"/>
    <path d="M35.999 20.0928H34V22.0918H35.999V20.0928Z" fill="#E05080"/>
    <path d="M37.999 20.0928H36V22.0918H37.999V20.0928Z" fill="white"/>
    <path d="M39.998 20.0928H37.999V22.0918H39.998V20.0928Z" fill="black"/>
    <path d="M41.9971 20.0928H39.998V22.0918H41.9971V20.0928Z" fill="#F2DE98"/>
    <path d="M43.996 20.0928H41.9971V22.0918H43.996V20.0928Z" fill="black"/>
    <path d="M46 20.0928H44.001V22.0918H46V20.0928Z" fill="white"/>
    <path d="M5.99902 22.0918H4V24.0908H5.99902V22.0918Z" fill="white"/>
    <path d="M7.998 22.0918H5.99902V24.0908H7.998V22.0918Z" fill="black"/>
    <path d="M9.99707 22.0918H7.99805V24.0908H9.99707V22.0918Z" fill="#FF9605"/>
    <path d="M11.996 22.0918H9.99707V24.0908H11.996V22.0918Z" fill="black"/>
    <path d="M13.9951 22.0918H11.9961V24.0908H13.9951V22.0918Z" fill="#00A6E8"/>
    <path d="M15.999 22.0918H14V24.0908H15.999V22.0918Z" fill="#00A6E8"/>
    <path d="M17.998 22.0918H15.999V24.0908H17.998V22.0918Z" fill="#45B3E9"/>
    <path d="M19.9971 22.0918H17.998V24.0908H19.9971V22.0918Z" fill="#45B3E9"/>
    <path d="M21.996 22.0918H19.9971V24.0908H21.996V22.0918Z" fill="#45B3E9"/>
    <path d="M23.996 22.0918H21.9971V24.0908H23.996V22.0918Z" fill="#1A1A1A"/>
    <path d="M26 22.0918H24.001V24.0908H26V22.0918Z" fill="#FFC522"/>
    <path d="M27.998 22.0918H25.999V24.0908H27.998V22.0918Z" fill="black"/>
    <path d="M29.9971 22.0918H27.998V24.0908H29.9971V22.0918Z" fill="#D62F73"/>
    <path d="M31.9971 22.0918H29.998V24.0908H31.9971V22.0918Z" fill="#D62F73"/>
    <path d="M33.9949 22.0918H31.9958V24.0908H33.9949V22.0918Z" fill="#E05080"/>
    <path d="M35.999 22.0918H34V24.0908H35.999V22.0918Z" fill="#E05080"/>
    <path d="M37.999 22.0918H36V24.0908H37.999V22.0918Z" fill="#E05080"/>
    <path d="M39.998 22.0918H37.999V24.0908H39.998V22.0918Z" fill="#1A1A1A"/>
    <path d="M41.9971 22.0918H39.998V24.0908H41.9971V22.0918Z" fill="#F2DE98"/>
    <path d="M43.996 22.0918H41.9971V24.0908H43.996V22.0918Z" fill="black"/>
    <path d="M46 22.0918H44.001V24.0908H46V22.0918Z" fill="white"/>
    <path d="M5.99902 24.0918H4V26.0908H5.99902V24.0918Z" fill="white"/>
    <path d="M7.998 24.0918H5.99902V26.0908H7.998V24.0918Z" fill="black"/>
    <path d="M9.99707 24.0918H7.99805V26.0908H9.99707V24.0918Z" fill="#FF9605"/>
    <path d="M11.996 24.0918H9.99707V26.0908H11.996V24.0918Z" fill="#FFC522"/>
    <path d="M13.9951 24.0918H11.9961V26.0908H13.9951V24.0918Z" fill="black"/>
    <path d="M15.999 24.0918H14V26.0908H15.999V24.0918Z" fill="#00A6E8"/>
    <path d="M17.998 24.0918H15.999V26.0908H17.998V24.0918Z" fill="#00A6E8"/>
    <path d="M19.9971 24.0918H17.998V26.0908H19.9971V24.0918Z" fill="#45B3E9"/>
    <path d="M21.996 24.0918H19.9971V26.0908H21.996V24.0918Z" fill="#1A1A1A"/>
    <path d="M23.996 24.0918H21.9971V26.0908H23.996V24.0918Z" fill="#FFC522"/>
    <path d="M26 24.0918H24.001V26.0908H26V24.0918Z" fill="#FFC522"/>
    <path d="M27.998 24.0918H25.999V26.0908H27.998V24.0918Z" fill="#FFC522"/>
    <path d="M29.9971 24.0918H27.998V26.0908H29.9971V24.0918Z" fill="black"/>
    <path d="M31.9971 24.0918H29.998V26.0908H31.9971V24.0918Z" fill="#D62F73"/>
    <path d="M33.9949 24.0918H31.9958V26.0908H33.9949V24.0918Z" fill="#D62F73"/>
    <path d="M35.999 24.0918H34V26.0908H35.999V24.0918Z" fill="#E05080"/>
    <path d="M37.999 24.0918H36V26.0908H37.999V24.0918Z" fill="#1A1A1A"/>
    <path d="M39.998 24.0918H37.999V26.0908H39.998V24.0918Z" fill="#FFC522"/>
    <path d="M41.9971 24.0918H39.998V26.0908H41.9971V24.0918Z" fill="#F2DE98"/>
    <path d="M43.996 24.0918H41.9971V26.0908H43.996V24.0918Z" fill="black"/>
    <path d="M46 24.0918H44.001V26.0908H46V24.0918Z" fill="white"/>
    <path d="M5.99902 26.0908H4V28.0898H5.99902V26.0908Z" fill="white"/>
    <path d="M7.998 26.0908H5.99902V28.0898H7.998V26.0908Z" fill="black"/>
    <path d="M9.99707 26.0908H7.99805V28.0898H9.99707V26.0908Z" fill="#FF9605"/>
    <path d="M11.996 26.0908H9.99707V28.0898H11.996V26.0908Z" fill="#FFC522"/>
    <path d="M13.9951 26.0908H11.9961V28.0898H13.9951V26.0908Z" fill="#FFC522"/>
    <path d="M15.999 26.0908H14V28.0898H15.999V26.0908Z" fill="#1A1A1A"/>
    <path d="M17.998 26.0908H15.999V28.0898H17.998V26.0908Z" fill="#1A1A1A"/>
    <path d="M19.9971 26.0908H17.998V28.0898H19.9971V26.0908Z" fill="#1A1A1A"/>
    <path d="M21.996 26.0908H19.9971V28.0898H21.996V26.0908Z" fill="#FFC522"/>
    <path d="M23.996 26.0908H21.9971V28.0898H23.996V26.0908Z" fill="#FFC522"/>
    <path d="M26 26.0908H24.001V28.0898H26V26.0908Z" fill="#FFC522"/>
    <path d="M27.998 26.0908H25.999V28.0898H27.998V26.0908Z" fill="#FFC522"/>
    <path d="M29.9971 26.0908H27.998V28.0898H29.9971V26.0908Z" fill="#FFC522"/>
    <path d="M31.9971 26.0908H29.998V28.0898H31.9971V26.0908Z" fill="#1A1A1A"/>
    <path d="M33.9949 26.0908H31.9958V28.0898H33.9949V26.0908Z" fill="#1A1A1A"/>
    <path d="M35.999 26.0908H34V28.0898H35.999V26.0908Z" fill="#1A1A1A"/>
    <path d="M37.999 26.0908H36V28.0898H37.999V26.0908Z" fill="#FFC522"/>
    <path d="M39.998 26.0908H37.999V28.0898H39.998V26.0908Z" fill="#FFC522"/>
    <path d="M41.9971 26.0908H39.998V28.0898H41.9971V26.0908Z" fill="#F2DE98"/>
    <path d="M43.996 26.0908H41.9971V28.0898H43.996V26.0908Z" fill="black"/>
    <path d="M46 26.0908H44.001V28.0898H46V26.0908Z" fill="white"/>
    <path d="M5.99902 28.0898H4V30.0888H5.99902V28.0898Z" fill="white"/>
    <path d="M7.998 28.0898H5.99902V30.0888H7.998V28.0898Z" fill="black"/>
    <path d="M9.99707 28.0898H7.99805V30.0888H9.99707V28.0898Z" fill="#FF9605"/>
    <path d="M11.996 28.0898H9.99707V30.0888H11.996V28.0898Z" fill="#FFC522"/>
    <path d="M13.9951 28.0898H11.9961V30.0888H13.9951V28.0898Z" fill="#FFC522"/>
    <path d="M15.999 28.0898H14V30.0888H15.999V28.0898Z" fill="#FFC522"/>
    <path d="M17.998 28.0898H15.999V30.0888H17.998V28.0898Z" fill="#FFC522"/>
    <path d="M19.9971 28.0898H17.998V30.0888H19.9971V28.0898Z" fill="#FFC522"/>
    <path d="M21.996 28.0898H19.9971V30.0888H21.996V28.0898Z" fill="#FFC522"/>
    <path d="M23.996 28.0898H21.9971V30.0888H23.996V28.0898Z" fill="#FFC522"/>
    <path d="M26 28.0898H24.001V30.0888H26V28.0898Z" fill="#FFC522"/>
    <path d="M27.998 28.0898H25.999V30.0888H27.998V28.0898Z" fill="#FFC522"/>
    <path d="M29.9971 28.0898H27.998V30.0888H29.9971V28.0898Z" fill="#FFC522"/>
    <path d="M31.9971 28.0898H29.998V30.0888H31.9971V28.0898Z" fill="#FFC522"/>
    <path d="M33.9949 28.0898H31.9958V30.0888H33.9949V28.0898Z" fill="#FFC522"/>
    <path d="M35.999 28.0898H34V30.0888H35.999V28.0898Z" fill="#FFC522"/>
    <path d="M37.999 28.0898H36V30.0888H37.999V28.0898Z" fill="#FFC522"/>
    <path d="M39.998 28.0898H37.999V30.0888H39.998V28.0898Z" fill="#FFC522"/>
    <path d="M41.9971 28.0898H39.998V30.0888H41.9971V28.0898Z" fill="#F2DE98"/>
    <path d="M43.996 28.0898H41.9971V30.0888H43.996V28.0898Z" fill="black"/>
    <path d="M46 28.0898H44.001V30.0888H46V28.0898Z" fill="white"/>
    <path d="M5.99902 30.0938H4V32.0928H5.99902V30.0938Z" fill="white"/>
    <path d="M7.998 30.0938H5.99902V32.0928H7.998V30.0938Z" fill="black"/>
    <path d="M9.99707 30.0938H7.99805V32.0928H9.99707V30.0938Z" fill="#FF9605"/>
    <path d="M11.996 30.0938H9.99707V32.0928H11.996V30.0938Z" fill="#FFC522"/>
    <path d="M13.9951 30.0938H11.9961V32.0928H13.9951V30.0938Z" fill="#FFC522"/>
    <path d="M15.999 30.0938H14V32.0928H15.999V30.0938Z" fill="#71382A"/>
    <path d="M17.998 30.0938H15.999V32.0928H17.998V30.0938Z" fill="#71382A"/>
    <path d="M19.9971 30.0938H17.998V32.0928H19.9971V30.0938Z" fill="#71382A"/>
    <path d="M21.996 30.0938H19.9971V32.0928H21.996V30.0938Z" fill="#71382A"/>
    <path d="M23.996 30.0938H21.9971V32.0928H23.996V30.0938Z" fill="#71382A"/>
    <path d="M26 30.0938H24.001V32.0928H26V30.0938Z" fill="#71382A"/>
    <path d="M27.998 30.0938H25.999V32.0928H27.998V30.0938Z" fill="#71382A"/>
    <path d="M29.9971 30.0938H27.998V32.0928H29.9971V30.0938Z" fill="#71382A"/>
    <path d="M31.9971 30.0938H29.998V32.0928H31.9971V30.0938Z" fill="#71382A"/>
    <path d="M33.9949 30.0938H31.9958V32.0928H33.9949V30.0938Z" fill="#71382A"/>
    <path d="M35.999 30.0938H34V32.0928H35.999V30.0938Z" fill="#71382A"/>
    <path d="M37.999 30.0938H36V32.0928H37.999V30.0938Z" fill="#FFC522"/>
    <path d="M39.998 30.0938H37.999V32.0928H39.998V30.0938Z" fill="#FFC522"/>
    <path d="M41.9971 30.0938H39.998V32.0928H41.9971V30.0938Z" fill="#F2DE98"/>
    <path d="M43.996 30.0938H41.9971V32.0928H43.996V30.0938Z" fill="black"/>
    <path d="M46 30.0938H44.001V32.0928H46V30.0938Z" fill="white"/>
    <path d="M7.998 32.0938H5.99902V34.0927H7.998V32.0938Z" fill="white"/>
    <path d="M9.99707 32.0938H7.99805V34.0927H9.99707V32.0938Z" fill="black"/>
    <path d="M11.996 32.0938H9.99707V34.0927H11.996V32.0938Z" fill="#FF9605"/>
    <path d="M13.9951 32.0938H11.9961V34.0927H13.9951V32.0938Z" fill="#FFC522"/>
    <path d="M15.999 32.0938H14V34.0927H15.999V32.0938Z" fill="#71382A"/>
    <path d="M17.998 32.0938H15.999V34.0927H17.998V32.0938Z" fill="white"/>
    <path d="M19.9971 32.0938H17.998V34.0927H19.9971V32.0938Z" fill="white"/>
    <path d="M21.996 32.0938H19.9971V34.0927H21.996V32.0938Z" fill="white"/>
    <path d="M23.996 32.0938H21.9971V34.0927H23.996V32.0938Z" fill="white"/>
    <path d="M26 32.0938H24.001V34.0927H26V32.0938Z" fill="white"/>
    <path d="M27.998 32.0938H25.999V34.0927H27.998V32.0938Z" fill="white"/>
    <path d="M29.9971 32.0938H27.998V34.0927H29.9971V32.0938Z" fill="white"/>
    <path d="M31.9971 32.0938H29.998V34.0927H31.9971V32.0938Z" fill="white"/>
    <path d="M33.9949 32.0938H31.9958V34.0927H33.9949V32.0938Z" fill="white"/>
    <path d="M35.999 32.0938H34V34.0927H35.999V32.0938Z" fill="#71382A"/>
    <path d="M37.999 32.0938H36V34.0927H37.999V32.0938Z" fill="#FFC522"/>
    <path d="M39.998 32.0938H37.999V34.0927H39.998V32.0938Z" fill="#F2DE98"/>
    <path d="M41.9971 32.0938H39.998V34.0927H41.9971V32.0938Z" fill="black"/>
    <path d="M43.996 32.0938H41.9971V34.0927H43.996V32.0938Z" fill="white"/>
    <path d="M7.998 34.0918H5.99902V36.0908H7.998V34.0918Z" fill="white"/>
    <path d="M9.99707 34.0918H7.99805V36.0908H9.99707V34.0918Z" fill="black"/>
    <path d="M11.996 34.0918H9.99707V36.0908H11.996V34.0918Z" fill="#FF9605"/>
    <path d="M13.9951 34.0918H11.9961V36.0908H13.9951V34.0918Z" fill="#FFC522"/>
    <path d="M15.999 34.0918H14V36.0908H15.999V34.0918Z" fill="#FFC522"/>
    <path d="M17.998 34.0918H15.999V36.0908H17.998V34.0918Z" fill="#71382A"/>
    <path d="M19.9971 34.0918H17.998V36.0908H19.9971V34.0918Z" fill="white"/>
    <path d="M21.996 34.0918H19.9971V36.0908H21.996V34.0918Z" fill="white"/>
    <path d="M23.996 34.0918H21.9971V36.0908H23.996V34.0918Z" fill="white"/>
    <path d="M26 34.0918H24.001V36.0908H26V34.0918Z" fill="white"/>
    <path d="M27.998 34.0918H25.999V36.0908H27.998V34.0918Z" fill="white"/>
    <path d="M29.9971 34.0918H27.998V36.0908H29.9971V34.0918Z" fill="white"/>
    <path d="M31.9971 34.0918H29.998V36.0908H31.9971V34.0918Z" fill="white"/>
    <path d="M33.9949 34.0918H31.9958V36.0908H33.9949V34.0918Z" fill="#71382A"/>
    <path d="M35.999 34.0918H34V36.0908H35.999V34.0918Z" fill="#FFC522"/>
    <path d="M37.999 34.0918H36V36.0908H37.999V34.0918Z" fill="#FFC522"/>
    <path d="M39.998 34.0918H37.999V36.0908H39.998V34.0918Z" fill="#F2DE98"/>
    <path d="M41.9971 34.0918H39.998V36.0908H41.9971V34.0918Z" fill="black"/>
    <path d="M43.996 34.0918H41.9971V36.0908H43.996V34.0918Z" fill="white"/>
    <path d="M7.998 36.0908H5.99902V38.0898H7.998V36.0908Z" fill="white"/>
    <path d="M9.99707 36.0908H7.99805V38.0898H9.99707V36.0908Z" fill="white"/>
    <path d="M11.996 36.0908H9.99707V38.0898H11.996V36.0908Z" fill="black"/>
    <path d="M13.9951 36.0908H11.9961V38.0898H13.9951V36.0908Z" fill="#FF9605"/>
    <path d="M15.999 36.0908H14V38.0898H15.999V36.0908Z" fill="#FFC522"/>
    <path d="M17.998 36.0908H15.999V38.0898H17.998V36.0908Z" fill="#FFC522"/>
    <path d="M19.9971 36.0908H17.998V38.0898H19.9971V36.0908Z" fill="#71382A"/>
    <path d="M21.996 36.0908H19.9971V38.0898H21.996V36.0908Z" fill="#71382A"/>
    <path d="M23.996 36.0908H21.9971V38.0898H23.996V36.0908Z" fill="#71382A"/>
    <path d="M26 36.0908H24.001V38.0898H26V36.0908Z" fill="#71382A"/>
    <path d="M27.998 36.0908H25.999V38.0898H27.998V36.0908Z" fill="#71382A"/>
    <path d="M29.9971 36.0908H27.998V38.0898H29.9971V36.0908Z" fill="#71382A"/>
    <path d="M31.9971 36.0908H29.998V38.0898H31.9971V36.0908Z" fill="#71382A"/>
    <path d="M33.9949 36.0908H31.9958V38.0898H33.9949V36.0908Z" fill="#FFC522"/>
    <path d="M35.999 36.0908H34V38.0898H35.999V36.0908Z" fill="#FFC522"/>
    <path d="M37.999 36.0908H36V38.0898H37.999V36.0908Z" fill="#F2DE98"/>
    <path d="M39.998 36.0908H37.999V38.0898H39.998V36.0908Z" fill="black"/>
    <path d="M41.9971 36.0908H39.998V38.0898H41.9971V36.0908Z" fill="white"/>
    <path d="M43.996 36.0908H41.9971V38.0898H43.996V36.0908Z" fill="white"/>
    <path d="M9.99707 38.0898H7.99805V40.0888H9.99707V38.0898Z" fill="white"/>
    <path d="M11.996 38.0898H9.99707V40.0888H11.996V38.0898Z" fill="white"/>
    <path d="M13.9951 38.0898H11.9961V40.0888H13.9951V38.0898Z" fill="black"/>
    <path d="M15.999 38.0898H14V40.0888H15.999V38.0898Z" fill="#FF9605"/>
    <path d="M17.998 38.0898H15.999V40.0888H17.998V38.0898Z" fill="#FF9605"/>
    <path d="M19.9971 38.0898H17.998V40.0888H19.9971V38.0898Z" fill="#FFC522"/>
    <path d="M21.996 38.0898H19.9971V40.0888H21.996V38.0898Z" fill="#FFC522"/>
    <path d="M23.996 38.0898H21.9971V40.0888H23.996V38.0898Z" fill="#FFC522"/>
    <path d="M26 38.0898H24.001V40.0888H26V38.0898Z" fill="#FFC522"/>
    <path d="M27.998 38.0898H25.999V40.0888H27.998V38.0898Z" fill="#FFC522"/>
    <path d="M29.9971 38.0898H27.998V40.0888H29.9971V38.0898Z" fill="#FFC522"/>
    <path d="M31.9971 38.0898H29.998V40.0888H31.9971V38.0898Z" fill="#FFC522"/>
    <path d="M33.9949 38.0898H31.9958V40.0888H33.9949V38.0898Z" fill="#F2DE98"/>
    <path d="M35.999 38.0898H34V40.0888H35.999V38.0898Z" fill="#F2DE98"/>
    <path d="M37.999 38.0898H36V40.0888H37.999V38.0898Z" fill="black"/>
    <path d="M39.998 38.0898H37.999V40.0888H39.998V38.0898Z" fill="white"/>
    <path d="M41.9971 38.0898H39.998V40.0888H41.9971V38.0898Z" fill="white"/>
    <path d="M11.996 40.0938H9.99707V42.0927H11.996V40.0938Z" fill="white"/>
    <path d="M13.9951 40.0938H11.9961V42.0927H13.9951V40.0938Z" fill="white"/>
    <path d="M15.999 40.0938H14V42.0927H15.999V40.0938Z" fill="black"/>
    <path d="M17.998 40.0938H15.999V42.0927H17.998V40.0938Z" fill="black"/>
    <path d="M19.9971 40.0938H17.998V42.0927H19.9971V40.0938Z" fill="#FF9605"/>
    <path d="M21.996 40.0938H19.9971V42.0927H21.996V40.0938Z" fill="#FF9605"/>
    <path d="M23.996 40.0938H21.9971V42.0927H23.996V40.0938Z" fill="#FF9605"/>
    <path d="M26 40.0938H24.001V42.0927H26V40.0938Z" fill="#FF9605"/>
    <path d="M27.998 40.0938H25.999V42.0927H27.998V40.0938Z" fill="#FF9605"/>
    <path d="M29.9971 40.0938H27.998V42.0927H29.9971V40.0938Z" fill="#FF9605"/>
    <path d="M31.9971 40.0938H29.998V42.0927H31.9971V40.0938Z" fill="#FF9605"/>
    <path d="M33.9949 40.0938H31.9958V42.0927H33.9949V40.0938Z" fill="black"/>
    <path d="M35.999 40.0938H34V42.0927H35.999V40.0938Z" fill="black"/>
    <path d="M37.999 40.0938H36V42.0927H37.999V40.0938Z" fill="white"/>
    <path d="M39.998 40.0938H37.999V42.0927H39.998V40.0938Z" fill="white"/>
    <path d="M13.9951 42.0938H11.9961V44.0927H13.9951V42.0938Z" fill="white"/>
    <path d="M15.999 42.0938H14V44.0927H15.999V42.0938Z" fill="white"/>
    <path d="M17.998 42.0938H15.999V44.0927H17.998V42.0938Z" fill="white"/>
    <path d="M19.9971 42.0938H17.998V44.0927H19.9971V42.0938Z" fill="black"/>
    <path d="M21.996 42.0938H19.9971V44.0927H21.996V42.0938Z" fill="black"/>
    <path d="M23.996 42.0938H21.9971V44.0927H23.996V42.0938Z" fill="black"/>
    <path d="M26 42.0938H24.001V44.0927H26V42.0938Z" fill="black"/>
    <path d="M27.998 42.0938H25.999V44.0927H27.998V42.0938Z" fill="black"/>
    <path d="M29.9971 42.0938H27.998V44.0927H29.9971V42.0938Z" fill="black"/>
    <path d="M31.9971 42.0938H29.998V44.0927H31.9971V42.0938Z" fill="black"/>
    <path d="M33.9949 42.0938H31.9958V44.0927H33.9949V42.0938Z" fill="white"/>
    <path d="M35.999 42.0938H34V44.0927H35.999V42.0938Z" fill="white"/>
    <path d="M37.999 42.0938H36V44.0927H37.999V42.0938Z" fill="white"/>
    <path d="M17.998 44.0918H15.999V46.0908H17.998V44.0918Z" fill="white"/>
    <path d="M19.9971 44.0918H17.998V46.0908H19.9971V44.0918Z" fill="white"/>
    <path d="M21.996 44.0918H19.9971V46.0908H21.996V44.0918Z" fill="white"/>
    <path d="M23.996 44.0918H21.9971V46.0908H23.996V44.0918Z" fill="white"/>
    <path d="M26 44.0918H24.001V46.0908H26V44.0918Z" fill="white"/>
    <path d="M27.998 44.0918H25.999V46.0908H27.998V44.0918Z" fill="white"/>
    <path d="M29.9971 44.0918H27.998V46.0908H29.9971V44.0918Z" fill="white"/>
    <path d="M31.9971 44.0918H29.998V46.0908H31.9971V44.0918Z" fill="white"/>
    <path d="M33.9949 44.0918H31.9958V46.0908H33.9949V44.0918Z" fill="white"/>
</svg>
