<svg width="60" height="60" viewBox="0 0 60 60" fill="none" xmlns="http://www.w3.org/2000/svg">
    <path d="M5.84464 37.5215H3.65869V39.7166H5.84464V37.5215Z" fill="#808080"/>
    <path d="M3.98871 12.6895H2.19482V14.4672H3.98871V12.6895Z" fill="black"/>
    <path d="M5.78314 12.6895H3.98926V14.4672H5.78314V12.6895Z" fill="black"/>
    <path d="M7.57709 12.6895H5.7832V14.4672H7.57709V12.6895Z" fill="black"/>
    <path d="M9.37006 12.6895H7.57617V14.4672H9.37006V12.6895Z" fill="black"/>
    <path d="M11.164 12.6895H9.37012V14.4672H11.164V12.6895Z" fill="black"/>
    <path d="M12.9584 12.6895H11.1646V14.4672H12.9584V12.6895Z" fill="black"/>
    <path d="M14.7514 12.6895H12.9575V14.4672H14.7514V12.6895Z" fill="black"/>
    <path d="M16.5454 12.6895H14.7515V14.4672H16.5454V12.6895Z" fill="black"/>
    <path d="M18.3398 12.6895H16.5459V14.4672H18.3398V12.6895Z" fill="black"/>
    <path d="M20.1337 12.6895H18.3398V14.4672H20.1337V12.6895Z" fill="black"/>
    <path d="M21.9277 12.6895H20.1338V14.4672H21.9277V12.6895Z" fill="black"/>
    <path d="M23.7211 12.6895H21.9272V14.4672H23.7211V12.6895Z" fill="black"/>
    <path d="M25.5161 12.6895H23.7222V14.4672H25.5161V12.6895Z" fill="black"/>
    <path d="M27.31 12.6895H25.5161V14.4672H27.31V12.6895Z" fill="black"/>
    <path d="M29.1025 12.6895H27.3086V14.4672H29.1025V12.6895Z" fill="black"/>
    <path d="M30.8964 12.6895H29.1025V14.4672H30.8964V12.6895Z" fill="black"/>
    <path d="M32.6913 12.6895H30.8975V14.4672H32.6913V12.6895Z" fill="black"/>
    <path d="M34.4843 12.6895H32.6904V14.4672H34.4843V12.6895Z" fill="black"/>
    <path d="M36.2807 12.6895H34.4868V14.4672H36.2807V12.6895Z" fill="black"/>
    <path d="M38.0727 12.6895H36.2788V14.4672H38.0727V12.6895Z" fill="black"/>
    <path d="M39.8666 12.6895H38.0728V14.4672H39.8666V12.6895Z" fill="black"/>
    <path d="M41.6591 12.6895H39.8652V14.4672H41.6591V12.6895Z" fill="black"/>
    <path d="M43.454 12.6895H41.6602V14.4672H43.454V12.6895Z" fill="black"/>
    <path d="M45.2485 12.6895H43.4546V14.4672H45.2485V12.6895Z" fill="black"/>
    <path d="M47.0424 12.6895H45.2485V14.4672H47.0424V12.6895Z" fill="black"/>
    <path d="M48.8344 12.6895H47.0405V14.4672H48.8344V12.6895Z" fill="black"/>
    <path d="M50.6293 12.6895H48.8354V14.4672H50.6293V12.6895Z" fill="black"/>
    <path d="M52.4238 12.6895H50.6299V14.4672H52.4238V12.6895Z" fill="black"/>
    <path d="M54.2167 12.6895H52.4229V14.4672H54.2167V12.6895Z" fill="black"/>
    <path d="M56.0121 12.6895H54.2183V14.4672H56.0121V12.6895Z" fill="black"/>
    <path d="M57.8046 12.6895H56.0107V14.4672H57.8046V12.6895Z" fill="black"/>
    <path d="M3.98871 14.4668H2.19482V16.2445H3.98871V14.4668Z" fill="black"/>
    <path d="M5.78314 14.4668H3.98926V16.2445H5.78314V14.4668Z" fill="#CCCCCC"/>
    <path d="M7.57709 14.4668H5.7832V16.2445H7.57709V14.4668Z" fill="#CCCCCC"/>
    <path d="M9.37006 14.4668H7.57617V16.2445H9.37006V14.4668Z" fill="#CCCCCC"/>
    <path d="M11.164 14.4668H9.37012V16.2445H11.164V14.4668Z" fill="#CCCCCC"/>
    <path d="M12.9584 14.4668H11.1646V16.2445H12.9584V14.4668Z" fill="#CCCCCC"/>
    <path d="M14.7514 14.4668H12.9575V16.2445H14.7514V14.4668Z" fill="#CCCCCC"/>
    <path d="M16.5463 14.4668H14.7524V16.2445H16.5463V14.4668Z" fill="#CCCCCC"/>
    <path d="M18.3398 14.4668H16.5459V16.2445H18.3398V14.4668Z" fill="#CCCCCC"/>
    <path d="M20.1337 14.4668H18.3398V16.2445H20.1337V14.4668Z" fill="#CCCCCC"/>
    <path d="M21.9267 14.4668H20.1328V16.2445H21.9267V14.4668Z" fill="#CCCCCC"/>
    <path d="M23.7211 14.4668H21.9272V16.2445H23.7211V14.4668Z" fill="#CCCCCC"/>
    <path d="M25.5161 14.4668H23.7222V16.2445H25.5161V14.4668Z" fill="#CCCCCC"/>
    <path d="M27.31 14.4668H25.5161V16.2445H27.31V14.4668Z" fill="#CCCCCC"/>
    <path d="M29.1025 14.4668H27.3086V16.2445H29.1025V14.4668Z" fill="#CCCCCC"/>
    <path d="M30.8964 14.4668H29.1025V16.2445H30.8964V14.4668Z" fill="white"/>
    <path d="M32.6913 14.4668H30.8975V16.2445H32.6913V14.4668Z" fill="white"/>
    <path d="M34.4843 14.4668H32.6904V16.2445H34.4843V14.4668Z" fill="white"/>
    <path d="M36.2807 14.4668H34.4868V16.2445H36.2807V14.4668Z" fill="#CCCCCC"/>
    <path d="M38.0727 14.4668H36.2788V16.2445H38.0727V14.4668Z" fill="#CCCCCC"/>
    <path d="M39.8666 14.4668H38.0728V16.2445H39.8666V14.4668Z" fill="white"/>
    <path d="M41.6591 14.4668H39.8652V16.2445H41.6591V14.4668Z" fill="white"/>
    <path d="M43.454 14.4668H41.6602V16.2445H43.454V14.4668Z" fill="white"/>
    <path d="M45.2485 14.4668H43.4546V16.2445H45.2485V14.4668Z" fill="white"/>
    <path d="M47.0424 14.4668H45.2485V16.2445H47.0424V14.4668Z" fill="white"/>
    <path d="M48.8344 14.4668H47.0405V16.2445H48.8344V14.4668Z" fill="#CCCCCC"/>
    <path d="M50.6293 14.4668H48.8354V16.2445H50.6293V14.4668Z" fill="#CCCCCC"/>
    <path d="M52.4238 14.4668H50.6299V16.2445H52.4238V14.4668Z" fill="white"/>
    <path d="M54.2167 14.4668H52.4229V16.2445H54.2167V14.4668Z" fill="#CCCCCC"/>
    <path d="M56.0121 14.4668H54.2183V16.2445H56.0121V14.4668Z" fill="#CCCCCC"/>
    <path d="M57.8046 14.4668H56.0107V16.2445H57.8046V14.4668Z" fill="black"/>
    <path d="M3.98871 16.2441H2.19482V18.0219H3.98871V16.2441Z" fill="black"/>
    <path d="M5.78314 16.2441H3.98926V18.0219H5.78314V16.2441Z" fill="#808080"/>
    <path d="M7.57709 16.2441H5.7832V18.0219H7.57709V16.2441Z" fill="#4D4D4D"/>
    <path d="M9.37006 16.2441H7.57617V18.0219H9.37006V16.2441Z" fill="#4D4D4D"/>
    <path d="M11.164 16.2441H9.37012V18.0219H11.164V16.2441Z" fill="#4D4D4D"/>
    <path d="M12.9584 16.2441H11.1646V18.0219H12.9584V16.2441Z" fill="#4D4D4D"/>
    <path d="M14.7514 16.2441H12.9575V18.0219H14.7514V16.2441Z" fill="#4D4D4D"/>
    <path d="M16.5463 16.2441H14.7524V18.0219H16.5463V16.2441Z" fill="#4D4D4D"/>
    <path d="M18.3398 16.2441H16.5459V18.0219H18.3398V16.2441Z" fill="#4D4D4D"/>
    <path d="M20.1337 16.2441H18.3398V18.0219H20.1337V16.2441Z" fill="#4D4D4D"/>
    <path d="M21.9267 16.2441H20.1328V18.0219H21.9267V16.2441Z" fill="#4D4D4D"/>
    <path d="M23.7211 16.2441H21.9272V18.0219H23.7211V16.2441Z" fill="#4D4D4D"/>
    <path d="M25.5161 16.2441H23.7222V18.0219H25.5161V16.2441Z" fill="#4D4D4D"/>
    <path d="M27.31 16.2441H25.5161V18.0219H27.31V16.2441Z" fill="#4D4D4D"/>
    <path d="M29.1025 16.2441H27.3086V18.0219H29.1025V16.2441Z" fill="#4D4D4D"/>
    <path d="M30.8964 16.2441H29.1025V18.0219H30.8964V16.2441Z" fill="#4D4D4D"/>
    <path d="M32.6913 16.2441H30.8975V18.0219H32.6913V16.2441Z" fill="#4D4D4D"/>
    <path d="M34.4843 16.2441H32.6904V18.0219H34.4843V16.2441Z" fill="#4D4D4D"/>
    <path d="M36.2807 16.2441H34.4868V18.0219H36.2807V16.2441Z" fill="#4D4D4D"/>
    <path d="M38.0727 16.2441H36.2788V18.0219H38.0727V16.2441Z" fill="#4D4D4D"/>
    <path d="M39.8666 16.2441H38.0728V18.0219H39.8666V16.2441Z" fill="#4D4D4D"/>
    <path d="M41.6591 16.2441H39.8652V18.0219H41.6591V16.2441Z" fill="#4D4D4D"/>
    <path d="M43.454 16.2441H41.6602V18.0219H43.454V16.2441Z" fill="#4D4D4D"/>
    <path d="M45.2485 16.2441H43.4546V18.0219H45.2485V16.2441Z" fill="#4D4D4D"/>
    <path d="M47.0424 16.2441H45.2485V18.0219H47.0424V16.2441Z" fill="#4D4D4D"/>
    <path d="M48.8344 16.2441H47.0405V18.0219H48.8344V16.2441Z" fill="#4D4D4D"/>
    <path d="M50.6293 16.2441H48.8354V18.0219H50.6293V16.2441Z" fill="#4D4D4D"/>
    <path d="M52.4238 16.2441H50.6299V18.0219H52.4238V16.2441Z" fill="#4D4D4D"/>
    <path d="M54.2167 16.2441H52.4229V18.0219H54.2167V16.2441Z" fill="#4D4D4D"/>
    <path d="M56.0121 16.2441H54.2183V18.0219H56.0121V16.2441Z" fill="#CCCCCC"/>
    <path d="M57.8046 16.2441H56.0107V18.0219H57.8046V16.2441Z" fill="black"/>
    <path d="M3.98871 18.022H2.19482V19.7997H3.98871V18.022Z" fill="black"/>
    <path d="M5.78314 18.022H3.98926V19.7997H5.78314V18.022Z" fill="#808080"/>
    <path d="M7.57709 18.022H5.7832V19.7997H7.57709V18.022Z" fill="#333333"/>
    <path d="M9.37006 18.022H7.57617V19.7997H9.37006V18.022Z" fill="black"/>
    <path d="M11.164 18.022H9.37012V19.7997H11.164V18.022Z" fill="black"/>
    <path d="M12.9584 18.022H11.1646V19.7997H12.9584V18.022Z" fill="black"/>
    <path d="M14.7514 18.022H12.9575V19.7997H14.7514V18.022Z" fill="black"/>
    <path d="M16.5463 18.022H14.7524V19.7997H16.5463V18.022Z" fill="black"/>
    <path d="M18.3398 18.022H16.5459V19.7997H18.3398V18.022Z" fill="black"/>
    <path d="M20.1337 18.022H18.3398V19.7997H20.1337V18.022Z" fill="black"/>
    <path d="M21.9267 18.022H20.1328V19.7997H21.9267V18.022Z" fill="black"/>
    <path d="M23.7211 18.022H21.9272V19.7997H23.7211V18.022Z" fill="black"/>
    <path d="M25.5161 18.022H23.7222V19.7997H25.5161V18.022Z" fill="black"/>
    <path d="M27.31 18.022H25.5161V19.7997H27.31V18.022Z" fill="black"/>
    <path d="M29.1025 18.022H27.3086V19.7997H29.1025V18.022Z" fill="black"/>
    <path d="M30.8964 18.022H29.1025V19.7997H30.8964V18.022Z" fill="black"/>
    <path d="M32.6913 18.022H30.8975V19.7997H32.6913V18.022Z" fill="black"/>
    <path d="M34.4843 18.022H32.6904V19.7997H34.4843V18.022Z" fill="black"/>
    <path d="M36.2807 18.022H34.4868V19.7997H36.2807V18.022Z" fill="black"/>
    <path d="M38.0727 18.022H36.2788V19.7997H38.0727V18.022Z" fill="black"/>
    <path d="M39.8666 18.022H38.0728V19.7997H39.8666V18.022Z" fill="black"/>
    <path d="M41.6611 18.022H39.8672V19.7997H41.6611V18.022Z" fill="black"/>
    <path d="M43.454 18.022H41.6602V19.7997H43.454V18.022Z" fill="black"/>
    <path d="M45.2485 18.022H43.4546V19.7997H45.2485V18.022Z" fill="black"/>
    <path d="M47.0424 18.022H45.2485V19.7997H47.0424V18.022Z" fill="black"/>
    <path d="M48.8344 18.022H47.0405V19.7997H48.8344V18.022Z" fill="black"/>
    <path d="M50.6293 18.022H48.8354V19.7997H50.6293V18.022Z" fill="black"/>
    <path d="M52.4238 18.022H50.6299V19.7997H52.4238V18.022Z" fill="black"/>
    <path d="M54.2167 18.022H52.4229V19.7997H54.2167V18.022Z" fill="#4D4D4D"/>
    <path d="M56.0121 18.022H54.2183V19.7997H56.0121V18.022Z" fill="#CCCCCC"/>
    <path d="M57.8046 18.022H56.0107V19.7997H57.8046V18.022Z" fill="black"/>
    <path d="M3.98871 19.7993H2.19482V21.577H3.98871V19.7993Z" fill="black"/>
    <path d="M5.78314 19.7993H3.98926V21.577H5.78314V19.7993Z" fill="#808080"/>
    <path d="M7.57709 19.7993H5.7832V21.577H7.57709V19.7993Z" fill="#333333"/>
    <path d="M9.37006 19.7993H7.57617V21.577H9.37006V19.7993Z" fill="black"/>
    <path d="M11.164 19.7993H9.37012V21.577H11.164V19.7993Z" fill="#39A84A"/>
    <path d="M12.9584 19.7993H11.1646V21.577H12.9584V19.7993Z" fill="#39A84A"/>
    <path d="M14.7514 19.7993H12.9575V21.577H14.7514V19.7993Z" fill="#39A84A"/>
    <path d="M16.5463 19.7993H14.7524V21.577H16.5463V19.7993Z" fill="black"/>
    <path d="M18.3398 19.7993H16.5459V21.577H18.3398V19.7993Z" fill="black"/>
    <path d="M20.1337 19.7993H18.3398V21.577H20.1337V19.7993Z" fill="black"/>
    <path d="M21.9267 19.7993H20.1328V21.577H21.9267V19.7993Z" fill="black"/>
    <path d="M23.7211 19.7993H21.9272V21.577H23.7211V19.7993Z" fill="#39A84A"/>
    <path d="M25.5161 19.7993H23.7222V21.577H25.5161V19.7993Z" fill="#39A84A"/>
    <path d="M27.31 19.7993H25.5161V21.577H27.31V19.7993Z" fill="black"/>
    <path d="M29.1025 19.7993H27.3086V21.577H29.1025V19.7993Z" fill="black"/>
    <path d="M30.8964 19.7993H29.1025V21.577H30.8964V19.7993Z" fill="black"/>
    <path d="M32.6913 19.7993H30.8975V21.577H32.6913V19.7993Z" fill="#39A84A"/>
    <path d="M34.4843 19.7993H32.6904V21.577H34.4843V19.7993Z" fill="black"/>
    <path d="M36.2807 19.7993H34.4868V21.577H36.2807V19.7993Z" fill="black"/>
    <path d="M38.0727 19.7993H36.2788V21.577H38.0727V19.7993Z" fill="black"/>
    <path d="M39.8666 19.7993H38.0728V21.577H39.8666V19.7993Z" fill="#39A84A"/>
    <path d="M41.6611 19.7993H39.8672V21.577H41.6611V19.7993Z" fill="black"/>
    <path d="M43.454 19.7993H41.6602V21.577H43.454V19.7993Z" fill="black"/>
    <path d="M45.2485 19.7993H43.4546V21.577H45.2485V19.7993Z" fill="#39A84A"/>
    <path d="M47.0424 19.7993H45.2485V21.577H47.0424V19.7993Z" fill="#39A84A"/>
    <path d="M48.8344 19.7993H47.0405V21.577H48.8344V19.7993Z" fill="#39A84A"/>
    <path d="M50.6293 19.7993H48.8354V21.577H50.6293V19.7993Z" fill="#39A84A"/>
    <path d="M52.4238 19.7993H50.6299V21.577H52.4238V19.7993Z" fill="black"/>
    <path d="M54.2167 19.7993H52.4229V21.577H54.2167V19.7993Z" fill="#4D4D4D"/>
    <path d="M56.0121 19.7993H54.2183V21.577H56.0121V19.7993Z" fill="#CCCCCC"/>
    <path d="M57.8046 19.7993H56.0107V21.577H57.8046V19.7993Z" fill="black"/>
    <path d="M3.98871 21.5767H2.19482V23.3544H3.98871V21.5767Z" fill="black"/>
    <path d="M5.78314 21.5767H3.98926V23.3544H5.78314V21.5767Z" fill="#808080"/>
    <path d="M7.57709 21.5767H5.7832V23.3544H7.57709V21.5767Z" fill="#333333"/>
    <path d="M9.37006 21.5767H7.57617V23.3544H9.37006V21.5767Z" fill="black"/>
    <path d="M11.164 21.5767H9.37012V23.3544H11.164V21.5767Z" fill="#39A84A"/>
    <path d="M12.9584 21.5767H11.1646V23.3544H12.9584V21.5767Z" fill="black"/>
    <path d="M14.7514 21.5767H12.9575V23.3544H14.7514V21.5767Z" fill="black"/>
    <path d="M16.5463 21.5767H14.7524V23.3544H16.5463V21.5767Z" fill="#39A84A"/>
    <path d="M18.3398 21.5767H16.5459V23.3544H18.3398V21.5767Z" fill="black"/>
    <path d="M20.1337 21.5767H18.3398V23.3544H20.1337V21.5767Z" fill="black"/>
    <path d="M21.9267 21.5767H20.1328V23.3544H21.9267V21.5767Z" fill="#39A84A"/>
    <path d="M23.7211 21.5767H21.9272V23.3544H23.7211V21.5767Z" fill="black"/>
    <path d="M25.5161 21.5767H23.7222V23.3544H25.5161V21.5767Z" fill="black"/>
    <path d="M27.31 21.5767H25.5161V23.3544H27.31V21.5767Z" fill="#39A84A"/>
    <path d="M29.1025 21.5767H27.3086V23.3544H29.1025V21.5767Z" fill="black"/>
    <path d="M30.8964 21.5767H29.1025V23.3544H30.8964V21.5767Z" fill="black"/>
    <path d="M32.6913 21.5767H30.8975V23.3544H32.6913V21.5767Z" fill="#39A84A"/>
    <path d="M34.4843 21.5767H32.6904V23.3544H34.4843V21.5767Z" fill="black"/>
    <path d="M36.2807 21.5767H34.4868V23.3544H36.2807V21.5767Z" fill="black"/>
    <path d="M38.0727 21.5767H36.2788V23.3544H38.0727V21.5767Z" fill="black"/>
    <path d="M39.8666 21.5767H38.0728V23.3544H39.8666V21.5767Z" fill="#39A84A"/>
    <path d="M41.6611 21.5767H39.8672V23.3544H41.6611V21.5767Z" fill="black"/>
    <path d="M43.454 21.5767H41.6602V23.3544H43.454V21.5767Z" fill="black"/>
    <path d="M45.2485 21.5767H43.4546V23.3544H45.2485V21.5767Z" fill="#39A84A"/>
    <path d="M47.0424 21.5767H45.2485V23.3544H47.0424V21.5767Z" fill="black"/>
    <path d="M48.8344 21.5767H47.0405V23.3544H48.8344V21.5767Z" fill="black"/>
    <path d="M50.6293 21.5767H48.8354V23.3544H50.6293V21.5767Z" fill="black"/>
    <path d="M52.4238 21.5767H50.6299V23.3544H52.4238V21.5767Z" fill="black"/>
    <path d="M54.2167 21.5767H52.4229V23.3544H54.2167V21.5767Z" fill="#4D4D4D"/>
    <path d="M56.0121 21.5767H54.2183V23.3544H56.0121V21.5767Z" fill="#CCCCCC"/>
    <path d="M57.8046 21.5767H56.0107V23.3544H57.8046V21.5767Z" fill="black"/>
    <path d="M3.98871 23.354H2.19482V25.1317H3.98871V23.354Z" fill="black"/>
    <path d="M5.78314 23.354H3.98926V25.1317H5.78314V23.354Z" fill="#808080"/>
    <path d="M7.57709 23.354H5.7832V25.1317H7.57709V23.354Z" fill="#333333"/>
    <path d="M9.37006 23.354H7.57617V25.1317H9.37006V23.354Z" fill="black"/>
    <path d="M11.164 23.354H9.37012V25.1317H11.164V23.354Z" fill="#39A84A"/>
    <path d="M12.9584 23.354H11.1646V25.1317H12.9584V23.354Z" fill="black"/>
    <path d="M14.7514 23.354H12.9575V25.1317H14.7514V23.354Z" fill="black"/>
    <path d="M16.5463 23.354H14.7524V25.1317H16.5463V23.354Z" fill="#39A84A"/>
    <path d="M18.3398 23.354H16.5459V25.1317H18.3398V23.354Z" fill="black"/>
    <path d="M20.1337 23.354H18.3398V25.1317H20.1337V23.354Z" fill="black"/>
    <path d="M21.9267 23.354H20.1328V25.1317H21.9267V23.354Z" fill="#39A84A"/>
    <path d="M23.7211 23.354H21.9272V25.1317H23.7211V23.354Z" fill="black"/>
    <path d="M25.5161 23.354H23.7222V25.1317H25.5161V23.354Z" fill="black"/>
    <path d="M27.31 23.354H25.5161V25.1317H27.31V23.354Z" fill="#39A84A"/>
    <path d="M29.1025 23.354H27.3086V25.1317H29.1025V23.354Z" fill="black"/>
    <path d="M30.8964 23.354H29.1025V25.1317H30.8964V23.354Z" fill="black"/>
    <path d="M32.6913 23.354H30.8975V25.1317H32.6913V23.354Z" fill="#39A84A"/>
    <path d="M34.4843 23.354H32.6904V25.1317H34.4843V23.354Z" fill="#39A84A"/>
    <path d="M36.2807 23.354H34.4868V25.1317H36.2807V23.354Z" fill="black"/>
    <path d="M38.0727 23.354H36.2788V25.1317H38.0727V23.354Z" fill="black"/>
    <path d="M39.8666 23.354H38.0728V25.1317H39.8666V23.354Z" fill="#39A84A"/>
    <path d="M41.6611 23.354H39.8672V25.1317H41.6611V23.354Z" fill="black"/>
    <path d="M43.454 23.354H41.6602V25.1317H43.454V23.354Z" fill="black"/>
    <path d="M45.2485 23.354H43.4546V25.1317H45.2485V23.354Z" fill="#39A84A"/>
    <path d="M47.0424 23.354H45.2485V25.1317H47.0424V23.354Z" fill="black"/>
    <path d="M48.8344 23.354H47.0405V25.1317H48.8344V23.354Z" fill="black"/>
    <path d="M50.6293 23.354H48.8354V25.1317H50.6293V23.354Z" fill="black"/>
    <path d="M52.4238 23.354H50.6299V25.1317H52.4238V23.354Z" fill="black"/>
    <path d="M54.2167 23.354H52.4229V25.1317H54.2167V23.354Z" fill="#4D4D4D"/>
    <path d="M56.0121 23.354H54.2183V25.1317H56.0121V23.354Z" fill="#CCCCCC"/>
    <path d="M57.8046 23.354H56.0107V25.1317H57.8046V23.354Z" fill="black"/>
    <path d="M3.98871 25.1313H2.19482V26.9091H3.98871V25.1313Z" fill="black"/>
    <path d="M5.78314 25.1313H3.98926V26.9091H5.78314V25.1313Z" fill="#808080"/>
    <path d="M7.57709 25.1313H5.7832V26.9091H7.57709V25.1313Z" fill="#333333"/>
    <path d="M9.37006 25.1313H7.57617V26.9091H9.37006V25.1313Z" fill="black"/>
    <path d="M11.164 25.1313H9.37012V26.9091H11.164V25.1313Z" fill="#39A84A"/>
    <path d="M12.9584 25.1313H11.1646V26.9091H12.9584V25.1313Z" fill="black"/>
    <path d="M14.7514 25.1313H12.9575V26.9091H14.7514V25.1313Z" fill="black"/>
    <path d="M16.5463 25.1313H14.7524V26.9091H16.5463V25.1313Z" fill="#39A84A"/>
    <path d="M18.3398 25.1313H16.5459V26.9091H18.3398V25.1313Z" fill="black"/>
    <path d="M20.1337 25.1313H18.3398V26.9091H20.1337V25.1313Z" fill="black"/>
    <path d="M21.9267 25.1313H20.1328V26.9091H21.9267V25.1313Z" fill="#39A84A"/>
    <path d="M23.7211 25.1313H21.9272V26.9091H23.7211V25.1313Z" fill="black"/>
    <path d="M25.5161 25.1313H23.7222V26.9091H25.5161V25.1313Z" fill="black"/>
    <path d="M27.31 25.1313H25.5161V26.9091H27.31V25.1313Z" fill="#39A84A"/>
    <path d="M29.1025 25.1313H27.3086V26.9091H29.1025V25.1313Z" fill="black"/>
    <path d="M30.8964 25.1313H29.1025V26.9091H30.8964V25.1313Z" fill="black"/>
    <path d="M32.6913 25.1313H30.8975V26.9091H32.6913V25.1313Z" fill="#39A84A"/>
    <path d="M34.4843 25.1313H32.6904V26.9091H34.4843V25.1313Z" fill="black"/>
    <path d="M36.2807 25.1313H34.4868V26.9091H36.2807V25.1313Z" fill="#39A84A"/>
    <path d="M38.0727 25.1313H36.2788V26.9091H38.0727V25.1313Z" fill="black"/>
    <path d="M39.8666 25.1313H38.0728V26.9091H39.8666V25.1313Z" fill="#39A84A"/>
    <path d="M41.6591 25.1313H39.8652V26.9091H41.6591V25.1313Z" fill="black"/>
    <path d="M43.454 25.1313H41.6602V26.9091H43.454V25.1313Z" fill="black"/>
    <path d="M45.2485 25.1313H43.4546V26.9091H45.2485V25.1313Z" fill="#39A84A"/>
    <path d="M47.0424 25.1313H45.2485V26.9091H47.0424V25.1313Z" fill="black"/>
    <path d="M48.8344 25.1313H47.0405V26.9091H48.8344V25.1313Z" fill="black"/>
    <path d="M50.6293 25.1313H48.8354V26.9091H50.6293V25.1313Z" fill="black"/>
    <path d="M52.4238 25.1313H50.6299V26.9091H52.4238V25.1313Z" fill="black"/>
    <path d="M54.2167 25.1313H52.4229V26.9091H54.2167V25.1313Z" fill="#4D4D4D"/>
    <path d="M56.0121 25.1313H54.2183V26.9091H56.0121V25.1313Z" fill="#CCCCCC"/>
    <path d="M57.8046 25.1313H56.0107V26.9091H57.8046V25.1313Z" fill="black"/>
    <path d="M3.98871 26.9092H2.19482V28.6869H3.98871V26.9092Z" fill="black"/>
    <path d="M5.78314 26.9087H3.98926V28.6864H5.78314V26.9087Z" fill="#808080"/>
    <path d="M7.57709 26.9087H5.7832V28.6864H7.57709V26.9087Z" fill="#333333"/>
    <path d="M9.37006 26.9087H7.57617V28.6864H9.37006V26.9087Z" fill="black"/>
    <path d="M11.164 26.9087H9.37012V28.6864H11.164V26.9087Z" fill="#39A84A"/>
    <path d="M12.9584 26.9087H11.1646V28.6864H12.9584V26.9087Z" fill="black"/>
    <path d="M14.7514 26.9087H12.9575V28.6864H14.7514V26.9087Z" fill="black"/>
    <path d="M16.5463 26.9087H14.7524V28.6864H16.5463V26.9087Z" fill="#39A84A"/>
    <path d="M18.3398 26.9087H16.5459V28.6864H18.3398V26.9087Z" fill="black"/>
    <path d="M20.1337 26.9087H18.3398V28.6864H20.1337V26.9087Z" fill="black"/>
    <path d="M21.9267 26.9087H20.1328V28.6864H21.9267V26.9087Z" fill="#39A84A"/>
    <path d="M23.7211 26.9087H21.9272V28.6864H23.7211V26.9087Z" fill="black"/>
    <path d="M25.5161 26.9087H23.7222V28.6864H25.5161V26.9087Z" fill="black"/>
    <path d="M27.31 26.9087H25.5161V28.6864H27.31V26.9087Z" fill="#39A84A"/>
    <path d="M29.1025 26.9087H27.3086V28.6864H29.1025V26.9087Z" fill="black"/>
    <path d="M30.8964 26.9087H29.1025V28.6864H30.8964V26.9087Z" fill="black"/>
    <path d="M32.6913 26.9087H30.8975V28.6864H32.6913V26.9087Z" fill="#39A84A"/>
    <path d="M34.4843 26.9087H32.6904V28.6864H34.4843V26.9087Z" fill="black"/>
    <path d="M36.2807 26.9087H34.4868V28.6864H36.2807V26.9087Z" fill="#39A84A"/>
    <path d="M38.0727 26.9087H36.2788V28.6864H38.0727V26.9087Z" fill="black"/>
    <path d="M39.8666 26.9087H38.0728V28.6864H39.8666V26.9087Z" fill="#39A84A"/>
    <path d="M41.6591 26.9087H39.8652V28.6864H41.6591V26.9087Z" fill="black"/>
    <path d="M43.454 26.9087H41.6602V28.6864H43.454V26.9087Z" fill="black"/>
    <path d="M45.2485 26.9087H43.4546V28.6864H45.2485V26.9087Z" fill="#39A84A"/>
    <path d="M47.0424 26.9087H45.2485V28.6864H47.0424V26.9087Z" fill="black"/>
    <path d="M48.8344 26.9087H47.0405V28.6864H48.8344V26.9087Z" fill="black"/>
    <path d="M50.6293 26.9087H48.8354V28.6864H50.6293V26.9087Z" fill="black"/>
    <path d="M52.4238 26.9087H50.6299V28.6864H52.4238V26.9087Z" fill="black"/>
    <path d="M54.2167 26.9087H52.4229V28.6864H54.2167V26.9087Z" fill="#4D4D4D"/>
    <path d="M56.0121 26.9087H54.2183V28.6864H56.0121V26.9087Z" fill="#CCCCCC"/>
    <path d="M57.8046 26.9087H56.0107V28.6864H57.8046V26.9087Z" fill="black"/>
    <path d="M3.98871 28.6865H2.19482V30.4642H3.98871V28.6865Z" fill="black"/>
    <path d="M5.78314 28.6865H3.98926V30.4642H5.78314V28.6865Z" fill="#808080"/>
    <path d="M7.57709 28.6865H5.7832V30.4642H7.57709V28.6865Z" fill="#333333"/>
    <path d="M9.37006 28.6865H7.57617V30.4642H9.37006V28.6865Z" fill="black"/>
    <path d="M11.164 28.6865H9.37012V30.4642H11.164V28.6865Z" fill="#39A84A"/>
    <path d="M12.9584 28.6865H11.1646V30.4642H12.9584V28.6865Z" fill="black"/>
    <path d="M14.7514 28.6865H12.9575V30.4642H14.7514V28.6865Z" fill="black"/>
    <path d="M16.5463 28.6865H14.7524V30.4642H16.5463V28.6865Z" fill="#39A84A"/>
    <path d="M18.3398 28.6865H16.5459V30.4642H18.3398V28.6865Z" fill="black"/>
    <path d="M20.1337 28.6865H18.3398V30.4642H20.1337V28.6865Z" fill="black"/>
    <path d="M21.9267 28.6865H20.1328V30.4642H21.9267V28.6865Z" fill="#39A84A"/>
    <path d="M23.7211 28.6865H21.9272V30.4642H23.7211V28.6865Z" fill="black"/>
    <path d="M25.5161 28.6865H23.7222V30.4642H25.5161V28.6865Z" fill="black"/>
    <path d="M27.31 28.6865H25.5161V30.4642H27.31V28.6865Z" fill="#39A84A"/>
    <path d="M29.1025 28.6865H27.3086V30.4642H29.1025V28.6865Z" fill="black"/>
    <path d="M30.8964 28.6865H29.1025V30.4642H30.8964V28.6865Z" fill="black"/>
    <path d="M32.6913 28.6865H30.8975V30.4642H32.6913V28.6865Z" fill="#39A84A"/>
    <path d="M34.4843 28.6865H32.6904V30.4642H34.4843V28.6865Z" fill="black"/>
    <path d="M36.2807 28.6865H34.4868V30.4642H36.2807V28.6865Z" fill="black"/>
    <path d="M38.0727 28.6865H36.2788V30.4642H38.0727V28.6865Z" fill="#39A84A"/>
    <path d="M39.8666 28.6865H38.0728V30.4642H39.8666V28.6865Z" fill="#39A84A"/>
    <path d="M41.6591 28.6865H39.8652V30.4642H41.6591V28.6865Z" fill="black"/>
    <path d="M43.454 28.6865H41.6602V30.4642H43.454V28.6865Z" fill="black"/>
    <path d="M45.2485 28.6865H43.4546V30.4642H45.2485V28.6865Z" fill="#39A84A"/>
    <path d="M47.0424 28.6865H45.2485V30.4642H47.0424V28.6865Z" fill="#39A84A"/>
    <path d="M48.8344 28.6865H47.0405V30.4642H48.8344V28.6865Z" fill="#39A84A"/>
    <path d="M50.6293 28.6865H48.8354V30.4642H50.6293V28.6865Z" fill="#39A84A"/>
    <path d="M52.4238 28.6865H50.6299V30.4642H52.4238V28.6865Z" fill="black"/>
    <path d="M54.2167 28.6865H52.4229V30.4642H54.2167V28.6865Z" fill="#4D4D4D"/>
    <path d="M56.0121 28.6865H54.2183V30.4642H56.0121V28.6865Z" fill="#CCCCCC"/>
    <path d="M57.8046 28.6865H56.0107V30.4642H57.8046V28.6865Z" fill="black"/>
    <path d="M3.98871 30.4639H2.19482V32.2416H3.98871V30.4639Z" fill="black"/>
    <path d="M5.78314 30.4639H3.98926V32.2416H5.78314V30.4639Z" fill="#808080"/>
    <path d="M7.57709 30.4639H5.7832V32.2416H7.57709V30.4639Z" fill="#333333"/>
    <path d="M9.37006 30.4639H7.57617V32.2416H9.37006V30.4639Z" fill="black"/>
    <path d="M11.164 30.4639H9.37012V32.2416H11.164V30.4639Z" fill="#39A84A"/>
    <path d="M12.9584 30.4639H11.1646V32.2416H12.9584V30.4639Z" fill="black"/>
    <path d="M14.7514 30.4639H12.9575V32.2416H14.7514V30.4639Z" fill="black"/>
    <path d="M16.5463 30.4639H14.7524V32.2416H16.5463V30.4639Z" fill="#39A84A"/>
    <path d="M18.3398 30.4639H16.5459V32.2416H18.3398V30.4639Z" fill="black"/>
    <path d="M20.1337 30.4639H18.3398V32.2416H20.1337V30.4639Z" fill="black"/>
    <path d="M21.9267 30.4639H20.1328V32.2416H21.9267V30.4639Z" fill="#39A84A"/>
    <path d="M23.7211 30.4639H21.9272V32.2416H23.7211V30.4639Z" fill="black"/>
    <path d="M25.5161 30.4639H23.7222V32.2416H25.5161V30.4639Z" fill="black"/>
    <path d="M27.31 30.4639H25.5161V32.2416H27.31V30.4639Z" fill="#39A84A"/>
    <path d="M29.1025 30.4639H27.3086V32.2416H29.1025V30.4639Z" fill="black"/>
    <path d="M30.8964 30.4639H29.1025V32.2416H30.8964V30.4639Z" fill="black"/>
    <path d="M32.6913 30.4639H30.8975V32.2416H32.6913V30.4639Z" fill="#39A84A"/>
    <path d="M34.4843 30.4639H32.6904V32.2416H34.4843V30.4639Z" fill="black"/>
    <path d="M36.2807 30.4639H34.4868V32.2416H36.2807V30.4639Z" fill="black"/>
    <path d="M38.0727 30.4639H36.2788V32.2416H38.0727V30.4639Z" fill="#39A84A"/>
    <path d="M39.8666 30.4639H38.0728V32.2416H39.8666V30.4639Z" fill="#39A84A"/>
    <path d="M41.6591 30.4639H39.8652V32.2416H41.6591V30.4639Z" fill="black"/>
    <path d="M43.454 30.4639H41.6602V32.2416H43.454V30.4639Z" fill="black"/>
    <path d="M45.2485 30.4639H43.4546V32.2416H45.2485V30.4639Z" fill="#39A84A"/>
    <path d="M47.0424 30.4639H45.2485V32.2416H47.0424V30.4639Z" fill="black"/>
    <path d="M48.8344 30.4639H47.0405V32.2416H48.8344V30.4639Z" fill="black"/>
    <path d="M50.6293 30.4639H48.8354V32.2416H50.6293V30.4639Z" fill="black"/>
    <path d="M52.4238 30.4639H50.6299V32.2416H52.4238V30.4639Z" fill="black"/>
    <path d="M54.2167 30.4639H52.4229V32.2416H54.2167V30.4639Z" fill="#4D4D4D"/>
    <path d="M56.0121 30.4639H54.2183V32.2416H56.0121V30.4639Z" fill="#CCCCCC"/>
    <path d="M57.8046 30.4639H56.0107V32.2416H57.8046V30.4639Z" fill="black"/>
    <path d="M3.98871 32.2412H2.19482V34.0189H3.98871V32.2412Z" fill="black"/>
    <path d="M5.78314 32.2412H3.98926V34.0189H5.78314V32.2412Z" fill="#808080"/>
    <path d="M7.57709 32.2412H5.7832V34.0189H7.57709V32.2412Z" fill="#333333"/>
    <path d="M9.37006 32.2412H7.57617V34.0189H9.37006V32.2412Z" fill="black"/>
    <path d="M11.164 32.2412H9.37012V34.0189H11.164V32.2412Z" fill="#39A84A"/>
    <path d="M12.9584 32.2412H11.1646V34.0189H12.9584V32.2412Z" fill="black"/>
    <path d="M14.7514 32.2412H12.9575V34.0189H14.7514V32.2412Z" fill="black"/>
    <path d="M16.5463 32.2412H14.7524V34.0189H16.5463V32.2412Z" fill="#39A84A"/>
    <path d="M18.3398 32.2412H16.5459V34.0189H18.3398V32.2412Z" fill="black"/>
    <path d="M20.1337 32.2412H18.3398V34.0189H20.1337V32.2412Z" fill="black"/>
    <path d="M21.9267 32.2412H20.1328V34.0189H21.9267V32.2412Z" fill="#39A84A"/>
    <path d="M23.7211 32.2412H21.9272V34.0189H23.7211V32.2412Z" fill="black"/>
    <path d="M25.5161 32.2412H23.7222V34.0189H25.5161V32.2412Z" fill="black"/>
    <path d="M27.31 32.2412H25.5161V34.0189H27.31V32.2412Z" fill="#39A84A"/>
    <path d="M29.1025 32.2412H27.3086V34.0189H29.1025V32.2412Z" fill="black"/>
    <path d="M30.8964 32.2412H29.1025V34.0189H30.8964V32.2412Z" fill="black"/>
    <path d="M32.6913 32.2412H30.8975V34.0189H32.6913V32.2412Z" fill="#39A84A"/>
    <path d="M34.4843 32.2412H32.6904V34.0189H34.4843V32.2412Z" fill="black"/>
    <path d="M36.2807 32.2412H34.4868V34.0189H36.2807V32.2412Z" fill="black"/>
    <path d="M38.0727 32.2412H36.2788V34.0189H38.0727V32.2412Z" fill="black"/>
    <path d="M39.8666 32.2412H38.0728V34.0189H39.8666V32.2412Z" fill="#39A84A"/>
    <path d="M41.6591 32.2412H39.8652V34.0189H41.6591V32.2412Z" fill="black"/>
    <path d="M43.454 32.2412H41.6602V34.0189H43.454V32.2412Z" fill="black"/>
    <path d="M45.2485 32.2412H43.4546V34.0189H45.2485V32.2412Z" fill="#39A84A"/>
    <path d="M47.0424 32.2412H45.2485V34.0189H47.0424V32.2412Z" fill="black"/>
    <path d="M48.8344 32.2412H47.0405V34.0189H48.8344V32.2412Z" fill="black"/>
    <path d="M50.6293 32.2412H48.8354V34.0189H50.6293V32.2412Z" fill="black"/>
    <path d="M52.4238 32.2412H50.6299V34.0189H52.4238V32.2412Z" fill="black"/>
    <path d="M54.2167 32.2412H52.4229V34.0189H54.2167V32.2412Z" fill="#4D4D4D"/>
    <path d="M56.0121 32.2412H54.2183V34.0189H56.0121V32.2412Z" fill="#CCCCCC"/>
    <path d="M57.8046 32.2412H56.0107V34.0189H57.8046V32.2412Z" fill="black"/>
    <path d="M3.98871 34.0186H2.19482V35.7963H3.98871V34.0186Z" fill="black"/>
    <path d="M5.78314 34.0186H3.98926V35.7963H5.78314V34.0186Z" fill="#808080"/>
    <path d="M7.57709 34.0186H5.7832V35.7963H7.57709V34.0186Z" fill="#333333"/>
    <path d="M9.37006 34.0186H7.57617V35.7963H9.37006V34.0186Z" fill="black"/>
    <path d="M11.164 34.0186H9.37012V35.7963H11.164V34.0186Z" fill="#39A84A"/>
    <path d="M12.9584 34.0186H11.1646V35.7963H12.9584V34.0186Z" fill="black"/>
    <path d="M14.7514 34.0186H12.9575V35.7963H14.7514V34.0186Z" fill="black"/>
    <path d="M16.5463 34.0186H14.7524V35.7963H16.5463V34.0186Z" fill="#39A84A"/>
    <path d="M18.3398 34.0186H16.5459V35.7963H18.3398V34.0186Z" fill="black"/>
    <path d="M20.1337 34.0186H18.3398V35.7963H20.1337V34.0186Z" fill="black"/>
    <path d="M21.9267 34.0186H20.1328V35.7963H21.9267V34.0186Z" fill="#39A84A"/>
    <path d="M23.7211 34.0186H21.9272V35.7963H23.7211V34.0186Z" fill="black"/>
    <path d="M25.5161 34.0186H23.7222V35.7963H25.5161V34.0186Z" fill="black"/>
    <path d="M27.31 34.0186H25.5161V35.7963H27.31V34.0186Z" fill="#39A84A"/>
    <path d="M29.1025 34.0186H27.3086V35.7963H29.1025V34.0186Z" fill="black"/>
    <path d="M30.8964 34.0186H29.1025V35.7963H30.8964V34.0186Z" fill="black"/>
    <path d="M32.6913 34.0186H30.8975V35.7963H32.6913V34.0186Z" fill="#39A84A"/>
    <path d="M34.4843 34.0186H32.6904V35.7963H34.4843V34.0186Z" fill="black"/>
    <path d="M36.2807 34.0186H34.4868V35.7963H36.2807V34.0186Z" fill="black"/>
    <path d="M38.0727 34.0186H36.2788V35.7963H38.0727V34.0186Z" fill="black"/>
    <path d="M39.8666 34.0186H38.0728V35.7963H39.8666V34.0186Z" fill="#39A84A"/>
    <path d="M41.6591 34.0186H39.8652V35.7963H41.6591V34.0186Z" fill="black"/>
    <path d="M43.454 34.0186H41.6602V35.7963H43.454V34.0186Z" fill="black"/>
    <path d="M45.2485 34.0186H43.4546V35.7963H45.2485V34.0186Z" fill="#39A84A"/>
    <path d="M47.0424 34.0186H45.2485V35.7963H47.0424V34.0186Z" fill="black"/>
    <path d="M48.8344 34.0186H47.0405V35.7963H48.8344V34.0186Z" fill="black"/>
    <path d="M50.6293 34.0186H48.8354V35.7963H50.6293V34.0186Z" fill="black"/>
    <path d="M52.4238 34.0186H50.6299V35.7963H52.4238V34.0186Z" fill="black"/>
    <path d="M54.2167 34.0186H52.4229V35.7963H54.2167V34.0186Z" fill="#4D4D4D"/>
    <path d="M56.0121 34.0186H54.2183V35.7963H56.0121V34.0186Z" fill="#CCCCCC"/>
    <path d="M57.8046 34.0186H56.0107V35.7963H57.8046V34.0186Z" fill="black"/>
    <path d="M3.98871 35.7959H2.19482V37.5736H3.98871V35.7959Z" fill="black"/>
    <path d="M5.78314 35.7959H3.98926V37.5736H5.78314V35.7959Z" fill="#808080"/>
    <path d="M7.57709 35.7959H5.7832V37.5736H7.57709V35.7959Z" fill="#333333"/>
    <path d="M9.37006 35.7959H7.57617V37.5736H9.37006V35.7959Z" fill="black"/>
    <path d="M11.164 35.7959H9.37012V37.5736H11.164V35.7959Z" fill="#39A84A"/>
    <path d="M12.9584 35.7959H11.1646V37.5736H12.9584V35.7959Z" fill="black"/>
    <path d="M14.7514 35.7959H12.9575V37.5736H14.7514V35.7959Z" fill="black"/>
    <path d="M16.5463 35.7959H14.7524V37.5736H16.5463V35.7959Z" fill="#39A84A"/>
    <path d="M18.3398 35.7959H16.5459V37.5736H18.3398V35.7959Z" fill="black"/>
    <path d="M20.1337 35.7959H18.3398V37.5736H20.1337V35.7959Z" fill="black"/>
    <path d="M21.9267 35.7959H20.1328V37.5736H21.9267V35.7959Z" fill="#39A84A"/>
    <path d="M23.7211 35.7959H21.9272V37.5736H23.7211V35.7959Z" fill="black"/>
    <path d="M25.5161 35.7959H23.7222V37.5736H25.5161V35.7959Z" fill="black"/>
    <path d="M27.31 35.7959H25.5161V37.5736H27.31V35.7959Z" fill="#39A84A"/>
    <path d="M29.1025 35.7959H27.3086V37.5736H29.1025V35.7959Z" fill="black"/>
    <path d="M30.8964 35.7959H29.1025V37.5736H30.8964V35.7959Z" fill="black"/>
    <path d="M32.6913 35.7959H30.8975V37.5736H32.6913V35.7959Z" fill="#39A84A"/>
    <path d="M34.4843 35.7959H32.6904V37.5736H34.4843V35.7959Z" fill="black"/>
    <path d="M36.2807 35.7959H34.4868V37.5736H36.2807V35.7959Z" fill="black"/>
    <path d="M38.0727 35.7959H36.2788V37.5736H38.0727V35.7959Z" fill="black"/>
    <path d="M39.8666 35.7959H38.0728V37.5736H39.8666V35.7959Z" fill="#39A84A"/>
    <path d="M41.6611 35.7959H39.8672V37.5736H41.6611V35.7959Z" fill="black"/>
    <path d="M43.454 35.7959H41.6602V37.5736H43.454V35.7959Z" fill="black"/>
    <path d="M45.2485 35.7959H43.4546V37.5736H45.2485V35.7959Z" fill="#39A84A"/>
    <path d="M47.0424 35.7959H45.2485V37.5736H47.0424V35.7959Z" fill="black"/>
    <path d="M48.8344 35.7959H47.0405V37.5736H48.8344V35.7959Z" fill="black"/>
    <path d="M50.6293 35.7959H48.8354V37.5736H50.6293V35.7959Z" fill="black"/>
    <path d="M52.4238 35.7959H50.6299V37.5736H52.4238V35.7959Z" fill="black"/>
    <path d="M54.2167 35.7959H52.4229V37.5736H54.2167V35.7959Z" fill="#4D4D4D"/>
    <path d="M56.0121 35.7959H54.2183V37.5736H56.0121V35.7959Z" fill="#CCCCCC"/>
    <path d="M57.8046 35.7959H56.0107V37.5736H57.8046V35.7959Z" fill="black"/>
    <path d="M3.98871 37.5737H2.19482V39.3514H3.98871V37.5737Z" fill="black"/>
    <path d="M7.57709 37.5737H5.7832V39.3514H7.57709V37.5737Z" fill="#333333"/>
    <path d="M9.37006 37.5732H7.57617V39.351H9.37006V37.5732Z" fill="black"/>
    <path d="M11.164 37.5732H9.37012V39.351H11.164V37.5732Z" fill="#39A84A"/>
    <path d="M12.9584 37.5732H11.1646V39.351H12.9584V37.5732Z" fill="#39A84A"/>
    <path d="M14.7514 37.5737H12.9575V39.3514H14.7514V37.5737Z" fill="#39A84A"/>
    <path d="M16.5463 37.5732H14.7524V39.351H16.5463V37.5732Z" fill="black"/>
    <path d="M18.3398 37.5732H16.5459V39.351H18.3398V37.5732Z" fill="black"/>
    <path d="M20.1337 37.5732H18.3398V39.351H20.1337V37.5732Z" fill="black"/>
    <path d="M21.9267 37.5732H20.1328V39.351H21.9267V37.5732Z" fill="black"/>
    <path d="M23.7211 37.5732H21.9272V39.351H23.7211V37.5732Z" fill="#39A84A"/>
    <path d="M25.5161 37.5732H23.7222V39.351H25.5161V37.5732Z" fill="#39A84A"/>
    <path d="M27.31 37.5732H25.5161V39.351H27.31V37.5732Z" fill="black"/>
    <path d="M29.1025 37.5732H27.3086V39.351H29.1025V37.5732Z" fill="black"/>
    <path d="M30.8964 37.5737H29.1025V39.3514H30.8964V37.5737Z" fill="black"/>
    <path d="M32.6913 37.5732H30.8975V39.351H32.6913V37.5732Z" fill="#39A84A"/>
    <path d="M34.4843 37.5737H32.6904V39.3514H34.4843V37.5737Z" fill="black"/>
    <path d="M36.2807 37.5732H34.4868V39.351H36.2807V37.5732Z" fill="black"/>
    <path d="M38.0727 37.5737H36.2788V39.3514H38.0727V37.5737Z" fill="black"/>
    <path d="M39.8666 37.5732H38.0728V39.351H39.8666V37.5732Z" fill="#39A84A"/>
    <path d="M41.6611 37.5737H39.8672V39.3514H41.6611V37.5737Z" fill="black"/>
    <path d="M43.454 37.5732H41.6602V39.351H43.454V37.5732Z" fill="black"/>
    <path d="M45.2485 37.5737H43.4546V39.3514H45.2485V37.5737Z" fill="#39A84A"/>
    <path d="M47.0424 37.5732H45.2485V39.351H47.0424V37.5732Z" fill="#39A84A"/>
    <path d="M48.8344 37.5732H47.0405V39.351H48.8344V37.5732Z" fill="#39A84A"/>
    <path d="M50.6293 37.5732H48.8354V39.351H50.6293V37.5732Z" fill="#39A84A"/>
    <path d="M52.4238 37.5737H50.6299V39.3514H52.4238V37.5737Z" fill="black"/>
    <path d="M54.2167 37.5732H52.4229V39.351H54.2167V37.5732Z" fill="#4D4D4D"/>
    <path d="M56.0121 37.5732H54.2183V39.351H56.0121V37.5732Z" fill="#CCCCCC"/>
    <path d="M57.8046 37.5737H56.0107V39.3514H57.8046V37.5737Z" fill="black"/>
    <path d="M3.98871 39.3506H2.19482V41.1283H3.98871V39.3506Z" fill="black"/>
    <path d="M5.78314 39.3506H3.98926V41.1283H5.78314V39.3506Z" fill="#808080"/>
    <path d="M7.57709 39.3506H5.7832V41.1283H7.57709V39.3506Z" fill="#333333"/>
    <path d="M9.37006 39.3506H7.57617V41.1283H9.37006V39.3506Z" fill="black"/>
    <path d="M11.164 39.3506H9.37012V41.1283H11.164V39.3506Z" fill="black"/>
    <path d="M12.9584 39.3506H11.1646V41.1283H12.9584V39.3506Z" fill="black"/>
    <path d="M14.7514 39.3506H12.9575V41.1283H14.7514V39.3506Z" fill="black"/>
    <path d="M16.5463 39.3506H14.7524V41.1283H16.5463V39.3506Z" fill="black"/>
    <path d="M18.3398 39.3506H16.5459V41.1283H18.3398V39.3506Z" fill="black"/>
    <path d="M20.1337 39.3506H18.3398V41.1283H20.1337V39.3506Z" fill="black"/>
    <path d="M21.9267 39.3506H20.1328V41.1283H21.9267V39.3506Z" fill="black"/>
    <path d="M23.7211 39.3506H21.9272V41.1283H23.7211V39.3506Z" fill="black"/>
    <path d="M25.5161 39.3506H23.7222V41.1283H25.5161V39.3506Z" fill="black"/>
    <path d="M27.31 39.3506H25.5161V41.1283H27.31V39.3506Z" fill="black"/>
    <path d="M29.1025 39.3506H27.3086V41.1283H29.1025V39.3506Z" fill="black"/>
    <path d="M30.8964 39.3506H29.1025V41.1283H30.8964V39.3506Z" fill="black"/>
    <path d="M32.6913 39.3506H30.8975V41.1283H32.6913V39.3506Z" fill="black"/>
    <path d="M34.4843 39.3506H32.6904V41.1283H34.4843V39.3506Z" fill="black"/>
    <path d="M36.2807 39.3506H34.4868V41.1283H36.2807V39.3506Z" fill="black"/>
    <path d="M38.0727 39.3506H36.2788V41.1283H38.0727V39.3506Z" fill="black"/>
    <path d="M39.8666 39.3506H38.0728V41.1283H39.8666V39.3506Z" fill="black"/>
    <path d="M41.6611 39.3506H39.8672V41.1283H41.6611V39.3506Z" fill="black"/>
    <path d="M43.454 39.3506H41.6602V41.1283H43.454V39.3506Z" fill="black"/>
    <path d="M45.2485 39.3506H43.4546V41.1283H45.2485V39.3506Z" fill="black"/>
    <path d="M47.0424 39.3506H45.2485V41.1283H47.0424V39.3506Z" fill="black"/>
    <path d="M48.8344 39.3506H47.0405V41.1283H48.8344V39.3506Z" fill="black"/>
    <path d="M50.6293 39.3506H48.8354V41.1283H50.6293V39.3506Z" fill="black"/>
    <path d="M52.4238 39.3506H50.6299V41.1283H52.4238V39.3506Z" fill="black"/>
    <path d="M54.2167 39.3506H52.4229V41.1283H54.2167V39.3506Z" fill="#4D4D4D"/>
    <path d="M56.0121 39.3506H54.2183V41.1283H56.0121V39.3506Z" fill="#CCCCCC"/>
    <path d="M57.8046 39.3506H56.0107V41.1283H57.8046V39.3506Z" fill="black"/>
    <path d="M3.98871 41.1284H2.19482V42.9061H3.98871V41.1284Z" fill="black"/>
    <path d="M5.78314 41.1284H3.98926V42.9061H5.78314V41.1284Z" fill="#808080"/>
    <path d="M7.57709 41.1284H5.7832V42.9061H7.57709V41.1284Z" fill="#333333"/>
    <path d="M9.37006 41.1284H7.57617V42.9061H9.37006V41.1284Z" fill="#333333"/>
    <path d="M11.164 41.1284H9.37012V42.9061H11.164V41.1284Z" fill="#333333"/>
    <path d="M12.9584 41.1284H11.1646V42.9061H12.9584V41.1284Z" fill="#333333"/>
    <path d="M14.7514 41.1284H12.9575V42.9061H14.7514V41.1284Z" fill="#333333"/>
    <path d="M16.5463 41.1284H14.7524V42.9061H16.5463V41.1284Z" fill="#333333"/>
    <path d="M18.3398 41.1284H16.5459V42.9061H18.3398V41.1284Z" fill="#333333"/>
    <path d="M20.1337 41.1284H18.3398V42.9061H20.1337V41.1284Z" fill="#333333"/>
    <path d="M21.9267 41.1284H20.1328V42.9061H21.9267V41.1284Z" fill="#333333"/>
    <path d="M23.7211 41.1284H21.9272V42.9061H23.7211V41.1284Z" fill="#333333"/>
    <path d="M25.5161 41.1284H23.7222V42.9061H25.5161V41.1284Z" fill="#333333"/>
    <path d="M27.31 41.1284H25.5161V42.9061H27.31V41.1284Z" fill="#333333"/>
    <path d="M29.1025 41.1284H27.3086V42.9061H29.1025V41.1284Z" fill="#333333"/>
    <path d="M30.8964 41.1284H29.1025V42.9061H30.8964V41.1284Z" fill="#333333"/>
    <path d="M32.6913 41.1284H30.8975V42.9061H32.6913V41.1284Z" fill="#333333"/>
    <path d="M34.4843 41.1284H32.6904V42.9061H34.4843V41.1284Z" fill="#333333"/>
    <path d="M36.2807 41.1284H34.4868V42.9061H36.2807V41.1284Z" fill="#333333"/>
    <path d="M38.0727 41.1284H36.2788V42.9061H38.0727V41.1284Z" fill="#333333"/>
    <path d="M39.8666 41.1284H38.0728V42.9061H39.8666V41.1284Z" fill="#333333"/>
    <path d="M41.6611 41.1284H39.8672V42.9061H41.6611V41.1284Z" fill="#333333"/>
    <path d="M43.454 41.1284H41.6602V42.9061H43.454V41.1284Z" fill="#333333"/>
    <path d="M45.2485 41.1284H43.4546V42.9061H45.2485V41.1284Z" fill="#333333"/>
    <path d="M47.0424 41.1284H45.2485V42.9061H47.0424V41.1284Z" fill="#333333"/>
    <path d="M48.8344 41.1284H47.0405V42.9061H48.8344V41.1284Z" fill="#333333"/>
    <path d="M50.6293 41.1284H48.8354V42.9061H50.6293V41.1284Z" fill="#333333"/>
    <path d="M52.4238 41.1284H50.6299V42.9061H52.4238V41.1284Z" fill="#333333"/>
    <path d="M54.2167 41.1284H52.4229V42.9061H54.2167V41.1284Z" fill="#333333"/>
    <path d="M56.0121 41.1284H54.2183V42.9061H56.0121V41.1284Z" fill="#CCCCCC"/>
    <path d="M57.8046 41.1284H56.0107V42.9061H57.8046V41.1284Z" fill="black"/>
    <path d="M3.98871 42.9058H2.19482V44.6835H3.98871V42.9058Z" fill="black"/>
    <path d="M5.78314 42.9058H3.98926V44.6835H5.78314V42.9058Z" fill="#808080"/>
    <path d="M7.57709 42.9058H5.7832V44.6835H7.57709V42.9058Z" fill="#808080"/>
    <path d="M9.37006 42.9058H7.57617V44.6835H9.37006V42.9058Z" fill="#808080"/>
    <path d="M11.164 42.9058H9.37012V44.6835H11.164V42.9058Z" fill="#808080"/>
    <path d="M12.9584 42.9058H11.1646V44.6835H12.9584V42.9058Z" fill="#808080"/>
    <path d="M14.7514 42.9058H12.9575V44.6835H14.7514V42.9058Z" fill="#808080"/>
    <path d="M16.5463 42.9058H14.7524V44.6835H16.5463V42.9058Z" fill="#808080"/>
    <path d="M18.3398 42.9058H16.5459V44.6835H18.3398V42.9058Z" fill="#808080"/>
    <path d="M20.1337 42.9058H18.3398V44.6835H20.1337V42.9058Z" fill="#808080"/>
    <path d="M21.9267 42.9058H20.1328V44.6835H21.9267V42.9058Z" fill="#808080"/>
    <path d="M23.7211 42.9058H21.9272V44.6835H23.7211V42.9058Z" fill="#808080"/>
    <path d="M25.5161 42.9058H23.7222V44.6835H25.5161V42.9058Z" fill="#808080"/>
    <path d="M27.31 42.9058H25.5161V44.6835H27.31V42.9058Z" fill="#808080"/>
    <path d="M29.1025 42.9058H27.3086V44.6835H29.1025V42.9058Z" fill="#808080"/>
    <path d="M30.8964 42.9058H29.1025V44.6835H30.8964V42.9058Z" fill="#808080"/>
    <path d="M32.6913 42.9058H30.8975V44.6835H32.6913V42.9058Z" fill="#808080"/>
    <path d="M34.4843 42.9058H32.6904V44.6835H34.4843V42.9058Z" fill="#808080"/>
    <path d="M36.2807 42.9058H34.4868V44.6835H36.2807V42.9058Z" fill="#808080"/>
    <path d="M38.0727 42.9058H36.2788V44.6835H38.0727V42.9058Z" fill="#808080"/>
    <path d="M39.8666 42.9058H38.0728V44.6835H39.8666V42.9058Z" fill="#808080"/>
    <path d="M41.6591 42.9058H39.8652V44.6835H41.6591V42.9058Z" fill="#808080"/>
    <path d="M43.454 42.9058H41.6602V44.6835H43.454V42.9058Z" fill="#808080"/>
    <path d="M45.2485 42.9058H43.4546V44.6835H45.2485V42.9058Z" fill="#808080"/>
    <path d="M47.0424 42.9058H45.2485V44.6835H47.0424V42.9058Z" fill="#808080"/>
    <path d="M48.8344 42.9058H47.0405V44.6835H48.8344V42.9058Z" fill="#808080"/>
    <path d="M50.6293 42.9058H48.8354V44.6835H50.6293V42.9058Z" fill="#808080"/>
    <path d="M52.4238 42.9058H50.6299V44.6835H52.4238V42.9058Z" fill="#808080"/>
    <path d="M54.2167 42.9058H52.4229V44.6835H54.2167V42.9058Z" fill="#808080"/>
    <path d="M56.0121 42.9058H54.2183V44.6835H56.0121V42.9058Z" fill="#808080"/>
    <path d="M57.8046 42.9058H56.0107V44.6835H57.8046V42.9058Z" fill="black"/>
    <path d="M3.98871 44.6831H2.19482V46.4608H3.98871V44.6831Z" fill="black"/>
    <path d="M5.78314 44.6831H3.98926V46.4608H5.78314V44.6831Z" fill="black"/>
    <path d="M7.57709 44.6831H5.7832V46.4608H7.57709V44.6831Z" fill="black"/>
    <path d="M9.37006 44.6831H7.57617V46.4608H9.37006V44.6831Z" fill="black"/>
    <path d="M11.164 44.6831H9.37012V46.4608H11.164V44.6831Z" fill="black"/>
    <path d="M12.9584 44.6831H11.1646V46.4608H12.9584V44.6831Z" fill="black"/>
    <path d="M14.7514 44.6831H12.9575V46.4608H14.7514V44.6831Z" fill="black"/>
    <path d="M16.5463 44.6831H14.7524V46.4608H16.5463V44.6831Z" fill="black"/>
    <path d="M18.3398 44.6831H16.5459V46.4608H18.3398V44.6831Z" fill="black"/>
    <path d="M20.1337 44.6831H18.3398V46.4608H20.1337V44.6831Z" fill="black"/>
    <path d="M21.9267 44.6831H20.1328V46.4608H21.9267V44.6831Z" fill="black"/>
    <path d="M23.7211 44.6831H21.9272V46.4608H23.7211V44.6831Z" fill="black"/>
    <path d="M25.5161 44.6831H23.7222V46.4608H25.5161V44.6831Z" fill="black"/>
    <path d="M27.31 44.6831H25.5161V46.4608H27.31V44.6831Z" fill="black"/>
    <path d="M29.1025 44.6831H27.3086V46.4608H29.1025V44.6831Z" fill="black"/>
    <path d="M30.8964 44.6831H29.1025V46.4608H30.8964V44.6831Z" fill="black"/>
    <path d="M32.6913 44.6831H30.8975V46.4608H32.6913V44.6831Z" fill="black"/>
    <path d="M34.4843 44.6831H32.6904V46.4608H34.4843V44.6831Z" fill="black"/>
    <path d="M36.2807 44.6831H34.4868V46.4608H36.2807V44.6831Z" fill="black"/>
    <path d="M38.0727 44.6831H36.2788V46.4608H38.0727V44.6831Z" fill="black"/>
    <path d="M39.8666 44.6831H38.0728V46.4608H39.8666V44.6831Z" fill="black"/>
    <path d="M41.6591 44.6831H39.8652V46.4608H41.6591V44.6831Z" fill="black"/>
    <path d="M43.454 44.6831H41.6602V46.4608H43.454V44.6831Z" fill="black"/>
    <path d="M45.2485 44.6831H43.4546V46.4608H45.2485V44.6831Z" fill="black"/>
    <path d="M47.0424 44.6831H45.2485V46.4608H47.0424V44.6831Z" fill="black"/>
    <path d="M48.8344 44.6831H47.0405V46.4608H48.8344V44.6831Z" fill="black"/>
    <path d="M50.6293 44.6831H48.8354V46.4608H50.6293V44.6831Z" fill="black"/>
    <path d="M52.4238 44.6831H50.6299V46.4608H52.4238V44.6831Z" fill="black"/>
    <path d="M54.2167 44.6831H52.4229V46.4608H54.2167V44.6831Z" fill="black"/>
    <path d="M56.0121 44.6831H54.2183V46.4608H56.0121V44.6831Z" fill="black"/>
    <path d="M57.8046 44.6831H56.0107V46.4608H57.8046V44.6831Z" fill="black"/>
    <path d="M57.8044 10.4492H2.19482V12.6443H57.8044V10.4492Z" fill="white"/>
    <path d="M60.0003 12.644H57.8052V46.3025H60.0003V12.644Z" fill="white"/>
    <path d="M59.9998 46.3018H0V48.4969H59.9998V46.3018Z" fill="white"/>
    <path d="M2.19511 12.644H0V46.3025H2.19511V12.644Z" fill="white"/>
</svg>
