<svg width="70" height="70" viewBox="0 0 70 70" fill="none" xmlns="http://www.w3.org/2000/svg">
    <path d="M50.0001 3.33301H10.0001V6.66634H50.0001V3.33301Z" fill="black"/>
    <path d="M10 10.0005H6.66668V36.6672H10V10.0005Z" fill="white"/>
    <path d="M53.3333 10.0005H50V36.6672H53.3333V10.0005Z" fill="white"/>
    <path d="M50.0001 6.66699H10.0001V40.0003H50.0001V6.66699Z" fill="white"/>
    <path d="M3.33326 10.0005H-6.86646e-05V36.6672H3.33326V10.0005Z" fill="white"/>
    <path d="M6.66664 36.667H3.33331V40.0003H6.66664V36.667Z" fill="white"/>
    <path d="M3.33326 36.667H-6.86646e-05V40.0003H3.33326V36.667Z" fill="white"/>
    <path d="M6.66664 40H3.33331V43.3333H6.66664V40Z" fill="white"/>
    <path d="M9.99994 40H6.6666V43.3333H9.99994V40Z" fill="white"/>
    <path d="M9.99994 43.333H6.6666V46.6663H9.99994V43.333Z" fill="white"/>
    <path d="M50 43.333H9.99998V46.6663H50V43.333Z" fill="white"/>
    <path d="M53.3333 40H50V43.3333H53.3333V40Z" fill="white"/>
    <path d="M56.6666 36.667H53.3333V40.0003H56.6666V36.667Z" fill="white"/>
    <path d="M59.9999 36.667H56.6666V40.0003H59.9999V36.667Z" fill="white"/>
    <path d="M56.6666 40H53.3333V43.3333H56.6666V40Z" fill="white"/>
    <path d="M53.3333 43.333H50V46.6663H53.3333V43.333Z" fill="white"/>
    <path d="M59.9999 10.0005H56.6666V36.6672H59.9999V10.0005Z" fill="white"/>
    <path d="M56.6666 6.66699H53.3333V10.0003H56.6666V6.66699Z" fill="white"/>
    <path d="M53.3333 3.33301H50V6.66634H53.3333V3.33301Z" fill="white"/>
    <path d="M6.66664 6.66699H3.33331V10.0003H6.66664V6.66699Z" fill="white"/>
    <path d="M9.99994 3.33301H6.6666V6.66634H9.99994V3.33301Z" fill="white"/>
    <path d="M50 0H9.99998V3.33333H50V0Z" fill="white"/>
    <path d="M50 13.2964H33.3333V16.6297H50V13.2964Z" fill="black"/>
    <path d="M50 19.9995H33.3333V23.3328H50V19.9995Z" fill="black"/>
    <path d="M50 26.667H33.3333V30.0003H50V26.667Z" fill="black"/>
    <path d="M6.66671 10.0005H3.33337V36.6672H6.66671V10.0005Z" fill="black"/>
    <path d="M56.6667 10.0005H53.3333V36.6672H56.6667V10.0005Z" fill="black"/>
    <path d="M10 36.667H6.66668V40.0003H10V36.667Z" fill="#4D4D4D"/>
    <path d="M10 6.66699H6.66668V10.0003H10V6.66699Z" fill="#1A1A1A"/>
    <path d="M16.6667 3.33301H10.0001V6.66634H16.6667V3.33301Z" fill="#333333"/>
    <path d="M6.66671 16.6665H3.33337V23.3332H6.66671V16.6665Z" fill="#333333"/>
    <path d="M6.66671 30H3.33337V36.6667H6.66671V30Z" fill="#333333"/>
    <path d="M23.3333 3.33301H16.6667V6.66634H23.3333V3.33301Z" fill="#4D4D4D"/>
    <path d="M6.66671 23.3335H3.33337V30.0002H6.66671V23.3335Z" fill="#4D4D4D"/>
    <path d="M20 10.0005H16.6667V13.3338H20V10.0005Z" fill="#FFA219"/>
    <path d="M23.3334 10.0005H20V13.3338H23.3334V10.0005Z" fill="#FFBF66"/>
    <path d="M26.6667 13.3335H23.3333V16.6668H26.6667V13.3335Z" fill="#FFBF66"/>
    <path d="M26.6667 16.6665H23.3333V19.9998H26.6667V16.6665Z" fill="#FFA219"/>
    <path d="M23.3334 19.9995H20V23.3328H23.3334V19.9995Z" fill="#D98100"/>
    <path d="M23.3334 16.6665H20V19.9998H23.3334V16.6665Z" fill="#FFA219"/>
    <path d="M20 19.9995H16.6667V23.3328H20V19.9995Z" fill="#D98100"/>
    <path d="M20 16.6665H16.6667V19.9998H20V16.6665Z" fill="#D98100"/>
    <path d="M23.3334 13.3335H20V16.6668H23.3334V13.3335Z" fill="#FFA219"/>
    <path d="M20 13.3335H16.6667V16.6668H20V13.3335Z" fill="#FFA219"/>
    <path d="M26.6667 33.333H13.3334V36.6663H26.6667V33.333Z" fill="#D98100"/>
    <path d="M30.0001 30H10.0001V33.3333H30.0001V30Z" fill="#FFA219"/>
    <path d="M23.3333 26.667H16.6667V30.0003H23.3333V26.667Z" fill="#FFBF66"/>
    <path d="M16.6667 16.6665H13.3334V19.9998H16.6667V16.6665Z" fill="#D98100"/>
    <path d="M16.6667 13.3335H13.3334V16.6668H16.6667V13.3335Z" fill="#D98100"/>
    <path d="M53.3333 36.667H50V40.0003H53.3333V36.667Z" fill="black"/>
    <path d="M53.3333 6.66699H50V10.0003H53.3333V6.66699Z" fill="black"/>
    <path d="M50.0001 40H10.0001V43.3333H50.0001V40Z" fill="black"/>
    <path d="M16.6667 40H10.0001V43.3333H16.6667V40Z" fill="#666666"/>
    <path d="M23.3333 40H16.6667V43.3333H23.3333V40Z" fill="#4D4D4D"/>
    <path d="M30 40H23.3333V43.3333H30V40Z" fill="#333333"/>
    <path d="M36.6667 40H30V43.3333H36.6667V40Z" fill="#1A1A1A"/>
</svg>
