<svg width="70" height="70" viewBox="0 0 70 70" fill="none" xmlns="http://www.w3.org/2000/svg">
    <path d="M27.3638 14.6362H24.8184V17.1817H27.3638V14.6362Z" fill="#666666"/>
    <path d="M29.9092 14.6362H27.3638V17.1817H29.9092V14.6362Z" fill="#4D4D4D"/>
    <path d="M32.4546 14.6362H29.9092V17.1817H32.4546V14.6362Z" fill="#333333"/>
    <path d="M35 14.6362H32.4546V17.1817H35V14.6362Z" fill="#1A1A1A"/>
    <path d="M37.5455 14.6362H35V17.1817H37.5455V14.6362Z" fill="black"/>
    <path d="M40.0909 14.6362H37.5454V17.1817H40.0909V14.6362Z" fill="black"/>
    <path d="M42.6365 14.6362H40.0911V17.1817H42.6365V14.6362Z" fill="black"/>
    <path d="M45.1819 14.6362H42.6365V17.1817H45.1819V14.6362Z" fill="black"/>
    <path d="M45.182 12.0908H24.8184V14.6363H45.182V12.0908Z" fill="white"/>
    <path d="M24.8182 14.6362H22.2727V17.1817H24.8182V14.6362Z" fill="white"/>
    <path d="M24.8182 52.8179H22.2727V55.3633H24.8182V52.8179Z" fill="white"/>
    <path d="M24.8182 55.3638H22.2727V57.9092H24.8182V55.3638Z" fill="white"/>
    <path d="M47.7273 14.6362H45.1819V17.1817H47.7273V14.6362Z" fill="white"/>
    <path d="M47.7273 52.8179H45.1819V55.3633H47.7273V52.8179Z" fill="white"/>
    <path d="M47.7273 55.3638H45.1819V57.9092H47.7273V55.3638Z" fill="white"/>
    <path d="M50.2728 52.8179H47.7273V55.3633H50.2728V52.8179Z" fill="white"/>
    <path d="M45.182 55.3638H24.8184V57.9092H45.182V55.3638Z" fill="white"/>
    <path d="M22.2728 17.1816H19.7273V19.7271H22.2728V17.1816Z" fill="white"/>
    <path d="M22.2728 50.2725H19.7273V52.8179H22.2728V50.2725Z" fill="white"/>
    <path d="M22.2728 52.8179H19.7273V55.3633H22.2728V52.8179Z" fill="white"/>
    <path d="M19.7273 50.2725H17.1819V52.8179H19.7273V50.2725Z" fill="white"/>
    <path d="M50.2728 17.1816H47.7273V19.7271H50.2728V17.1816Z" fill="white"/>
    <path d="M50.2728 50.2725H47.7273V52.8179H50.2728V50.2725Z" fill="white"/>
    <path d="M52.8182 50.2725H50.2727V52.8179H52.8182V50.2725Z" fill="white"/>
    <path d="M52.8182 19.7271H50.2727V50.2725H52.8182V19.7271Z" fill="white"/>
    <path d="M19.7273 19.7271H17.1819V50.2725H19.7273V19.7271Z" fill="white"/>
    <path d="M32.4546 50.2725H29.9092V52.8179H32.4546V50.2725Z" fill="#111111"/>
    <path d="M35 50.2725H32.4546V52.8179H35V50.2725Z" fill="#2986FF"/>
    <path d="M37.5455 50.2725H35V52.8179H37.5455V50.2725Z" fill="#999999"/>
    <path d="M40.0909 50.2725H37.5454V52.8179H40.0909V50.2725Z" fill="#111111"/>
    <path d="M42.6365 50.2725H40.0911V52.8179H42.6365V50.2725Z" fill="black"/>
    <path d="M45.1819 50.2725H42.6365V52.8179H45.1819V50.2725Z" fill="#4D4D4D"/>
    <path d="M29.9092 50.2725H27.3638V52.8179H29.9092V50.2725Z" fill="black"/>
    <path d="M27.3638 47.7271H24.8184V50.2725H27.3638V47.7271Z" fill="#2986FF"/>
    <path d="M42.6365 47.7271H27.3638V50.2725H42.6365V47.7271Z" fill="#45B3E9"/>
    <path d="M45.1819 47.7271H42.6365V50.2725H45.1819V47.7271Z" fill="black"/>
    <path d="M27.3638 50.2725H24.8184V52.8179H27.3638V50.2725Z" fill="black"/>
    <path d="M24.8182 47.7271H22.2727V50.2725H24.8182V47.7271Z" fill="black"/>
    <path d="M27.3638 47.7271H24.8184V50.2725H27.3638V47.7271Z" fill="black"/>
    <path d="M29.9092 47.7271H27.3638V50.2725H29.9092V47.7271Z" fill="black"/>
    <path d="M35 47.7271H32.4546V50.2725H35V47.7271Z" fill="black"/>
    <path d="M40.0909 47.7271H37.5454V50.2725H40.0909V47.7271Z" fill="black"/>
    <path d="M37.5455 47.7271H35V50.2725H37.5455V47.7271Z" fill="black"/>
    <path d="M42.6365 47.7271H40.0911V50.2725H42.6365V47.7271Z" fill="black"/>
    <path d="M47.7273 47.7271H45.1819V50.2725H47.7273V47.7271Z" fill="#4D4D4D"/>
    <path d="M47.7273 19.7271H45.1819V22.2725H47.7273V19.7271Z" fill="black"/>
    <path d="M24.8182 19.7271H22.2727V22.2725H24.8182V19.7271Z" fill="#1A1A1A"/>
    <path d="M27.3638 17.1816H24.8184V19.7271H27.3638V17.1816Z" fill="#4D4D4D"/>
    <path d="M29.9092 17.1816H27.3638V19.7271H29.9092V17.1816Z" fill="#2986FF"/>
    <path d="M27.3638 19.7271H24.8184V22.2725H27.3638V19.7271Z" fill="#2986FF"/>
    <path d="M45.1819 19.7271H42.6365V22.2725H45.1819V19.7271Z" fill="#2986FF"/>
    <path d="M35 19.7271H32.4546V22.2725H35V19.7271Z" fill="#2986FF"/>
    <path d="M37.5455 19.7271H35V22.2725H37.5455V19.7271Z" fill="#2986FF"/>
    <path d="M32.4546 17.1816H29.9092V19.7271H32.4546V17.1816Z" fill="#2986FF"/>
    <path d="M35 17.1816H32.4546V19.7271H35V17.1816Z" fill="black"/>
    <path d="M40.0909 17.1816H37.5454V19.7271H40.0909V17.1816Z" fill="#2986FF"/>
    <path d="M42.6365 17.1816H40.0911V19.7271H42.6365V17.1816Z" fill="#2986FF"/>
    <path d="M29.9092 19.7271H27.3638V22.2725H29.9092V19.7271Z" fill="#45B3E9"/>
    <path d="M32.4546 19.7271H29.9092V22.2725H32.4546V19.7271Z" fill="#45B3E9"/>
    <path d="M40.0909 19.7271H37.5454V22.2725H40.0909V19.7271Z" fill="#45B3E9"/>
    <path d="M42.6365 19.7271H40.0911V22.2725H42.6365V19.7271Z" fill="#45B3E9"/>
    <path d="M45.1819 17.1816H42.6365V19.7271H45.1819V17.1816Z" fill="black"/>
    <path d="M24.8182 22.2725H22.2727V47.727H24.8182V22.2725Z" fill="#2986FF"/>
    <path d="M45.182 22.2725H24.8184V47.727H45.182V22.2725Z" fill="#45B3E9"/>
    <path d="M47.7273 22.2725H45.1819V47.727H47.7273V22.2725Z" fill="#2986FF"/>
    <path d="M24.8182 50.2725H22.2727V52.8179H24.8182V50.2725Z" fill="black"/>
    <path d="M47.7273 50.2725H45.1819V52.8179H47.7273V50.2725Z" fill="#666666"/>
    <path d="M27.3638 52.8179H24.8184V55.3633H27.3638V52.8179Z" fill="black"/>
    <path d="M29.9092 52.8179H27.3638V55.3633H29.9092V52.8179Z" fill="black"/>
    <path d="M32.4546 52.8179H29.9092V55.3633H32.4546V52.8179Z" fill="black"/>
    <path d="M35 52.8179H32.4546V55.3633H35V52.8179Z" fill="black"/>
    <path d="M37.5455 52.8179H35V55.3633H37.5455V52.8179Z" fill="black"/>
    <path d="M40.0909 52.8179H37.5454V55.3633H40.0909V52.8179Z" fill="#111111"/>
    <path d="M42.6365 52.8179H40.0911V55.3633H42.6365V52.8179Z" fill="#1E1E1E"/>
    <path d="M45.1819 52.8179H42.6365V55.3633H45.1819V52.8179Z" fill="#333333"/>
    <path d="M24.8182 17.1816H22.2727V19.7271H24.8182V17.1816Z" fill="#333333"/>
    <path d="M22.2728 47.7271H19.7273V50.2725H22.2728V47.7271Z" fill="black"/>
    <path d="M22.2728 45.1816H19.7273V47.7271H22.2728V45.1816Z" fill="black"/>
    <path d="M22.2728 42.6362H19.7273V45.1817H22.2728V42.6362Z" fill="black"/>
    <path d="M22.2728 40.0908H19.7273V42.6363H22.2728V40.0908Z" fill="black"/>
    <path d="M22.2728 37.5454H19.7273V40.0909H22.2728V37.5454Z" fill="black"/>
    <path d="M22.2728 35H19.7273V37.5455H22.2728V35Z" fill="black"/>
    <path d="M22.2728 32.4546H19.7273V35H22.2728V32.4546Z" fill="black"/>
    <path d="M22.2728 29.9092H19.7273V32.4546H22.2728V29.9092Z" fill="black"/>
    <path d="M22.2728 27.3638H19.7273V29.9092H22.2728V27.3638Z" fill="black"/>
    <path d="M22.2728 24.8179H19.7273V27.3633H22.2728V24.8179Z" fill="black"/>
    <path d="M22.2728 22.2725H19.7273V24.8179H22.2728V22.2725Z" fill="black"/>
    <path d="M22.2728 19.7271H19.7273V22.2725H22.2728V19.7271Z" fill="black"/>
    <path d="M50.2728 47.7271H47.7273V50.2725H50.2728V47.7271Z" fill="#333333"/>
    <path d="M50.2728 45.1816H47.7273V47.7271H50.2728V45.1816Z" fill="#1E1E1E"/>
    <path d="M50.2728 42.6362H47.7273V45.1817H50.2728V42.6362Z" fill="#111111"/>
    <path d="M50.2728 40.0908H47.7273V42.6363H50.2728V40.0908Z" fill="black"/>
    <path d="M50.2728 37.5454H47.7273V40.0909H50.2728V37.5454Z" fill="black"/>
    <path d="M50.2728 35H47.7273V37.5455H50.2728V35Z" fill="black"/>
    <path d="M50.2728 32.4546H47.7273V35H50.2728V32.4546Z" fill="black"/>
    <path d="M50.2728 29.9092H47.7273V32.4546H50.2728V29.9092Z" fill="black"/>
    <path d="M50.2728 27.3638H47.7273V29.9092H50.2728V27.3638Z" fill="black"/>
    <path d="M50.2728 24.8179H47.7273V27.3633H50.2728V24.8179Z" fill="black"/>
    <path d="M50.2728 22.2725H47.7273V24.8179H50.2728V22.2725Z" fill="black"/>
    <path d="M50.2728 19.7271H47.7273V22.2725H50.2728V19.7271Z" fill="black"/>
    <path d="M47.7273 17.1816H45.1819V19.7271H47.7273V17.1816Z" fill="black"/>
    <path d="M37.5455 17.1816H35V19.7271H37.5455V17.1816Z" fill="#1A1A1A"/>
    <path d="M35 27.3638H32.4546V29.9092H35V27.3638Z" fill="#FFA219"/>
    <path d="M37.5457 27.3638H35.0002V29.9092H37.5457V27.3638Z" fill="#FFBF66"/>
    <path d="M40.0911 29.9092H37.5457V32.4546H40.0911V29.9092Z" fill="#FFBF66"/>
    <path d="M40.0911 32.4546H37.5457V35H40.0911V32.4546Z" fill="#FFA219"/>
    <path d="M37.5457 32.4546H35.0002V35H37.5457V32.4546Z" fill="#FFA219"/>
    <path d="M37.5457 29.9092H35.0002V32.4546H37.5457V29.9092Z" fill="#FFA219"/>
    <path d="M35 29.9092H32.4546V32.4546H35V29.9092Z" fill="#FFA219"/>
    <path d="M40.091 45.1821H29.9092V47.7276H40.091V45.1821Z" fill="#D98100"/>
    <path d="M42.6365 42.6367H27.3638V45.1822H42.6365V42.6367Z" fill="#FFA219"/>
    <path d="M37.5455 40.0908H32.4546V42.6363H37.5455V40.0908Z" fill="#FFBF66"/>
    <path d="M32.4546 32.4546H29.9092V35H32.4546V32.4546Z" fill="#D98100"/>
    <path d="M35 32.4546H32.4546V35H35V32.4546Z" fill="#D98100"/>
    <path d="M35 35H32.4546V37.5455H35V35Z" fill="#D98100"/>
    <path d="M37.5457 35H35.0002V37.5455H37.5457V35Z" fill="#D98100"/>
    <path d="M32.4546 29.9092H29.9092V32.4546H32.4546V29.9092Z" fill="#D98100"/>
    <path d="M42.6365 19.7271H40.0911V22.2725H42.6365V19.7271Z" fill="#E5F8FF"/>
    <path d="M40.0909 17.1816H37.5454V19.7271H40.0909V17.1816Z" fill="#E5F8FF"/>
    <path d="M45.1819 22.2725H42.6365V24.8179H45.1819V22.2725Z" fill="#E5F8FF"/>
    <path d="M47.7273 24.8179H45.1819V27.3633H47.7273V24.8179Z" fill="#E5F8FF"/>
    <path d="M24.8182 40.0908H22.2727V42.6363H24.8182V40.0908Z" fill="#E5F8FF"/>
    <path d="M27.3638 42.6362H24.8184V45.1817H27.3638V42.6362Z" fill="#E5F8FF"/>
    <path d="M29.9092 45.1816H27.3638V47.7271H29.9092V45.1816Z" fill="#E5F8FF"/>
    <path d="M32.4546 47.7271H29.9092V50.2725H32.4546V47.7271Z" fill="black"/>
    <path d="M35 50.2725H32.4546V52.8179H35V50.2725Z" fill="#666666"/>
    <path d="M35 24.8179H32.4546V27.3633H35V24.8179Z" fill="black"/>
    <path d="M37.5455 24.8179H35V27.3633H37.5455V24.8179Z" fill="black"/>
    <path d="M40.0909 27.3638H37.5454V29.9092H40.0909V27.3638Z" fill="black"/>
    <path d="M42.6365 29.9092H40.0911V32.4546H42.6365V29.9092Z" fill="black"/>
    <path d="M42.6365 32.4546H40.0911V35H42.6365V32.4546Z" fill="black"/>
    <path d="M42.6365 35H40.0911V37.5455H42.6365V35Z" fill="black"/>
    <path d="M42.6365 37.5454H40.0911V40.0909H42.6365V37.5454Z" fill="black"/>
    <path d="M40.0909 37.5454H37.5454V40.0909H40.0909V37.5454Z" fill="black"/>
    <path d="M40.0909 35H37.5454V37.5455H40.0909V35Z" fill="black"/>
    <path d="M32.4546 35H29.9092V37.5455H32.4546V35Z" fill="black"/>
    <path d="M32.4546 27.3638H29.9092V29.9092H32.4546V27.3638Z" fill="black"/>
    <path d="M29.9092 27.3638H27.3638V29.9092H29.9092V27.3638Z" fill="black"/>
    <path d="M32.4546 24.8179H29.9092V27.3633H32.4546V24.8179Z" fill="black"/>
    <path d="M29.9092 29.9092H27.3638V32.4546H29.9092V29.9092Z" fill="black"/>
    <path d="M29.9092 32.4546H27.3638V35H29.9092V32.4546Z" fill="black"/>
    <path d="M29.9092 35H27.3638V37.5455H29.9092V35Z" fill="black"/>
    <path d="M29.9092 37.5454H27.3638V40.0909H29.9092V37.5454Z" fill="black"/>
    <path d="M32.4546 37.5454H29.9092V40.0909H32.4546V37.5454Z" fill="black"/>
</svg>
