<svg width="50" height="50" viewBox="0 0 50 50" fill="none" xmlns="http://www.w3.org/2000/svg">
    <g clip-path="url(#clip0_2090_24692)">
        <path d="M11.4979 4.18164H9.39575V6.28374H11.4979V4.18164Z" fill="white"/>
        <path d="M13.5999 4.18164H11.4978V6.28374H13.5999V4.18164Z" fill="white"/>
        <path d="M15.7022 4.18164H13.6001V6.28374H15.7022V4.18164Z" fill="white"/>
        <path d="M17.8033 4.18164H15.7012V6.28374H17.8033V4.18164Z" fill="white"/>
        <path d="M19.8948 4.18164H17.7927V6.28374H19.8948V4.18164Z" fill="white"/>
        <path d="M21.9959 4.18164H19.8938V6.28374H21.9959V4.18164Z" fill="white"/>
        <path d="M24.0979 4.18164H21.9958V6.28374H24.0979V4.18164Z" fill="white"/>
        <path d="M26.2 4.18164H24.0979V6.28374H26.2V4.18164Z" fill="white"/>
        <path d="M28.302 4.18164H26.2V6.28374H28.302V4.18164Z" fill="white"/>
        <path d="M30.3917 4.18164H28.2896V6.28374H30.3917V4.18164Z" fill="white"/>
        <path d="M32.4947 4.18164H30.3926V6.28374H32.4947V4.18164Z" fill="white"/>
        <path d="M34.5958 4.18164H32.4937V6.28374H34.5958V4.18164Z" fill="white"/>
        <path d="M9.3958 6.28369H7.2937V8.38579H9.3958V6.28369Z" fill="white"/>
        <path d="M11.4979 6.28369H9.39575V8.38579H11.4979V6.28369Z" fill="black"/>
        <path d="M13.5999 6.28369H11.4978V8.38579H13.5999V6.28369Z" fill="black"/>
        <path d="M15.7022 6.28369H13.6001V8.38579H15.7022V6.28369Z" fill="black"/>
        <path d="M17.8033 6.28369H15.7012V8.38579H17.8033V6.28369Z" fill="black"/>
        <path d="M19.8948 6.28369H17.7927V8.38579H19.8948V6.28369Z" fill="black"/>
        <path d="M21.9959 6.28369H19.8938V8.38579H21.9959V6.28369Z" fill="black"/>
        <path d="M24.0979 6.28369H21.9958V8.38579H24.0979V6.28369Z" fill="black"/>
        <path d="M26.2 6.28369H24.0979V8.38579H26.2V6.28369Z" fill="black"/>
        <path d="M28.302 6.28369H26.2V8.38579H28.302V6.28369Z" fill="black"/>
        <path d="M30.3917 6.28369H28.2896V8.38579H30.3917V6.28369Z" fill="black"/>
        <path d="M32.4947 6.28369H30.3926V8.38579H32.4947V6.28369Z" fill="black"/>
        <path d="M34.5958 6.28369H32.4937V8.38579H34.5958V6.28369Z" fill="black"/>
        <path d="M36.699 6.28369H34.5969V8.38579H36.699V6.28369Z" fill="white"/>
        <path d="M7.3062 8.38574H5.2041V10.4878H7.3062V8.38574Z" fill="white"/>
        <path d="M9.3958 8.38574H7.2937V10.4878H9.3958V8.38574Z" fill="black"/>
        <path d="M11.4979 8.38574H9.39575V10.4878H11.4979V8.38574Z" fill="#E3E3E3"/>
        <path d="M13.5999 8.38574H11.4978V10.4878H13.5999V8.38574Z" fill="#E3E3E3"/>
        <path d="M15.7022 8.38574H13.6001V10.4878H15.7022V8.38574Z" fill="white"/>
        <path d="M17.8033 8.38574H15.7012V10.4878H17.8033V8.38574Z" fill="white"/>
        <path d="M19.8948 8.38574H17.7927V10.4878H19.8948V8.38574Z" fill="#E3E3E3"/>
        <path d="M21.9959 8.38574H19.8938V10.4878H21.9959V8.38574Z" fill="white"/>
        <path d="M24.0979 8.38574H21.9958V10.4878H24.0979V8.38574Z" fill="white"/>
        <path d="M26.2 8.38574H24.0979V10.4878H26.2V8.38574Z" fill="white"/>
        <path d="M28.302 8.38574H26.2V10.4878H28.302V8.38574Z" fill="white"/>
        <path d="M30.3917 8.38574H28.2896V10.4878H30.3917V8.38574Z" fill="#E3E3E3"/>
        <path d="M32.4947 8.38574H30.3926V10.4878H32.4947V8.38574Z" fill="#E3E3E3"/>
        <path d="M34.5958 8.38574H32.4937V10.4878H34.5958V8.38574Z" fill="white"/>
        <path d="M36.699 8.38574H34.5969V10.4878H36.699V8.38574Z" fill="white"/>
        <path d="M38.8001 8.38574H36.698V10.4878H38.8001V8.38574Z" fill="white"/>
        <path d="M5.20415 10.4751H3.10205V12.5772H5.20415V10.4751Z" fill="white"/>
        <path d="M7.3062 10.4751H5.2041V12.5772H7.3062V10.4751Z" fill="black"/>
        <path d="M9.3958 10.4751H7.2937V12.5772H9.3958V10.4751Z" fill="#8C8C8C"/>
        <path d="M11.4979 10.4751H9.39575V12.5772H11.4979V10.4751Z" fill="#E3E3E3"/>
        <path d="M13.5999 10.4751H11.4978V12.5772H13.5999V10.4751Z" fill="#E3E3E3"/>
        <path d="M15.7022 10.4751H13.6001V12.5772H15.7022V10.4751Z" fill="#E3E3E3"/>
        <path d="M17.8033 10.4751H15.7012V12.5772H17.8033V10.4751Z" fill="#E3E3E3"/>
        <path d="M19.8948 10.4751H17.7927V12.5772H19.8948V10.4751Z" fill="#E3E3E3"/>
        <path d="M21.9959 10.4751H19.8938V12.5772H21.9959V10.4751Z" fill="#E3E3E3"/>
        <path d="M24.0979 10.4751H21.9958V12.5772H24.0979V10.4751Z" fill="#E3E3E3"/>
        <path d="M26.2 10.4751H24.0979V12.5772H26.2V10.4751Z" fill="#E3E3E3"/>
        <path d="M28.302 10.4751H26.2V12.5772H28.302V10.4751Z" fill="#E3E3E3"/>
        <path d="M30.3917 10.4751H28.2896V12.5772H30.3917V10.4751Z" fill="#E3E3E3"/>
        <path d="M32.4947 10.4751H30.3926V12.5772H32.4947V10.4751Z" fill="#E3E3E3"/>
        <path d="M34.5958 10.4751H32.4937V12.5772H34.5958V10.4751Z" fill="#E3E3E3"/>
        <path d="M36.699 10.4751H34.5969V12.5772H36.699V10.4751Z" fill="#E3E3E3"/>
        <path d="M38.8001 10.4751H36.698V12.5772H38.8001V10.4751Z" fill="black"/>
        <path d="M40.8895 10.4751H38.7874V12.5772H40.8895V10.4751Z" fill="white"/>
        <path d="M5.20415 12.5776H3.10205V14.6797H5.20415V12.5776Z" fill="white"/>
        <path d="M7.3062 12.5776H5.2041V14.6797H7.3062V12.5776Z" fill="black"/>
        <path d="M9.3958 12.5776H7.2937V14.6797H9.3958V12.5776Z" fill="#8C8C8C"/>
        <path d="M11.4979 12.5776H9.39575V14.6797H11.4979V12.5776Z" fill="#E3E3E3"/>
        <path d="M13.5999 12.5776H11.4978V14.6797H13.5999V12.5776Z" fill="#E3E3E3"/>
        <path d="M15.7022 12.5776H13.6001V14.6797H15.7022V12.5776Z" fill="#E3E3E3"/>
        <path d="M17.8033 12.5776H15.7012V14.6797H17.8033V12.5776Z" fill="#E3E3E3"/>
        <path d="M19.8948 12.5776H17.7927V14.6797H19.8948V12.5776Z" fill="#E3E3E3"/>
        <path d="M21.9959 12.5776H19.8938V14.6797H21.9959V12.5776Z" fill="#E3E3E3"/>
        <path d="M24.0979 12.5776H21.9958V14.6797H24.0979V12.5776Z" fill="#E3E3E3"/>
        <path d="M26.2 12.5776H24.0979V14.6797H26.2V12.5776Z" fill="black"/>
        <path d="M28.302 12.5776H26.2V14.6797H28.302V12.5776Z" fill="#E3E3E3"/>
        <path d="M30.3917 12.5776H28.2896V14.6797H30.3917V12.5776Z" fill="#E3E3E3"/>
        <path d="M32.4947 12.5776H30.3926V14.6797H32.4947V12.5776Z" fill="#E3E3E3"/>
        <path d="M34.5958 12.5776H32.4937V14.6797H34.5958V12.5776Z" fill="#E3E3E3"/>
        <path d="M36.699 12.5776H34.5969V14.6797H36.699V12.5776Z" fill="#E3E3E3"/>
        <path d="M38.8001 12.5776H36.698V14.6797H38.8001V12.5776Z" fill="black"/>
        <path d="M40.8895 12.5776H38.7874V14.6797H40.8895V12.5776Z" fill="white"/>
        <path d="M5.20415 14.6797H3.10205V16.7818H5.20415V14.6797Z" fill="white"/>
        <path d="M7.3062 14.6797H5.2041V16.7818H7.3062V14.6797Z" fill="black"/>
        <path d="M9.3958 14.6797H7.2937V16.7818H9.3958V14.6797Z" fill="#8C8C8C"/>
        <path d="M11.4979 14.6797H9.39575V16.7818H11.4979V14.6797Z" fill="#E3E3E3"/>
        <path d="M13.5999 14.6797H11.4978V16.7818H13.5999V14.6797Z" fill="#E3E3E3"/>
        <path d="M15.7022 14.6797H13.6001V16.7818H15.7022V14.6797Z" fill="black"/>
        <path d="M17.8033 14.6797H15.7012V16.7818H17.8033V14.6797Z" fill="#E3E3E3"/>
        <path d="M19.8948 14.6797H17.7927V16.7818H19.8948V14.6797Z" fill="#E3E3E3"/>
        <path d="M21.9959 14.6797H19.8938V16.7818H21.9959V14.6797Z" fill="#E3E3E3"/>
        <path d="M24.0979 14.6797H21.9958V16.7818H24.0979V14.6797Z" fill="#E3E3E3"/>
        <path d="M26.2 14.6797H24.0979V16.7818H26.2V14.6797Z" fill="black"/>
        <path d="M28.302 14.6797H26.2V16.7818H28.302V14.6797Z" fill="#E3E3E3"/>
        <path d="M30.3917 14.6797H28.2896V16.7818H30.3917V14.6797Z" fill="black"/>
        <path d="M32.4947 14.6797H30.3926V16.7818H32.4947V14.6797Z" fill="#E3E3E3"/>
        <path d="M34.5958 14.6797H32.4937V16.7818H34.5958V14.6797Z" fill="#E3E3E3"/>
        <path d="M36.699 14.6797H34.5969V16.7818H36.699V14.6797Z" fill="#E3E3E3"/>
        <path d="M38.8001 14.6797H36.698V16.7818H38.8001V14.6797Z" fill="black"/>
        <path d="M40.8895 14.6797H38.7874V16.7818H40.8895V14.6797Z" fill="white"/>
        <path d="M5.20415 16.7817H3.10205V18.8838H5.20415V16.7817Z" fill="white"/>
        <path d="M7.3062 16.7817H5.2041V18.8838H7.3062V16.7817Z" fill="black"/>
        <path d="M9.3958 16.7817H7.2937V18.8838H9.3958V16.7817Z" fill="#8C8C8C"/>
        <path d="M11.4979 16.7817H9.39575V18.8838H11.4979V16.7817Z" fill="#E3E3E3"/>
        <path d="M13.5999 16.7817H11.4978V18.8838H13.5999V16.7817Z" fill="black"/>
        <path d="M15.7022 16.7817H13.6001V18.8838H15.7022V16.7817Z" fill="#E3E3E3"/>
        <path d="M17.8033 16.7817H15.7012V18.8838H17.8033V16.7817Z" fill="#E3E3E3"/>
        <path d="M19.8948 16.7817H17.7927V18.8838H19.8948V16.7817Z" fill="#E3E3E3"/>
        <path d="M21.9959 16.7817H19.8938V18.8838H21.9959V16.7817Z" fill="#E3E3E3"/>
        <path d="M24.0979 16.7817H21.9958V18.8838H24.0979V16.7817Z" fill="black"/>
        <path d="M26.2 16.7817H24.0979V18.8838H26.2V16.7817Z" fill="#E3E3E3"/>
        <path d="M28.302 16.7817H26.2V18.8838H28.302V16.7817Z" fill="#E3E3E3"/>
        <path d="M30.3917 16.7817H28.2896V18.8838H30.3917V16.7817Z" fill="#E3E3E3"/>
        <path d="M32.4947 16.7817H30.3926V18.8838H32.4947V16.7817Z" fill="black"/>
        <path d="M34.5958 16.7817H32.4937V18.8838H34.5958V16.7817Z" fill="#E3E3E3"/>
        <path d="M36.699 16.7817H34.5969V18.8838H36.699V16.7817Z" fill="#E3E3E3"/>
        <path d="M38.8001 16.7817H36.698V18.8838H38.8001V16.7817Z" fill="black"/>
        <path d="M40.8895 16.7817H38.7874V18.8838H40.8895V16.7817Z" fill="white"/>
        <path d="M5.20415 18.8838H3.10205V20.9859H5.20415V18.8838Z" fill="white"/>
        <path d="M7.3062 18.8838H5.2041V20.9859H7.3062V18.8838Z" fill="black"/>
        <path d="M9.3958 18.8838H7.2937V20.9859H9.3958V18.8838Z" fill="#8C8C8C"/>
        <path d="M11.4979 18.8838H9.39575V20.9859H11.4979V18.8838Z" fill="black"/>
        <path d="M13.5999 18.8838H11.4978V20.9859H13.5999V18.8838Z" fill="#E3E3E3"/>
        <path d="M15.7022 18.8838H13.6001V20.9859H15.7022V18.8838Z" fill="#E3E3E3"/>
        <path d="M17.8033 18.8838H15.7012V20.9859H17.8033V18.8838Z" fill="#E3E3E3"/>
        <path d="M19.8948 18.8838H17.7927V20.9859H19.8948V18.8838Z" fill="#E3E3E3"/>
        <path d="M21.9959 18.8838H19.8938V20.9859H21.9959V18.8838Z" fill="#E3E3E3"/>
        <path d="M24.0979 18.8838H21.9958V20.9859H24.0979V18.8838Z" fill="black"/>
        <path d="M26.2 18.8838H24.0979V20.9859H26.2V18.8838Z" fill="#E3E3E3"/>
        <path d="M28.302 18.8838H26.2V20.9859H28.302V18.8838Z" fill="#E3E3E3"/>
        <path d="M30.3917 18.8838H28.2896V20.9859H30.3917V18.8838Z" fill="#E3E3E3"/>
        <path d="M32.4947 18.8838H30.3926V20.9859H32.4947V18.8838Z" fill="#E3E3E3"/>
        <path d="M34.5958 18.8838H32.4937V20.9859H34.5958V18.8838Z" fill="black"/>
        <path d="M36.699 18.8838H34.5969V20.9859H36.699V18.8838Z" fill="#E3E3E3"/>
        <path d="M38.8001 18.8838H36.698V20.9859H38.8001V18.8838Z" fill="black"/>
        <path d="M40.8895 18.8838H38.7874V20.9859H40.8895V18.8838Z" fill="white"/>
        <path d="M5.20415 20.9731H3.10205V23.0752H5.20415V20.9731Z" fill="white"/>
        <path d="M7.3062 20.9731H5.2041V23.0752H7.3062V20.9731Z" fill="black"/>
        <path d="M9.3958 20.9731H7.2937V23.0752H9.3958V20.9731Z" fill="#8C8C8C"/>
        <path d="M11.4979 20.9731H9.39575V23.0752H11.4979V20.9731Z" fill="#E3E3E3"/>
        <path d="M13.5999 20.9731H11.4978V23.0752H13.5999V20.9731Z" fill="#E3E3E3"/>
        <path d="M15.7022 20.9731H13.6001V23.0752H15.7022V20.9731Z" fill="#E3E3E3"/>
        <path d="M17.8033 20.9731H15.7012V23.0752H17.8033V20.9731Z" fill="#E3E3E3"/>
        <path d="M19.8948 20.9731H17.7927V23.0752H19.8948V20.9731Z" fill="#E3E3E3"/>
        <path d="M21.9959 20.9731H19.8938V23.0752H21.9959V20.9731Z" fill="black"/>
        <path d="M24.0979 20.9731H21.9958V23.0752H24.0979V20.9731Z" fill="#E3E3E3"/>
        <path d="M26.2 20.9731H24.0979V23.0752H26.2V20.9731Z" fill="#E3E3E3"/>
        <path d="M28.302 20.9731H26.2V23.0752H28.302V20.9731Z" fill="#E3E3E3"/>
        <path d="M30.3917 20.9731H28.2896V23.0752H30.3917V20.9731Z" fill="#E3E3E3"/>
        <path d="M32.4947 20.9731H30.3926V23.0752H32.4947V20.9731Z" fill="#E3E3E3"/>
        <path d="M34.5958 20.9731H32.4937V23.0752H34.5958V20.9731Z" fill="#E3E3E3"/>
        <path d="M36.699 20.9731H34.5969V23.0752H36.699V20.9731Z" fill="#E3E3E3"/>
        <path d="M38.8001 20.9731H36.698V23.0752H38.8001V20.9731Z" fill="black"/>
        <path d="M40.8895 20.9731H38.7874V23.0752H40.8895V20.9731Z" fill="white"/>
        <path d="M5.20415 23.0752H3.10205V25.1773H5.20415V23.0752Z" fill="white"/>
        <path d="M7.3062 23.0752H5.2041V25.1773H7.3062V23.0752Z" fill="black"/>
        <path d="M9.3958 23.0752H7.2937V25.1773H9.3958V23.0752Z" fill="#8C8C8C"/>
        <path d="M11.4979 23.0752H9.39575V25.1773H11.4979V23.0752Z" fill="black"/>
        <path d="M13.5999 23.0752H11.4978V25.1773H13.5999V23.0752Z" fill="#E3E3E3"/>
        <path d="M15.7022 23.0752H13.6001V25.1773H15.7022V23.0752Z" fill="#E3E3E3"/>
        <path d="M17.8033 23.0752H15.7012V25.1773H17.8033V23.0752Z" fill="#E3E3E3"/>
        <path d="M19.8948 23.0752H17.7927V25.1773H19.8948V23.0752Z" fill="#E3E3E3"/>
        <path d="M21.9959 23.0752H19.8938V25.1773H21.9959V23.0752Z" fill="black"/>
        <path d="M24.0979 23.0752H21.9958V25.1773H24.0979V23.0752Z" fill="#E3E3E3"/>
        <path d="M26.2 23.0752H24.0979V25.1773H26.2V23.0752Z" fill="#E3E3E3"/>
        <path d="M28.302 23.0752H26.2V25.1773H28.302V23.0752Z" fill="#E3E3E3"/>
        <path d="M30.3917 23.0752H28.2896V25.1773H30.3917V23.0752Z" fill="#E3E3E3"/>
        <path d="M32.4947 23.0752H30.3926V25.1773H32.4947V23.0752Z" fill="#E3E3E3"/>
        <path d="M34.5958 23.0752H32.4937V25.1773H34.5958V23.0752Z" fill="black"/>
        <path d="M36.699 23.0752H34.5969V25.1773H36.699V23.0752Z" fill="#E3E3E3"/>
        <path d="M38.8001 23.0752H36.698V25.1773H38.8001V23.0752Z" fill="black"/>
        <path d="M40.8895 23.0752H38.7874V25.1773H40.8895V23.0752Z" fill="white"/>
        <path d="M5.20415 25.1772H3.10205V27.2793H5.20415V25.1772Z" fill="white"/>
        <path d="M7.3062 25.1772H5.2041V27.2793H7.3062V25.1772Z" fill="black"/>
        <path d="M9.3958 25.1772H7.2937V27.2793H9.3958V25.1772Z" fill="#8C8C8C"/>
        <path d="M11.4979 25.1772H9.39575V27.2793H11.4979V25.1772Z" fill="#E3E3E3"/>
        <path d="M13.5999 25.1772H11.4978V27.2793H13.5999V25.1772Z" fill="black"/>
        <path d="M15.7022 25.1772H13.6001V27.2793H15.7022V25.1772Z" fill="#E3E3E3"/>
        <path d="M17.8033 25.1772H15.7012V27.2793H17.8033V25.1772Z" fill="#E3E3E3"/>
        <path d="M19.8948 25.1772H17.7927V27.2793H19.8948V25.1772Z" fill="#E3E3E3"/>
        <path d="M21.9959 25.1772H19.8938V27.2793H21.9959V25.1772Z" fill="black"/>
        <path d="M24.0979 25.1772H21.9958V27.2793H24.0979V25.1772Z" fill="#E3E3E3"/>
        <path d="M26.2 25.1772H24.0979V27.2793H26.2V25.1772Z" fill="#E3E3E3"/>
        <path d="M28.302 25.1772H26.2V27.2793H28.302V25.1772Z" fill="#E3E3E3"/>
        <path d="M30.3917 25.1772H28.2896V27.2793H30.3917V25.1772Z" fill="#E3E3E3"/>
        <path d="M32.4947 25.1772H30.3926V27.2793H32.4947V25.1772Z" fill="black"/>
        <path d="M34.5958 25.1772H32.4937V27.2793H34.5958V25.1772Z" fill="#E3E3E3"/>
        <path d="M36.699 25.1772H34.5969V27.2793H36.699V25.1772Z" fill="#E3E3E3"/>
        <path d="M38.8001 25.1772H36.698V27.2793H38.8001V25.1772Z" fill="black"/>
        <path d="M40.8895 25.1772H38.7874V27.2793H40.8895V25.1772Z" fill="white"/>
        <path d="M5.20415 27.2793H3.10205V29.3814H5.20415V27.2793Z" fill="white"/>
        <path d="M7.3062 27.2793H5.2041V29.3814H7.3062V27.2793Z" fill="black"/>
        <path d="M9.3958 27.2793H7.2937V29.3814H9.3958V27.2793Z" fill="#8C8C8C"/>
        <path d="M11.4979 27.2793H9.39575V29.3814H11.4979V27.2793Z" fill="#E3E3E3"/>
        <path d="M13.5999 27.2793H11.4978V29.3814H13.5999V27.2793Z" fill="#E3E3E3"/>
        <path d="M15.7022 27.2793H13.6001V29.3814H15.7022V27.2793Z" fill="black"/>
        <path d="M17.8033 27.2793H15.7012V29.3814H17.8033V27.2793Z" fill="#E3E3E3"/>
        <path d="M19.8948 27.2793H17.7927V29.3814H19.8948V27.2793Z" fill="black"/>
        <path d="M21.9959 27.2793H19.8938V29.3814H21.9959V27.2793Z" fill="#E3E3E3"/>
        <path d="M24.0979 27.2793H21.9958V29.3814H24.0979V27.2793Z" fill="#E3E3E3"/>
        <path d="M26.2 27.2793H24.0979V29.3814H26.2V27.2793Z" fill="#E3E3E3"/>
        <path d="M28.302 27.2793H26.2V29.3814H28.302V27.2793Z" fill="#E3E3E3"/>
        <path d="M30.3917 27.2793H28.2896V29.3814H30.3917V27.2793Z" fill="black"/>
        <path d="M32.4947 27.2793H30.3926V29.3814H32.4947V27.2793Z" fill="#E3E3E3"/>
        <path d="M34.5958 27.2793H32.4937V29.3814H34.5958V27.2793Z" fill="#E3E3E3"/>
        <path d="M36.699 27.2793H34.5969V29.3814H36.699V27.2793Z" fill="#E3E3E3"/>
        <path d="M38.8001 27.2793H36.698V29.3814H38.8001V27.2793Z" fill="black"/>
        <path d="M40.8895 27.2793H38.7874V29.3814H40.8895V27.2793Z" fill="white"/>
        <path d="M5.20415 29.3818H3.10205V31.4839H5.20415V29.3818Z" fill="white"/>
        <path d="M7.3062 29.3818H5.2041V31.4839H7.3062V29.3818Z" fill="black"/>
        <path d="M9.3958 29.3818H7.2937V31.4839H9.3958V29.3818Z" fill="#8C8C8C"/>
        <path d="M11.4979 29.3818H9.39575V31.4839H11.4979V29.3818Z" fill="#E3E3E3"/>
        <path d="M13.5999 29.3818H11.4978V31.4839H13.5999V29.3818Z" fill="#E3E3E3"/>
        <path d="M15.7022 29.3818H13.6001V31.4839H15.7022V29.3818Z" fill="#E3E3E3"/>
        <path d="M17.8033 29.3818H15.7012V31.4839H17.8033V29.3818Z" fill="#E3E3E3"/>
        <path d="M19.8948 29.3818H17.7927V31.4839H19.8948V29.3818Z" fill="black"/>
        <path d="M21.9959 29.3818H19.8938V31.4839H21.9959V29.3818Z" fill="#E3E3E3"/>
        <path d="M24.0979 29.3818H21.9958V31.4839H24.0979V29.3818Z" fill="#E3E3E3"/>
        <path d="M26.2 29.3818H24.0979V31.4839H26.2V29.3818Z" fill="#E3E3E3"/>
        <path d="M28.302 29.3818H26.2V31.4839H28.302V29.3818Z" fill="#E3E3E3"/>
        <path d="M30.3917 29.3818H28.2896V31.4839H30.3917V29.3818Z" fill="#E3E3E3"/>
        <path d="M32.4947 29.3818H30.3926V31.4839H32.4947V29.3818Z" fill="#E3E3E3"/>
        <path d="M34.5958 29.3818H32.4937V31.4839H34.5958V29.3818Z" fill="#E3E3E3"/>
        <path d="M36.699 29.3818H34.5969V31.4839H36.699V29.3818Z" fill="#D9D9D9"/>
        <path d="M38.8001 29.3818H36.698V31.4839H38.8001V29.3818Z" fill="black"/>
        <path d="M40.8895 29.3818H38.7874V31.4839H40.8895V29.3818Z" fill="white"/>
        <path d="M5.20415 31.4712H3.10205V33.5733H5.20415V31.4712Z" fill="white"/>
        <path d="M7.3062 31.4712H5.2041V33.5733H7.3062V31.4712Z" fill="black"/>
        <path d="M9.3958 31.4712H7.2937V33.5733H9.3958V31.4712Z" fill="#8C8C8C"/>
        <path d="M11.4979 31.4712H9.39575V33.5733H11.4979V31.4712Z" fill="white"/>
        <path d="M13.5999 31.4712H11.4978V33.5733H13.5999V31.4712Z" fill="white"/>
        <path d="M15.7022 31.4712H13.6001V33.5733H15.7022V31.4712Z" fill="white"/>
        <path d="M17.8033 31.4712H15.7012V33.5733H17.8033V31.4712Z" fill="white"/>
        <path d="M19.8948 31.4712H17.7927V33.5733H19.8948V31.4712Z" fill="white"/>
        <path d="M21.9959 31.4712H19.8938V33.5733H21.9959V31.4712Z" fill="white"/>
        <path d="M24.0979 31.4712H21.9958V33.5733H24.0979V31.4712Z" fill="white"/>
        <path d="M26.2 31.4712H24.0979V33.5733H26.2V31.4712Z" fill="white"/>
        <path d="M28.302 31.4712H26.2V33.5733H28.302V31.4712Z" fill="white"/>
        <path d="M30.3917 31.4712H28.2896V33.5733H30.3917V31.4712Z" fill="white"/>
        <path d="M32.4947 31.4712H30.3926V33.5733H32.4947V31.4712Z" fill="white"/>
        <path d="M34.5958 31.4712H32.4937V33.5733H34.5958V31.4712Z" fill="white"/>
        <path d="M36.699 31.4712H34.5969V33.5733H36.699V31.4712Z" fill="white"/>
        <path d="M38.8001 31.4712H36.698V33.5733H38.8001V31.4712Z" fill="black"/>
        <path d="M40.8895 31.4712H38.7874V33.5733H40.8895V31.4712Z" fill="white"/>
        <path d="M5.20415 33.5732H3.10205V35.6753H5.20415V33.5732Z" fill="white"/>
        <path d="M7.3062 33.5732H5.2041V35.6753H7.3062V33.5732Z" fill="black"/>
        <path d="M9.3958 33.5732H7.2937V35.6753H9.3958V33.5732Z" fill="#8C8C8C"/>
        <path d="M11.4979 33.5732H9.39575V35.6753H11.4979V33.5732Z" fill="#808080"/>
        <path d="M13.5999 33.5732H11.4978V35.6753H13.5999V33.5732Z" fill="#808080"/>
        <path d="M15.7022 33.5732H13.6001V35.6753H15.7022V33.5732Z" fill="#808080"/>
        <path d="M17.8033 33.5732H15.7012V35.6753H17.8033V33.5732Z" fill="#808080"/>
        <path d="M19.8948 33.5732H17.7927V35.6753H19.8948V33.5732Z" fill="#808080"/>
        <path d="M21.9959 33.5732H19.8938V35.6753H21.9959V33.5732Z" fill="#808080"/>
        <path d="M24.0979 33.5732H21.9958V35.6753H24.0979V33.5732Z" fill="#808080"/>
        <path d="M26.2 33.5732H24.0979V35.6753H26.2V33.5732Z" fill="#808080"/>
        <path d="M28.302 33.5732H26.2V35.6753H28.302V33.5732Z" fill="#808080"/>
        <path d="M30.3917 33.5732H28.2896V35.6753H30.3917V33.5732Z" fill="#808080"/>
        <path d="M32.4947 33.5732H30.3926V35.6753H32.4947V33.5732Z" fill="#808080"/>
        <path d="M34.5958 33.5732H32.4937V35.6753H34.5958V33.5732Z" fill="#808080"/>
        <path d="M36.699 33.5732H34.5969V35.6753H36.699V33.5732Z" fill="#8C8C8C"/>
        <path d="M38.8001 33.5732H36.698V35.6753H38.8001V33.5732Z" fill="black"/>
        <path d="M40.8895 33.5732H38.7874V35.6753H40.8895V33.5732Z" fill="white"/>
        <path d="M5.20415 35.6753H3.10205V37.7774H5.20415V35.6753Z" fill="white"/>
        <path d="M7.3062 35.6753H5.2041V37.7774H7.3062V35.6753Z" fill="white"/>
        <path d="M9.3958 35.6753H7.2937V37.7774H9.3958V35.6753Z" fill="black"/>
        <path d="M11.4979 35.6753H9.39575V37.7774H11.4979V35.6753Z" fill="#8C8C8C"/>
        <path d="M13.5999 35.6753H11.4978V37.7774H13.5999V35.6753Z" fill="#8C8C8C"/>
        <path d="M15.7022 35.6753H13.6001V37.7774H15.7022V35.6753Z" fill="#8C8C8C"/>
        <path d="M17.8033 35.6753H15.7012V37.7774H17.8033V35.6753Z" fill="#8C8C8C"/>
        <path d="M19.8948 35.6753H17.7927V37.7774H19.8948V35.6753Z" fill="#8C8C8C"/>
        <path d="M21.9959 35.6753H19.8938V37.7774H21.9959V35.6753Z" fill="#8C8C8C"/>
        <path d="M24.0979 35.6753H21.9958V37.7774H24.0979V35.6753Z" fill="#8C8C8C"/>
        <path d="M26.2 35.6753H24.0979V37.7774H26.2V35.6753Z" fill="#8C8C8C"/>
        <path d="M28.302 35.6753H26.2V37.7774H28.302V35.6753Z" fill="#8C8C8C"/>
        <path d="M30.3917 35.6753H28.2896V37.7774H30.3917V35.6753Z" fill="#8C8C8C"/>
        <path d="M32.4947 35.6753H30.3926V37.7774H32.4947V35.6753Z" fill="#8C8C8C"/>
        <path d="M34.5958 35.6753H32.4937V37.7774H34.5958V35.6753Z" fill="#8C8C8C"/>
        <path d="M36.699 35.6753H34.5969V37.7774H36.699V35.6753Z" fill="black"/>
        <path d="M38.8001 35.6753H36.698V37.7774H38.8001V35.6753Z" fill="white"/>
        <path d="M40.8895 35.6753H38.7874V37.7774H40.8895V35.6753Z" fill="white"/>
        <path d="M7.3062 37.7773H5.2041V39.8794H7.3062V37.7773Z" fill="white"/>
        <path d="M9.3958 37.7773H7.2937V39.8794H9.3958V37.7773Z" fill="white"/>
        <path d="M11.4979 37.7773H9.39575V39.8794H11.4979V37.7773Z" fill="black"/>
        <path d="M13.5999 37.7773H11.4978V39.8794H13.5999V37.7773Z" fill="black"/>
        <path d="M15.7022 37.7773H13.6001V39.8794H15.7022V37.7773Z" fill="black"/>
        <path d="M17.8033 37.7773H15.7012V39.8794H17.8033V37.7773Z" fill="black"/>
        <path d="M19.8948 37.7773H17.7927V39.8794H19.8948V37.7773Z" fill="black"/>
        <path d="M21.9959 37.7773H19.8938V39.8794H21.9959V37.7773Z" fill="black"/>
        <path d="M24.0979 37.7773H21.9958V39.8794H24.0979V37.7773Z" fill="black"/>
        <path d="M26.2 37.7773H24.0979V39.8794H26.2V37.7773Z" fill="black"/>
        <path d="M28.302 37.7773H26.2V39.8794H28.302V37.7773Z" fill="black"/>
        <path d="M30.3917 37.7773H28.2896V39.8794H30.3917V37.7773Z" fill="black"/>
        <path d="M32.4947 37.7773H30.3926V39.8794H32.4947V37.7773Z" fill="black"/>
        <path d="M34.5958 37.7773H32.4937V39.8794H34.5958V37.7773Z" fill="black"/>
        <path d="M36.699 37.7773H34.5969V39.8794H36.699V37.7773Z" fill="white"/>
        <path d="M38.8001 37.7773H36.698V39.8794H38.8001V37.7773Z" fill="white"/>
        <path d="M9.3958 39.8794H7.2937V41.9815H9.3958V39.8794Z" fill="white"/>
        <path d="M11.4979 39.8794H9.39575V41.9815H11.4979V39.8794Z" fill="white"/>
        <path d="M9.3958 4.18164H7.2937V6.28374H9.3958V4.18164Z" fill="white"/>
        <path d="M7.3062 6.28369H5.2041V8.38579H7.3062V6.28369Z" fill="white"/>
        <path d="M9.3958 6.28369H7.2937V8.38579H9.3958V6.28369Z" fill="black"/>
        <path d="M5.20415 8.38574H3.10205V10.4878H5.20415V8.38574Z" fill="white"/>
        <path d="M7.3062 8.38574H5.2041V10.4878H7.3062V8.38574Z" fill="black"/>
        <path d="M9.3958 8.38574H7.2937V10.4878H9.3958V8.38574Z" fill="#8C8C8C"/>
        <path d="M3.1021 10.4751H1V12.5772H3.1021V10.4751Z" fill="white"/>
        <path d="M5.20415 10.4751H3.10205V12.5772H5.20415V10.4751Z" fill="black"/>
        <path d="M7.3062 10.4751H5.2041V12.5772H7.3062V10.4751Z" fill="#8C8C8C"/>
        <path d="M9.3958 10.4751H7.2937V12.5772H9.3958V10.4751Z" fill="#E3E3E3"/>
        <path d="M3.1021 12.5776H1V14.6797H3.1021V12.5776Z" fill="white"/>
        <path d="M5.20415 12.5776H3.10205V14.6797H5.20415V12.5776Z" fill="black"/>
        <path d="M7.3062 12.5776H5.2041V14.6797H7.3062V12.5776Z" fill="#8C8C8C"/>
        <path d="M9.3958 12.5776H7.2937V14.6797H9.3958V12.5776Z" fill="#E3E3E3"/>
        <path d="M3.1021 14.6797H1V16.7818H3.1021V14.6797Z" fill="white"/>
        <path d="M5.20415 14.6797H3.10205V16.7818H5.20415V14.6797Z" fill="black"/>
        <path d="M7.3062 14.6797H5.2041V16.7818H7.3062V14.6797Z" fill="#8C8C8C"/>
        <path d="M9.3958 14.6797H7.2937V16.7818H9.3958V14.6797Z" fill="#E3E3E3"/>
        <path d="M3.1021 16.7817H1V18.8838H3.1021V16.7817Z" fill="white"/>
        <path d="M5.20415 16.7817H3.10205V18.8838H5.20415V16.7817Z" fill="black"/>
        <path d="M7.3062 16.7817H5.2041V18.8838H7.3062V16.7817Z" fill="#8C8C8C"/>
        <path d="M9.3958 16.7817H7.2937V18.8838H9.3958V16.7817Z" fill="#E3E3E3"/>
        <path d="M3.1021 18.8838H1V20.9859H3.1021V18.8838Z" fill="white"/>
        <path d="M5.20415 18.8838H3.10205V20.9859H5.20415V18.8838Z" fill="black"/>
        <path d="M7.3062 18.8838H5.2041V20.9859H7.3062V18.8838Z" fill="#8C8C8C"/>
        <path d="M9.3958 18.8838H7.2937V20.9859H9.3958V18.8838Z" fill="#E3E3E3"/>
        <path d="M3.1021 20.9731H1V23.0752H3.1021V20.9731Z" fill="white"/>
        <path d="M5.20415 20.9731H3.10205V23.0752H5.20415V20.9731Z" fill="black"/>
        <path d="M7.3062 20.9731H5.2041V23.0752H7.3062V20.9731Z" fill="#8C8C8C"/>
        <path d="M9.3958 20.9731H7.2937V23.0752H9.3958V20.9731Z" fill="black"/>
        <path d="M3.1021 23.0752H1V25.1773H3.1021V23.0752Z" fill="white"/>
        <path d="M5.20415 23.0752H3.10205V25.1773H5.20415V23.0752Z" fill="black"/>
        <path d="M7.3062 23.0752H5.2041V25.1773H7.3062V23.0752Z" fill="#8C8C8C"/>
        <path d="M9.3958 23.0752H7.2937V25.1773H9.3958V23.0752Z" fill="#E3E3E3"/>
        <path d="M3.1021 25.1772H1V27.2793H3.1021V25.1772Z" fill="white"/>
        <path d="M5.20415 25.1772H3.10205V27.2793H5.20415V25.1772Z" fill="black"/>
        <path d="M7.3062 25.1772H5.2041V27.2793H7.3062V25.1772Z" fill="#8C8C8C"/>
        <path d="M9.3958 25.1772H7.2937V27.2793H9.3958V25.1772Z" fill="#E3E3E3"/>
        <path d="M3.1021 27.2793H1V29.3814H3.1021V27.2793Z" fill="white"/>
        <path d="M5.20415 27.2793H3.10205V29.3814H5.20415V27.2793Z" fill="black"/>
        <path d="M7.3062 27.2793H5.2041V29.3814H7.3062V27.2793Z" fill="#8C8C8C"/>
        <path d="M9.3958 27.2793H7.2937V29.3814H9.3958V27.2793Z" fill="#E3E3E3"/>
        <path d="M3.1021 29.3818H1V31.4839H3.1021V29.3818Z" fill="white"/>
        <path d="M5.20415 29.3818H3.10205V31.4839H5.20415V29.3818Z" fill="black"/>
        <path d="M7.3062 29.3818H5.2041V31.4839H7.3062V29.3818Z" fill="#8C8C8C"/>
        <path d="M9.3958 29.3818H7.2937V31.4839H9.3958V29.3818Z" fill="white"/>
        <path d="M3.1021 31.4712H1V33.5733H3.1021V31.4712Z" fill="white"/>
        <path d="M5.20415 31.4712H3.10205V33.5733H5.20415V31.4712Z" fill="black"/>
        <path d="M7.3062 31.4712H5.2041V33.5733H7.3062V31.4712Z" fill="#8C8C8C"/>
        <path d="M9.3958 31.4712H7.2937V33.5733H9.3958V31.4712Z" fill="#808080"/>
        <path d="M3.1021 33.5732H1V35.6753H3.1021V33.5732Z" fill="white"/>
        <path d="M5.20415 33.5732H3.10205V35.6753H5.20415V33.5732Z" fill="black"/>
        <path d="M7.3062 33.5732H5.2041V35.6753H7.3062V33.5732Z" fill="#8C8C8C"/>
        <path d="M9.3958 33.5732H7.2937V35.6753H9.3958V33.5732Z" fill="#8C8C8C"/>
        <path d="M3.1021 35.6753H1V37.7774H3.1021V35.6753Z" fill="white"/>
        <path d="M5.20415 35.6753H3.10205V37.7774H5.20415V35.6753Z" fill="white"/>
        <path d="M7.3062 35.6753H5.2041V37.7774H7.3062V35.6753Z" fill="black"/>
        <path d="M9.3958 35.6753H7.2937V37.7774H9.3958V35.6753Z" fill="#8C8C8C"/>
        <path d="M5.20415 37.7773H3.10205V39.8794H5.20415V37.7773Z" fill="white"/>
        <path d="M7.3062 37.7773H5.2041V39.8794H7.3062V37.7773Z" fill="white"/>
        <path d="M9.3958 37.7773H7.2937V39.8794H9.3958V37.7773Z" fill="black"/>
        <path d="M7.3062 39.8794H5.2041V41.9815H7.3062V39.8794Z" fill="white"/>
        <path d="M9.3958 39.8794H7.2937V41.9815H9.3958V39.8794Z" fill="white"/>
        <path d="M13.5999 39.8794H11.4978V41.9815H13.5999V39.8794Z" fill="white"/>
        <path d="M15.7022 39.8794H13.6001V41.9815H15.7022V39.8794Z" fill="white"/>
        <path d="M17.8033 39.8794H15.7012V41.9815H17.8033V39.8794Z" fill="white"/>
        <path d="M19.8948 39.8794H17.7927V41.9815H19.8948V39.8794Z" fill="white"/>
        <path d="M21.9959 39.8794H19.8938V41.9815H21.9959V39.8794Z" fill="white"/>
        <path d="M24.0979 39.8794H21.9958V41.9815H24.0979V39.8794Z" fill="white"/>
        <path d="M26.2 39.8794H24.0979V41.9815H26.2V39.8794Z" fill="white"/>
        <path d="M28.302 39.8794H26.2V41.9815H28.302V39.8794Z" fill="white"/>
        <path d="M30.3917 39.8794H28.2896V41.9815H30.3917V39.8794Z" fill="white"/>
        <path d="M32.4947 39.8794H30.3926V41.9815H32.4947V39.8794Z" fill="white"/>
        <path d="M34.5958 39.8794H32.4937V41.9815H34.5958V39.8794Z" fill="white"/>
        <path d="M36.699 39.8794H34.5969V41.9815H36.699V39.8794Z" fill="white"/>
        <path d="M36.699 4.18164H34.5969V6.28374H36.699V4.18164Z" fill="white"/>
        <path d="M36.699 6.28369H34.5969V8.38579H36.699V6.28369Z" fill="black"/>
        <path d="M38.8001 6.28369H36.698V8.38579H38.8001V6.28369Z" fill="white"/>
        <path d="M38.8001 8.38574H36.698V10.4878H38.8001V8.38574Z" fill="black"/>
        <path d="M40.8895 8.38574H38.7874V10.4878H40.8895V8.38574Z" fill="white"/>
        <path d="M36.699 10.4751H34.5969V12.5772H36.699V10.4751Z" fill="#E3E3E3"/>
        <path d="M38.8001 10.4751H36.698V12.5772H38.8001V10.4751Z" fill="#E3E3E3"/>
        <path d="M40.8895 10.4751H38.7874V12.5772H40.8895V10.4751Z" fill="black"/>
        <path d="M42.9927 10.4751H40.8906V12.5772H42.9927V10.4751Z" fill="white"/>
        <path d="M36.699 12.5776H34.5969V14.6797H36.699V12.5776Z" fill="#E3E3E3"/>
        <path d="M38.8001 12.5776H36.698V14.6797H38.8001V12.5776Z" fill="#E3E3E3"/>
        <path d="M40.8895 12.5776H38.7874V14.6797H40.8895V12.5776Z" fill="black"/>
        <path d="M42.9927 12.5776H40.8906V14.6797H42.9927V12.5776Z" fill="white"/>
        <path d="M36.699 14.6797H34.5969V16.7818H36.699V14.6797Z" fill="#E3E3E3"/>
        <path d="M38.8001 14.6797H36.698V16.7818H38.8001V14.6797Z" fill="#E3E3E3"/>
        <path d="M40.8895 14.6797H38.7874V16.7818H40.8895V14.6797Z" fill="black"/>
        <path d="M42.9927 14.6797H40.8906V16.7818H42.9927V14.6797Z" fill="white"/>
        <path d="M36.699 16.7817H34.5969V18.8838H36.699V16.7817Z" fill="#E3E3E3"/>
        <path d="M38.8001 16.7817H36.698V18.8838H38.8001V16.7817Z" fill="#E3E3E3"/>
        <path d="M40.8895 16.7817H38.7874V18.8838H40.8895V16.7817Z" fill="black"/>
        <path d="M42.9927 16.7817H40.8906V18.8838H42.9927V16.7817Z" fill="white"/>
        <path d="M36.699 18.8838H34.5969V20.9859H36.699V18.8838Z" fill="#E3E3E3"/>
        <path d="M38.8001 18.8838H36.698V20.9859H38.8001V18.8838Z" fill="#E3E3E3"/>
        <path d="M40.8895 18.8838H38.7874V20.9859H40.8895V18.8838Z" fill="black"/>
        <path d="M42.9927 18.8838H40.8906V20.9859H42.9927V18.8838Z" fill="white"/>
        <path d="M36.699 20.9731H34.5969V23.0752H36.699V20.9731Z" fill="black"/>
        <path d="M38.8001 20.9731H36.698V23.0752H38.8001V20.9731Z" fill="#E3E3E3"/>
        <path d="M40.8895 20.9731H38.7874V23.0752H40.8895V20.9731Z" fill="black"/>
        <path d="M42.9927 20.9731H40.8906V23.0752H42.9927V20.9731Z" fill="white"/>
        <path d="M36.699 23.0752H34.5969V25.1773H36.699V23.0752Z" fill="#E3E3E3"/>
        <path d="M38.8001 23.0752H36.698V25.1773H38.8001V23.0752Z" fill="#E3E3E3"/>
        <path d="M40.8895 23.0752H38.7874V25.1773H40.8895V23.0752Z" fill="black"/>
        <path d="M42.9927 23.0752H40.8906V25.1773H42.9927V23.0752Z" fill="white"/>
        <path d="M36.699 25.1772H34.5969V27.2793H36.699V25.1772Z" fill="#E3E3E3"/>
        <path d="M38.8001 25.1772H36.698V27.2793H38.8001V25.1772Z" fill="#E3E3E3"/>
        <path d="M40.8895 25.1772H38.7874V27.2793H40.8895V25.1772Z" fill="black"/>
        <path d="M42.9927 25.1772H40.8906V27.2793H42.9927V25.1772Z" fill="white"/>
        <path d="M36.699 27.2793H34.5969V29.3814H36.699V27.2793Z" fill="#E3E3E3"/>
        <path d="M38.8001 27.2793H36.698V29.3814H38.8001V27.2793Z" fill="#E3E3E3"/>
        <path d="M40.8895 27.2793H38.7874V29.3814H40.8895V27.2793Z" fill="black"/>
        <path d="M42.9927 27.2793H40.8906V29.3814H42.9927V27.2793Z" fill="white"/>
        <path d="M36.699 29.3818H34.5969V31.4839H36.699V29.3818Z" fill="#E3E3E3"/>
        <path d="M38.8001 29.3818H36.698V31.4839H38.8001V29.3818Z" fill="white"/>
        <path d="M40.8895 29.3818H38.7874V31.4839H40.8895V29.3818Z" fill="black"/>
        <path d="M42.9927 29.3818H40.8906V31.4839H42.9927V29.3818Z" fill="white"/>
        <path d="M38.8001 31.4712H36.698V33.5733H38.8001V31.4712Z" fill="#808080"/>
        <path d="M40.8895 31.4712H38.7874V33.5733H40.8895V31.4712Z" fill="black"/>
        <path d="M42.9927 31.4712H40.8906V33.5733H42.9927V31.4712Z" fill="white"/>
        <path d="M36.699 33.5732H34.5969V35.6753H36.699V33.5732Z" fill="#808080"/>
        <path d="M38.8001 33.5732H36.698V35.6753H38.8001V33.5732Z" fill="#8C8C8C"/>
        <path d="M40.8895 33.5732H38.7874V35.6753H40.8895V33.5732Z" fill="black"/>
        <path d="M42.9927 33.5732H40.8906V35.6753H42.9927V33.5732Z" fill="white"/>
        <path d="M36.699 35.6753H34.5969V37.7774H36.699V35.6753Z" fill="#8C8C8C"/>
        <path d="M38.8001 35.6753H36.698V37.7774H38.8001V35.6753Z" fill="black"/>
        <path d="M40.8895 35.6753H38.7874V37.7774H40.8895V35.6753Z" fill="white"/>
        <path d="M42.9927 35.6753H40.8906V37.7774H42.9927V35.6753Z" fill="white"/>
        <path d="M36.699 37.7773H34.5969V39.8794H36.699V37.7773Z" fill="black"/>
        <path d="M38.8001 37.7773H36.698V39.8794H38.8001V37.7773Z" fill="white"/>
        <path d="M40.8895 37.7773H38.7874V39.8794H40.8895V37.7773Z" fill="white"/>
        <path d="M36.699 39.8794H34.5969V41.9815H36.699V39.8794Z" fill="white"/>
        <path d="M38.8001 39.8794H36.698V41.9815H38.8001V39.8794Z" fill="white"/>
        <path d="M45.0906 27.272H42.9885V29.3741H45.0906V27.272Z" fill="#49CE58"/>
        <path d="M47.1927 27.272H45.0906V29.3741H47.1927V27.272Z" fill="#39A84A"/>
        <path d="M42.9886 29.374H40.8865V31.4761H42.9886V29.374Z" fill="#49CE58"/>
        <path d="M40.8865 31.4761H38.7844V33.5782H40.8865V31.4761Z" fill="#49CE58"/>
        <path d="M45.0906 29.3677H42.9885V31.4698H45.0906V29.3677Z" fill="#39A84A"/>
        <path d="M42.9886 31.4697H40.8865V33.5718H42.9886V31.4697Z" fill="#39A84A"/>
        <path d="M40.8865 33.5718H38.7844V35.6739H40.8865V33.5718Z" fill="#39A84A"/>
        <path d="M26.1939 33.5791H24.0918V35.6812H26.1939V33.5791Z" fill="#49CE58"/>
        <path d="M24.0928 33.5791H21.9907V35.6812H24.0928V33.5791Z" fill="#39A84A"/>
        <path d="M24.0928 31.4697H21.9907V33.5718H24.0928V31.4697Z" fill="#49CE58"/>
        <path d="M21.9927 31.4697H19.8906V33.5718H21.9927V31.4697Z" fill="#39A84A"/>
        <path d="M34.5928 39.873H32.4907V41.9751H34.5928V39.873Z" fill="#39A84A"/>
        <path d="M32.4886 41.9751H30.3865V44.0772H32.4886V41.9751Z" fill="#39A84A"/>
        <path d="M36.6927 37.771H34.5906V39.8731H36.6927V37.771Z" fill="#39A84A"/>
        <path d="M38.7969 35.6816H36.6948V37.7837H38.7969V35.6816Z" fill="#39A84A"/>
        <path d="M38.7959 33.5791H36.6938V35.6812H38.7959V33.5791Z" fill="#49CE58"/>
        <path d="M28.2959 35.6816H26.1938V37.7837H28.2959V35.6816Z" fill="#49CE58"/>
        <path d="M36.6939 35.6816H34.5918V37.7837H36.6939V35.6816Z" fill="#49CE58"/>
        <path d="M30.3865 37.771H28.2844V39.8731H30.3865V37.771Z" fill="#49CE58"/>
        <path d="M26.1939 35.6753H24.0918V37.7774H26.1939V35.6753Z" fill="#39A84A"/>
        <path d="M28.2959 37.7773H26.1938V39.8794H28.2959V37.7773Z" fill="#39A84A"/>
        <path d="M30.3865 39.8677H28.2844V41.9698H30.3865V39.8677Z" fill="#39A84A"/>
        <path d="M34.5916 37.771H32.4895V39.8731H34.5916V37.771Z" fill="#49CE58"/>
        <path d="M32.4886 39.873H30.3865V41.9751H32.4886V39.873Z" fill="#49CE58"/>
        <path d="M28.3012 41.9814H26.2012V44.0814H28.3012V41.9814Z" fill="white"/>
        <path d="M30.3959 41.9814H28.2959V44.0814H30.3959V41.9814Z" fill="white"/>
        <path d="M30.3959 44.0815H28.2959V46.1815H30.3959V44.0815Z" fill="white"/>
        <path d="M32.4958 44.0815H30.3958V46.1815H32.4958V44.0815Z" fill="white"/>
        <path d="M34.5895 44.0815H32.4895V46.1815H34.5895V44.0815Z" fill="white"/>
        <path d="M34.5895 41.9814H32.4895V44.0814H34.5895V41.9814Z" fill="white"/>
        <path d="M36.6916 41.9814H34.5916V44.0814H36.6916V41.9814Z" fill="white"/>
        <path d="M45.0895 33.5732H42.9895V35.6732H45.0895V33.5732Z" fill="white"/>
        <path d="M45.0895 31.4702H42.9895V33.5702H45.0895V31.4702Z" fill="white"/>
        <path d="M47.1916 31.4702H45.0916V33.5702H47.1916V31.4702Z" fill="white"/>
        <path d="M47.1916 29.3745H45.0916V31.4745H47.1916V29.3745Z" fill="white"/>
        <path d="M49.2917 29.3745H47.1917V31.4745H49.2917V29.3745Z" fill="white"/>
        <path d="M49.2917 27.2734H47.1917V29.3734H49.2917V27.2734Z" fill="white"/>
        <path d="M47.1959 25.1816H42.9885V27.2816H47.1959V25.1816Z" fill="white"/>
    </g>
    <defs>
        <clipPath id="clip0_2090_24692">
            <rect width="48.2916" height="42" fill="white" transform="translate(1 4.18164)"/>
        </clipPath>
    </defs>
</svg>
