<svg width="50" height="50" viewBox="0 0 50 50" fill="none" xmlns="http://www.w3.org/2000/svg">
    <path d="M39.5843 33H37.501V35.0833H39.5843V33Z" fill="#2986FF"/>
    <path d="M8.33334 30.9165H6.25V32.9998H8.33334V30.9165Z" fill="black"/>
    <path d="M8.33334 33H6.25V35.0833H8.33334V33Z" fill="black"/>
    <path d="M4.16684 35.083H2.0835V37.1663H4.16684V35.083Z" fill="black"/>
    <path d="M6.24984 35.083H4.1665V37.1663H6.24984V35.083Z" fill="black"/>
    <path d="M6.24984 37.1665H4.1665V39.2498H6.24984V37.1665Z" fill="black"/>
    <path d="M8.33334 37.1665H6.25V39.2498H8.33334V37.1665Z" fill="black"/>
    <path d="M10.4163 37.1665H8.33301V39.2498H10.4163V37.1665Z" fill="black"/>
    <path d="M12.4998 37.1665H10.4165V39.2498H12.4998V37.1665Z" fill="black"/>
    <path d="M14.5833 37.1665H12.5V39.2498H14.5833V37.1665Z" fill="black"/>
    <path d="M16.6678 37.1665H14.5845V39.2498H16.6678V37.1665Z" fill="black"/>
    <path d="M18.7498 37.1665H16.6665V39.2498H18.7498V37.1665Z" fill="black"/>
    <path d="M20.8333 37.1665H18.75V39.2498H20.8333V37.1665Z" fill="black"/>
    <path d="M22.9168 37.1665H20.8335V39.2498H22.9168V37.1665Z" fill="black"/>
    <path d="M24.9998 37.1665H22.9165V39.2498H24.9998V37.1665Z" fill="black"/>
    <path d="M27.0833 37.1665H25V39.2498H27.0833V37.1665Z" fill="black"/>
    <path d="M29.1663 37.1665H27.083V39.2498H29.1663V37.1665Z" fill="black"/>
    <path d="M31.2498 37.1665H29.1665V39.2498H31.2498V37.1665Z" fill="black"/>
    <path d="M33.3333 37.1665H31.25V39.2498H33.3333V37.1665Z" fill="black"/>
    <path d="M35.4163 37.1665H33.333V39.2498H35.4163V37.1665Z" fill="black"/>
    <path d="M37.4998 37.1665H35.4165V39.2498H37.4998V37.1665Z" fill="black"/>
    <path d="M39.5843 37.1665H37.501V39.2498H39.5843V37.1665Z" fill="black"/>
    <path d="M41.6663 37.1665H39.583V39.2498H41.6663V37.1665Z" fill="black"/>
    <path d="M43.7498 37.1665H41.6665V39.2498H43.7498V37.1665Z" fill="black"/>
    <path d="M45.8333 37.1665H43.75V39.2498H45.8333V37.1665Z" fill="black"/>
    <path d="M8.33334 35.083H6.25V37.1663H8.33334V35.083Z" fill="black"/>
    <path d="M10.4163 35.083H8.33301V37.1663H10.4163V35.083Z" fill="black"/>
    <path d="M12.4998 35.083H10.4165V37.1663H12.4998V35.083Z" fill="black"/>
    <path d="M14.5833 35.083H12.5V37.1663H14.5833V35.083Z" fill="black"/>
    <path d="M16.6678 35.083H14.5845V37.1663H16.6678V35.083Z" fill="black"/>
    <path d="M18.7498 35.083H16.6665V37.1663H18.7498V35.083Z" fill="black"/>
    <path d="M20.8333 35.083H18.75V37.1663H20.8333V35.083Z" fill="black"/>
    <path d="M22.9168 35.083H20.8335V37.1663H22.9168V35.083Z" fill="black"/>
    <path d="M24.9998 35.083H22.9165V37.1663H24.9998V35.083Z" fill="black"/>
    <path d="M27.0833 35.083H25V37.1663H27.0833V35.083Z" fill="black"/>
    <path d="M29.1663 35.083H27.083V37.1663H29.1663V35.083Z" fill="black"/>
    <path d="M31.2498 35.083H29.1665V37.1663H31.2498V35.083Z" fill="black"/>
    <path d="M33.3333 35.083H31.25V37.1663H33.3333V35.083Z" fill="black"/>
    <path d="M35.4163 35.083H33.333V37.1663H35.4163V35.083Z" fill="black"/>
    <path d="M37.4998 35.083H35.4165V37.1663H37.4998V35.083Z" fill="black"/>
    <path d="M39.5843 35.083H37.501V37.1663H39.5843V35.083Z" fill="black"/>
    <path d="M41.6663 35.083H39.583V37.1663H41.6663V35.083Z" fill="black"/>
    <path d="M43.7498 35.083H41.6665V37.1663H43.7498V35.083Z" fill="black"/>
    <path d="M45.8333 35.083H43.75V37.1663H45.8333V35.083Z" fill="black"/>
    <path d="M47.9163 35.083H45.833V37.1663H47.9163V35.083Z" fill="black"/>
    <path d="M8.33334 28.8335H6.25V30.9168H8.33334V28.8335Z" fill="black"/>
    <path d="M8.33334 26.75H6.25V28.8333H8.33334V26.75Z" fill="black"/>
    <path d="M8.33334 24.6665H6.25V26.7498H8.33334V24.6665Z" fill="black"/>
    <path d="M8.33334 22.5845H6.25V24.6678H8.33334V22.5845Z" fill="black"/>
    <path d="M8.33334 20.5H6.25V22.5833H8.33334V20.5Z" fill="black"/>
    <path d="M8.33334 18.4165H6.25V20.4998H8.33334V18.4165Z" fill="black"/>
    <path d="M8.33334 16.333H6.25V18.4163H8.33334V16.333Z" fill="black"/>
    <path d="M8.33334 14.25H6.25V16.3333H8.33334V14.25Z" fill="black"/>
    <path d="M10.4163 30.9165H8.33301V32.9998H10.4163V30.9165Z" fill="#2986FF"/>
    <path d="M10.4163 33H8.33301V35.0833H10.4163V33Z" fill="#2986FF"/>
    <path d="M10.4163 28.8335H8.33301V30.9168H10.4163V28.8335Z" fill="#2986FF"/>
    <path d="M10.4163 26.75H8.33301V28.8333H10.4163V26.75Z" fill="#2986FF"/>
    <path d="M10.4163 24.6665H8.33301V26.7498H10.4163V24.6665Z" fill="#2986FF"/>
    <path d="M10.4163 22.5845H8.33301V24.6678H10.4163V22.5845Z" fill="#2986FF"/>
    <path d="M10.4163 20.5H8.33301V22.5833H10.4163V20.5Z" fill="#2986FF"/>
    <path d="M10.4163 18.4165H8.33301V20.4998H10.4163V18.4165Z" fill="#2986FF"/>
    <path d="M10.4163 16.333H8.33301V18.4163H10.4163V16.333Z" fill="#2986FF"/>
    <path d="M10.4163 14.25H8.33301V16.3333H10.4163V14.25Z" fill="#2986FF"/>
    <path d="M12.4998 30.9165H10.4165V32.9998H12.4998V30.9165Z" fill="#45B3E9"/>
    <path d="M12.4998 33H10.4165V35.0833H12.4998V33Z" fill="#2986FF"/>
    <path d="M12.4998 28.8335H10.4165V30.9168H12.4998V28.8335Z" fill="#45B3E9"/>
    <path d="M12.4998 26.75H10.4165V28.8333H12.4998V26.75Z" fill="#45B3E9"/>
    <path d="M12.4998 24.6665H10.4165V26.7498H12.4998V24.6665Z" fill="#45B3E9"/>
    <path d="M12.4998 22.5845H10.4165V24.6678H12.4998V22.5845Z" fill="#45B3E9"/>
    <path d="M12.4998 20.5H10.4165V22.5833H12.4998V20.5Z" fill="#45B3E9"/>
    <path d="M12.4998 18.4165H10.4165V20.4998H12.4998V18.4165Z" fill="#45B3E9"/>
    <path d="M12.4998 16.333H10.4165V18.4163H12.4998V16.333Z" fill="#45B3E9"/>
    <path d="M12.4998 14.25H10.4165V16.3333H12.4998V14.25Z" fill="#2986FF"/>
    <path d="M14.5833 30.9165H12.5V32.9998H14.5833V30.9165Z" fill="#45B3E9"/>
    <path d="M14.5833 33H12.5V35.0833H14.5833V33Z" fill="#2986FF"/>
    <path d="M14.5833 28.8335H12.5V30.9168H14.5833V28.8335Z" fill="#45B3E9"/>
    <path d="M14.5833 26.75H12.5V28.8333H14.5833V26.75Z" fill="#45B3E9"/>
    <path d="M14.5833 24.6665H12.5V26.7498H14.5833V24.6665Z" fill="#45B3E9"/>
    <path d="M14.5833 22.5845H12.5V24.6678H14.5833V22.5845Z" fill="#45B3E9"/>
    <path d="M14.5833 20.5H12.5V22.5833H14.5833V20.5Z" fill="#45B3E9"/>
    <path d="M14.5833 18.4165H12.5V20.4998H14.5833V18.4165Z" fill="#45B3E9"/>
    <path d="M14.5833 16.333H12.5V18.4163H14.5833V16.333Z" fill="#45B3E9"/>
    <path d="M14.5833 14.25H12.5V16.3333H14.5833V14.25Z" fill="#2986FF"/>
    <path d="M16.6678 30.9165H14.5845V32.9998H16.6678V30.9165Z" fill="#45B3E9"/>
    <path d="M16.6678 33H14.5845V35.0833H16.6678V33Z" fill="#2986FF"/>
    <path d="M16.6678 28.8335H14.5845V30.9168H16.6678V28.8335Z" fill="#45B3E9"/>
    <path d="M16.6678 26.75H14.5845V28.8333H16.6678V26.75Z" fill="#45B3E9"/>
    <path d="M16.6678 24.6665H14.5845V26.7498H16.6678V24.6665Z" fill="#45B3E9"/>
    <path d="M16.6678 22.5845H14.5845V24.6678H16.6678V22.5845Z" fill="#45B3E9"/>
    <path d="M16.6678 20.5H14.5845V22.5833H16.6678V20.5Z" fill="#45B3E9"/>
    <path d="M16.6678 18.4165H14.5845V20.4998H16.6678V18.4165Z" fill="#45B3E9"/>
    <path d="M16.6678 16.333H14.5845V18.4163H16.6678V16.333Z" fill="#45B3E9"/>
    <path d="M16.6678 14.25H14.5845V16.3333H16.6678V14.25Z" fill="#2986FF"/>
    <path d="M18.7498 30.9165H16.6665V32.9998H18.7498V30.9165Z" fill="#98BA31"/>
    <path d="M18.7498 33H16.6665V35.0833H18.7498V33Z" fill="#98BA31"/>
    <path d="M18.7498 28.8335H16.6665V30.9168H18.7498V28.8335Z" fill="#45B3E9"/>
    <path d="M18.7498 26.75H16.6665V28.8333H18.7498V26.75Z" fill="#45B3E9"/>
    <path d="M18.7498 24.6665H16.6665V26.7498H18.7498V24.6665Z" fill="#45B3E9"/>
    <path d="M18.7498 22.5845H16.6665V24.6678H18.7498V22.5845Z" fill="#45B3E9"/>
    <path d="M18.7498 20.5H16.6665V22.5833H18.7498V20.5Z" fill="#45B3E9"/>
    <path d="M18.7498 18.4165H16.6665V20.4998H18.7498V18.4165Z" fill="#45B3E9"/>
    <path d="M18.7498 16.333H16.6665V18.4163H18.7498V16.333Z" fill="#45B3E9"/>
    <path d="M18.7498 14.25H16.6665V16.3333H18.7498V14.25Z" fill="#2986FF"/>
    <path d="M20.8333 30.9165H18.75V32.9998H20.8333V30.9165Z" fill="#ADDD37"/>
    <path d="M20.8333 33H18.75V35.0833H20.8333V33Z" fill="#98BA31"/>
    <path d="M20.8333 28.8335H18.75V30.9168H20.8333V28.8335Z" fill="#98BA31"/>
    <path d="M20.8333 26.75H18.75V28.8333H20.8333V26.75Z" fill="#45B3E9"/>
    <path d="M20.8333 24.6665H18.75V26.7498H20.8333V24.6665Z" fill="#45B3E9"/>
    <path d="M20.8333 22.5845H18.75V24.6678H20.8333V22.5845Z" fill="#FFC522"/>
    <path d="M20.8333 20.5H18.75V22.5833H20.8333V20.5Z" fill="#FFC522"/>
    <path d="M20.8333 18.4165H18.75V20.4998H20.8333V18.4165Z" fill="#71382A"/>
    <path d="M10.4163 10.0835H8.33301V12.1668H10.4163V10.0835Z" fill="white"/>
    <path d="M8.33334 12.1665H6.25V14.2498H8.33334V12.1665Z" fill="white"/>
    <path d="M6.24984 14.25H4.1665V16.3333H6.24984V14.25Z" fill="white"/>
    <path d="M6.24984 16.333H4.1665V18.4163H6.24984V16.333Z" fill="white"/>
    <path d="M6.24984 18.4165H4.1665V20.4998H6.24984V18.4165Z" fill="white"/>
    <path d="M6.24984 20.5H4.1665V22.5833H6.24984V20.5Z" fill="white"/>
    <path d="M6.24984 22.5845H4.1665V24.6678H6.24984V22.5845Z" fill="white"/>
    <path d="M6.24984 24.6665H4.1665V26.7498H6.24984V24.6665Z" fill="white"/>
    <path d="M6.24984 26.75H4.1665V28.8333H6.24984V26.75Z" fill="white"/>
    <path d="M6.24984 28.8335H4.1665V30.9168H6.24984V28.8335Z" fill="white"/>
    <path d="M6.24984 30.9165H4.1665V32.9998H6.24984V30.9165Z" fill="white"/>
    <path d="M6.24984 33H4.1665V35.0833H6.24984V33Z" fill="white"/>
    <path d="M4.16684 33H2.0835V35.0833H4.16684V33Z" fill="white"/>
    <path d="M2.08334 33H0V35.0833H2.08334V33Z" fill="white"/>
    <path d="M2.08334 35.083H0V37.1663H2.08334V35.083Z" fill="white"/>
    <path d="M2.08334 37.1665H0V39.2498H2.08334V37.1665Z" fill="white"/>
    <path d="M4.16684 37.1665H2.0835V39.2498H4.16684V37.1665Z" fill="white"/>
    <path d="M4.16684 39.25H2.0835V41.3333H4.16684V39.25Z" fill="white"/>
    <path d="M6.24984 39.25H4.1665V41.3333H6.24984V39.25Z" fill="white"/>
    <path d="M8.33334 39.25H6.25V41.3333H8.33334V39.25Z" fill="white"/>
    <path d="M10.4163 39.25H8.33301V41.3333H10.4163V39.25Z" fill="white"/>
    <path d="M12.4998 39.25H10.4165V41.3333H12.4998V39.25Z" fill="white"/>
    <path d="M14.5833 39.25H12.5V41.3333H14.5833V39.25Z" fill="white"/>
    <path d="M16.6678 39.25H14.5845V41.3333H16.6678V39.25Z" fill="white"/>
    <path d="M18.7498 39.25H16.6665V41.3333H18.7498V39.25Z" fill="white"/>
    <path d="M20.8333 39.25H18.75V41.3333H20.8333V39.25Z" fill="white"/>
    <path d="M22.9168 39.25H20.8335V41.3333H22.9168V39.25Z" fill="white"/>
    <path d="M24.9998 39.25H22.9165V41.3333H24.9998V39.25Z" fill="white"/>
    <path d="M27.0833 39.25H25V41.3333H27.0833V39.25Z" fill="white"/>
    <path d="M29.1663 39.25H27.083V41.3333H29.1663V39.25Z" fill="white"/>
    <path d="M31.2498 39.25H29.1665V41.3333H31.2498V39.25Z" fill="white"/>
    <path d="M33.3333 39.25H31.25V41.3333H33.3333V39.25Z" fill="white"/>
    <path d="M35.4163 39.25H33.333V41.3333H35.4163V39.25Z" fill="white"/>
    <path d="M37.4998 39.25H35.4165V41.3333H37.4998V39.25Z" fill="white"/>
    <path d="M39.5843 39.25H37.501V41.3333H39.5843V39.25Z" fill="white"/>
    <path d="M41.6663 39.25H39.583V41.3333H41.6663V39.25Z" fill="white"/>
    <path d="M43.7498 39.25H41.6665V41.3333H43.7498V39.25Z" fill="white"/>
    <path d="M45.8333 39.25H43.75V41.3333H45.8333V39.25Z" fill="white"/>
    <path d="M47.9163 39.25H45.833V41.3333H47.9163V39.25Z" fill="white"/>
    <path d="M47.9163 37.1665H45.833V39.2498H47.9163V37.1665Z" fill="white"/>
    <path d="M49.9998 37.1665H47.9165V39.2498H49.9998V37.1665Z" fill="white"/>
    <path d="M49.9998 35.083H47.9165V37.1663H49.9998V35.083Z" fill="white"/>
    <path d="M49.9998 33H47.9165V35.0833H49.9998V33Z" fill="white"/>
    <path d="M47.9163 33H45.833V35.0833H47.9163V33Z" fill="white"/>
    <path d="M45.8333 33H43.75V35.0833H45.8333V33Z" fill="white"/>
    <path d="M45.8333 30.9165H43.75V32.9998H45.8333V30.9165Z" fill="white"/>
    <path d="M45.8333 28.8335H43.75V30.9168H45.8333V28.8335Z" fill="white"/>
    <path d="M45.8333 26.75H43.75V28.8333H45.8333V26.75Z" fill="white"/>
    <path d="M45.8333 24.6665H43.75V26.7498H45.8333V24.6665Z" fill="white"/>
    <path d="M45.8333 22.5845H43.75V24.6678H45.8333V22.5845Z" fill="white"/>
    <path d="M45.8333 20.5H43.75V22.5833H45.8333V20.5Z" fill="white"/>
    <path d="M45.8333 18.4165H43.75V20.4998H45.8333V18.4165Z" fill="white"/>
    <path d="M45.8333 16.333H43.75V18.4163H45.8333V16.333Z" fill="white"/>
    <path d="M45.8333 14.25H43.75V16.3333H45.8333V14.25Z" fill="white"/>
    <path d="M43.7498 12.1665H41.6665V14.2498H43.7498V12.1665Z" fill="white"/>
    <path d="M41.6663 10.0835H39.583V12.1668H41.6663V10.0835Z" fill="white"/>
    <path d="M39.5843 8H37.501V10.0833H39.5843V8Z" fill="white"/>
    <path d="M37.4998 8H35.4165V10.0833H37.4998V8Z" fill="white"/>
    <path d="M35.4163 8H33.333V10.0833H35.4163V8Z" fill="white"/>
    <path d="M33.3333 8H31.25V10.0833H33.3333V8Z" fill="white"/>
    <path d="M31.2498 8H29.1665V10.0833H31.2498V8Z" fill="white"/>
    <path d="M29.1663 8H27.083V10.0833H29.1663V8Z" fill="white"/>
    <path d="M27.0833 8H25V10.0833H27.0833V8Z" fill="white"/>
    <path d="M24.9998 8H22.9165V10.0833H24.9998V8Z" fill="white"/>
    <path d="M22.9168 8H20.8335V10.0833H22.9168V8Z" fill="white"/>
    <path d="M20.8333 8H18.75V10.0833H20.8333V8Z" fill="white"/>
    <path d="M18.7498 8H16.6665V10.0833H18.7498V8Z" fill="white"/>
    <path d="M16.6678 8H14.5845V10.0833H16.6678V8Z" fill="white"/>
    <path d="M14.5833 8H12.5V10.0833H14.5833V8Z" fill="white"/>
    <path d="M12.4998 8H10.4165V10.0833H12.4998V8Z" fill="white"/>
    <path d="M20.8333 16.333H18.75V18.4163H20.8333V16.333Z" fill="#45B3E9"/>
    <path d="M20.8333 14.25H18.75V16.3333H20.8333V14.25Z" fill="#2986FF"/>
    <path d="M22.9168 30.9165H20.8335V32.9998H22.9168V30.9165Z" fill="#ADDD37"/>
    <path d="M22.9168 33H20.8335V35.0833H22.9168V33Z" fill="#98BA31"/>
    <path d="M22.9168 28.8335H20.8335V30.9168H22.9168V28.8335Z" fill="#ADDD37"/>
    <path d="M22.9168 26.75H20.8335V28.8333H22.9168V26.75Z" fill="#98BA31"/>
    <path d="M22.9168 24.6665H20.8335V26.7498H22.9168V24.6665Z" fill="#FF9605"/>
    <path d="M22.9168 22.5845H20.8335V24.6678H22.9168V22.5845Z" fill="#FF9605"/>
    <path d="M22.9168 20.5H20.8335V22.5833H22.9168V20.5Z" fill="black"/>
    <path d="M22.9168 18.4165H20.8335V20.4998H22.9168V18.4165Z" fill="#FFC522"/>
    <path d="M22.9168 16.333H20.8335V18.4163H22.9168V16.333Z" fill="#71382A"/>
    <path d="M22.9168 14.25H20.8335V16.3333H22.9168V14.25Z" fill="#2986FF"/>
    <path d="M24.9998 30.9165H22.9165V32.9998H24.9998V30.9165Z" fill="#ADDD37"/>
    <path d="M24.9998 33H22.9165V35.0833H24.9998V33Z" fill="#98BA31"/>
    <path d="M24.9998 28.8335H22.9165V30.9168H24.9998V28.8335Z" fill="#ADDD37"/>
    <path d="M24.9998 26.75H22.9165V28.8333H24.9998V26.75Z" fill="#98BA31"/>
    <path d="M24.9998 24.6665H22.9165V26.7498H24.9998V24.6665Z" fill="#FF9605"/>
    <path d="M24.9998 22.5845H22.9165V24.6678H24.9998V22.5845Z" fill="#ED1C24"/>
    <path d="M24.9998 20.5H22.9165V22.5833H24.9998V20.5Z" fill="#FFC522"/>
    <path d="M24.9998 18.4165H22.9165V20.4998H24.9998V18.4165Z" fill="#FFC522"/>
    <path d="M24.9998 16.333H22.9165V18.4163H24.9998V16.333Z" fill="#71382A"/>
    <path d="M24.9998 14.25H22.9165V16.3333H24.9998V14.25Z" fill="#2986FF"/>
    <path d="M27.0833 30.9165H25V32.9998H27.0833V30.9165Z" fill="#ADDD37"/>
    <path d="M27.0833 33H25V35.0833H27.0833V33Z" fill="#98BA31"/>
    <path d="M27.0833 28.8335H25V30.9168H27.0833V28.8335Z" fill="#ADDD37"/>
    <path d="M27.0833 26.75H25V28.8333H27.0833V26.75Z" fill="#98BA31"/>
    <path d="M27.0833 24.6665H25V26.7498H27.0833V24.6665Z" fill="#FF9605"/>
    <path d="M27.0833 22.5845H25V24.6678H27.0833V22.5845Z" fill="#ED1C24"/>
    <path d="M27.0833 20.5H25V22.5833H27.0833V20.5Z" fill="#FFC522"/>
    <path d="M27.0833 18.4165H25V20.4998H27.0833V18.4165Z" fill="#FFC522"/>
    <path d="M27.0833 16.333H25V18.4163H27.0833V16.333Z" fill="#71382A"/>
    <path d="M27.0833 14.25H25V16.3333H27.0833V14.25Z" fill="#2986FF"/>
    <path d="M29.1663 30.9165H27.083V32.9998H29.1663V30.9165Z" fill="#ADDD37"/>
    <path d="M29.1663 33H27.083V35.0833H29.1663V33Z" fill="#98BA31"/>
    <path d="M29.1663 28.8335H27.083V30.9168H29.1663V28.8335Z" fill="#ADDD37"/>
    <path d="M29.1663 26.75H27.083V28.8333H29.1663V26.75Z" fill="#98BA31"/>
    <path d="M29.1663 24.6665H27.083V26.7498H29.1663V24.6665Z" fill="#FF9605"/>
    <path d="M29.1663 22.5845H27.083V24.6678H29.1663V22.5845Z" fill="#FF9605"/>
    <path d="M29.1663 20.5H27.083V22.5833H29.1663V20.5Z" fill="black"/>
    <path d="M29.1663 18.4165H27.083V20.4998H29.1663V18.4165Z" fill="#FFC522"/>
    <path d="M29.1663 16.333H27.083V18.4163H29.1663V16.333Z" fill="#71382A"/>
    <path d="M29.1663 14.25H27.083V16.3333H29.1663V14.25Z" fill="#2986FF"/>
    <path d="M31.2498 30.9165H29.1665V32.9998H31.2498V30.9165Z" fill="#ADDD37"/>
    <path d="M31.2498 33H29.1665V35.0833H31.2498V33Z" fill="#98BA31"/>
    <path d="M31.2498 28.8335H29.1665V30.9168H31.2498V28.8335Z" fill="#D1FF43"/>
    <path d="M31.2498 26.75H29.1665V28.8333H31.2498V26.75Z" fill="#45B3E9"/>
    <path d="M31.2498 24.6665H29.1665V26.7498H31.2498V24.6665Z" fill="#45B3E9"/>
    <path d="M31.2498 22.5845H29.1665V24.6678H31.2498V22.5845Z" fill="#FFC522"/>
    <path d="M31.2498 20.5H29.1665V22.5833H31.2498V20.5Z" fill="#FFC522"/>
    <path d="M31.2498 18.4165H29.1665V20.4998H31.2498V18.4165Z" fill="#71382A"/>
    <path d="M31.2498 16.333H29.1665V18.4163H31.2498V16.333Z" fill="#45B3E9"/>
    <path d="M31.2498 14.25H29.1665V16.3333H31.2498V14.25Z" fill="#2986FF"/>
    <path d="M33.3333 30.9165H31.25V32.9998H33.3333V30.9165Z" fill="#D1FF43"/>
    <path d="M33.3333 33H31.25V35.0833H33.3333V33Z" fill="#98BA31"/>
    <path d="M33.3333 28.8335H31.25V30.9168H33.3333V28.8335Z" fill="#45B3E9"/>
    <path d="M33.3333 26.75H31.25V28.8333H33.3333V26.75Z" fill="#45B3E9"/>
    <path d="M33.3333 24.6665H31.25V26.7498H33.3333V24.6665Z" fill="#45B3E9"/>
    <path d="M33.3333 22.5845H31.25V24.6678H33.3333V22.5845Z" fill="#45B3E9"/>
    <path d="M33.3333 20.5H31.25V22.5833H33.3333V20.5Z" fill="#45B3E9"/>
    <path d="M33.3333 18.4165H31.25V20.4998H33.3333V18.4165Z" fill="#45B3E9"/>
    <path d="M33.3333 16.333H31.25V18.4163H33.3333V16.333Z" fill="#45B3E9"/>
    <path d="M33.3333 14.25H31.25V16.3333H33.3333V14.25Z" fill="#2986FF"/>
    <path d="M35.4163 30.9165H33.333V32.9998H35.4163V30.9165Z" fill="#45B3E9"/>
    <path d="M35.4163 33H33.333V35.0833H35.4163V33Z" fill="#2986FF"/>
    <path d="M35.4163 28.8335H33.333V30.9168H35.4163V28.8335Z" fill="#45B3E9"/>
    <path d="M35.4163 26.75H33.333V28.8333H35.4163V26.75Z" fill="#45B3E9"/>
    <path d="M35.4163 24.6665H33.333V26.7498H35.4163V24.6665Z" fill="#45B3E9"/>
    <path d="M35.4163 22.5845H33.333V24.6678H35.4163V22.5845Z" fill="#45B3E9"/>
    <path d="M35.4163 20.5H33.333V22.5833H35.4163V20.5Z" fill="#45B3E9"/>
    <path d="M35.4163 18.4165H33.333V20.4998H35.4163V18.4165Z" fill="#45B3E9"/>
    <path d="M35.4163 16.333H33.333V18.4163H35.4163V16.333Z" fill="#45B3E9"/>
    <path d="M35.4163 14.25H33.333V16.3333H35.4163V14.25Z" fill="#2986FF"/>
    <path d="M37.4998 30.9165H35.4165V32.9998H37.4998V30.9165Z" fill="#45B3E9"/>
    <path d="M37.4998 33H35.4165V35.0833H37.4998V33Z" fill="#2986FF"/>
    <path d="M37.4998 28.8335H35.4165V30.9168H37.4998V28.8335Z" fill="#45B3E9"/>
    <path d="M37.4998 26.75H35.4165V28.8333H37.4998V26.75Z" fill="#45B3E9"/>
    <path d="M37.4998 24.6665H35.4165V26.7498H37.4998V24.6665Z" fill="#45B3E9"/>
    <path d="M37.4998 22.5845H35.4165V24.6678H37.4998V22.5845Z" fill="#45B3E9"/>
    <path d="M37.4998 20.5H35.4165V22.5833H37.4998V20.5Z" fill="#45B3E9"/>
    <path d="M37.4998 18.4165H35.4165V20.4998H37.4998V18.4165Z" fill="#45B3E9"/>
    <path d="M37.4998 16.333H35.4165V18.4163H37.4998V16.333Z" fill="#45B3E9"/>
    <path d="M37.4998 14.25H35.4165V16.3333H37.4998V14.25Z" fill="#2986FF"/>
    <path d="M39.5843 30.9165H37.501V32.9998H39.5843V30.9165Z" fill="#45B3E9"/>
    <path d="M39.5843 28.8335H37.501V30.9168H39.5843V28.8335Z" fill="#45B3E9"/>
    <path d="M39.5843 26.75H37.501V28.8333H39.5843V26.75Z" fill="#45B3E9"/>
    <path d="M39.5843 24.6665H37.501V26.7498H39.5843V24.6665Z" fill="#45B3E9"/>
    <path d="M39.5843 22.5845H37.501V24.6678H39.5843V22.5845Z" fill="#45B3E9"/>
    <path d="M39.5843 20.5H37.501V22.5833H39.5843V20.5Z" fill="#45B3E9"/>
    <path d="M39.5843 18.4165H37.501V20.4998H39.5843V18.4165Z" fill="#45B3E9"/>
    <path d="M39.5843 16.333H37.501V18.4163H39.5843V16.333Z" fill="#45B3E9"/>
    <path d="M39.5843 14.25H37.501V16.3333H39.5843V14.25Z" fill="#2986FF"/>
    <path d="M41.6663 30.9165H39.583V32.9998H41.6663V30.9165Z" fill="#2986FF"/>
    <path d="M41.6663 33H39.583V35.0833H41.6663V33Z" fill="#2986FF"/>
    <path d="M41.6663 28.8335H39.583V30.9168H41.6663V28.8335Z" fill="#2986FF"/>
    <path d="M41.6663 26.75H39.583V28.8333H41.6663V26.75Z" fill="#2986FF"/>
    <path d="M41.6663 24.6665H39.583V26.7498H41.6663V24.6665Z" fill="#2986FF"/>
    <path d="M41.6663 22.5845H39.583V24.6678H41.6663V22.5845Z" fill="#2986FF"/>
    <path d="M41.6663 20.5H39.583V22.5833H41.6663V20.5Z" fill="#2986FF"/>
    <path d="M41.6663 18.4165H39.583V20.4998H41.6663V18.4165Z" fill="#2986FF"/>
    <path d="M41.6663 16.333H39.583V18.4163H41.6663V16.333Z" fill="#2986FF"/>
    <path d="M41.6663 14.25H39.583V16.3333H41.6663V14.25Z" fill="#2986FF"/>
    <path d="M10.4163 12.1665H8.33301V14.2498H10.4163V12.1665Z" fill="black"/>
    <path d="M12.4998 12.1665H10.4165V14.2498H12.4998V12.1665Z" fill="black"/>
    <path d="M14.5833 12.1665H12.5V14.2498H14.5833V12.1665Z" fill="black"/>
    <path d="M16.6678 12.1665H14.5845V14.2498H16.6678V12.1665Z" fill="black"/>
    <path d="M18.7498 12.1665H16.6665V14.2498H18.7498V12.1665Z" fill="black"/>
    <path d="M20.8333 12.1665H18.75V14.2498H20.8333V12.1665Z" fill="black"/>
    <path d="M22.9168 12.1665H20.8335V14.2498H22.9168V12.1665Z" fill="black"/>
    <path d="M24.9998 12.1665H22.9165V14.2498H24.9998V12.1665Z" fill="#333333"/>
    <path d="M27.0833 12.1665H25V14.2498H27.0833V12.1665Z" fill="#1A1A1A"/>
    <path d="M29.1663 12.1665H27.083V14.2498H29.1663V12.1665Z" fill="black"/>
    <path d="M31.2498 12.1665H29.1665V14.2498H31.2498V12.1665Z" fill="black"/>
    <path d="M33.3333 12.1665H31.25V14.2498H33.3333V12.1665Z" fill="black"/>
    <path d="M35.4163 12.1665H33.333V14.2498H35.4163V12.1665Z" fill="black"/>
    <path d="M37.4998 12.1665H35.4165V14.2498H37.4998V12.1665Z" fill="black"/>
    <path d="M39.5843 12.1665H37.501V14.2498H39.5843V12.1665Z" fill="black"/>
    <path d="M12.4998 10.0835H10.4165V12.1668H12.4998V10.0835Z" fill="black"/>
    <path d="M14.5833 10.0835H12.5V12.1668H14.5833V10.0835Z" fill="black"/>
    <path d="M16.6678 10.0835H14.5845V12.1668H16.6678V10.0835Z" fill="black"/>
    <path d="M18.7498 10.0835H16.6665V12.1668H18.7498V10.0835Z" fill="black"/>
    <path d="M20.8333 10.0835H18.75V12.1668H20.8333V10.0835Z" fill="black"/>
    <path d="M22.9168 10.0835H20.8335V12.1668H22.9168V10.0835Z" fill="black"/>
    <path d="M24.9998 10.0835H22.9165V12.1668H24.9998V10.0835Z" fill="black"/>
    <path d="M27.0833 10.0835H25V12.1668H27.0833V10.0835Z" fill="black"/>
    <path d="M29.1663 10.0835H27.083V12.1668H29.1663V10.0835Z" fill="black"/>
    <path d="M31.2498 10.0835H29.1665V12.1668H31.2498V10.0835Z" fill="black"/>
    <path d="M33.3333 10.0835H31.25V12.1668H33.3333V10.0835Z" fill="black"/>
    <path d="M35.4163 10.0835H33.333V12.1668H35.4163V10.0835Z" fill="black"/>
    <path d="M37.4998 10.0835H35.4165V12.1668H37.4998V10.0835Z" fill="black"/>
    <path d="M39.5843 10.0835H37.501V12.1668H39.5843V10.0835Z" fill="black"/>
    <path d="M41.6663 12.1665H39.583V14.2498H41.6663V12.1665Z" fill="black"/>
    <path d="M43.7498 14.25H41.6665V16.3333H43.7498V14.25Z" fill="black"/>
    <path d="M43.7498 16.333H41.6665V18.4163H43.7498V16.333Z" fill="black"/>
    <path d="M43.7498 18.4165H41.6665V20.4998H43.7498V18.4165Z" fill="black"/>
    <path d="M43.7498 20.5H41.6665V22.5833H43.7498V20.5Z" fill="black"/>
    <path d="M43.7498 22.5845H41.6665V24.6678H43.7498V22.5845Z" fill="black"/>
    <path d="M43.7498 24.6665H41.6665V26.7498H43.7498V24.6665Z" fill="black"/>
    <path d="M43.7498 26.75H41.6665V28.8333H43.7498V26.75Z" fill="black"/>
    <path d="M43.7498 28.8335H41.6665V30.9168H43.7498V28.8335Z" fill="black"/>
    <path d="M43.7498 30.9165H41.6665V32.9998H43.7498V30.9165Z" fill="black"/>
    <path d="M43.7498 33H41.6665V35.0833H43.7498V33Z" fill="black"/>
</svg>
