<svg width="70" height="70" viewBox="0 0 70 70" fill="none" xmlns="http://www.w3.org/2000/svg">
    <path d="M9.5479 60.4546H7.00244V63H9.5479V60.4546Z" fill="black"/>
    <path d="M12.0933 60.4546H9.54785V63H12.0933V60.4546Z" fill="black"/>
    <path d="M14.6392 60.4546H12.0938V63H14.6392V60.4546Z" fill="black"/>
    <path d="M17.1846 60.4546H14.6392V63H17.1846V60.4546Z" fill="black"/>
    <path d="M19.73 60.4546H17.1846V63H19.73V60.4546Z" fill="black"/>
    <path d="M22.2754 60.4546H19.73V63H22.2754V60.4546Z" fill="black"/>
    <path d="M24.8208 60.4546H22.2754V63H24.8208V60.4546Z" fill="black"/>
    <path d="M27.3663 60.4546H24.8208V63H27.3663V60.4546Z" fill="black"/>
    <path d="M29.9117 60.4546H27.3662V63H29.9117V60.4546Z" fill="black"/>
    <path d="M32.4571 60.4546H29.9116V63H32.4571V60.4546Z" fill="black"/>
    <path d="M35.0025 60.4546H32.457V63H35.0025V60.4546Z" fill="black"/>
    <path d="M37.5479 60.4546H35.0024V63H37.5479V60.4546Z" fill="black"/>
    <path d="M40.0933 60.4546H37.5479V63H40.0933V60.4546Z" fill="black"/>
    <path d="M42.6392 60.4546H40.0938V63H42.6392V60.4546Z" fill="black"/>
    <path d="M45.1846 60.4546H42.6392V63H45.1846V60.4546Z" fill="black"/>
    <path d="M47.73 60.4546H45.1846V63H47.73V60.4546Z" fill="black"/>
    <path d="M50.2754 60.4546H47.73V63H50.2754V60.4546Z" fill="black"/>
    <path d="M52.8208 60.4546H50.2754V63H52.8208V60.4546Z" fill="black"/>
    <path d="M55.3663 60.4546H52.8208V63H55.3663V60.4546Z" fill="black"/>
    <path d="M57.9117 60.4546H55.3662V63H57.9117V60.4546Z" fill="black"/>
    <path d="M60.4571 60.4546H57.9116V63H60.4571V60.4546Z" fill="black"/>
    <path d="M63.0025 60.4546H60.457V63H63.0025V60.4546Z" fill="black"/>
    <path d="M65.5479 57.9092H63.0024V60.4546H65.5479V57.9092Z" fill="black"/>
    <path d="M65.5479 55.3638H63.0024V57.9092H65.5479V55.3638Z" fill="black"/>
    <path d="M63.0025 52.8184H60.457V55.3638H63.0025V52.8184Z" fill="black"/>
    <path d="M63.0025 50.2729H60.457V52.8184H63.0025V50.2729Z" fill="black"/>
    <path d="M60.4571 47.7275H57.9116V50.273H60.4571V47.7275Z" fill="black"/>
    <path d="M60.4571 45.1816H57.9116V47.7271H60.4571V45.1816Z" fill="black"/>
    <path d="M63.0025 57.9092H60.457V60.4546H63.0025V57.9092Z" fill="#333333"/>
    <path d="M63.0025 55.3638H60.457V57.9092H63.0025V55.3638Z" fill="#333333"/>
    <path d="M60.4571 57.9092H57.9116V60.4546H60.4571V57.9092Z" fill="#333333"/>
    <path d="M60.4571 55.3638H57.9116V57.9092H60.4571V55.3638Z" fill="#333333"/>
    <path d="M57.9117 57.9092H55.3662V60.4546H57.9117V57.9092Z" fill="#333333"/>
    <path d="M57.9117 55.3638H55.3662V57.9092H57.9117V55.3638Z" fill="#333333"/>
    <path d="M55.3663 57.9092H52.8208V60.4546H55.3663V57.9092Z" fill="#333333"/>
    <path d="M55.3663 55.3638H52.8208V57.9092H55.3663V55.3638Z" fill="#333333"/>
    <path d="M52.8208 57.9092H50.2754V60.4546H52.8208V57.9092Z" fill="#333333"/>
    <path d="M52.8208 55.3638H50.2754V57.9092H52.8208V55.3638Z" fill="#333333"/>
    <path d="M50.2754 57.9092H47.73V60.4546H50.2754V57.9092Z" fill="#333333"/>
    <path d="M50.2754 55.3638H47.73V57.9092H50.2754V55.3638Z" fill="#333333"/>
    <path d="M47.73 57.9092H45.1846V60.4546H47.73V57.9092Z" fill="#333333"/>
    <path d="M47.73 55.3638H45.1846V57.9092H47.73V55.3638Z" fill="#333333"/>
    <path d="M45.1846 57.9092H42.6392V60.4546H45.1846V57.9092Z" fill="#333333"/>
    <path d="M45.1846 55.3638H42.6392V57.9092H45.1846V55.3638Z" fill="#333333"/>
    <path d="M42.6392 57.9092H40.0938V60.4546H42.6392V57.9092Z" fill="#333333"/>
    <path d="M42.6392 55.3638H40.0938V57.9092H42.6392V55.3638Z" fill="#333333"/>
    <path d="M40.0933 57.9092H37.5479V60.4546H40.0933V57.9092Z" fill="#333333"/>
    <path d="M40.0933 55.3638H37.5479V57.9092H40.0933V55.3638Z" fill="#333333"/>
    <path d="M37.5479 57.9092H35.0024V60.4546H37.5479V57.9092Z" fill="#333333"/>
    <path d="M37.5479 55.3638H35.0024V57.9092H37.5479V55.3638Z" fill="#333333"/>
    <path d="M35.0025 57.9092H32.457V60.4546H35.0025V57.9092Z" fill="#333333"/>
    <path d="M35.0025 55.3638H32.457V57.9092H35.0025V55.3638Z" fill="#333333"/>
    <path d="M32.4571 57.9092H29.9116V60.4546H32.4571V57.9092Z" fill="#333333"/>
    <path d="M32.4571 55.3638H29.9116V57.9092H32.4571V55.3638Z" fill="#333333"/>
    <path d="M29.9117 57.9092H27.3662V60.4546H29.9117V57.9092Z" fill="#333333"/>
    <path d="M29.9117 55.3638H27.3662V57.9092H29.9117V55.3638Z" fill="#333333"/>
    <path d="M27.3663 57.9092H24.8208V60.4546H27.3663V57.9092Z" fill="#333333"/>
    <path d="M27.3663 55.3638H24.8208V57.9092H27.3663V55.3638Z" fill="#333333"/>
    <path d="M24.8208 57.9092H22.2754V60.4546H24.8208V57.9092Z" fill="#333333"/>
    <path d="M24.8208 55.3638H22.2754V57.9092H24.8208V55.3638Z" fill="#333333"/>
    <path d="M22.2754 57.9092H19.73V60.4546H22.2754V57.9092Z" fill="#333333"/>
    <path d="M22.2754 55.3638H19.73V57.9092H22.2754V55.3638Z" fill="#333333"/>
    <path d="M19.73 57.9092H17.1846V60.4546H19.73V57.9092Z" fill="#333333"/>
    <path d="M19.73 55.3638H17.1846V57.9092H19.73V55.3638Z" fill="#333333"/>
    <path d="M17.1846 57.9092H14.6392V60.4546H17.1846V57.9092Z" fill="#333333"/>
    <path d="M17.1846 55.3638H14.6392V57.9092H17.1846V55.3638Z" fill="#333333"/>
    <path d="M14.6392 57.9092H12.0938V60.4546H14.6392V57.9092Z" fill="#333333"/>
    <path d="M14.6392 55.3638H12.0938V57.9092H14.6392V55.3638Z" fill="#333333"/>
    <path d="M12.0933 57.9092H9.54785V60.4546H12.0933V57.9092Z" fill="#333333"/>
    <path d="M12.0933 55.3638H9.54785V57.9092H12.0933V55.3638Z" fill="#333333"/>
    <path d="M60.4571 52.8184H57.9116V55.3638H60.4571V52.8184Z" fill="#333333"/>
    <path d="M60.4571 50.2729H57.9116V52.8184H60.4571V50.2729Z" fill="#333333"/>
    <path d="M57.9117 52.8184H55.3662V55.3638H57.9117V52.8184Z" fill="#CCCCCC"/>
    <path d="M57.9117 50.2729H55.3662V52.8184H57.9117V50.2729Z" fill="#333333"/>
    <path d="M55.3663 52.8184H52.8208V55.3638H55.3663V52.8184Z" fill="#CCCCCC"/>
    <path d="M55.3663 50.2729H52.8208V52.8184H55.3663V50.2729Z" fill="#333333"/>
    <path d="M52.8208 52.8184H50.2754V55.3638H52.8208V52.8184Z" fill="#CCCCCC"/>
    <path d="M52.8208 50.2729H50.2754V52.8184H52.8208V50.2729Z" fill="#333333"/>
    <path d="M50.2754 52.8184H47.73V55.3638H50.2754V52.8184Z" fill="#333333"/>
    <path d="M50.2754 50.2729H47.73V52.8184H50.2754V50.2729Z" fill="#333333"/>
    <path d="M47.73 52.8184H45.1846V55.3638H47.73V52.8184Z" fill="#CCCCCC"/>
    <path d="M47.73 50.2729H45.1846V52.8184H47.73V50.2729Z" fill="#333333"/>
    <path d="M45.1846 52.8184H42.6392V55.3638H45.1846V52.8184Z" fill="#CCCCCC"/>
    <path d="M45.1846 50.2729H42.6392V52.8184H45.1846V50.2729Z" fill="#333333"/>
    <path d="M42.6392 52.8184H40.0938V55.3638H42.6392V52.8184Z" fill="#333333"/>
    <path d="M42.6392 50.2729H40.0938V52.8184H42.6392V50.2729Z" fill="#333333"/>
    <path d="M40.0933 52.8184H37.5479V55.3638H40.0933V52.8184Z" fill="#CCCCCC"/>
    <path d="M40.0933 50.2729H37.5479V52.8184H40.0933V50.2729Z" fill="#333333"/>
    <path d="M37.5479 52.8184H35.0024V55.3638H37.5479V52.8184Z" fill="#CCCCCC"/>
    <path d="M37.5479 50.2729H35.0024V52.8184H37.5479V50.2729Z" fill="#333333"/>
    <path d="M35.0025 52.8184H32.457V55.3638H35.0025V52.8184Z" fill="#333333"/>
    <path d="M35.0025 50.2729H32.457V52.8184H35.0025V50.2729Z" fill="#333333"/>
    <path d="M32.4571 52.8184H29.9116V55.3638H32.4571V52.8184Z" fill="#CCCCCC"/>
    <path d="M32.4571 50.2729H29.9116V52.8184H32.4571V50.2729Z" fill="#333333"/>
    <path d="M29.9117 52.8184H27.3662V55.3638H29.9117V52.8184Z" fill="#CCCCCC"/>
    <path d="M29.9117 50.2729H27.3662V52.8184H29.9117V50.2729Z" fill="#333333"/>
    <path d="M27.3663 52.8184H24.8208V55.3638H27.3663V52.8184Z" fill="#333333"/>
    <path d="M27.3663 50.2729H24.8208V52.8184H27.3663V50.2729Z" fill="#333333"/>
    <path d="M24.8208 52.8184H22.2754V55.3638H24.8208V52.8184Z" fill="#CCCCCC"/>
    <path d="M24.8208 50.2729H22.2754V52.8184H24.8208V50.2729Z" fill="#333333"/>
    <path d="M22.2754 52.8184H19.73V55.3638H22.2754V52.8184Z" fill="#CCCCCC"/>
    <path d="M22.2754 50.2729H19.73V52.8184H22.2754V50.2729Z" fill="#333333"/>
    <path d="M19.73 52.8184H17.1846V55.3638H19.73V52.8184Z" fill="#333333"/>
    <path d="M19.73 50.2729H17.1846V52.8184H19.73V50.2729Z" fill="#333333"/>
    <path d="M17.1846 52.8184H14.6392V55.3638H17.1846V52.8184Z" fill="#CCCCCC"/>
    <path d="M17.1846 50.2729H14.6392V52.8184H17.1846V50.2729Z" fill="#333333"/>
    <path d="M14.6392 52.8184H12.0938V55.3638H14.6392V52.8184Z" fill="#CCCCCC"/>
    <path d="M14.6392 50.2729H12.0938V52.8184H14.6392V50.2729Z" fill="#333333"/>
    <path d="M57.9117 47.7275H55.3662V50.273H57.9117V47.7275Z" fill="#333333"/>
    <path d="M57.9117 45.1816H55.3662V47.7271H57.9117V45.1816Z" fill="#333333"/>
    <path d="M55.3663 47.7275H52.8208V50.273H55.3663V47.7275Z" fill="#CCCCCC"/>
    <path d="M55.3663 45.1816H52.8208V47.7271H55.3663V45.1816Z" fill="#333333"/>
    <path d="M55.3663 42.6362H52.8208V45.1817H55.3663V42.6362Z" fill="#333333"/>
    <path d="M55.3663 40.0908H52.8208V42.6363H55.3663V40.0908Z" fill="#333333"/>
    <path d="M52.8208 42.6362H50.2754V45.1817H52.8208V42.6362Z" fill="#CCCCCC"/>
    <path d="M52.8208 40.0908H50.2754V42.6363H52.8208V40.0908Z" fill="#333333"/>
    <path d="M50.2754 42.6362H47.73V45.1817H50.2754V42.6362Z" fill="#CCCCCC"/>
    <path d="M50.2754 40.0908H47.73V42.6363H50.2754V40.0908Z" fill="#333333"/>
    <path d="M47.73 42.6362H45.1846V45.1817H47.73V42.6362Z" fill="#333333"/>
    <path d="M47.73 40.0908H45.1846V42.6363H47.73V40.0908Z" fill="#333333"/>
    <path d="M45.1846 42.6362H42.6392V45.1817H45.1846V42.6362Z" fill="#CCCCCC"/>
    <path d="M45.1846 40.0908H42.6392V42.6363H45.1846V40.0908Z" fill="#333333"/>
    <path d="M42.6392 42.6362H40.0938V45.1817H42.6392V42.6362Z" fill="#CCCCCC"/>
    <path d="M42.6392 40.0908H40.0938V42.6363H42.6392V40.0908Z" fill="#333333"/>
    <path d="M40.0933 42.6362H37.5479V45.1817H40.0933V42.6362Z" fill="#333333"/>
    <path d="M40.0933 40.0908H37.5479V42.6363H40.0933V40.0908Z" fill="#333333"/>
    <path d="M37.5479 42.6362H35.0024V45.1817H37.5479V42.6362Z" fill="#CCCCCC"/>
    <path d="M37.5479 40.0908H35.0024V42.6363H37.5479V40.0908Z" fill="#333333"/>
    <path d="M35.0025 42.6362H32.457V45.1817H35.0025V42.6362Z" fill="#CCCCCC"/>
    <path d="M35.0025 40.0908H32.457V42.6363H35.0025V40.0908Z" fill="#333333"/>
    <path d="M32.4571 42.6362H29.9116V45.1817H32.4571V42.6362Z" fill="#333333"/>
    <path d="M32.4571 40.0908H29.9116V42.6363H32.4571V40.0908Z" fill="#333333"/>
    <path d="M29.9117 42.6362H27.3662V45.1817H29.9117V42.6362Z" fill="#CCCCCC"/>
    <path d="M29.9117 40.0908H27.3662V42.6363H29.9117V40.0908Z" fill="#333333"/>
    <path d="M27.3663 42.6362H24.8208V45.1817H27.3663V42.6362Z" fill="#CCCCCC"/>
    <path d="M27.3663 40.0908H24.8208V42.6363H27.3663V40.0908Z" fill="#333333"/>
    <path d="M24.8208 42.6362H22.2754V45.1817H24.8208V42.6362Z" fill="#333333"/>
    <path d="M24.8208 40.0908H22.2754V42.6363H24.8208V40.0908Z" fill="#333333"/>
    <path d="M22.2754 42.6362H19.73V45.1817H22.2754V42.6362Z" fill="#CCCCCC"/>
    <path d="M22.2754 40.0908H19.73V42.6363H22.2754V40.0908Z" fill="#333333"/>
    <path d="M19.73 42.6362H17.1846V45.1817H19.73V42.6362Z" fill="#CCCCCC"/>
    <path d="M19.73 40.0908H17.1846V42.6363H19.73V40.0908Z" fill="#333333"/>
    <path d="M52.8208 47.7275H50.2754V50.273H52.8208V47.7275Z" fill="#CCCCCC"/>
    <path d="M52.8208 45.1816H50.2754V47.7271H52.8208V45.1816Z" fill="#333333"/>
    <path d="M50.2754 47.7275H47.73V50.273H50.2754V47.7275Z" fill="#CCCCCC"/>
    <path d="M50.2754 45.1816H47.73V47.7271H50.2754V45.1816Z" fill="#333333"/>
    <path d="M47.73 47.7275H45.1846V50.273H47.73V47.7275Z" fill="#CCCCCC"/>
    <path d="M47.73 45.1816H45.1846V47.7271H47.73V45.1816Z" fill="#333333"/>
    <path d="M45.1846 47.7275H42.6392V50.273H45.1846V47.7275Z" fill="#333333"/>
    <path d="M45.1846 45.1816H42.6392V47.7271H45.1846V45.1816Z" fill="#333333"/>
    <path d="M42.6392 47.7275H40.0938V50.273H42.6392V47.7275Z" fill="#CCCCCC"/>
    <path d="M42.6392 45.1816H40.0938V47.7271H42.6392V45.1816Z" fill="#333333"/>
    <path d="M40.0933 47.7275H37.5479V50.273H40.0933V47.7275Z" fill="#CCCCCC"/>
    <path d="M40.0933 45.1816H37.5479V47.7271H40.0933V45.1816Z" fill="#333333"/>
    <path d="M37.5479 47.7275H35.0024V50.273H37.5479V47.7275Z" fill="#333333"/>
    <path d="M37.5479 45.1816H35.0024V47.7271H37.5479V45.1816Z" fill="#333333"/>
    <path d="M35.0025 47.7275H32.457V50.273H35.0025V47.7275Z" fill="#CCCCCC"/>
    <path d="M35.0025 45.1816H32.457V47.7271H35.0025V45.1816Z" fill="#333333"/>
    <path d="M32.4571 47.7275H29.9116V50.273H32.4571V47.7275Z" fill="#CCCCCC"/>
    <path d="M32.4571 45.1816H29.9116V47.7271H32.4571V45.1816Z" fill="#333333"/>
    <path d="M29.9117 47.7275H27.3662V50.273H29.9117V47.7275Z" fill="#333333"/>
    <path d="M29.9117 45.1816H27.3662V47.7271H29.9117V45.1816Z" fill="#333333"/>
    <path d="M27.3663 47.7275H24.8208V50.273H27.3663V47.7275Z" fill="#CCCCCC"/>
    <path d="M27.3663 45.1816H24.8208V47.7271H27.3663V45.1816Z" fill="#333333"/>
    <path d="M24.8208 47.7275H22.2754V50.273H24.8208V47.7275Z" fill="#CCCCCC"/>
    <path d="M24.8208 45.1816H22.2754V47.7271H24.8208V45.1816Z" fill="#333333"/>
    <path d="M22.2754 47.7275H19.73V50.273H22.2754V47.7275Z" fill="#333333"/>
    <path d="M22.2754 45.1816H19.73V47.7271H22.2754V45.1816Z" fill="#333333"/>
    <path d="M19.73 47.7275H17.1846V50.273H19.73V47.7275Z" fill="#CCCCCC"/>
    <path d="M19.73 45.1816H17.1846V47.7271H19.73V45.1816Z" fill="#333333"/>
    <path d="M17.1846 47.7275H14.6392V50.273H17.1846V47.7275Z" fill="#CCCCCC"/>
    <path d="M17.1846 45.1816H14.6392V47.7271H17.1846V45.1816Z" fill="#333333"/>
    <path d="M7.00249 57.9092H4.45703V60.4546H7.00249V57.9092Z" fill="black"/>
    <path d="M7.00249 60.4546H4.45703V63H7.00249V60.4546Z" fill="white"/>
    <path d="M9.5479 63H7.00244V65.5455H9.5479V63Z" fill="white"/>
    <path d="M7.00249 63H4.45703V65.5455H7.00249V63Z" fill="white"/>
    <path d="M4.45463 60.4507H1.90918V62.9961H4.45463V60.4507Z" fill="white"/>
    <path d="M4.45463 57.9092H1.90918V60.4546H4.45463V57.9092Z" fill="white"/>
    <path d="M4.45463 55.3662H1.90918V57.9117H4.45463V55.3662Z" fill="white"/>
    <path d="M4.45463 52.8184H1.90918V55.3638H4.45463V52.8184Z" fill="white"/>
    <path d="M7.00249 52.8184H4.45703V55.3638H7.00249V52.8184Z" fill="white"/>
    <path d="M7.00249 50.2729H4.45703V52.8184H7.00249V50.2729Z" fill="white"/>
    <path d="M9.5479 47.7275H7.00244V50.273H9.5479V47.7275Z" fill="white"/>
    <path d="M9.5479 45.1816H7.00244V47.7271H9.5479V45.1816Z" fill="white"/>
    <path d="M12.0933 42.6362H9.54785V45.1817H12.0933V42.6362Z" fill="white"/>
    <path d="M12.0933 40.0908H9.54785V42.6363H12.0933V40.0908Z" fill="white"/>
    <path d="M12.0933 37.5454H9.54785V40.0909H12.0933V37.5454Z" fill="white"/>
    <path d="M14.6392 35H12.0938V37.5455H14.6392V35Z" fill="white"/>
    <path d="M12.0933 32.4546H9.54785V35H12.0933V32.4546Z" fill="white"/>
    <path d="M12.0933 29.9092H9.54785V32.4546H12.0933V29.9092Z" fill="white"/>
    <path d="M14.6392 27.3638H12.0938V29.9092H14.6392V27.3638Z" fill="white"/>
    <path d="M14.6392 24.8184H12.0938V27.3638H14.6392V24.8184Z" fill="white"/>
    <path d="M14.6392 22.2729H12.0938V24.8184H14.6392V22.2729Z" fill="white"/>
    <path d="M14.6392 19.7275H12.0938V22.273H14.6392V19.7275Z" fill="white"/>
    <path d="M14.6392 17.1816H12.0938V19.7271H14.6392V17.1816Z" fill="white"/>
    <path d="M14.6392 14.6362H12.0938V17.1817H14.6392V14.6362Z" fill="white"/>
    <path d="M17.1846 12.0908H14.6392V14.6363H17.1846V12.0908Z" fill="white"/>
    <path d="M19.73 12.0908H17.1846V14.6363H19.73V12.0908Z" fill="white"/>
    <path d="M22.2754 12.0908H19.73V14.6363H22.2754V12.0908Z" fill="white"/>
    <path d="M24.8208 12.0908H22.2754V14.6363H24.8208V12.0908Z" fill="white"/>
    <path d="M27.3663 12.0908H24.8208V14.6363H27.3663V12.0908Z" fill="white"/>
    <path d="M24.8208 9.53906H22.2754V12.0845H24.8208V9.53906Z" fill="white"/>
    <path d="M22.274 9.53906H19.7285V12.0845H22.274V9.53906Z" fill="white"/>
    <path d="M29.9117 12.0908H27.3662V14.6363H29.9117V12.0908Z" fill="white"/>
    <path d="M32.4571 12.0908H29.9116V14.6363H32.4571V12.0908Z" fill="white"/>
    <path d="M35.0025 12.0908H32.457V14.6363H35.0025V12.0908Z" fill="white"/>
    <path d="M37.5479 12.0908H35.0024V14.6363H37.5479V12.0908Z" fill="white"/>
    <path d="M40.0933 12.0908H37.5479V14.6363H40.0933V12.0908Z" fill="white"/>
    <path d="M42.6392 12.0908H40.0938V14.6363H42.6392V12.0908Z" fill="white"/>
    <path d="M45.1753 9.54541H42.6299V12.0909H45.1753V9.54541Z" fill="white"/>
    <path d="M47.7237 6.99756H45.1782V9.54301H47.7237V6.99756Z" fill="white"/>
    <path d="M50.2715 4.45459H47.7261V7.00005H50.2715V4.45459Z" fill="white"/>
    <path d="M52.8208 4.45459H50.2754V7.00005H52.8208V4.45459Z" fill="white"/>
    <path d="M55.3663 7H52.8208V9.54545H55.3663V7Z" fill="white"/>
    <path d="M52.8208 9.53809H50.2754V12.0835H52.8208V9.53809Z" fill="white"/>
    <path d="M45.1846 12.0908H42.6392V14.6363H45.1846V12.0908Z" fill="white"/>
    <path d="M47.73 12.0908H45.1846V14.6363H47.73V12.0908Z" fill="white"/>
    <path d="M50.2754 12.0908H47.73V14.6363H50.2754V12.0908Z" fill="white"/>
    <path d="M52.8208 12.0908H50.2754V14.6363H52.8208V12.0908Z" fill="white"/>
    <path d="M55.3663 12.0908H52.8208V14.6363H55.3663V12.0908Z" fill="white"/>
    <path d="M57.9117 14.6362H55.3662V17.1817H57.9117V14.6362Z" fill="white"/>
    <path d="M57.9117 17.1816H55.3662V19.7271H57.9117V17.1816Z" fill="white"/>
    <path d="M57.9117 19.7275H55.3662V22.273H57.9117V19.7275Z" fill="white"/>
    <path d="M57.9117 22.2729H55.3662V24.8184H57.9117V22.2729Z" fill="white"/>
    <path d="M57.9117 24.8184H55.3662V27.3638H57.9117V24.8184Z" fill="white"/>
    <path d="M57.9117 27.3638H55.3662V29.9092H57.9117V27.3638Z" fill="white"/>
    <path d="M60.4571 29.9092H57.9116V32.4546H60.4571V29.9092Z" fill="white"/>
    <path d="M60.4571 32.4546H57.9116V35H60.4571V32.4546Z" fill="white"/>
    <path d="M57.9117 35H55.3662V37.5455H57.9117V35Z" fill="white"/>
    <path d="M60.4571 37.5454H57.9116V40.0909H60.4571V37.5454Z" fill="white"/>
    <path d="M60.4571 40.0908H57.9116V42.6363H60.4571V40.0908Z" fill="white"/>
    <path d="M60.4571 42.6362H57.9116V45.1817H60.4571V42.6362Z" fill="white"/>
    <path d="M63.0025 45.1816H60.457V47.7271H63.0025V45.1816Z" fill="white"/>
    <path d="M63.0025 47.7275H60.457V50.273H63.0025V47.7275Z" fill="white"/>
    <path d="M65.5479 50.2729H63.0024V52.8184H65.5479V50.2729Z" fill="white"/>
    <path d="M65.5479 52.8184H63.0024V55.3638H65.5479V52.8184Z" fill="white"/>
    <path d="M68.0933 52.8184H65.5479V55.3638H68.0933V52.8184Z" fill="white"/>
    <path d="M68.0933 55.3638H65.5479V57.9092H68.0933V55.3638Z" fill="white"/>
    <path d="M68.0933 57.9092H65.5479V60.4546H68.0933V57.9092Z" fill="white"/>
    <path d="M68.0933 60.4546H65.5479V63H68.0933V60.4546Z" fill="white"/>
    <path d="M65.5479 60.4546H63.0024V63H65.5479V60.4546Z" fill="white"/>
    <path d="M65.5479 63H63.0024V65.5455H65.5479V63Z" fill="white"/>
    <path d="M63.0025 63H60.457V65.5455H63.0025V63Z" fill="white"/>
    <path d="M60.4571 63H57.9116V65.5455H60.4571V63Z" fill="white"/>
    <path d="M57.9117 63H55.3662V65.5455H57.9117V63Z" fill="white"/>
    <path d="M55.3663 63H52.8208V65.5455H55.3663V63Z" fill="white"/>
    <path d="M52.8208 63H50.2754V65.5455H52.8208V63Z" fill="white"/>
    <path d="M50.2754 63H47.73V65.5455H50.2754V63Z" fill="white"/>
    <path d="M47.73 63H45.1846V65.5455H47.73V63Z" fill="white"/>
    <path d="M45.1846 63H42.6392V65.5455H45.1846V63Z" fill="white"/>
    <path d="M42.6392 63H40.0938V65.5455H42.6392V63Z" fill="white"/>
    <path d="M40.0933 63H37.5479V65.5455H40.0933V63Z" fill="white"/>
    <path d="M37.5479 63H35.0024V65.5455H37.5479V63Z" fill="white"/>
    <path d="M35.0025 63H32.457V65.5455H35.0025V63Z" fill="white"/>
    <path d="M32.4571 63H29.9116V65.5455H32.4571V63Z" fill="white"/>
    <path d="M29.9117 63H27.3662V65.5455H29.9117V63Z" fill="white"/>
    <path d="M27.3663 63H24.8208V65.5455H27.3663V63Z" fill="white"/>
    <path d="M24.8208 63H22.2754V65.5455H24.8208V63Z" fill="white"/>
    <path d="M22.2754 63H19.73V65.5455H22.2754V63Z" fill="white"/>
    <path d="M19.73 63H17.1846V65.5455H19.73V63Z" fill="white"/>
    <path d="M17.1846 63H14.6392V65.5455H17.1846V63Z" fill="white"/>
    <path d="M14.6392 63H12.0938V65.5455H14.6392V63Z" fill="white"/>
    <path d="M12.0933 63H9.54785V65.5455H12.0933V63Z" fill="white"/>
    <path d="M7.00249 55.3638H4.45703V57.9092H7.00249V55.3638Z" fill="black"/>
    <path d="M9.5479 52.8184H7.00244V55.3638H9.5479V52.8184Z" fill="black"/>
    <path d="M9.5479 50.2729H7.00244V52.8184H9.5479V50.2729Z" fill="black"/>
    <path d="M12.0933 47.7275H9.54785V50.273H12.0933V47.7275Z" fill="black"/>
    <path d="M12.0933 45.1816H9.54785V47.7271H12.0933V45.1816Z" fill="black"/>
    <path d="M9.5479 57.9092H7.00244V60.4546H9.5479V57.9092Z" fill="#808080"/>
    <path d="M9.5479 55.3638H7.00244V57.9092H9.5479V55.3638Z" fill="#808080"/>
    <path d="M12.0933 52.8184H9.54785V55.3638H12.0933V52.8184Z" fill="#808080"/>
    <path d="M12.0933 50.2729H9.54785V52.8184H12.0933V50.2729Z" fill="#808080"/>
    <path d="M14.6392 47.7275H12.0938V50.273H14.6392V47.7275Z" fill="#808080"/>
    <path d="M14.6392 45.1816H12.0938V47.7271H14.6392V45.1816Z" fill="#808080"/>
    <path d="M17.1846 42.6362H14.6392V45.1817H17.1846V42.6362Z" fill="#808080"/>
    <path d="M17.1846 40.0908H14.6392V42.6363H17.1846V40.0908Z" fill="#808080"/>
    <path d="M17.1846 37.5454H14.6392V40.0909H17.1846V37.5454Z" fill="#808080"/>
    <path d="M17.1846 29.9092H14.6392V32.4546H17.1846V29.9092Z" fill="#808080"/>
    <path d="M19.73 29.9092H17.1846V32.4546H19.73V29.9092Z" fill="#808080"/>
    <path d="M22.2754 29.9092H19.73V32.4546H22.2754V29.9092Z" fill="#808080"/>
    <path d="M24.8208 29.9092H22.2754V32.4546H24.8208V29.9092Z" fill="#808080"/>
    <path d="M27.3663 29.9092H24.8208V32.4546H27.3663V29.9092Z" fill="#808080"/>
    <path d="M29.9117 29.9092H27.3662V32.4546H29.9117V29.9092Z" fill="#808080"/>
    <path d="M32.4571 29.9092H29.9116V32.4546H32.4571V29.9092Z" fill="#808080"/>
    <path d="M35.0025 29.9092H32.457V32.4546H35.0025V29.9092Z" fill="#808080"/>
    <path d="M37.5479 29.9092H35.0024V32.4546H37.5479V29.9092Z" fill="#808080"/>
    <path d="M40.0933 29.9092H37.5479V32.4546H40.0933V29.9092Z" fill="#808080"/>
    <path d="M42.6392 29.9092H40.0938V32.4546H42.6392V29.9092Z" fill="#808080"/>
    <path d="M45.1846 29.9092H42.6392V32.4546H45.1846V29.9092Z" fill="#808080"/>
    <path d="M47.73 29.9092H45.1846V32.4546H47.73V29.9092Z" fill="#808080"/>
    <path d="M50.2754 29.9092H47.73V32.4546H50.2754V29.9092Z" fill="#808080"/>
    <path d="M52.8208 29.9092H50.2754V32.4546H52.8208V29.9092Z" fill="#808080"/>
    <path d="M55.3663 29.9092H52.8208V32.4546H55.3663V29.9092Z" fill="#808080"/>
    <path d="M55.3663 32.4546H52.8208V35H55.3663V32.4546Z" fill="#4D4D4D"/>
    <path d="M52.8208 32.4546H50.2754V35H52.8208V32.4546Z" fill="#4D4D4D"/>
    <path d="M50.2754 32.4546H47.73V35H50.2754V32.4546Z" fill="#4D4D4D"/>
    <path d="M47.73 32.4546H45.1846V35H47.73V32.4546Z" fill="#4D4D4D"/>
    <path d="M45.1846 32.4546H42.6392V35H45.1846V32.4546Z" fill="#4D4D4D"/>
    <path d="M42.6392 32.4546H40.0938V35H42.6392V32.4546Z" fill="#4D4D4D"/>
    <path d="M40.0933 32.4546H37.5479V35H40.0933V32.4546Z" fill="#4D4D4D"/>
    <path d="M37.5479 32.4546H35.0024V35H37.5479V32.4546Z" fill="#4D4D4D"/>
    <path d="M35.0025 32.4546H32.457V35H35.0025V32.4546Z" fill="#4D4D4D"/>
    <path d="M32.4571 32.4546H29.9116V35H32.4571V32.4546Z" fill="#4D4D4D"/>
    <path d="M29.9117 32.4546H27.3662V35H29.9117V32.4546Z" fill="#4D4D4D"/>
    <path d="M27.3663 32.4546H24.8208V35H27.3663V32.4546Z" fill="#4D4D4D"/>
    <path d="M24.8208 32.4546H22.2754V35H24.8208V32.4546Z" fill="#4D4D4D"/>
    <path d="M22.2754 32.4546H19.73V35H22.2754V32.4546Z" fill="#4D4D4D"/>
    <path d="M19.73 32.4546H17.1846V35H19.73V32.4546Z" fill="#4D4D4D"/>
    <path d="M17.1846 32.4546H14.6392V35H17.1846V32.4546Z" fill="#4D4D4D"/>
    <path d="M19.73 37.5454H17.1846V40.0909H19.73V37.5454Z" fill="#808080"/>
    <path d="M22.2754 37.5454H19.73V40.0909H22.2754V37.5454Z" fill="#808080"/>
    <path d="M24.8208 37.5454H22.2754V40.0909H24.8208V37.5454Z" fill="#808080"/>
    <path d="M27.3663 37.5454H24.8208V40.0909H27.3663V37.5454Z" fill="#808080"/>
    <path d="M29.9117 37.5454H27.3662V40.0909H29.9117V37.5454Z" fill="#808080"/>
    <path d="M32.4571 37.5454H29.9116V40.0909H32.4571V37.5454Z" fill="#808080"/>
    <path d="M35.0025 37.5454H32.457V40.0909H35.0025V37.5454Z" fill="#808080"/>
    <path d="M37.5479 37.5454H35.0024V40.0909H37.5479V37.5454Z" fill="#808080"/>
    <path d="M40.0933 37.5454H37.5479V40.0909H40.0933V37.5454Z" fill="#808080"/>
    <path d="M42.6392 37.5454H40.0938V40.0909H42.6392V37.5454Z" fill="#808080"/>
    <path d="M45.1846 37.5454H42.6392V40.0909H45.1846V37.5454Z" fill="#808080"/>
    <path d="M47.73 37.5454H45.1846V40.0909H47.73V37.5454Z" fill="#808080"/>
    <path d="M50.2754 37.5454H47.73V40.0909H50.2754V37.5454Z" fill="#808080"/>
    <path d="M52.8208 37.5454H50.2754V40.0909H52.8208V37.5454Z" fill="#808080"/>
    <path d="M55.3663 37.5454H52.8208V40.0909H55.3663V37.5454Z" fill="#808080"/>
    <path d="M14.6392 42.6362H12.0938V45.1817H14.6392V42.6362Z" fill="black"/>
    <path d="M14.6392 40.0908H12.0938V42.6363H14.6392V40.0908Z" fill="black"/>
    <path d="M14.6392 37.5454H12.0938V40.0909H14.6392V37.5454Z" fill="black"/>
    <path d="M57.9117 42.6362H55.3662V45.1817H57.9117V42.6362Z" fill="black"/>
    <path d="M57.9117 40.0908H55.3662V42.6363H57.9117V40.0908Z" fill="black"/>
    <path d="M57.9117 37.5454H55.3662V40.0909H57.9117V37.5454Z" fill="black"/>
    <path d="M55.3663 35H52.8208V37.5455H55.3663V35Z" fill="black"/>
    <path d="M57.9117 32.4546H55.3662V35H57.9117V32.4546Z" fill="black"/>
    <path d="M57.9117 29.9092H55.3662V32.4546H57.9117V29.9092Z" fill="black"/>
    <path d="M55.3663 27.3638H52.8208V29.9092H55.3663V27.3638Z" fill="black"/>
    <path d="M55.3663 24.8184H52.8208V27.3638H55.3663V24.8184Z" fill="black"/>
    <path d="M52.8208 35H50.2754V37.5455H52.8208V35Z" fill="black"/>
    <path d="M50.2754 35H47.73V37.5455H50.2754V35Z" fill="black"/>
    <path d="M47.73 35H45.1846V37.5455H47.73V35Z" fill="black"/>
    <path d="M45.1846 35H42.6392V37.5455H45.1846V35Z" fill="black"/>
    <path d="M42.6392 35H40.0938V37.5455H42.6392V35Z" fill="black"/>
    <path d="M40.0933 35H37.5479V37.5455H40.0933V35Z" fill="black"/>
    <path d="M37.5479 35H35.0024V37.5455H37.5479V35Z" fill="black"/>
    <path d="M35.0025 35H32.457V37.5455H35.0025V35Z" fill="black"/>
    <path d="M32.4571 35H29.9116V37.5455H32.4571V35Z" fill="black"/>
    <path d="M29.9117 35H27.3662V37.5455H29.9117V35Z" fill="black"/>
    <path d="M27.3663 35H24.8208V37.5455H27.3663V35Z" fill="black"/>
    <path d="M24.8208 35H22.2754V37.5455H24.8208V35Z" fill="black"/>
    <path d="M22.2754 35H19.73V37.5455H22.2754V35Z" fill="black"/>
    <path d="M19.73 35H17.1846V37.5455H19.73V35Z" fill="black"/>
    <path d="M17.1846 35H14.6392V37.5455H17.1846V35Z" fill="black"/>
    <path d="M14.6392 32.4546H12.0938V35H14.6392V32.4546Z" fill="black"/>
    <path d="M14.6392 29.9092H12.0938V32.4546H14.6392V29.9092Z" fill="black"/>
    <path d="M17.1846 27.3638H14.6392V29.9092H17.1846V27.3638Z" fill="black"/>
    <path d="M19.73 27.3638H17.1846V29.9092H19.73V27.3638Z" fill="#C9CFDF"/>
    <path d="M22.2754 27.3638H19.73V29.9092H22.2754V27.3638Z" fill="#C9CFDF"/>
    <path d="M24.8208 27.3638H22.2754V29.9092H24.8208V27.3638Z" fill="#C9CFDF"/>
    <path d="M27.3663 27.3638H24.8208V29.9092H27.3663V27.3638Z" fill="#C9CFDF"/>
    <path d="M29.9117 27.3638H27.3662V29.9092H29.9117V27.3638Z" fill="#C9CFDF"/>
    <path d="M32.4571 27.3638H29.9116V29.9092H32.4571V27.3638Z" fill="#C9CFDF"/>
    <path d="M35.0025 27.3638H32.457V29.9092H35.0025V27.3638Z" fill="#C9CFDF"/>
    <path d="M37.5479 27.3638H35.0024V29.9092H37.5479V27.3638Z" fill="#C9CFDF"/>
    <path d="M40.0933 27.3638H37.5479V29.9092H40.0933V27.3638Z" fill="#C9CFDF"/>
    <path d="M42.6392 27.3638H40.0938V29.9092H42.6392V27.3638Z" fill="#C9CFDF"/>
    <path d="M45.1846 27.3638H42.6392V29.9092H45.1846V27.3638Z" fill="#C9CFDF"/>
    <path d="M47.73 27.3638H45.1846V29.9092H47.73V27.3638Z" fill="#C9CFDF"/>
    <path d="M50.2754 27.3638H47.73V29.9092H50.2754V27.3638Z" fill="#C9CFDF"/>
    <path d="M52.8208 27.3638H50.2754V29.9092H52.8208V27.3638Z" fill="#C9CFDF"/>
    <path d="M19.73 24.8184H17.1846V27.3638H19.73V24.8184Z" fill="#DDE4EE"/>
    <path d="M22.2754 24.8184H19.73V27.3638H22.2754V24.8184Z" fill="#DDE4EE"/>
    <path d="M24.8208 24.8184H22.2754V27.3638H24.8208V24.8184Z" fill="#DDE4EE"/>
    <path d="M27.3663 24.8184H24.8208V27.3638H27.3663V24.8184Z" fill="#DDE4EE"/>
    <path d="M29.9117 24.8184H27.3662V27.3638H29.9117V24.8184Z" fill="#DDE4EE"/>
    <path d="M32.4571 24.8184H29.9116V27.3638H32.4571V24.8184Z" fill="#DDE4EE"/>
    <path d="M35.0025 24.8184H32.457V27.3638H35.0025V24.8184Z" fill="#DDE4EE"/>
    <path d="M37.5479 24.8184H35.0024V27.3638H37.5479V24.8184Z" fill="#DDE4EE"/>
    <path d="M40.0933 24.8184H37.5479V27.3638H40.0933V24.8184Z" fill="#DDE4EE"/>
    <path d="M42.6392 24.8184H40.0938V27.3638H42.6392V24.8184Z" fill="#DDE4EE"/>
    <path d="M45.1846 24.8184H42.6392V27.3638H45.1846V24.8184Z" fill="#DDE4EE"/>
    <path d="M47.73 24.8184H45.1846V27.3638H47.73V24.8184Z" fill="#DDE4EE"/>
    <path d="M50.2754 24.8184H47.73V27.3638H50.2754V24.8184Z" fill="#DDE4EE"/>
    <path d="M52.8208 24.8184H50.2754V27.3638H52.8208V24.8184Z" fill="#DDE4EE"/>
    <path d="M19.73 22.2729H17.1846V24.8184H19.73V22.2729Z" fill="#F1F2F7"/>
    <path d="M22.2754 22.2729H19.73V24.8184H22.2754V22.2729Z" fill="#F1F2F7"/>
    <path d="M24.8208 22.2729H22.2754V24.8184H24.8208V22.2729Z" fill="#F1F2F7"/>
    <path d="M27.3663 22.2729H24.8208V24.8184H27.3663V22.2729Z" fill="#F1F2F7"/>
    <path d="M29.9117 22.2729H27.3662V24.8184H29.9117V22.2729Z" fill="#F1F2F7"/>
    <path d="M32.4571 22.2729H29.9116V24.8184H32.4571V22.2729Z" fill="#F1F2F7"/>
    <path d="M35.0025 22.2729H32.457V24.8184H35.0025V22.2729Z" fill="#F1F2F7"/>
    <path d="M37.5479 22.2729H35.0024V24.8184H37.5479V22.2729Z" fill="#F1F2F7"/>
    <path d="M40.0933 22.2729H37.5479V24.8184H40.0933V22.2729Z" fill="#F1F2F7"/>
    <path d="M42.6392 22.2729H40.0938V24.8184H42.6392V22.2729Z" fill="#F1F2F7"/>
    <path d="M45.1846 22.2729H42.6392V24.8184H45.1846V22.2729Z" fill="#F1F2F7"/>
    <path d="M47.73 22.2729H45.1846V24.8184H47.73V22.2729Z" fill="#F1F2F7"/>
    <path d="M50.2754 22.2729H47.73V24.8184H50.2754V22.2729Z" fill="#F1F2F7"/>
    <path d="M52.8208 22.2729H50.2754V24.8184H52.8208V22.2729Z" fill="#F1F2F7"/>
    <path d="M19.73 19.7275H17.1846V22.273H19.73V19.7275Z" fill="#F1F2F7"/>
    <path d="M22.2754 19.7275H19.73V22.273H22.2754V19.7275Z" fill="#F1F2F7"/>
    <path d="M24.8208 19.7275H22.2754V22.273H24.8208V19.7275Z" fill="#F1F2F7"/>
    <path d="M27.3663 19.7275H24.8208V22.273H27.3663V19.7275Z" fill="#F1F2F7"/>
    <path d="M29.9117 19.7275H27.3662V22.273H29.9117V19.7275Z" fill="#F1F2F7"/>
    <path d="M32.4571 19.7275H29.9116V22.273H32.4571V19.7275Z" fill="#F1F2F7"/>
    <path d="M35.0025 19.7275H32.457V22.273H35.0025V19.7275Z" fill="#F1F2F7"/>
    <path d="M37.5479 19.7275H35.0024V22.273H37.5479V19.7275Z" fill="#F1F2F7"/>
    <path d="M40.0933 19.7275H37.5479V22.273H40.0933V19.7275Z" fill="#F1F2F7"/>
    <path d="M42.6392 19.7275H40.0938V22.273H42.6392V19.7275Z" fill="#F1F2F7"/>
    <path d="M45.1846 19.7275H42.6392V22.273H45.1846V19.7275Z" fill="#F1F2F7"/>
    <path d="M47.73 19.7275H45.1846V22.273H47.73V19.7275Z" fill="#F1F2F7"/>
    <path d="M50.2754 19.7275H47.73V22.273H50.2754V19.7275Z" fill="#F1F2F7"/>
    <path d="M52.8208 19.7275H50.2754V22.273H52.8208V19.7275Z" fill="#F1F2F7"/>
    <path d="M19.73 17.1816H17.1846V19.7271H19.73V17.1816Z" fill="#F1F2F7"/>
    <path d="M22.2754 17.1816H19.73V19.7271H22.2754V17.1816Z" fill="#F1F2F7"/>
    <path d="M24.8208 17.1816H22.2754V19.7271H24.8208V17.1816Z" fill="#F1F2F7"/>
    <path d="M27.3663 17.1816H24.8208V19.7271H27.3663V17.1816Z" fill="#F1F2F7"/>
    <path d="M29.9117 17.1816H27.3662V19.7271H29.9117V17.1816Z" fill="#F1F2F7"/>
    <path d="M32.4571 17.1816H29.9116V19.7271H32.4571V17.1816Z" fill="#F1F2F7"/>
    <path d="M35.0025 17.1816H32.457V19.7271H35.0025V17.1816Z" fill="#F1F2F7"/>
    <path d="M37.5479 17.1816H35.0024V19.7271H37.5479V17.1816Z" fill="#F1F2F7"/>
    <path d="M40.0933 17.1816H37.5479V19.7271H40.0933V17.1816Z" fill="#F1F2F7"/>
    <path d="M42.6392 17.1816H40.0938V19.7271H42.6392V17.1816Z" fill="#F1F2F7"/>
    <path d="M45.1846 17.1816H42.6392V19.7271H45.1846V17.1816Z" fill="#F1F2F7"/>
    <path d="M47.73 17.1816H45.1846V19.7271H47.73V17.1816Z" fill="#F1F2F7"/>
    <path d="M50.2754 17.1816H47.73V19.7271H50.2754V17.1816Z" fill="#F1F2F7"/>
    <path d="M52.8208 17.1816H50.2754V19.7271H52.8208V17.1816Z" fill="#F1F2F7"/>
    <path d="M17.1846 24.8184H14.6392V27.3638H17.1846V24.8184Z" fill="black"/>
    <path d="M55.3663 22.2729H52.8208V24.8184H55.3663V22.2729Z" fill="black"/>
    <path d="M17.1846 22.2729H14.6392V24.8184H17.1846V22.2729Z" fill="black"/>
    <path d="M55.3663 19.7275H52.8208V22.273H55.3663V19.7275Z" fill="black"/>
    <path d="M17.1846 19.7275H14.6392V22.273H17.1846V19.7275Z" fill="black"/>
    <path d="M55.3663 17.1816H52.8208V19.7271H55.3663V17.1816Z" fill="black"/>
    <path d="M17.1846 17.1816H14.6392V19.7271H17.1846V17.1816Z" fill="black"/>
    <path d="M55.3663 14.6362H52.8208V17.1817H55.3663V14.6362Z" fill="black"/>
    <path d="M52.8208 14.6362H50.2754V17.1817H52.8208V14.6362Z" fill="black"/>
    <path d="M50.2754 14.6362H47.73V17.1817H50.2754V14.6362Z" fill="black"/>
    <path d="M47.73 14.6362H45.1846V17.1817H47.73V14.6362Z" fill="black"/>
    <path d="M45.1846 14.6362H42.6392V17.1817H45.1846V14.6362Z" fill="black"/>
    <path d="M42.6392 14.6362H40.0938V17.1817H42.6392V14.6362Z" fill="black"/>
    <path d="M40.0933 14.6362H37.5479V17.1817H40.0933V14.6362Z" fill="black"/>
    <path d="M37.5479 14.6362H35.0024V17.1817H37.5479V14.6362Z" fill="black"/>
    <path d="M35.0025 14.6362H32.457V17.1817H35.0025V14.6362Z" fill="black"/>
    <path d="M32.4571 14.6362H29.9116V17.1817H32.4571V14.6362Z" fill="black"/>
    <path d="M29.9117 14.6362H27.3662V17.1817H29.9117V14.6362Z" fill="black"/>
    <path d="M27.3663 14.6362H24.8208V17.1817H27.3663V14.6362Z" fill="black"/>
    <path d="M24.8208 14.6362H22.2754V17.1817H24.8208V14.6362Z" fill="black"/>
    <path d="M22.2754 14.6362H19.73V17.1817H22.2754V14.6362Z" fill="black"/>
    <path d="M19.73 14.6362H17.1846V17.1817H19.73V14.6362Z" fill="black"/>
    <path d="M17.1846 14.6362H14.6392V17.1817H17.1846V14.6362Z" fill="black"/>
    <path d="M50.2726 6.99609H47.7246V9.5441H50.2726V6.99609Z" fill="#49CE58"/>
    <path d="M52.8209 6.99609H50.2729V9.5441H52.8209V6.99609Z" fill="#39A84A"/>
    <path d="M47.7248 9.54443H45.1768V12.0924H47.7248V9.54443Z" fill="#49CE58"/>
    <path d="M45.1769 12.0923H42.6289V14.6403H45.1769V12.0923Z" fill="#49CE58"/>
    <path d="M50.2726 9.53662H47.7246V12.0846H50.2726V9.53662Z" fill="#39A84A"/>
    <path d="M47.7248 12.0845H45.1768V14.6325H47.7248V12.0845Z" fill="#39A84A"/>
    <path d="M45.1769 14.6328H42.6289V17.1808H45.1769V14.6328Z" fill="#39A84A"/>
    <path d="M27.3673 14.6416H24.8193V17.1896H27.3673V14.6416Z" fill="#49CE58"/>
    <path d="M24.8209 14.6416H22.2729V17.1896H24.8209V14.6416Z" fill="#39A84A"/>
    <path d="M24.8209 12.0845H22.2729V14.6325H24.8209V12.0845Z" fill="#49CE58"/>
    <path d="M22.2755 12.0845H19.7275V14.6325H22.2755V12.0845Z" fill="#39A84A"/>
    <path d="M37.548 22.27H35V24.818H37.548V22.27Z" fill="#39A84A"/>
    <path d="M34.9987 24.8193H32.4507V27.3673H34.9987V24.8193Z" fill="#39A84A"/>
    <path d="M40.0934 19.7222H37.5454V22.2702H40.0934V19.7222Z" fill="#39A84A"/>
    <path d="M42.6442 17.1895H40.0962V19.7374H42.6442V17.1895Z" fill="#39A84A"/>
    <path d="M42.6427 14.6416H40.0947V17.1896H42.6427V14.6416Z" fill="#49CE58"/>
    <path d="M29.9167 17.1895H27.3687V19.7374H29.9167V17.1895Z" fill="#49CE58"/>
    <path d="M40.0949 17.1895H37.5469V19.7374H40.0949V17.1895Z" fill="#49CE58"/>
    <path d="M32.4494 19.7222H29.9014V22.2702H32.4494V19.7222Z" fill="#49CE58"/>
    <path d="M27.3673 17.1816H24.8193V19.7296H27.3673V17.1816Z" fill="#39A84A"/>
    <path d="M29.9167 19.73H27.3687V22.278H29.9167V19.73Z" fill="#39A84A"/>
    <path d="M32.4494 22.2637H29.9014V24.8117H32.4494V22.2637Z" fill="#39A84A"/>
    <path d="M37.547 19.7222H34.999V22.2702H37.547V19.7222Z" fill="#49CE58"/>
    <path d="M34.9987 22.27H32.4507V24.818H34.9987V22.27Z" fill="#49CE58"/>
</svg>
