<svg width="60" height="60" viewBox="0 0 60 60" fill="none" xmlns="http://www.w3.org/2000/svg">
    <g clip-path="url(#clip0_2279_10943)">
        <path d="M58.9778 57.6924H1.2V60.0001H58.9778V57.6924Z" fill="white"/>
        <path d="M56.6667 55.3848H1.2V57.6925H56.6667V55.3848Z" fill="black"/>
        <path d="M15.0667 9.23096H12.7556V55.3848H15.0667V9.23096Z" fill="black"/>
        <path d="M45.1111 9.23096H15.0667V11.5386H45.1111V9.23096Z" fill="black"/>
        <path d="M45.1111 11.5386H15.0667V13.8463H45.1111V11.5386Z" fill="#98A8BF"/>
        <path d="M45.1111 13.8462H15.0667V16.1539H45.1111V13.8462Z" fill="#98A8BF"/>
        <path d="M45.1111 23.0771H15.0667V25.3848H45.1111V23.0771Z" fill="#98A8BF"/>
        <path d="M45.1111 32.3076H15.0667V34.6153H45.1111V32.3076Z" fill="#98A8BF"/>
        <path d="M45.1111 41.5386H15.0667V43.8463H45.1111V41.5386Z" fill="#98A8BF"/>
        <path d="M17.3778 2.30762H15.0667V9.23069H17.3778V2.30762Z" fill="black"/>
        <path d="M45.1111 2.30762H42.8V9.23069H45.1111V2.30762Z" fill="black"/>
        <path d="M15.0667 6.92285H12.7556V9.23054H15.0667V6.92285Z" fill="white"/>
        <path d="M15.0667 4.61523H12.7556V6.92293H15.0667V4.61523Z" fill="white"/>
        <path d="M15.0667 2.30762H12.7556V4.61531H15.0667V2.30762Z" fill="white"/>
        <path d="M47.4222 6.92285H45.1111V9.23054H47.4222V6.92285Z" fill="white"/>
        <path d="M47.4222 4.61523H45.1111V6.92293H47.4222V4.61523Z" fill="white"/>
        <path d="M47.4222 2.30762H45.1111V4.61531H47.4222V2.30762Z" fill="white"/>
        <path d="M45.1111 0H15.0667V2.30769H45.1111V0Z" fill="white"/>
        <path d="M3.51111 55.3848H1.2V57.6925H3.51111V55.3848Z" fill="white"/>
        <path d="M58.9778 55.3848H56.6667V57.6925H58.9778V55.3848Z" fill="white"/>
        <path d="M12.7556 9.23096H10.4444V53.0771H12.7556V9.23096Z" fill="white"/>
        <path d="M49.7333 9.23096H47.4222V53.0771H49.7333V9.23096Z" fill="white"/>
        <path d="M12.7556 53.0771H1.2V55.3848H12.7556V53.0771Z" fill="white"/>
        <path d="M58.9778 53.0771H47.4222V55.3848H58.9778V53.0771Z" fill="white"/>
        <path d="M19.6889 18.4614H17.3778V20.7691H19.6889V18.4614Z" fill="black"/>
        <path d="M22 18.4614H19.6889V20.7691H22V18.4614Z" fill="#45B3E9"/>
        <path d="M24.3111 18.4614H22V20.7691H24.3111V18.4614Z" fill="#82CBE8"/>
        <path d="M26.6222 18.4614H24.3111V20.7691H26.6222V18.4614Z" fill="#45B3E9"/>
        <path d="M28.9333 18.4614H26.6222V20.7691H28.9333V18.4614Z" fill="#82CBE8"/>
        <path d="M31.2444 18.4614H28.9333V20.7691H31.2444V18.4614Z" fill="#45B3E9"/>
        <path d="M33.5556 18.4614H31.2444V20.7691H33.5556V18.4614Z" fill="#82CBE8"/>
        <path d="M35.8667 18.4614H33.5555V20.7691H35.8667V18.4614Z" fill="#45B3E9"/>
        <path d="M38.1778 18.4614H35.8667V20.7691H38.1778V18.4614Z" fill="#82CBE8"/>
        <path d="M40.4889 18.4614H38.1778V20.7691H40.4889V18.4614Z" fill="#45B3E9"/>
        <path d="M22 27.6924H19.6889V30.0001H22V27.6924Z" fill="#45B3E9"/>
        <path d="M24.3111 27.6924H22V30.0001H24.3111V27.6924Z" fill="#82CBE8"/>
        <path d="M26.6222 27.6924H24.3111V30.0001H26.6222V27.6924Z" fill="#45B3E9"/>
        <path d="M28.9333 27.6924H26.6222V30.0001H28.9333V27.6924Z" fill="#82CBE8"/>
        <path d="M31.2444 27.6924H28.9333V30.0001H31.2444V27.6924Z" fill="#45B3E9"/>
        <path d="M33.5556 27.6924H31.2444V30.0001H33.5556V27.6924Z" fill="#82CBE8"/>
        <path d="M35.8667 27.6924H33.5555V30.0001H35.8667V27.6924Z" fill="#45B3E9"/>
        <path d="M38.1778 27.6924H35.8667V30.0001H38.1778V27.6924Z" fill="#82CBE8"/>
        <path d="M40.4889 27.6924H38.1778V30.0001H40.4889V27.6924Z" fill="#45B3E9"/>
        <path d="M22 36.9229H19.6889V39.2305H22V36.9229Z" fill="#45B3E9"/>
        <path d="M28.9333 46.1538H24.3111V55.3846H28.9333V46.1538Z" fill="#45B3E9"/>
        <path d="M35.8667 46.1538H31.2444V55.3846H35.8667V46.1538Z" fill="#45B3E9"/>
        <path d="M24.3111 36.9229H22V39.2305H24.3111V36.9229Z" fill="#82CBE8"/>
        <path d="M26.6222 36.9229H24.3111V39.2305H26.6222V36.9229Z" fill="#45B3E9"/>
        <path d="M28.9333 36.9229H26.6222V39.2305H28.9333V36.9229Z" fill="#82CBE8"/>
        <path d="M31.2444 36.9229H28.9333V39.2305H31.2444V36.9229Z" fill="#45B3E9"/>
        <path d="M33.5556 36.9229H31.2444V39.2305H33.5556V36.9229Z" fill="#82CBE8"/>
        <path d="M35.8667 46.1538H33.5555V48.4615H35.8667V46.1538Z" fill="#82CBE8"/>
        <path d="M33.5556 48.4614H31.2444V50.7691H33.5556V48.4614Z" fill="#82CBE8"/>
        <path d="M35.8667 50.769H33.5555V53.0767H35.8667V50.769Z" fill="#82CBE8"/>
        <path d="M33.5556 53.0771H31.2444V55.3848H33.5556V53.0771Z" fill="#82CBE8"/>
        <path d="M28.9333 46.1538H26.6222V48.4615H28.9333V46.1538Z" fill="#82CBE8"/>
        <path d="M26.6222 48.4614H24.3111V50.7691H26.6222V48.4614Z" fill="#82CBE8"/>
        <path d="M28.9333 50.769H26.6222V53.0767H28.9333V50.769Z" fill="#82CBE8"/>
        <path d="M26.6222 53.0771H24.3111V55.3848H26.6222V53.0771Z" fill="#82CBE8"/>
        <path d="M35.8667 36.9229H33.5555V39.2305H35.8667V36.9229Z" fill="#45B3E9"/>
        <path d="M38.1778 36.9229H35.8667V39.2305H38.1778V36.9229Z" fill="#82CBE8"/>
        <path d="M40.4889 36.9229H38.1778V39.2305H40.4889V36.9229Z" fill="#45B3E9"/>
        <path d="M17.3778 16.1538H15.0667V23.0769H17.3778V16.1538Z" fill="#C9CFDF"/>
        <path d="M45.1111 16.1538H42.8V23.0769H45.1111V16.1538Z" fill="#C9CFDF"/>
        <path d="M17.3778 25.3848H15.0667V32.3078H17.3778V25.3848Z" fill="#C9CFDF"/>
        <path d="M45.1111 25.3848H42.8V32.3078H45.1111V25.3848Z" fill="#C9CFDF"/>
        <path d="M17.3778 34.6152H15.0667V41.5383H17.3778V34.6152Z" fill="#C9CFDF"/>
        <path d="M45.1111 34.6152H42.8V41.5383H45.1111V34.6152Z" fill="#C9CFDF"/>
        <path d="M40.4889 46.1538H38.1778V55.3846H40.4889V46.1538Z" fill="#C9CFDF"/>
        <path d="M22 46.1538H19.6889V55.3846H22V46.1538Z" fill="#C9CFDF"/>
        <path d="M19.6889 43.8462H15.0667V55.3847H19.6889V43.8462Z" fill="#C9CFDF"/>
        <path d="M45.1111 43.8462H40.4889V55.3847H45.1111V43.8462Z" fill="#C9CFDF"/>
        <path d="M42.8 18.4614H40.4889V20.7691H42.8V18.4614Z" fill="black"/>
        <path d="M19.6889 27.6924H17.3778V30.0001H19.6889V27.6924Z" fill="black"/>
        <path d="M42.8 27.6924H40.4889V30.0001H42.8V27.6924Z" fill="black"/>
        <path d="M19.6889 36.9229H17.3778V39.2305H19.6889V36.9229Z" fill="black"/>
        <path d="M42.8 36.9229H40.4889V39.2305H42.8V36.9229Z" fill="black"/>
        <path d="M42.8 2.30762H17.3778V4.61531H42.8V2.30762Z" fill="black"/>
        <path d="M42.8 4.61523H17.3778V9.23062H42.8V4.61523Z" fill="#44546E"/>
        <path d="M40.4889 43.8462H19.6889V46.1539H40.4889V43.8462Z" fill="black"/>
        <path d="M24.3111 46.1538H22V55.3846H24.3111V46.1538Z" fill="black"/>
        <path d="M38.1778 46.1538H35.8667V55.3846H38.1778V46.1538Z" fill="black"/>
        <path d="M31.2444 46.1538H28.9333V55.3846H31.2444V46.1538Z" fill="black"/>
        <path d="M42.8 16.1538H17.3778V18.4615H42.8V16.1538Z" fill="black"/>
        <path d="M42.8 20.769H17.3778V23.0767H42.8V20.769Z" fill="black"/>
        <path d="M42.8 25.3848H17.3778V27.6925H42.8V25.3848Z" fill="black"/>
        <path d="M42.8 30H17.3778V32.3077H42.8V30Z" fill="black"/>
        <path d="M42.8 34.6152H17.3778V36.9229H42.8V34.6152Z" fill="black"/>
        <path d="M42.8 39.231H17.3778V41.5386H42.8V39.231Z" fill="black"/>
        <path d="M47.4222 9.23096H45.1111V55.3848H47.4222V9.23096Z" fill="black"/>
    </g>
    <defs>
        <clipPath id="clip0_2279_10943">
            <rect width="57.7778" height="60" fill="white" transform="translate(1.2)"/>
        </clipPath>
    </defs>
</svg>
