<svg width="70" height="70" viewBox="0 0 70 70" fill="none" xmlns="http://www.w3.org/2000/svg">
    <path d="M32.4544 14.6362H29.9089V17.1817H32.4544V14.6362Z" fill="black"/>
    <path d="M34.9998 14.6362H32.4543V17.1817H34.9998V14.6362Z" fill="black"/>
    <path d="M37.5455 14.6362H35V17.1817H37.5455V14.6362Z" fill="black"/>
    <path d="M40.0909 14.6362H37.5454V17.1817H40.0909V14.6362Z" fill="black"/>
    <path d="M32.4544 52.8179H29.9089V55.3633H32.4544V52.8179Z" fill="black"/>
    <path d="M34.9998 52.8179H32.4543V55.3633H34.9998V52.8179Z" fill="black"/>
    <path d="M37.5455 52.8179H35V55.3633H37.5455V52.8179Z" fill="black"/>
    <path d="M40.0909 52.8179H37.5454V55.3633H40.0909V52.8179Z" fill="black"/>
    <path d="M17.1817 29.9092H14.6362V32.4546H17.1817V29.9092Z" fill="black"/>
    <path d="M17.1817 32.4546H14.6362V35H17.1817V32.4546Z" fill="black"/>
    <path d="M19.7271 24.8179H17.1816V27.3633H19.7271V24.8179Z" fill="black"/>
    <path d="M24.8182 24.8179H19.7273V29.9088H24.8182V24.8179Z" fill="#FFA219"/>
    <path d="M24.8182 40.0908H19.7273V45.1817H24.8182V40.0908Z" fill="#FFA219"/>
    <path d="M22.2728 22.2725H19.7273V24.8179H22.2728V22.2725Z" fill="black"/>
    <path d="M24.8182 22.2725H22.2727V24.8179H24.8182V22.2725Z" fill="black"/>
    <path d="M27.3636 24.8179H24.8181V27.3633H27.3636V24.8179Z" fill="black"/>
    <path d="M27.3636 19.7271H24.8181V24.818H27.3636V19.7271Z" fill="#FFA219"/>
    <path d="M27.3635 29.9092H17.1816V35.0001H27.3635V29.9092Z" fill="#FFA219"/>
    <path d="M27.3636 45.1816H24.8181V50.2725H27.3636V45.1816Z" fill="#FFA219"/>
    <path d="M45.1817 45.1816H42.6362V50.2725H45.1817V45.1816Z" fill="#FFA219"/>
    <path d="M45.1817 19.7271H42.6362V24.818H45.1817V19.7271Z" fill="#FFA219"/>
    <path d="M45.1817 24.8179H42.6362V27.3633H45.1817V24.8179Z" fill="black"/>
    <path d="M45.1817 27.3638H42.6362V29.9092H45.1817V27.3638Z" fill="black"/>
    <path d="M42.6363 29.9092H40.0908V32.4546H42.6363V29.9092Z" fill="black"/>
    <path d="M27.3636 27.3638H24.8181V29.9092H27.3636V27.3638Z" fill="black"/>
    <path d="M27.3636 40.0908H24.8181V42.6363H27.3636V40.0908Z" fill="black"/>
    <path d="M27.3636 42.6362H24.8181V45.1817H27.3636V42.6362Z" fill="black"/>
    <path d="M45.1817 40.0908H42.6362V42.6363H45.1817V40.0908Z" fill="black"/>
    <path d="M45.1817 42.6362H42.6362V45.1817H45.1817V42.6362Z" fill="black"/>
    <path d="M29.909 29.9092H27.3635V32.4546H29.909V29.9092Z" fill="black"/>
    <path d="M29.909 32.4546H27.3635V35H29.909V32.4546Z" fill="#FFA219"/>
    <path d="M27.3635 37.5454H17.1816V40.0909H27.3635V37.5454Z" fill="#FFA219"/>
    <path d="M29.909 19.7271H27.3635V29.9089H29.909V19.7271Z" fill="#FFA219"/>
    <path d="M29.909 40.0908H27.3635V50.2726H29.909V40.0908Z" fill="#FFA219"/>
    <path d="M42.6363 40.0908H40.0908V50.2726H42.6363V40.0908Z" fill="#FFA219"/>
    <path d="M42.6363 19.7271H40.0908V29.9089H42.6363V19.7271Z" fill="#FFA219"/>
    <path d="M42.6363 37.5454H40.0908V40.0909H42.6363V37.5454Z" fill="black"/>
    <path d="M29.909 37.5454H27.3635V40.0909H29.909V37.5454Z" fill="black"/>
    <path d="M32.4544 35H29.9089V37.5455H32.4544V35Z" fill="black"/>
    <path d="M32.4544 32.4546H29.9089V35H32.4544V32.4546Z" fill="black"/>
    <path d="M29.9089 35H17.1816V37.5455H29.9089V35Z" fill="black"/>
    <path d="M34.9998 17.1816H32.4543V34.9998H34.9998V17.1816Z" fill="black"/>
    <path d="M37.5455 35H35V52.8182H37.5455V35Z" fill="black"/>
    <path d="M52.8181 32.4546H40.0908V35H52.8181V32.4546Z" fill="black"/>
    <path d="M40.0909 35H37.5454V37.5455H40.0909V35Z" fill="black"/>
    <path d="M52.8181 35H40.0908V37.5455H52.8181V35Z" fill="#FFA219"/>
    <path d="M52.818 29.9092H42.6362V32.4546H52.818V29.9092Z" fill="#FFA219"/>
    <path d="M52.818 37.5454H42.6362V40.0909H52.818V37.5454Z" fill="#FFA219"/>
    <path d="M50.2725 40.0908H45.1816V45.1817H50.2725V40.0908Z" fill="#FFA219"/>
    <path d="M50.2725 24.8179H45.1816V29.9088H50.2725V24.8179Z" fill="#FFA219"/>
    <path d="M40.0909 32.4546H37.5454V35H40.0909V32.4546Z" fill="black"/>
    <path d="M24.8182 19.7271H22.2727V22.2725H24.8182V19.7271Z" fill="black"/>
    <path d="M24.8182 17.1816H22.2727V19.7271H24.8182V17.1816Z" fill="white"/>
    <path d="M22.2728 19.7271H19.7273V22.2725H22.2728V19.7271Z" fill="white"/>
    <path d="M19.7271 22.2725H17.1816V24.8179H19.7271V22.2725Z" fill="white"/>
    <path d="M19.7271 45.1816H17.1816V47.7271H19.7271V45.1816Z" fill="white"/>
    <path d="M14.6363 40.0908H12.0908V42.6363H14.6363V40.0908Z" fill="white"/>
    <path d="M17.1817 45.1816H14.6362V47.7271H17.1817V45.1816Z" fill="white"/>
    <path d="M19.7271 47.7271H17.1816V50.2725H19.7271V47.7271Z" fill="white"/>
    <path d="M22.2728 50.2725H19.7273V52.8179H22.2728V50.2725Z" fill="white"/>
    <path d="M24.8182 52.8179H22.2727V55.3633H24.8182V52.8179Z" fill="white"/>
    <path d="M29.909 55.3638H27.3635V57.9092H29.909V55.3638Z" fill="white"/>
    <path d="M42.6363 55.3638H40.0908V57.9092H42.6363V55.3638Z" fill="white"/>
    <path d="M47.7271 52.8179H45.1816V55.3633H47.7271V52.8179Z" fill="white"/>
    <path d="M50.2728 50.2725H47.7273V52.8179H50.2728V50.2725Z" fill="white"/>
    <path d="M52.8182 47.7271H50.2727V50.2725H52.8182V47.7271Z" fill="white"/>
    <path d="M55.3636 45.1816H52.8181V47.7271H55.3636V45.1816Z" fill="white"/>
    <path d="M57.909 40.0908H55.3635V42.6363H57.909V40.0908Z" fill="white"/>
    <path d="M22.2728 47.7271H19.7273V50.2725H22.2728V47.7271Z" fill="white"/>
    <path d="M47.7271 50.2725H45.1816V52.8179H47.7271V50.2725Z" fill="white"/>
    <path d="M50.2728 47.7271H47.7273V50.2725H50.2728V47.7271Z" fill="white"/>
    <path d="M52.8182 45.1816H50.2727V47.7271H52.8182V45.1816Z" fill="white"/>
    <path d="M55.3636 40.0908H52.8181V45.1817H55.3636V40.0908Z" fill="white"/>
    <path d="M57.909 29.9092H55.3635V40.091H57.909V29.9092Z" fill="white"/>
    <path d="M55.3636 24.8179H52.8181V29.9088H55.3636V24.8179Z" fill="white"/>
    <path d="M52.8182 22.2725H50.2727V24.8179H52.8182V22.2725Z" fill="white"/>
    <path d="M50.2728 19.7271H47.7273V22.2725H50.2728V19.7271Z" fill="white"/>
    <path d="M47.7271 17.1816H45.1816V19.7271H47.7271V17.1816Z" fill="white"/>
    <path d="M45.1817 14.6362H40.0908V17.1817H45.1817V14.6362Z" fill="white"/>
    <path d="M29.909 14.6362H24.8181V17.1817H29.909V14.6362Z" fill="white"/>
    <path d="M40.0908 12.0908H29.9089V14.6363H40.0908V12.0908Z" fill="white"/>
    <path d="M24.8182 50.2725H22.2727V52.8179H24.8182V50.2725Z" fill="white"/>
    <path d="M29.909 52.8179H24.8181V55.3633H29.909V52.8179Z" fill="white"/>
    <path d="M45.1817 52.8218H40.0908V55.3672H45.1817V52.8218Z" fill="white"/>
    <path d="M40.0908 55.3638H29.9089V57.9092H40.0908V55.3638Z" fill="white"/>
    <path d="M17.1817 24.8179H14.6362V29.9088H17.1817V24.8179Z" fill="white"/>
    <path d="M17.1817 40.0908H14.6362V45.1817H17.1817V40.0908Z" fill="white"/>
    <path d="M14.6363 29.9092H12.0908V40.091H14.6363V29.9092Z" fill="white"/>
    <path d="M22.2728 45.1816H19.7273V47.7271H22.2728V45.1816Z" fill="black"/>
    <path d="M24.8182 45.1816H22.2727V47.7271H24.8182V45.1816Z" fill="black"/>
    <path d="M24.8182 47.7271H22.2727V50.2725H24.8182V47.7271Z" fill="black"/>
    <path d="M50.2728 45.1816H47.7273V47.7271H50.2728V45.1816Z" fill="black"/>
    <path d="M47.7271 45.1816H45.1816V47.7271H47.7271V45.1816Z" fill="black"/>
    <path d="M47.7271 47.7271H45.1816V50.2725H47.7271V47.7271Z" fill="black"/>
    <path d="M50.2728 22.2725H47.7273V24.8179H50.2728V22.2725Z" fill="black"/>
    <path d="M47.7271 22.2725H45.1816V24.8179H47.7271V22.2725Z" fill="black"/>
    <path d="M47.7271 19.7271H45.1816V22.2725H47.7271V19.7271Z" fill="black"/>
    <path d="M27.3636 17.1816H24.8181V19.7271H27.3636V17.1816Z" fill="black"/>
    <path d="M29.909 17.1816H27.3635V19.7271H29.909V17.1816Z" fill="black"/>
    <path d="M32.4544 17.1816H29.9089V32.4544H32.4544V17.1816Z" fill="#FFA219"/>
    <path d="M32.4544 37.5454H29.9089V52.8181H32.4544V37.5454Z" fill="#FFA219"/>
    <path d="M40.0909 37.5454H37.5454V52.8181H40.0909V37.5454Z" fill="#FFA219"/>
    <path d="M40.0909 17.1816H37.5454V32.4544H40.0909V17.1816Z" fill="#FFA219"/>
    <path d="M37.5455 17.1816H35V34.9998H37.5455V17.1816Z" fill="#FFA219"/>
    <path d="M34.9998 35H32.4543V52.8182H34.9998V35Z" fill="#FFA219"/>
    <path d="M42.6363 17.1816H40.0908V19.7271H42.6363V17.1816Z" fill="black"/>
    <path d="M45.1817 17.1816H42.6362V19.7271H45.1817V17.1816Z" fill="black"/>
    <path d="M27.3636 50.2725H24.8181V52.8179H27.3636V50.2725Z" fill="black"/>
    <path d="M29.909 50.2725H27.3635V52.8179H29.909V50.2725Z" fill="black"/>
    <path d="M42.6363 50.2725H40.0908V52.8179H42.6363V50.2725Z" fill="black"/>
    <path d="M45.1817 50.2725H42.6362V52.8179H45.1817V50.2725Z" fill="black"/>
    <path d="M19.7271 27.3638H17.1816V29.9092H19.7271V27.3638Z" fill="black"/>
    <path d="M19.7271 29.9092H17.1816V32.4546H19.7271V29.9092Z" fill="#AF6400"/>
    <path d="M22.2728 24.8179H19.7273V29.9088H22.2728V24.8179Z" fill="#AF6400"/>
    <path d="M19.7271 32.4546H17.1816V35H19.7271V32.4546Z" fill="#AF6400"/>
    <path d="M19.7271 37.5454H17.1816V40.0909H19.7271V37.5454Z" fill="#AF6400"/>
    <path d="M22.2728 40.0908H19.7273V42.6363H22.2728V40.0908Z" fill="#AF6400"/>
    <path d="M22.2728 29.9092H19.7273V32.4546H22.2728V29.9092Z" fill="#D98100"/>
    <path d="M24.8182 24.8179H22.2727V29.9088H24.8182V24.8179Z" fill="#D98100"/>
    <path d="M27.3636 19.7271H24.8181V24.818H27.3636V19.7271Z" fill="#D98100"/>
    <path d="M22.2728 32.4546H19.7273V35H22.2728V32.4546Z" fill="#D98100"/>
    <path d="M22.2728 37.5454H19.7273V40.0909H22.2728V37.5454Z" fill="#D98100"/>
    <path d="M24.8182 40.0908H22.2727V42.6363H24.8182V40.0908Z" fill="#D98100"/>
    <path d="M29.909 45.1816H27.3635V47.7271H29.909V45.1816Z" fill="#D98100"/>
    <path d="M32.4544 47.7271H29.9089V50.2725H32.4544V47.7271Z" fill="#D98100"/>
    <path d="M34.9998 47.7271H32.4543V50.2725H34.9998V47.7271Z" fill="#D98100"/>
    <path d="M40.0909 47.7271H37.5454V50.2725H40.0909V47.7271Z" fill="#D98100"/>
    <path d="M42.6363 45.1816H40.0908V47.7271H42.6363V45.1816Z" fill="#D98100"/>
    <path d="M45.1817 45.1816H42.6362V47.7271H45.1817V45.1816Z" fill="#D98100"/>
    <path d="M52.8182 29.9092H50.2727V32.4546H52.8182V29.9092Z" fill="#FFBF66"/>
    <path d="M50.2728 27.3638H47.7273V29.9092H50.2728V27.3638Z" fill="#FFBF66"/>
    <path d="M50.2728 24.8179H47.7273V27.3633H50.2728V24.8179Z" fill="#FFBF66"/>
    <path d="M47.7271 24.8179H45.1816V27.3633H47.7271V24.8179Z" fill="#FFBF66"/>
    <path d="M45.1817 22.2725H42.6362V24.8179H45.1817V22.2725Z" fill="#FFBF66"/>
    <path d="M45.1817 19.7271H42.6362V22.2725H45.1817V19.7271Z" fill="#FFBF66"/>
    <path d="M42.6363 19.7271H40.0908V22.2725H42.6363V19.7271Z" fill="#FFBF66"/>
    <path d="M40.0909 17.1816H37.5454V19.7271H40.0909V17.1816Z" fill="#FFBF66"/>
    <path d="M37.5455 17.1816H35V19.7271H37.5455V17.1816Z" fill="#FFBF66"/>
    <path d="M22.2728 42.6362H19.7273V45.1817H22.2728V42.6362Z" fill="#AF6400"/>
    <path d="M24.8182 42.6362H22.2727V45.1817H24.8182V42.6362Z" fill="#AF6400"/>
    <path d="M27.3636 45.1816H24.8181V47.7271H27.3636V45.1816Z" fill="#AF6400"/>
    <path d="M27.3636 47.7271H24.8181V50.2725H27.3636V47.7271Z" fill="#AF6400"/>
    <path d="M29.909 47.7271H27.3635V50.2725H29.909V47.7271Z" fill="#AF6400"/>
    <path d="M32.4544 50.2725H29.9089V52.8179H32.4544V50.2725Z" fill="#AF6400"/>
    <path d="M34.9998 50.2725H32.4543V52.8179H34.9998V50.2725Z" fill="#AF6400"/>
    <path d="M40.0909 50.2725H37.5454V52.8179H40.0909V50.2725Z" fill="#AF6400"/>
    <path d="M42.6363 47.7271H40.0908V50.2725H42.6363V47.7271Z" fill="#AF6400"/>
    <path d="M45.1817 47.7271H42.6362V50.2725H45.1817V47.7271Z" fill="#AF6400"/>
    <path d="M52.8182 24.8179H50.2727V27.3633H52.8182V24.8179Z" fill="black"/>
    <path d="M52.8182 27.3638H50.2727V29.9092H52.8182V27.3638Z" fill="black"/>
    <path d="M52.8182 40.0908H50.2727V42.6363H52.8182V40.0908Z" fill="black"/>
    <path d="M52.8182 42.6362H50.2727V45.1817H52.8182V42.6362Z" fill="black"/>
    <path d="M19.7271 40.0908H17.1816V42.6363H19.7271V40.0908Z" fill="black"/>
    <path d="M19.7271 42.6362H17.1816V45.1817H19.7271V42.6362Z" fill="black"/>
    <path d="M17.1817 35H14.6362V37.5455H17.1817V35Z" fill="black"/>
    <path d="M17.1817 37.5454H14.6362V40.0909H17.1817V37.5454Z" fill="black"/>
    <path d="M55.3636 29.9092H52.8181V32.4546H55.3636V29.9092Z" fill="black"/>
    <path d="M55.3636 32.4546H52.8181V35H55.3636V32.4546Z" fill="black"/>
    <path d="M55.3636 35H52.8181V37.5455H55.3636V35Z" fill="black"/>
    <path d="M55.3636 37.5454H52.8181V40.0909H55.3636V37.5454Z" fill="black"/>
</svg>
