<svg width="50" height="50" viewBox="0 0 50 50" fill="none" xmlns="http://www.w3.org/2000/svg">
    <g clip-path="url(#clip0_2090_31712)">
        <path d="M3.84593 26.1538H1.92285V28.0769H3.84593V26.1538Z" fill="black"/>
        <path d="M3.84593 28.0771H1.92285V30.0002H3.84593V28.0771Z" fill="black"/>
        <path d="M3.84593 30H1.92285V31.9231H3.84593V30Z" fill="black"/>
        <path d="M3.84593 31.9229H1.92285V33.8459H3.84593V31.9229Z" fill="#ED1C24"/>
        <path d="M5.76927 31.9229H3.84619V33.8459H5.76927V31.9229Z" fill="#ED1C24"/>
        <path d="M3.84593 33.8462H1.92285V35.7693H3.84593V33.8462Z" fill="black"/>
        <path d="M5.76927 33.8462H3.84619V35.7693H5.76927V33.8462Z" fill="black"/>
        <path d="M7.69212 33.8462H5.76904V35.7693H7.69212V33.8462Z" fill="black"/>
        <path d="M9.61546 33.8462H7.69238V35.7693H9.61546V33.8462Z" fill="black"/>
        <path d="M3.84593 35.769H1.92285V37.6921H3.84593V35.769Z" fill="black"/>
        <path d="M3.84593 37.6924H1.92285V39.6155H3.84593V37.6924Z" fill="black"/>
        <path d="M3.84593 39.6152H1.92285V41.5383H3.84593V39.6152Z" fill="black"/>
        <path d="M3.84593 41.5386H1.92285V43.4616H3.84593V41.5386Z" fill="black"/>
        <path d="M13.4617 26.1538H11.5386V28.0769H13.4617V26.1538Z" fill="black"/>
        <path d="M15.3845 26.1538H13.4614V28.0769H15.3845V26.1538Z" fill="black"/>
        <path d="M17.3078 26.1538H15.3848V28.0769H17.3078V26.1538Z" fill="black"/>
        <path d="M19.2307 28.0771H17.3076V30.0002H19.2307V28.0771Z" fill="black"/>
        <path d="M19.2307 30H17.3076V31.9231H19.2307V30Z" fill="black"/>
        <path d="M19.2307 31.9229H17.3076V33.8459H19.2307V31.9229Z" fill="black"/>
        <path d="M17.3078 33.8462H15.3848V35.7693H17.3078V33.8462Z" fill="black"/>
        <path d="M15.3845 33.8462H13.4614V35.7693H15.3845V33.8462Z" fill="black"/>
        <path d="M17.3078 35.769H15.3848V37.6921H17.3078V35.769Z" fill="black"/>
        <path d="M19.2307 37.6924H17.3076V39.6155H19.2307V37.6924Z" fill="black"/>
        <path d="M19.2307 39.6152H17.3076V41.5383H19.2307V39.6152Z" fill="black"/>
        <path d="M19.2307 41.5386H17.3076V43.4616H19.2307V41.5386Z" fill="black"/>
        <path d="M13.4617 28.0771H11.5386V30.0002H13.4617V28.0771Z" fill="black"/>
        <path d="M13.4617 30H11.5386V31.9231H13.4617V30Z" fill="black"/>
        <path d="M13.4617 31.9229H11.5386V33.8459H13.4617V31.9229Z" fill="black"/>
        <path d="M13.4617 33.8462H11.5386V35.7693H13.4617V33.8462Z" fill="black"/>
        <path d="M13.4617 35.769H11.5386V37.6921H13.4617V35.769Z" fill="black"/>
        <path d="M13.4617 37.6924H11.5386V39.6155H13.4617V37.6924Z" fill="black"/>
        <path d="M13.4617 39.6152H11.5386V41.5383H13.4617V39.6152Z" fill="black"/>
        <path d="M13.4617 41.5386H11.5386V43.4616H13.4617V41.5386Z" fill="black"/>
        <path d="M23.0769 26.1538H21.1538V28.0769H23.0769V26.1538Z" fill="black"/>
        <path d="M25.0002 26.1538H23.0771V28.0769H25.0002V26.1538Z" fill="black"/>
        <path d="M26.9231 26.1538H25V28.0769H26.9231V26.1538Z" fill="black"/>
        <path d="M28.8459 28.0771H26.9229V30.0002H28.8459V28.0771Z" fill="black"/>
        <path d="M28.8459 30H26.9229V31.9231H28.8459V30Z" fill="black"/>
        <path d="M28.8459 31.9229H26.9229V33.8459H28.8459V31.9229Z" fill="black"/>
        <path d="M26.9231 33.8462H25V35.7693H26.9231V33.8462Z" fill="black"/>
        <path d="M25.0002 33.8462H23.0771V35.7693H25.0002V33.8462Z" fill="black"/>
        <path d="M26.9231 35.769H25V37.6921H26.9231V35.769Z" fill="black"/>
        <path d="M28.8459 37.6924H26.9229V39.6155H28.8459V37.6924Z" fill="black"/>
        <path d="M28.8459 39.6152H26.9229V41.5383H28.8459V39.6152Z" fill="black"/>
        <path d="M28.8459 41.5386H26.9229V43.4616H28.8459V41.5386Z" fill="black"/>
        <path d="M23.0769 28.0771H21.1538V30.0002H23.0769V28.0771Z" fill="black"/>
        <path d="M23.0769 30H21.1538V31.9231H23.0769V30Z" fill="black"/>
        <path d="M23.0769 31.9229H21.1538V33.8459H23.0769V31.9229Z" fill="black"/>
        <path d="M23.0769 33.8462H21.1538V35.7693H23.0769V33.8462Z" fill="black"/>
        <path d="M23.0769 35.769H21.1538V37.6921H23.0769V35.769Z" fill="black"/>
        <path d="M23.0769 37.6924H21.1538V39.6155H23.0769V37.6924Z" fill="black"/>
        <path d="M23.0769 39.6152H21.1538V41.5383H23.0769V39.6152Z" fill="black"/>
        <path d="M23.0769 41.5386H21.1538V43.4616H23.0769V41.5386Z" fill="black"/>
        <path d="M42.3078 26.1538H40.3848V28.0769H42.3078V26.1538Z" fill="black"/>
        <path d="M44.2307 26.1538H42.3076V28.0769H44.2307V26.1538Z" fill="black"/>
        <path d="M46.154 26.1538H44.231V28.0769H46.154V26.1538Z" fill="black"/>
        <path d="M48.0769 28.0771H46.1538V30.0002H48.0769V28.0771Z" fill="black"/>
        <path d="M48.0769 30H46.1538V31.9231H48.0769V30Z" fill="black"/>
        <path d="M48.0769 31.9229H46.1538V33.8459H48.0769V31.9229Z" fill="black"/>
        <path d="M46.154 33.8462H44.231V35.7693H46.154V33.8462Z" fill="black"/>
        <path d="M44.2307 33.8462H42.3076V35.7693H44.2307V33.8462Z" fill="black"/>
        <path d="M46.154 35.769H44.231V37.6921H46.154V35.769Z" fill="black"/>
        <path d="M48.0769 37.6924H46.1538V39.6155H48.0769V37.6924Z" fill="black"/>
        <path d="M48.0769 39.6152H46.1538V41.5383H48.0769V39.6152Z" fill="black"/>
        <path d="M48.0769 41.5386H46.1538V43.4616H48.0769V41.5386Z" fill="black"/>
        <path d="M42.3078 28.0771H40.3848V30.0002H42.3078V28.0771Z" fill="black"/>
        <path d="M42.3078 30H40.3848V31.9231H42.3078V30Z" fill="black"/>
        <path d="M42.3874 31.9229H40.4644V33.8459H42.3874V31.9229Z" fill="black"/>
        <path d="M42.3078 33.8462H40.3848V35.7693H42.3078V33.8462Z" fill="black"/>
        <path d="M42.3078 35.769H40.3848V37.6921H42.3078V35.769Z" fill="black"/>
        <path d="M42.3078 37.6924H40.3848V39.6155H42.3078V37.6924Z" fill="black"/>
        <path d="M42.3078 39.6152H40.3848V41.5383H42.3078V39.6152Z" fill="black"/>
        <path d="M42.3078 41.5386H40.3848V43.4616H42.3078V41.5386Z" fill="black"/>
        <path d="M5.76927 41.5386H3.84619V43.4616H5.76927V41.5386Z" fill="black"/>
        <path d="M7.69212 41.5386H5.76904V43.4616H7.69212V41.5386Z" fill="black"/>
        <path d="M9.61546 41.5386H7.69238V43.4616H9.61546V41.5386Z" fill="black"/>
        <path d="M5.76927 26.1538H3.84619V28.0769H5.76927V26.1538Z" fill="black"/>
        <path d="M7.69212 26.1538H5.76904V28.0769H7.69212V26.1538Z" fill="black"/>
        <path d="M32.6921 28.0771H30.769V30.0002H32.6921V28.0771Z" fill="black"/>
        <path d="M32.6921 30H30.769V31.9231H32.6921V30Z" fill="black"/>
        <path d="M32.6921 31.9229H30.769V33.8459H32.6921V31.9229Z" fill="black"/>
        <path d="M32.6921 33.8462H30.769V35.7693H32.6921V33.8462Z" fill="black"/>
        <path d="M32.6921 35.769H30.769V37.6921H32.6921V35.769Z" fill="black"/>
        <path d="M32.6921 37.6924H30.769V39.6155H32.6921V37.6924Z" fill="black"/>
        <path d="M32.6921 39.6152H30.769V41.5383H32.6921V39.6152Z" fill="black"/>
        <path d="M38.4617 28.0771H36.5386V30.0002H38.4617V28.0771Z" fill="black"/>
        <path d="M38.4617 30H36.5386V31.9231H38.4617V30Z" fill="black"/>
        <path d="M38.4617 31.9229H36.5386V33.8459H38.4617V31.9229Z" fill="black"/>
        <path d="M38.4617 33.8462H36.5386V35.7693H38.4617V33.8462Z" fill="black"/>
        <path d="M38.4617 35.769H36.5386V37.6921H38.4617V35.769Z" fill="black"/>
        <path d="M38.4617 37.6924H36.5386V39.6155H38.4617V37.6924Z" fill="black"/>
        <path d="M38.4617 39.6152H36.5386V41.5383H38.4617V39.6152Z" fill="black"/>
        <path d="M34.6155 41.5386H32.6924V43.4616H34.6155V41.5386Z" fill="black"/>
        <path d="M36.5383 41.5386H34.6152V43.4616H36.5383V41.5386Z" fill="black"/>
        <path d="M34.6155 26.1538H32.6924V28.0769H34.6155V26.1538Z" fill="black"/>
        <path d="M36.5383 26.1538H34.6152V28.0769H36.5383V26.1538Z" fill="black"/>
        <path d="M9.61546 26.1538H7.69238V28.0769H9.61546V26.1538Z" fill="black"/>
        <path d="M7.69212 31.9229H5.76904V33.8459H7.69212V31.9229Z" fill="#ED1C24"/>
        <path d="M9.61546 31.9229H7.69238V33.8459H9.61546V31.9229Z" fill="#ED1C24"/>
        <path d="M11.5383 31.9229H9.61523V33.8459H11.5383V31.9229Z" fill="#ED1C24"/>
        <path d="M13.4617 31.9229H11.5386V33.8459H13.4617V31.9229Z" fill="#ED1C24"/>
        <path d="M15.3845 31.9229H13.4614V33.8459H15.3845V31.9229Z" fill="#ED1C24"/>
        <path d="M17.3078 31.9229H15.3848V33.8459H17.3078V31.9229Z" fill="#ED1C24"/>
        <path d="M19.2307 31.9229H17.3076V33.8459H19.2307V31.9229Z" fill="#ED1C24"/>
        <path d="M21.154 31.9229H19.231V33.8459H21.154V31.9229Z" fill="#ED1C24"/>
        <path d="M23.0769 31.9229H21.1538V33.8459H23.0769V31.9229Z" fill="#ED1C24"/>
        <path d="M25.0002 31.9229H23.0771V33.8459H25.0002V31.9229Z" fill="#ED1C24"/>
        <path d="M26.9231 31.9229H25V33.8459H26.9231V31.9229Z" fill="#ED1C24"/>
        <path d="M28.8459 31.9229H26.9229V33.8459H28.8459V31.9229Z" fill="#ED1C24"/>
        <path d="M30.7693 31.9229H28.8462V33.8459H30.7693V31.9229Z" fill="#ED1C24"/>
        <path d="M32.6921 31.9229H30.769V33.8459H32.6921V31.9229Z" fill="#ED1C24"/>
        <path d="M34.6155 31.9229H32.6924V33.8459H34.6155V31.9229Z" fill="#ED1C24"/>
        <path d="M36.5383 31.9229H34.6152V33.8459H36.5383V31.9229Z" fill="#ED1C24"/>
        <path d="M38.4617 31.9229H36.5386V33.8459H38.4617V31.9229Z" fill="#ED1C24"/>
        <path d="M40.3845 31.9229H38.4614V33.8459H40.3845V31.9229Z" fill="#ED1C24"/>
        <path d="M42.3078 31.9229H40.3848V33.8459H42.3078V31.9229Z" fill="#ED1C24"/>
        <path d="M44.2307 31.9229H42.3076V33.8459H44.2307V31.9229Z" fill="#ED1C24"/>
        <path d="M46.154 31.9229H44.231V33.8459H46.154V31.9229Z" fill="#ED1C24"/>
        <path d="M48.0769 31.9229H46.1538V33.8459H48.0769V31.9229Z" fill="#ED1C24"/>
        <path d="M36.5364 6.9248H34.6133V8.84788H36.5364V6.9248Z" fill="#49CE58"/>
        <path d="M38.4626 6.9248H36.5396V8.84788H38.4626V6.9248Z" fill="#39A84A"/>
        <path d="M34.6155 8.84619H32.6924V10.7693H34.6155V8.84619Z" fill="#49CE58"/>
        <path d="M32.6941 10.7681H30.771V12.6911H32.6941V10.7681Z" fill="#49CE58"/>
        <path d="M36.5373 8.84424H34.6143V10.7673H36.5373V8.84424Z" fill="#39A84A"/>
        <path d="M34.6155 10.769H32.6924V12.6921H34.6155V10.769Z" fill="#39A84A"/>
        <path d="M32.6921 12.6924H30.769V14.6155H32.6921V12.6924Z" fill="#39A84A"/>
        <path d="M19.2297 12.6934H17.3066V14.6164H19.2297V12.6934Z" fill="#49CE58"/>
        <path d="M17.3078 12.6924H15.3848V14.6155H17.3078V12.6924Z" fill="#39A84A"/>
        <path d="M17.3078 10.769H15.3848V12.6921H17.3078V10.769Z" fill="#49CE58"/>
        <path d="M15.3845 10.769H13.4614V12.6921H15.3845V10.769Z" fill="#39A84A"/>
        <path d="M26.9241 18.4624H25.001V20.3855H26.9241V18.4624Z" fill="#39A84A"/>
        <path d="M25.0012 20.3857H23.0781V22.3088H25.0012V20.3857Z" fill="#39A84A"/>
        <path d="M28.8459 16.5396H26.9229V18.4626H28.8459V16.5396Z" fill="#39A84A"/>
        <path d="M30.7693 14.6152H28.8462V16.5383H30.7693V14.6152Z" fill="#39A84A"/>
        <path d="M30.7702 12.6924H28.8472V14.6155H30.7702V12.6924Z" fill="#49CE58"/>
        <path d="M21.155 14.6143H19.2319V16.5373H21.155V14.6143Z" fill="#49CE58"/>
        <path d="M28.8469 14.6152H26.9238V16.5383H28.8469V14.6152Z" fill="#49CE58"/>
        <path d="M23.0779 16.5376H21.1548V18.4607H23.0779V16.5376Z" fill="#49CE58"/>
        <path d="M19.2297 14.6143H17.3066V16.5373H19.2297V14.6143Z" fill="#39A84A"/>
        <path d="M21.155 16.5396H19.2319V18.4626H21.155V16.5396Z" fill="#39A84A"/>
        <path d="M23.0759 18.4604H21.1528V20.3835H23.0759V18.4604Z" fill="#39A84A"/>
        <path d="M26.9231 16.5386H25V18.4617H26.9231V16.5386Z" fill="#49CE58"/>
        <path d="M24.9992 18.4624H23.0762V20.3855H24.9992V18.4624Z" fill="#49CE58"/>
        <path d="M13.4617 10.769H11.5386V12.6921H13.4617V10.769Z" fill="white"/>
        <path d="M15.3845 12.6934H13.4614V14.6164H15.3845V12.6934Z" fill="white"/>
        <path d="M17.3078 14.6143H15.3848V16.5373H17.3078V14.6143Z" fill="white"/>
        <path d="M19.2307 16.5386H17.3076V18.4617H19.2307V16.5386Z" fill="white"/>
        <path d="M21.154 18.4614H19.231V20.3845H21.154V18.4614Z" fill="white"/>
        <path d="M23.0769 20.3848H21.1538V22.3078H23.0769V20.3848Z" fill="white"/>
        <path d="M25.0012 22.3076H23.0781V24.2307H25.0012V22.3076Z" fill="white"/>
        <path d="M13.4577 12.6934H11.5347V14.6164H13.4577V12.6934Z" fill="white"/>
        <path d="M15.3806 14.6143H13.4575V16.5373H15.3806V14.6143Z" fill="white"/>
        <path d="M17.3039 16.5386H15.3809V18.4617H17.3039V16.5386Z" fill="white"/>
        <path d="M19.2268 18.4614H17.3037V20.3845H19.2268V18.4614Z" fill="white"/>
        <path d="M21.1501 20.3848H19.2271V22.3078H21.1501V20.3848Z" fill="white"/>
        <path d="M23.074 22.3076H21.1509V24.2307H23.074V22.3076Z" fill="white"/>
        <path d="M26.9233 24.2363H23.0781V26.1594H26.9233V24.2363Z" fill="white"/>
        <path d="M36.5386 24.2363H32.6934V26.1594H36.5386V24.2363Z" fill="white"/>
        <path d="M46.154 24.2363H40.3857V26.1594H46.154V24.2363Z" fill="white"/>
        <path d="M23.0769 24.2363H21.1538V26.1594H23.0769V24.2363Z" fill="white"/>
        <path d="M21.154 26.1538H19.231V28.0769H21.154V26.1538Z" fill="white"/>
        <path d="M19.2307 26.1538H17.3076V28.0769H19.2307V26.1538Z" fill="white"/>
        <path d="M17.3078 24.231H15.3848V26.154H17.3078V24.231Z" fill="white"/>
        <path d="M15.3845 24.231H13.4614V26.154H15.3845V24.231Z" fill="white"/>
        <path d="M13.4617 24.231H11.5386V26.154H13.4617V24.231Z" fill="white"/>
        <path d="M11.5383 24.231H9.61523V26.154H11.5383V24.231Z" fill="white"/>
        <path d="M11.5383 26.1538H9.61523V28.0769H11.5383V26.1538Z" fill="white"/>
        <path d="M11.5383 28.0771H9.61523V30.0002H11.5383V28.0771Z" fill="white"/>
        <path d="M17.3076 28.0771H13.4614V31.9233H17.3076V28.0771Z" fill="white"/>
        <path d="M26.9223 28.0771H23.0762V31.9233H26.9223V28.0771Z" fill="white"/>
        <path d="M46.1538 28.0771H42.3076V31.9233H46.1538V28.0771Z" fill="white"/>
        <path d="M11.5383 30H9.61523V31.9231H11.5383V30Z" fill="white"/>
        <path d="M11.5383 33.8491H9.61523V35.7722H11.5383V33.8491Z" fill="white"/>
        <path d="M11.5383 37.6982H9.61523V39.6213H11.5383V37.6982Z" fill="white"/>
        <path d="M11.5383 41.5469H9.61523V43.4699H11.5383V41.5469Z" fill="white"/>
        <path d="M15.3845 35.772H13.4614V43.47H15.3845V35.772Z" fill="white"/>
        <path d="M17.3078 37.6982H15.3848V43.4704H17.3078V37.6982Z" fill="white"/>
        <path d="M24.9992 35.772H23.0762V43.47H24.9992V35.772Z" fill="white"/>
        <path d="M26.9221 37.6982H24.999V43.4704H26.9221V37.6982Z" fill="white"/>
        <path d="M11.5383 39.627H9.61523V41.55H11.5383V39.627Z" fill="white"/>
        <path d="M11.5383 35.769H9.61523V37.6921H11.5383V35.769Z" fill="white"/>
        <path d="M9.61546 35.769H7.69238V39.6267H9.61546V35.769Z" fill="white"/>
        <path d="M7.69212 35.769H5.76904V39.6267H7.69212V35.769Z" fill="white"/>
        <path d="M5.76927 35.769H3.84619V37.6921H5.76927V35.769Z" fill="white"/>
        <path d="M5.76927 37.6982H3.84619V39.6213H5.76927V37.6982Z" fill="white"/>
        <path d="M5.76927 39.627H3.84619V41.55H5.76927V39.627Z" fill="white"/>
        <path d="M7.69212 39.627H5.76904V41.55H7.69212V39.627Z" fill="white"/>
        <path d="M9.61546 39.627H7.69238V41.55H9.61546V39.627Z" fill="white"/>
        <path d="M9.61546 28.0713H7.69238V29.9944H9.61546V28.0713Z" fill="white"/>
        <path d="M7.69212 28.0713H5.76904V29.9944H7.69212V28.0713Z" fill="white"/>
        <path d="M5.76927 28.0713H3.84619V29.9944H5.76927V28.0713Z" fill="white"/>
        <path d="M5.76927 30H3.84619V31.9231H5.76927V30Z" fill="white"/>
        <path d="M9.6152 30H5.76904V31.9231H9.6152V30Z" fill="white"/>
        <path d="M9.61546 24.231H7.69238V26.154H9.61546V24.231Z" fill="white"/>
        <path d="M7.69212 24.231H5.76904V26.154H7.69212V24.231Z" fill="white"/>
        <path d="M5.76927 24.231H3.84619V26.154H5.76927V24.231Z" fill="white"/>
        <path d="M3.84593 24.231H1.92285V26.154H3.84593V24.231Z" fill="white"/>
        <path d="M21.154 28.0796H19.231V30.0027H21.154V28.0796Z" fill="white"/>
        <path d="M21.154 30.0059H19.231V31.9289H21.154V30.0059Z" fill="white"/>
        <path d="M21.154 33.8491H19.231V35.7722H21.154V33.8491Z" fill="white"/>
        <path d="M21.154 37.6924H19.231V39.6155H21.154V37.6924Z" fill="white"/>
        <path d="M21.154 41.5356H19.231V43.4587H21.154V41.5356Z" fill="white"/>
        <path d="M21.154 43.4614H19.231V45.3845H21.154V43.4614Z" fill="white"/>
        <path d="M21.154 39.6152H19.231V41.5383H21.154V39.6152Z" fill="white"/>
        <path d="M21.154 35.769H19.231V37.6921H21.154V35.769Z" fill="white"/>
        <path d="M19.2307 33.8491H17.3076V35.7722H19.2307V33.8491Z" fill="white"/>
        <path d="M19.2307 35.769H17.3076V37.6921H19.2307V35.769Z" fill="white"/>
        <path d="M32.6923 26.1538H26.9395V28.0769H32.6923V26.1538Z" fill="white"/>
        <path d="M30.7693 28.0796H28.8462V30.0027H30.7693V28.0796Z" fill="white"/>
        <path d="M36.5385 28.0796H32.6924V31.9229H36.5385V28.0796Z" fill="white"/>
        <path d="M30.7693 30.0059H28.8462V31.9289H30.7693V30.0059Z" fill="white"/>
        <path d="M30.7693 33.8491H26.9395V35.7722H30.7693V33.8491Z" fill="white"/>
        <path d="M30.7693 37.6924H28.8462V39.6155H30.7693V37.6924Z" fill="white"/>
        <path d="M30.7693 41.5356H28.8462V43.4587H30.7693V41.5356Z" fill="white"/>
        <path d="M30.7693 43.4614H28.8462V45.3845H30.7693V43.4614Z" fill="white"/>
        <path d="M30.7693 39.6152H28.8462V41.5383H30.7693V39.6152Z" fill="white"/>
        <path d="M30.7693 35.769H26.9395V37.6921H30.7693V35.769Z" fill="white"/>
        <path d="M40.3847 26.1538H36.5386V28.0769H40.3847V26.1538Z" fill="white"/>
        <path d="M40.3845 28.0796H38.4614V30.0027H40.3845V28.0796Z" fill="white"/>
        <path d="M48.0769 26.1479H46.1538V28.071H48.0769V26.1479Z" fill="white"/>
        <path d="M40.3845 30.0059H38.4614V31.9289H40.3845V30.0059Z" fill="white"/>
        <path d="M40.3845 33.8491H38.4614V35.7722H40.3845V33.8491Z" fill="white"/>
        <path d="M40.3845 37.6924H38.4614V39.6155H40.3845V37.6924Z" fill="white"/>
        <path d="M40.3845 41.5356H38.4614V43.4587H40.3845V41.5356Z" fill="white"/>
        <path d="M38.4617 41.5356H36.5386V43.4587H38.4617V41.5356Z" fill="white"/>
        <path d="M32.6921 41.5356H30.769V43.4587H32.6921V41.5356Z" fill="white"/>
        <path d="M36.5385 33.8462H32.6924V41.55H36.5385V33.8462Z" fill="white"/>
        <path d="M40.3845 43.4614H38.4614V45.3845H40.3845V43.4614Z" fill="white"/>
        <path d="M40.3845 39.6152H38.4614V41.5383H40.3845V39.6152Z" fill="white"/>
        <path d="M40.3845 35.769H38.4614V37.6921H40.3845V35.769Z" fill="white"/>
        <path d="M50.0002 26.1538H48.0771V28.0769H50.0002V26.1538Z" fill="white"/>
        <path d="M50.0002 28.0796H48.0771V30.0027H50.0002V28.0796Z" fill="white"/>
        <path d="M50.0002 30.0059H48.0771V31.9289H50.0002V30.0059Z" fill="white"/>
        <path d="M50 33.8491H46.1538V35.7722H50V33.8491Z" fill="white"/>
        <path d="M50.0002 31.9238H48.0771V33.8469H50.0002V31.9238Z" fill="white"/>
        <path d="M50.0002 37.6924H48.0771V39.6155H50.0002V37.6924Z" fill="white"/>
        <path d="M50.0002 41.5356H48.0771V43.4587H50.0002V41.5356Z" fill="white"/>
        <path d="M50.0002 43.4614H48.0771V45.3845H50.0002V43.4614Z" fill="white"/>
        <path d="M44.2307 35.769H42.3076V43.4585H44.2307V35.769Z" fill="white"/>
        <path d="M46.154 37.6982H44.231V43.4588H46.154V37.6982Z" fill="white"/>
        <path d="M50.0002 39.6152H48.0771V41.5383H50.0002V39.6152Z" fill="white"/>
        <path d="M50 35.769H46.1538V37.6921H50V35.769Z" fill="white"/>
        <path d="M1.92308 26.1538H0V28.0769H1.92308V26.1538Z" fill="white"/>
        <path d="M1.92308 28.0796H0V30.0027H1.92308V28.0796Z" fill="white"/>
        <path d="M1.92308 30.0059H0V31.9289H1.92308V30.0059Z" fill="white"/>
        <path d="M1.92308 33.8491H0V35.7722H1.92308V33.8491Z" fill="white"/>
        <path d="M1.92308 31.9238H0V33.8469H1.92308V31.9238Z" fill="white"/>
        <path d="M1.92308 37.6924H0V39.6155H1.92308V37.6924Z" fill="white"/>
        <path d="M1.92308 41.5356H0V43.4587H1.92308V41.5356Z" fill="white"/>
        <path d="M48.0769 43.4614H0V45.3845H48.0769V43.4614Z" fill="white"/>
        <path d="M1.92308 39.6152H0V41.5383H1.92308V39.6152Z" fill="white"/>
        <path d="M1.92308 35.769H0V37.6921H1.92308V35.769Z" fill="white"/>
        <path d="M26.9241 20.3857H25.001V22.3088H26.9241V20.3857Z" fill="white"/>
        <path d="M28.8459 18.4844H26.9229V20.4075H28.8459V18.4844Z" fill="white"/>
        <path d="M30.7702 16.5396H28.8472V18.4626H30.7702V16.5396Z" fill="white"/>
        <path d="M32.6941 14.6162H30.771V16.5393H32.6941V14.6162Z" fill="white"/>
        <path d="M34.6184 12.6934H32.6953V14.6164H34.6184V12.6934Z" fill="white"/>
        <path d="M36.5422 10.77H34.6191V12.6931H36.5422V10.77Z" fill="white"/>
        <path d="M38.4665 8.84717H36.5435V10.7702H38.4665V8.84717Z" fill="white"/>
        <path d="M26.9211 22.3076H24.998V24.2307H26.9211V22.3076Z" fill="white"/>
        <path d="M28.8445 20.3857H26.9214V22.3088H28.8445V20.3857Z" fill="white"/>
        <path d="M30.7663 18.4844H28.8433V20.4075H30.7663V18.4844Z" fill="white"/>
        <path d="M32.6902 16.5396H30.7671V18.4626H32.6902V16.5396Z" fill="white"/>
        <path d="M34.6145 14.6162H32.6914V16.5393H34.6145V14.6162Z" fill="white"/>
        <path d="M36.5383 12.6934H34.6152V14.6164H36.5383V12.6934Z" fill="white"/>
        <path d="M38.4626 10.77H36.5396V12.6931H38.4626V10.77Z" fill="white"/>
        <path d="M40.3865 8.84717H38.4634V10.7702H40.3865V8.84717Z" fill="white"/>
        <path d="M40.3904 6.92383H38.4673V8.8469H40.3904V6.92383Z" fill="white"/>
        <path d="M38.4617 5H36.5386V6.92308H38.4617V5Z" fill="white"/>
        <path d="M36.5364 5H34.6133V6.92308H36.5364V5Z" fill="white"/>
        <path d="M34.6174 6.9248H32.6943V8.84788H34.6174V6.9248Z" fill="white"/>
        <path d="M32.698 8.8501H30.7749V10.7732H32.698V8.8501Z" fill="white"/>
        <path d="M30.779 10.7749H28.856V12.698H30.779V10.7749Z" fill="white"/>
        <path d="M28.8586 12.7002H26.9355V14.6233H28.8586V12.7002Z" fill="white"/>
        <path d="M26.9392 14.625H25.0161V16.5481H26.9392V14.625Z" fill="white"/>
        <path d="M25.0202 16.5498H23.0972V18.4729H25.0202V16.5498Z" fill="white"/>
        <path d="M23.0779 14.6162H21.1548V16.5393H23.0779V14.6162Z" fill="white"/>
        <path d="M21.154 12.6924H19.231V14.6155H21.154V12.6924Z" fill="white"/>
        <path d="M19.2307 10.769H17.3076V12.6921H19.2307V10.769Z" fill="white"/>
        <path d="M17.3078 8.84619H15.3848V10.7693H17.3078V8.84619Z" fill="white"/>
        <path d="M15.3845 8.84619H13.4614V10.7693H15.3845V8.84619Z" fill="white"/>
    </g>
    <defs>
        <clipPath id="clip0_2090_31712">
            <rect width="50" height="40.3846" fill="white" transform="translate(0 5)"/>
        </clipPath>
    </defs>
</svg>
