<svg width="50" height="50" viewBox="0 0 50 50" fill="none" xmlns="http://www.w3.org/2000/svg">
    <path d="M7.25146 42.5H5.50146V44.25H7.25146V42.5Z" fill="black"/>
    <path d="M9.00195 42.5H7.25195V44.25H9.00195V42.5Z" fill="black"/>
    <path d="M10.752 42.5H9.00195V44.25H10.752V42.5Z" fill="black"/>
    <path d="M12.5015 42.5H10.7515V44.25H12.5015V42.5Z" fill="black"/>
    <path d="M14.252 42.5H12.502V44.25H14.252V42.5Z" fill="black"/>
    <path d="M16.002 42.5H14.252V44.25H16.002V42.5Z" fill="black"/>
    <path d="M17.7515 42.5H16.0015V44.25H17.7515V42.5Z" fill="black"/>
    <path d="M19.502 42.5H17.752V44.25H19.502V42.5Z" fill="black"/>
    <path d="M21.2515 42.5H19.5015V44.25H21.2515V42.5Z" fill="black"/>
    <path d="M23.0015 42.5H21.2515V44.25H23.0015V42.5Z" fill="black"/>
    <path d="M24.752 42.5H23.002V44.25H24.752V42.5Z" fill="black"/>
    <path d="M26.5015 42.5H24.7515V44.25H26.5015V42.5Z" fill="black"/>
    <path d="M28.252 42.5H26.502V44.25H28.252V42.5Z" fill="black"/>
    <path d="M30.002 42.5H28.252V44.25H30.002V42.5Z" fill="black"/>
    <path d="M31.7515 42.5H30.0015V44.25H31.7515V42.5Z" fill="black"/>
    <path d="M33.502 42.5H31.752V44.25H33.502V42.5Z" fill="black"/>
    <path d="M35.252 42.5H33.502V44.25H35.252V42.5Z" fill="black"/>
    <path d="M37.0015 42.5H35.2515V44.25H37.0015V42.5Z" fill="black"/>
    <path d="M38.752 42.5H37.002V44.25H38.752V42.5Z" fill="black"/>
    <path d="M40.5015 42.5H38.7515V44.25H40.5015V42.5Z" fill="black"/>
    <path d="M42.2515 42.5H40.5015V44.25H42.2515V42.5Z" fill="black"/>
    <path d="M44.002 42.5H42.252V44.25H44.002V42.5Z" fill="black"/>
    <path d="M45.7515 40.75H44.0015V42.5H45.7515V40.75Z" fill="black"/>
    <path d="M45.7515 39H44.0015V40.75H45.7515V39Z" fill="black"/>
    <path d="M44.002 37.25H42.252V39H44.002V37.25Z" fill="black"/>
    <path d="M44.002 35.5H42.252V37.25H44.002V35.5Z" fill="black"/>
    <path d="M42.2515 33.75H40.5015V35.5H42.2515V33.75Z" fill="black"/>
    <path d="M42.2515 32H40.5015V33.75H42.2515V32Z" fill="black"/>
    <path d="M44.002 40.75H42.252V42.5H44.002V40.75Z" fill="#333333"/>
    <path d="M44.002 39H42.252V40.75H44.002V39Z" fill="#333333"/>
    <path d="M42.2515 40.75H40.5015V42.5H42.2515V40.75Z" fill="#333333"/>
    <path d="M42.2515 39H40.5015V40.75H42.2515V39Z" fill="#333333"/>
    <path d="M40.5015 40.75H38.7515V42.5H40.5015V40.75Z" fill="#333333"/>
    <path d="M40.5015 39H38.7515V40.75H40.5015V39Z" fill="#333333"/>
    <path d="M38.752 40.75H37.002V42.5H38.752V40.75Z" fill="#333333"/>
    <path d="M38.752 39H37.002V40.75H38.752V39Z" fill="#333333"/>
    <path d="M37.0015 40.75H35.2515V42.5H37.0015V40.75Z" fill="#333333"/>
    <path d="M37.0015 39H35.2515V40.75H37.0015V39Z" fill="#333333"/>
    <path d="M35.252 40.75H33.502V42.5H35.252V40.75Z" fill="#333333"/>
    <path d="M35.252 39H33.502V40.75H35.252V39Z" fill="#333333"/>
    <path d="M33.502 40.75H31.752V42.5H33.502V40.75Z" fill="#333333"/>
    <path d="M33.502 39H31.752V40.75H33.502V39Z" fill="#333333"/>
    <path d="M31.7515 40.75H30.0015V42.5H31.7515V40.75Z" fill="#333333"/>
    <path d="M31.7515 39H30.0015V40.75H31.7515V39Z" fill="#333333"/>
    <path d="M30.002 40.75H28.252V42.5H30.002V40.75Z" fill="#333333"/>
    <path d="M30.002 39H28.252V40.75H30.002V39Z" fill="#333333"/>
    <path d="M28.252 40.75H26.502V42.5H28.252V40.75Z" fill="#333333"/>
    <path d="M28.252 39H26.502V40.75H28.252V39Z" fill="#333333"/>
    <path d="M26.5015 40.75H24.7515V42.5H26.5015V40.75Z" fill="#333333"/>
    <path d="M26.5015 39H24.7515V40.75H26.5015V39Z" fill="#333333"/>
    <path d="M24.752 40.75H23.002V42.5H24.752V40.75Z" fill="#333333"/>
    <path d="M24.752 39H23.002V40.75H24.752V39Z" fill="#333333"/>
    <path d="M23.0015 40.75H21.2515V42.5H23.0015V40.75Z" fill="#333333"/>
    <path d="M23.0015 39H21.2515V40.75H23.0015V39Z" fill="#333333"/>
    <path d="M21.2515 40.75H19.5015V42.5H21.2515V40.75Z" fill="#333333"/>
    <path d="M21.2515 39H19.5015V40.75H21.2515V39Z" fill="#333333"/>
    <path d="M19.502 40.75H17.752V42.5H19.502V40.75Z" fill="#333333"/>
    <path d="M19.502 39H17.752V40.75H19.502V39Z" fill="#333333"/>
    <path d="M17.7515 40.75H16.0015V42.5H17.7515V40.75Z" fill="#333333"/>
    <path d="M17.7515 39H16.0015V40.75H17.7515V39Z" fill="#333333"/>
    <path d="M16.002 40.75H14.252V42.5H16.002V40.75Z" fill="#333333"/>
    <path d="M16.002 39H14.252V40.75H16.002V39Z" fill="#333333"/>
    <path d="M14.252 40.75H12.502V42.5H14.252V40.75Z" fill="#333333"/>
    <path d="M14.252 39H12.502V40.75H14.252V39Z" fill="#333333"/>
    <path d="M12.5015 40.75H10.7515V42.5H12.5015V40.75Z" fill="#333333"/>
    <path d="M12.5015 39H10.7515V40.75H12.5015V39Z" fill="#333333"/>
    <path d="M10.752 40.75H9.00195V42.5H10.752V40.75Z" fill="#333333"/>
    <path d="M10.752 39H9.00195V40.75H10.752V39Z" fill="#333333"/>
    <path d="M9.00195 40.75H7.25195V42.5H9.00195V40.75Z" fill="#333333"/>
    <path d="M9.00195 39H7.25195V40.75H9.00195V39Z" fill="#333333"/>
    <path d="M42.2515 37.25H40.5015V39H42.2515V37.25Z" fill="#333333"/>
    <path d="M42.2515 35.5H40.5015V37.25H42.2515V35.5Z" fill="#333333"/>
    <path d="M40.5015 37.25H38.7515V39H40.5015V37.25Z" fill="#CCCCCC"/>
    <path d="M40.5015 35.5H38.7515V37.25H40.5015V35.5Z" fill="#333333"/>
    <path d="M38.752 37.25H37.002V39H38.752V37.25Z" fill="#CCCCCC"/>
    <path d="M38.752 35.5H37.002V37.25H38.752V35.5Z" fill="#333333"/>
    <path d="M37.0015 37.25H35.2515V39H37.0015V37.25Z" fill="#CCCCCC"/>
    <path d="M37.0015 35.5H35.2515V37.25H37.0015V35.5Z" fill="#333333"/>
    <path d="M35.252 37.25H33.502V39H35.252V37.25Z" fill="#333333"/>
    <path d="M35.252 35.5H33.502V37.25H35.252V35.5Z" fill="#333333"/>
    <path d="M33.502 37.25H31.752V39H33.502V37.25Z" fill="#CCCCCC"/>
    <path d="M33.502 35.5H31.752V37.25H33.502V35.5Z" fill="#333333"/>
    <path d="M31.7515 37.25H30.0015V39H31.7515V37.25Z" fill="#CCCCCC"/>
    <path d="M31.7515 35.5H30.0015V37.25H31.7515V35.5Z" fill="#333333"/>
    <path d="M30.002 37.25H28.252V39H30.002V37.25Z" fill="#333333"/>
    <path d="M30.002 35.5H28.252V37.25H30.002V35.5Z" fill="#333333"/>
    <path d="M28.252 37.25H26.502V39H28.252V37.25Z" fill="#CCCCCC"/>
    <path d="M28.252 35.5H26.502V37.25H28.252V35.5Z" fill="#333333"/>
    <path d="M26.5015 37.25H24.7515V39H26.5015V37.25Z" fill="#CCCCCC"/>
    <path d="M26.5015 35.5H24.7515V37.25H26.5015V35.5Z" fill="#333333"/>
    <path d="M24.752 37.25H23.002V39H24.752V37.25Z" fill="#333333"/>
    <path d="M24.752 35.5H23.002V37.25H24.752V35.5Z" fill="#333333"/>
    <path d="M23.0015 37.25H21.2515V39H23.0015V37.25Z" fill="#CCCCCC"/>
    <path d="M23.0015 35.5H21.2515V37.25H23.0015V35.5Z" fill="#333333"/>
    <path d="M21.2515 37.25H19.5015V39H21.2515V37.25Z" fill="#CCCCCC"/>
    <path d="M21.2515 35.5H19.5015V37.25H21.2515V35.5Z" fill="#333333"/>
    <path d="M19.502 37.25H17.752V39H19.502V37.25Z" fill="#333333"/>
    <path d="M19.502 35.5H17.752V37.25H19.502V35.5Z" fill="#333333"/>
    <path d="M17.7515 37.25H16.0015V39H17.7515V37.25Z" fill="#CCCCCC"/>
    <path d="M17.7515 35.5H16.0015V37.25H17.7515V35.5Z" fill="#333333"/>
    <path d="M16.002 37.25H14.252V39H16.002V37.25Z" fill="#CCCCCC"/>
    <path d="M16.002 35.5H14.252V37.25H16.002V35.5Z" fill="#333333"/>
    <path d="M14.252 37.25H12.502V39H14.252V37.25Z" fill="#333333"/>
    <path d="M14.252 35.5H12.502V37.25H14.252V35.5Z" fill="#333333"/>
    <path d="M12.5015 37.25H10.7515V39H12.5015V37.25Z" fill="#CCCCCC"/>
    <path d="M12.5015 35.5H10.7515V37.25H12.5015V35.5Z" fill="#333333"/>
    <path d="M10.752 37.25H9.00195V39H10.752V37.25Z" fill="#CCCCCC"/>
    <path d="M10.752 35.5H9.00195V37.25H10.752V35.5Z" fill="#333333"/>
    <path d="M40.5015 33.75H38.7515V35.5H40.5015V33.75Z" fill="#333333"/>
    <path d="M40.5015 32H38.7515V33.75H40.5015V32Z" fill="#333333"/>
    <path d="M38.752 33.75H37.002V35.5H38.752V33.75Z" fill="#CCCCCC"/>
    <path d="M38.752 32H37.002V33.75H38.752V32Z" fill="#333333"/>
    <path d="M38.752 30.25H37.002V32H38.752V30.25Z" fill="#333333"/>
    <path d="M38.752 28.5H37.002V30.25H38.752V28.5Z" fill="#333333"/>
    <path d="M37.0015 30.25H35.2515V32H37.0015V30.25Z" fill="#CCCCCC"/>
    <path d="M37.0015 28.5H35.2515V30.25H37.0015V28.5Z" fill="#333333"/>
    <path d="M35.252 30.25H33.502V32H35.252V30.25Z" fill="#CCCCCC"/>
    <path d="M35.252 28.5H33.502V30.25H35.252V28.5Z" fill="#333333"/>
    <path d="M33.502 30.25H31.752V32H33.502V30.25Z" fill="#333333"/>
    <path d="M33.502 28.5H31.752V30.25H33.502V28.5Z" fill="#333333"/>
    <path d="M31.7515 30.25H30.0015V32H31.7515V30.25Z" fill="#CCCCCC"/>
    <path d="M31.7515 28.5H30.0015V30.25H31.7515V28.5Z" fill="#333333"/>
    <path d="M30.002 30.25H28.252V32H30.002V30.25Z" fill="#CCCCCC"/>
    <path d="M30.002 28.5H28.252V30.25H30.002V28.5Z" fill="#333333"/>
    <path d="M28.252 30.25H26.502V32H28.252V30.25Z" fill="#333333"/>
    <path d="M28.252 28.5H26.502V30.25H28.252V28.5Z" fill="#333333"/>
    <path d="M26.5015 30.25H24.7515V32H26.5015V30.25Z" fill="#CCCCCC"/>
    <path d="M26.5015 28.5H24.7515V30.25H26.5015V28.5Z" fill="#333333"/>
    <path d="M24.752 30.25H23.002V32H24.752V30.25Z" fill="#CCCCCC"/>
    <path d="M24.752 28.5H23.002V30.25H24.752V28.5Z" fill="#333333"/>
    <path d="M23.0015 30.25H21.2515V32H23.0015V30.25Z" fill="#333333"/>
    <path d="M23.0015 28.5H21.2515V30.25H23.0015V28.5Z" fill="#333333"/>
    <path d="M21.2515 30.25H19.5015V32H21.2515V30.25Z" fill="#CCCCCC"/>
    <path d="M21.2515 28.5H19.5015V30.25H21.2515V28.5Z" fill="#333333"/>
    <path d="M19.502 30.25H17.752V32H19.502V30.25Z" fill="#CCCCCC"/>
    <path d="M19.502 28.5H17.752V30.25H19.502V28.5Z" fill="#333333"/>
    <path d="M17.7515 30.25H16.0015V32H17.7515V30.25Z" fill="#333333"/>
    <path d="M17.7515 28.5H16.0015V30.25H17.7515V28.5Z" fill="#333333"/>
    <path d="M16.002 30.25H14.252V32H16.002V30.25Z" fill="#CCCCCC"/>
    <path d="M16.002 28.5H14.252V30.25H16.002V28.5Z" fill="#333333"/>
    <path d="M14.252 30.25H12.502V32H14.252V30.25Z" fill="#CCCCCC"/>
    <path d="M14.252 28.5H12.502V30.25H14.252V28.5Z" fill="#333333"/>
    <path d="M37.0015 33.75H35.2515V35.5H37.0015V33.75Z" fill="#CCCCCC"/>
    <path d="M37.0015 32H35.2515V33.75H37.0015V32Z" fill="#333333"/>
    <path d="M35.252 33.75H33.502V35.5H35.252V33.75Z" fill="#CCCCCC"/>
    <path d="M35.252 32H33.502V33.75H35.252V32Z" fill="#333333"/>
    <path d="M33.502 33.75H31.752V35.5H33.502V33.75Z" fill="#CCCCCC"/>
    <path d="M33.502 32H31.752V33.75H33.502V32Z" fill="#333333"/>
    <path d="M31.7515 33.75H30.0015V35.5H31.7515V33.75Z" fill="#333333"/>
    <path d="M31.7515 32H30.0015V33.75H31.7515V32Z" fill="#333333"/>
    <path d="M30.002 33.75H28.252V35.5H30.002V33.75Z" fill="#CCCCCC"/>
    <path d="M30.002 32H28.252V33.75H30.002V32Z" fill="#333333"/>
    <path d="M28.252 33.75H26.502V35.5H28.252V33.75Z" fill="#CCCCCC"/>
    <path d="M28.252 32H26.502V33.75H28.252V32Z" fill="#333333"/>
    <path d="M26.5015 33.75H24.7515V35.5H26.5015V33.75Z" fill="#333333"/>
    <path d="M26.5015 32H24.7515V33.75H26.5015V32Z" fill="#333333"/>
    <path d="M24.752 33.75H23.002V35.5H24.752V33.75Z" fill="#CCCCCC"/>
    <path d="M24.752 32H23.002V33.75H24.752V32Z" fill="#333333"/>
    <path d="M23.0015 33.75H21.2515V35.5H23.0015V33.75Z" fill="#CCCCCC"/>
    <path d="M23.0015 32H21.2515V33.75H23.0015V32Z" fill="#333333"/>
    <path d="M21.2515 33.75H19.5015V35.5H21.2515V33.75Z" fill="#333333"/>
    <path d="M21.2515 32H19.5015V33.75H21.2515V32Z" fill="#333333"/>
    <path d="M19.502 33.75H17.752V35.5H19.502V33.75Z" fill="#CCCCCC"/>
    <path d="M19.502 32H17.752V33.75H19.502V32Z" fill="#333333"/>
    <path d="M17.7515 33.75H16.0015V35.5H17.7515V33.75Z" fill="#CCCCCC"/>
    <path d="M17.7515 32H16.0015V33.75H17.7515V32Z" fill="#333333"/>
    <path d="M16.002 33.75H14.252V35.5H16.002V33.75Z" fill="#333333"/>
    <path d="M16.002 32H14.252V33.75H16.002V32Z" fill="#333333"/>
    <path d="M14.252 33.75H12.502V35.5H14.252V33.75Z" fill="#CCCCCC"/>
    <path d="M14.252 32H12.502V33.75H14.252V32Z" fill="#333333"/>
    <path d="M12.5015 33.75H10.7515V35.5H12.5015V33.75Z" fill="#CCCCCC"/>
    <path d="M12.5015 32H10.7515V33.75H12.5015V32Z" fill="#333333"/>
    <path d="M5.50195 40.75H3.75195V42.5H5.50195V40.75Z" fill="black"/>
    <path d="M5.50195 42.5H3.75195V44.25H5.50195V42.5Z" fill="white"/>
    <path d="M7.25146 44.25H5.50146V46H7.25146V44.25Z" fill="white"/>
    <path d="M5.50195 44.25H3.75195V46H5.50195V44.25Z" fill="white"/>
    <path d="M3.75 42.4971H2V44.2471H3.75V42.4971Z" fill="white"/>
    <path d="M3.75 40.75H2V42.5H3.75V40.75Z" fill="white"/>
    <path d="M3.75 39.002H2V40.752H3.75V39.002Z" fill="white"/>
    <path d="M3.75 37.25H2V39H3.75V37.25Z" fill="white"/>
    <path d="M5.50195 37.25H3.75195V39H5.50195V37.25Z" fill="white"/>
    <path d="M5.50195 35.5H3.75195V37.25H5.50195V35.5Z" fill="white"/>
    <path d="M7.25146 33.75H5.50146V35.5H7.25146V33.75Z" fill="white"/>
    <path d="M7.25146 32H5.50146V33.75H7.25146V32Z" fill="white"/>
    <path d="M9.00195 30.25H7.25195V32H9.00195V30.25Z" fill="white"/>
    <path d="M9.00195 28.5H7.25195V30.25H9.00195V28.5Z" fill="white"/>
    <path d="M9.00195 26.75H7.25195V28.5H9.00195V26.75Z" fill="white"/>
    <path d="M10.752 25H9.00195V26.75H10.752V25Z" fill="white"/>
    <path d="M9.00195 23.25H7.25195V25H9.00195V23.25Z" fill="white"/>
    <path d="M9.00195 21.5H7.25195V23.25H9.00195V21.5Z" fill="white"/>
    <path d="M10.752 19.75H9.00195V21.5H10.752V19.75Z" fill="white"/>
    <path d="M10.752 18H9.00195V19.75H10.752V18Z" fill="white"/>
    <path d="M10.752 16.25H9.00195V18H10.752V16.25Z" fill="white"/>
    <path d="M10.752 14.5H9.00195V16.25H10.752V14.5Z" fill="white"/>
    <path d="M10.752 12.75H9.00195V14.5H10.752V12.75Z" fill="white"/>
    <path d="M10.752 11H9.00195V12.75H10.752V11Z" fill="white"/>
    <path d="M12.5015 9.25H10.7515V11H12.5015V9.25Z" fill="white"/>
    <path d="M14.252 9.25H12.502V11H14.252V9.25Z" fill="white"/>
    <path d="M16.002 9.25H14.252V11H16.002V9.25Z" fill="white"/>
    <path d="M17.7515 9.25H16.0015V11H17.7515V9.25Z" fill="white"/>
    <path d="M19.502 9.25H17.752V11H19.502V9.25Z" fill="white"/>
    <path d="M17.7515 7.49561H16.0015V9.24561H17.7515V7.49561Z" fill="white"/>
    <path d="M16.001 7.49561H14.251V9.24561H16.001V7.49561Z" fill="white"/>
    <path d="M21.2515 9.25H19.5015V11H21.2515V9.25Z" fill="white"/>
    <path d="M23.0015 9.25H21.2515V11H23.0015V9.25Z" fill="white"/>
    <path d="M24.752 9.25H23.002V11H24.752V9.25Z" fill="white"/>
    <path d="M26.5015 9.25H24.7515V11H26.5015V9.25Z" fill="white"/>
    <path d="M28.252 9.25H26.502V11H28.252V9.25Z" fill="white"/>
    <path d="M30.002 9.25H28.252V11H30.002V9.25Z" fill="white"/>
    <path d="M31.7456 7.5H29.9956V9.25H31.7456V7.5Z" fill="white"/>
    <path d="M33.4971 5.74805H31.7471V7.49805H33.4971V5.74805Z" fill="white"/>
    <path d="M35.249 4H33.499V5.75H35.249V4Z" fill="white"/>
    <path d="M37.0015 4H35.2515V5.75H37.0015V4Z" fill="white"/>
    <path d="M38.752 5.75H37.002V7.5H38.752V5.75Z" fill="white"/>
    <path d="M37.0015 7.49463H35.2515V9.24463H37.0015V7.49463Z" fill="white"/>
    <path d="M31.7515 9.25H30.0015V11H31.7515V9.25Z" fill="white"/>
    <path d="M33.502 9.25H31.752V11H33.502V9.25Z" fill="white"/>
    <path d="M35.252 9.25H33.502V11H35.252V9.25Z" fill="white"/>
    <path d="M37.0015 9.25H35.2515V11H37.0015V9.25Z" fill="white"/>
    <path d="M38.752 9.25H37.002V11H38.752V9.25Z" fill="white"/>
    <path d="M40.5015 11H38.7515V12.75H40.5015V11Z" fill="white"/>
    <path d="M40.5015 12.75H38.7515V14.5H40.5015V12.75Z" fill="white"/>
    <path d="M40.5015 14.5H38.7515V16.25H40.5015V14.5Z" fill="white"/>
    <path d="M40.5015 16.25H38.7515V18H40.5015V16.25Z" fill="white"/>
    <path d="M40.5015 18H38.7515V19.75H40.5015V18Z" fill="white"/>
    <path d="M40.5015 19.75H38.7515V21.5H40.5015V19.75Z" fill="white"/>
    <path d="M42.2515 21.5H40.5015V23.25H42.2515V21.5Z" fill="white"/>
    <path d="M42.2515 23.25H40.5015V25H42.2515V23.25Z" fill="white"/>
    <path d="M40.5015 25H38.7515V26.75H40.5015V25Z" fill="white"/>
    <path d="M42.2515 26.75H40.5015V28.5H42.2515V26.75Z" fill="white"/>
    <path d="M42.2515 28.5H40.5015V30.25H42.2515V28.5Z" fill="white"/>
    <path d="M42.2515 30.25H40.5015V32H42.2515V30.25Z" fill="white"/>
    <path d="M44.002 32H42.252V33.75H44.002V32Z" fill="white"/>
    <path d="M44.002 33.75H42.252V35.5H44.002V33.75Z" fill="white"/>
    <path d="M45.7515 35.5H44.0015V37.25H45.7515V35.5Z" fill="white"/>
    <path d="M45.7515 37.25H44.0015V39H45.7515V37.25Z" fill="white"/>
    <path d="M47.502 37.25H45.752V39H47.502V37.25Z" fill="white"/>
    <path d="M47.502 39H45.752V40.75H47.502V39Z" fill="white"/>
    <path d="M47.502 40.75H45.752V42.5H47.502V40.75Z" fill="white"/>
    <path d="M47.502 42.5H45.752V44.25H47.502V42.5Z" fill="white"/>
    <path d="M45.7515 42.5H44.0015V44.25H45.7515V42.5Z" fill="white"/>
    <path d="M45.7515 44.25H44.0015V46H45.7515V44.25Z" fill="white"/>
    <path d="M44.002 44.25H42.252V46H44.002V44.25Z" fill="white"/>
    <path d="M42.2515 44.25H40.5015V46H42.2515V44.25Z" fill="white"/>
    <path d="M40.5015 44.25H38.7515V46H40.5015V44.25Z" fill="white"/>
    <path d="M38.752 44.25H37.002V46H38.752V44.25Z" fill="white"/>
    <path d="M37.0015 44.25H35.2515V46H37.0015V44.25Z" fill="white"/>
    <path d="M35.252 44.25H33.502V46H35.252V44.25Z" fill="white"/>
    <path d="M33.502 44.25H31.752V46H33.502V44.25Z" fill="white"/>
    <path d="M31.7515 44.25H30.0015V46H31.7515V44.25Z" fill="white"/>
    <path d="M30.002 44.25H28.252V46H30.002V44.25Z" fill="white"/>
    <path d="M28.252 44.25H26.502V46H28.252V44.25Z" fill="white"/>
    <path d="M26.5015 44.25H24.7515V46H26.5015V44.25Z" fill="white"/>
    <path d="M24.752 44.25H23.002V46H24.752V44.25Z" fill="white"/>
    <path d="M23.0015 44.25H21.2515V46H23.0015V44.25Z" fill="white"/>
    <path d="M21.2515 44.25H19.5015V46H21.2515V44.25Z" fill="white"/>
    <path d="M19.502 44.25H17.752V46H19.502V44.25Z" fill="white"/>
    <path d="M17.7515 44.25H16.0015V46H17.7515V44.25Z" fill="white"/>
    <path d="M16.002 44.25H14.252V46H16.002V44.25Z" fill="white"/>
    <path d="M14.252 44.25H12.502V46H14.252V44.25Z" fill="white"/>
    <path d="M12.5015 44.25H10.7515V46H12.5015V44.25Z" fill="white"/>
    <path d="M10.752 44.25H9.00195V46H10.752V44.25Z" fill="white"/>
    <path d="M9.00195 44.25H7.25195V46H9.00195V44.25Z" fill="white"/>
    <path d="M5.50195 39H3.75195V40.75H5.50195V39Z" fill="black"/>
    <path d="M7.25146 37.25H5.50146V39H7.25146V37.25Z" fill="black"/>
    <path d="M7.25146 35.5H5.50146V37.25H7.25146V35.5Z" fill="black"/>
    <path d="M9.00195 33.75H7.25195V35.5H9.00195V33.75Z" fill="black"/>
    <path d="M9.00195 32H7.25195V33.75H9.00195V32Z" fill="black"/>
    <path d="M7.25146 40.75H5.50146V42.5H7.25146V40.75Z" fill="#808080"/>
    <path d="M7.25146 39H5.50146V40.75H7.25146V39Z" fill="#808080"/>
    <path d="M9.00195 37.25H7.25195V39H9.00195V37.25Z" fill="#808080"/>
    <path d="M9.00195 35.5H7.25195V37.25H9.00195V35.5Z" fill="#808080"/>
    <path d="M10.752 33.75H9.00195V35.5H10.752V33.75Z" fill="#808080"/>
    <path d="M10.752 32H9.00195V33.75H10.752V32Z" fill="#808080"/>
    <path d="M12.5015 30.25H10.7515V32H12.5015V30.25Z" fill="#808080"/>
    <path d="M12.5015 28.5H10.7515V30.25H12.5015V28.5Z" fill="#808080"/>
    <path d="M12.5015 26.75H10.7515V28.5H12.5015V26.75Z" fill="#808080"/>
    <path d="M12.5015 21.5H10.7515V23.25H12.5015V21.5Z" fill="#808080"/>
    <path d="M14.252 21.5H12.502V23.25H14.252V21.5Z" fill="#808080"/>
    <path d="M16.002 21.5H14.252V23.25H16.002V21.5Z" fill="#808080"/>
    <path d="M17.7515 21.5H16.0015V23.25H17.7515V21.5Z" fill="#808080"/>
    <path d="M19.502 21.5H17.752V23.25H19.502V21.5Z" fill="#808080"/>
    <path d="M21.2515 21.5H19.5015V23.25H21.2515V21.5Z" fill="#808080"/>
    <path d="M23.0015 21.5H21.2515V23.25H23.0015V21.5Z" fill="#808080"/>
    <path d="M24.752 21.5H23.002V23.25H24.752V21.5Z" fill="#808080"/>
    <path d="M26.5015 21.5H24.7515V23.25H26.5015V21.5Z" fill="#808080"/>
    <path d="M28.252 21.5H26.502V23.25H28.252V21.5Z" fill="#808080"/>
    <path d="M30.002 21.5H28.252V23.25H30.002V21.5Z" fill="#808080"/>
    <path d="M31.7515 21.5H30.0015V23.25H31.7515V21.5Z" fill="#808080"/>
    <path d="M33.502 21.5H31.752V23.25H33.502V21.5Z" fill="#808080"/>
    <path d="M35.252 21.5H33.502V23.25H35.252V21.5Z" fill="#808080"/>
    <path d="M37.0015 21.5H35.2515V23.25H37.0015V21.5Z" fill="#808080"/>
    <path d="M38.752 21.5H37.002V23.25H38.752V21.5Z" fill="#808080"/>
    <path d="M38.752 23.25H37.002V25H38.752V23.25Z" fill="#4D4D4D"/>
    <path d="M37.0015 23.25H35.2515V25H37.0015V23.25Z" fill="#4D4D4D"/>
    <path d="M35.252 23.25H33.502V25H35.252V23.25Z" fill="#4D4D4D"/>
    <path d="M33.502 23.25H31.752V25H33.502V23.25Z" fill="#4D4D4D"/>
    <path d="M31.7515 23.25H30.0015V25H31.7515V23.25Z" fill="#4D4D4D"/>
    <path d="M30.002 23.25H28.252V25H30.002V23.25Z" fill="#4D4D4D"/>
    <path d="M28.252 23.25H26.502V25H28.252V23.25Z" fill="#4D4D4D"/>
    <path d="M26.5015 23.25H24.7515V25H26.5015V23.25Z" fill="#4D4D4D"/>
    <path d="M24.752 23.25H23.002V25H24.752V23.25Z" fill="#4D4D4D"/>
    <path d="M23.0015 23.25H21.2515V25H23.0015V23.25Z" fill="#4D4D4D"/>
    <path d="M21.2515 23.25H19.5015V25H21.2515V23.25Z" fill="#4D4D4D"/>
    <path d="M19.502 23.25H17.752V25H19.502V23.25Z" fill="#4D4D4D"/>
    <path d="M17.7515 23.25H16.0015V25H17.7515V23.25Z" fill="#4D4D4D"/>
    <path d="M16.002 23.25H14.252V25H16.002V23.25Z" fill="#4D4D4D"/>
    <path d="M14.252 23.25H12.502V25H14.252V23.25Z" fill="#4D4D4D"/>
    <path d="M12.5015 23.25H10.7515V25H12.5015V23.25Z" fill="#4D4D4D"/>
    <path d="M14.252 26.75H12.502V28.5H14.252V26.75Z" fill="#808080"/>
    <path d="M16.002 26.75H14.252V28.5H16.002V26.75Z" fill="#808080"/>
    <path d="M17.7515 26.75H16.0015V28.5H17.7515V26.75Z" fill="#808080"/>
    <path d="M19.502 26.75H17.752V28.5H19.502V26.75Z" fill="#808080"/>
    <path d="M21.2515 26.75H19.5015V28.5H21.2515V26.75Z" fill="#808080"/>
    <path d="M23.0015 26.75H21.2515V28.5H23.0015V26.75Z" fill="#808080"/>
    <path d="M24.752 26.75H23.002V28.5H24.752V26.75Z" fill="#808080"/>
    <path d="M26.5015 26.75H24.7515V28.5H26.5015V26.75Z" fill="#808080"/>
    <path d="M28.252 26.75H26.502V28.5H28.252V26.75Z" fill="#808080"/>
    <path d="M30.002 26.75H28.252V28.5H30.002V26.75Z" fill="#808080"/>
    <path d="M31.7515 26.75H30.0015V28.5H31.7515V26.75Z" fill="#808080"/>
    <path d="M33.502 26.75H31.752V28.5H33.502V26.75Z" fill="#808080"/>
    <path d="M35.252 26.75H33.502V28.5H35.252V26.75Z" fill="#808080"/>
    <path d="M37.0015 26.75H35.2515V28.5H37.0015V26.75Z" fill="#808080"/>
    <path d="M38.752 26.75H37.002V28.5H38.752V26.75Z" fill="#808080"/>
    <path d="M10.752 30.25H9.00195V32H10.752V30.25Z" fill="black"/>
    <path d="M10.752 28.5H9.00195V30.25H10.752V28.5Z" fill="black"/>
    <path d="M10.752 26.75H9.00195V28.5H10.752V26.75Z" fill="black"/>
    <path d="M40.5015 30.25H38.7515V32H40.5015V30.25Z" fill="black"/>
    <path d="M40.5015 28.5H38.7515V30.25H40.5015V28.5Z" fill="black"/>
    <path d="M40.5015 26.75H38.7515V28.5H40.5015V26.75Z" fill="black"/>
    <path d="M38.752 25H37.002V26.75H38.752V25Z" fill="black"/>
    <path d="M40.5015 23.25H38.7515V25H40.5015V23.25Z" fill="black"/>
    <path d="M40.5015 21.5H38.7515V23.25H40.5015V21.5Z" fill="black"/>
    <path d="M38.752 19.75H37.002V21.5H38.752V19.75Z" fill="black"/>
    <path d="M38.752 18H37.002V19.75H38.752V18Z" fill="black"/>
    <path d="M37.0015 25H35.2515V26.75H37.0015V25Z" fill="black"/>
    <path d="M35.252 25H33.502V26.75H35.252V25Z" fill="black"/>
    <path d="M33.502 25H31.752V26.75H33.502V25Z" fill="black"/>
    <path d="M31.7515 25H30.0015V26.75H31.7515V25Z" fill="black"/>
    <path d="M30.002 25H28.252V26.75H30.002V25Z" fill="black"/>
    <path d="M28.252 25H26.502V26.75H28.252V25Z" fill="black"/>
    <path d="M26.5015 25H24.7515V26.75H26.5015V25Z" fill="black"/>
    <path d="M24.752 25H23.002V26.75H24.752V25Z" fill="black"/>
    <path d="M23.0015 25H21.2515V26.75H23.0015V25Z" fill="black"/>
    <path d="M21.2515 25H19.5015V26.75H21.2515V25Z" fill="black"/>
    <path d="M19.502 25H17.752V26.75H19.502V25Z" fill="black"/>
    <path d="M17.7515 25H16.0015V26.75H17.7515V25Z" fill="black"/>
    <path d="M16.002 25H14.252V26.75H16.002V25Z" fill="black"/>
    <path d="M14.252 25H12.502V26.75H14.252V25Z" fill="black"/>
    <path d="M12.5015 25H10.7515V26.75H12.5015V25Z" fill="black"/>
    <path d="M10.752 23.25H9.00195V25H10.752V23.25Z" fill="black"/>
    <path d="M10.752 21.5H9.00195V23.25H10.752V21.5Z" fill="black"/>
    <path d="M12.5015 19.75H10.7515V21.5H12.5015V19.75Z" fill="black"/>
    <path d="M14.252 19.75H12.502V21.5H14.252V19.75Z" fill="#C9CFDF"/>
    <path d="M16.002 19.75H14.252V21.5H16.002V19.75Z" fill="#C9CFDF"/>
    <path d="M17.7515 19.75H16.0015V21.5H17.7515V19.75Z" fill="#C9CFDF"/>
    <path d="M19.502 19.75H17.752V21.5H19.502V19.75Z" fill="#C9CFDF"/>
    <path d="M21.2515 19.75H19.5015V21.5H21.2515V19.75Z" fill="#C9CFDF"/>
    <path d="M23.0015 19.75H21.2515V21.5H23.0015V19.75Z" fill="#C9CFDF"/>
    <path d="M24.752 19.75H23.002V21.5H24.752V19.75Z" fill="#C9CFDF"/>
    <path d="M26.5015 19.75H24.7515V21.5H26.5015V19.75Z" fill="#C9CFDF"/>
    <path d="M28.252 19.75H26.502V21.5H28.252V19.75Z" fill="#C9CFDF"/>
    <path d="M30.002 19.75H28.252V21.5H30.002V19.75Z" fill="#C9CFDF"/>
    <path d="M31.7515 19.75H30.0015V21.5H31.7515V19.75Z" fill="#C9CFDF"/>
    <path d="M33.502 19.75H31.752V21.5H33.502V19.75Z" fill="#C9CFDF"/>
    <path d="M35.252 19.75H33.502V21.5H35.252V19.75Z" fill="#C9CFDF"/>
    <path d="M37.0015 19.75H35.2515V21.5H37.0015V19.75Z" fill="#C9CFDF"/>
    <path d="M14.252 18H12.502V19.75H14.252V18Z" fill="#DDE4EE"/>
    <path d="M16.002 18H14.252V19.75H16.002V18Z" fill="#DDE4EE"/>
    <path d="M17.7515 18H16.0015V19.75H17.7515V18Z" fill="#DDE4EE"/>
    <path d="M19.502 18H17.752V19.75H19.502V18Z" fill="#DDE4EE"/>
    <path d="M21.2515 18H19.5015V19.75H21.2515V18Z" fill="#DDE4EE"/>
    <path d="M23.0015 18H21.2515V19.75H23.0015V18Z" fill="#DDE4EE"/>
    <path d="M24.752 18H23.002V19.75H24.752V18Z" fill="#DDE4EE"/>
    <path d="M26.5015 18H24.7515V19.75H26.5015V18Z" fill="#DDE4EE"/>
    <path d="M28.252 18H26.502V19.75H28.252V18Z" fill="#DDE4EE"/>
    <path d="M30.002 18H28.252V19.75H30.002V18Z" fill="#DDE4EE"/>
    <path d="M31.7515 18H30.0015V19.75H31.7515V18Z" fill="#DDE4EE"/>
    <path d="M33.502 18H31.752V19.75H33.502V18Z" fill="#DDE4EE"/>
    <path d="M35.252 18H33.502V19.75H35.252V18Z" fill="#DDE4EE"/>
    <path d="M37.0015 18H35.2515V19.75H37.0015V18Z" fill="#DDE4EE"/>
    <path d="M14.252 16.25H12.502V18H14.252V16.25Z" fill="#F1F2F7"/>
    <path d="M16.002 16.25H14.252V18H16.002V16.25Z" fill="#F1F2F7"/>
    <path d="M17.7515 16.25H16.0015V18H17.7515V16.25Z" fill="#F1F2F7"/>
    <path d="M19.502 16.25H17.752V18H19.502V16.25Z" fill="#F1F2F7"/>
    <path d="M21.2515 16.25H19.5015V18H21.2515V16.25Z" fill="#F1F2F7"/>
    <path d="M23.0015 16.25H21.2515V18H23.0015V16.25Z" fill="#F1F2F7"/>
    <path d="M24.752 16.25H23.002V18H24.752V16.25Z" fill="#F1F2F7"/>
    <path d="M26.5015 16.25H24.7515V18H26.5015V16.25Z" fill="#F1F2F7"/>
    <path d="M28.252 16.25H26.502V18H28.252V16.25Z" fill="#F1F2F7"/>
    <path d="M30.002 16.25H28.252V18H30.002V16.25Z" fill="#F1F2F7"/>
    <path d="M31.7515 16.25H30.0015V18H31.7515V16.25Z" fill="#F1F2F7"/>
    <path d="M33.502 16.25H31.752V18H33.502V16.25Z" fill="#F1F2F7"/>
    <path d="M35.252 16.25H33.502V18H35.252V16.25Z" fill="#F1F2F7"/>
    <path d="M37.0015 16.25H35.2515V18H37.0015V16.25Z" fill="#F1F2F7"/>
    <path d="M14.252 14.5H12.502V16.25H14.252V14.5Z" fill="#F1F2F7"/>
    <path d="M16.002 14.5H14.252V16.25H16.002V14.5Z" fill="#F1F2F7"/>
    <path d="M17.7515 14.5H16.0015V16.25H17.7515V14.5Z" fill="#F1F2F7"/>
    <path d="M19.502 14.5H17.752V16.25H19.502V14.5Z" fill="#F1F2F7"/>
    <path d="M21.2515 14.5H19.5015V16.25H21.2515V14.5Z" fill="#F1F2F7"/>
    <path d="M23.0015 14.5H21.2515V16.25H23.0015V14.5Z" fill="#F1F2F7"/>
    <path d="M24.752 14.5H23.002V16.25H24.752V14.5Z" fill="#F1F2F7"/>
    <path d="M26.5015 14.5H24.7515V16.25H26.5015V14.5Z" fill="#F1F2F7"/>
    <path d="M28.252 14.5H26.502V16.25H28.252V14.5Z" fill="#F1F2F7"/>
    <path d="M30.002 14.5H28.252V16.25H30.002V14.5Z" fill="#F1F2F7"/>
    <path d="M31.7515 14.5H30.0015V16.25H31.7515V14.5Z" fill="#F1F2F7"/>
    <path d="M33.502 14.5H31.752V16.25H33.502V14.5Z" fill="#F1F2F7"/>
    <path d="M35.252 14.5H33.502V16.25H35.252V14.5Z" fill="#F1F2F7"/>
    <path d="M37.0015 14.5H35.2515V16.25H37.0015V14.5Z" fill="#F1F2F7"/>
    <path d="M14.252 12.75H12.502V14.5H14.252V12.75Z" fill="#F1F2F7"/>
    <path d="M16.002 12.75H14.252V14.5H16.002V12.75Z" fill="#F1F2F7"/>
    <path d="M17.7515 12.75H16.0015V14.5H17.7515V12.75Z" fill="#F1F2F7"/>
    <path d="M19.502 12.75H17.752V14.5H19.502V12.75Z" fill="#F1F2F7"/>
    <path d="M21.2515 12.75H19.5015V14.5H21.2515V12.75Z" fill="#F1F2F7"/>
    <path d="M23.0015 12.75H21.2515V14.5H23.0015V12.75Z" fill="#F1F2F7"/>
    <path d="M24.752 12.75H23.002V14.5H24.752V12.75Z" fill="#F1F2F7"/>
    <path d="M26.5015 12.75H24.7515V14.5H26.5015V12.75Z" fill="#F1F2F7"/>
    <path d="M28.252 12.75H26.502V14.5H28.252V12.75Z" fill="#F1F2F7"/>
    <path d="M30.002 12.75H28.252V14.5H30.002V12.75Z" fill="#F1F2F7"/>
    <path d="M31.7515 12.75H30.0015V14.5H31.7515V12.75Z" fill="#F1F2F7"/>
    <path d="M33.502 12.75H31.752V14.5H33.502V12.75Z" fill="#F1F2F7"/>
    <path d="M35.252 12.75H33.502V14.5H35.252V12.75Z" fill="#F1F2F7"/>
    <path d="M37.0015 12.75H35.2515V14.5H37.0015V12.75Z" fill="#F1F2F7"/>
    <path d="M12.5015 18H10.7515V19.75H12.5015V18Z" fill="black"/>
    <path d="M38.752 16.25H37.002V18H38.752V16.25Z" fill="black"/>
    <path d="M12.5015 16.25H10.7515V18H12.5015V16.25Z" fill="black"/>
    <path d="M38.752 14.5H37.002V16.25H38.752V14.5Z" fill="black"/>
    <path d="M12.5015 14.5H10.7515V16.25H12.5015V14.5Z" fill="black"/>
    <path d="M38.752 12.75H37.002V14.5H38.752V12.75Z" fill="black"/>
    <path d="M12.5015 12.75H10.7515V14.5H12.5015V12.75Z" fill="black"/>
    <path d="M38.752 11H37.002V12.75H38.752V11Z" fill="black"/>
    <path d="M37.0015 11H35.2515V12.75H37.0015V11Z" fill="black"/>
    <path d="M35.252 11H33.502V12.75H35.252V11Z" fill="black"/>
    <path d="M33.502 11H31.752V12.75H33.502V11Z" fill="black"/>
    <path d="M31.7515 11H30.0015V12.75H31.7515V11Z" fill="black"/>
    <path d="M30.002 11H28.252V12.75H30.002V11Z" fill="black"/>
    <path d="M28.252 11H26.502V12.75H28.252V11Z" fill="black"/>
    <path d="M26.5015 11H24.7515V12.75H26.5015V11Z" fill="black"/>
    <path d="M24.752 11H23.002V12.75H24.752V11Z" fill="black"/>
    <path d="M23.0015 11H21.2515V12.75H23.0015V11Z" fill="black"/>
    <path d="M21.2515 11H19.5015V12.75H21.2515V11Z" fill="black"/>
    <path d="M19.502 11H17.752V12.75H19.502V11Z" fill="black"/>
    <path d="M17.7515 11H16.0015V12.75H17.7515V11Z" fill="black"/>
    <path d="M16.002 11H14.252V12.75H16.002V11Z" fill="black"/>
    <path d="M14.252 11H12.502V12.75H14.252V11Z" fill="black"/>
    <path d="M12.5015 11H10.7515V12.75H12.5015V11Z" fill="black"/>
    <path d="M35.2498 5.74756H33.498V7.49931H35.2498V5.74756Z" fill="#49CE58"/>
    <path d="M37.0017 5.74756H35.25V7.49931H37.0017V5.74756Z" fill="#39A84A"/>
    <path d="M33.4983 7.49902H31.7466V9.25077H33.4983V7.49902Z" fill="#49CE58"/>
    <path d="M31.7464 9.25098H29.9946V11.0027H31.7464V9.25098Z" fill="#49CE58"/>
    <path d="M35.2498 7.49365H33.498V9.2454H35.2498V7.49365Z" fill="#39A84A"/>
    <path d="M33.4983 9.24561H31.7466V10.9974H33.4983V9.24561Z" fill="#39A84A"/>
    <path d="M31.7464 10.9976H29.9946V12.7493H31.7464V10.9976Z" fill="#39A84A"/>
    <path d="M19.5022 11.0034H17.7505V12.7552H19.5022V11.0034Z" fill="#49CE58"/>
    <path d="M17.7517 11.0034H16V12.7552H17.7517V11.0034Z" fill="#39A84A"/>
    <path d="M17.7517 9.24561H16V10.9974H17.7517V9.24561Z" fill="#49CE58"/>
    <path d="M16.0017 9.24561H14.25V10.9974H16.0017V9.24561Z" fill="#39A84A"/>
    <path d="M26.5017 16.248H24.75V17.9998H26.5017V16.248Z" fill="#39A84A"/>
    <path d="M24.7493 18.001H22.9976V19.7527H24.7493V18.001Z" fill="#39A84A"/>
    <path d="M28.2517 14.4966H26.5V16.2483H28.2517V14.4966Z" fill="#39A84A"/>
    <path d="M30.0052 12.7554H28.2534V14.5071H30.0052V12.7554Z" fill="#39A84A"/>
    <path d="M30.0042 11.0034H28.2524V12.7552H30.0042V11.0034Z" fill="#49CE58"/>
    <path d="M21.2557 12.7554H19.5039V14.5071H21.2557V12.7554Z" fill="#49CE58"/>
    <path d="M28.2527 12.7554H26.501V14.5071H28.2527V12.7554Z" fill="#49CE58"/>
    <path d="M22.9969 14.4966H21.2451V16.2483H22.9969V14.4966Z" fill="#49CE58"/>
    <path d="M19.5022 12.75H17.7505V14.5017H19.5022V12.75Z" fill="#39A84A"/>
    <path d="M21.2557 14.502H19.5039V16.2537H21.2557V14.502Z" fill="#39A84A"/>
    <path d="M22.9969 16.2441H21.2451V17.9959H22.9969V16.2441Z" fill="#39A84A"/>
    <path d="M26.5008 14.4966H24.749V16.2483H26.5008V14.4966Z" fill="#49CE58"/>
    <path d="M24.7493 16.248H22.9976V17.9998H24.7493V16.248Z" fill="#49CE58"/>
</svg>
