<svg width="50" height="50" viewBox="0 0 50 50" fill="none" xmlns="http://www.w3.org/2000/svg">
    <path d="M22.6666 6.69678H20.3333V9.03011H22.6666V6.69678Z" fill="black"/>
    <path d="M25.0001 6.69678H22.6667V9.03011H25.0001V6.69678Z" fill="black"/>
    <path d="M27.3333 6.69678H25V9.03011H27.3333V6.69678Z" fill="black"/>
    <path d="M29.6667 6.69678H27.3334V9.03011H29.6667V6.69678Z" fill="black"/>
    <path d="M22.6666 41.6973H20.3333V44.0306H22.6666V41.6973Z" fill="black"/>
    <path d="M25.0001 41.6973H22.6667V44.0306H25.0001V41.6973Z" fill="black"/>
    <path d="M27.3333 41.6973H25V44.0306H27.3333V41.6973Z" fill="black"/>
    <path d="M29.6667 41.6973H27.3334V44.0306H29.6667V41.6973Z" fill="black"/>
    <path d="M8.66658 20.6973H6.33325V23.0306H8.66658V20.6973Z" fill="black"/>
    <path d="M8.66658 23.0303H6.33325V25.3636H8.66658V23.0303Z" fill="black"/>
    <path d="M11 16.0308H8.66663V18.3641H11V16.0308Z" fill="black"/>
    <path d="M15.6667 16.0308H11V20.6974H15.6667V16.0308Z" fill="#FFA219"/>
    <path d="M15.6667 30.0303H11V34.6969H15.6667V30.0303Z" fill="#FFA219"/>
    <path d="M13.3333 13.6968H11V16.0301H13.3333V13.6968Z" fill="black"/>
    <path d="M15.6667 13.6968H13.3334V16.0301H15.6667V13.6968Z" fill="black"/>
    <path d="M18 16.0308H15.6666V18.3641H18V16.0308Z" fill="black"/>
    <path d="M18 11.3638H15.6666V16.0304H18V11.3638Z" fill="#FFA219"/>
    <path d="M18 20.6973H8.66663V25.3639H18V20.6973Z" fill="#FFA219"/>
    <path d="M18 34.6973H15.6666V39.3639H18V34.6973Z" fill="#FFA219"/>
    <path d="M34.3333 34.6973H32V39.3639H34.3333V34.6973Z" fill="#FFA219"/>
    <path d="M34.3333 11.3638H32V16.0304H34.3333V11.3638Z" fill="#FFA219"/>
    <path d="M34.3333 16.0308H32V18.3641H34.3333V16.0308Z" fill="black"/>
    <path d="M34.3333 18.3638H32V20.6971H34.3333V18.3638Z" fill="black"/>
    <path d="M32 20.6973H29.6666V23.0306H32V20.6973Z" fill="black"/>
    <path d="M18 18.3638H15.6666V20.6971H18V18.3638Z" fill="black"/>
    <path d="M18 30.0303H15.6666V32.3636H18V30.0303Z" fill="black"/>
    <path d="M18 32.3638H15.6666V34.6971H18V32.3638Z" fill="black"/>
    <path d="M34.3333 30.0303H32V32.3636H34.3333V30.0303Z" fill="black"/>
    <path d="M34.3333 32.3638H32V34.6971H34.3333V32.3638Z" fill="black"/>
    <path d="M20.3333 20.6973H18V23.0306H20.3333V20.6973Z" fill="black"/>
    <path d="M20.3333 23.0303H18V25.3636H20.3333V23.0303Z" fill="#FFA219"/>
    <path d="M18 27.6973H8.66663V30.0306H18V27.6973Z" fill="#FFA219"/>
    <path d="M20.3333 11.3638H18V20.6971H20.3333V11.3638Z" fill="#FFA219"/>
    <path d="M20.3333 30.0303H18V39.3636H20.3333V30.0303Z" fill="#FFA219"/>
    <path d="M32 30.0303H29.6666V39.3636H32V30.0303Z" fill="#FFA219"/>
    <path d="M32 11.3638H29.6666V20.6971H32V11.3638Z" fill="#FFA219"/>
    <path d="M32 27.6973H29.6666V30.0306H32V27.6973Z" fill="black"/>
    <path d="M20.3333 27.6973H18V30.0306H20.3333V27.6973Z" fill="black"/>
    <path d="M22.6666 25.3638H20.3333V27.6971H22.6666V25.3638Z" fill="black"/>
    <path d="M22.6666 23.0303H20.3333V25.3636H22.6666V23.0303Z" fill="black"/>
    <path d="M20.3333 25.3638H8.66663V27.6971H20.3333V25.3638Z" fill="black"/>
    <path d="M25.0001 9.03076H22.6667V25.3641H25.0001V9.03076Z" fill="black"/>
    <path d="M27.3333 25.3638H25V41.6971H27.3333V25.3638Z" fill="black"/>
    <path d="M41.3333 23.0303H29.6666V25.3636H41.3333V23.0303Z" fill="black"/>
    <path d="M29.6667 25.3638H27.3334V27.6971H29.6667V25.3638Z" fill="black"/>
    <path d="M41.3333 25.3638H29.6666V27.6971H41.3333V25.3638Z" fill="#FFA219"/>
    <path d="M41.3333 20.6973H32V23.0306H41.3333V20.6973Z" fill="#FFA219"/>
    <path d="M41.3333 27.6973H32V30.0306H41.3333V27.6973Z" fill="#FFA219"/>
    <path d="M39 30.0303H34.3334V34.6969H39V30.0303Z" fill="#FFA219"/>
    <path d="M39 16.0308H34.3334V20.6974H39V16.0308Z" fill="#FFA219"/>
    <path d="M29.6667 23.0303H27.3334V25.3636H29.6667V23.0303Z" fill="black"/>
    <path d="M15.6667 11.3638H13.3334V13.6971H15.6667V11.3638Z" fill="black"/>
    <path d="M15.6667 9.03076H13.3334V11.3641H15.6667V9.03076Z" fill="white"/>
    <path d="M13.3333 11.3638H11V13.6971H13.3333V11.3638Z" fill="white"/>
    <path d="M11 13.6968H8.66663V16.0301H11V13.6968Z" fill="white"/>
    <path d="M11 34.6973H8.66663V37.0306H11V34.6973Z" fill="white"/>
    <path d="M6.33333 30.0303H4V32.3636H6.33333V30.0303Z" fill="white"/>
    <path d="M8.66658 34.6973H6.33325V37.0306H8.66658V34.6973Z" fill="white"/>
    <path d="M11 37.0303H8.66663V39.3636H11V37.0303Z" fill="white"/>
    <path d="M13.3333 39.3638H11V41.6971H13.3333V39.3638Z" fill="white"/>
    <path d="M15.6667 41.6973H13.3334V44.0306H15.6667V41.6973Z" fill="white"/>
    <path d="M20.3333 44.0303H18V46.3636H20.3333V44.0303Z" fill="white"/>
    <path d="M32 44.0303H29.6666V46.3636H32V44.0303Z" fill="white"/>
    <path d="M36.6667 41.6973H34.3334V44.0306H36.6667V41.6973Z" fill="white"/>
    <path d="M39 39.3638H36.6666V41.6971H39V39.3638Z" fill="white"/>
    <path d="M41.3333 37.0303H39V39.3636H41.3333V37.0303Z" fill="white"/>
    <path d="M43.6666 34.6973H41.3333V37.0306H43.6666V34.6973Z" fill="white"/>
    <path d="M46.0001 30.0303H43.6667V32.3636H46.0001V30.0303Z" fill="white"/>
    <path d="M13.3333 37.0303H11V39.3636H13.3333V37.0303Z" fill="white"/>
    <path d="M36.6667 39.3638H34.3334V41.6971H36.6667V39.3638Z" fill="white"/>
    <path d="M39 37.0303H36.6666V39.3636H39V37.0303Z" fill="white"/>
    <path d="M41.3333 34.6973H39V37.0306H41.3333V34.6973Z" fill="white"/>
    <path d="M43.6666 30.0303H41.3333V34.6969H43.6666V30.0303Z" fill="white"/>
    <path d="M46.0001 20.6973H43.6667V30.0306H46.0001V20.6973Z" fill="white"/>
    <path d="M43.6666 16.0308H41.3333V20.6974H43.6666V16.0308Z" fill="white"/>
    <path d="M41.3333 13.6968H39V16.0301H41.3333V13.6968Z" fill="white"/>
    <path d="M39 11.3638H36.6666V13.6971H39V11.3638Z" fill="white"/>
    <path d="M36.6667 9.03076H34.3334V11.3641H36.6667V9.03076Z" fill="white"/>
    <path d="M34.3333 6.69678H29.6666V9.03011H34.3333V6.69678Z" fill="white"/>
    <path d="M20.3333 6.69678H15.6666V9.03011H20.3333V6.69678Z" fill="white"/>
    <path d="M29.6666 4.36377H20.3333V6.6971H29.6666V4.36377Z" fill="white"/>
    <path d="M15.6667 39.3638H13.3334V41.6971H15.6667V39.3638Z" fill="white"/>
    <path d="M20.3333 41.6973H15.6666V44.0306H20.3333V41.6973Z" fill="white"/>
    <path d="M34.3333 41.7007H29.6666V44.034H34.3333V41.7007Z" fill="white"/>
    <path d="M29.6666 44.0303H20.3333V46.3636H29.6666V44.0303Z" fill="white"/>
    <path d="M8.66658 16.0308H6.33325V20.6974H8.66658V16.0308Z" fill="white"/>
    <path d="M8.66658 30.0303H6.33325V34.6969H8.66658V30.0303Z" fill="white"/>
    <path d="M6.33333 20.6973H4V30.0306H6.33333V20.6973Z" fill="white"/>
    <path d="M13.3333 34.6973H11V37.0306H13.3333V34.6973Z" fill="black"/>
    <path d="M15.6667 34.6973H13.3334V37.0306H15.6667V34.6973Z" fill="black"/>
    <path d="M15.6667 37.0303H13.3334V39.3636H15.6667V37.0303Z" fill="black"/>
    <path d="M39 34.6973H36.6666V37.0306H39V34.6973Z" fill="black"/>
    <path d="M36.6667 34.6973H34.3334V37.0306H36.6667V34.6973Z" fill="black"/>
    <path d="M36.6667 37.0303H34.3334V39.3636H36.6667V37.0303Z" fill="black"/>
    <path d="M39 13.6968H36.6666V16.0301H39V13.6968Z" fill="black"/>
    <path d="M36.6667 13.6968H34.3334V16.0301H36.6667V13.6968Z" fill="black"/>
    <path d="M36.6667 11.3638H34.3334V13.6971H36.6667V11.3638Z" fill="black"/>
    <path d="M18 9.03076H15.6666V11.3641H18V9.03076Z" fill="black"/>
    <path d="M20.3333 9.03076H18V11.3641H20.3333V9.03076Z" fill="black"/>
    <path d="M22.6666 9.03076H20.3333V23.0308H22.6666V9.03076Z" fill="#FFA219"/>
    <path d="M22.6666 27.6973H20.3333V41.6973H22.6666V27.6973Z" fill="#FFA219"/>
    <path d="M29.6667 27.6973H27.3334V41.6973H29.6667V27.6973Z" fill="#FFA219"/>
    <path d="M29.6667 9.03076H27.3334V23.0308H29.6667V9.03076Z" fill="#FFA219"/>
    <path d="M27.3333 9.03076H25V25.3641H27.3333V9.03076Z" fill="#FFA219"/>
    <path d="M25.0001 25.3638H22.6667V41.6971H25.0001V25.3638Z" fill="#FFA219"/>
    <path d="M32 9.03076H29.6666V11.3641H32V9.03076Z" fill="black"/>
    <path d="M34.3333 9.03076H32V11.3641H34.3333V9.03076Z" fill="black"/>
    <path d="M18 39.3638H15.6666V41.6971H18V39.3638Z" fill="black"/>
    <path d="M20.3333 39.3638H18V41.6971H20.3333V39.3638Z" fill="black"/>
    <path d="M32 39.3638H29.6666V41.6971H32V39.3638Z" fill="black"/>
    <path d="M34.3333 39.3638H32V41.6971H34.3333V39.3638Z" fill="black"/>
    <path d="M11 18.3638H8.66663V20.6971H11V18.3638Z" fill="black"/>
    <path d="M11 20.6973H8.66663V23.0306H11V20.6973Z" fill="#AF6400"/>
    <path d="M13.3333 16.0308H11V20.6974H13.3333V16.0308Z" fill="#AF6400"/>
    <path d="M11 23.0303H8.66663V25.3636H11V23.0303Z" fill="#AF6400"/>
    <path d="M11 27.6973H8.66663V30.0306H11V27.6973Z" fill="#AF6400"/>
    <path d="M13.3333 30.0303H11V32.3636H13.3333V30.0303Z" fill="#AF6400"/>
    <path d="M13.3333 20.6973H11V23.0306H13.3333V20.6973Z" fill="#D98100"/>
    <path d="M15.6667 16.0308H13.3334V20.6974H15.6667V16.0308Z" fill="#D98100"/>
    <path d="M18 11.3638H15.6666V16.0304H18V11.3638Z" fill="#D98100"/>
    <path d="M13.3333 23.0303H11V25.3636H13.3333V23.0303Z" fill="#D98100"/>
    <path d="M13.3333 27.6973H11V30.0306H13.3333V27.6973Z" fill="#D98100"/>
    <path d="M15.6667 30.0303H13.3334V32.3636H15.6667V30.0303Z" fill="#D98100"/>
    <path d="M20.3333 34.6973H18V37.0306H20.3333V34.6973Z" fill="#D98100"/>
    <path d="M22.6666 37.0303H20.3333V39.3636H22.6666V37.0303Z" fill="#D98100"/>
    <path d="M25.0001 37.0303H22.6667V39.3636H25.0001V37.0303Z" fill="#D98100"/>
    <path d="M29.6667 37.0303H27.3334V39.3636H29.6667V37.0303Z" fill="#D98100"/>
    <path d="M32 34.6973H29.6666V37.0306H32V34.6973Z" fill="#D98100"/>
    <path d="M34.3333 34.6973H32V37.0306H34.3333V34.6973Z" fill="#D98100"/>
    <path d="M41.3333 20.6973H39V23.0306H41.3333V20.6973Z" fill="#FFBF66"/>
    <path d="M39 18.3638H36.6666V20.6971H39V18.3638Z" fill="#FFBF66"/>
    <path d="M39 16.0308H36.6666V18.3641H39V16.0308Z" fill="#FFBF66"/>
    <path d="M36.6667 16.0308H34.3334V18.3641H36.6667V16.0308Z" fill="#FFBF66"/>
    <path d="M34.3333 13.6968H32V16.0301H34.3333V13.6968Z" fill="#FFBF66"/>
    <path d="M34.3333 11.3638H32V13.6971H34.3333V11.3638Z" fill="#FFBF66"/>
    <path d="M32 11.3638H29.6666V13.6971H32V11.3638Z" fill="#FFBF66"/>
    <path d="M29.6667 9.03076H27.3334V11.3641H29.6667V9.03076Z" fill="#FFBF66"/>
    <path d="M27.3333 9.03076H25V11.3641H27.3333V9.03076Z" fill="#FFBF66"/>
    <path d="M13.3333 32.3638H11V34.6971H13.3333V32.3638Z" fill="#AF6400"/>
    <path d="M15.6667 32.3638H13.3334V34.6971H15.6667V32.3638Z" fill="#AF6400"/>
    <path d="M18 34.6973H15.6666V37.0306H18V34.6973Z" fill="#AF6400"/>
    <path d="M18 37.0303H15.6666V39.3636H18V37.0303Z" fill="#AF6400"/>
    <path d="M20.3333 37.0303H18V39.3636H20.3333V37.0303Z" fill="#AF6400"/>
    <path d="M22.6666 39.3638H20.3333V41.6971H22.6666V39.3638Z" fill="#AF6400"/>
    <path d="M25.0001 39.3638H22.6667V41.6971H25.0001V39.3638Z" fill="#AF6400"/>
    <path d="M29.6667 39.3638H27.3334V41.6971H29.6667V39.3638Z" fill="#AF6400"/>
    <path d="M32 37.0303H29.6666V39.3636H32V37.0303Z" fill="#AF6400"/>
    <path d="M34.3333 37.0303H32V39.3636H34.3333V37.0303Z" fill="#AF6400"/>
    <path d="M41.3333 16.0308H39V18.3641H41.3333V16.0308Z" fill="black"/>
    <path d="M41.3333 18.3638H39V20.6971H41.3333V18.3638Z" fill="black"/>
    <path d="M41.3333 30.0303H39V32.3636H41.3333V30.0303Z" fill="black"/>
    <path d="M41.3333 32.3638H39V34.6971H41.3333V32.3638Z" fill="black"/>
    <path d="M11 30.0303H8.66663V32.3636H11V30.0303Z" fill="black"/>
    <path d="M11 32.3638H8.66663V34.6971H11V32.3638Z" fill="black"/>
    <path d="M8.66658 25.3638H6.33325V27.6971H8.66658V25.3638Z" fill="black"/>
    <path d="M8.66658 27.6973H6.33325V30.0306H8.66658V27.6973Z" fill="black"/>
    <path d="M43.6666 20.6973H41.3333V23.0306H43.6666V20.6973Z" fill="black"/>
    <path d="M43.6666 23.0303H41.3333V25.3636H43.6666V23.0303Z" fill="black"/>
    <path d="M43.6666 25.3638H41.3333V27.6971H43.6666V25.3638Z" fill="black"/>
    <path d="M43.6666 27.6973H41.3333V30.0306H43.6666V27.6973Z" fill="black"/>
</svg>
