<svg width="50" height="50" viewBox="0 0 50 50" fill="none" xmlns="http://www.w3.org/2000/svg">
    <path d="M18.3333 6.69678H16V9.03011H18.3333V6.69678Z" fill="#666666"/>
    <path d="M20.6667 6.69678H18.3334V9.03011H20.6667V6.69678Z" fill="#4D4D4D"/>
    <path d="M23 6.69678H20.6666V9.03011H23V6.69678Z" fill="#333333"/>
    <path d="M25.3333 6.69678H23V9.03011H25.3333V6.69678Z" fill="#1A1A1A"/>
    <path d="M27.6666 6.69678H25.3333V9.03011H27.6666V6.69678Z" fill="black"/>
    <path d="M30.0001 6.69678H27.6667V9.03011H30.0001V6.69678Z" fill="black"/>
    <path d="M32.3333 6.69678H30V9.03011H32.3333V6.69678Z" fill="black"/>
    <path d="M34.6667 6.69678H32.3334V9.03011H34.6667V6.69678Z" fill="black"/>
    <path d="M34.6667 4.36377H16V6.6971H34.6667V4.36377Z" fill="white"/>
    <path d="M16 6.69678H13.6666V9.03011H16V6.69678Z" fill="white"/>
    <path d="M16 41.6973H13.6666V44.0306H16V41.6973Z" fill="white"/>
    <path d="M16 44.0303H13.6666V46.3636H16V44.0303Z" fill="white"/>
    <path d="M37 6.69678H34.6666V9.03011H37V6.69678Z" fill="white"/>
    <path d="M37 41.6973H34.6666V44.0306H37V41.6973Z" fill="white"/>
    <path d="M37 44.0303H34.6666V46.3636H37V44.0303Z" fill="white"/>
    <path d="M39.3333 41.6973H37V44.0306H39.3333V41.6973Z" fill="white"/>
    <path d="M34.6667 44.0303H16V46.3636H34.6667V44.0303Z" fill="white"/>
    <path d="M13.6666 9.03076H11.3333V11.3641H13.6666V9.03076Z" fill="white"/>
    <path d="M13.6666 39.3638H11.3333V41.6971H13.6666V39.3638Z" fill="white"/>
    <path d="M13.6666 41.6973H11.3333V44.0306H13.6666V41.6973Z" fill="white"/>
    <path d="M11.3333 39.3638H9V41.6971H11.3333V39.3638Z" fill="white"/>
    <path d="M39.3333 9.03076H37V11.3641H39.3333V9.03076Z" fill="white"/>
    <path d="M39.3333 39.3638H37V41.6971H39.3333V39.3638Z" fill="white"/>
    <path d="M41.6667 39.3638H39.3334V41.6971H41.6667V39.3638Z" fill="white"/>
    <path d="M41.6667 11.3638H39.3334V39.3638H41.6667V11.3638Z" fill="white"/>
    <path d="M11.3333 11.3638H9V39.3638H11.3333V11.3638Z" fill="white"/>
    <path d="M23 39.3638H20.6666V41.6971H23V39.3638Z" fill="#111111"/>
    <path d="M25.3333 39.3638H23V41.6971H25.3333V39.3638Z" fill="#2986FF"/>
    <path d="M27.6666 39.3638H25.3333V41.6971H27.6666V39.3638Z" fill="#999999"/>
    <path d="M30.0001 39.3638H27.6667V41.6971H30.0001V39.3638Z" fill="#111111"/>
    <path d="M32.3333 39.3638H30V41.6971H32.3333V39.3638Z" fill="black"/>
    <path d="M34.6667 39.3638H32.3334V41.6971H34.6667V39.3638Z" fill="#4D4D4D"/>
    <path d="M20.6667 39.3638H18.3334V41.6971H20.6667V39.3638Z" fill="black"/>
    <path d="M18.3333 37.0303H16V39.3636H18.3333V37.0303Z" fill="#2986FF"/>
    <path d="M32.3334 37.0303H18.3334V39.3636H32.3334V37.0303Z" fill="#45B3E9"/>
    <path d="M34.6667 37.0303H32.3334V39.3636H34.6667V37.0303Z" fill="black"/>
    <path d="M18.3333 39.3638H16V41.6971H18.3333V39.3638Z" fill="black"/>
    <path d="M16 37.0303H13.6666V39.3636H16V37.0303Z" fill="black"/>
    <path d="M18.3333 37.0303H16V39.3636H18.3333V37.0303Z" fill="black"/>
    <path d="M20.6667 37.0303H18.3334V39.3636H20.6667V37.0303Z" fill="black"/>
    <path d="M25.3333 37.0303H23V39.3636H25.3333V37.0303Z" fill="black"/>
    <path d="M30.0001 37.0303H27.6667V39.3636H30.0001V37.0303Z" fill="black"/>
    <path d="M27.6666 37.0303H25.3333V39.3636H27.6666V37.0303Z" fill="black"/>
    <path d="M32.3333 37.0303H30V39.3636H32.3333V37.0303Z" fill="black"/>
    <path d="M37 37.0303H34.6666V39.3636H37V37.0303Z" fill="#4D4D4D"/>
    <path d="M37 11.3638H34.6666V13.6971H37V11.3638Z" fill="black"/>
    <path d="M16 11.3638H13.6666V13.6971H16V11.3638Z" fill="#1A1A1A"/>
    <path d="M18.3333 9.03076H16V11.3641H18.3333V9.03076Z" fill="#4D4D4D"/>
    <path d="M20.6667 9.03076H18.3334V11.3641H20.6667V9.03076Z" fill="#2986FF"/>
    <path d="M18.3333 11.3638H16V13.6971H18.3333V11.3638Z" fill="#2986FF"/>
    <path d="M34.6667 11.3638H32.3334V13.6971H34.6667V11.3638Z" fill="#2986FF"/>
    <path d="M25.3333 11.3638H23V13.6971H25.3333V11.3638Z" fill="#2986FF"/>
    <path d="M27.6666 11.3638H25.3333V13.6971H27.6666V11.3638Z" fill="#2986FF"/>
    <path d="M23 9.03076H20.6666V11.3641H23V9.03076Z" fill="#2986FF"/>
    <path d="M25.3333 9.03076H23V11.3641H25.3333V9.03076Z" fill="black"/>
    <path d="M30.0001 9.03076H27.6667V11.3641H30.0001V9.03076Z" fill="#2986FF"/>
    <path d="M32.3333 9.03076H30V11.3641H32.3333V9.03076Z" fill="#2986FF"/>
    <path d="M20.6667 11.3638H18.3334V13.6971H20.6667V11.3638Z" fill="#45B3E9"/>
    <path d="M23 11.3638H20.6666V13.6971H23V11.3638Z" fill="#45B3E9"/>
    <path d="M30.0001 11.3638H27.6667V13.6971H30.0001V11.3638Z" fill="#45B3E9"/>
    <path d="M32.3333 11.3638H30V13.6971H32.3333V11.3638Z" fill="#45B3E9"/>
    <path d="M34.6667 9.03076H32.3334V11.3641H34.6667V9.03076Z" fill="black"/>
    <path d="M16 13.6968H13.6666V37.0301H16V13.6968Z" fill="#2986FF"/>
    <path d="M34.6667 13.6968H16V37.0301H34.6667V13.6968Z" fill="#45B3E9"/>
    <path d="M37 13.6968H34.6666V37.0301H37V13.6968Z" fill="#2986FF"/>
    <path d="M16 39.3638H13.6666V41.6971H16V39.3638Z" fill="black"/>
    <path d="M37 39.3638H34.6666V41.6971H37V39.3638Z" fill="#666666"/>
    <path d="M18.3333 41.6973H16V44.0306H18.3333V41.6973Z" fill="black"/>
    <path d="M20.6667 41.6973H18.3334V44.0306H20.6667V41.6973Z" fill="black"/>
    <path d="M23 41.6973H20.6666V44.0306H23V41.6973Z" fill="black"/>
    <path d="M25.3333 41.6973H23V44.0306H25.3333V41.6973Z" fill="black"/>
    <path d="M27.6666 41.6973H25.3333V44.0306H27.6666V41.6973Z" fill="black"/>
    <path d="M30.0001 41.6973H27.6667V44.0306H30.0001V41.6973Z" fill="#111111"/>
    <path d="M32.3333 41.6973H30V44.0306H32.3333V41.6973Z" fill="#1E1E1E"/>
    <path d="M34.6667 41.6973H32.3334V44.0306H34.6667V41.6973Z" fill="#333333"/>
    <path d="M16 9.03076H13.6666V11.3641H16V9.03076Z" fill="#333333"/>
    <path d="M13.6666 37.0303H11.3333V39.3636H13.6666V37.0303Z" fill="black"/>
    <path d="M13.6666 34.6973H11.3333V37.0306H13.6666V34.6973Z" fill="black"/>
    <path d="M13.6666 32.3638H11.3333V34.6971H13.6666V32.3638Z" fill="black"/>
    <path d="M13.6666 30.0303H11.3333V32.3636H13.6666V30.0303Z" fill="black"/>
    <path d="M13.6666 27.6973H11.3333V30.0306H13.6666V27.6973Z" fill="black"/>
    <path d="M13.6666 25.3638H11.3333V27.6971H13.6666V25.3638Z" fill="black"/>
    <path d="M13.6666 23.0303H11.3333V25.3636H13.6666V23.0303Z" fill="black"/>
    <path d="M13.6666 20.6973H11.3333V23.0306H13.6666V20.6973Z" fill="black"/>
    <path d="M13.6666 18.3638H11.3333V20.6971H13.6666V18.3638Z" fill="black"/>
    <path d="M13.6666 16.0308H11.3333V18.3641H13.6666V16.0308Z" fill="black"/>
    <path d="M13.6666 13.6968H11.3333V16.0301H13.6666V13.6968Z" fill="black"/>
    <path d="M13.6666 11.3638H11.3333V13.6971H13.6666V11.3638Z" fill="black"/>
    <path d="M39.3333 37.0303H37V39.3636H39.3333V37.0303Z" fill="#333333"/>
    <path d="M39.3333 34.6973H37V37.0306H39.3333V34.6973Z" fill="#1E1E1E"/>
    <path d="M39.3333 32.3638H37V34.6971H39.3333V32.3638Z" fill="#111111"/>
    <path d="M39.3333 30.0303H37V32.3636H39.3333V30.0303Z" fill="black"/>
    <path d="M39.3333 27.6973H37V30.0306H39.3333V27.6973Z" fill="black"/>
    <path d="M39.3333 25.3638H37V27.6971H39.3333V25.3638Z" fill="black"/>
    <path d="M39.3333 23.0303H37V25.3636H39.3333V23.0303Z" fill="black"/>
    <path d="M39.3333 20.6973H37V23.0306H39.3333V20.6973Z" fill="black"/>
    <path d="M39.3333 18.3638H37V20.6971H39.3333V18.3638Z" fill="black"/>
    <path d="M39.3333 16.0308H37V18.3641H39.3333V16.0308Z" fill="black"/>
    <path d="M39.3333 13.6968H37V16.0301H39.3333V13.6968Z" fill="black"/>
    <path d="M39.3333 11.3638H37V13.6971H39.3333V11.3638Z" fill="black"/>
    <path d="M37 9.03076H34.6666V11.3641H37V9.03076Z" fill="black"/>
    <path d="M27.6666 9.03076H25.3333V11.3641H27.6666V9.03076Z" fill="#1A1A1A"/>
    <path d="M25.3333 18.3638H23V20.6971H25.3333V18.3638Z" fill="#FFA219"/>
    <path d="M27.6666 18.3638H25.3333V20.6971H27.6666V18.3638Z" fill="#FFBF66"/>
    <path d="M30.0001 20.6968H27.6667V23.0301H30.0001V20.6968Z" fill="#FFBF66"/>
    <path d="M30.0001 23.0303H27.6667V25.3636H30.0001V23.0303Z" fill="#FFA219"/>
    <path d="M27.6666 23.0303H25.3333V25.3636H27.6666V23.0303Z" fill="#FFA219"/>
    <path d="M27.6666 20.6968H25.3333V23.0301H27.6666V20.6968Z" fill="#FFA219"/>
    <path d="M25.3333 20.6968H23V23.0301H25.3333V20.6968Z" fill="#FFA219"/>
    <path d="M30 34.6973H20.6666V37.0306H30V34.6973Z" fill="#D98100"/>
    <path d="M32.3334 32.3638H18.3334V34.6971H32.3334V32.3638Z" fill="#FFA219"/>
    <path d="M27.6667 30.0303H23V32.3636H27.6667V30.0303Z" fill="#FFBF66"/>
    <path d="M23 23.0303H20.6666V25.3636H23V23.0303Z" fill="#D98100"/>
    <path d="M25.3333 23.0303H23V25.3636H25.3333V23.0303Z" fill="#D98100"/>
    <path d="M25.3333 25.3638H23V27.6971H25.3333V25.3638Z" fill="#D98100"/>
    <path d="M27.6666 25.3638H25.3333V27.6971H27.6666V25.3638Z" fill="#D98100"/>
    <path d="M23 20.6968H20.6666V23.0301H23V20.6968Z" fill="#D98100"/>
    <path d="M32.3333 11.3638H30V13.6971H32.3333V11.3638Z" fill="#E5F8FF"/>
    <path d="M30.0001 9.03076H27.6667V11.3641H30.0001V9.03076Z" fill="#E5F8FF"/>
    <path d="M34.6667 13.6968H32.3334V16.0301H34.6667V13.6968Z" fill="#E5F8FF"/>
    <path d="M37 16.0308H34.6666V18.3641H37V16.0308Z" fill="#E5F8FF"/>
    <path d="M16 30.0303H13.6666V32.3636H16V30.0303Z" fill="#E5F8FF"/>
    <path d="M18.3333 32.3638H16V34.6971H18.3333V32.3638Z" fill="#E5F8FF"/>
    <path d="M20.6667 34.6973H18.3334V37.0306H20.6667V34.6973Z" fill="#E5F8FF"/>
    <path d="M23 37.0303H20.6666V39.3636H23V37.0303Z" fill="black"/>
    <path d="M25.3333 39.3638H23V41.6971H25.3333V39.3638Z" fill="#666666"/>
    <path d="M25.3333 16.0308H23V18.3641H25.3333V16.0308Z" fill="black"/>
    <path d="M27.6666 16.0308H25.3333V18.3641H27.6666V16.0308Z" fill="black"/>
    <path d="M30.0001 18.3638H27.6667V20.6971H30.0001V18.3638Z" fill="black"/>
    <path d="M32.3333 20.6973H30V23.0306H32.3333V20.6973Z" fill="black"/>
    <path d="M32.3333 23.0303H30V25.3636H32.3333V23.0303Z" fill="black"/>
    <path d="M32.3333 25.3638H30V27.6971H32.3333V25.3638Z" fill="black"/>
    <path d="M32.3333 27.6973H30V30.0306H32.3333V27.6973Z" fill="black"/>
    <path d="M30.0001 27.6973H27.6667V30.0306H30.0001V27.6973Z" fill="black"/>
    <path d="M30.0001 25.3638H27.6667V27.6971H30.0001V25.3638Z" fill="black"/>
    <path d="M23 25.3638H20.6666V27.6971H23V25.3638Z" fill="black"/>
    <path d="M23 18.3638H20.6666V20.6971H23V18.3638Z" fill="black"/>
    <path d="M20.6667 18.3638H18.3334V20.6971H20.6667V18.3638Z" fill="black"/>
    <path d="M23 16.0308H20.6666V18.3641H23V16.0308Z" fill="black"/>
    <path d="M20.6667 20.6973H18.3334V23.0306H20.6667V20.6973Z" fill="black"/>
    <path d="M20.6667 23.0303H18.3334V25.3636H20.6667V23.0303Z" fill="black"/>
    <path d="M20.6667 25.3638H18.3334V27.6971H20.6667V25.3638Z" fill="black"/>
    <path d="M20.6667 27.6973H18.3334V30.0306H20.6667V27.6973Z" fill="black"/>
    <path d="M23 27.6973H20.6666V30.0306H23V27.6973Z" fill="black"/>
</svg>
