<svg width="50" height="50" viewBox="0 0 50 50" fill="none" xmlns="http://www.w3.org/2000/svg">
    <g clip-path="url(#clip0_2090_20271)">
        <path d="M9.61546 33.1538H7.69238V35.0769H9.61546V33.1538Z" fill="black"/>
        <path d="M9.61546 31.231H7.69238V33.154H9.61546V31.231Z" fill="white"/>
        <path d="M7.69236 31.231H5.76929V33.154H7.69236V31.231Z" fill="white"/>
        <path d="M7.69236 33.1538H5.76929V35.0769H7.69236V33.1538Z" fill="white"/>
        <path d="M7.69236 35.0771H5.76929V37.0002H7.69236V35.0771Z" fill="white"/>
        <path d="M9.61546 35.0771H7.69238V37.0002H9.61546V35.0771Z" fill="white"/>
        <path d="M48.0769 35.0771H46.1538V37.0002H48.0769V35.0771Z" fill="white"/>
        <path d="M50 35.0771H48.0769V37.0002H50V35.0771Z" fill="white"/>
        <path d="M50 33.1538H48.0769V35.0769H50V33.1538Z" fill="white"/>
        <path d="M50 31.231H48.0769V33.154H50V31.231Z" fill="white"/>
        <path d="M48.0769 31.231H46.1538V33.154H48.0769V31.231Z" fill="white"/>
        <path d="M48.0769 29.3076H46.1538V31.2307H48.0769V29.3076Z" fill="white"/>
        <path d="M46.1538 27.3848H44.2307V29.3078H46.1538V27.3848Z" fill="white"/>
        <path d="M44.2307 25.4614H42.3076V27.3845H44.2307V25.4614Z" fill="white"/>
        <path d="M42.3076 25.4614H40.3845V27.3845H42.3076V25.4614Z" fill="white"/>
        <path d="M42.3076 23.5386H40.3845V25.4617H42.3076V23.5386Z" fill="white"/>
        <path d="M40.3845 21.6152H38.4614V23.5383H40.3845V21.6152Z" fill="white"/>
        <path d="M38.4617 19.6924H36.5386V21.6155H38.4617V19.6924Z" fill="white"/>
        <path d="M36.5386 17.769H34.6155V19.6921H36.5386V17.769Z" fill="white"/>
        <path d="M34.6155 15.8462H32.6924V17.7693H34.6155V15.8462Z" fill="white"/>
        <path d="M30.7693 13.9229H28.8462V15.8459H30.7693V13.9229Z" fill="white"/>
        <path d="M32.6924 13.9229H30.7693V15.8459H32.6924V13.9229Z" fill="white"/>
        <path d="M26.9231 12H25V13.9231H26.9231V12Z" fill="white"/>
        <path d="M28.8462 12H26.9231V13.9231H28.8462V12Z" fill="white"/>
        <path d="M23.0769 12H21.1538V13.9231H23.0769V12Z" fill="white"/>
        <path d="M21.1538 13.9229H19.2307V15.8459H21.1538V13.9229Z" fill="white"/>
        <path d="M19.2307 15.8462H17.3076V17.7693H19.2307V15.8462Z" fill="white"/>
        <path d="M17.3076 17.769H15.3845V19.6921H17.3076V17.769Z" fill="white"/>
        <path d="M17.3076 19.6924H15.3845V21.6155H17.3076V19.6924Z" fill="white"/>
        <path d="M17.3076 21.6152H15.3845V23.5383H17.3076V21.6152Z" fill="white"/>
        <path d="M3.84617 25.4614H1.9231V27.3845H3.84617V25.4614Z" fill="white"/>
        <path d="M1.92308 27.3848H0V29.3078H1.92308V27.3848Z" fill="white"/>
        <path d="M3.84617 29.3076H1.9231V31.2307H3.84617V29.3076Z" fill="white"/>
        <path d="M5.76927 31.231H3.84619V33.154H5.76927V31.231Z" fill="white"/>
        <path d="M3.84617 31.231H1.9231V33.154H3.84617V31.231Z" fill="white"/>
        <path d="M1.92308 29.3076H0V31.2307H1.92308V29.3076Z" fill="white"/>
        <path d="M1.92308 25.4614H0V27.3845H1.92308V25.4614Z" fill="white"/>
        <path d="M3.84617 23.5386H1.9231V25.4617H3.84617V23.5386Z" fill="white"/>
        <path d="M15.3847 23.5386H3.84619V25.4617H15.3847V23.5386Z" fill="white"/>
        <path d="M25 12H23.0769V13.9231H25V12Z" fill="white"/>
        <path d="M48.0769 37H46.1538V38.9231H48.0769V37Z" fill="white"/>
        <path d="M46.1539 37H7.69238V38.9231H46.1539V37Z" fill="white"/>
        <path d="M11.5386 33.1538H9.61548V35.0769H11.5386V33.1538Z" fill="#71382A"/>
        <path d="M13.4617 33.1538H11.5386V35.0769H13.4617V33.1538Z" fill="#71382A"/>
        <path d="M15.3845 33.1538H13.4614V35.0769H15.3845V33.1538Z" fill="#71382A"/>
        <path d="M17.3076 33.1538H15.3845V35.0769H17.3076V33.1538Z" fill="#71382A"/>
        <path d="M19.2307 33.1538H17.3076V35.0769H19.2307V33.1538Z" fill="#71382A"/>
        <path d="M21.1538 33.1538H19.2307V35.0769H21.1538V33.1538Z" fill="#422019"/>
        <path d="M5.76927 27.3848H3.84619V29.3078H5.76927V27.3848Z" fill="#71382A"/>
        <path d="M7.69236 27.3848H5.76929V29.3078H7.69236V27.3848Z" fill="#71382A"/>
        <path d="M9.61546 27.3848H7.69238V29.3078H9.61546V27.3848Z" fill="#71382A"/>
        <path d="M11.5386 27.3848H9.61548V29.3078H11.5386V27.3848Z" fill="#71382A"/>
        <path d="M13.4617 27.3848H11.5386V29.3078H13.4617V27.3848Z" fill="#71382A"/>
        <path d="M15.3845 27.3848H13.4614V29.3078H15.3845V27.3848Z" fill="#422019"/>
        <path d="M11.5386 29.3076H9.61548V31.2307H11.5386V29.3076Z" fill="#422019"/>
        <path d="M13.4617 29.3076H11.5386V31.2307H13.4617V29.3076Z" fill="#422019"/>
        <path d="M15.3845 29.3076H13.4614V31.2307H15.3845V29.3076Z" fill="#422019"/>
        <path d="M9.61542 29.3076H3.84619V31.2307H9.61542V29.3076Z" fill="black"/>
        <path d="M21.1539 31.231H9.61548V33.154H21.1539V31.231Z" fill="black"/>
        <path d="M48.0769 33.1538H46.1538V35.0769H48.0769V33.1538Z" fill="black"/>
        <path d="M44.2307 27.3848H42.3076V29.3078H44.2307V27.3848Z" fill="black"/>
        <path d="M23.0769 29.3076H21.1538V35.0768H23.0769V29.3076Z" fill="black"/>
        <path d="M25 23.5386H23.0769V29.3078H25V23.5386Z" fill="black"/>
        <path d="M40.3845 23.5386H38.4614V25.4617H40.3845V23.5386Z" fill="black"/>
        <path d="M26.9231 21.6152H25V23.5383H26.9231V21.6152Z" fill="black"/>
        <path d="M28.8462 21.6152H26.9231V23.5383H28.8462V21.6152Z" fill="#BD1E55"/>
        <path d="M30.7693 21.6152H28.8462V23.5383H30.7693V21.6152Z" fill="#D62F73"/>
        <path d="M32.6924 21.6152H30.7693V23.5383H32.6924V21.6152Z" fill="#E05080"/>
        <path d="M34.6155 21.6152H32.6924V23.5383H34.6155V21.6152Z" fill="#E05080"/>
        <path d="M28.8462 23.5386H26.9231V25.4617H28.8462V23.5386Z" fill="#D62F73"/>
        <path d="M30.7693 23.5386H28.8462V25.4617H30.7693V23.5386Z" fill="#D62F73"/>
        <path d="M32.6924 23.5386H30.7693V25.4617H32.6924V23.5386Z" fill="#D62F73"/>
        <path d="M34.6155 23.5386H32.6924V25.4617H34.6155V23.5386Z" fill="#D62F73"/>
        <path d="M28.8462 25.4614H26.9231V27.3845H28.8462V25.4614Z" fill="#BD1E55"/>
        <path d="M30.7693 25.4614H28.8462V27.3845H30.7693V25.4614Z" fill="#D62F73"/>
        <path d="M32.6924 25.4614H30.7693V27.3845H32.6924V25.4614Z" fill="#D62F73"/>
        <path d="M34.6155 25.4614H32.6924V27.3845H34.6155V25.4614Z" fill="#D62F73"/>
        <path d="M28.8462 27.3848H26.9231V29.3078H28.8462V27.3848Z" fill="#BD1E55"/>
        <path d="M30.7693 27.3848H28.8462V29.3078H30.7693V27.3848Z" fill="#D62F73"/>
        <path d="M32.6924 27.3848H30.7693V29.3078H32.6924V27.3848Z" fill="#D62F73"/>
        <path d="M34.6155 27.3848H32.6924V29.3078H34.6155V27.3848Z" fill="#D62F73"/>
        <path d="M28.8462 29.3076H26.9231V31.2307H28.8462V29.3076Z" fill="#BD1E55"/>
        <path d="M30.7693 29.3076H28.8462V31.2307H30.7693V29.3076Z" fill="#BD1E55"/>
        <path d="M32.6924 29.3076H30.7693V31.2307H32.6924V29.3076Z" fill="#D62F73"/>
        <path d="M34.6155 29.3076H32.6924V31.2307H34.6155V29.3076Z" fill="#D62F73"/>
        <path d="M28.8462 31.231H26.9231V33.154H28.8462V31.231Z" fill="#931C3D"/>
        <path d="M30.7693 31.231H28.8462V33.154H30.7693V31.231Z" fill="#BD1E55"/>
        <path d="M32.6924 31.231H30.7693V33.154H32.6924V31.231Z" fill="#BD1E55"/>
        <path d="M34.6155 31.231H32.6924V33.154H34.6155V31.231Z" fill="#D62F73"/>
        <path d="M28.8462 33.1538H26.9231V35.0769H28.8462V33.1538Z" fill="#931C3D"/>
        <path d="M26.9231 23.5386H25V25.4617H26.9231V23.5386Z" fill="#BD1E55"/>
        <path d="M23.0769 15.8462H21.1538V17.7693H23.0769V15.8462Z" fill="#E05080"/>
        <path d="M25 15.8462H23.0769V17.7693H25V15.8462Z" fill="#E05080"/>
        <path d="M26.9231 15.8462H25V17.7693H26.9231V15.8462Z" fill="#E05080"/>
        <path d="M28.8462 15.8462H26.9231V17.7693H28.8462V15.8462Z" fill="#E05080"/>
        <path d="M23.0769 17.769H21.1538V19.6921H23.0769V17.769Z" fill="#D62F73"/>
        <path d="M25 17.769H23.0769V19.6921H25V17.769Z" fill="#D62F73"/>
        <path d="M26.9231 17.769H25V19.6921H26.9231V17.769Z" fill="#D62F73"/>
        <path d="M23.0769 19.6924H21.1538V21.6155H23.0769V19.6924Z" fill="#D62F73"/>
        <path d="M25 19.6924H23.0769V21.6155H25V19.6924Z" fill="#D62F73"/>
        <path d="M23.0769 21.6152H21.1538V23.5383H23.0769V21.6152Z" fill="#D62F73"/>
        <path d="M23.0769 23.5386H21.1538V25.4617H23.0769V23.5386Z" fill="#BD1E55"/>
        <path d="M23.0769 25.4614H21.1538V27.3845H23.0769V25.4614Z" fill="#BD1E55"/>
        <path d="M23.0769 27.3848H21.1538V29.3078H23.0769V27.3848Z" fill="#BD1E55"/>
        <path d="M21.1538 17.769H19.2307V19.6921H21.1538V17.769Z" fill="#D62F73"/>
        <path d="M21.1538 19.6924H19.2307V21.6155H21.1538V19.6924Z" fill="#D62F73"/>
        <path d="M21.1538 21.6152H19.2307V23.5383H21.1538V21.6152Z" fill="#D62F73"/>
        <path d="M21.1538 23.5386H19.2307V25.4617H21.1538V23.5386Z" fill="#D62F73"/>
        <path d="M21.1538 25.4614H19.2307V27.3845H21.1538V25.4614Z" fill="#D62F73"/>
        <path d="M21.1538 27.3848H19.2307V29.3078H21.1538V27.3848Z" fill="#BD1E55"/>
        <path d="M19.2307 23.5386H17.3076V25.4617H19.2307V23.5386Z" fill="#BD1E55"/>
        <path d="M19.2307 25.4614H17.3076V27.3845H19.2307V25.4614Z" fill="#BD1E55"/>
        <path d="M19.2307 27.3848H17.3076V29.3078H19.2307V27.3848Z" fill="#BD1E55"/>
        <path d="M21.1538 29.3076H19.2307V31.2307H21.1538V29.3076Z" fill="#931C3D"/>
        <path d="M19.2307 29.3076H17.3076V31.2307H19.2307V29.3076Z" fill="#931C3D"/>
        <path d="M25 21.6152H23.0769V23.5383H25V21.6152Z" fill="#BD1E55"/>
        <path d="M26.9231 19.6924H25V21.6155H26.9231V19.6924Z" fill="#BD1E55"/>
        <path d="M28.8462 17.769H26.9231V19.6921H28.8462V17.769Z" fill="#D62F73"/>
        <path d="M30.7693 17.769H28.8462V19.6921H30.7693V17.769Z" fill="#E05080"/>
        <path d="M32.6924 17.769H30.7693V19.6921H32.6924V17.769Z" fill="#E05080"/>
        <path d="M26.9231 25.4614H25V27.3845H26.9231V25.4614Z" fill="#BD1E55"/>
        <path d="M26.9231 27.3848H25V29.3078H26.9231V27.3848Z" fill="#931C3D"/>
        <path d="M26.9231 29.3076H25V31.2307H26.9231V29.3076Z" fill="#931C3D"/>
        <path d="M26.9231 31.231H25V33.154H26.9231V31.231Z" fill="#931C3D"/>
        <path d="M26.9231 33.1538H25V35.0769H26.9231V33.1538Z" fill="#931C3D"/>
        <path d="M25 29.3076H23.0769V31.2307H25V29.3076Z" fill="#931C3D"/>
        <path d="M25 31.231H23.0769V33.154H25V31.231Z" fill="#931C3D"/>
        <path d="M25 33.1538H23.0769V35.0769H25V33.1538Z" fill="#931C3D"/>
        <path d="M30.7693 33.1538H28.8462V35.0769H30.7693V33.1538Z" fill="#931C3D"/>
        <path d="M32.6924 33.1538H30.7693V35.0769H32.6924V33.1538Z" fill="#BD1E55"/>
        <path d="M34.6155 33.1538H32.6924V35.0769H34.6155V33.1538Z" fill="#BD1E55"/>
        <path d="M36.5386 23.5386H34.6155V25.4617H36.5386V23.5386Z" fill="#E05080"/>
        <path d="M38.4617 23.5386H36.5386V25.4617H38.4617V23.5386Z" fill="#E05080"/>
        <path d="M36.5386 25.4614H34.6155V27.3845H36.5386V25.4614Z" fill="#D62F73"/>
        <path d="M38.4617 25.4614H36.5386V27.3845H38.4617V25.4614Z" fill="#E05080"/>
        <path d="M36.5386 27.3848H34.6155V29.3078H36.5386V27.3848Z" fill="#D62F73"/>
        <path d="M38.4617 27.3848H36.5386V29.3078H38.4617V27.3848Z" fill="#D62F73"/>
        <path d="M36.5386 29.3076H34.6155V31.2307H36.5386V29.3076Z" fill="#D62F73"/>
        <path d="M38.4617 29.3076H36.5386V31.2307H38.4617V29.3076Z" fill="#D62F73"/>
        <path d="M36.5386 31.231H34.6155V33.154H36.5386V31.231Z" fill="#D62F73"/>
        <path d="M38.4617 31.231H36.5386V33.154H38.4617V31.231Z" fill="#D62F73"/>
        <path d="M36.5386 33.1538H34.6155V35.0769H36.5386V33.1538Z" fill="#BD1E55"/>
        <path d="M38.4617 33.1538H36.5386V35.0769H38.4617V33.1538Z" fill="#BD1E55"/>
        <path d="M40.3845 27.3848H38.4614V29.3078H40.3845V27.3848Z" fill="#E05080"/>
        <path d="M40.3845 29.3076H38.4614V31.2307H40.3845V29.3076Z" fill="#D62F73"/>
        <path d="M40.3845 31.231H38.4614V33.154H40.3845V31.231Z" fill="#D62F73"/>
        <path d="M40.3845 33.1538H38.4614V35.0769H40.3845V33.1538Z" fill="#BD1E55"/>
        <path d="M42.3076 29.3076H40.3845V31.2307H42.3076V29.3076Z" fill="#E05080"/>
        <path d="M42.3076 31.231H40.3845V33.154H42.3076V31.231Z" fill="#D62F73"/>
        <path d="M42.3076 33.1538H40.3845V35.0769H42.3076V33.1538Z" fill="#BD1E55"/>
        <path d="M44.2307 29.3076H42.3076V31.2307H44.2307V29.3076Z" fill="#E05080"/>
        <path d="M44.2307 31.231H42.3076V33.154H44.2307V31.231Z" fill="#D62F73"/>
        <path d="M44.2307 33.1538H42.3076V35.0769H44.2307V33.1538Z" fill="#BD1E55"/>
        <path d="M46.1538 33.1538H44.2307V35.0769H46.1538V33.1538Z" fill="#BD1E55"/>
        <path d="M38.4616 21.6152H34.6155V23.5383H38.4616V21.6152Z" fill="black"/>
        <path d="M34.6154 19.6924H26.9231V21.6155H34.6154V19.6924Z" fill="black"/>
        <path d="M46.1538 29.3076H44.2307V33.1538H46.1538V29.3076Z" fill="black"/>
        <path d="M46.1539 35.0771H9.61548V37.0002H46.1539V35.0771Z" fill="black"/>
        <path d="M3.84617 27.3848H1.9231V29.3078H3.84617V27.3848Z" fill="black"/>
        <path d="M15.3847 25.4614H3.84619V27.3845H15.3847V25.4614Z" fill="black"/>
        <path d="M42.3076 27.3848H40.3845V29.3078H42.3076V27.3848Z" fill="black"/>
        <path d="M38.4617 21.6152H36.5386V23.5383H38.4617V21.6152Z" fill="black"/>
        <path d="M17.3076 23.5386H15.3845V31.2309H17.3076V23.5386Z" fill="black"/>
        <path d="M19.2307 17.769H17.3076V23.5383H19.2307V17.769Z" fill="black"/>
        <path d="M36.5386 19.6924H34.6155V21.6155H36.5386V19.6924Z" fill="black"/>
        <path d="M34.6155 17.769H32.6924V19.6921H34.6155V17.769Z" fill="black"/>
        <path d="M21.1538 15.8462H19.2307V17.7693H21.1538V15.8462Z" fill="black"/>
        <path d="M32.6923 15.8462H28.8462V17.7693H32.6923V15.8462Z" fill="black"/>
        <path d="M28.8461 13.9229H21.1538V15.8459H28.8461V13.9229Z" fill="black"/>
        <path d="M40.3845 23.5386H38.4614V27.3847H40.3845V23.5386Z" fill="black"/>
    </g>
    <defs>
        <clipPath id="clip0_2090_20271">
            <rect width="50" height="26.9231" fill="white" transform="translate(0 12)"/>
        </clipPath>
    </defs>
</svg>
