<svg width="70" height="70" viewBox="0 0 70 70" fill="none" xmlns="http://www.w3.org/2000/svg">
    <path d="M52.8184 45.1816H50.2729V47.7271H52.8184V45.1816Z" fill="#2986FF"/>
    <path d="M14.6363 42.6362H12.0908V45.1817H14.6363V42.6362Z" fill="black"/>
    <path d="M14.6363 45.1816H12.0908V47.7271H14.6363V45.1816Z" fill="black"/>
    <path d="M9.54545 47.7271H7V50.2725H9.54545V47.7271Z" fill="black"/>
    <path d="M12.0909 47.7271H9.54541V50.2725H12.0909V47.7271Z" fill="black"/>
    <path d="M12.0909 50.2725H9.54541V52.8179H12.0909V50.2725Z" fill="black"/>
    <path d="M14.6363 50.2725H12.0908V52.8179H14.6363V50.2725Z" fill="black"/>
    <path d="M17.1817 50.2725H14.6362V52.8179H17.1817V50.2725Z" fill="black"/>
    <path d="M19.7271 50.2725H17.1816V52.8179H19.7271V50.2725Z" fill="black"/>
    <path d="M22.273 50.2725H19.7275V52.8179H22.273V50.2725Z" fill="black"/>
    <path d="M24.8184 50.2725H22.2729V52.8179H24.8184V50.2725Z" fill="black"/>
    <path d="M27.3638 50.2725H24.8184V52.8179H27.3638V50.2725Z" fill="black"/>
    <path d="M29.9092 50.2725H27.3638V52.8179H29.9092V50.2725Z" fill="black"/>
    <path d="M32.4546 50.2725H29.9092V52.8179H32.4546V50.2725Z" fill="black"/>
    <path d="M35 50.2725H32.4546V52.8179H35V50.2725Z" fill="black"/>
    <path d="M37.5455 50.2725H35V52.8179H37.5455V50.2725Z" fill="black"/>
    <path d="M40.0909 50.2725H37.5454V52.8179H40.0909V50.2725Z" fill="black"/>
    <path d="M42.6363 50.2725H40.0908V52.8179H42.6363V50.2725Z" fill="black"/>
    <path d="M45.1817 50.2725H42.6362V52.8179H45.1817V50.2725Z" fill="black"/>
    <path d="M47.7271 50.2725H45.1816V52.8179H47.7271V50.2725Z" fill="black"/>
    <path d="M50.273 50.2725H47.7275V52.8179H50.273V50.2725Z" fill="black"/>
    <path d="M52.8184 50.2725H50.2729V52.8179H52.8184V50.2725Z" fill="black"/>
    <path d="M55.3638 50.2725H52.8184V52.8179H55.3638V50.2725Z" fill="black"/>
    <path d="M57.9092 50.2725H55.3638V52.8179H57.9092V50.2725Z" fill="black"/>
    <path d="M60.4546 50.2725H57.9092V52.8179H60.4546V50.2725Z" fill="black"/>
    <path d="M14.6363 47.7271H12.0908V50.2725H14.6363V47.7271Z" fill="black"/>
    <path d="M17.1817 47.7271H14.6362V50.2725H17.1817V47.7271Z" fill="black"/>
    <path d="M19.7271 47.7271H17.1816V50.2725H19.7271V47.7271Z" fill="black"/>
    <path d="M22.273 47.7271H19.7275V50.2725H22.273V47.7271Z" fill="black"/>
    <path d="M24.8184 47.7271H22.2729V50.2725H24.8184V47.7271Z" fill="black"/>
    <path d="M27.3638 47.7271H24.8184V50.2725H27.3638V47.7271Z" fill="black"/>
    <path d="M29.9092 47.7271H27.3638V50.2725H29.9092V47.7271Z" fill="black"/>
    <path d="M32.4546 47.7271H29.9092V50.2725H32.4546V47.7271Z" fill="black"/>
    <path d="M35 47.7271H32.4546V50.2725H35V47.7271Z" fill="black"/>
    <path d="M37.5455 47.7271H35V50.2725H37.5455V47.7271Z" fill="black"/>
    <path d="M40.0909 47.7271H37.5454V50.2725H40.0909V47.7271Z" fill="black"/>
    <path d="M42.6363 47.7271H40.0908V50.2725H42.6363V47.7271Z" fill="black"/>
    <path d="M45.1817 47.7271H42.6362V50.2725H45.1817V47.7271Z" fill="black"/>
    <path d="M47.7271 47.7271H45.1816V50.2725H47.7271V47.7271Z" fill="black"/>
    <path d="M50.273 47.7271H47.7275V50.2725H50.273V47.7271Z" fill="black"/>
    <path d="M52.8184 47.7271H50.2729V50.2725H52.8184V47.7271Z" fill="black"/>
    <path d="M55.3638 47.7271H52.8184V50.2725H55.3638V47.7271Z" fill="black"/>
    <path d="M57.9092 47.7271H55.3638V50.2725H57.9092V47.7271Z" fill="black"/>
    <path d="M60.4546 47.7271H57.9092V50.2725H60.4546V47.7271Z" fill="black"/>
    <path d="M63 47.7271H60.4546V50.2725H63V47.7271Z" fill="black"/>
    <path d="M14.6363 40.0908H12.0908V42.6363H14.6363V40.0908Z" fill="black"/>
    <path d="M14.6363 37.5454H12.0908V40.0909H14.6363V37.5454Z" fill="black"/>
    <path d="M14.6363 35H12.0908V37.5455H14.6363V35Z" fill="black"/>
    <path d="M14.6363 32.4546H12.0908V35H14.6363V32.4546Z" fill="black"/>
    <path d="M14.6363 29.9092H12.0908V32.4546H14.6363V29.9092Z" fill="black"/>
    <path d="M14.6363 27.3633H12.0908V29.9087H14.6363V27.3633Z" fill="black"/>
    <path d="M14.6363 24.8179H12.0908V27.3633H14.6363V24.8179Z" fill="black"/>
    <path d="M14.6363 22.2725H12.0908V24.8179H14.6363V22.2725Z" fill="black"/>
    <path d="M17.1817 42.6362H14.6362V45.1817H17.1817V42.6362Z" fill="#2986FF"/>
    <path d="M17.1817 45.1816H14.6362V47.7271H17.1817V45.1816Z" fill="#2986FF"/>
    <path d="M17.1817 40.0908H14.6362V42.6363H17.1817V40.0908Z" fill="#2986FF"/>
    <path d="M17.1817 37.5454H14.6362V40.0909H17.1817V37.5454Z" fill="#2986FF"/>
    <path d="M17.1817 35H14.6362V37.5455H17.1817V35Z" fill="#2986FF"/>
    <path d="M17.1817 32.4546H14.6362V35H17.1817V32.4546Z" fill="#2986FF"/>
    <path d="M17.1817 29.9092H14.6362V32.4546H17.1817V29.9092Z" fill="#2986FF"/>
    <path d="M17.1817 27.3633H14.6362V29.9087H17.1817V27.3633Z" fill="#2986FF"/>
    <path d="M17.1817 24.8179H14.6362V27.3633H17.1817V24.8179Z" fill="#2986FF"/>
    <path d="M17.1817 22.2725H14.6362V24.8179H17.1817V22.2725Z" fill="#2986FF"/>
    <path d="M19.7271 42.6362H17.1816V45.1817H19.7271V42.6362Z" fill="#45B3E9"/>
    <path d="M19.7271 45.1816H17.1816V47.7271H19.7271V45.1816Z" fill="#2986FF"/>
    <path d="M19.7271 40.0908H17.1816V42.6363H19.7271V40.0908Z" fill="#45B3E9"/>
    <path d="M19.7271 37.5454H17.1816V40.0909H19.7271V37.5454Z" fill="#45B3E9"/>
    <path d="M19.7271 35H17.1816V37.5455H19.7271V35Z" fill="#45B3E9"/>
    <path d="M19.7271 32.4546H17.1816V35H19.7271V32.4546Z" fill="#45B3E9"/>
    <path d="M19.7271 29.9092H17.1816V32.4546H19.7271V29.9092Z" fill="#45B3E9"/>
    <path d="M19.7271 27.3633H17.1816V29.9087H19.7271V27.3633Z" fill="#45B3E9"/>
    <path d="M19.7271 24.8179H17.1816V27.3633H19.7271V24.8179Z" fill="#45B3E9"/>
    <path d="M19.7271 22.2725H17.1816V24.8179H19.7271V22.2725Z" fill="#2986FF"/>
    <path d="M22.273 42.6362H19.7275V45.1817H22.273V42.6362Z" fill="#45B3E9"/>
    <path d="M22.273 45.1816H19.7275V47.7271H22.273V45.1816Z" fill="#2986FF"/>
    <path d="M22.273 40.0908H19.7275V42.6363H22.273V40.0908Z" fill="#45B3E9"/>
    <path d="M22.273 37.5454H19.7275V40.0909H22.273V37.5454Z" fill="#45B3E9"/>
    <path d="M22.273 35H19.7275V37.5455H22.273V35Z" fill="#45B3E9"/>
    <path d="M22.273 32.4546H19.7275V35H22.273V32.4546Z" fill="#45B3E9"/>
    <path d="M22.273 29.9092H19.7275V32.4546H22.273V29.9092Z" fill="#45B3E9"/>
    <path d="M22.273 27.3633H19.7275V29.9087H22.273V27.3633Z" fill="#45B3E9"/>
    <path d="M22.273 24.8179H19.7275V27.3633H22.273V24.8179Z" fill="#45B3E9"/>
    <path d="M22.273 22.2725H19.7275V24.8179H22.273V22.2725Z" fill="#2986FF"/>
    <path d="M24.8184 42.6362H22.2729V45.1817H24.8184V42.6362Z" fill="#45B3E9"/>
    <path d="M24.8184 45.1816H22.2729V47.7271H24.8184V45.1816Z" fill="#2986FF"/>
    <path d="M24.8184 40.0908H22.2729V42.6363H24.8184V40.0908Z" fill="#45B3E9"/>
    <path d="M24.8184 37.5454H22.2729V40.0909H24.8184V37.5454Z" fill="#45B3E9"/>
    <path d="M24.8184 35H22.2729V37.5455H24.8184V35Z" fill="#45B3E9"/>
    <path d="M24.8184 32.4546H22.2729V35H24.8184V32.4546Z" fill="#45B3E9"/>
    <path d="M24.8184 29.9092H22.2729V32.4546H24.8184V29.9092Z" fill="#45B3E9"/>
    <path d="M24.8184 27.3633H22.2729V29.9087H24.8184V27.3633Z" fill="#45B3E9"/>
    <path d="M24.8184 24.8179H22.2729V27.3633H24.8184V24.8179Z" fill="#45B3E9"/>
    <path d="M24.8184 22.2725H22.2729V24.8179H24.8184V22.2725Z" fill="#2986FF"/>
    <path d="M27.3638 42.6362H24.8184V45.1817H27.3638V42.6362Z" fill="#98BA31"/>
    <path d="M27.3638 45.1816H24.8184V47.7271H27.3638V45.1816Z" fill="#98BA31"/>
    <path d="M27.3638 40.0908H24.8184V42.6363H27.3638V40.0908Z" fill="#45B3E9"/>
    <path d="M27.3638 37.5454H24.8184V40.0909H27.3638V37.5454Z" fill="#45B3E9"/>
    <path d="M27.3638 35H24.8184V37.5455H27.3638V35Z" fill="#45B3E9"/>
    <path d="M27.3638 32.4546H24.8184V35H27.3638V32.4546Z" fill="#45B3E9"/>
    <path d="M27.3638 29.9092H24.8184V32.4546H27.3638V29.9092Z" fill="#45B3E9"/>
    <path d="M27.3638 27.3633H24.8184V29.9087H27.3638V27.3633Z" fill="#45B3E9"/>
    <path d="M27.3638 24.8179H24.8184V27.3633H27.3638V24.8179Z" fill="#45B3E9"/>
    <path d="M27.3638 22.2725H24.8184V24.8179H27.3638V22.2725Z" fill="#2986FF"/>
    <path d="M29.9092 42.6362H27.3638V45.1817H29.9092V42.6362Z" fill="#ADDD37"/>
    <path d="M29.9092 45.1816H27.3638V47.7271H29.9092V45.1816Z" fill="#98BA31"/>
    <path d="M29.9092 40.0908H27.3638V42.6363H29.9092V40.0908Z" fill="#98BA31"/>
    <path d="M29.9092 37.5454H27.3638V40.0909H29.9092V37.5454Z" fill="#45B3E9"/>
    <path d="M29.9092 35H27.3638V37.5455H29.9092V35Z" fill="#45B3E9"/>
    <path d="M29.9092 32.4546H27.3638V35H29.9092V32.4546Z" fill="#FFC522"/>
    <path d="M29.9092 29.9092H27.3638V32.4546H29.9092V29.9092Z" fill="#FFC522"/>
    <path d="M29.9092 27.3633H27.3638V29.9087H29.9092V27.3633Z" fill="#71382A"/>
    <path d="M17.1817 17.1816H14.6362V19.7271H17.1817V17.1816Z" fill="white"/>
    <path d="M14.6363 19.7271H12.0908V22.2725H14.6363V19.7271Z" fill="white"/>
    <path d="M12.0909 22.2725H9.54541V24.8179H12.0909V22.2725Z" fill="white"/>
    <path d="M12.0909 24.8179H9.54541V27.3633H12.0909V24.8179Z" fill="white"/>
    <path d="M12.0909 27.3633H9.54541V29.9087H12.0909V27.3633Z" fill="white"/>
    <path d="M12.0909 29.9092H9.54541V32.4546H12.0909V29.9092Z" fill="white"/>
    <path d="M12.0909 32.4546H9.54541V35H12.0909V32.4546Z" fill="white"/>
    <path d="M12.0909 35H9.54541V37.5455H12.0909V35Z" fill="white"/>
    <path d="M12.0909 37.5454H9.54541V40.0909H12.0909V37.5454Z" fill="white"/>
    <path d="M12.0909 40.0908H9.54541V42.6363H12.0909V40.0908Z" fill="white"/>
    <path d="M12.0909 42.6362H9.54541V45.1817H12.0909V42.6362Z" fill="white"/>
    <path d="M12.0909 45.1816H9.54541V47.7271H12.0909V45.1816Z" fill="white"/>
    <path d="M9.54545 45.1816H7V47.7271H9.54545V45.1816Z" fill="white"/>
    <path d="M7.00004 45.1816H4.45459V47.7271H7.00004V45.1816Z" fill="white"/>
    <path d="M7.00004 47.7271H4.45459V50.2725H7.00004V47.7271Z" fill="white"/>
    <path d="M7.00004 50.2725H4.45459V52.8179H7.00004V50.2725Z" fill="white"/>
    <path d="M9.54545 50.2725H7V52.8179H9.54545V50.2725Z" fill="white"/>
    <path d="M9.54545 52.8179H7V55.3633H9.54545V52.8179Z" fill="white"/>
    <path d="M12.0909 52.8179H9.54541V55.3633H12.0909V52.8179Z" fill="white"/>
    <path d="M14.6363 52.8179H12.0908V55.3633H14.6363V52.8179Z" fill="white"/>
    <path d="M17.1817 52.8179H14.6362V55.3633H17.1817V52.8179Z" fill="white"/>
    <path d="M19.7271 52.8179H17.1816V55.3633H19.7271V52.8179Z" fill="white"/>
    <path d="M22.273 52.8179H19.7275V55.3633H22.273V52.8179Z" fill="white"/>
    <path d="M24.8184 52.8179H22.2729V55.3633H24.8184V52.8179Z" fill="white"/>
    <path d="M27.3638 52.8179H24.8184V55.3633H27.3638V52.8179Z" fill="white"/>
    <path d="M29.9092 52.8179H27.3638V55.3633H29.9092V52.8179Z" fill="white"/>
    <path d="M32.4546 52.8179H29.9092V55.3633H32.4546V52.8179Z" fill="white"/>
    <path d="M35 52.8179H32.4546V55.3633H35V52.8179Z" fill="white"/>
    <path d="M37.5455 52.8179H35V55.3633H37.5455V52.8179Z" fill="white"/>
    <path d="M40.0909 52.8179H37.5454V55.3633H40.0909V52.8179Z" fill="white"/>
    <path d="M42.6363 52.8179H40.0908V55.3633H42.6363V52.8179Z" fill="white"/>
    <path d="M45.1817 52.8179H42.6362V55.3633H45.1817V52.8179Z" fill="white"/>
    <path d="M47.7271 52.8179H45.1816V55.3633H47.7271V52.8179Z" fill="white"/>
    <path d="M50.273 52.8179H47.7275V55.3633H50.273V52.8179Z" fill="white"/>
    <path d="M52.8184 52.8179H50.2729V55.3633H52.8184V52.8179Z" fill="white"/>
    <path d="M55.3638 52.8179H52.8184V55.3633H55.3638V52.8179Z" fill="white"/>
    <path d="M57.9092 52.8179H55.3638V55.3633H57.9092V52.8179Z" fill="white"/>
    <path d="M60.4546 52.8179H57.9092V55.3633H60.4546V52.8179Z" fill="white"/>
    <path d="M63 52.8179H60.4546V55.3633H63V52.8179Z" fill="white"/>
    <path d="M63 50.2725H60.4546V52.8179H63V50.2725Z" fill="white"/>
    <path d="M65.5455 50.2725H63V52.8179H65.5455V50.2725Z" fill="white"/>
    <path d="M65.5455 47.7271H63V50.2725H65.5455V47.7271Z" fill="white"/>
    <path d="M65.5455 45.1816H63V47.7271H65.5455V45.1816Z" fill="white"/>
    <path d="M63 45.1816H60.4546V47.7271H63V45.1816Z" fill="white"/>
    <path d="M60.4546 45.1816H57.9092V47.7271H60.4546V45.1816Z" fill="white"/>
    <path d="M60.4546 42.6362H57.9092V45.1817H60.4546V42.6362Z" fill="white"/>
    <path d="M60.4546 40.0908H57.9092V42.6363H60.4546V40.0908Z" fill="white"/>
    <path d="M60.4546 37.5454H57.9092V40.0909H60.4546V37.5454Z" fill="white"/>
    <path d="M60.4546 35H57.9092V37.5455H60.4546V35Z" fill="white"/>
    <path d="M60.4546 32.4546H57.9092V35H60.4546V32.4546Z" fill="white"/>
    <path d="M60.4546 29.9092H57.9092V32.4546H60.4546V29.9092Z" fill="white"/>
    <path d="M60.4546 27.3633H57.9092V29.9087H60.4546V27.3633Z" fill="white"/>
    <path d="M60.4546 24.8179H57.9092V27.3633H60.4546V24.8179Z" fill="white"/>
    <path d="M60.4546 22.2725H57.9092V24.8179H60.4546V22.2725Z" fill="white"/>
    <path d="M57.9092 19.7271H55.3638V22.2725H57.9092V19.7271Z" fill="white"/>
    <path d="M55.3638 17.1816H52.8184V19.7271H55.3638V17.1816Z" fill="white"/>
    <path d="M52.8184 14.6362H50.2729V17.1817H52.8184V14.6362Z" fill="white"/>
    <path d="M50.273 14.6362H47.7275V17.1817H50.273V14.6362Z" fill="white"/>
    <path d="M47.7271 14.6362H45.1816V17.1817H47.7271V14.6362Z" fill="white"/>
    <path d="M45.1817 14.6362H42.6362V17.1817H45.1817V14.6362Z" fill="white"/>
    <path d="M42.6363 14.6362H40.0908V17.1817H42.6363V14.6362Z" fill="white"/>
    <path d="M40.0909 14.6362H37.5454V17.1817H40.0909V14.6362Z" fill="white"/>
    <path d="M37.5455 14.6362H35V17.1817H37.5455V14.6362Z" fill="white"/>
    <path d="M35 14.6362H32.4546V17.1817H35V14.6362Z" fill="white"/>
    <path d="M32.4546 14.6362H29.9092V17.1817H32.4546V14.6362Z" fill="white"/>
    <path d="M29.9092 14.6362H27.3638V17.1817H29.9092V14.6362Z" fill="white"/>
    <path d="M27.3638 14.6362H24.8184V17.1817H27.3638V14.6362Z" fill="white"/>
    <path d="M24.8184 14.6362H22.2729V17.1817H24.8184V14.6362Z" fill="white"/>
    <path d="M22.273 14.6362H19.7275V17.1817H22.273V14.6362Z" fill="white"/>
    <path d="M19.7271 14.6362H17.1816V17.1817H19.7271V14.6362Z" fill="white"/>
    <path d="M29.9092 24.8179H27.3638V27.3633H29.9092V24.8179Z" fill="#45B3E9"/>
    <path d="M29.9092 22.2725H27.3638V24.8179H29.9092V22.2725Z" fill="#2986FF"/>
    <path d="M32.4546 42.6362H29.9092V45.1817H32.4546V42.6362Z" fill="#ADDD37"/>
    <path d="M32.4546 45.1816H29.9092V47.7271H32.4546V45.1816Z" fill="#98BA31"/>
    <path d="M32.4546 40.0908H29.9092V42.6363H32.4546V40.0908Z" fill="#ADDD37"/>
    <path d="M32.4546 37.5454H29.9092V40.0909H32.4546V37.5454Z" fill="#98BA31"/>
    <path d="M32.4546 35H29.9092V37.5455H32.4546V35Z" fill="#FF9605"/>
    <path d="M32.4546 32.4546H29.9092V35H32.4546V32.4546Z" fill="#FF9605"/>
    <path d="M32.4546 29.9092H29.9092V32.4546H32.4546V29.9092Z" fill="black"/>
    <path d="M32.4546 27.3633H29.9092V29.9087H32.4546V27.3633Z" fill="#FFC522"/>
    <path d="M32.4546 24.8179H29.9092V27.3633H32.4546V24.8179Z" fill="#71382A"/>
    <path d="M32.4546 22.2725H29.9092V24.8179H32.4546V22.2725Z" fill="#2986FF"/>
    <path d="M35 42.6362H32.4546V45.1817H35V42.6362Z" fill="#ADDD37"/>
    <path d="M35 45.1816H32.4546V47.7271H35V45.1816Z" fill="#98BA31"/>
    <path d="M35 40.0908H32.4546V42.6363H35V40.0908Z" fill="#ADDD37"/>
    <path d="M35 37.5454H32.4546V40.0909H35V37.5454Z" fill="#98BA31"/>
    <path d="M35 35H32.4546V37.5455H35V35Z" fill="#FF9605"/>
    <path d="M35 32.4546H32.4546V35H35V32.4546Z" fill="#ED1C24"/>
    <path d="M35 29.9092H32.4546V32.4546H35V29.9092Z" fill="#FFC522"/>
    <path d="M35 27.3633H32.4546V29.9087H35V27.3633Z" fill="#FFC522"/>
    <path d="M35 24.8179H32.4546V27.3633H35V24.8179Z" fill="#71382A"/>
    <path d="M35 22.2725H32.4546V24.8179H35V22.2725Z" fill="#2986FF"/>
    <path d="M37.5455 42.6362H35V45.1817H37.5455V42.6362Z" fill="#ADDD37"/>
    <path d="M37.5455 45.1816H35V47.7271H37.5455V45.1816Z" fill="#98BA31"/>
    <path d="M37.5455 40.0908H35V42.6363H37.5455V40.0908Z" fill="#ADDD37"/>
    <path d="M37.5455 37.5454H35V40.0909H37.5455V37.5454Z" fill="#98BA31"/>
    <path d="M37.5455 35H35V37.5455H37.5455V35Z" fill="#FF9605"/>
    <path d="M37.5455 32.4546H35V35H37.5455V32.4546Z" fill="#ED1C24"/>
    <path d="M37.5455 29.9092H35V32.4546H37.5455V29.9092Z" fill="#FFC522"/>
    <path d="M37.5455 27.3633H35V29.9087H37.5455V27.3633Z" fill="#FFC522"/>
    <path d="M37.5455 24.8179H35V27.3633H37.5455V24.8179Z" fill="#71382A"/>
    <path d="M37.5455 22.2725H35V24.8179H37.5455V22.2725Z" fill="#2986FF"/>
    <path d="M40.0909 42.6362H37.5454V45.1817H40.0909V42.6362Z" fill="#ADDD37"/>
    <path d="M40.0909 45.1816H37.5454V47.7271H40.0909V45.1816Z" fill="#98BA31"/>
    <path d="M40.0909 40.0908H37.5454V42.6363H40.0909V40.0908Z" fill="#ADDD37"/>
    <path d="M40.0909 37.5454H37.5454V40.0909H40.0909V37.5454Z" fill="#98BA31"/>
    <path d="M40.0909 35H37.5454V37.5455H40.0909V35Z" fill="#FF9605"/>
    <path d="M40.0909 32.4546H37.5454V35H40.0909V32.4546Z" fill="#FF9605"/>
    <path d="M40.0909 29.9092H37.5454V32.4546H40.0909V29.9092Z" fill="black"/>
    <path d="M40.0909 27.3633H37.5454V29.9087H40.0909V27.3633Z" fill="#FFC522"/>
    <path d="M40.0909 24.8179H37.5454V27.3633H40.0909V24.8179Z" fill="#71382A"/>
    <path d="M40.0909 22.2725H37.5454V24.8179H40.0909V22.2725Z" fill="#2986FF"/>
    <path d="M42.6363 42.6362H40.0908V45.1817H42.6363V42.6362Z" fill="#ADDD37"/>
    <path d="M42.6363 45.1816H40.0908V47.7271H42.6363V45.1816Z" fill="#98BA31"/>
    <path d="M42.6363 40.0908H40.0908V42.6363H42.6363V40.0908Z" fill="#D1FF43"/>
    <path d="M42.6363 37.5454H40.0908V40.0909H42.6363V37.5454Z" fill="#45B3E9"/>
    <path d="M42.6363 35H40.0908V37.5455H42.6363V35Z" fill="#45B3E9"/>
    <path d="M42.6363 32.4546H40.0908V35H42.6363V32.4546Z" fill="#FFC522"/>
    <path d="M42.6363 29.9092H40.0908V32.4546H42.6363V29.9092Z" fill="#FFC522"/>
    <path d="M42.6363 27.3633H40.0908V29.9087H42.6363V27.3633Z" fill="#71382A"/>
    <path d="M42.6363 24.8179H40.0908V27.3633H42.6363V24.8179Z" fill="#45B3E9"/>
    <path d="M42.6363 22.2725H40.0908V24.8179H42.6363V22.2725Z" fill="#2986FF"/>
    <path d="M45.1817 42.6362H42.6362V45.1817H45.1817V42.6362Z" fill="#D1FF43"/>
    <path d="M45.1817 45.1816H42.6362V47.7271H45.1817V45.1816Z" fill="#98BA31"/>
    <path d="M45.1817 40.0908H42.6362V42.6363H45.1817V40.0908Z" fill="#45B3E9"/>
    <path d="M45.1817 37.5454H42.6362V40.0909H45.1817V37.5454Z" fill="#45B3E9"/>
    <path d="M45.1817 35H42.6362V37.5455H45.1817V35Z" fill="#45B3E9"/>
    <path d="M45.1817 32.4546H42.6362V35H45.1817V32.4546Z" fill="#45B3E9"/>
    <path d="M45.1817 29.9092H42.6362V32.4546H45.1817V29.9092Z" fill="#45B3E9"/>
    <path d="M45.1817 27.3633H42.6362V29.9087H45.1817V27.3633Z" fill="#45B3E9"/>
    <path d="M45.1817 24.8179H42.6362V27.3633H45.1817V24.8179Z" fill="#45B3E9"/>
    <path d="M45.1817 22.2725H42.6362V24.8179H45.1817V22.2725Z" fill="#2986FF"/>
    <path d="M47.7271 42.6362H45.1816V45.1817H47.7271V42.6362Z" fill="#45B3E9"/>
    <path d="M47.7271 45.1816H45.1816V47.7271H47.7271V45.1816Z" fill="#2986FF"/>
    <path d="M47.7271 40.0908H45.1816V42.6363H47.7271V40.0908Z" fill="#45B3E9"/>
    <path d="M47.7271 37.5454H45.1816V40.0909H47.7271V37.5454Z" fill="#45B3E9"/>
    <path d="M47.7271 35H45.1816V37.5455H47.7271V35Z" fill="#45B3E9"/>
    <path d="M47.7271 32.4546H45.1816V35H47.7271V32.4546Z" fill="#45B3E9"/>
    <path d="M47.7271 29.9092H45.1816V32.4546H47.7271V29.9092Z" fill="#45B3E9"/>
    <path d="M47.7271 27.3633H45.1816V29.9087H47.7271V27.3633Z" fill="#45B3E9"/>
    <path d="M47.7271 24.8179H45.1816V27.3633H47.7271V24.8179Z" fill="#45B3E9"/>
    <path d="M47.7271 22.2725H45.1816V24.8179H47.7271V22.2725Z" fill="#2986FF"/>
    <path d="M50.273 42.6362H47.7275V45.1817H50.273V42.6362Z" fill="#45B3E9"/>
    <path d="M50.273 45.1816H47.7275V47.7271H50.273V45.1816Z" fill="#2986FF"/>
    <path d="M50.273 40.0908H47.7275V42.6363H50.273V40.0908Z" fill="#45B3E9"/>
    <path d="M50.273 37.5454H47.7275V40.0909H50.273V37.5454Z" fill="#45B3E9"/>
    <path d="M50.273 35H47.7275V37.5455H50.273V35Z" fill="#45B3E9"/>
    <path d="M50.273 32.4546H47.7275V35H50.273V32.4546Z" fill="#45B3E9"/>
    <path d="M50.273 29.9092H47.7275V32.4546H50.273V29.9092Z" fill="#45B3E9"/>
    <path d="M50.273 27.3633H47.7275V29.9087H50.273V27.3633Z" fill="#45B3E9"/>
    <path d="M50.273 24.8179H47.7275V27.3633H50.273V24.8179Z" fill="#45B3E9"/>
    <path d="M50.273 22.2725H47.7275V24.8179H50.273V22.2725Z" fill="#2986FF"/>
    <path d="M52.8184 42.6362H50.2729V45.1817H52.8184V42.6362Z" fill="#45B3E9"/>
    <path d="M52.8184 40.0908H50.2729V42.6363H52.8184V40.0908Z" fill="#45B3E9"/>
    <path d="M52.8184 37.5454H50.2729V40.0909H52.8184V37.5454Z" fill="#45B3E9"/>
    <path d="M52.8184 35H50.2729V37.5455H52.8184V35Z" fill="#45B3E9"/>
    <path d="M52.8184 32.4546H50.2729V35H52.8184V32.4546Z" fill="#45B3E9"/>
    <path d="M52.8184 29.9092H50.2729V32.4546H52.8184V29.9092Z" fill="#45B3E9"/>
    <path d="M52.8184 27.3633H50.2729V29.9087H52.8184V27.3633Z" fill="#45B3E9"/>
    <path d="M52.8184 24.8179H50.2729V27.3633H52.8184V24.8179Z" fill="#45B3E9"/>
    <path d="M52.8184 22.2725H50.2729V24.8179H52.8184V22.2725Z" fill="#2986FF"/>
    <path d="M55.3638 42.6362H52.8184V45.1817H55.3638V42.6362Z" fill="#2986FF"/>
    <path d="M55.3638 45.1816H52.8184V47.7271H55.3638V45.1816Z" fill="#2986FF"/>
    <path d="M55.3638 40.0908H52.8184V42.6363H55.3638V40.0908Z" fill="#2986FF"/>
    <path d="M55.3638 37.5454H52.8184V40.0909H55.3638V37.5454Z" fill="#2986FF"/>
    <path d="M55.3638 35H52.8184V37.5455H55.3638V35Z" fill="#2986FF"/>
    <path d="M55.3638 32.4546H52.8184V35H55.3638V32.4546Z" fill="#2986FF"/>
    <path d="M55.3638 29.9092H52.8184V32.4546H55.3638V29.9092Z" fill="#2986FF"/>
    <path d="M55.3638 27.3633H52.8184V29.9087H55.3638V27.3633Z" fill="#2986FF"/>
    <path d="M55.3638 24.8179H52.8184V27.3633H55.3638V24.8179Z" fill="#2986FF"/>
    <path d="M55.3638 22.2725H52.8184V24.8179H55.3638V22.2725Z" fill="#2986FF"/>
    <path d="M17.1817 19.7271H14.6362V22.2725H17.1817V19.7271Z" fill="black"/>
    <path d="M19.7271 19.7271H17.1816V22.2725H19.7271V19.7271Z" fill="black"/>
    <path d="M22.273 19.7271H19.7275V22.2725H22.273V19.7271Z" fill="black"/>
    <path d="M24.8184 19.7271H22.2729V22.2725H24.8184V19.7271Z" fill="black"/>
    <path d="M27.3638 19.7271H24.8184V22.2725H27.3638V19.7271Z" fill="black"/>
    <path d="M29.9092 19.7271H27.3638V22.2725H29.9092V19.7271Z" fill="black"/>
    <path d="M32.4546 19.7271H29.9092V22.2725H32.4546V19.7271Z" fill="black"/>
    <path d="M35 19.7271H32.4546V22.2725H35V19.7271Z" fill="#333333"/>
    <path d="M37.5455 19.7271H35V22.2725H37.5455V19.7271Z" fill="#1A1A1A"/>
    <path d="M40.0909 19.7271H37.5454V22.2725H40.0909V19.7271Z" fill="black"/>
    <path d="M42.6363 19.7271H40.0908V22.2725H42.6363V19.7271Z" fill="black"/>
    <path d="M45.1817 19.7271H42.6362V22.2725H45.1817V19.7271Z" fill="black"/>
    <path d="M47.7271 19.7271H45.1816V22.2725H47.7271V19.7271Z" fill="black"/>
    <path d="M50.273 19.7271H47.7275V22.2725H50.273V19.7271Z" fill="black"/>
    <path d="M52.8184 19.7271H50.2729V22.2725H52.8184V19.7271Z" fill="black"/>
    <path d="M19.7271 17.1816H17.1816V19.7271H19.7271V17.1816Z" fill="black"/>
    <path d="M22.273 17.1816H19.7275V19.7271H22.273V17.1816Z" fill="black"/>
    <path d="M24.8184 17.1816H22.2729V19.7271H24.8184V17.1816Z" fill="black"/>
    <path d="M27.3638 17.1816H24.8184V19.7271H27.3638V17.1816Z" fill="black"/>
    <path d="M29.9092 17.1816H27.3638V19.7271H29.9092V17.1816Z" fill="black"/>
    <path d="M32.4546 17.1816H29.9092V19.7271H32.4546V17.1816Z" fill="black"/>
    <path d="M35 17.1816H32.4546V19.7271H35V17.1816Z" fill="black"/>
    <path d="M37.5455 17.1816H35V19.7271H37.5455V17.1816Z" fill="black"/>
    <path d="M40.0909 17.1816H37.5454V19.7271H40.0909V17.1816Z" fill="black"/>
    <path d="M42.6363 17.1816H40.0908V19.7271H42.6363V17.1816Z" fill="black"/>
    <path d="M45.1817 17.1816H42.6362V19.7271H45.1817V17.1816Z" fill="black"/>
    <path d="M47.7271 17.1816H45.1816V19.7271H47.7271V17.1816Z" fill="black"/>
    <path d="M50.273 17.1816H47.7275V19.7271H50.273V17.1816Z" fill="black"/>
    <path d="M52.8184 17.1816H50.2729V19.7271H52.8184V17.1816Z" fill="black"/>
    <path d="M55.3638 19.7271H52.8184V22.2725H55.3638V19.7271Z" fill="black"/>
    <path d="M57.9092 22.2725H55.3638V24.8179H57.9092V22.2725Z" fill="black"/>
    <path d="M57.9092 24.8179H55.3638V27.3633H57.9092V24.8179Z" fill="black"/>
    <path d="M57.9092 27.3633H55.3638V29.9087H57.9092V27.3633Z" fill="black"/>
    <path d="M57.9092 29.9092H55.3638V32.4546H57.9092V29.9092Z" fill="black"/>
    <path d="M57.9092 32.4546H55.3638V35H57.9092V32.4546Z" fill="black"/>
    <path d="M57.9092 35H55.3638V37.5455H57.9092V35Z" fill="black"/>
    <path d="M57.9092 37.5454H55.3638V40.0909H57.9092V37.5454Z" fill="black"/>
    <path d="M57.9092 40.0908H55.3638V42.6363H57.9092V40.0908Z" fill="black"/>
    <path d="M57.9092 42.6362H55.3638V45.1817H57.9092V42.6362Z" fill="black"/>
    <path d="M57.9092 45.1816H55.3638V47.7271H57.9092V45.1816Z" fill="black"/>
</svg>
