<svg width="50" height="50" viewBox="0 0 50 50" fill="none" xmlns="http://www.w3.org/2000/svg">
    <g clip-path="url(#clip0_1976_3907)">
        <path d="M4.00098 8H2.00098V10H4.00098V8Z" fill="black"/>
        <path d="M30.0019 8H28.002V9.99992H30.0019V8Z" fill="black"/>
        <path d="M4.00098 10H2.00098V12H4.00098V10Z" fill="black"/>
        <path d="M30.0019 10H28.002V11.9999H30.0019V10Z" fill="black"/>
        <path d="M4.0009 12H2.00098V13.9999H4.0009V12Z" fill="black"/>
        <path d="M30.0019 12H28.002V13.9999H30.0019V12Z" fill="black"/>
        <path d="M4.0009 14H2.00098V15.9999H4.0009V14Z" fill="black"/>
        <path d="M30.0019 14H28.002V15.9999H30.0019V14Z" fill="black"/>
        <path d="M4.0009 16H2.00098V17.9999H4.0009V16Z" fill="black"/>
        <path d="M30.0019 16H28.002V17.9999H30.0019V16Z" fill="black"/>
        <path d="M4.0009 18H2.00098V19.9999H4.0009V18Z" fill="black"/>
        <path d="M30.0019 18H28.002V19.9999H30.0019V18Z" fill="black"/>
        <path d="M4.0009 20H2.00098V21.9999H4.0009V20Z" fill="black"/>
        <path d="M30.0019 20H28.002V21.9999H30.0019V20Z" fill="black"/>
        <path d="M4.0009 22H2.00098V23.9999H4.0009V22Z" fill="black"/>
        <path d="M30.0019 22H28.002V23.9999H30.0019V22Z" fill="black"/>
        <path d="M4.0009 24H2.00098V25.9999H4.0009V24Z" fill="black"/>
        <path d="M30.0019 24H28.002V25.9999H30.0019V24Z" fill="black"/>
        <path d="M4.0009 26H2.00098V27.9999H4.0009V26Z" fill="black"/>
        <path d="M30.0019 26H28.002V27.9999H30.0019V26Z" fill="black"/>
        <path d="M4.0009 28H2.00098V29.9999H4.0009V28Z" fill="black"/>
        <path d="M30.0019 28H28.002V29.9999H30.0019V28Z" fill="black"/>
        <path d="M4.0009 30H2.00098V31.9999H4.0009V30Z" fill="black"/>
        <path d="M6.00187 32H4.00195V33.9999H6.00187V32Z" fill="black"/>
        <path d="M8.00187 32H6.00195V33.9999H8.00187V32Z" fill="black"/>
        <path d="M10.0019 32H8.00195V33.9999H10.0019V32Z" fill="black"/>
        <path d="M10.0019 34H8.00195V35.9999H10.0019V34Z" fill="black"/>
        <path d="M10.0019 36H8.00195V37.9999H10.0019V36Z" fill="black"/>
        <path d="M10.0019 38H8.00195V39.9999H10.0019V38Z" fill="black"/>
        <path d="M12.0019 38H10.002V39.9999H12.0019V38Z" fill="black"/>
        <path d="M14.0019 36H12.002V37.9999H14.0019V36Z" fill="black"/>
        <path d="M16.0009 34H14.001V35.9999H16.0009V34Z" fill="black"/>
        <path d="M18.0029 32H16.003V33.9999H18.0029V32Z" fill="black"/>
        <path d="M20.0019 32H18.002V33.9999H20.0019V32Z" fill="black"/>
        <path d="M22.0009 32H20.001V33.9999H22.0009V32Z" fill="black"/>
        <path d="M22.0009 34H20.001V35.9999H22.0009V34Z" fill="black"/>
        <path d="M23.9999 36H22V37.9999H23.9999V36Z" fill="black"/>
        <path d="M25.9989 36H23.999V37.9999H25.9989V36Z" fill="black"/>
        <path d="M27.9979 36H25.998V37.9999H27.9979V36Z" fill="black"/>
        <path d="M29.9969 36H27.997V37.9999H29.9969V36Z" fill="black"/>
        <path d="M32.0019 36H30.002V37.9999H32.0019V36Z" fill="black"/>
        <path d="M34.0019 36H32.002V37.9999H34.0019V36Z" fill="black"/>
        <path d="M36.0019 38H34.002V39.9999H36.0019V38Z" fill="black"/>
        <path d="M38.0019 40H36.002V41.9999H38.0019V40Z" fill="black"/>
        <path d="M40.0019 42H38.002V43.9999H40.0019V42Z" fill="black"/>
        <path d="M42.0019 42H40.002V43.9999H42.0019V42Z" fill="black"/>
        <path d="M42.0019 40H40.002V41.9999H42.0019V40Z" fill="black"/>
        <path d="M42.0019 38H40.002V39.9999H42.0019V38Z" fill="black"/>
        <path d="M41.9949 36H39.995V37.9999H41.9949V36Z" fill="black"/>
        <path d="M43.9949 36H41.995V37.9999H43.9949V36Z" fill="black"/>
        <path d="M45.9949 36H43.995V37.9999H45.9949V36Z" fill="black"/>
        <path d="M47.9949 34H45.995V35.9999H47.9949V34Z" fill="black"/>
        <path d="M48.0019 32H46.002V33.9999H48.0019V32Z" fill="black"/>
        <path d="M48.0019 30H46.002V31.9999H48.0019V30Z" fill="black"/>
        <path d="M48.0019 28H46.002V29.9999H48.0019V28Z" fill="black"/>
        <path d="M48.0019 26H46.002V27.9999H48.0019V26Z" fill="black"/>
        <path d="M48.0019 24H46.002V25.9999H48.0019V24Z" fill="black"/>
        <path d="M48.0019 22H46.002V23.9999H48.0019V22Z" fill="black"/>
        <path d="M48.0019 20H46.002V21.9999H48.0019V20Z" fill="black"/>
        <path d="M48.0019 18H46.002V19.9999H48.0019V18Z" fill="black"/>
        <path d="M48.0019 16H46.002V17.9999H48.0019V16Z" fill="black"/>
        <path d="M48.0019 14H46.002V15.9999H48.0019V14Z" fill="black"/>
        <path d="M48.0019 12H46.002V13.9999H48.0019V12Z" fill="black"/>
        <path d="M46.0019 10H44.002V11.9999H46.0019V10Z" fill="black"/>
        <path d="M44.0019 10H42.002V11.9999H44.0019V10Z" fill="black"/>
        <path d="M42.0019 10H40.002V11.9999H42.0019V10Z" fill="black"/>
        <path d="M40.0019 10H38.002V11.9999H40.0019V10Z" fill="black"/>
        <path d="M38.0019 10H36.002V11.9999H38.0019V10Z" fill="black"/>
        <path d="M36.0019 10H34.002V11.9999H36.0019V10Z" fill="black"/>
        <path d="M34.0019 10H32.002V11.9999H34.0019V10Z" fill="black"/>
        <path d="M32.0019 10H30.002V11.9999H32.0019V10Z" fill="black"/>
        <path d="M23.9999 32H22V33.9999H23.9999V32Z" fill="black"/>
        <path d="M25.9989 32H23.999V33.9999H25.9989V32Z" fill="black"/>
        <path d="M27.9979 32H25.998V33.9999H27.9979V32Z" fill="black"/>
        <path d="M30.0019 30H28.002V31.9999H30.0019V30Z" fill="black"/>
        <path d="M6.00195 6H4.00195V8H6.00195V6Z" fill="black"/>
        <path d="M8.00195 6H6.00195V8H8.00195V6Z" fill="black"/>
        <path d="M10.0019 6H8.00195V7.99992H10.0019V6Z" fill="black"/>
        <path d="M12.0019 6H10.002V7.99992H12.0019V6Z" fill="black"/>
        <path d="M14.0019 6H12.002V7.99992H14.0019V6Z" fill="black"/>
        <path d="M16.0019 6H14.002V7.99992H16.0019V6Z" fill="black"/>
        <path d="M18.0029 6H16.003V7.99992H18.0029V6Z" fill="black"/>
        <path d="M20.0029 6H18.003V7.99992H20.0029V6Z" fill="black"/>
        <path d="M22.0029 6H20.003V7.99992H22.0029V6Z" fill="black"/>
        <path d="M24.0029 6H22.003V7.99992H24.0029V6Z" fill="black"/>
        <path d="M26.0029 6H24.003V7.99992H26.0029V6Z" fill="black"/>
        <path d="M28.0029 6H26.003V7.99992H28.0029V6Z" fill="black"/>
        <path d="M32.0019 30H30.002V31.9999H32.0019V30Z" fill="#45B3E9"/>
        <path d="M32.0019 32H30.002V33.9999H32.0019V32Z" fill="#2986FF"/>
        <path d="M29.9969 32H27.997V33.9999H29.9969V32Z" fill="#2986FF"/>
        <path d="M32.0019 28H30.002V29.9999H32.0019V28Z" fill="#45B3E9"/>
        <path d="M32.0019 26H30.002V27.9999H32.0019V26Z" fill="#2986FF"/>
        <path d="M32.0019 24H30.002V25.9999H32.0019V24Z" fill="#FF9605"/>
        <path d="M32.0019 22H30.002V23.9999H32.0019V22Z" fill="#FF9605"/>
        <path d="M32.0019 20H30.002V21.9999H32.0019V20Z" fill="black"/>
        <path d="M32.0019 18H30.002V19.9999H32.0019V18Z" fill="#FFC522"/>
        <path d="M32.0019 16H30.002V17.9999H32.0019V16Z" fill="#71382A"/>
        <path d="M34.0019 30H32.002V31.9999H34.0019V30Z" fill="#45B3E9"/>
        <path d="M34.0019 32H32.002V33.9999H34.0019V32Z" fill="#2986FF"/>
        <path d="M34.0019 28H32.002V29.9999H34.0019V28Z" fill="#45B3E9"/>
        <path d="M34.0019 26H32.002V27.9999H34.0019V26Z" fill="#2986FF"/>
        <path d="M34.0019 24H32.002V25.9999H34.0019V24Z" fill="#FF9605"/>
        <path d="M34.0019 22H32.002V23.9999H34.0019V22Z" fill="#ED1C24"/>
        <path d="M34.0019 20H32.002V21.9999H34.0019V20Z" fill="#FFC522"/>
        <path d="M34.0019 18H32.002V19.9999H34.0019V18Z" fill="#FFC522"/>
        <path d="M34.0019 16H32.002V17.9999H34.0019V16Z" fill="#71382A"/>
        <path d="M36.0019 30H34.002V31.9999H36.0019V30Z" fill="#45B3E9"/>
        <path d="M36.0019 32H34.002V33.9999H36.0019V32Z" fill="#2986FF"/>
        <path d="M36.0019 28H34.002V29.9999H36.0019V28Z" fill="#45B3E9"/>
        <path d="M36.0019 26H34.002V27.9999H36.0019V26Z" fill="#2986FF"/>
        <path d="M36.0019 24H34.002V25.9999H36.0019V24Z" fill="#FF9605"/>
        <path d="M36.0019 22H34.002V23.9999H36.0019V22Z" fill="#ED1C24"/>
        <path d="M36.0019 20H34.002V21.9999H36.0019V20Z" fill="#FFC522"/>
        <path d="M36.0019 18H34.002V19.9999H36.0019V18Z" fill="#FFC522"/>
        <path d="M36.0019 16H34.002V17.9999H36.0019V16Z" fill="#71382A"/>
        <path d="M38.0019 30H36.002V31.9999H38.0019V30Z" fill="#45B3E9"/>
        <path d="M38.0019 32H36.002V33.9999H38.0019V32Z" fill="#2986FF"/>
        <path d="M38.0019 28H36.002V29.9999H38.0019V28Z" fill="#45B3E9"/>
        <path d="M38.0019 26H36.002V27.9999H38.0019V26Z" fill="#2986FF"/>
        <path d="M38.0019 24H36.002V25.9999H38.0019V24Z" fill="#FF9605"/>
        <path d="M38.0019 22H36.002V23.9999H38.0019V22Z" fill="#FF9605"/>
        <path d="M38.0019 20H36.002V21.9999H38.0019V20Z" fill="black"/>
        <path d="M38.0019 18H36.002V19.9999H38.0019V18Z" fill="#FFC522"/>
        <path d="M38.0019 16H36.002V17.9999H38.0019V16Z" fill="#71382A"/>
        <path d="M40.0019 30H38.002V31.9999H40.0019V30Z" fill="#45B3E9"/>
        <path d="M40.0019 32H38.002V33.9999H40.0019V32Z" fill="#2986FF"/>
        <path d="M40.0019 28H38.002V29.9999H40.0019V28Z" fill="#82CBE8"/>
        <path d="M40.0019 22H38.002V23.9999H40.0019V22Z" fill="#FFC522"/>
        <path d="M40.0019 20H38.002V21.9999H40.0019V20Z" fill="#FFC522"/>
        <path d="M40.0019 18H38.002V19.9999H40.0019V18Z" fill="#71382A"/>
        <path d="M42.0019 30H40.002V31.9999H42.0019V30Z" fill="#82CBE8"/>
        <path d="M42.0019 32H40.002V33.9999H42.0019V32Z" fill="#2986FF"/>
        <path d="M14.0019 26H12.002V27.9999H14.0019V26Z" fill="#D62F73"/>
        <path d="M14.0019 28H12.002V29.9999H14.0019V28Z" fill="#BD1E55"/>
        <path d="M12.0019 28H10.002V29.9999H12.0019V28Z" fill="#BD1E55"/>
        <path d="M10.0019 28H8.00195V29.9999H10.0019V28Z" fill="#BD1E55"/>
        <path d="M14.0019 24H12.002V25.9999H14.0019V24Z" fill="#D62F73"/>
        <path d="M12.0019 24H10.002V25.9999H12.0019V24Z" fill="#D62F73"/>
        <path d="M14.0019 22H12.002V23.9999H14.0019V22Z" fill="#BD1E55"/>
        <path d="M14.0019 20H12.002V21.9999H14.0019V20Z" fill="#FFC522"/>
        <path d="M14.0019 18H12.002V19.9999H14.0019V18Z" fill="#FFC522"/>
        <path d="M14.0019 16H12.002V17.9999H14.0019V16Z" fill="black"/>
        <path d="M14.0019 14H12.002V15.9999H14.0019V14Z" fill="#FFC522"/>
        <path d="M14.0019 12H12.002V13.9999H14.0019V12Z" fill="black"/>
        <path d="M16.0019 26H14.002V27.9999H16.0019V26Z" fill="#D62F73"/>
        <path d="M10.0019 26H8.00195V27.9999H10.0019V26Z" fill="#D62F73"/>
        <path d="M12.0019 26H10.002V27.9999H12.0019V26Z" fill="#D62F73"/>
        <path d="M16.0019 28H14.002V29.9999H16.0019V28Z" fill="#BD1E55"/>
        <path d="M16.0019 24H14.002V25.9999H16.0019V24Z" fill="#D62F73"/>
        <path d="M16.0019 22H14.002V23.9999H16.0019V22Z" fill="#BD1E55"/>
        <path d="M16.0019 20H14.002V21.9999H16.0019V20Z" fill="#FFC522"/>
        <path d="M16.0019 18H14.002V19.9999H16.0019V18Z" fill="#ED1C24"/>
        <path d="M16.0019 16H14.002V17.9999H16.0019V16Z" fill="#FFC522"/>
        <path d="M16.0019 14H14.002V15.9999H16.0019V14Z" fill="#FFC522"/>
        <path d="M16.0019 12H14.002V13.9999H16.0019V12Z" fill="black"/>
        <path d="M18.0019 26H16.002V27.9999H18.0019V26Z" fill="#D62F73"/>
        <path d="M18.0019 28H16.002V29.9999H18.0019V28Z" fill="#BD1E55"/>
        <path d="M18.0019 24H16.002V25.9999H18.0019V24Z" fill="#D62F73"/>
        <path d="M18.0019 22H16.002V23.9999H18.0019V22Z" fill="#BD1E55"/>
        <path d="M18.0019 20H16.002V21.9999H18.0019V20Z" fill="#FFC522"/>
        <path d="M18.0019 18H16.002V19.9999H18.0019V18Z" fill="#ED1C24"/>
        <path d="M18.0019 16H16.002V17.9999H18.0019V16Z" fill="#FFC522"/>
        <path d="M18.0019 14.001H16.002V16.0009H18.0019V14.001Z" fill="#FFC522"/>
        <path d="M18.0019 12H16.002V13.9999H18.0019V12Z" fill="black"/>
        <path d="M20.0019 26H18.002V27.9999H20.0019V26Z" fill="#D62F73"/>
        <path d="M20.0019 28H18.002V29.9999H20.0019V28Z" fill="#BD1E55"/>
        <path d="M20.0019 24H18.002V25.9999H20.0019V24Z" fill="#D62F73"/>
        <path d="M20.0019 22H18.002V23.9999H20.0019V22Z" fill="#BD1E55"/>
        <path d="M20.0019 20H18.002V21.9999H20.0019V20Z" fill="#FFC522"/>
        <path d="M20.0019 18H18.002V19.9999H20.0019V18Z" fill="#FFC522"/>
        <path d="M20.0019 16.001H18.002V18.0009H20.0019V16.001Z" fill="black"/>
        <path d="M20.0019 14.001H18.002V16.0009H20.0019V14.001Z" fill="#FFC522"/>
        <path d="M20.0019 12H18.002V13.9999H20.0019V12Z" fill="black"/>
        <path d="M18.0019 10H16.002V11.9999H18.0019V10Z" fill="black"/>
        <path d="M16.0019 10H14.002V11.9999H16.0019V10Z" fill="black"/>
        <path d="M14.0019 10H12.002V11.9999H14.0019V10Z" fill="black"/>
        <path d="M12.0019 10H10.002V11.9999H12.0019V10Z" fill="black"/>
        <path d="M12.0019 12H10.002V13.9999H12.0019V12Z" fill="black"/>
        <path d="M10.0019 12H8.00195V13.9999H10.0019V12Z" fill="black"/>
        <path d="M10.0019 14H8.00195V15.9999H10.0019V14Z" fill="black"/>
        <path d="M10.0019 16H8.00195V17.9999H10.0019V16Z" fill="black"/>
        <path d="M10.0019 18H8.00195V19.9999H10.0019V18Z" fill="black"/>
        <path d="M10.0019 20H8.00195V21.9999H10.0019V20Z" fill="black"/>
        <path d="M12.0019 20H10.002V21.9999H12.0019V20Z" fill="black"/>
        <path d="M22.0019 26H20.002V27.9999H22.0019V26Z" fill="#D62F73"/>
        <path d="M22.0019 28H20.002V29.9999H22.0019V28Z" fill="#BD1E55"/>
        <path d="M22.0019 24H20.002V25.9999H22.0019V24Z" fill="#E05080"/>
        <path d="M22.0019 18H20.002V19.9999H22.0019V18Z" fill="#FFC522"/>
        <path d="M22.0019 16.001H20.002V18.0009H22.0019V16.001Z" fill="#FFC522"/>
        <path d="M22.0019 14H20.002V15.9999H22.0019V14Z" fill="black"/>
        <path d="M24.0019 16H22.002V17.9999H24.0019V16Z" fill="black"/>
        <path d="M24.0019 18.001H22.002V20.0009H24.0019V18.001Z" fill="black"/>
        <path d="M24.0019 20.001H22.002V22.0009H24.0019V20.001Z" fill="black"/>
        <path d="M22.0019 20H20.002V21.9999H22.0019V20Z" fill="black"/>
        <path d="M12.0019 18H10.002V19.9999H12.0019V18Z" fill="#FFC522"/>
        <path d="M12.0019 16H10.002V17.9999H12.0019V16Z" fill="#FFC522"/>
        <path d="M12.0019 14H10.002V15.9999H12.0019V14Z" fill="black"/>
        <path d="M24.0019 26.0049H22.002V28.0048H24.0019V26.0049Z" fill="#E05080"/>
        <path d="M24.0019 28H22.002V29.9999H24.0019V28Z" fill="#BD1E55"/>
        <path d="M6.00187 30H4.00195V31.9999H6.00187V30Z" fill="#CCCCCC"/>
        <path d="M8.00187 30H6.00195V31.9999H8.00187V30Z" fill="#CCCCCC"/>
        <path d="M8.00187 28H6.00195V29.9999H8.00187V28Z" fill="#E6E6E6"/>
        <path d="M6.00187 28H4.00195V29.9999H6.00187V28Z" fill="#CCCCCC"/>
        <path d="M6.00187 26H4.00195V27.9999H6.00187V26Z" fill="#CCCCCC"/>
        <path d="M6.00187 24H4.00195V25.9999H6.00187V24Z" fill="#E6E6E6"/>
        <path d="M6.00187 22H4.00195V23.9999H6.00187V22Z" fill="#E6E6E6"/>
        <path d="M6.00187 20H4.00195V21.9999H6.00187V20Z" fill="#F2F2F2"/>
        <path d="M6.00187 18H4.00195V19.9999H6.00187V18Z" fill="#F2F2F2"/>
        <path d="M6.00187 16H4.00195V17.9999H6.00187V16Z" fill="#F2F2F2"/>
        <path d="M6.00187 14H4.00195V15.9999H6.00187V14Z" fill="#F2F2F2"/>
        <path d="M6.00187 12H4.00195V13.9999H6.00187V12Z" fill="#F2F2F2"/>
        <path d="M6.00195 10H4.00195V12H6.00195V10Z" fill="#F2F2F2"/>
        <path d="M6.00195 8.00098H4.00195V10.001H6.00195V8.00098Z" fill="#F2F2F2"/>
        <path d="M8.00195 8.00098H6.00195V10.001H8.00195V8.00098Z" fill="white"/>
        <path d="M4.00098 6H2.00098V8H4.00098V6Z" fill="white"/>
        <path d="M2.0009 8H0.000976562V31.999H2.0009V8Z" fill="white"/>
        <path d="M6.00195 4H4.00195V6H6.00195V4Z" fill="white"/>
        <path d="M8.00195 4H6.00195V6H8.00195V4Z" fill="white"/>
        <path d="M10.0019 4H8.00195V5.99992H10.0019V4Z" fill="white"/>
        <path d="M12.0019 4H10.002V5.99992H12.0019V4Z" fill="white"/>
        <path d="M14.0019 4H12.002V5.99992H14.0019V4Z" fill="white"/>
        <path d="M16.0019 4H14.002V5.99992H16.0019V4Z" fill="white"/>
        <path d="M18.0029 4H16.003V5.99992H18.0029V4Z" fill="white"/>
        <path d="M20.0029 4H18.003V5.99992H20.0029V4Z" fill="white"/>
        <path d="M22.0029 4H20.003V5.99992H22.0029V4Z" fill="white"/>
        <path d="M24.0029 4H22.003V5.99992H24.0029V4Z" fill="white"/>
        <path d="M26.0029 4H24.003V5.99992H26.0029V4Z" fill="white"/>
        <path d="M28.0029 4H26.003V5.99992H28.0029V4Z" fill="white"/>
        <path d="M30.0019 6H28.002V7.99992H30.0019V6Z" fill="white"/>
        <path d="M32.0019 8H30.002V9.99992H32.0019V8Z" fill="white"/>
        <path d="M34.0019 8H32.002V9.99992H34.0019V8Z" fill="white"/>
        <path d="M36.0019 8H34.002V9.99992H36.0019V8Z" fill="white"/>
        <path d="M38.0029 8H36.003V9.99992H38.0029V8Z" fill="white"/>
        <path d="M40.0029 8H38.003V9.99992H40.0029V8Z" fill="white"/>
        <path d="M42.0029 8H40.003V9.99992H42.0029V8Z" fill="white"/>
        <path d="M44.0039 8H42.004V9.99992H44.0039V8Z" fill="white"/>
        <path d="M46.0039 8H44.004V9.99992H46.0039V8Z" fill="white"/>
        <path d="M48.0019 10H46.002V11.9999H48.0019V10Z" fill="white"/>
        <path d="M49.9989 12H47.999V13.9999H49.9989V12Z" fill="white"/>
        <path d="M49.9989 14H47.999V15.9999H49.9989V14Z" fill="white"/>
        <path d="M49.9989 16H47.999V17.9999H49.9989V16Z" fill="white"/>
        <path d="M49.9989 18H47.999V19.9999H49.9989V18Z" fill="white"/>
        <path d="M49.9989 20H47.999V21.9999H49.9989V20Z" fill="white"/>
        <path d="M49.9989 22H47.999V23.9999H49.9989V22Z" fill="white"/>
        <path d="M49.9989 24H47.999V25.9999H49.9989V24Z" fill="white"/>
        <path d="M49.9989 26H47.999V27.9999H49.9989V26Z" fill="white"/>
        <path d="M49.9989 28H47.999V29.9999H49.9989V28Z" fill="white"/>
        <path d="M49.9989 30H47.999V31.9999H49.9989V30Z" fill="white"/>
        <path d="M49.9989 32H47.999V33.9999H49.9989V32Z" fill="white"/>
        <path d="M49.9949 34H47.995V35.9999H49.9949V34Z" fill="white"/>
        <path d="M47.9949 36H45.995V37.9999H47.9949V36Z" fill="white"/>
        <path d="M49.9939 36H47.994V37.9999H49.9939V36Z" fill="white"/>
        <path d="M46.0019 38H44.002V39.9999H46.0019V38Z" fill="white"/>
        <path d="M44.0039 38H42.004V39.9999H44.0039V38Z" fill="white"/>
        <path d="M44.0039 40H42.004V41.9999H44.0039V40Z" fill="white"/>
        <path d="M44.0039 42H42.004V43.9999H44.0039V42Z" fill="white"/>
        <path d="M44.0039 44H42.004V45.9999H44.0039V44Z" fill="white"/>
        <path d="M42.0019 44H40.002V45.9999H42.0019V44Z" fill="white"/>
        <path d="M39.9999 44H38V45.9999H39.9999V44Z" fill="white"/>
        <path d="M37.9969 44H35.997V45.9999H37.9969V44Z" fill="white"/>
        <path d="M38.0019 42H36.002V43.9999H38.0019V42Z" fill="white"/>
        <path d="M36.0019 42H34.002V43.9999H36.0019V42Z" fill="white"/>
        <path d="M36.0019 40H34.002V41.9999H36.0019V40Z" fill="white"/>
        <path d="M34.0019 40H32.002V41.9999H34.0019V40Z" fill="white"/>
        <path d="M34.0019 38H32.002V39.9999H34.0019V38Z" fill="white"/>
        <path d="M22.0009 36H20.001V39.9998H22.0009V36Z" fill="white"/>
        <path d="M19.9999 34H18V37.9998H19.9999V34Z" fill="white"/>
        <path d="M18.0029 34H16.003V37.9998H18.0029V34Z" fill="white"/>
        <path d="M16.0009 36.001H14.001V40.0008H16.0009V36.001Z" fill="white"/>
        <path d="M14.0039 38.001H12.004V42.0008H14.0039V38.001Z" fill="white"/>
        <path d="M12.0018 40.0049H8.00195V42.0048H12.0018V40.0049Z" fill="white"/>
        <path d="M6.00082 34H2.00098V35.9999H6.00082V34Z" fill="white"/>
        <path d="M4.00082 32H0.000976562V33.9999H4.00082V32Z" fill="white"/>
        <path d="M8.00187 34H6.00195V41.9997H8.00187V34Z" fill="white"/>
        <path d="M32.0016 38H22V39.9999H32.0016V38Z" fill="white"/>
        <path d="M48.0019 38H46.002V39.9999H48.0019V38Z" fill="white"/>
        <path d="M10.0019 8.00098H8.00195V10.0009H10.0019V8.00098Z" fill="white"/>
        <path d="M8.00195 10H6.00195V12H8.00195V10Z" fill="white"/>
        <path d="M8.00187 12H6.00195V13.9999H8.00187V12Z" fill="white"/>
        <path d="M8.00187 14H6.00195V15.9999H8.00187V14Z" fill="white"/>
        <path d="M8.00187 15.999H6.00195V17.9989H8.00187V15.999Z" fill="white"/>
        <path d="M8.00187 17.999H6.00195V19.9989H8.00187V17.999Z" fill="white"/>
        <path d="M8.00187 19.999H6.00195V21.9989H8.00187V19.999Z" fill="white"/>
        <path d="M8.00187 21.998H6.00195V23.998H8.00187V21.998Z" fill="white"/>
        <path d="M8.00187 23.998H6.00195V25.998H8.00187V23.998Z" fill="white"/>
        <path d="M10.0019 21.998H8.00195V23.998H10.0019V21.998Z" fill="white"/>
        <path d="M12.0019 21.998H10.002V23.998H12.0019V21.998Z" fill="white"/>
        <path d="M10.0019 23.998H8.00195V25.998H10.0019V23.998Z" fill="white"/>
        <path d="M8.00187 25.998H6.00195V27.998H8.00187V25.998Z" fill="white"/>
        <path d="M10.0019 10H8.00195V11.9999H10.0019V10Z" fill="white"/>
        <path d="M12.0019 8.00098H10.002V10.0009H12.0019V8.00098Z" fill="white"/>
        <path d="M14.0029 8.00098H12.003V10.0009H14.0029V8.00098Z" fill="white"/>
        <path d="M16.0029 8.00098H14.003V10.0009H16.0029V8.00098Z" fill="white"/>
        <path d="M18.0029 8.00098H16.003V10.0009H18.0029V8.00098Z" fill="white"/>
        <path d="M20.0039 8.00098H18.004V10.0009H20.0039V8.00098Z" fill="white"/>
        <path d="M22.0039 8.00098H20.004V10.0009H22.0039V8.00098Z" fill="white"/>
        <path d="M24.0039 8.00098H22.004V10.0009H24.0039V8.00098Z" fill="white"/>
        <path d="M26.0049 8.00098H24.005V10.0009H26.0049V8.00098Z" fill="white"/>
        <path d="M28.0049 8.00098H26.005V10.0009H28.0049V8.00098Z" fill="white"/>
        <path d="M32.0019 12H30.002V13.9999H32.0019V12Z" fill="white"/>
        <path d="M34.0019 12H32.002V13.9999H34.0019V12Z" fill="white"/>
        <path d="M36.0019 12H34.002V13.9999H36.0019V12Z" fill="white"/>
        <path d="M38.0029 12H36.003V13.9999H38.0029V12Z" fill="white"/>
        <path d="M32.0019 14H30.002V15.9999H32.0019V14Z" fill="white"/>
        <path d="M34.0019 14H32.002V15.9999H34.0019V14Z" fill="white"/>
        <path d="M36.0019 14H34.002V15.9999H36.0019V14Z" fill="white"/>
        <path d="M38.0029 14H36.003V15.9999H38.0029V14Z" fill="white"/>
        <path d="M40.0029 12H38.003V13.9999H40.0029V12Z" fill="white"/>
        <path d="M42.0029 12H40.003V13.9999H42.0029V12Z" fill="white"/>
        <path d="M44.0039 12H42.004V13.9999H44.0039V12Z" fill="white"/>
        <path d="M46.0039 12H44.004V13.9999H46.0039V12Z" fill="white"/>
        <path d="M40.0029 14H38.003V15.9999H40.0029V14Z" fill="white"/>
        <path d="M42.0029 14H40.003V15.9999H42.0029V14Z" fill="white"/>
        <path d="M44.0039 14H42.004V15.9999H44.0039V14Z" fill="white"/>
        <path d="M46.0039 14H44.004V15.9999H46.0039V14Z" fill="white"/>
        <path d="M40.0029 16H38.003V17.9999H40.0029V16Z" fill="white"/>
        <path d="M42.0029 16H40.003V17.9999H42.0029V16Z" fill="white"/>
        <path d="M44.0039 16H42.004V17.9999H44.0039V16Z" fill="white"/>
        <path d="M46.0039 16H44.004V17.9999H46.0039V16Z" fill="white"/>
        <path d="M42.0029 18H40.003V19.9999H42.0029V18Z" fill="white"/>
        <path d="M44.0039 18H42.004V19.9999H44.0039V18Z" fill="white"/>
        <path d="M46.0039 18H44.004V19.9999H46.0039V18Z" fill="white"/>
        <path d="M42.0029 20H40.003V21.9999H42.0029V20Z" fill="white"/>
        <path d="M44.0039 20H42.004V21.9999H44.0039V20Z" fill="white"/>
        <path d="M46.0039 20H44.004V21.9999H46.0039V20Z" fill="white"/>
        <path d="M42.0029 22H40.003V23.9999H42.0029V22Z" fill="white"/>
        <path d="M44.0039 22H42.004V23.9999H44.0039V22Z" fill="white"/>
        <path d="M46.0039 22H44.004V23.9999H46.0039V22Z" fill="white"/>
        <path d="M42.0029 24H40.003V25.9999H42.0029V24Z" fill="white"/>
        <path d="M44.0039 24H42.004V25.9999H44.0039V24Z" fill="white"/>
        <path d="M46.0039 24H44.004V25.9999H46.0039V24Z" fill="white"/>
        <path d="M42.0029 26H40.003V27.9999H42.0029V26Z" fill="white"/>
        <path d="M40.0029 24H38.003V25.9999H40.0029V24Z" fill="white"/>
        <path d="M40.0029 26H38.003V27.9999H40.0029V26Z" fill="white"/>
        <path d="M44.0039 26H42.004V27.9999H44.0039V26Z" fill="white"/>
        <path d="M46.0039 26H44.004V27.9999H46.0039V26Z" fill="white"/>
        <path d="M42.0029 28H40.003V29.9999H42.0029V28Z" fill="white"/>
        <path d="M44.0039 28H42.004V29.9999H44.0039V28Z" fill="white"/>
        <path d="M46.0039 28H44.004V29.9999H46.0039V28Z" fill="white"/>
        <path d="M44.0039 30H42.004V31.9999H44.0039V30Z" fill="white"/>
        <path d="M46.0039 30H44.004V31.9999H46.0039V30Z" fill="white"/>
        <path d="M44.0039 32H42.004V33.9999H44.0039V32Z" fill="white"/>
        <path d="M46.0039 32H44.004V33.9999H46.0039V32Z" fill="white"/>
        <path d="M44.0039 34H42.004V35.9999H44.0039V34Z" fill="white"/>
        <path d="M45.9949 34H43.995V35.9999H45.9949V34Z" fill="white"/>
        <path d="M39.9979 34H37.998V35.9999H39.9979V34Z" fill="white"/>
        <path d="M41.9979 34H39.998V35.9999H41.9979V34Z" fill="white"/>
        <path d="M35.9944 34H22.002V35.9999H35.9944V34Z" fill="white"/>
        <path d="M37.9949 34H35.995V35.9999H37.9949V34Z" fill="white"/>
        <path d="M39.9949 36H37.995V37.9999H39.9949V36Z" fill="white"/>
        <path d="M36.0019 36H34.002V37.9999H36.0019V36Z" fill="white"/>
        <path d="M37.9949 36H35.995V37.9999H37.9949V36Z" fill="white"/>
        <path d="M39.9979 38H37.998V39.9999H39.9979V38Z" fill="white"/>
        <path d="M40.0019 40H38.002V41.9999H40.0019V40Z" fill="white"/>
        <path d="M38.0019 38H36.002V39.9999H38.0019V38Z" fill="white"/>
        <path d="M20.0039 10H18.004V11.9999H20.0039V10Z" fill="white"/>
        <path d="M22.0039 10H20.004V11.9999H22.0039V10Z" fill="white"/>
        <path d="M24.0039 10H22.004V11.9999H24.0039V10Z" fill="white"/>
        <path d="M26.0049 10H24.005V11.9999H26.0049V10Z" fill="white"/>
        <path d="M28.0049 10H26.005V11.9999H28.0049V10Z" fill="white"/>
        <path d="M22.0039 12H20.004V13.9999H22.0039V12Z" fill="white"/>
        <path d="M24.0039 12H22.004V13.9999H24.0039V12Z" fill="white"/>
        <path d="M26.0049 12H24.005V13.9999H26.0049V12Z" fill="white"/>
        <path d="M28.0049 12H26.005V13.9999H28.0049V12Z" fill="white"/>
        <path d="M24.0039 14H22.004V15.9999H24.0039V14Z" fill="white"/>
        <path d="M26.0049 14H24.005V15.9999H26.0049V14Z" fill="white"/>
        <path d="M28.0049 14H26.005V15.9999H28.0049V14Z" fill="white"/>
        <path d="M26.0049 16H24.005V17.9999H26.0049V16Z" fill="white"/>
        <path d="M28.0049 16H26.005V17.9999H28.0049V16Z" fill="white"/>
        <path d="M26.0049 18H24.005V19.9999H26.0049V18Z" fill="white"/>
        <path d="M28.0049 18H26.005V19.9999H28.0049V18Z" fill="white"/>
        <path d="M26.0049 20H24.005V21.9999H26.0049V20Z" fill="white"/>
        <path d="M28.0049 20H26.005V21.9999H28.0049V20Z" fill="white"/>
        <path d="M26.0049 22H24.005V23.9999H26.0049V22Z" fill="white"/>
        <path d="M28.0049 22H26.005V23.9999H28.0049V22Z" fill="white"/>
        <path d="M26.0049 24H24.005V25.9999H26.0049V24Z" fill="white"/>
        <path d="M28.0049 24H26.005V25.9999H28.0049V24Z" fill="white"/>
        <path d="M22.0039 22H20.004V23.9999H22.0039V22Z" fill="white"/>
        <path d="M24.0039 22H22.004V23.9999H24.0039V22Z" fill="white"/>
        <path d="M24.0039 24H22.004V25.9999H24.0039V24Z" fill="white"/>
        <path d="M26.0049 26H24.005V27.9999H26.0049V26Z" fill="white"/>
        <path d="M28.0049 26H26.005V27.9999H28.0049V26Z" fill="white"/>
        <path d="M26.0049 28H24.005V29.9999H26.0049V28Z" fill="white"/>
        <path d="M28.0049 28H26.005V29.9999H28.0049V28Z" fill="white"/>
        <path d="M26.0049 30H24.005V31.9999H26.0049V30Z" fill="white"/>
        <path d="M28.0049 30H26.005V31.9999H28.0049V30Z" fill="white"/>
        <path d="M22.0039 30H20.004V31.9999H22.0039V30Z" fill="white"/>
        <path d="M24.0049 30H22.005V31.9999H24.0049V30Z" fill="white"/>
        <path d="M18.0039 30H16.004V31.9999H18.0039V30Z" fill="white"/>
        <path d="M20.0039 30H18.004V31.9999H20.0039V30Z" fill="white"/>
        <path d="M14.0039 30H12.004V31.9999H14.0039V30Z" fill="white"/>
        <path d="M16.0039 30H14.004V31.9999H16.0039V30Z" fill="white"/>
        <path d="M14.0039 32H12.004V33.9999H14.0039V32Z" fill="white"/>
        <path d="M14.0039 34H12.004V35.9999H14.0039V34Z" fill="white"/>
        <path d="M16.0039 32H14.004V33.9999H16.0039V32Z" fill="white"/>
        <path d="M10.0019 30H8.00195V31.9999H10.0019V30Z" fill="#E6E6E6"/>
        <path d="M12.0019 32H10.002V33.9999H12.0019V32Z" fill="#CCCCCC"/>
        <path d="M12.0019 30H10.002V31.9999H12.0019V30Z" fill="#E6E6E6"/>
        <path d="M12.0019 34H10.002V35.9999H12.0019V34Z" fill="#CCCCCC"/>
        <path d="M12.0019 35.9961H10.002V37.996H12.0019V35.9961Z" fill="#CCCCCC"/>
    </g>
    <defs>
        <clipPath id="clip0_1976_3907">
            <rect width="49.998" height="42" fill="white" transform="translate(0.000976562 4)"/>
        </clipPath>
    </defs>
</svg>
