<svg width="50" height="50" viewBox="0 0 50 50" fill="none" xmlns="http://www.w3.org/2000/svg">
    <path d="M45.9998 18.3638H43.6665V30.0304H45.9998V18.3638Z" fill="white"/>
    <path d="M25.0001 27.6973H22.6667V30.0306H25.0001V27.6973Z" fill="black"/>
    <path d="M22.6666 30.0303H20.3333V32.3636H22.6666V30.0303Z" fill="black"/>
    <path d="M20.3333 13.6968H18V16.0301H20.3333V13.6968Z" fill="#A8CFD7"/>
    <path d="M29.6561 13.6968H20.3333V16.0301H29.6561V13.6968Z" fill="white"/>
    <path d="M36.6621 20.6973H15.6667V25.3639H36.6621V20.6973Z" fill="white"/>
    <path d="M18.0001 13.6968H15.6667V16.0301H18.0001V13.6968Z" fill="#CFF4FF"/>
    <path d="M15.6667 13.6968H11V32.3634H15.6667V13.6968Z" fill="white"/>
    <path d="M20.3333 16.0308H18V18.3641H20.3333V16.0308Z" fill="#CFF4FF"/>
    <path d="M31.9896 16.0308H29.6562V18.3641H31.9896V16.0308Z" fill="#CFF4FF"/>
    <path d="M34.3231 16.0308H31.9897V18.3641H34.3231V16.0308Z" fill="#CFF4FF"/>
    <path d="M34.3231 37.0303H31.9897V39.3636H34.3231V37.0303Z" fill="#CFF4FF"/>
    <path d="M34.3231 32.3638H31.9897V37.0304H34.3231V32.3638Z" fill="white"/>
    <path d="M25.0001 25.3638H22.6667V27.6971H25.0001V25.3638Z" fill="#A8CFD7"/>
    <path d="M22.6644 27.6948H20.3311V30.0282H22.6644V27.6948Z" fill="#A8CFD7"/>
    <path d="M20.3333 30.0303H18V32.3636H20.3333V30.0303Z" fill="#A8CFD7"/>
    <path d="M15.6666 39.3638H13.3333V41.6971H15.6666V39.3638Z" fill="#A8CFD7"/>
    <path d="M18.0001 32.3638H15.6667V39.3638H18.0001V32.3638Z" fill="#A8CFD7"/>
    <path d="M36.6607 16.0308H34.3274V18.3641H36.6607V16.0308Z" fill="#CFF4FF"/>
    <path d="M38.9998 16.0308H36.6665V18.3641H38.9998V16.0308Z" fill="#A8CFD7"/>
    <path d="M41.3333 18.3638H39V30.0304H41.3333V18.3638Z" fill="#A8CFD7"/>
    <path d="M38.9998 23.0303H36.6665V34.6969H38.9998V23.0303Z" fill="#CFF4FF"/>
    <path d="M36.6666 30.0303H34.3333V41.6969H36.6666V30.0303Z" fill="#CFF4FF"/>
    <path d="M36.6666 11.3638H34.3333V13.6971H36.6666V11.3638Z" fill="#A8CFD7"/>
    <path d="M36.6666 13.6968H34.3333V16.0301H36.6666V13.6968Z" fill="#CFF4FF"/>
    <path d="M36.6666 18.3638H34.3333V20.6971H36.6666V18.3638Z" fill="#CFF4FF"/>
    <path d="M38.9998 18.3638H36.6665V20.6971H38.9998V18.3638Z" fill="#CFF4FF"/>
    <path d="M34.3333 11.3638H32V13.6971H34.3333V11.3638Z" fill="#CFF4FF"/>
    <path d="M34.3333 13.6968H32V16.0301H34.3333V13.6968Z" fill="white"/>
    <path d="M10.9998 11.3638H8.6665V13.6971H10.9998V11.3638Z" fill="white"/>
    <path d="M41.3333 11.3638H39V13.6971H41.3333V11.3638Z" fill="white"/>
    <path d="M13.3333 9.03076H11V11.3641H13.3333V9.03076Z" fill="white"/>
    <path d="M39.0103 9.03076H36.677V11.3641H39.0103V9.03076Z" fill="white"/>
    <path d="M15.6666 6.69678H13.3333V9.03011H15.6666V6.69678Z" fill="white"/>
    <path d="M36.6666 6.69678H34.3333V9.03011H36.6666V6.69678Z" fill="white"/>
    <path d="M27.3334 6.69678H22.6667V9.03011H27.3334V6.69678Z" fill="white"/>
    <path d="M22.6609 4.36377H15.6667V6.6971H22.6609V4.36377Z" fill="white"/>
    <path d="M34.3299 4.36377H27.3357V6.6971H34.3299V4.36377Z" fill="white"/>
    <path d="M18.0001 16.0308H15.6667V20.6974H18.0001V16.0308Z" fill="white"/>
    <path d="M18.0001 25.3638H15.6667V30.0281H18.0001V25.3638Z" fill="white"/>
    <path d="M20.3333 18.3638H18V20.6971H20.3333V18.3638Z" fill="white"/>
    <path d="M13.3333 32.3696H11V34.703H13.3333V32.3696Z" fill="white"/>
    <path d="M13.3333 41.6973H11V44.0306H13.3333V41.6973Z" fill="white"/>
    <path d="M10.9998 41.6973H8.6665V44.0306H10.9998V41.6973Z" fill="white"/>
    <path d="M13.3333 44.0303H11V46.3636H13.3333V44.0303Z" fill="white"/>
    <path d="M20.3333 44.0303H18V46.3636H20.3333V44.0303Z" fill="white"/>
    <path d="M22.6666 39.3638H20.3333V41.6971H22.6666V39.3638Z" fill="white"/>
    <path d="M24.9976 34.6992H22.6643V37.0325H24.9976V34.6992Z" fill="white"/>
    <path d="M27.3311 34.6992H24.9978V37.0325H27.3311V34.6992Z" fill="white"/>
    <path d="M29.6666 39.3638H27.3333V41.6971H29.6666V39.3638Z" fill="white"/>
    <path d="M31.9976 44.0303H29.6643V46.3636H31.9976V44.0303Z" fill="white"/>
    <path d="M38.9998 44.0303H36.6665V46.3636H38.9998V44.0303Z" fill="white"/>
    <path d="M41.3333 41.6973H39V44.0306H41.3333V41.6973Z" fill="white"/>
    <path d="M43.6668 34.6992H41.3335V37.0325H43.6668V34.6992Z" fill="white"/>
    <path d="M8.66683 34.6973H6.3335V37.0306H8.66683V34.6973Z" fill="white"/>
    <path d="M6.33333 30.0303H4V32.3636H6.33333V30.0303Z" fill="white"/>
    <path d="M45.9998 30.0303H43.6665V32.3636H45.9998V30.0303Z" fill="white"/>
    <path d="M38.9998 41.6973H36.6665V44.0306H38.9998V41.6973Z" fill="white"/>
    <path d="M20.3333 39.3638H18V44.0304H20.3333V39.3638Z" fill="white"/>
    <path d="M31.9976 39.3638H29.6643V44.0304H31.9976V39.3638Z" fill="white"/>
    <path d="M22.6666 34.6973H20.3333V39.3639H22.6666V34.6973Z" fill="white"/>
    <path d="M29.6666 34.6973H27.3333V39.3639H29.6666V34.6973Z" fill="white"/>
    <path d="M27.3334 30.0361H22.6667V34.7028H27.3334V30.0361Z" fill="white"/>
    <path d="M17.9999 44.0303H13.3333V46.3636H17.9999V44.0303Z" fill="white"/>
    <path d="M36.6667 44.0303H32V46.3636H36.6667V44.0303Z" fill="white"/>
    <path d="M20.3333 25.3638H18V27.6971H20.3333V25.3638Z" fill="white"/>
    <path d="M6.33333 18.3638H4V30.0304H6.33333V18.3638Z" fill="white"/>
    <path d="M8.66683 13.6968H6.3335V18.3634H8.66683V13.6968Z" fill="white"/>
    <path d="M43.6668 13.6968H41.3335V18.3634H43.6668V13.6968Z" fill="white"/>
    <path d="M43.6668 30.0303H41.3335V34.6969H43.6668V30.0303Z" fill="white"/>
    <path d="M8.66683 30.0303H6.3335V34.6969H8.66683V30.0303Z" fill="white"/>
    <path d="M41.3333 34.6973H39V41.6973H41.3333V34.6973Z" fill="white"/>
    <path d="M10.9998 34.6973H8.6665V41.6973H10.9998V34.6973Z" fill="white"/>
    <path d="M10.9998 18.3638H8.6665V30.0281H10.9998V18.3638Z" fill="white"/>
    <path d="M38.9998 20.6973H36.6665V23.0306H38.9998V20.6973Z" fill="white"/>
    <path d="M34.3334 18.3638H29.6667V20.6971H34.3334V18.3638Z" fill="white"/>
    <path d="M34.3334 30.0303H29.6667V32.3636H34.3334V30.0303Z" fill="white"/>
    <path d="M36.6666 27.6948H27.3333V30.0282H36.6666V27.6948Z" fill="white"/>
    <path d="M36.6609 25.3638H25V27.6971H36.6609V25.3638Z" fill="white"/>
    <path d="M38.9998 13.6968H36.6665V16.0301H38.9998V13.6968Z" fill="#A8CFD7"/>
    <path d="M34.3228 9.03076H27.3333V11.3641H34.3228V9.03076Z" fill="#CFF4FF"/>
    <path d="M22.6609 9.03076H15.6714V11.3641H22.6609V9.03076Z" fill="white"/>
    <path d="M31.9999 11.3638H13.3333V13.6971H31.9999V11.3638Z" fill="white"/>
    <path d="M29.6666 18.3638H20.3333V20.6971H29.6666V18.3638Z" fill="#CFF4FF"/>
    <path d="M22.6666 16.0308H20.3333V18.3641H22.6666V16.0308Z" fill="#A8CFD7"/>
    <path d="M25.0001 16.0308H22.6667V18.3641H25.0001V16.0308Z" fill="#A8CFD7"/>
    <path d="M27.3333 16.0308H25V18.3641H27.3333V16.0308Z" fill="#A8CFD7"/>
    <path d="M29.6666 16.0308H27.3333V18.3641H29.6666V16.0308Z" fill="#A8CFD7"/>
    <path d="M32.0001 13.6968H29.6667V16.0301H32.0001V13.6968Z" fill="#A8CFD7"/>
    <path d="M22.6666 32.3638H20.3333V34.6971H22.6666V32.3638Z" fill="black"/>
    <path d="M20.3333 32.3638H18V34.6971H20.3333V32.3638Z" fill="black"/>
    <path d="M20.3333 34.6973H18V37.0306H20.3333V34.6973Z" fill="black"/>
    <path d="M20.3333 37.0303H18V39.3636H20.3333V37.0303Z" fill="black"/>
    <path d="M18.0001 41.6973H15.6667V44.0306H18.0001V41.6973Z" fill="black"/>
    <path d="M18.0001 39.3638H15.6667V41.6971H18.0001V39.3638Z" fill="black"/>
    <path d="M15.6666 41.6973H13.3333V44.0306H15.6666V41.6973Z" fill="black"/>
    <path d="M15.6666 9.03076H13.3333V11.3641H15.6666V9.03076Z" fill="black"/>
    <path d="M36.6666 9.03076H34.3333V11.3641H36.6666V9.03076Z" fill="black"/>
    <path d="M27.3334 9.03076H22.6667V11.3641H27.3334V9.03076Z" fill="black"/>
    <path d="M22.6667 6.69678H15.6667V9.03011H22.6667V6.69678Z" fill="black"/>
    <path d="M34.3332 6.69678H27.3333V9.03011H34.3332V6.69678Z" fill="black"/>
    <path d="M13.3333 11.3638H11V13.6971H13.3333V11.3638Z" fill="black"/>
    <path d="M38.9998 11.3638H36.6665V13.6971H38.9998V11.3638Z" fill="black"/>
    <path d="M13.3333 39.3638H11V41.6971H13.3333V39.3638Z" fill="black"/>
    <path d="M13.3333 34.6973H11V39.3639H13.3333V34.6973Z" fill="black"/>
    <path d="M38.9998 34.6973H36.6665V39.3639H38.9998V34.6973Z" fill="black"/>
    <path d="M10.9998 30.0303H8.6665V34.6969H10.9998V30.0303Z" fill="black"/>
    <path d="M10.9998 13.6968H8.6665V18.3634H10.9998V13.6968Z" fill="black"/>
    <path d="M41.3333 13.6968H39V18.3634H41.3333V13.6968Z" fill="black"/>
    <path d="M8.66683 18.3638H6.3335V30.0304H8.66683V18.3638Z" fill="black"/>
    <path d="M43.6668 18.3638H41.3335V30.0304H43.6668V18.3638Z" fill="black"/>
    <path d="M41.3333 30.0303H39V34.6969H41.3333V30.0303Z" fill="black"/>
    <path d="M38.9998 39.3638H36.6665V41.6971H38.9998V39.3638Z" fill="black"/>
    <path d="M32.0001 34.6973H29.6667V37.0306H32.0001V34.6973Z" fill="black"/>
    <path d="M32.0001 37.0303H29.6667V39.3636H32.0001V37.0303Z" fill="black"/>
    <path d="M34.3333 39.3638H32V41.6971H34.3333V39.3638Z" fill="black"/>
    <path d="M34.3333 41.6973H32V44.0306H34.3333V41.6973Z" fill="black"/>
    <path d="M36.6666 41.6973H34.3333V44.0306H36.6666V41.6973Z" fill="black"/>
    <path d="M32.0001 32.3638H29.6667V34.6971H32.0001V32.3638Z" fill="black"/>
    <path d="M29.6666 30.0303H27.3333V32.3636H29.6666V30.0303Z" fill="black"/>
    <path d="M29.6666 32.3638H27.3333V34.6971H29.6666V32.3638Z" fill="black"/>
    <path d="M27.3333 27.6973H25V30.0306H27.3333V27.6973Z" fill="black"/>
    <path d="M38.9998 30.0303H36.6665V34.6969H38.9998V30.0303Z" fill="#A8CFD7"/>
    <path d="M36.6666 37.0303H34.3333V41.6969H36.6666V37.0303Z" fill="#A8CFD7"/>
    <path d="M22.6644 25.3638H20.3311V27.6971H22.6644V25.3638Z" fill="#CFF4FF"/>
    <path d="M20.3333 27.6973H18V30.0306H20.3333V27.6973Z" fill="#CFF4FF"/>
    <path d="M18.0001 30.0303H15.6667V32.3636H18.0001V30.0303Z" fill="#CFF4FF"/>
    <path d="M15.6666 32.3638H13.3333V39.3638H15.6666V32.3638Z" fill="#CFF4FF"/>
</svg>
