<svg width="70" height="70" viewBox="0 0 70 70" fill="none" xmlns="http://www.w3.org/2000/svg">
    <path d="M9.54936 56.6367H7.00391V59.1822H9.54936V56.6367Z" fill="black"/>
    <path d="M12.0948 56.6367H9.54932V59.1822H12.0948V56.6367Z" fill="black"/>
    <path d="M14.6402 56.6367H12.0947V59.1822H14.6402V56.6367Z" fill="black"/>
    <path d="M17.1858 56.6367H14.6404V59.1822H17.1858V56.6367Z" fill="black"/>
    <path d="M19.7312 56.6367H17.1858V59.1822H19.7312V56.6367Z" fill="black"/>
    <path d="M22.2767 56.6367H19.7312V59.1822H22.2767V56.6367Z" fill="black"/>
    <path d="M24.8221 56.6367H22.2766V59.1822H24.8221V56.6367Z" fill="black"/>
    <path d="M27.3675 56.6367H24.822V59.1822H27.3675V56.6367Z" fill="black"/>
    <path d="M29.9129 56.6367H27.3674V59.1822H29.9129V56.6367Z" fill="black"/>
    <path d="M32.4585 56.6367H29.9131V59.1822H32.4585V56.6367Z" fill="black"/>
    <path d="M35.004 56.6367H32.4585V59.1822H35.004V56.6367Z" fill="black"/>
    <path d="M37.5494 56.6367H35.0039V59.1822H37.5494V56.6367Z" fill="black"/>
    <path d="M40.0948 56.6367H37.5493V59.1822H40.0948V56.6367Z" fill="black"/>
    <path d="M42.6402 56.6367H40.0947V59.1822H42.6402V56.6367Z" fill="black"/>
    <path d="M45.1858 56.6367H42.6404V59.1822H45.1858V56.6367Z" fill="black"/>
    <path d="M47.7312 56.6367H45.1858V59.1822H47.7312V56.6367Z" fill="black"/>
    <path d="M50.2767 56.6367H47.7312V59.1822H50.2767V56.6367Z" fill="black"/>
    <path d="M52.8221 56.6367H50.2766V59.1822H52.8221V56.6367Z" fill="black"/>
    <path d="M55.3675 56.6367H52.822V59.1822H55.3675V56.6367Z" fill="black"/>
    <path d="M57.9129 56.6367H55.3674V59.1822H57.9129V56.6367Z" fill="black"/>
    <path d="M60.4585 56.6367H57.9131V59.1822H60.4585V56.6367Z" fill="black"/>
    <path d="M63.004 56.6367H60.4585V59.1822H63.004V56.6367Z" fill="black"/>
    <path d="M65.5494 54.0913H63.0039V56.6368H65.5494V54.0913Z" fill="black"/>
    <path d="M65.5494 51.5459H63.0039V54.0914H65.5494V51.5459Z" fill="black"/>
    <path d="M63.004 49H60.4585V51.5455H63.004V49Z" fill="black"/>
    <path d="M63.004 46.4546H60.4585V49H63.004V46.4546Z" fill="black"/>
    <path d="M60.4585 43.9092H57.9131V46.4546H60.4585V43.9092Z" fill="black"/>
    <path d="M60.4585 41.3638H57.9131V43.9092H60.4585V41.3638Z" fill="black"/>
    <path d="M63.004 54.0913H60.4585V56.6368H63.004V54.0913Z" fill="#333333"/>
    <path d="M63.004 51.5459H60.4585V54.0914H63.004V51.5459Z" fill="#333333"/>
    <path d="M60.4585 54.0913H57.9131V56.6368H60.4585V54.0913Z" fill="#333333"/>
    <path d="M60.4585 51.5459H57.9131V54.0914H60.4585V51.5459Z" fill="#333333"/>
    <path d="M57.9129 54.0913H55.3674V56.6368H57.9129V54.0913Z" fill="#333333"/>
    <path d="M57.9129 51.5459H55.3674V54.0914H57.9129V51.5459Z" fill="#333333"/>
    <path d="M55.3675 54.0913H52.822V56.6368H55.3675V54.0913Z" fill="#333333"/>
    <path d="M55.3675 51.5459H52.822V54.0914H55.3675V51.5459Z" fill="#333333"/>
    <path d="M52.8221 54.0913H50.2766V56.6368H52.8221V54.0913Z" fill="#333333"/>
    <path d="M52.8221 51.5459H50.2766V54.0914H52.8221V51.5459Z" fill="#333333"/>
    <path d="M50.2767 54.0913H47.7312V56.6368H50.2767V54.0913Z" fill="#333333"/>
    <path d="M50.2767 51.5459H47.7312V54.0914H50.2767V51.5459Z" fill="#333333"/>
    <path d="M47.7312 54.0913H45.1858V56.6368H47.7312V54.0913Z" fill="#333333"/>
    <path d="M47.7312 51.5459H45.1858V54.0914H47.7312V51.5459Z" fill="#333333"/>
    <path d="M45.1858 54.0913H42.6404V56.6368H45.1858V54.0913Z" fill="#333333"/>
    <path d="M45.1858 51.5459H42.6404V54.0914H45.1858V51.5459Z" fill="#333333"/>
    <path d="M42.6402 54.0913H40.0947V56.6368H42.6402V54.0913Z" fill="#333333"/>
    <path d="M42.6402 51.5459H40.0947V54.0914H42.6402V51.5459Z" fill="#333333"/>
    <path d="M40.0948 54.0913H37.5493V56.6368H40.0948V54.0913Z" fill="#333333"/>
    <path d="M40.0948 51.5459H37.5493V54.0914H40.0948V51.5459Z" fill="#333333"/>
    <path d="M37.5494 54.0913H35.0039V56.6368H37.5494V54.0913Z" fill="#333333"/>
    <path d="M37.5494 51.5459H35.0039V54.0914H37.5494V51.5459Z" fill="#333333"/>
    <path d="M35.004 54.0913H32.4585V56.6368H35.004V54.0913Z" fill="#333333"/>
    <path d="M35.004 51.5459H32.4585V54.0914H35.004V51.5459Z" fill="#333333"/>
    <path d="M32.4585 54.0913H29.9131V56.6368H32.4585V54.0913Z" fill="#333333"/>
    <path d="M32.4585 51.5459H29.9131V54.0914H32.4585V51.5459Z" fill="#333333"/>
    <path d="M29.9129 54.0913H27.3674V56.6368H29.9129V54.0913Z" fill="#333333"/>
    <path d="M29.9129 51.5459H27.3674V54.0914H29.9129V51.5459Z" fill="#333333"/>
    <path d="M27.3675 54.0913H24.822V56.6368H27.3675V54.0913Z" fill="#333333"/>
    <path d="M27.3675 51.5459H24.822V54.0914H27.3675V51.5459Z" fill="#333333"/>
    <path d="M24.8221 54.0913H22.2766V56.6368H24.8221V54.0913Z" fill="#333333"/>
    <path d="M24.8221 51.5459H22.2766V54.0914H24.8221V51.5459Z" fill="#333333"/>
    <path d="M22.2767 54.0913H19.7312V56.6368H22.2767V54.0913Z" fill="#333333"/>
    <path d="M22.2767 51.5459H19.7312V54.0914H22.2767V51.5459Z" fill="#333333"/>
    <path d="M19.7312 54.0913H17.1858V56.6368H19.7312V54.0913Z" fill="#333333"/>
    <path d="M19.7312 51.5459H17.1858V54.0914H19.7312V51.5459Z" fill="#333333"/>
    <path d="M17.1858 54.0913H14.6404V56.6368H17.1858V54.0913Z" fill="#333333"/>
    <path d="M17.1858 51.5459H14.6404V54.0914H17.1858V51.5459Z" fill="#333333"/>
    <path d="M14.6402 54.0913H12.0947V56.6368H14.6402V54.0913Z" fill="#333333"/>
    <path d="M14.6402 51.5459H12.0947V54.0914H14.6402V51.5459Z" fill="#333333"/>
    <path d="M12.0948 54.0913H9.54932V56.6368H12.0948V54.0913Z" fill="#333333"/>
    <path d="M12.0948 51.5459H9.54932V54.0914H12.0948V51.5459Z" fill="#333333"/>
    <path d="M60.4585 49H57.9131V51.5455H60.4585V49Z" fill="#333333"/>
    <path d="M60.4585 46.4546H57.9131V49H60.4585V46.4546Z" fill="#333333"/>
    <path d="M57.9129 49H55.3674V51.5455H57.9129V49Z" fill="#CCCCCC"/>
    <path d="M57.9129 46.4546H55.3674V49H57.9129V46.4546Z" fill="#333333"/>
    <path d="M55.3675 49H52.822V51.5455H55.3675V49Z" fill="#CCCCCC"/>
    <path d="M55.3675 46.4546H52.822V49H55.3675V46.4546Z" fill="#333333"/>
    <path d="M52.8221 49H50.2766V51.5455H52.8221V49Z" fill="#CCCCCC"/>
    <path d="M52.8221 46.4546H50.2766V49H52.8221V46.4546Z" fill="#333333"/>
    <path d="M50.2767 49H47.7312V51.5455H50.2767V49Z" fill="#333333"/>
    <path d="M50.2767 46.4546H47.7312V49H50.2767V46.4546Z" fill="#333333"/>
    <path d="M47.7312 49H45.1858V51.5455H47.7312V49Z" fill="#CCCCCC"/>
    <path d="M47.7312 46.4546H45.1858V49H47.7312V46.4546Z" fill="#333333"/>
    <path d="M45.1858 49H42.6404V51.5455H45.1858V49Z" fill="#CCCCCC"/>
    <path d="M45.1858 46.4546H42.6404V49H45.1858V46.4546Z" fill="#333333"/>
    <path d="M42.6402 49H40.0947V51.5455H42.6402V49Z" fill="#333333"/>
    <path d="M42.6402 46.4546H40.0947V49H42.6402V46.4546Z" fill="#333333"/>
    <path d="M40.0948 49H37.5493V51.5455H40.0948V49Z" fill="#CCCCCC"/>
    <path d="M40.0948 46.4546H37.5493V49H40.0948V46.4546Z" fill="#333333"/>
    <path d="M37.5494 49H35.0039V51.5455H37.5494V49Z" fill="#CCCCCC"/>
    <path d="M37.5494 46.4546H35.0039V49H37.5494V46.4546Z" fill="#333333"/>
    <path d="M35.004 49H32.4585V51.5455H35.004V49Z" fill="#333333"/>
    <path d="M35.004 46.4546H32.4585V49H35.004V46.4546Z" fill="#333333"/>
    <path d="M32.4585 49H29.9131V51.5455H32.4585V49Z" fill="#CCCCCC"/>
    <path d="M32.4585 46.4546H29.9131V49H32.4585V46.4546Z" fill="#333333"/>
    <path d="M29.9129 49H27.3674V51.5455H29.9129V49Z" fill="#CCCCCC"/>
    <path d="M29.9129 46.4546H27.3674V49H29.9129V46.4546Z" fill="#333333"/>
    <path d="M27.3675 49H24.822V51.5455H27.3675V49Z" fill="#333333"/>
    <path d="M27.3675 46.4546H24.822V49H27.3675V46.4546Z" fill="#333333"/>
    <path d="M24.8221 49H22.2766V51.5455H24.8221V49Z" fill="#CCCCCC"/>
    <path d="M24.8221 46.4546H22.2766V49H24.8221V46.4546Z" fill="#333333"/>
    <path d="M22.2767 49H19.7312V51.5455H22.2767V49Z" fill="#CCCCCC"/>
    <path d="M22.2767 46.4546H19.7312V49H22.2767V46.4546Z" fill="#333333"/>
    <path d="M19.7312 49H17.1858V51.5455H19.7312V49Z" fill="#333333"/>
    <path d="M19.7312 46.4546H17.1858V49H19.7312V46.4546Z" fill="#333333"/>
    <path d="M17.1858 49H14.6404V51.5455H17.1858V49Z" fill="#CCCCCC"/>
    <path d="M17.1858 46.4546H14.6404V49H17.1858V46.4546Z" fill="#333333"/>
    <path d="M14.6402 49H12.0947V51.5455H14.6402V49Z" fill="#CCCCCC"/>
    <path d="M14.6402 46.4546H12.0947V49H14.6402V46.4546Z" fill="#333333"/>
    <path d="M57.9129 43.9092H55.3674V46.4546H57.9129V43.9092Z" fill="#333333"/>
    <path d="M57.9129 41.3638H55.3674V43.9092H57.9129V41.3638Z" fill="#333333"/>
    <path d="M55.3675 43.9092H52.822V46.4546H55.3675V43.9092Z" fill="#CCCCCC"/>
    <path d="M55.3675 41.3638H52.822V43.9092H55.3675V41.3638Z" fill="#333333"/>
    <path d="M55.3675 38.8184H52.822V41.3638H55.3675V38.8184Z" fill="#333333"/>
    <path d="M55.3675 36.2729H52.822V38.8184H55.3675V36.2729Z" fill="#333333"/>
    <path d="M52.8221 38.8184H50.2766V41.3638H52.8221V38.8184Z" fill="#CCCCCC"/>
    <path d="M52.8221 36.2729H50.2766V38.8184H52.8221V36.2729Z" fill="#333333"/>
    <path d="M50.2767 38.8184H47.7312V41.3638H50.2767V38.8184Z" fill="#CCCCCC"/>
    <path d="M50.2767 36.2729H47.7312V38.8184H50.2767V36.2729Z" fill="#333333"/>
    <path d="M47.7312 38.8184H45.1858V41.3638H47.7312V38.8184Z" fill="#333333"/>
    <path d="M47.7312 36.2729H45.1858V38.8184H47.7312V36.2729Z" fill="#333333"/>
    <path d="M45.1858 38.8184H42.6404V41.3638H45.1858V38.8184Z" fill="#CCCCCC"/>
    <path d="M45.1858 36.2729H42.6404V38.8184H45.1858V36.2729Z" fill="#333333"/>
    <path d="M42.6402 38.8184H40.0947V41.3638H42.6402V38.8184Z" fill="#CCCCCC"/>
    <path d="M42.6402 36.2729H40.0947V38.8184H42.6402V36.2729Z" fill="#333333"/>
    <path d="M40.0948 38.8184H37.5493V41.3638H40.0948V38.8184Z" fill="#333333"/>
    <path d="M40.0948 36.2729H37.5493V38.8184H40.0948V36.2729Z" fill="#333333"/>
    <path d="M37.5494 38.8184H35.0039V41.3638H37.5494V38.8184Z" fill="#CCCCCC"/>
    <path d="M37.5494 36.2729H35.0039V38.8184H37.5494V36.2729Z" fill="#333333"/>
    <path d="M35.004 38.8184H32.4585V41.3638H35.004V38.8184Z" fill="#CCCCCC"/>
    <path d="M35.004 36.2729H32.4585V38.8184H35.004V36.2729Z" fill="#333333"/>
    <path d="M32.4585 38.8184H29.9131V41.3638H32.4585V38.8184Z" fill="#333333"/>
    <path d="M32.4585 36.2729H29.9131V38.8184H32.4585V36.2729Z" fill="#333333"/>
    <path d="M29.9129 38.8184H27.3674V41.3638H29.9129V38.8184Z" fill="#CCCCCC"/>
    <path d="M29.9129 36.2729H27.3674V38.8184H29.9129V36.2729Z" fill="#333333"/>
    <path d="M27.3675 38.8184H24.822V41.3638H27.3675V38.8184Z" fill="#CCCCCC"/>
    <path d="M27.3675 36.2729H24.822V38.8184H27.3675V36.2729Z" fill="#333333"/>
    <path d="M24.8221 38.8184H22.2766V41.3638H24.8221V38.8184Z" fill="#333333"/>
    <path d="M24.8221 36.2729H22.2766V38.8184H24.8221V36.2729Z" fill="#333333"/>
    <path d="M22.2767 38.8184H19.7312V41.3638H22.2767V38.8184Z" fill="#CCCCCC"/>
    <path d="M22.2767 36.2729H19.7312V38.8184H22.2767V36.2729Z" fill="#333333"/>
    <path d="M19.7312 38.8184H17.1858V41.3638H19.7312V38.8184Z" fill="#CCCCCC"/>
    <path d="M19.7312 36.2729H17.1858V38.8184H19.7312V36.2729Z" fill="#333333"/>
    <path d="M52.8221 43.9092H50.2766V46.4546H52.8221V43.9092Z" fill="#CCCCCC"/>
    <path d="M52.8221 41.3638H50.2766V43.9092H52.8221V41.3638Z" fill="#333333"/>
    <path d="M50.2767 43.9092H47.7312V46.4546H50.2767V43.9092Z" fill="#CCCCCC"/>
    <path d="M50.2767 41.3638H47.7312V43.9092H50.2767V41.3638Z" fill="#333333"/>
    <path d="M47.7312 43.9092H45.1858V46.4546H47.7312V43.9092Z" fill="#CCCCCC"/>
    <path d="M47.7312 41.3638H45.1858V43.9092H47.7312V41.3638Z" fill="#333333"/>
    <path d="M45.1858 43.9092H42.6404V46.4546H45.1858V43.9092Z" fill="#333333"/>
    <path d="M45.1858 41.3638H42.6404V43.9092H45.1858V41.3638Z" fill="#333333"/>
    <path d="M42.6402 43.9092H40.0947V46.4546H42.6402V43.9092Z" fill="#CCCCCC"/>
    <path d="M42.6402 41.3638H40.0947V43.9092H42.6402V41.3638Z" fill="#333333"/>
    <path d="M40.0948 43.9092H37.5493V46.4546H40.0948V43.9092Z" fill="#CCCCCC"/>
    <path d="M40.0948 41.3638H37.5493V43.9092H40.0948V41.3638Z" fill="#333333"/>
    <path d="M37.5494 43.9092H35.0039V46.4546H37.5494V43.9092Z" fill="#333333"/>
    <path d="M37.5494 41.3638H35.0039V43.9092H37.5494V41.3638Z" fill="#333333"/>
    <path d="M35.004 43.9092H32.4585V46.4546H35.004V43.9092Z" fill="#CCCCCC"/>
    <path d="M35.004 41.3638H32.4585V43.9092H35.004V41.3638Z" fill="#333333"/>
    <path d="M32.4585 43.9092H29.9131V46.4546H32.4585V43.9092Z" fill="#CCCCCC"/>
    <path d="M32.4585 41.3638H29.9131V43.9092H32.4585V41.3638Z" fill="#333333"/>
    <path d="M29.9129 43.9092H27.3674V46.4546H29.9129V43.9092Z" fill="#333333"/>
    <path d="M29.9129 41.3638H27.3674V43.9092H29.9129V41.3638Z" fill="#333333"/>
    <path d="M27.3675 43.9092H24.822V46.4546H27.3675V43.9092Z" fill="#CCCCCC"/>
    <path d="M27.3675 41.3638H24.822V43.9092H27.3675V41.3638Z" fill="#333333"/>
    <path d="M24.8221 43.9092H22.2766V46.4546H24.8221V43.9092Z" fill="#CCCCCC"/>
    <path d="M24.8221 41.3638H22.2766V43.9092H24.8221V41.3638Z" fill="#333333"/>
    <path d="M22.2767 43.9092H19.7312V46.4546H22.2767V43.9092Z" fill="#333333"/>
    <path d="M22.2767 41.3638H19.7312V43.9092H22.2767V41.3638Z" fill="#333333"/>
    <path d="M19.7312 43.9092H17.1858V46.4546H19.7312V43.9092Z" fill="#CCCCCC"/>
    <path d="M19.7312 41.3638H17.1858V43.9092H19.7312V41.3638Z" fill="#333333"/>
    <path d="M17.1858 43.9092H14.6404V46.4546H17.1858V43.9092Z" fill="#CCCCCC"/>
    <path d="M17.1858 41.3638H14.6404V43.9092H17.1858V41.3638Z" fill="#333333"/>
    <path d="M7.00395 54.0913H4.4585V56.6368H7.00395V54.0913Z" fill="black"/>
    <path d="M7.00395 56.6367H4.4585V59.1822H7.00395V56.6367Z" fill="white"/>
    <path d="M9.54936 59.1821H7.00391V61.7276H9.54936V59.1821Z" fill="white"/>
    <path d="M7.00395 59.1821H4.4585V61.7276H7.00395V59.1821Z" fill="white"/>
    <path d="M4.45463 56.6343H1.90918V59.1797H4.45463V56.6343Z" fill="white"/>
    <path d="M4.45463 54.0913H1.90918V56.6368H4.45463V54.0913Z" fill="white"/>
    <path d="M4.45463 51.5483H1.90918V54.0938H4.45463V51.5483Z" fill="white"/>
    <path d="M4.45463 49H1.90918V51.5455H4.45463V49Z" fill="white"/>
    <path d="M7.00395 49H4.4585V51.5455H7.00395V49Z" fill="white"/>
    <path d="M7.00395 46.4546H4.4585V49H7.00395V46.4546Z" fill="white"/>
    <path d="M9.54936 43.9092H7.00391V46.4546H9.54936V43.9092Z" fill="white"/>
    <path d="M9.54936 41.3638H7.00391V43.9092H9.54936V41.3638Z" fill="white"/>
    <path d="M12.0948 38.8184H9.54932V41.3638H12.0948V38.8184Z" fill="white"/>
    <path d="M12.0948 36.2729H9.54932V38.8184H12.0948V36.2729Z" fill="white"/>
    <path d="M12.0948 33.7275H9.54932V36.273H12.0948V33.7275Z" fill="white"/>
    <path d="M14.6402 31.1821H12.0947V33.7276H14.6402V31.1821Z" fill="white"/>
    <path d="M12.0948 28.6367H9.54932V31.1822H12.0948V28.6367Z" fill="white"/>
    <path d="M12.0948 26.0913H9.54932V28.6368H12.0948V26.0913Z" fill="white"/>
    <path d="M14.6402 23.5459H12.0947V26.0914H14.6402V23.5459Z" fill="white"/>
    <path d="M14.6402 21H12.0947V23.5455H14.6402V21Z" fill="white"/>
    <path d="M14.6402 18.4546H12.0947V21H14.6402V18.4546Z" fill="white"/>
    <path d="M14.6402 15.9092H12.0947V18.4546H14.6402V15.9092Z" fill="white"/>
    <path d="M14.6402 13.3638H12.0947V15.9092H14.6402V13.3638Z" fill="white"/>
    <path d="M14.6402 10.8184H12.0947V13.3638H14.6402V10.8184Z" fill="white"/>
    <path d="M17.1858 8.27295H14.6404V10.8184H17.1858V8.27295Z" fill="white"/>
    <path d="M19.7312 8.27295H17.1858V10.8184H19.7312V8.27295Z" fill="white"/>
    <path d="M22.2767 8.27295H19.7312V10.8184H22.2767V8.27295Z" fill="white"/>
    <path d="M24.8221 8.27295H22.2766V10.8184H24.8221V8.27295Z" fill="white"/>
    <path d="M27.3675 8.27295H24.822V10.8184H27.3675V8.27295Z" fill="white"/>
    <path d="M29.9129 8.27295H27.3674V10.8184H29.9129V8.27295Z" fill="white"/>
    <path d="M32.4585 8.27295H29.9131V10.8184H32.4585V8.27295Z" fill="white"/>
    <path d="M35.004 8.27295H32.4585V10.8184H35.004V8.27295Z" fill="white"/>
    <path d="M37.5494 8.27295H35.0039V10.8184H37.5494V8.27295Z" fill="white"/>
    <path d="M40.0948 8.27295H37.5493V10.8184H40.0948V8.27295Z" fill="white"/>
    <path d="M42.6402 8.27295H40.0947V10.8184H42.6402V8.27295Z" fill="white"/>
    <path d="M45.1858 8.27295H42.6404V10.8184H45.1858V8.27295Z" fill="white"/>
    <path d="M47.7312 8.27295H45.1858V10.8184H47.7312V8.27295Z" fill="white"/>
    <path d="M50.2767 8.27295H47.7312V10.8184H50.2767V8.27295Z" fill="white"/>
    <path d="M52.8221 8.27295H50.2766V10.8184H52.8221V8.27295Z" fill="white"/>
    <path d="M55.3675 8.27295H52.822V10.8184H55.3675V8.27295Z" fill="white"/>
    <path d="M57.9129 10.8184H55.3674V13.3638H57.9129V10.8184Z" fill="white"/>
    <path d="M57.9129 13.3638H55.3674V15.9092H57.9129V13.3638Z" fill="white"/>
    <path d="M57.9129 15.9092H55.3674V18.4546H57.9129V15.9092Z" fill="white"/>
    <path d="M57.9129 18.4546H55.3674V21H57.9129V18.4546Z" fill="white"/>
    <path d="M57.9129 21H55.3674V23.5455H57.9129V21Z" fill="white"/>
    <path d="M57.9129 23.5459H55.3674V26.0914H57.9129V23.5459Z" fill="white"/>
    <path d="M60.4585 26.0913H57.9131V28.6368H60.4585V26.0913Z" fill="white"/>
    <path d="M60.4585 28.6367H57.9131V31.1822H60.4585V28.6367Z" fill="white"/>
    <path d="M57.9129 31.1821H55.3674V33.7276H57.9129V31.1821Z" fill="white"/>
    <path d="M60.4585 33.7275H57.9131V36.273H60.4585V33.7275Z" fill="white"/>
    <path d="M60.4585 36.2729H57.9131V38.8184H60.4585V36.2729Z" fill="white"/>
    <path d="M60.4585 38.8184H57.9131V41.3638H60.4585V38.8184Z" fill="white"/>
    <path d="M63.004 41.3638H60.4585V43.9092H63.004V41.3638Z" fill="white"/>
    <path d="M63.004 43.9092H60.4585V46.4546H63.004V43.9092Z" fill="white"/>
    <path d="M65.5494 46.4546H63.0039V49H65.5494V46.4546Z" fill="white"/>
    <path d="M65.5494 49H63.0039V51.5455H65.5494V49Z" fill="white"/>
    <path d="M68.0948 49H65.5493V51.5455H68.0948V49Z" fill="white"/>
    <path d="M68.0948 51.5459H65.5493V54.0914H68.0948V51.5459Z" fill="white"/>
    <path d="M68.0948 54.0913H65.5493V56.6368H68.0948V54.0913Z" fill="white"/>
    <path d="M68.0948 56.6367H65.5493V59.1822H68.0948V56.6367Z" fill="white"/>
    <path d="M65.5494 56.6367H63.0039V59.1822H65.5494V56.6367Z" fill="white"/>
    <path d="M65.5494 59.1821H63.0039V61.7276H65.5494V59.1821Z" fill="white"/>
    <path d="M63.004 59.1821H60.4585V61.7276H63.004V59.1821Z" fill="white"/>
    <path d="M60.4585 59.1821H57.9131V61.7276H60.4585V59.1821Z" fill="white"/>
    <path d="M57.9129 59.1821H55.3674V61.7276H57.9129V59.1821Z" fill="white"/>
    <path d="M55.3675 59.1821H52.822V61.7276H55.3675V59.1821Z" fill="white"/>
    <path d="M52.8221 59.1821H50.2766V61.7276H52.8221V59.1821Z" fill="white"/>
    <path d="M50.2767 59.1821H47.7312V61.7276H50.2767V59.1821Z" fill="white"/>
    <path d="M47.7312 59.1821H45.1858V61.7276H47.7312V59.1821Z" fill="white"/>
    <path d="M45.1858 59.1821H42.6404V61.7276H45.1858V59.1821Z" fill="white"/>
    <path d="M42.6402 59.1821H40.0947V61.7276H42.6402V59.1821Z" fill="white"/>
    <path d="M40.0948 59.1821H37.5493V61.7276H40.0948V59.1821Z" fill="white"/>
    <path d="M37.5494 59.1821H35.0039V61.7276H37.5494V59.1821Z" fill="white"/>
    <path d="M35.004 59.1821H32.4585V61.7276H35.004V59.1821Z" fill="white"/>
    <path d="M32.4585 59.1821H29.9131V61.7276H32.4585V59.1821Z" fill="white"/>
    <path d="M29.9129 59.1821H27.3674V61.7276H29.9129V59.1821Z" fill="white"/>
    <path d="M27.3675 59.1821H24.822V61.7276H27.3675V59.1821Z" fill="white"/>
    <path d="M24.8221 59.1821H22.2766V61.7276H24.8221V59.1821Z" fill="white"/>
    <path d="M22.2767 59.1821H19.7312V61.7276H22.2767V59.1821Z" fill="white"/>
    <path d="M19.7312 59.1821H17.1858V61.7276H19.7312V59.1821Z" fill="white"/>
    <path d="M17.1858 59.1821H14.6404V61.7276H17.1858V59.1821Z" fill="white"/>
    <path d="M14.6402 59.1821H12.0947V61.7276H14.6402V59.1821Z" fill="white"/>
    <path d="M12.0948 59.1821H9.54932V61.7276H12.0948V59.1821Z" fill="white"/>
    <path d="M7.00395 51.5459H4.4585V54.0914H7.00395V51.5459Z" fill="black"/>
    <path d="M9.54936 49H7.00391V51.5455H9.54936V49Z" fill="black"/>
    <path d="M9.54936 46.4546H7.00391V49H9.54936V46.4546Z" fill="black"/>
    <path d="M12.0948 43.9092H9.54932V46.4546H12.0948V43.9092Z" fill="black"/>
    <path d="M12.0948 41.3638H9.54932V43.9092H12.0948V41.3638Z" fill="black"/>
    <path d="M9.54936 54.0913H7.00391V56.6368H9.54936V54.0913Z" fill="#808080"/>
    <path d="M9.54936 51.5459H7.00391V54.0914H9.54936V51.5459Z" fill="#808080"/>
    <path d="M12.0948 49H9.54932V51.5455H12.0948V49Z" fill="#808080"/>
    <path d="M12.0948 46.4546H9.54932V49H12.0948V46.4546Z" fill="#808080"/>
    <path d="M14.6402 43.9092H12.0947V46.4546H14.6402V43.9092Z" fill="#808080"/>
    <path d="M14.6402 41.3638H12.0947V43.9092H14.6402V41.3638Z" fill="#808080"/>
    <path d="M17.1858 38.8184H14.6404V41.3638H17.1858V38.8184Z" fill="#808080"/>
    <path d="M17.1858 36.2729H14.6404V38.8184H17.1858V36.2729Z" fill="#808080"/>
    <path d="M17.1858 33.7275H14.6404V36.273H17.1858V33.7275Z" fill="#808080"/>
    <path d="M17.1858 26.0913H14.6404V28.6368H17.1858V26.0913Z" fill="#808080"/>
    <path d="M19.7312 26.0913H17.1858V28.6368H19.7312V26.0913Z" fill="#808080"/>
    <path d="M22.2767 26.0913H19.7312V28.6368H22.2767V26.0913Z" fill="#808080"/>
    <path d="M24.8221 26.0913H22.2766V28.6368H24.8221V26.0913Z" fill="#808080"/>
    <path d="M27.3675 26.0913H24.822V28.6368H27.3675V26.0913Z" fill="#808080"/>
    <path d="M29.9129 26.0913H27.3674V28.6368H29.9129V26.0913Z" fill="#808080"/>
    <path d="M32.4585 26.0913H29.9131V28.6368H32.4585V26.0913Z" fill="#808080"/>
    <path d="M35.004 26.0913H32.4585V28.6368H35.004V26.0913Z" fill="#808080"/>
    <path d="M37.5494 26.0913H35.0039V28.6368H37.5494V26.0913Z" fill="#808080"/>
    <path d="M40.0948 26.0913H37.5493V28.6368H40.0948V26.0913Z" fill="#808080"/>
    <path d="M42.6402 26.0913H40.0947V28.6368H42.6402V26.0913Z" fill="#808080"/>
    <path d="M45.1858 26.0913H42.6404V28.6368H45.1858V26.0913Z" fill="#808080"/>
    <path d="M47.7312 26.0913H45.1858V28.6368H47.7312V26.0913Z" fill="#808080"/>
    <path d="M50.2767 26.0913H47.7312V28.6368H50.2767V26.0913Z" fill="#808080"/>
    <path d="M52.8221 26.0913H50.2766V28.6368H52.8221V26.0913Z" fill="#808080"/>
    <path d="M55.3675 26.0913H52.822V28.6368H55.3675V26.0913Z" fill="#808080"/>
    <path d="M55.3675 28.6367H52.822V31.1822H55.3675V28.6367Z" fill="#4D4D4D"/>
    <path d="M52.8221 28.6367H50.2766V31.1822H52.8221V28.6367Z" fill="#4D4D4D"/>
    <path d="M50.2767 28.6367H47.7312V31.1822H50.2767V28.6367Z" fill="#4D4D4D"/>
    <path d="M47.7312 28.6367H45.1858V31.1822H47.7312V28.6367Z" fill="#4D4D4D"/>
    <path d="M45.1858 28.6367H42.6404V31.1822H45.1858V28.6367Z" fill="#4D4D4D"/>
    <path d="M42.6402 28.6367H40.0947V31.1822H42.6402V28.6367Z" fill="#4D4D4D"/>
    <path d="M40.0948 28.6367H37.5493V31.1822H40.0948V28.6367Z" fill="#4D4D4D"/>
    <path d="M37.5494 28.6367H35.0039V31.1822H37.5494V28.6367Z" fill="#4D4D4D"/>
    <path d="M35.004 28.6367H32.4585V31.1822H35.004V28.6367Z" fill="#4D4D4D"/>
    <path d="M32.4585 28.6367H29.9131V31.1822H32.4585V28.6367Z" fill="#4D4D4D"/>
    <path d="M29.9129 28.6367H27.3674V31.1822H29.9129V28.6367Z" fill="#4D4D4D"/>
    <path d="M27.3675 28.6367H24.822V31.1822H27.3675V28.6367Z" fill="#4D4D4D"/>
    <path d="M24.8221 28.6367H22.2766V31.1822H24.8221V28.6367Z" fill="#4D4D4D"/>
    <path d="M22.2767 28.6367H19.7312V31.1822H22.2767V28.6367Z" fill="#4D4D4D"/>
    <path d="M19.7312 28.6367H17.1858V31.1822H19.7312V28.6367Z" fill="#4D4D4D"/>
    <path d="M17.1858 28.6367H14.6404V31.1822H17.1858V28.6367Z" fill="#4D4D4D"/>
    <path d="M19.7312 33.7275H17.1858V36.273H19.7312V33.7275Z" fill="#808080"/>
    <path d="M22.2767 33.7275H19.7312V36.273H22.2767V33.7275Z" fill="#808080"/>
    <path d="M24.8221 33.7275H22.2766V36.273H24.8221V33.7275Z" fill="#808080"/>
    <path d="M27.3675 33.7275H24.822V36.273H27.3675V33.7275Z" fill="#808080"/>
    <path d="M29.9129 33.7275H27.3674V36.273H29.9129V33.7275Z" fill="#808080"/>
    <path d="M32.4585 33.7275H29.9131V36.273H32.4585V33.7275Z" fill="#808080"/>
    <path d="M35.004 33.7275H32.4585V36.273H35.004V33.7275Z" fill="#808080"/>
    <path d="M37.5494 33.7275H35.0039V36.273H37.5494V33.7275Z" fill="#808080"/>
    <path d="M40.0948 33.7275H37.5493V36.273H40.0948V33.7275Z" fill="#808080"/>
    <path d="M42.6402 33.7275H40.0947V36.273H42.6402V33.7275Z" fill="#808080"/>
    <path d="M45.1858 33.7275H42.6404V36.273H45.1858V33.7275Z" fill="#808080"/>
    <path d="M47.7312 33.7275H45.1858V36.273H47.7312V33.7275Z" fill="#808080"/>
    <path d="M50.2767 33.7275H47.7312V36.273H50.2767V33.7275Z" fill="#808080"/>
    <path d="M52.8221 33.7275H50.2766V36.273H52.8221V33.7275Z" fill="#808080"/>
    <path d="M55.3675 33.7275H52.822V36.273H55.3675V33.7275Z" fill="#808080"/>
    <path d="M14.6402 38.8184H12.0947V41.3638H14.6402V38.8184Z" fill="black"/>
    <path d="M14.6402 36.2729H12.0947V38.8184H14.6402V36.2729Z" fill="black"/>
    <path d="M14.6402 33.7275H12.0947V36.273H14.6402V33.7275Z" fill="black"/>
    <path d="M57.9129 38.8184H55.3674V41.3638H57.9129V38.8184Z" fill="black"/>
    <path d="M57.9129 36.2729H55.3674V38.8184H57.9129V36.2729Z" fill="black"/>
    <path d="M57.9129 33.7275H55.3674V36.273H57.9129V33.7275Z" fill="black"/>
    <path d="M55.3675 31.1821H52.822V33.7276H55.3675V31.1821Z" fill="black"/>
    <path d="M57.9129 28.6367H55.3674V31.1822H57.9129V28.6367Z" fill="black"/>
    <path d="M57.9129 26.0913H55.3674V28.6368H57.9129V26.0913Z" fill="black"/>
    <path d="M55.3675 23.5459H52.822V26.0914H55.3675V23.5459Z" fill="black"/>
    <path d="M55.3675 21H52.822V23.5455H55.3675V21Z" fill="black"/>
    <path d="M52.8221 31.1821H50.2766V33.7276H52.8221V31.1821Z" fill="black"/>
    <path d="M50.2767 31.1821H47.7312V33.7276H50.2767V31.1821Z" fill="black"/>
    <path d="M47.7312 31.1821H45.1858V33.7276H47.7312V31.1821Z" fill="black"/>
    <path d="M45.1858 31.1821H42.6404V33.7276H45.1858V31.1821Z" fill="black"/>
    <path d="M42.6402 31.1821H40.0947V33.7276H42.6402V31.1821Z" fill="black"/>
    <path d="M40.0948 31.1821H37.5493V33.7276H40.0948V31.1821Z" fill="black"/>
    <path d="M37.5494 31.1821H35.0039V33.7276H37.5494V31.1821Z" fill="black"/>
    <path d="M35.004 31.1821H32.4585V33.7276H35.004V31.1821Z" fill="black"/>
    <path d="M32.4585 31.1821H29.9131V33.7276H32.4585V31.1821Z" fill="black"/>
    <path d="M29.9129 31.1821H27.3674V33.7276H29.9129V31.1821Z" fill="black"/>
    <path d="M27.3675 31.1821H24.822V33.7276H27.3675V31.1821Z" fill="black"/>
    <path d="M24.8221 31.1821H22.2766V33.7276H24.8221V31.1821Z" fill="black"/>
    <path d="M22.2767 31.1821H19.7312V33.7276H22.2767V31.1821Z" fill="black"/>
    <path d="M19.7312 31.1821H17.1858V33.7276H19.7312V31.1821Z" fill="black"/>
    <path d="M17.1858 31.1821H14.6404V33.7276H17.1858V31.1821Z" fill="black"/>
    <path d="M14.6402 28.6367H12.0947V31.1822H14.6402V28.6367Z" fill="black"/>
    <path d="M14.6402 26.0913H12.0947V28.6368H14.6402V26.0913Z" fill="black"/>
    <path d="M17.1858 23.5459H14.6404V26.0914H17.1858V23.5459Z" fill="black"/>
    <path d="M19.7312 23.5459H17.1858V26.0914H19.7312V23.5459Z" fill="#C9CFDF"/>
    <path d="M22.2767 23.5459H19.7312V26.0914H22.2767V23.5459Z" fill="#C9CFDF"/>
    <path d="M24.8221 23.5459H22.2766V26.0914H24.8221V23.5459Z" fill="#C9CFDF"/>
    <path d="M27.3675 23.5459H24.822V26.0914H27.3675V23.5459Z" fill="#C9CFDF"/>
    <path d="M29.9129 23.5459H27.3674V26.0914H29.9129V23.5459Z" fill="#C9CFDF"/>
    <path d="M32.4585 23.5459H29.9131V26.0914H32.4585V23.5459Z" fill="#C9CFDF"/>
    <path d="M35.004 23.5459H32.4585V26.0914H35.004V23.5459Z" fill="#C9CFDF"/>
    <path d="M37.5494 23.5459H35.0039V26.0914H37.5494V23.5459Z" fill="#C9CFDF"/>
    <path d="M40.0948 23.5459H37.5493V26.0914H40.0948V23.5459Z" fill="#C9CFDF"/>
    <path d="M42.6402 23.5459H40.0947V26.0914H42.6402V23.5459Z" fill="#C9CFDF"/>
    <path d="M45.1858 23.5459H42.6404V26.0914H45.1858V23.5459Z" fill="#C9CFDF"/>
    <path d="M47.7312 23.5459H45.1858V26.0914H47.7312V23.5459Z" fill="#C9CFDF"/>
    <path d="M50.2767 23.5459H47.7312V26.0914H50.2767V23.5459Z" fill="#C9CFDF"/>
    <path d="M52.8221 23.5459H50.2766V26.0914H52.8221V23.5459Z" fill="#C9CFDF"/>
    <path d="M19.7312 21H17.1858V23.5455H19.7312V21Z" fill="#DDE4EE"/>
    <path d="M22.2767 21H19.7312V23.5455H22.2767V21Z" fill="black"/>
    <path d="M24.8221 21H22.2766V23.5455H24.8221V21Z" fill="black"/>
    <path d="M27.3675 21H24.822V23.5455H27.3675V21Z" fill="black"/>
    <path d="M29.9129 21H27.3674V23.5455H29.9129V21Z" fill="#DDE4EE"/>
    <path d="M32.4585 21H29.9131V23.5455H32.4585V21Z" fill="black"/>
    <path d="M35.004 21H32.4585V23.5455H35.004V21Z" fill="black"/>
    <path d="M37.5494 21H35.0039V23.5455H37.5494V21Z" fill="black"/>
    <path d="M40.0948 21H37.5493V23.5455H40.0948V21Z" fill="#DDE4EE"/>
    <path d="M42.6402 21H40.0947V23.5455H42.6402V21Z" fill="black"/>
    <path d="M45.1858 21H42.6404V23.5455H45.1858V21Z" fill="#DDE4EE"/>
    <path d="M47.7312 21H45.1858V23.5455H47.7312V21Z" fill="black"/>
    <path d="M50.2767 21H47.7312V23.5455H50.2767V21Z" fill="black"/>
    <path d="M52.8221 21H50.2766V23.5455H52.8221V21Z" fill="#DDE4EE"/>
    <path d="M19.7312 18.4546H17.1858V21H19.7312V18.4546Z" fill="#F1F2F7"/>
    <path d="M22.2767 18.4546H19.7312V21H22.2767V18.4546Z" fill="#F1F2F7"/>
    <path d="M24.8221 18.4546H22.2766V21H24.8221V18.4546Z" fill="#F1F2F7"/>
    <path d="M27.3675 18.4546H24.822V21H27.3675V18.4546Z" fill="#F1F2F7"/>
    <path d="M29.9129 18.4546H27.3674V21H29.9129V18.4546Z" fill="#F1F2F7"/>
    <path d="M32.4585 18.4546H29.9131V21H32.4585V18.4546Z" fill="#F1F2F7"/>
    <path d="M35.004 18.4546H32.4585V21H35.004V18.4546Z" fill="#F1F2F7"/>
    <path d="M37.5494 18.4546H35.0039V21H37.5494V18.4546Z" fill="#F1F2F7"/>
    <path d="M40.0948 18.4546H37.5493V21H40.0948V18.4546Z" fill="#F1F2F7"/>
    <path d="M42.6402 18.4546H40.0947V21H42.6402V18.4546Z" fill="#F1F2F7"/>
    <path d="M45.1858 18.4546H42.6404V21H45.1858V18.4546Z" fill="#F1F2F7"/>
    <path d="M47.7312 18.4546H45.1858V21H47.7312V18.4546Z" fill="#F1F2F7"/>
    <path d="M50.2767 18.4546H47.7312V21H50.2767V18.4546Z" fill="#F1F2F7"/>
    <path d="M52.8221 18.4546H50.2766V21H52.8221V18.4546Z" fill="#F1F2F7"/>
    <path d="M19.7312 15.9092H17.1858V18.4546H19.7312V15.9092Z" fill="#F1F2F7"/>
    <path d="M22.2767 15.9092H19.7312V18.4546H22.2767V15.9092Z" fill="black"/>
    <path d="M24.8221 15.9092H22.2766V18.4546H24.8221V15.9092Z" fill="black"/>
    <path d="M27.3675 15.9092H24.822V18.4546H27.3675V15.9092Z" fill="black"/>
    <path d="M29.9129 15.9092H27.3674V18.4546H29.9129V15.9092Z" fill="black"/>
    <path d="M32.4585 15.9092H29.9131V18.4546H32.4585V15.9092Z" fill="black"/>
    <path d="M35.004 15.9092H32.4585V18.4546H35.004V15.9092Z" fill="black"/>
    <path d="M37.5494 15.9092H35.0039V18.4546H37.5494V15.9092Z" fill="black"/>
    <path d="M40.0948 15.9092H37.5493V18.4546H40.0948V15.9092Z" fill="#F1F2F7"/>
    <path d="M42.6402 15.9092H40.0947V18.4546H42.6402V15.9092Z" fill="black"/>
    <path d="M45.1858 15.9092H42.6404V18.4546H45.1858V15.9092Z" fill="#F1F2F7"/>
    <path d="M47.7312 15.9092H45.1858V18.4546H47.7312V15.9092Z" fill="#F1F2F7"/>
    <path d="M50.2767 15.9092H47.7312V18.4546H50.2767V15.9092Z" fill="#F1F2F7"/>
    <path d="M52.8221 15.9092H50.2766V18.4546H52.8221V15.9092Z" fill="#F1F2F7"/>
    <path d="M19.7312 13.3638H17.1858V15.9092H19.7312V13.3638Z" fill="#F1F2F7"/>
    <path d="M22.2767 13.3638H19.7312V15.9092H22.2767V13.3638Z" fill="#F1F2F7"/>
    <path d="M24.8221 13.3638H22.2766V15.9092H24.8221V13.3638Z" fill="#F1F2F7"/>
    <path d="M27.3675 13.3638H24.822V15.9092H27.3675V13.3638Z" fill="#F1F2F7"/>
    <path d="M29.9129 13.3638H27.3674V15.9092H29.9129V13.3638Z" fill="#F1F2F7"/>
    <path d="M32.4585 13.3638H29.9131V15.9092H32.4585V13.3638Z" fill="#F1F2F7"/>
    <path d="M35.004 13.3638H32.4585V15.9092H35.004V13.3638Z" fill="#F1F2F7"/>
    <path d="M37.5494 13.3638H35.0039V15.9092H37.5494V13.3638Z" fill="#F1F2F7"/>
    <path d="M40.0948 13.3638H37.5493V15.9092H40.0948V13.3638Z" fill="#F1F2F7"/>
    <path d="M42.6402 13.3638H40.0947V15.9092H42.6402V13.3638Z" fill="#F1F2F7"/>
    <path d="M45.1858 13.3638H42.6404V15.9092H45.1858V13.3638Z" fill="#F1F2F7"/>
    <path d="M47.7312 13.3638H45.1858V15.9092H47.7312V13.3638Z" fill="#F1F2F7"/>
    <path d="M50.2767 13.3638H47.7312V15.9092H50.2767V13.3638Z" fill="#F1F2F7"/>
    <path d="M52.8221 13.3638H50.2766V15.9092H52.8221V13.3638Z" fill="#F1F2F7"/>
    <path d="M17.1858 21H14.6404V23.5455H17.1858V21Z" fill="black"/>
    <path d="M55.3675 18.4546H52.822V21H55.3675V18.4546Z" fill="black"/>
    <path d="M17.1858 18.4546H14.6404V21H17.1858V18.4546Z" fill="black"/>
    <path d="M55.3675 15.9092H52.822V18.4546H55.3675V15.9092Z" fill="black"/>
    <path d="M17.1858 15.9092H14.6404V18.4546H17.1858V15.9092Z" fill="black"/>
    <path d="M55.3675 13.3638H52.822V15.9092H55.3675V13.3638Z" fill="black"/>
    <path d="M17.1858 13.3638H14.6404V15.9092H17.1858V13.3638Z" fill="black"/>
    <path d="M55.3675 10.8184H52.822V13.3638H55.3675V10.8184Z" fill="black"/>
    <path d="M52.8221 10.8184H50.2766V13.3638H52.8221V10.8184Z" fill="black"/>
    <path d="M50.2767 10.8184H47.7312V13.3638H50.2767V10.8184Z" fill="black"/>
    <path d="M47.7312 10.8184H45.1858V13.3638H47.7312V10.8184Z" fill="black"/>
    <path d="M45.1858 10.8184H42.6404V13.3638H45.1858V10.8184Z" fill="black"/>
    <path d="M42.6402 10.8184H40.0947V13.3638H42.6402V10.8184Z" fill="black"/>
    <path d="M40.0948 10.8184H37.5493V13.3638H40.0948V10.8184Z" fill="black"/>
    <path d="M37.5494 10.8184H35.0039V13.3638H37.5494V10.8184Z" fill="black"/>
    <path d="M35.004 10.8184H32.4585V13.3638H35.004V10.8184Z" fill="black"/>
    <path d="M32.4585 10.8184H29.9131V13.3638H32.4585V10.8184Z" fill="black"/>
    <path d="M29.9129 10.8184H27.3674V13.3638H29.9129V10.8184Z" fill="black"/>
    <path d="M27.3675 10.8184H24.822V13.3638H27.3675V10.8184Z" fill="black"/>
    <path d="M24.8221 10.8184H22.2766V13.3638H24.8221V10.8184Z" fill="black"/>
    <path d="M22.2767 10.8184H19.7312V13.3638H22.2767V10.8184Z" fill="black"/>
    <path d="M19.7312 10.8184H17.1858V13.3638H19.7312V10.8184Z" fill="black"/>
    <path d="M17.1858 10.8184H14.6404V13.3638H17.1858V10.8184Z" fill="black"/>
</svg>
