<svg width="50" height="50" viewBox="0 0 50 50" fill="none" xmlns="http://www.w3.org/2000/svg">
    <g clip-path="url(#clip0_2090_25756)">
        <path d="M3.84617 18.9023H1.9231V20.8254H3.84617V18.9023Z" fill="black"/>
        <path d="M3.84617 16.979H1.9231V18.9021H3.84617V16.979Z" fill="white"/>
        <path d="M5.76927 15.0562H3.84619V16.9792H5.76927V15.0562Z" fill="white"/>
        <path d="M7.69236 13.1328H5.76929V15.0559H7.69236V13.1328Z" fill="white"/>
        <path d="M9.61546 11.21H7.69238V13.133H9.61546V11.21Z" fill="white"/>
        <path d="M11.5386 9.28662H9.61548V11.2097H11.5386V9.28662Z" fill="white"/>
        <path d="M13.4617 7.36377H11.5386V9.28685H13.4617V7.36377Z" fill="white"/>
        <path d="M15.3845 9.28662H13.4614V11.2097H15.3845V9.28662Z" fill="white"/>
        <path d="M17.3076 11.21H15.3845V13.133H17.3076V11.21Z" fill="white"/>
        <path d="M19.2307 13.1328H17.3076V15.0559H19.2307V13.1328Z" fill="white"/>
        <path d="M17.3076 15.0562H15.3845V16.9792H17.3076V15.0562Z" fill="white"/>
        <path d="M19.2307 16.979H17.3076V18.9021H19.2307V16.979Z" fill="white"/>
        <path d="M21.1538 16.979H19.2307V18.9021H21.1538V16.979Z" fill="white"/>
        <path d="M23.0769 16.979H21.1538V18.9021H23.0769V16.979Z" fill="white"/>
        <path d="M25 15.0562H23.0769V16.9792H25V15.0562Z" fill="white"/>
        <path d="M26.9231 13.1328H25V15.0559H26.9231V13.1328Z" fill="white"/>
        <path d="M28.8432 13.1328H26.9202V15.0559H28.8432V13.1328Z" fill="white"/>
        <path d="M30.7634 13.1328H28.8403V15.0559H30.7634V13.1328Z" fill="white"/>
        <path d="M32.6924 15.0562H30.7693V16.9792H32.6924V15.0562Z" fill="white"/>
        <path d="M32.6924 13.1328H30.7693V15.0559H32.6924V13.1328Z" fill="white"/>
        <path d="M34.6155 11.21H32.6924V13.133H34.6155V11.21Z" fill="white"/>
        <path d="M36.5327 9.28662H34.6096V11.2097H36.5327V9.28662Z" fill="white"/>
        <path d="M38.4558 7.36377H36.5327V9.28685H38.4558V7.36377Z" fill="white"/>
        <path d="M40.3845 9.28662H38.4614V11.2097H40.3845V9.28662Z" fill="white"/>
        <path d="M42.3076 11.21H40.3845V13.133H42.3076V11.21Z" fill="white"/>
        <path d="M44.2307 13.1328H42.3076V15.0559H44.2307V13.1328Z" fill="white"/>
        <path d="M46.1538 15.0562H44.2307V16.9792H46.1538V15.0562Z" fill="white"/>
        <path d="M48.0769 16.979H46.1538V18.9021H48.0769V16.979Z" fill="white"/>
        <path d="M50 18.9023H48.0769V20.8254H50V18.9023Z" fill="white"/>
        <path d="M50 20.8252H48.0769V22.7483H50V20.8252Z" fill="white"/>
        <path d="M48.0769 20.8252H46.1538V22.7483H48.0769V20.8252Z" fill="white"/>
        <path d="M48.0769 22.7485H46.1538V24.6716H48.0769V22.7485Z" fill="white"/>
        <path d="M46.1538 22.7485H44.2307V24.6716H46.1538V22.7485Z" fill="white"/>
        <path d="M46.1538 24.6714H44.2307V26.5945H46.1538V24.6714Z" fill="white"/>
        <path d="M44.2307 24.6714H42.3076V26.5945H44.2307V24.6714Z" fill="white"/>
        <path d="M42.3076 24.6714H40.3845V26.5945H42.3076V24.6714Z" fill="white"/>
        <path d="M42.3076 22.7485H40.3845V24.6716H42.3076V22.7485Z" fill="white"/>
        <path d="M40.3845 24.6714H38.4614V26.5945H40.3845V24.6714Z" fill="white"/>
        <path d="M40.3845 26.5947H38.4614V28.5178H40.3845V26.5947Z" fill="white"/>
        <path d="M38.4617 26.5947H36.5386V28.5178H38.4617V26.5947Z" fill="white"/>
        <path d="M38.4617 28.5176H36.5386V30.4407H38.4617V28.5176Z" fill="white"/>
        <path d="M38.4617 30.4409H36.5386V32.364H38.4617V30.4409Z" fill="white"/>
        <path d="M36.5386 28.5176H34.6155V30.4407H36.5386V28.5176Z" fill="white"/>
        <path d="M38.4617 32.3638H36.5386V34.2868H38.4617V32.3638Z" fill="white"/>
        <path d="M36.5386 32.3638H34.6155V34.2868H36.5386V32.3638Z" fill="white"/>
        <path d="M36.5386 34.2866H34.6155V36.2097H36.5386V34.2866Z" fill="white"/>
        <path d="M34.6155 34.2866H32.6924V36.2097H34.6155V34.2866Z" fill="white"/>
        <path d="M34.6155 36.21H32.6924V38.133H34.6155V36.21Z" fill="white"/>
        <path d="M32.6924 36.21H30.7693V38.133H32.6924V36.21Z" fill="white"/>
        <path d="M32.6924 38.1328H30.7693V40.0559H32.6924V38.1328Z" fill="white"/>
        <path d="M30.7693 38.1328H28.8462V40.0559H30.7693V38.1328Z" fill="white"/>
        <path d="M30.7693 40.0562H28.8462V41.9792H30.7693V40.0562Z" fill="white"/>
        <path d="M28.8462 40.0562H26.9231V41.9792H28.8462V40.0562Z" fill="white"/>
        <path d="M26.9231 40.0562H25V41.9792H26.9231V40.0562Z" fill="white"/>
        <path d="M25 40.0562H23.0769V41.9792H25V40.0562Z" fill="white"/>
        <path d="M23.0769 40.0562H21.1538V41.9792H23.0769V40.0562Z" fill="white"/>
        <path d="M23.0769 38.1328H21.1538V40.0559H23.0769V38.1328Z" fill="white"/>
        <path d="M21.1538 38.1328H19.2307V40.0559H21.1538V38.1328Z" fill="white"/>
        <path d="M21.1538 36.21H19.2307V38.133H21.1538V36.21Z" fill="white"/>
        <path d="M19.2307 36.21H17.3076V38.133H19.2307V36.21Z" fill="white"/>
        <path d="M19.2307 34.2866H17.3076V36.2097H19.2307V34.2866Z" fill="white"/>
        <path d="M17.3076 34.2866H15.3845V36.2097H17.3076V34.2866Z" fill="white"/>
        <path d="M17.3076 32.3638H15.3845V34.2868H17.3076V32.3638Z" fill="white"/>
        <path d="M15.3845 32.3638H13.4614V34.2868H15.3845V32.3638Z" fill="white"/>
        <path d="M15.3845 30.4409H13.4614V32.364H15.3845V30.4409Z" fill="white"/>
        <path d="M13.4617 30.4409H11.5386V32.364H13.4617V30.4409Z" fill="white"/>
        <path d="M13.4617 28.5176H11.5386V30.4407H13.4617V28.5176Z" fill="white"/>
        <path d="M11.5386 28.5176H9.61548V30.4407H11.5386V28.5176Z" fill="white"/>
        <path d="M11.5386 26.5947H9.61548V28.5178H11.5386V26.5947Z" fill="white"/>
        <path d="M11.5386 24.6714H9.61548V26.5945H11.5386V24.6714Z" fill="white"/>
        <path d="M9.61546 24.6714H7.69238V26.5945H9.61546V24.6714Z" fill="white"/>
        <path d="M7.69236 24.6714H5.76929V26.5945H7.69236V24.6714Z" fill="white"/>
        <path d="M5.76927 24.6714H3.84619V26.5945H5.76927V24.6714Z" fill="white"/>
        <path d="M5.76927 22.7485H3.84619V24.6716H5.76927V22.7485Z" fill="white"/>
        <path d="M3.84617 22.7485H1.9231V24.6716H3.84617V22.7485Z" fill="white"/>
        <path d="M3.84617 20.8252H1.9231V22.7483H3.84617V20.8252Z" fill="white"/>
        <path d="M1.92308 18.9023H0V20.8254H1.92308V18.9023Z" fill="white"/>
        <path d="M1.92308 20.8252H0V22.7483H1.92308V20.8252Z" fill="white"/>
        <path d="M9.61546 22.7485H7.69238V24.6716H9.61546V22.7485Z" fill="white"/>
        <path d="M34.6125 15.0562H32.6895V16.9792H34.6125V15.0562Z" fill="white"/>
        <path d="M5.76927 18.9023H3.84619V20.8254H5.76927V18.9023Z" fill="#C9CFDF"/>
        <path d="M7.69236 18.9023H5.76929V20.8254H7.69236V18.9023Z" fill="#C9CFDF"/>
        <path d="M7.69236 20.8252H5.76929V22.7483H7.69236V20.8252Z" fill="#C9CFDF"/>
        <path d="M9.61546 18.9023H7.69238V20.8254H9.61546V18.9023Z" fill="#DDE4EE"/>
        <path d="M7.69236 16.979H5.76929V18.9021H7.69236V16.979Z" fill="#DDE4EE"/>
        <path d="M9.61546 16.979H7.69238V18.9021H9.61546V16.979Z" fill="#F1F2F7"/>
        <path d="M9.61546 15.0562H7.69238V16.9792H9.61546V15.0562Z" fill="#F1F2F7"/>
        <path d="M11.5386 15.0562H9.61548V16.9792H11.5386V15.0562Z" fill="#F1F2F7"/>
        <path d="M11.5386 16.979H9.61548V18.9021H11.5386V16.979Z" fill="#DDE4EE"/>
        <path d="M11.5386 13.1328H9.61548V15.0559H11.5386V13.1328Z" fill="#F1F2F7"/>
        <path d="M13.4617 13.1328H11.5386V15.0559H13.4617V13.1328Z" fill="#F1F2F7"/>
        <path d="M15.3845 13.1328H13.4614V15.0559H15.3845V13.1328Z" fill="#DDE4EE"/>
        <path d="M13.4617 11.21H11.5386V13.133H13.4617V11.21Z" fill="#F1F2F7"/>
        <path d="M13.4617 15.0562H11.5386V16.9792H13.4617V15.0562Z" fill="#DDE4EE"/>
        <path d="M44.2251 20.8252H46.1482V18.9021H44.2251V20.8252Z" fill="#C9CFDF"/>
        <path d="M42.302 20.8252H44.2251V18.9021H42.302V20.8252Z" fill="#C9CFDF"/>
        <path d="M42.302 22.7485H44.2251V20.8255H42.302V22.7485Z" fill="#C9CFDF"/>
        <path d="M40.3789 20.8252H42.302V18.9021H40.3789V20.8252Z" fill="#DDE4EE"/>
        <path d="M42.302 18.9023H44.2251V16.9793H42.302V18.9023Z" fill="#DDE4EE"/>
        <path d="M40.3789 18.9023H42.302V16.9793H40.3789V18.9023Z" fill="#F1F2F7"/>
        <path d="M40.3789 16.979H42.302V15.0559H40.3789V16.979Z" fill="#F1F2F7"/>
        <path d="M38.4558 16.979H40.3789V15.0559H38.4558V16.979Z" fill="#F1F2F7"/>
        <path d="M38.4558 18.9023H40.3789V16.9793H38.4558V18.9023Z" fill="#DDE4EE"/>
        <path d="M38.4558 15.0562H40.3789V13.1331H38.4558V15.0562Z" fill="#F1F2F7"/>
        <path d="M36.5327 15.0562H38.4558V13.1331H36.5327V15.0562Z" fill="#F1F2F7"/>
        <path d="M34.6096 15.0562H36.5327V13.1331H34.6096V15.0562Z" fill="#DDE4EE"/>
        <path d="M36.5327 13.1328H38.4558V11.2097H36.5327V13.1328Z" fill="#F1F2F7"/>
        <path d="M36.5327 16.979H38.4558V15.0559H36.5327V16.979Z" fill="#DDE4EE"/>
        <path d="M48.0769 18.9023H46.1538V20.8254H48.0769V18.9023Z" fill="black"/>
        <path d="M46.1538 16.979H44.2307V18.9021H46.1538V16.979Z" fill="black"/>
        <path d="M44.2307 15.0562H42.3076V16.9792H44.2307V15.0562Z" fill="black"/>
        <path d="M42.3076 13.1328H40.3845V15.0559H42.3076V13.1328Z" fill="black"/>
        <path d="M40.3845 11.21H38.4614V13.133H40.3845V11.21Z" fill="black"/>
        <path d="M38.4617 9.28662H36.5386V11.2097H38.4617V9.28662Z" fill="black"/>
        <path d="M36.5386 11.21H34.6155V13.133H36.5386V11.21Z" fill="black"/>
        <path d="M34.6155 16.979H32.6924V18.9021H34.6155V16.979Z" fill="black"/>
        <path d="M34.6155 13.1328H32.6924V15.0559H34.6155V13.1328Z" fill="black"/>
        <path d="M36.5386 15.0562H34.6155V16.9792H36.5386V15.0562Z" fill="black"/>
        <path d="M38.4617 16.979H36.5386V18.9021H38.4617V16.979Z" fill="black"/>
        <path d="M40.3845 18.9023H38.4614V20.8254H40.3845V18.9023Z" fill="black"/>
        <path d="M42.3076 20.8252H40.3845V22.7483H42.3076V20.8252Z" fill="black"/>
        <path d="M40.3845 22.7485H38.4614V24.6716H40.3845V22.7485Z" fill="black"/>
        <path d="M38.4617 24.6714H36.5386V26.5945H38.4617V24.6714Z" fill="black"/>
        <path d="M36.5386 26.5947H34.6155V28.5178H36.5386V26.5947Z" fill="black"/>
        <path d="M34.6155 28.5176H32.6924V30.4407H34.6155V28.5176Z" fill="black"/>
        <path d="M44.2307 22.7485H42.3076V24.6716H44.2307V22.7485Z" fill="black"/>
        <path d="M46.1538 20.8252H44.2307V22.7483H46.1538V20.8252Z" fill="black"/>
        <path d="M5.76927 16.979H3.84619V18.9021H5.76927V16.979Z" fill="black"/>
        <path d="M7.69236 15.0562H5.76929V16.9792H7.69236V15.0562Z" fill="black"/>
        <path d="M9.61546 13.1328H7.69238V15.0559H9.61546V13.1328Z" fill="black"/>
        <path d="M11.5386 11.21H9.61548V13.133H11.5386V11.21Z" fill="black"/>
        <path d="M13.4617 9.28662H11.5386V11.2097H13.4617V9.28662Z" fill="black"/>
        <path d="M15.3845 11.21H13.4614V13.133H15.3845V11.21Z" fill="black"/>
        <path d="M17.3076 13.1328H15.3845V15.0559H17.3076V13.1328Z" fill="black"/>
        <path d="M5.76927 20.8252H3.84619V22.7483H5.76927V20.8252Z" fill="black"/>
        <path d="M7.69236 22.7485H5.76929V24.6716H7.69236V22.7485Z" fill="black"/>
        <path d="M9.61546 20.8252H7.69238V22.7483H9.61546V20.8252Z" fill="black"/>
        <path d="M11.5386 22.7485H9.61548V24.6716H11.5386V22.7485Z" fill="black"/>
        <path d="M13.4617 26.5947H11.5386V28.5178H13.4617V26.5947Z" fill="black"/>
        <path d="M13.4617 24.6714H11.5386V26.5945H13.4617V24.6714Z" fill="black"/>
        <path d="M15.3845 28.5176H13.4614V30.4407H15.3845V28.5176Z" fill="black"/>
        <path d="M17.3076 30.4409H15.3845V32.364H17.3076V30.4409Z" fill="black"/>
        <path d="M19.2307 32.3638H17.3076V34.2868H19.2307V32.3638Z" fill="black"/>
        <path d="M21.1538 34.2866H19.2307V36.2097H21.1538V34.2866Z" fill="black"/>
        <path d="M23.0769 36.21H21.1538V38.133H23.0769V36.21Z" fill="black"/>
        <path d="M25 38.1328H23.0769V40.0559H25V38.1328Z" fill="black"/>
        <path d="M26.9231 38.1328H25V40.0559H26.9231V38.1328Z" fill="black"/>
        <path d="M11.5386 18.9023H9.61548V20.8254H11.5386V18.9023Z" fill="black"/>
        <path d="M13.4617 16.979H11.5386V18.9021H13.4617V16.979Z" fill="black"/>
        <path d="M15.3845 15.0562H13.4614V16.9792H15.3845V15.0562Z" fill="black"/>
        <path d="M17.3076 16.979H15.3845V18.9021H17.3076V16.979Z" fill="black"/>
        <path d="M19.2307 18.9023H17.3076V20.8254H19.2307V18.9023Z" fill="black"/>
        <path d="M21.1538 18.9023H19.2307V20.8254H21.1538V18.9023Z" fill="black"/>
        <path d="M21.1538 20.8252H19.2307V22.7483H21.1538V20.8252Z" fill="black"/>
        <path d="M19.2307 22.7485H17.3076V24.6716H19.2307V22.7485Z" fill="black"/>
        <path d="M21.1538 24.6714H19.2307V26.5945H21.1538V24.6714Z" fill="black"/>
        <path d="M23.0769 24.6714H21.1538V26.5945H23.0769V24.6714Z" fill="black"/>
        <path d="M25 24.6714H23.0769V26.5945H25V24.6714Z" fill="black"/>
        <path d="M26.9231 22.7485H25V24.6716H26.9231V22.7485Z" fill="black"/>
        <path d="M28.8462 24.6714H26.9231V26.5945H28.8462V24.6714Z" fill="black"/>
        <path d="M30.7693 26.5947H28.8462V28.5178H30.7693V26.5947Z" fill="black"/>
        <path d="M32.6924 28.5176H30.7693V30.4407H32.6924V28.5176Z" fill="black"/>
        <path d="M36.5386 30.4409H34.6155V32.364H36.5386V30.4409Z" fill="black"/>
        <path d="M34.6155 32.3638H32.6924V34.2868H34.6155V32.3638Z" fill="black"/>
        <path d="M32.6924 34.2866H30.7693V36.2097H32.6924V34.2866Z" fill="black"/>
        <path d="M30.7693 36.21H28.8462V38.133H30.7693V36.21Z" fill="black"/>
        <path d="M28.8462 38.1328H26.9231V40.0559H28.8462V38.1328Z" fill="black"/>
        <path d="M23.0769 18.9023H21.1538V20.8254H23.0769V18.9023Z" fill="black"/>
        <path d="M25 16.979H23.0769V18.9021H25V16.979Z" fill="black"/>
        <path d="M26.9231 15.0562H25V16.9792H26.9231V15.0562Z" fill="black"/>
        <path d="M28.8462 15.0562H26.9231V16.9792H28.8462V15.0562Z" fill="black"/>
        <path d="M30.7693 15.0562H28.8462V16.9792H30.7693V15.0562Z" fill="black"/>
        <path d="M26.9231 16.979H25V18.9021H26.9231V16.979Z" fill="#FFE8CA"/>
        <path d="M28.8462 16.979H26.9231V18.9021H28.8462V16.979Z" fill="#FFE8CA"/>
        <path d="M30.7693 16.979H28.8462V18.9021H30.7693V16.979Z" fill="#FFE8CA"/>
        <path d="M26.9231 18.9023H25V20.8254H26.9231V18.9023Z" fill="#FFD9A6"/>
        <path d="M28.8462 18.9023H26.9231V20.8254H28.8462V18.9023Z" fill="#FFD9A6"/>
        <path d="M30.7693 18.9023H28.8462V20.8254H30.7693V18.9023Z" fill="#FFD9A6"/>
        <path d="M26.9231 20.8252H25V22.7483H26.9231V20.8252Z" fill="#FFD9A6"/>
        <path d="M25 18.9023H23.0769V20.8254H25V18.9023Z" fill="#FFE8CA"/>
        <path d="M25 20.8252H23.0769V22.7483H25V20.8252Z" fill="#FFD9A6"/>
        <path d="M23.0769 20.8252H21.1538V22.7483H23.0769V20.8252Z" fill="#FFE8CA"/>
        <path d="M25 22.7485H23.0769V24.6716H25V22.7485Z" fill="#FFD9A6"/>
        <path d="M23.0769 22.7485H21.1538V24.6716H23.0769V22.7485Z" fill="#FFD9A6"/>
        <path d="M21.1538 22.7485H19.2307V24.6716H21.1538V22.7485Z" fill="#FFD9A6"/>
        <path d="M15.3845 16.979H13.4614V18.9021H15.3845V16.979Z" fill="#D3B38C"/>
        <path d="M15.3845 18.9023H13.4614V20.8254H15.3845V18.9023Z" fill="#D3B38C"/>
        <path d="M15.3845 20.8252H13.4614V22.7483H15.3845V20.8252Z" fill="#FFD9A6"/>
        <path d="M15.3845 22.7485H13.4614V24.6716H15.3845V22.7485Z" fill="#FFD9A6"/>
        <path d="M13.4617 18.9023H11.5386V20.8254H13.4617V18.9023Z" fill="#D3B38C"/>
        <path d="M13.4617 20.8252H11.5386V22.7483H13.4617V20.8252Z" fill="#FFD9A6"/>
        <path d="M11.5386 20.8252H9.61548V22.7483H11.5386V20.8252Z" fill="#D3B38C"/>
        <path d="M13.4617 22.7485H11.5386V24.6716H13.4617V22.7485Z" fill="#FFD9A6"/>
        <path d="M15.3845 24.6714H13.4614V26.5945H15.3845V24.6714Z" fill="#FFD9A6"/>
        <path d="M15.3845 26.5947H13.4614V28.5178H15.3845V26.5947Z" fill="#FFE8CA"/>
        <path d="M17.3076 18.9023H15.3845V20.8254H17.3076V18.9023Z" fill="#D3B38C"/>
        <path d="M17.3076 20.8252H15.3845V22.7483H17.3076V20.8252Z" fill="#FFD9A6"/>
        <path d="M19.2307 20.8252H17.3076V22.7483H19.2307V20.8252Z" fill="#FFD9A6"/>
        <path d="M17.3076 22.7485H15.3845V24.6716H17.3076V22.7485Z" fill="#FFD9A6"/>
        <path d="M17.3076 24.6714H15.3845V26.5945H17.3076V24.6714Z" fill="#FFD9A6"/>
        <path d="M17.3076 26.5947H15.3845V28.5178H17.3076V26.5947Z" fill="#FFD9A6"/>
        <path d="M19.2307 24.6714H17.3076V26.5945H19.2307V24.6714Z" fill="#D3B38C"/>
        <path d="M19.2307 26.5947H17.3076V28.5178H19.2307V26.5947Z" fill="#FFD9A6"/>
        <path d="M21.1538 26.5947H19.2307V28.5178H21.1538V26.5947Z" fill="#D3B38C"/>
        <path d="M23.0769 26.5947H21.1538V28.5178H23.0769V26.5947Z" fill="#D3B38C"/>
        <path d="M28.8462 26.5947H26.9231V28.5178H28.8462V26.5947Z" fill="#D3B38C"/>
        <path d="M26.9231 26.5947H25V28.5178H26.9231V26.5947Z" fill="#D3B38C"/>
        <path d="M26.9231 24.6714H25V26.5945H26.9231V24.6714Z" fill="#D3B38C"/>
        <path d="M25 26.5947H23.0769V28.5178H25V26.5947Z" fill="#D3B38C"/>
        <path d="M17.3076 28.5176H15.3845V30.4407H17.3076V28.5176Z" fill="#FFE8CA"/>
        <path d="M19.2307 28.5176H17.3076V30.4407H19.2307V28.5176Z" fill="#FFD9A6"/>
        <path d="M21.1538 28.5176H19.2307V30.4407H21.1538V28.5176Z" fill="#FFD9A6"/>
        <path d="M23.0769 28.5176H21.1538V30.4407H23.0769V28.5176Z" fill="#D3B38C"/>
        <path d="M28.8462 28.5176H26.9231V30.4407H28.8462V28.5176Z" fill="#D3B38C"/>
        <path d="M26.9231 28.5176H25V30.4407H26.9231V28.5176Z" fill="#D3B38C"/>
        <path d="M25 28.5176H23.0769V30.4407H25V28.5176Z" fill="#D3B38C"/>
        <path d="M19.2307 30.4409H17.3076V32.364H19.2307V30.4409Z" fill="#FFE8CA"/>
        <path d="M21.1538 30.4409H19.2307V32.364H21.1538V30.4409Z" fill="#FFD9A6"/>
        <path d="M23.0769 30.4409H21.1538V32.364H23.0769V30.4409Z" fill="#FFD9A6"/>
        <path d="M28.8462 30.4409H26.9231V32.364H28.8462V30.4409Z" fill="#D3B38C"/>
        <path d="M26.9231 30.4409H25V32.364H26.9231V30.4409Z" fill="#D3B38C"/>
        <path d="M25 30.4409H23.0769V32.364H25V30.4409Z" fill="#FFD9A6"/>
        <path d="M21.1538 32.3638H19.2307V34.2868H21.1538V32.3638Z" fill="#FFE8CA"/>
        <path d="M23.0769 32.3638H21.1538V34.2868H23.0769V32.3638Z" fill="#FFD9A6"/>
        <path d="M28.8462 32.3638H26.9231V34.2868H28.8462V32.3638Z" fill="#B29577"/>
        <path d="M26.9231 32.3638H25V34.2868H26.9231V32.3638Z" fill="#FFD9A6"/>
        <path d="M25 32.3638H23.0769V34.2868H25V32.3638Z" fill="#FFD9A6"/>
        <path d="M23.0769 34.2866H21.1538V36.2097H23.0769V34.2866Z" fill="#FFD9A6"/>
        <path d="M28.8462 34.2866H26.9231V36.2097H28.8462V34.2866Z" fill="#FFD9A6"/>
        <path d="M30.7693 28.5176H28.8462V30.4407H30.7693V28.5176Z" fill="#B29577"/>
        <path d="M30.7693 30.4409H28.8462V32.364H30.7693V30.4409Z" fill="#D3B38C"/>
        <path d="M30.7693 32.3638H28.8462V34.2868H30.7693V32.3638Z" fill="#FFD9A6"/>
        <path d="M32.6924 30.4409H30.7693V32.364H32.6924V30.4409Z" fill="#B29577"/>
        <path d="M34.6155 30.4409H32.6924V32.364H34.6155V30.4409Z" fill="#D3B38C"/>
        <path d="M32.6924 32.3638H30.7693V34.2868H32.6924V32.3638Z" fill="#D3B38C"/>
        <path d="M30.7693 34.2866H28.8462V36.2097H30.7693V34.2866Z" fill="#B29577"/>
        <path d="M26.9231 34.2866H25V36.2097H26.9231V34.2866Z" fill="#FFD9A6"/>
        <path d="M25 34.2866H23.0769V36.2097H25V34.2866Z" fill="#B29577"/>
        <path d="M28.8462 36.21H26.9231V38.133H28.8462V36.21Z" fill="#FFD9A6"/>
        <path d="M26.9231 36.21H25V38.133H26.9231V36.21Z" fill="#B29577"/>
        <path d="M25 36.21H23.0769V38.133H25V36.21Z" fill="#FFD9A6"/>
        <path d="M28.8462 20.8252H26.9231V22.7483H28.8462V20.8252Z" fill="#FFD9A6"/>
        <path d="M30.7693 20.8252H28.8462V22.7483H30.7693V20.8252Z" fill="#FFD9A6"/>
        <path d="M28.8462 22.7485H26.9231V24.6716H28.8462V22.7485Z" fill="#FFD9A6"/>
        <path d="M30.7693 22.7485H28.8462V24.6716H30.7693V22.7485Z" fill="#FFD9A6"/>
        <path d="M30.7693 24.6714H28.8462V26.5945H30.7693V24.6714Z" fill="#FFD9A6"/>
        <path d="M32.6924 18.9023H30.7693V20.8254H32.6924V18.9023Z" fill="#FFD9A6"/>
        <path d="M32.6924 20.8252H30.7693V22.7483H32.6924V20.8252Z" fill="#FFD9A6"/>
        <path d="M32.6924 22.7485H30.7693V24.6716H32.6924V22.7485Z" fill="#FFD9A6"/>
        <path d="M32.6924 24.6714H30.7693V26.5945H32.6924V24.6714Z" fill="#FFD9A6"/>
        <path d="M34.6155 18.9023H32.6924V20.8254H34.6155V18.9023Z" fill="#FFD9A6"/>
        <path d="M34.6155 20.8252H32.6924V22.7483H34.6155V20.8252Z" fill="#FFD9A6"/>
        <path d="M34.6155 22.7485H32.6924V24.6716H34.6155V22.7485Z" fill="#FFD9A6"/>
        <path d="M34.6155 24.6714H32.6924V26.5945H34.6155V24.6714Z" fill="#FFD9A6"/>
        <path d="M32.6924 26.5947H30.7693V28.5178H32.6924V26.5947Z" fill="#FFD9A6"/>
        <path d="M34.6155 26.5947H32.6924V28.5178H34.6155V26.5947Z" fill="#FFD9A6"/>
        <path d="M36.5386 18.9023H34.6155V20.8254H36.5386V18.9023Z" fill="#D3B38C"/>
        <path d="M36.5386 20.8252H34.6155V22.7483H36.5386V20.8252Z" fill="#FFD9A6"/>
        <path d="M36.5386 22.7485H34.6155V24.6716H36.5386V22.7485Z" fill="#FFD9A6"/>
        <path d="M38.4617 18.9023H36.5386V20.8254H38.4617V18.9023Z" fill="#D3B38C"/>
        <path d="M36.5327 16.979H34.6096V18.9021H36.5327V16.979Z" fill="#D3B38C"/>
        <path d="M38.4617 20.8252H36.5386V22.7483H38.4617V20.8252Z" fill="#FFD9A6"/>
        <path d="M40.3845 20.8252H38.4614V22.7483H40.3845V20.8252Z" fill="#D3B38C"/>
        <path d="M38.4617 22.7485H36.5386V24.6716H38.4617V22.7485Z" fill="#FFD9A6"/>
        <path d="M36.5386 24.6714H34.6155V26.5945H36.5386V24.6714Z" fill="#FFD9A6"/>
        <path d="M32.6924 16.979H30.7693V18.9021H32.6924V16.979Z" fill="black"/>
    </g>
    <defs>
        <clipPath id="clip0_2090_25756">
            <rect width="50" height="34.6154" fill="white" transform="translate(0 7.36377)"/>
        </clipPath>
    </defs>
</svg>
