<svg width="50" height="50" viewBox="0 0 50 50" fill="none" xmlns="http://www.w3.org/2000/svg">
    <path d="M8.66683 33.4546H6.3335V35.7879H8.66683V33.4546Z" fill="black"/>
    <path d="M10.9998 33.4546H8.6665V35.7879H10.9998V33.4546Z" fill="#E0E3EC"/>
    <path d="M13.3333 33.4546H11V35.7879H13.3333V33.4546Z" fill="#E0E3EC"/>
    <path d="M15.6666 33.4546H13.3333V35.7879H15.6666V33.4546Z" fill="#CCCFE0"/>
    <path d="M18.0001 33.4546H15.6667V35.7879H18.0001V33.4546Z" fill="#CCCFE0"/>
    <path d="M20.3333 33.4546H18V35.7879H20.3333V33.4546Z" fill="#CCCFE0"/>
    <path d="M22.6666 33.4546H20.3333V35.7879H22.6666V33.4546Z" fill="#DEE2ED"/>
    <path d="M25.0001 33.4546H22.6667V35.7879H25.0001V33.4546Z" fill="#DEE2ED"/>
    <path d="M27.3333 33.4546H25V35.7879H27.3333V33.4546Z" fill="#DEE2ED"/>
    <path d="M29.6666 33.4546H27.3333V35.7879H29.6666V33.4546Z" fill="#F1F2F4"/>
    <path d="M32.0001 33.4546H29.6667V35.7879H32.0001V33.4546Z" fill="#F1F2F4"/>
    <path d="M34.3333 33.4546H32V35.7879H34.3333V33.4546Z" fill="#F1F2F4"/>
    <path d="M36.6666 33.4546H34.3333V35.7879H36.6666V33.4546Z" fill="#F1F2F4"/>
    <path d="M38.9998 33.4546H36.6665V35.7879H38.9998V33.4546Z" fill="#DFE1ED"/>
    <path d="M41.3333 33.4546H39V35.7879H41.3333V33.4546Z" fill="#DFE1ED"/>
    <path d="M8.66683 31.1211H6.3335V33.4544H8.66683V31.1211Z" fill="black"/>
    <path d="M43.6668 33.4546H41.3335V35.7879H43.6668V33.4546Z" fill="black"/>
    <path d="M41.3333 26.4546H39V31.1213H41.3333V26.4546Z" fill="black"/>
    <path d="M10.9998 26.4546H8.6665V31.1213H10.9998V26.4546Z" fill="black"/>
    <path d="M13.3333 21.7881H11V26.4548H13.3333V21.7881Z" fill="black"/>
    <path d="M38.9998 21.7881H36.6665V26.4548H38.9998V21.7881Z" fill="black"/>
    <path d="M43.6665 31.1211H8.6665V33.4544H43.6665V31.1211Z" fill="black"/>
    <path d="M10.9998 35.7881H8.6665V38.1214H10.9998V35.7881Z" fill="black"/>
    <path d="M13.3333 35.7881H11V38.1214H13.3333V35.7881Z" fill="black"/>
    <path d="M38.9998 35.7881H36.6665V38.1214H38.9998V35.7881Z" fill="black"/>
    <path d="M41.3333 35.7881H39V38.1214H41.3333V35.7881Z" fill="black"/>
    <path d="M36.6666 19.4546H34.3333V21.7879H36.6666V19.4546Z" fill="black"/>
    <path d="M15.6666 19.4546H13.3333V21.7879H15.6666V19.4546Z" fill="black"/>
    <path d="M29.6666 12.4546H27.3333V14.7879H29.6666V12.4546Z" fill="black"/>
    <path d="M32.0001 10.1216H29.6667V12.4549H32.0001V10.1216Z" fill="black"/>
    <path d="M32.0001 7.7876H29.6667V10.1209H32.0001V7.7876Z" fill="black"/>
    <path d="M29.6666 7.7876H20.3228V10.1209H29.6666V7.7876Z" fill="black"/>
    <path d="M31.9895 5.45459H18V7.78792H31.9895V5.45459Z" fill="white"/>
    <path d="M20.3333 10.1216H18V12.4549H20.3333V10.1216Z" fill="black"/>
    <path d="M22.6666 10.1216H20.3333V12.4549H22.6666V10.1216Z" fill="#B2C0CD"/>
    <path d="M25.0001 10.1216H22.6667V12.4549H25.0001V10.1216Z" fill="#CAD1DB"/>
    <path d="M27.3333 10.1216H25V12.4549H27.3333V10.1216Z" fill="#CAD1DB"/>
    <path d="M25.0001 12.4546H22.6667V14.7879H25.0001V12.4546Z" fill="#B2C0CD"/>
    <path d="M27.3333 12.4546H25V14.7879H27.3333V12.4546Z" fill="#B2C0CD"/>
    <path d="M25.0001 14.7876H22.6667V17.1209H25.0001V14.7876Z" fill="#DDE4EC"/>
    <path d="M27.3333 14.7876H25V17.1209H27.3333V14.7876Z" fill="#DDE4EC"/>
    <path d="M25.0001 17.1216H22.6667V19.4549H25.0001V17.1216Z" fill="#B2BDD1"/>
    <path d="M27.3333 17.1216H25V19.4549H27.3333V17.1216Z" fill="#C9CFDF"/>
    <path d="M25.0001 19.4546H22.6667V21.7879H25.0001V19.4546Z" fill="#B2BDD1"/>
    <path d="M27.3333 19.4546H25V21.7879H27.3333V19.4546Z" fill="#C9CFDF"/>
    <path d="M25.0001 21.7881H22.6667V24.1214H25.0001V21.7881Z" fill="#C9CFDF"/>
    <path d="M27.3333 21.7881H25V24.1214H27.3333V21.7881Z" fill="#C9CFDF"/>
    <path d="M25.0001 24.1211H22.6667V26.4544H25.0001V24.1211Z" fill="#C9CFDF"/>
    <path d="M27.3333 24.1211H25V26.4544H27.3333V24.1211Z" fill="#C9CFDF"/>
    <path d="M25.0001 26.4546H22.6667V28.7879H25.0001V26.4546Z" fill="#C9CFDF"/>
    <path d="M27.3333 26.4546H25V28.7879H27.3333V26.4546Z" fill="#F1F2F7"/>
    <path d="M25.0001 28.7881H22.6667V31.1214H25.0001V28.7881Z" fill="#C9CFDF"/>
    <path d="M27.3333 28.7881H25V31.1214H27.3333V28.7881Z" fill="#F1F2F7"/>
    <path d="M29.6666 17.1216H27.3333V19.4549H29.6666V17.1216Z" fill="#F1F2F7"/>
    <path d="M29.6666 19.4546H27.3333V21.7879H29.6666V19.4546Z" fill="#F1F2F7"/>
    <path d="M29.6666 21.7881H27.3333V24.1214H29.6666V21.7881Z" fill="#F1F2F7"/>
    <path d="M29.6666 24.1211H27.3333V26.4544H29.6666V24.1211Z" fill="#F1F2F7"/>
    <path d="M29.6666 26.4546H27.3333V28.7879H29.6666V26.4546Z" fill="#F1F2F7"/>
    <path d="M29.6666 28.7881H27.3333V31.1214H29.6666V28.7881Z" fill="#F1F2F7"/>
    <path d="M32.0001 17.1216H29.6667V19.4549H32.0001V17.1216Z" fill="#CED0DD"/>
    <path d="M32.0001 19.4546H29.6667V21.7879H32.0001V19.4546Z" fill="#DDE4EE"/>
    <path d="M32.0001 21.7881H29.6667V24.1214H32.0001V21.7881Z" fill="#F1F2F7"/>
    <path d="M32.0001 24.1211H29.6667V26.4544H32.0001V24.1211Z" fill="#F1F2F7"/>
    <path d="M32.0001 26.4546H29.6667V28.7879H32.0001V26.4546Z" fill="#F1F2F7"/>
    <path d="M32.0001 28.7881H29.6667V31.1214H32.0001V28.7881Z" fill="#F1F2F7"/>
    <path d="M34.3333 19.4546H32V21.7879H34.3333V19.4546Z" fill="#CED0DD"/>
    <path d="M34.3333 21.7881H32V24.1214H34.3333V21.7881Z" fill="#DDE4EE"/>
    <path d="M34.3333 24.1211H32V26.4544H34.3333V24.1211Z" fill="#DDE4EE"/>
    <path d="M34.3333 26.4546H32V28.7879H34.3333V26.4546Z" fill="#F1F2F7"/>
    <path d="M34.3333 28.7881H32V31.1214H34.3333V28.7881Z" fill="#F1F2F7"/>
    <path d="M36.6666 21.7881H34.3333V24.1214H36.6666V21.7881Z" fill="#CED0DD"/>
    <path d="M36.6666 24.1211H34.3333V26.4544H36.6666V24.1211Z" fill="#CED0DD"/>
    <path d="M36.6666 26.4546H34.3333V28.7879H36.6666V26.4546Z" fill="#DDE4EE"/>
    <path d="M36.6666 28.7881H34.3333V31.1214H36.6666V28.7881Z" fill="#DDE4EE"/>
    <path d="M38.9998 26.4546H36.6665V28.7879H38.9998V26.4546Z" fill="#CED0DD"/>
    <path d="M38.9998 28.7881H36.6665V31.1214H38.9998V28.7881Z" fill="#CED0DD"/>
    <path d="M13.3333 26.4546H11V28.7879H13.3333V26.4546Z" fill="#F1F2F4"/>
    <path d="M13.3333 28.7881H11V31.1214H13.3333V28.7881Z" fill="#F1F2F4"/>
    <path d="M15.6666 26.4546H13.3333V28.7879H15.6666V26.4546Z" fill="#CAD0DE"/>
    <path d="M15.6666 28.7881H13.3333V31.1214H15.6666V28.7881Z" fill="#CAD0DE"/>
    <path d="M18.0001 26.4546H15.6667V28.7879H18.0001V26.4546Z" fill="#B2BDD1"/>
    <path d="M18.0001 28.7881H15.6667V31.1214H18.0001V28.7881Z" fill="#B2BDD1"/>
    <path d="M20.3333 26.4546H18V28.7879H20.3333V26.4546Z" fill="#B2BDD1"/>
    <path d="M20.3333 28.7881H18V31.1214H20.3333V28.7881Z" fill="#B2BDD1"/>
    <path d="M22.6666 26.4546H20.3333V28.7879H22.6666V26.4546Z" fill="#C9CFDF"/>
    <path d="M15.6666 24.1211H13.3333V26.4544H15.6666V24.1211Z" fill="#F1F2F4"/>
    <path d="M18.0001 24.1211H15.6667V26.4544H18.0001V24.1211Z" fill="#CAD0DE"/>
    <path d="M20.3333 24.1211H18V26.4544H20.3333V24.1211Z" fill="#B2BDD1"/>
    <path d="M22.6666 24.1211H20.3333V26.4544H22.6666V24.1211Z" fill="#B2BDD1"/>
    <path d="M15.6666 21.7881H13.3333V24.1214H15.6666V21.7881Z" fill="#F1F2F4"/>
    <path d="M18.0001 21.7881H15.6667V24.1214H18.0001V21.7881Z" fill="#CAD0DE"/>
    <path d="M20.3333 21.7881H18V24.1214H20.3333V21.7881Z" fill="#B2BDD1"/>
    <path d="M22.6666 21.7881H20.3333V24.1214H22.6666V21.7881Z" fill="#B2BDD1"/>
    <path d="M18.0001 19.4546H15.6667V21.7879H18.0001V19.4546Z" fill="#F1F2F4"/>
    <path d="M20.3333 19.4546H18V21.7879H20.3333V19.4546Z" fill="#CAD0DE"/>
    <path d="M22.6666 19.4546H20.3333V21.7879H22.6666V19.4546Z" fill="#B2BDD1"/>
    <path d="M20.3333 17.1216H18V19.4549H20.3333V17.1216Z" fill="#F1F2F4"/>
    <path d="M22.6666 17.1216H20.3333V19.4549H22.6666V17.1216Z" fill="#B2BDD1"/>
    <path d="M22.6666 28.7881H20.3333V31.1214H22.6666V28.7881Z" fill="#C9CFDF"/>
    <path d="M29.6666 10.1216H27.3333V12.4549H29.6666V10.1216Z" fill="#EFF2F7"/>
    <path d="M20.3333 7.7876H18V10.1209H20.3333V7.7876Z" fill="black"/>
    <path d="M22.6666 12.4546H20.3333V14.7879H22.6666V12.4546Z" fill="black"/>
    <path d="M20.3333 12.4546H18V14.7879H20.3333V12.4546Z" fill="white"/>
    <path d="M32.0001 12.4546H29.6667V14.7879H32.0001V12.4546Z" fill="white"/>
    <path d="M18.0001 14.7876H15.6667V17.1209H18.0001V14.7876Z" fill="white"/>
    <path d="M18.0001 7.7876H15.6667V12.4543H18.0001V7.7876Z" fill="white"/>
    <path d="M34.3333 7.7876H32V12.4543H34.3333V7.7876Z" fill="white"/>
    <path d="M34.3333 14.7876H32V17.1209H34.3333V14.7876Z" fill="white"/>
    <path d="M15.6666 17.1216H13.3333V19.4549H15.6666V17.1216Z" fill="white"/>
    <path d="M36.6666 17.1216H34.3333V19.4549H36.6666V17.1216Z" fill="white"/>
    <path d="M13.3333 19.4546H11V21.7879H13.3333V19.4546Z" fill="white"/>
    <path d="M8.66683 35.7881H6.3335V38.1214H8.66683V35.7881Z" fill="white"/>
    <path d="M8.66683 38.1211H6.3335V40.4544H8.66683V38.1211Z" fill="white"/>
    <path d="M6.33333 35.7881H4V38.1214H6.33333V35.7881Z" fill="white"/>
    <path d="M6.33333 28.7881H4V31.1214H6.33333V28.7881Z" fill="white"/>
    <path d="M15.6666 40.4546H13.3333V42.7879H15.6666V40.4546Z" fill="white"/>
    <path d="M15.6666 42.7881H13.3333V45.1214H15.6666V42.7881Z" fill="white"/>
    <path d="M13.3333 40.4546H11V42.7879H13.3333V40.4546Z" fill="white"/>
    <path d="M36.6666 40.4546H34.3333V42.7879H36.6666V40.4546Z" fill="white"/>
    <path d="M38.9998 40.4546H36.6665V42.7879H38.9998V40.4546Z" fill="white"/>
    <path d="M36.6666 42.7881H34.3333V45.1214H36.6666V42.7881Z" fill="white"/>
    <path d="M43.6668 35.7881H41.3335V38.1214H43.6668V35.7881Z" fill="white"/>
    <path d="M45.9998 35.7881H43.6665V38.1214H45.9998V35.7881Z" fill="white"/>
    <path d="M45.9998 28.7881H43.6665V31.1214H45.9998V28.7881Z" fill="white"/>
    <path d="M43.6668 38.1211H41.3335V40.4544H43.6668V38.1211Z" fill="white"/>
    <path d="M41.3332 38.1211H36.6665V40.4544H41.3332V38.1211Z" fill="white"/>
    <path d="M34.3334 42.7881H15.6667V45.1214H34.3334V42.7881Z" fill="white"/>
    <path d="M13.3332 38.1211H8.6665V40.4544H13.3332V38.1211Z" fill="white"/>
    <path d="M38.9998 19.4546H36.6665V21.7879H38.9998V19.4546Z" fill="white"/>
    <path d="M10.9998 21.7881H8.6665V26.4548H10.9998V21.7881Z" fill="white"/>
    <path d="M8.66683 26.4546H6.3335V31.1213H8.66683V26.4546Z" fill="white"/>
    <path d="M6.33333 31.1211H4V35.7878H6.33333V31.1211Z" fill="white"/>
    <path d="M45.9998 31.1211H43.6665V35.7878H45.9998V31.1211Z" fill="white"/>
    <path d="M43.6668 26.4546H41.3335V31.1213H43.6668V26.4546Z" fill="white"/>
    <path d="M41.3333 21.7881H39V26.4548H41.3333V21.7881Z" fill="white"/>
    <path d="M18.0001 17.1216H15.6667V19.4549H18.0001V17.1216Z" fill="black"/>
    <path d="M22.6667 14.7876H18.021V17.1209H22.6667V14.7876Z" fill="black"/>
    <path d="M34.3333 17.1216H32V19.4549H34.3333V17.1216Z" fill="black"/>
    <path d="M31.9789 14.7876H27.3333V17.1209H31.9789V14.7876Z" fill="black"/>
    <path d="M15.6666 38.1211H13.3333V40.4544H15.6666V38.1211Z" fill="black"/>
    <path d="M15.6666 35.7881H13.3333V38.1214H15.6666V35.7881Z" fill="#44546E"/>
    <path d="M18.0001 38.1211H15.6667V40.4544H18.0001V38.1211Z" fill="#B5BED0"/>
    <path d="M18.0001 35.7881H15.6667V38.1214H18.0001V35.7881Z" fill="#44546E"/>
    <path d="M20.3333 38.1211H18V40.4544H20.3333V38.1211Z" fill="#B5BED0"/>
    <path d="M20.3333 35.7881H18V38.1214H20.3333V35.7881Z" fill="#44546E"/>
    <path d="M22.6666 38.1211H20.3333V40.4544H22.6666V38.1211Z" fill="#99A8BF"/>
    <path d="M22.6666 35.7881H20.3333V38.1214H22.6666V35.7881Z" fill="#44546E"/>
    <path d="M25.0001 38.1211H22.6667V40.4544H25.0001V38.1211Z" fill="#99A8BF"/>
    <path d="M25.0001 35.7881H22.6667V38.1214H25.0001V35.7881Z" fill="#44546E"/>
    <path d="M27.3333 38.1211H25V40.4544H27.3333V38.1211Z" fill="#99A8BF"/>
    <path d="M27.3333 35.7881H25V38.1214H27.3333V35.7881Z" fill="#44546E"/>
    <path d="M29.6666 38.1211H27.3333V40.4544H29.6666V38.1211Z" fill="#CAD0DE"/>
    <path d="M29.6666 35.7881H27.3333V38.1214H29.6666V35.7881Z" fill="#44546E"/>
    <path d="M32.0001 38.1211H29.6667V40.4544H32.0001V38.1211Z" fill="#CAD0DE"/>
    <path d="M32.0001 35.7881H29.6667V38.1214H32.0001V35.7881Z" fill="#44546E"/>
    <path d="M34.3333 38.1211H32V40.4544H34.3333V38.1211Z" fill="#98A8BF"/>
    <path d="M34.3333 35.7881H32V38.1214H34.3333V35.7881Z" fill="#44546E"/>
    <path d="M36.6666 35.7881H34.3333V38.1214H36.6666V35.7881Z" fill="#44546E"/>
    <path d="M36.6666 38.1211H34.3333V40.4544H36.6666V38.1211Z" fill="black"/>
    <path d="M34.3334 40.4546H15.6667V42.7879H34.3334V40.4546Z" fill="black"/>
</svg>
