<svg width="50" height="50" viewBox="0 0 50 50" fill="none" xmlns="http://www.w3.org/2000/svg">
    <path d="M18 6.32715H15.6666V8.65438H18V6.32715Z" fill="black"/>
    <path d="M20.3333 6.32715H18V8.65438H20.3333V6.32715Z" fill="black"/>
    <path d="M22.6667 6.32715H20.3334V8.65438H22.6667V6.32715Z" fill="black"/>
    <path d="M25.0001 6.32715H22.6667V8.65438H25.0001V6.32715Z" fill="black"/>
    <path d="M27.3333 8.65381H25V10.981H27.3333V8.65381Z" fill="black"/>
    <path d="M29.6666 8.65381H27.3333V10.981H29.6666V8.65381Z" fill="black"/>
    <path d="M32 10.9819H29.6666V13.3092H32V10.9819Z" fill="black"/>
    <path d="M32 13.3086H29.6666V15.6358H32V13.3086Z" fill="black"/>
    <path d="M34.3333 15.6357H32V17.963H34.3333V15.6357Z" fill="black"/>
    <path d="M34.3333 17.9629H32V20.2901H34.3333V17.9629Z" fill="black"/>
    <path d="M34.3333 20.2905H32V22.6178H34.3333V20.2905Z" fill="black"/>
    <path d="M34.3333 22.6177H32V24.9449H34.3333V22.6177Z" fill="black"/>
    <path d="M32 24.9453H29.6666V27.2725H32V24.9453Z" fill="black"/>
    <path d="M32 27.2725H29.6666V29.5997H32V27.2725Z" fill="black"/>
    <path d="M32 29.5996H29.6666V31.9268H32V29.5996Z" fill="black"/>
    <path d="M32 31.9272H29.6666V34.2545H32V31.9272Z" fill="#1A1A1A"/>
    <path d="M34.3333 29.5996H32V31.9268H34.3333V29.5996Z" fill="black"/>
    <path d="M36.6667 31.9272H34.3334V34.2545H36.6667V31.9272Z" fill="black"/>
    <path d="M39 34.2544H36.6666V36.5816H39V34.2544Z" fill="black"/>
    <path d="M41.3333 36.582H39V38.9093H41.3333V36.582Z" fill="black"/>
    <path d="M34.3333 31.9272H32V34.2545H34.3333V31.9272Z" fill="black"/>
    <path d="M36.6667 34.2544H34.3334V36.5816H36.6667V34.2544Z" fill="black"/>
    <path d="M39 36.582H36.6666V38.9093H39V36.582Z" fill="black"/>
    <path d="M34.3333 34.2544H32V36.5816H34.3333V34.2544Z" fill="#1A1A1A"/>
    <path d="M36.6667 36.582H34.3334V38.9093H36.6667V36.582Z" fill="#333333"/>
    <path d="M39 38.9082H36.6666V41.2354H39V38.9082Z" fill="#333333"/>
    <path d="M41.3333 38.9082H39V41.2354H41.3333V38.9082Z" fill="black"/>
    <path d="M43.6667 38.9082H41.3334V41.2354H43.6667V38.9082Z" fill="black"/>
    <path d="M43.6667 41.2354H41.3334V43.5626H43.6667V41.2354Z" fill="black"/>
    <path d="M41.3333 41.2354H39V43.5626H41.3333V41.2354Z" fill="#4D4D4D"/>
    <path d="M29.6666 29.5996H27.3333V31.9268H29.6666V29.5996Z" fill="black"/>
    <path d="M27.3333 29.5996H25V31.9268H27.3333V29.5996Z" fill="black"/>
    <path d="M25.0001 31.9272H22.6667V34.2545H25.0001V31.9272Z" fill="black"/>
    <path d="M22.6667 31.9272H20.3334V34.2545H22.6667V31.9272Z" fill="black"/>
    <path d="M20.3333 31.9272H18V34.2545H20.3333V31.9272Z" fill="black"/>
    <path d="M18 31.9272H15.6666V34.2545H18V31.9272Z" fill="black"/>
    <path d="M15.6667 29.5996H13.3334V31.9268H15.6667V29.5996Z" fill="black"/>
    <path d="M13.3333 29.5996H11V31.9268H13.3333V29.5996Z" fill="black"/>
    <path d="M25.0001 29.5996H22.6667V31.9268H25.0001V29.5996Z" fill="#2986FF"/>
    <path d="M22.6667 29.5996H20.3334V31.9268H22.6667V29.5996Z" fill="#2986FF"/>
    <path d="M20.3333 29.5996H18V31.9268H20.3333V29.5996Z" fill="#2986FF"/>
    <path d="M18 29.5996H15.6666V31.9268H18V29.5996Z" fill="#2986FF"/>
    <path d="M15.6667 27.2725H13.3334V29.5997H15.6667V27.2725Z" fill="#2986FF"/>
    <path d="M18 27.2725H15.6666V29.5997H18V27.2725Z" fill="#2986FF"/>
    <path d="M13.3333 27.2725H11V29.5997H13.3333V27.2725Z" fill="#2986FF"/>
    <path d="M13.3333 24.9453H11V27.2725H13.3333V24.9453Z" fill="#2986FF"/>
    <path d="M11 22.6177H8.66663V24.9449H11V22.6177Z" fill="#2986FF"/>
    <path d="M13.3333 22.6177H11V24.9449H13.3333V22.6177Z" fill="#2986FF"/>
    <path d="M11 20.2905H8.66663V22.6178H11V20.2905Z" fill="#2986FF"/>
    <path d="M11 17.9629H8.66663V20.2901H11V17.9629Z" fill="#2986FF"/>
    <path d="M11 15.6357H8.66663V17.963H11V15.6357Z" fill="#2986FF"/>
    <path d="M11 27.2725H8.66663V29.5997H11V27.2725Z" fill="black"/>
    <path d="M11 24.9453H8.66663V27.2725H11V24.9453Z" fill="black"/>
    <path d="M8.66671 22.6177H6.33337V24.9449H8.66671V22.6177Z" fill="black"/>
    <path d="M8.66671 20.2905H6.33337V22.6178H8.66671V20.2905Z" fill="black"/>
    <path d="M8.66671 17.9629H6.33337V20.2901H8.66671V17.9629Z" fill="black"/>
    <path d="M8.66671 15.6357H6.33337V17.963H8.66671V15.6357Z" fill="black"/>
    <path d="M11 13.3086H8.66663V15.6358H11V13.3086Z" fill="black"/>
    <path d="M11 10.9819H8.66663V13.3092H11V10.9819Z" fill="black"/>
    <path d="M13.3333 8.65381H11V10.981H13.3333V8.65381Z" fill="black"/>
    <path d="M15.6667 8.65381H13.3334V10.981H15.6667V8.65381Z" fill="black"/>
    <path d="M15.6667 6.32715H13.3334V8.65438H15.6667V6.32715Z" fill="white"/>
    <path d="M13.3333 6.32715H11V8.65438H13.3333V6.32715Z" fill="white"/>
    <path d="M11 8.65381H8.66663V10.981H11V8.65381Z" fill="white"/>
    <path d="M8.66671 10.9819H6.33337V13.3092H8.66671V10.9819Z" fill="white"/>
    <path d="M8.66671 13.3086H6.33337V15.6358H8.66671V13.3086Z" fill="white"/>
    <path d="M29.6666 6.32715H27.3333V8.65438H29.6666V6.32715Z" fill="white"/>
    <path d="M32 8.65381H29.6666V10.981H32V8.65381Z" fill="white"/>
    <path d="M34.3333 10.9819H32V13.3092H34.3333V10.9819Z" fill="white"/>
    <path d="M34.3333 13.3086H32V15.6358H34.3333V13.3086Z" fill="white"/>
    <path d="M36.6667 15.6357H34.3334V17.963H36.6667V15.6357Z" fill="white"/>
    <path d="M36.6667 17.9629H34.3334V20.2901H36.6667V17.9629Z" fill="white"/>
    <path d="M36.6667 20.2905H34.3334V22.6178H36.6667V20.2905Z" fill="white"/>
    <path d="M36.6667 22.6177H34.3334V24.9449H36.6667V22.6177Z" fill="white"/>
    <path d="M36.6667 24.9453H34.3334V27.2725H36.6667V24.9453Z" fill="white"/>
    <path d="M34.3333 24.9453H32V27.2725H34.3333V24.9453Z" fill="white"/>
    <path d="M34.3333 27.2725H32V29.5997H34.3333V27.2725Z" fill="white"/>
    <path d="M36.6667 29.5996H34.3334V31.9268H36.6667V29.5996Z" fill="white"/>
    <path d="M39 31.9272H36.6666V34.2545H39V31.9272Z" fill="white"/>
    <path d="M41.3333 34.2544H39V36.5816H41.3333V34.2544Z" fill="white"/>
    <path d="M43.6667 36.582H41.3334V38.9093H43.6667V36.582Z" fill="white"/>
    <path d="M46 38.9082H43.6666V41.2354H46V38.9082Z" fill="white"/>
    <path d="M36.6667 27.2725H34.3334V29.5997H36.6667V27.2725Z" fill="white"/>
    <path d="M39 29.5996H36.6666V31.9268H39V29.5996Z" fill="white"/>
    <path d="M41.3333 31.9272H39V34.2545H41.3333V31.9272Z" fill="white"/>
    <path d="M43.6667 34.2544H41.3334V36.5816H43.6667V34.2544Z" fill="white"/>
    <path d="M46 36.582H43.6666V38.9093H46V36.582Z" fill="white"/>
    <path d="M46 41.2354H43.6666V43.5626H46V41.2354Z" fill="white"/>
    <path d="M46 43.563H43.6666V45.8902H46V43.563Z" fill="white"/>
    <path d="M43.6667 43.563H41.3334V45.8902H43.6667V43.563Z" fill="white"/>
    <path d="M41.3333 43.563H39V45.8902H41.3333V43.563Z" fill="white"/>
    <path d="M39 41.2354H36.6666V43.5626H39V41.2354Z" fill="white"/>
    <path d="M36.6667 38.9082H34.3334V41.2354H36.6667V38.9082Z" fill="white"/>
    <path d="M34.3333 36.582H32V38.9093H34.3333V36.582Z" fill="white"/>
    <path d="M32 34.2544H29.6666V36.5816H32V34.2544Z" fill="white"/>
    <path d="M39 43.563H36.6666V45.8902H39V43.563Z" fill="white"/>
    <path d="M36.6667 41.2354H34.3334V43.5626H36.6667V41.2354Z" fill="white"/>
    <path d="M34.3333 38.9082H32V41.2354H34.3333V38.9082Z" fill="white"/>
    <path d="M32 36.582H29.6666V38.9093H32V36.582Z" fill="white"/>
    <path d="M29.6666 34.2544H27.3333V36.5816H29.6666V34.2544Z" fill="white"/>
    <path d="M27.3333 34.2544H25V36.5816H27.3333V34.2544Z" fill="white"/>
    <path d="M29.6666 31.9272H27.3333V34.2545H29.6666V31.9272Z" fill="white"/>
    <path d="M27.3333 31.9272H25V34.2545H27.3333V31.9272Z" fill="white"/>
    <path d="M25.0001 34.2544H22.6667V36.5816H25.0001V34.2544Z" fill="white"/>
    <path d="M22.6667 34.2544H20.3334V36.5816H22.6667V34.2544Z" fill="white"/>
    <path d="M20.3333 34.2544H18V36.5816H20.3333V34.2544Z" fill="white"/>
    <path d="M18 34.2544H15.6666V36.5816H18V34.2544Z" fill="white"/>
    <path d="M15.6667 31.9272H13.3334V34.2545H15.6667V31.9272Z" fill="white"/>
    <path d="M15.6667 34.2422H13.3334V36.5694H15.6667V34.2422Z" fill="white"/>
    <path d="M13.3333 31.9272H11V34.2545H13.3333V31.9272Z" fill="white"/>
    <path d="M11 29.5996H8.66663V31.9268H11V29.5996Z" fill="white"/>
    <path d="M11 31.9272H8.66663V34.2545H11V31.9272Z" fill="white"/>
    <path d="M8.66671 27.2725H6.33337V29.5997H8.66671V27.2725Z" fill="white"/>
    <path d="M8.66671 29.5996H6.33337V31.9268H8.66671V29.5996Z" fill="white"/>
    <path d="M8.66671 24.9453H6.33337V27.2725H8.66671V24.9453Z" fill="white"/>
    <path d="M6.33333 22.6177H4V24.9449H6.33333V22.6177Z" fill="white"/>
    <path d="M6.33333 24.9453H4V27.2725H6.33333V24.9453Z" fill="white"/>
    <path d="M6.33333 20.2905H4V22.6178H6.33333V20.2905Z" fill="white"/>
    <path d="M6.33333 17.9629H4V20.2901H6.33333V17.9629Z" fill="white"/>
    <path d="M6.33333 15.6357H4V17.963H6.33333V15.6357Z" fill="white"/>
    <path d="M27.3333 6.32715H25V8.65438H27.3333V6.32715Z" fill="white"/>
    <path d="M18 4H15.6666V6.32723H18V4Z" fill="white"/>
    <path d="M20.3333 4H18V6.32723H20.3333V4Z" fill="white"/>
    <path d="M22.6666 4H20.3333V6.32723H22.6666V4Z" fill="white"/>
    <path d="M25 4H22.6667V6.32723H25V4Z" fill="white"/>
    <path d="M18 8.65381H15.6666V10.981H18V8.65381Z" fill="#45B3E9"/>
    <path d="M20.3333 8.65381H18V10.981H20.3333V8.65381Z" fill="#45B3E9"/>
    <path d="M22.6667 8.65381H20.3334V10.981H22.6667V8.65381Z" fill="#45B3E9"/>
    <path d="M25.0001 8.65381H22.6667V10.981H25.0001V8.65381Z" fill="#45B3E9"/>
    <path d="M27.3333 10.9819H25V13.3092H27.3333V10.9819Z" fill="#45B3E9"/>
    <path d="M29.6666 10.9819H27.3333V13.3092H29.6666V10.9819Z" fill="#45B3E9"/>
    <path d="M13.3333 10.9819H11V13.3092H13.3333V10.9819Z" fill="#45B3E9"/>
    <path d="M15.6667 10.9819H13.3334V13.3092H15.6667V10.9819Z" fill="#45B3E9"/>
    <path d="M18 10.9819H15.6666V13.3092H18V10.9819Z" fill="#45B3E9"/>
    <path d="M20.3333 10.9819H18V13.3092H20.3333V10.9819Z" fill="black"/>
    <path d="M22.6667 10.9819H20.3334V13.3092H22.6667V10.9819Z" fill="black"/>
    <path d="M25.0001 10.9819H22.6667V13.3092H25.0001V10.9819Z" fill="#FCFFFE"/>
    <path d="M18 13.3086H15.6666V15.6358H18V13.3086Z" fill="black"/>
    <path d="M20.3333 13.3086H18V15.6358H20.3333V13.3086Z" fill="#45B3E9"/>
    <path d="M22.6667 13.3086H20.3334V15.6358H22.6667V13.3086Z" fill="#45B3E9"/>
    <path d="M25.0001 13.3086H22.6667V15.6358H25.0001V13.3086Z" fill="black"/>
    <path d="M27.3333 13.3086H25V15.6358H27.3333V13.3086Z" fill="#FCFFFE"/>
    <path d="M29.6666 13.3086H27.3333V15.6358H29.6666V13.3086Z" fill="#45B3E9"/>
    <path d="M13.3333 13.3086H11V15.6358H13.3333V13.3086Z" fill="#45B3E9"/>
    <path d="M15.6667 13.3086H13.3334V15.6358H15.6667V13.3086Z" fill="#45B3E9"/>
    <path d="M18 15.6357H15.6666V17.963H18V15.6357Z" fill="black"/>
    <path d="M20.3333 15.6357H18V17.963H20.3333V15.6357Z" fill="#45B3E9"/>
    <path d="M22.6667 15.6357H20.3334V17.963H22.6667V15.6357Z" fill="#45B3E9"/>
    <path d="M25.0001 15.6357H22.6667V17.963H25.0001V15.6357Z" fill="#45B3E9"/>
    <path d="M27.3333 15.6357H25V17.963H27.3333V15.6357Z" fill="#FCFFFE"/>
    <path d="M29.6666 15.6357H27.3333V17.963H29.6666V15.6357Z" fill="#45B3E9"/>
    <path d="M13.3333 15.6357H11V17.963H13.3333V15.6357Z" fill="#45B3E9"/>
    <path d="M15.6667 15.6357H13.3334V17.963H15.6667V15.6357Z" fill="#45B3E9"/>
    <path d="M18 17.9629H15.6666V20.2901H18V17.9629Z" fill="#45B3E9"/>
    <path d="M20.3333 17.9629H18V20.2901H20.3333V17.9629Z" fill="black"/>
    <path d="M22.6667 17.9629H20.3334V20.2901H22.6667V17.9629Z" fill="black"/>
    <path d="M25.0001 17.9629H22.6667V20.2901H25.0001V17.9629Z" fill="#45B3E9"/>
    <path d="M27.3333 17.9629H25V20.2901H27.3333V17.9629Z" fill="#45B3E9"/>
    <path d="M29.6666 17.9629H27.3333V20.2901H29.6666V17.9629Z" fill="#45B3E9"/>
    <path d="M13.3333 17.9629H11V20.2901H13.3333V17.9629Z" fill="#45B3E9"/>
    <path d="M15.6667 17.9629H13.3334V20.2901H15.6667V17.9629Z" fill="#45B3E9"/>
    <path d="M18 20.2905H15.6666V22.6178H18V20.2905Z" fill="#45B3E9"/>
    <path d="M20.3333 20.2905H18V22.6178H20.3333V20.2905Z" fill="#45B3E9"/>
    <path d="M22.6667 20.2905H20.3334V22.6178H22.6667V20.2905Z" fill="#45B3E9"/>
    <path d="M25.0001 20.2905H22.6667V22.6178H25.0001V20.2905Z" fill="black"/>
    <path d="M27.3333 20.2905H25V22.6178H27.3333V20.2905Z" fill="#45B3E9"/>
    <path d="M29.6666 20.2905H27.3333V22.6178H29.6666V20.2905Z" fill="#45B3E9"/>
    <path d="M13.3333 20.2905H11V22.6178H13.3333V20.2905Z" fill="#45B3E9"/>
    <path d="M15.6667 20.2905H13.3334V22.6178H15.6667V20.2905Z" fill="#45B3E9"/>
    <path d="M18 22.6177H15.6666V24.9449H18V22.6177Z" fill="black"/>
    <path d="M20.3333 22.6177H18V24.9449H20.3333V22.6177Z" fill="#45B3E9"/>
    <path d="M22.6667 22.6177H20.3334V24.9449H22.6667V22.6177Z" fill="#45B3E9"/>
    <path d="M25.0001 22.6177H22.6667V24.9449H25.0001V22.6177Z" fill="black"/>
    <path d="M27.3333 22.6177H25V24.9449H27.3333V22.6177Z" fill="#45B3E9"/>
    <path d="M29.6666 22.6177H27.3333V24.9449H29.6666V22.6177Z" fill="#45B3E9"/>
    <path d="M32 15.6357H29.6666V17.963H32V15.6357Z" fill="#45B3E9"/>
    <path d="M32 17.9629H29.6666V20.2901H32V17.9629Z" fill="#45B3E9"/>
    <path d="M32 20.2905H29.6666V22.6178H32V20.2905Z" fill="#45B3E9"/>
    <path d="M32 22.6177H29.6666V24.9449H32V22.6177Z" fill="#45B3E9"/>
    <path d="M15.6667 22.6177H13.3334V24.9449H15.6667V22.6177Z" fill="#45B3E9"/>
    <path d="M18 24.9453H15.6666V27.2725H18V24.9453Z" fill="#45B3E9"/>
    <path d="M20.3333 24.9453H18V27.2725H20.3333V24.9453Z" fill="black"/>
    <path d="M22.6667 24.9453H20.3334V27.2725H22.6667V24.9453Z" fill="black"/>
    <path d="M25.0001 24.9453H22.6667V27.2725H25.0001V24.9453Z" fill="#45B3E9"/>
    <path d="M27.3333 24.9453H25V27.2725H27.3333V24.9453Z" fill="#45B3E9"/>
    <path d="M29.6666 24.9453H27.3333V27.2725H29.6666V24.9453Z" fill="#45B3E9"/>
    <path d="M20.3333 27.2725H18V29.5997H20.3333V27.2725Z" fill="#45B3E9"/>
    <path d="M22.6667 27.2725H20.3334V29.5997H22.6667V27.2725Z" fill="#45B3E9"/>
    <path d="M25.0001 27.2725H22.6667V29.5997H25.0001V27.2725Z" fill="#45B3E9"/>
    <path d="M27.3333 27.2725H25V29.5997H27.3333V27.2725Z" fill="#45B3E9"/>
    <path d="M29.6666 27.2725H27.3333V29.5997H29.6666V27.2725Z" fill="#45B3E9"/>
    <path d="M15.6667 24.9453H13.3334V27.2725H15.6667V24.9453Z" fill="#45B3E9"/>
</svg>
