<svg width="60" height="60" viewBox="0 0 60 60" fill="none" xmlns="http://www.w3.org/2000/svg">
    <path d="M52.6981 51.6621H50.8818V53.4822H52.6981V51.6621Z" fill="#231F20"/>
    <path d="M52.6981 49.8438H50.8818V51.663H52.6981V49.8438Z" fill="#231F20"/>
    <path d="M50.8822 51.6621H49.0659V53.4822H50.8822V51.6621Z" fill="#A8A29A"/>
    <path d="M50.8822 49.8438H49.0659V51.663H50.8822V49.8438Z" fill="#89847D"/>
    <path d="M50.8822 48.0244H49.0659V49.8436H50.8822V48.0244Z" fill="#231F20"/>
    <path d="M50.8822 29.8291H49.0659V31.6483H50.8822V29.8291Z" fill="#231F20"/>
    <path d="M50.8822 28.0088H49.0659V29.8289H50.8822V28.0088Z" fill="#231F20"/>
    <path d="M50.8822 9.81152H49.0659V11.6317H50.8822V9.81152Z" fill="#231F20"/>
    <path d="M50.8822 7.99219H49.0659V9.81139H50.8822V7.99219Z" fill="#231F20"/>
    <path d="M49.0652 51.6621H47.248V53.4822H49.0652V51.6621Z" fill="#A8A29A"/>
    <path d="M49.0652 49.8438H47.248V51.663H49.0652V49.8438Z" fill="#89847D"/>
    <path d="M49.0652 48.0244H47.248V49.8436H49.0652V48.0244Z" fill="#231F20"/>
    <path d="M49.0652 29.8291H47.248V31.6483H49.0652V29.8291Z" fill="#231F20"/>
    <path d="M49.0652 28.0088H47.248V29.8289H49.0652V28.0088Z" fill="#89847D"/>
    <path d="M49.0652 26.1895H47.248V28.0087H49.0652V26.1895Z" fill="#231F20"/>
    <path d="M49.0652 9.81152H47.248V11.6317H49.0652V9.81152Z" fill="#231F20"/>
    <path d="M49.0652 7.99219H47.248V9.81139H49.0652V7.99219Z" fill="#89847D"/>
    <path d="M49.0652 6.17383H47.248V7.99303H49.0652V6.17383Z" fill="#231F20"/>
    <path d="M47.2479 51.6621H45.4316V53.4822H47.2479V51.6621Z" fill="#A8A29A"/>
    <path d="M47.2479 49.8438H45.4316V51.663H47.2479V49.8438Z" fill="#89847D"/>
    <path d="M47.2479 48.0244H45.4316V49.8436H47.2479V48.0244Z" fill="#66625C"/>
    <path d="M47.2479 46.2041H45.4316V48.0242H47.2479V46.2041Z" fill="#231F20"/>
    <path d="M47.2479 44.3848H45.4316V46.204H47.2479V44.3848Z" fill="#231F20"/>
    <path d="M47.2479 42.5654H45.4316V44.3846H47.2479V42.5654Z" fill="#231F20"/>
    <path d="M47.2479 40.7451H45.4316V42.5653H47.2479V40.7451Z" fill="#231F20"/>
    <path d="M47.2479 38.9258H45.4316V40.745H47.2479V38.9258Z" fill="#231F20"/>
    <path d="M47.2479 37.1064H45.4316V38.9256H47.2479V37.1064Z" fill="#231F20"/>
    <path d="M47.2479 35.2871H45.4316V37.1063H47.2479V35.2871Z" fill="#231F20"/>
    <path d="M47.2479 33.4668H45.4316V35.2869H47.2479V33.4668Z" fill="#231F20"/>
    <path d="M47.2479 31.6475H45.4316V33.4667H47.2479V31.6475Z" fill="#231F20"/>
    <path d="M47.2479 29.8291H45.4316V31.6483H47.2479V29.8291Z" fill="#66625C"/>
    <path d="M47.2479 28.0088H45.4316V29.8289H47.2479V28.0088Z" fill="#89847D"/>
    <path d="M47.2479 26.1895H45.4316V28.0087H47.2479V26.1895Z" fill="#66625C"/>
    <path d="M47.2479 24.3691H45.4316V26.1883H47.2479V24.3691Z" fill="#231F20"/>
    <path d="M47.2479 22.5488H45.4316V24.369H47.2479V22.5488Z" fill="#231F20"/>
    <path d="M47.2479 20.7295H45.4316V22.5487H47.2479V20.7295Z" fill="#231F20"/>
    <path d="M47.2479 18.9102H45.4316V20.7294H47.2479V18.9102Z" fill="#231F20"/>
    <path d="M47.2479 17.0908H45.4316V18.91H47.2479V17.0908Z" fill="#231F20"/>
    <path d="M47.2479 15.2715H45.4316V17.0916H47.2479V15.2715Z" fill="#231F20"/>
    <path d="M47.2479 13.4521H45.4316V15.2713H47.2479V13.4521Z" fill="#231F20"/>
    <path d="M47.2479 11.6318H45.4316V13.451H47.2479V11.6318Z" fill="#231F20"/>
    <path d="M47.2479 9.81152H45.4316V11.6317H47.2479V9.81152Z" fill="#66625C"/>
    <path d="M47.2479 7.99219H45.4316V9.81139H47.2479V7.99219Z" fill="#89847D"/>
    <path d="M47.2479 6.17383H45.4316V7.99303H47.2479V6.17383Z" fill="#231F20"/>
    <path d="M45.431 51.6621H43.6147V53.4822H45.431V51.6621Z" fill="#A8A29A"/>
    <path d="M45.431 49.8438H43.6147V51.663H45.431V49.8438Z" fill="#89847D"/>
    <path d="M45.431 48.0244H43.6147V49.8436H45.431V48.0244Z" fill="#66625C"/>
    <path d="M45.431 46.2041H43.6147V48.0242H45.431V46.2041Z" fill="#D98100"/>
    <path d="M45.431 44.3848H43.6147V46.204H45.431V44.3848Z" fill="#D98100"/>
    <path d="M45.431 42.5654H43.6147V44.3846H45.431V42.5654Z" fill="#D98100"/>
    <path d="M45.431 40.7451H43.6147V42.5653H45.431V40.7451Z" fill="#D98100"/>
    <path d="M45.431 38.9258H43.6147V40.745H45.431V38.9258Z" fill="#D98100"/>
    <path d="M45.431 37.1064H43.6147V38.9256H45.431V37.1064Z" fill="#D98100"/>
    <path d="M45.431 35.2871H43.6147V37.1063H45.431V35.2871Z" fill="#D98100"/>
    <path d="M45.431 33.4668H43.6147V35.2869H45.431V33.4668Z" fill="#D98100"/>
    <path d="M45.431 31.6475H43.6147V33.4667H45.431V31.6475Z" fill="#D98100"/>
    <path d="M45.431 29.8291H43.6147V31.6483H45.431V29.8291Z" fill="#66625C"/>
    <path d="M45.431 28.0088H43.6147V29.8289H45.431V28.0088Z" fill="#89847D"/>
    <path d="M45.431 26.1895H43.6147V28.0087H45.431V26.1895Z" fill="#66625C"/>
    <path d="M45.431 24.3691H43.6147V26.1883H45.431V24.3691Z" fill="#D98100"/>
    <path d="M45.431 22.5488H43.6147V24.369H45.431V22.5488Z" fill="#D98100"/>
    <path d="M45.431 20.7295H43.6147V22.5487H45.431V20.7295Z" fill="#D98100"/>
    <path d="M45.431 18.9102H43.6147V20.7294H45.431V18.9102Z" fill="#D98100"/>
    <path d="M45.431 17.0908H43.6147V18.91H45.431V17.0908Z" fill="#D98100"/>
    <path d="M45.431 15.2715H43.6147V17.0916H45.431V15.2715Z" fill="#D98100"/>
    <path d="M45.431 13.4521H43.6147V15.2713H45.431V13.4521Z" fill="#D98100"/>
    <path d="M45.431 11.6318H43.6147V13.451H45.431V11.6318Z" fill="#D98100"/>
    <path d="M45.431 9.81152H43.6147V11.6317H45.431V9.81152Z" fill="#66625C"/>
    <path d="M45.431 7.99219H43.6147V9.81139H45.431V7.99219Z" fill="#89847D"/>
    <path d="M45.431 6.17383H43.6147V7.99303H45.431V6.17383Z" fill="#231F20"/>
    <path d="M43.6145 51.6621H41.7974V53.4822H43.6145V51.6621Z" fill="#A8A29A"/>
    <path d="M43.6145 49.8438H41.7974V51.663H43.6145V49.8438Z" fill="#89847D"/>
    <path d="M43.6145 48.0244H41.7974V49.8436H43.6145V48.0244Z" fill="#66625C"/>
    <path d="M43.6145 46.2041H41.7974V48.0242H43.6145V46.2041Z" fill="#D98100"/>
    <path d="M43.6145 44.3848H41.7974V46.204H43.6145V44.3848Z" fill="#BCBCBC"/>
    <path d="M43.6145 42.5654H41.7974V44.3846H43.6145V42.5654Z" fill="white"/>
    <path d="M43.6145 40.7451H41.7974V42.5653H43.6145V40.7451Z" fill="white"/>
    <path d="M43.6145 38.9258H41.7974V40.745H43.6145V38.9258Z" fill="white"/>
    <path d="M43.6145 37.1064H41.7974V38.9256H43.6145V37.1064Z" fill="white"/>
    <path d="M43.6145 35.2871H41.7974V37.1063H43.6145V35.2871Z" fill="#FFA219"/>
    <path d="M43.6145 33.4668H41.7974V35.2869H43.6145V33.4668Z" fill="#D98100"/>
    <path d="M43.6145 31.6475H41.7974V33.4667H43.6145V31.6475Z" fill="#D98100"/>
    <path d="M43.6145 29.8291H41.7974V31.6483H43.6145V29.8291Z" fill="#66625C"/>
    <path d="M43.6145 28.0088H41.7974V29.8289H43.6145V28.0088Z" fill="#89847D"/>
    <path d="M43.6145 26.1895H41.7974V28.0087H43.6145V26.1895Z" fill="#66625C"/>
    <path d="M43.6145 24.3691H41.7974V26.1883H43.6145V24.3691Z" fill="#D98100"/>
    <path d="M43.6145 22.5488H41.7974V24.369H43.6145V22.5488Z" fill="#D98100"/>
    <path d="M43.6145 20.7295H41.7974V22.5487H43.6145V20.7295Z" fill="#BCBCBC"/>
    <path d="M43.6145 18.9102H41.7974V20.7294H43.6145V18.9102Z" fill="white"/>
    <path d="M43.6145 17.0908H41.7974V18.91H43.6145V17.0908Z" fill="white"/>
    <path d="M43.6145 15.2715H41.7974V17.0916H43.6145V15.2715Z" fill="white"/>
    <path d="M43.6145 13.4521H41.7974V15.2713H43.6145V13.4521Z" fill="#FFA219"/>
    <path d="M43.6145 11.6318H41.7974V13.451H43.6145V11.6318Z" fill="#D98100"/>
    <path d="M43.6145 9.81152H41.7974V11.6317H43.6145V9.81152Z" fill="#66625C"/>
    <path d="M43.6145 7.99219H41.7974V9.81139H43.6145V7.99219Z" fill="#89847D"/>
    <path d="M43.6145 6.17383H41.7974V7.99303H43.6145V6.17383Z" fill="#231F20"/>
    <path d="M41.7977 51.6621H39.9814V53.4822H41.7977V51.6621Z" fill="#A8A29A"/>
    <path d="M41.7977 49.8438H39.9814V51.663H41.7977V49.8438Z" fill="#89847D"/>
    <path d="M41.7977 48.0244H39.9814V49.8436H41.7977V48.0244Z" fill="#7C766E"/>
    <path d="M41.7977 46.2041H39.9814V48.0242H41.7977V46.2041Z" fill="#D98100"/>
    <path d="M41.7977 44.3848H39.9814V46.204H41.7977V44.3848Z" fill="#BCBCBC"/>
    <path d="M41.7977 42.5654H39.9814V44.3846H41.7977V42.5654Z" fill="#71B9F4"/>
    <path d="M41.7977 40.7451H39.9814V42.5653H41.7977V40.7451Z" fill="#71B9F4"/>
    <path d="M41.7977 38.9258H39.9814V40.745H41.7977V38.9258Z" fill="#71B9F4"/>
    <path d="M41.7977 37.1064H39.9814V38.9256H41.7977V37.1064Z" fill="#ABD4EF"/>
    <path d="M41.7977 35.2871H39.9814V37.1063H41.7977V35.2871Z" fill="white"/>
    <path d="M41.7977 33.4668H39.9814V35.2869H41.7977V33.4668Z" fill="#FFA219"/>
    <path d="M41.7977 31.6475H39.9814V33.4667H41.7977V31.6475Z" fill="#D98100"/>
    <path d="M41.7977 29.8291H39.9814V31.6483H41.7977V29.8291Z" fill="#66625C"/>
    <path d="M41.7977 28.0088H39.9814V29.8289H41.7977V28.0088Z" fill="#89847D"/>
    <path d="M41.7977 26.1895H39.9814V28.0087H41.7977V26.1895Z" fill="#66625C"/>
    <path d="M41.7977 24.3691H39.9814V26.1883H41.7977V24.3691Z" fill="#FFA219"/>
    <path d="M41.7977 22.5488H39.9814V24.369H41.7977V22.5488Z" fill="#D98100"/>
    <path d="M41.7977 20.7295H39.9814V22.5487H41.7977V20.7295Z" fill="#BCBCBC"/>
    <path d="M41.7977 18.9102H39.9814V20.7294H41.7977V18.9102Z" fill="#71B9F4"/>
    <path d="M41.7977 17.0908H39.9814V18.91H41.7977V17.0908Z" fill="#71B9F4"/>
    <path d="M41.7977 15.2715H39.9814V17.0916H41.7977V15.2715Z" fill="#ABD4EF"/>
    <path d="M41.7977 13.4521H39.9814V15.2713H41.7977V13.4521Z" fill="white"/>
    <path d="M41.7977 11.6318H39.9814V13.451H41.7977V11.6318Z" fill="#D98100"/>
    <path d="M41.7977 9.81152H39.9814V11.6317H41.7977V9.81152Z" fill="#66625C"/>
    <path d="M41.7977 7.99219H39.9814V9.81139H41.7977V7.99219Z" fill="#89847D"/>
    <path d="M41.7977 6.17383H39.9814V7.99303H41.7977V6.17383Z" fill="#231F20"/>
    <path d="M39.9813 51.6621H38.165V53.4822H39.9813V51.6621Z" fill="#A8A29A"/>
    <path d="M39.9813 49.8438H38.165V51.663H39.9813V49.8438Z" fill="#938D86"/>
    <path d="M39.9813 48.0244H38.165V49.8436H39.9813V48.0244Z" fill="#7C766E"/>
    <path d="M39.9813 46.2041H38.165V48.0242H39.9813V46.2041Z" fill="#D98100"/>
    <path d="M39.9813 44.3848H38.165V46.204H39.9813V44.3848Z" fill="#BCBCBC"/>
    <path d="M39.9813 42.5654H38.165V44.3846H39.9813V42.5654Z" fill="#71B9F4"/>
    <path d="M39.9813 40.7451H38.165V42.5653H39.9813V40.7451Z" fill="#ABD4EF"/>
    <path d="M39.9813 38.9258H38.165V40.745H39.9813V38.9258Z" fill="#ABD4EF"/>
    <path d="M39.9813 37.1064H38.165V38.9256H39.9813V37.1064Z" fill="#71B9F4"/>
    <path d="M39.9813 35.2871H38.165V37.1063H39.9813V35.2871Z" fill="white"/>
    <path d="M39.9813 33.4668H38.165V35.2869H39.9813V33.4668Z" fill="#FFA219"/>
    <path d="M39.9813 31.6475H38.165V33.4667H39.9813V31.6475Z" fill="#D98100"/>
    <path d="M39.9813 29.8291H38.165V31.6483H39.9813V29.8291Z" fill="#66625C"/>
    <path d="M39.9813 28.0088H38.165V29.8289H39.9813V28.0088Z" fill="#89847D"/>
    <path d="M39.9813 26.1895H38.165V28.0087H39.9813V26.1895Z" fill="#66625C"/>
    <path d="M39.9813 24.3691H38.165V26.1883H39.9813V24.3691Z" fill="#FFA219"/>
    <path d="M39.9813 22.5488H38.165V24.369H39.9813V22.5488Z" fill="#D98100"/>
    <path d="M39.9813 20.7295H38.165V22.5487H39.9813V20.7295Z" fill="#BCBCBC"/>
    <path d="M39.9813 18.9102H38.165V20.7294H39.9813V18.9102Z" fill="#ABD4EF"/>
    <path d="M39.9813 17.0908H38.165V18.91H39.9813V17.0908Z" fill="#ABD4EF"/>
    <path d="M39.9813 15.2715H38.165V17.0916H39.9813V15.2715Z" fill="#71B9F4"/>
    <path d="M39.9813 13.4521H38.165V15.2713H39.9813V13.4521Z" fill="white"/>
    <path d="M39.9813 11.6318H38.165V13.451H39.9813V11.6318Z" fill="#D98100"/>
    <path d="M39.9813 9.81152H38.165V11.6317H39.9813V9.81152Z" fill="#66625C"/>
    <path d="M39.9813 7.99219H38.165V9.81139H39.9813V7.99219Z" fill="#89847D"/>
    <path d="M39.9813 6.17383H38.165V7.99303H39.9813V6.17383Z" fill="#231F20"/>
    <path d="M38.1649 51.6621H36.3486V53.4822H38.1649V51.6621Z" fill="#A8A29A"/>
    <path d="M38.1649 49.8438H36.3486V51.663H38.1649V49.8438Z" fill="#938D86"/>
    <path d="M38.1649 48.0244H36.3486V49.8436H38.1649V48.0244Z" fill="#7C766E"/>
    <path d="M38.1649 46.2041H36.3486V48.0242H38.1649V46.2041Z" fill="#D98100"/>
    <path d="M38.1649 44.3848H36.3486V46.204H38.1649V44.3848Z" fill="#BCBCBC"/>
    <path d="M38.1649 42.5654H36.3486V44.3846H38.1649V42.5654Z" fill="white"/>
    <path d="M38.1649 40.7451H36.3486V42.5653H38.1649V40.7451Z" fill="white"/>
    <path d="M38.1649 38.9258H36.3486V40.745H38.1649V38.9258Z" fill="white"/>
    <path d="M38.1649 37.1064H36.3486V38.9256H38.1649V37.1064Z" fill="white"/>
    <path d="M38.1649 35.2871H36.3486V37.1063H38.1649V35.2871Z" fill="#FFA219"/>
    <path d="M38.1649 33.4668H36.3486V35.2869H38.1649V33.4668Z" fill="#FFA219"/>
    <path d="M38.1649 31.6475H36.3486V33.4667H38.1649V31.6475Z" fill="#D98100"/>
    <path d="M38.1649 29.8291H36.3486V31.6483H38.1649V29.8291Z" fill="#66625C"/>
    <path d="M38.1649 28.0088H36.3486V29.8289H38.1649V28.0088Z" fill="#89847D"/>
    <path d="M38.1649 26.1895H36.3486V28.0087H38.1649V26.1895Z" fill="#66625C"/>
    <path d="M38.1649 24.3691H36.3486V26.1883H38.1649V24.3691Z" fill="#FFA219"/>
    <path d="M38.1649 22.5488H36.3486V24.369H38.1649V22.5488Z" fill="#D98100"/>
    <path d="M38.1649 20.7295H36.3486V22.5487H38.1649V20.7295Z" fill="#BCBCBC"/>
    <path d="M38.1649 18.9102H36.3486V20.7294H38.1649V18.9102Z" fill="white"/>
    <path d="M38.1649 17.0908H36.3486V18.91H38.1649V17.0908Z" fill="white"/>
    <path d="M38.1649 15.2715H36.3486V17.0916H38.1649V15.2715Z" fill="white"/>
    <path d="M38.1649 13.4521H36.3486V15.2713H38.1649V13.4521Z" fill="#FFA219"/>
    <path d="M38.1649 11.6318H36.3486V13.451H38.1649V11.6318Z" fill="#D98100"/>
    <path d="M38.1649 9.81152H36.3486V11.6317H38.1649V9.81152Z" fill="#66625C"/>
    <path d="M38.1649 7.99219H36.3486V9.81139H38.1649V7.99219Z" fill="#89847D"/>
    <path d="M38.1649 6.17383H36.3486V7.99303H38.1649V6.17383Z" fill="#231F20"/>
    <path d="M36.3489 51.6621H34.5317V53.4822H36.3489V51.6621Z" fill="#7C766E"/>
    <path d="M36.3489 49.8438H34.5317V51.663H36.3489V49.8438Z" fill="#7C766E"/>
    <path d="M36.3489 48.0244H34.5317V49.8436H36.3489V48.0244Z" fill="#FFA219"/>
    <path d="M36.3489 46.2041H34.5317V48.0242H36.3489V46.2041Z" fill="#FFA219"/>
    <path d="M36.3489 44.3848H34.5317V46.204H36.3489V44.3848Z" fill="#FFA219"/>
    <path d="M36.3489 42.5654H34.5317V44.3846H36.3489V42.5654Z" fill="#FFA219"/>
    <path d="M36.3489 40.7451H34.5317V42.5653H36.3489V40.7451Z" fill="#FFA219"/>
    <path d="M36.3489 38.9258H34.5317V40.745H36.3489V38.9258Z" fill="#FFA219"/>
    <path d="M36.3489 37.1064H34.5317V38.9256H36.3489V37.1064Z" fill="#FFA219"/>
    <path d="M36.3489 35.2871H34.5317V37.1063H36.3489V35.2871Z" fill="#FFA219"/>
    <path d="M36.3489 33.4668H34.5317V35.2869H36.3489V33.4668Z" fill="#FFA219"/>
    <path d="M36.3489 31.6475H34.5317V33.4667H36.3489V31.6475Z" fill="#D98100"/>
    <path d="M36.3489 29.8291H34.5317V31.6483H36.3489V29.8291Z" fill="#66625C"/>
    <path d="M36.3489 28.0088H34.5317V29.8289H36.3489V28.0088Z" fill="#89847D"/>
    <path d="M36.3489 26.1895H34.5317V28.0087H36.3489V26.1895Z" fill="#66625C"/>
    <path d="M36.3489 24.3691H34.5317V26.1883H36.3489V24.3691Z" fill="#FFA219"/>
    <path d="M36.3489 22.5488H34.5317V24.369H36.3489V22.5488Z" fill="#FFA219"/>
    <path d="M36.3489 20.7295H34.5317V22.5487H36.3489V20.7295Z" fill="#FFA219"/>
    <path d="M36.3489 18.9102H34.5317V20.7294H36.3489V18.9102Z" fill="#FFA219"/>
    <path d="M36.3489 17.0908H34.5317V18.91H36.3489V17.0908Z" fill="#FFA219"/>
    <path d="M36.3489 15.2715H34.5317V17.0916H36.3489V15.2715Z" fill="#FFA219"/>
    <path d="M36.3489 13.4521H34.5317V15.2713H36.3489V13.4521Z" fill="#FFA219"/>
    <path d="M36.3489 11.6318H34.5317V13.451H36.3489V11.6318Z" fill="#D98100"/>
    <path d="M36.3489 9.81152H34.5317V11.6317H36.3489V9.81152Z" fill="#66625C"/>
    <path d="M36.3489 7.99219H34.5317V9.81139H36.3489V7.99219Z" fill="#89847D"/>
    <path d="M36.3489 6.17383H34.5317V7.99303H36.3489V6.17383Z" fill="#231F20"/>
    <path d="M34.5316 51.6621H32.7153V53.4822H34.5316V51.6621Z" fill="#938D86"/>
    <path d="M34.5316 49.8438H32.7153V51.663H34.5316V49.8438Z" fill="#7C766E"/>
    <path d="M34.5316 48.0244H32.7153V49.8436H34.5316V48.0244Z" fill="#BF4400"/>
    <path d="M34.5316 46.2041H32.7153V48.0242H34.5316V46.2041Z" fill="#BF4400"/>
    <path d="M34.5316 44.3848H32.7153V46.204H34.5316V44.3848Z" fill="#BF4400"/>
    <path d="M34.5316 42.5654H32.7153V44.3846H34.5316V42.5654Z" fill="#BF4400"/>
    <path d="M34.5316 40.7451H32.7153V42.5653H34.5316V40.7451Z" fill="#BF4400"/>
    <path d="M34.5316 38.9258H32.7153V40.745H34.5316V38.9258Z" fill="#BF4400"/>
    <path d="M34.5316 37.1064H32.7153V38.9256H34.5316V37.1064Z" fill="#BF4400"/>
    <path d="M34.5316 35.2871H32.7153V37.1063H34.5316V35.2871Z" fill="#FFA219"/>
    <path d="M34.5316 33.4668H32.7153V35.2869H34.5316V33.4668Z" fill="#FFA219"/>
    <path d="M34.5316 31.6475H32.7153V33.4667H34.5316V31.6475Z" fill="#D98100"/>
    <path d="M34.5316 29.8291H32.7153V31.6483H34.5316V29.8291Z" fill="#66625C"/>
    <path d="M34.5316 28.0088H32.7153V29.8289H34.5316V28.0088Z" fill="#89847D"/>
    <path d="M34.5316 26.1895H32.7153V28.0087H34.5316V26.1895Z" fill="#66625C"/>
    <path d="M34.5316 24.3691H32.7153V26.1883H34.5316V24.3691Z" fill="#FFA219"/>
    <path d="M34.5316 22.5488H32.7153V24.369H34.5316V22.5488Z" fill="#D98100"/>
    <path d="M34.5316 20.7295H32.7153V22.5487H34.5316V20.7295Z" fill="#BCBCBC"/>
    <path d="M34.5316 18.9102H32.7153V20.7294H34.5316V18.9102Z" fill="white"/>
    <path d="M34.5316 17.0908H32.7153V18.91H34.5316V17.0908Z" fill="white"/>
    <path d="M34.5316 15.2715H32.7153V17.0916H34.5316V15.2715Z" fill="white"/>
    <path d="M34.5316 13.4521H32.7153V15.2713H34.5316V13.4521Z" fill="#FFA219"/>
    <path d="M34.5316 11.6318H32.7153V13.451H34.5316V11.6318Z" fill="#D98100"/>
    <path d="M34.5316 9.81152H32.7153V11.6317H34.5316V9.81152Z" fill="#66625C"/>
    <path d="M34.5316 7.99219H32.7153V9.81139H34.5316V7.99219Z" fill="#89847D"/>
    <path d="M34.5316 6.17383H32.7153V7.99303H34.5316V6.17383Z" fill="#231F20"/>
    <path d="M32.7147 51.6621H30.8984V53.4822H32.7147V51.6621Z" fill="#938D86"/>
    <path d="M32.7147 49.8438H30.8984V51.663H32.7147V49.8438Z" fill="#7C766E"/>
    <path d="M32.7147 48.0244H30.8984V49.8436H32.7147V48.0244Z" fill="#D95C17"/>
    <path d="M32.7147 46.2041H30.8984V48.0242H32.7147V46.2041Z" fill="#D95C17"/>
    <path d="M32.7147 44.3848H30.8984V46.204H32.7147V44.3848Z" fill="#D95C17"/>
    <path d="M32.7147 42.5654H30.8984V44.3846H32.7147V42.5654Z" fill="#D95C17"/>
    <path d="M32.7147 40.7451H30.8984V42.5653H32.7147V40.7451Z" fill="#D95C17"/>
    <path d="M32.7147 38.9258H30.8984V40.745H32.7147V38.9258Z" fill="#D95C17"/>
    <path d="M32.7147 37.1064H30.8984V38.9256H32.7147V37.1064Z" fill="#D95C17"/>
    <path d="M32.7147 35.2871H30.8984V37.1063H32.7147V35.2871Z" fill="#BF4400"/>
    <path d="M32.7147 33.4668H30.8984V35.2869H32.7147V33.4668Z" fill="#FFA219"/>
    <path d="M32.7147 31.6475H30.8984V33.4667H32.7147V31.6475Z" fill="#D98100"/>
    <path d="M32.7147 29.8291H30.8984V31.6483H32.7147V29.8291Z" fill="#66625C"/>
    <path d="M32.7147 28.0088H30.8984V29.8289H32.7147V28.0088Z" fill="#89847D"/>
    <path d="M32.7147 26.1895H30.8984V28.0087H32.7147V26.1895Z" fill="#66625C"/>
    <path d="M32.7147 24.3691H30.8984V26.1883H32.7147V24.3691Z" fill="#FFA219"/>
    <path d="M32.7147 22.5488H30.8984V24.369H32.7147V22.5488Z" fill="#D98100"/>
    <path d="M32.7147 20.7295H30.8984V22.5487H32.7147V20.7295Z" fill="#BCBCBC"/>
    <path d="M32.7147 18.9102H30.8984V20.7294H32.7147V18.9102Z" fill="#71B9F4"/>
    <path d="M32.7147 17.0908H30.8984V18.91H32.7147V17.0908Z" fill="#71B9F4"/>
    <path d="M32.7147 15.2715H30.8984V17.0916H32.7147V15.2715Z" fill="#ABD4EF"/>
    <path d="M32.7147 13.4521H30.8984V15.2713H32.7147V13.4521Z" fill="white"/>
    <path d="M32.7147 11.6318H30.8984V13.451H32.7147V11.6318Z" fill="#D98100"/>
    <path d="M32.7147 9.81152H30.8984V11.6317H32.7147V9.81152Z" fill="#66625C"/>
    <path d="M32.7147 7.99219H30.8984V9.81139H32.7147V7.99219Z" fill="#89847D"/>
    <path d="M32.7147 6.17383H30.8984V7.99303H32.7147V6.17383Z" fill="#231F20"/>
    <path d="M30.8992 51.6621H29.082V53.4822H30.8992V51.6621Z" fill="#938D86"/>
    <path d="M30.8992 49.8438H29.082V51.663H30.8992V49.8438Z" fill="#7C766E"/>
    <path d="M30.8992 48.0244H29.082V49.8436H30.8992V48.0244Z" fill="#D95C17"/>
    <path d="M30.8992 46.2041H29.082V48.0242H30.8992V46.2041Z" fill="#D95C17"/>
    <path d="M30.8992 44.3848H29.082V46.204H30.8992V44.3848Z" fill="#D95C17"/>
    <path d="M30.8992 42.5654H29.082V44.3846H30.8992V42.5654Z" fill="#D95C17"/>
    <path d="M30.8992 40.7451H29.082V42.5653H30.8992V40.7451Z" fill="#D95C17"/>
    <path d="M30.8992 38.9258H29.082V40.745H30.8992V38.9258Z" fill="#D95C17"/>
    <path d="M30.8992 37.1064H29.082V38.9256H30.8992V37.1064Z" fill="#D95C17"/>
    <path d="M30.8992 35.2871H29.082V37.1063H30.8992V35.2871Z" fill="#BF4400"/>
    <path d="M30.8992 33.4668H29.082V35.2869H30.8992V33.4668Z" fill="#FFA219"/>
    <path d="M30.8992 31.6475H29.082V33.4667H30.8992V31.6475Z" fill="#D98100"/>
    <path d="M30.8992 29.8291H29.082V31.6483H30.8992V29.8291Z" fill="#66625C"/>
    <path d="M30.8992 28.0088H29.082V29.8289H30.8992V28.0088Z" fill="#89847D"/>
    <path d="M30.8992 26.1895H29.082V28.0087H30.8992V26.1895Z" fill="#66625C"/>
    <path d="M30.8992 24.3691H29.082V26.1883H30.8992V24.3691Z" fill="#FFA219"/>
    <path d="M30.8992 22.5488H29.082V24.369H30.8992V22.5488Z" fill="#D98100"/>
    <path d="M30.8992 20.7295H29.082V22.5487H30.8992V20.7295Z" fill="#BCBCBC"/>
    <path d="M30.8992 18.9102H29.082V20.7294H30.8992V18.9102Z" fill="#71B9F4"/>
    <path d="M30.8992 17.0908H29.082V18.91H30.8992V17.0908Z" fill="#ABD4EF"/>
    <path d="M30.8992 15.2715H29.082V17.0916H30.8992V15.2715Z" fill="#71B9F4"/>
    <path d="M30.8992 13.4521H29.082V15.2713H30.8992V13.4521Z" fill="white"/>
    <path d="M30.8992 11.6318H29.082V13.451H30.8992V11.6318Z" fill="#D98100"/>
    <path d="M30.8992 9.81152H29.082V11.6317H30.8992V9.81152Z" fill="#66625C"/>
    <path d="M30.8992 7.99219H29.082V9.81139H30.8992V7.99219Z" fill="#89847D"/>
    <path d="M30.8992 6.17383H29.082V7.99303H30.8992V6.17383Z" fill="#231F20"/>
    <path d="M29.0814 51.6621H27.2651V53.4822H29.0814V51.6621Z" fill="#938D86"/>
    <path d="M29.0814 49.8438H27.2651V51.663H29.0814V49.8438Z" fill="#7C766E"/>
    <path d="M29.0814 48.0244H27.2651V49.8436H29.0814V48.0244Z" fill="#D95C17"/>
    <path d="M29.0814 46.2041H27.2651V48.0242H29.0814V46.2041Z" fill="#D95C17"/>
    <path d="M29.0814 44.3848H27.2651V46.204H29.0814V44.3848Z" fill="#D95C17"/>
    <path d="M29.0814 42.5654H27.2651V44.3846H29.0814V42.5654Z" fill="#D95C17"/>
    <path d="M29.0814 40.7451H27.2651V42.5653H29.0814V40.7451Z" fill="#D95C17"/>
    <path d="M29.0814 38.9258H27.2651V40.745H29.0814V38.9258Z" fill="#D95C17"/>
    <path d="M29.0814 37.1064H27.2651V38.9256H29.0814V37.1064Z" fill="#D95C17"/>
    <path d="M29.0814 35.2871H27.2651V37.1063H29.0814V35.2871Z" fill="#BF4400"/>
    <path d="M29.0814 33.4668H27.2651V35.2869H29.0814V33.4668Z" fill="#FFA219"/>
    <path d="M29.0814 31.6475H27.2651V33.4667H29.0814V31.6475Z" fill="#D98100"/>
    <path d="M29.0814 29.8291H27.2651V31.6483H29.0814V29.8291Z" fill="#66625C"/>
    <path d="M29.0814 28.0088H27.2651V29.8289H29.0814V28.0088Z" fill="#89847D"/>
    <path d="M29.0814 26.1895H27.2651V28.0087H29.0814V26.1895Z" fill="#7C766E"/>
    <path d="M29.0814 24.3691H27.2651V26.1883H29.0814V24.3691Z" fill="#FFA219"/>
    <path d="M29.0814 22.5488H27.2651V24.369H29.0814V22.5488Z" fill="#D98100"/>
    <path d="M29.0814 20.7295H27.2651V22.5487H29.0814V20.7295Z" fill="#BCBCBC"/>
    <path d="M29.0814 18.9102H27.2651V20.7294H29.0814V18.9102Z" fill="#ABD4EF"/>
    <path d="M29.0814 17.0908H27.2651V18.91H29.0814V17.0908Z" fill="#71B9F4"/>
    <path d="M29.0814 15.2715H27.2651V17.0916H29.0814V15.2715Z" fill="#ABD4EF"/>
    <path d="M29.0814 13.4521H27.2651V15.2713H29.0814V13.4521Z" fill="white"/>
    <path d="M29.0814 11.6318H27.2651V13.451H29.0814V11.6318Z" fill="#D98100"/>
    <path d="M29.0814 9.81152H27.2651V11.6317H29.0814V9.81152Z" fill="#66625C"/>
    <path d="M29.0814 7.99219H27.2651V9.81139H29.0814V7.99219Z" fill="#A8A29A"/>
    <path d="M29.0814 6.17383H27.2651V7.99303H29.0814V6.17383Z" fill="#231F20"/>
    <path d="M27.265 51.6621H25.4487V53.4822H27.265V51.6621Z" fill="#938D86"/>
    <path d="M27.265 49.8438H25.4487V51.663H27.265V49.8438Z" fill="#7C766E"/>
    <path d="M27.265 48.0244H25.4487V49.8436H27.265V48.0244Z" fill="#D95C17"/>
    <path d="M27.265 46.2041H25.4487V48.0242H27.265V46.2041Z" fill="#D95C17"/>
    <path d="M27.265 44.3848H25.4487V46.204H27.265V44.3848Z" fill="#D95C17"/>
    <path d="M27.265 42.5654H25.4487V44.3846H27.265V42.5654Z" fill="black"/>
    <path d="M27.265 40.7451H25.4487V42.5653H27.265V40.7451Z" fill="#D95C17"/>
    <path d="M27.265 38.9258H25.4487V40.745H27.265V38.9258Z" fill="#D95C17"/>
    <path d="M27.265 37.1064H25.4487V38.9256H27.265V37.1064Z" fill="#D95C17"/>
    <path d="M27.265 35.2871H25.4487V37.1063H27.265V35.2871Z" fill="#BF4400"/>
    <path d="M27.265 33.4668H25.4487V35.2869H27.265V33.4668Z" fill="#FFA219"/>
    <path d="M27.265 31.6475H25.4487V33.4667H27.265V31.6475Z" fill="#D98100"/>
    <path d="M27.265 29.8291H25.4487V31.6483H27.265V29.8291Z" fill="#66625C"/>
    <path d="M27.265 28.0088H25.4487V29.8289H27.265V28.0088Z" fill="#A8A29A"/>
    <path d="M27.265 26.1895H25.4487V28.0087H27.265V26.1895Z" fill="#7C766E"/>
    <path d="M27.265 24.3691H25.4487V26.1883H27.265V24.3691Z" fill="#FFA219"/>
    <path d="M27.265 22.5488H25.4487V24.369H27.265V22.5488Z" fill="#D98100"/>
    <path d="M27.265 20.7295H25.4487V22.5487H27.265V20.7295Z" fill="#BCBCBC"/>
    <path d="M27.265 18.9102H25.4487V20.7294H27.265V18.9102Z" fill="white"/>
    <path d="M27.265 17.0908H25.4487V18.91H27.265V17.0908Z" fill="white"/>
    <path d="M27.265 15.2715H25.4487V17.0916H27.265V15.2715Z" fill="white"/>
    <path d="M27.265 13.4521H25.4487V15.2713H27.265V13.4521Z" fill="#FFA219"/>
    <path d="M27.265 11.6318H25.4487V13.451H27.265V11.6318Z" fill="#D98100"/>
    <path d="M27.265 9.81152H25.4487V11.6317H27.265V9.81152Z" fill="#66625C"/>
    <path d="M27.265 7.99219H25.4487V9.81139H27.265V7.99219Z" fill="#A8A29A"/>
    <path d="M27.265 6.17383H25.4487V7.99303H27.265V6.17383Z" fill="#231F20"/>
    <path d="M25.4485 51.6621H23.6313V53.4822H25.4485V51.6621Z" fill="#938D86"/>
    <path d="M25.4485 49.8438H23.6313V51.663H25.4485V49.8438Z" fill="#7C766E"/>
    <path d="M25.4485 48.0244H23.6313V49.8436H25.4485V48.0244Z" fill="#BF4400"/>
    <path d="M25.4485 46.2041H23.6313V48.0242H25.4485V46.2041Z" fill="#BF4400"/>
    <path d="M25.4485 44.3848H23.6313V46.204H25.4485V44.3848Z" fill="#BF4400"/>
    <path d="M25.4485 42.5654H23.6313V44.3846H25.4485V42.5654Z" fill="#BF4400"/>
    <path d="M25.4485 40.7451H23.6313V42.5653H25.4485V40.7451Z" fill="#BF4400"/>
    <path d="M25.4485 38.9258H23.6313V40.745H25.4485V38.9258Z" fill="#BF4400"/>
    <path d="M25.4485 37.1064H23.6313V38.9256H25.4485V37.1064Z" fill="#BF4400"/>
    <path d="M25.4485 35.2871H23.6313V37.1063H25.4485V35.2871Z" fill="#FFA219"/>
    <path d="M25.4485 33.4668H23.6313V35.2869H25.4485V33.4668Z" fill="#FFA219"/>
    <path d="M25.4485 31.6475H23.6313V33.4667H25.4485V31.6475Z" fill="#D98100"/>
    <path d="M25.4485 29.8291H23.6313V31.6483H25.4485V29.8291Z" fill="#7C766E"/>
    <path d="M25.4485 28.0088H23.6313V29.8289H25.4485V28.0088Z" fill="#A8A29A"/>
    <path d="M25.4485 26.1895H23.6313V28.0087H25.4485V26.1895Z" fill="#7C766E"/>
    <path d="M25.4485 24.3691H23.6313V26.1883H25.4485V24.3691Z" fill="#FFA219"/>
    <path d="M25.4485 22.5488H23.6313V24.369H25.4485V22.5488Z" fill="#FFA219"/>
    <path d="M25.4485 20.7295H23.6313V22.5487H25.4485V20.7295Z" fill="#FFA219"/>
    <path d="M25.4485 18.9102H23.6313V20.7294H25.4485V18.9102Z" fill="#FFA219"/>
    <path d="M25.4485 17.0908H23.6313V18.91H25.4485V17.0908Z" fill="#FFA219"/>
    <path d="M25.4485 15.2715H23.6313V17.0916H25.4485V15.2715Z" fill="#FFA219"/>
    <path d="M25.4485 13.4521H23.6313V15.2713H25.4485V13.4521Z" fill="#FFA219"/>
    <path d="M25.4485 11.6318H23.6313V13.451H25.4485V11.6318Z" fill="#D98100"/>
    <path d="M25.4485 9.81152H23.6313V11.6317H25.4485V9.81152Z" fill="#7C766E"/>
    <path d="M25.4485 7.99219H23.6313V9.81139H25.4485V7.99219Z" fill="#A8A29A"/>
    <path d="M25.4485 6.17383H23.6313V7.99303H25.4485V6.17383Z" fill="#231F20"/>
    <path d="M23.6317 51.6621H21.8154V53.4822H23.6317V51.6621Z" fill="#7C766E"/>
    <path d="M23.6317 49.8438H21.8154V51.663H23.6317V49.8438Z" fill="#7C766E"/>
    <path d="M23.6317 48.0244H21.8154V49.8436H23.6317V48.0244Z" fill="#FFA219"/>
    <path d="M23.6317 46.2041H21.8154V48.0242H23.6317V46.2041Z" fill="#FFA219"/>
    <path d="M23.6317 44.3848H21.8154V46.204H23.6317V44.3848Z" fill="#FFA219"/>
    <path d="M23.6317 42.5654H21.8154V44.3846H23.6317V42.5654Z" fill="#FFA219"/>
    <path d="M23.6317 40.7451H21.8154V42.5653H23.6317V40.7451Z" fill="#FFA219"/>
    <path d="M23.6317 38.9258H21.8154V40.745H23.6317V38.9258Z" fill="#FFA219"/>
    <path d="M23.6317 37.1064H21.8154V38.9256H23.6317V37.1064Z" fill="#FFA219"/>
    <path d="M23.6317 35.2871H21.8154V37.1063H23.6317V35.2871Z" fill="#FFA219"/>
    <path d="M23.6317 33.4668H21.8154V35.2869H23.6317V33.4668Z" fill="#FFA219"/>
    <path d="M23.6317 31.6475H21.8154V33.4667H23.6317V31.6475Z" fill="#D98100"/>
    <path d="M23.6317 29.8291H21.8154V31.6483H23.6317V29.8291Z" fill="#7C766E"/>
    <path d="M23.6317 28.0088H21.8154V29.8289H23.6317V28.0088Z" fill="#A8A29A"/>
    <path d="M23.6317 26.1895H21.8154V28.0087H23.6317V26.1895Z" fill="#7C766E"/>
    <path d="M23.6317 24.3691H21.8154V26.1883H23.6317V24.3691Z" fill="#FFA219"/>
    <path d="M23.6317 22.5488H21.8154V24.369H23.6317V22.5488Z" fill="#D98100"/>
    <path d="M23.6317 20.7295H21.8154V22.5487H23.6317V20.7295Z" fill="#BCBCBC"/>
    <path d="M23.6317 18.9102H21.8154V20.7294H23.6317V18.9102Z" fill="white"/>
    <path d="M23.6317 17.0908H21.8154V18.91H23.6317V17.0908Z" fill="white"/>
    <path d="M23.6317 15.2715H21.8154V17.0916H23.6317V15.2715Z" fill="white"/>
    <path d="M23.6317 13.4521H21.8154V15.2713H23.6317V13.4521Z" fill="#FFA219"/>
    <path d="M23.6317 11.6318H21.8154V13.451H23.6317V11.6318Z" fill="#D98100"/>
    <path d="M23.6317 9.81152H21.8154V11.6317H23.6317V9.81152Z" fill="#7C766E"/>
    <path d="M23.6317 7.99219H21.8154V9.81139H23.6317V7.99219Z" fill="#A8A29A"/>
    <path d="M23.6317 6.17383H21.8154V7.99303H23.6317V6.17383Z" fill="#231F20"/>
    <path d="M21.8153 51.6621H19.999V53.4822H21.8153V51.6621Z" fill="#A8A29A"/>
    <path d="M21.8153 49.8438H19.999V51.663H21.8153V49.8438Z" fill="#938D86"/>
    <path d="M21.8153 48.0244H19.999V49.8436H21.8153V48.0244Z" fill="#7C766E"/>
    <path d="M21.8153 46.2041H19.999V48.0242H21.8153V46.2041Z" fill="#D98100"/>
    <path d="M21.8153 44.3848H19.999V46.204H21.8153V44.3848Z" fill="#BCBCBC"/>
    <path d="M21.8153 42.5654H19.999V44.3846H21.8153V42.5654Z" fill="white"/>
    <path d="M21.8153 40.7451H19.999V42.5653H21.8153V40.7451Z" fill="white"/>
    <path d="M21.8153 38.9258H19.999V40.745H21.8153V38.9258Z" fill="white"/>
    <path d="M21.8153 37.1064H19.999V38.9256H21.8153V37.1064Z" fill="white"/>
    <path d="M21.8153 35.2871H19.999V37.1063H21.8153V35.2871Z" fill="#FFA219"/>
    <path d="M21.8153 33.4668H19.999V35.2869H21.8153V33.4668Z" fill="#FFA219"/>
    <path d="M21.8153 31.6475H19.999V33.4667H21.8153V31.6475Z" fill="#D98100"/>
    <path d="M21.8153 29.8291H19.999V31.6483H21.8153V29.8291Z" fill="#7C766E"/>
    <path d="M21.8153 28.0088H19.999V29.8289H21.8153V28.0088Z" fill="#B7B3B0"/>
    <path d="M21.8153 26.1895H19.999V28.0087H21.8153V26.1895Z" fill="#7C766E"/>
    <path d="M21.8153 24.3691H19.999V26.1883H21.8153V24.3691Z" fill="#FFA219"/>
    <path d="M21.8153 22.5488H19.999V24.369H21.8153V22.5488Z" fill="#D98100"/>
    <path d="M21.8153 20.7295H19.999V22.5487H21.8153V20.7295Z" fill="#BCBCBC"/>
    <path d="M21.8153 18.9102H19.999V20.7294H21.8153V18.9102Z" fill="#71B9F4"/>
    <path d="M21.8153 17.0908H19.999V18.91H21.8153V17.0908Z" fill="#71B9F4"/>
    <path d="M21.8153 15.2715H19.999V17.0916H21.8153V15.2715Z" fill="#ABD4EF"/>
    <path d="M21.8153 13.4521H19.999V15.2713H21.8153V13.4521Z" fill="white"/>
    <path d="M21.8153 11.6318H19.999V13.451H21.8153V11.6318Z" fill="#D98100"/>
    <path d="M21.8153 9.81152H19.999V11.6317H21.8153V9.81152Z" fill="#7C766E"/>
    <path d="M21.8153 7.99219H19.999V9.81139H21.8153V7.99219Z" fill="#A8A29A"/>
    <path d="M21.8153 6.17383H19.999V7.99303H21.8153V6.17383Z" fill="#231F20"/>
    <path d="M19.9979 51.6621H18.1816V53.4822H19.9979V51.6621Z" fill="#A8A29A"/>
    <path d="M19.9979 49.8438H18.1816V51.663H19.9979V49.8438Z" fill="#938D86"/>
    <path d="M19.9979 48.0244H18.1816V49.8436H19.9979V48.0244Z" fill="#7C766E"/>
    <path d="M19.9979 46.2041H18.1816V48.0242H19.9979V46.2041Z" fill="#D98100"/>
    <path d="M19.9979 44.3848H18.1816V46.204H19.9979V44.3848Z" fill="#BCBCBC"/>
    <path d="M19.9979 42.5654H18.1816V44.3846H19.9979V42.5654Z" fill="#71B9F4"/>
    <path d="M19.9979 40.7451H18.1816V42.5653H19.9979V40.7451Z" fill="#71B9F4"/>
    <path d="M19.9979 38.9258H18.1816V40.745H19.9979V38.9258Z" fill="#71B9F4"/>
    <path d="M19.9979 37.1064H18.1816V38.9256H19.9979V37.1064Z" fill="#ABD4EF"/>
    <path d="M19.9979 35.2871H18.1816V37.1063H19.9979V35.2871Z" fill="white"/>
    <path d="M19.9979 33.4668H18.1816V35.2869H19.9979V33.4668Z" fill="#FFA219"/>
    <path d="M19.9979 31.6475H18.1816V33.4667H19.9979V31.6475Z" fill="#D98100"/>
    <path d="M19.9979 29.8291H18.1816V31.6483H19.9979V29.8291Z" fill="#7C766E"/>
    <path d="M19.9979 28.0088H18.1816V29.8289H19.9979V28.0088Z" fill="#B7B3B0"/>
    <path d="M19.9979 26.1895H18.1816V28.0087H19.9979V26.1895Z" fill="#99948F"/>
    <path d="M19.9979 24.3691H18.1816V26.1883H19.9979V24.3691Z" fill="#FFA219"/>
    <path d="M19.9979 22.5488H18.1816V24.369H19.9979V22.5488Z" fill="#D98100"/>
    <path d="M19.9979 20.7295H18.1816V22.5487H19.9979V20.7295Z" fill="#BCBCBC"/>
    <path d="M19.9979 18.9102H18.1816V20.7294H19.9979V18.9102Z" fill="#71B9F4"/>
    <path d="M19.9979 17.0908H18.1816V18.91H19.9979V17.0908Z" fill="#ABD4EF"/>
    <path d="M19.9979 15.2715H18.1816V17.0916H19.9979V15.2715Z" fill="#71B9F4"/>
    <path d="M19.9979 13.4521H18.1816V15.2713H19.9979V13.4521Z" fill="white"/>
    <path d="M19.9979 11.6318H18.1816V13.451H19.9979V11.6318Z" fill="#D98100"/>
    <path d="M19.9979 9.81152H18.1816V11.6317H19.9979V9.81152Z" fill="#7C766E"/>
    <path d="M19.9979 7.99219H18.1816V9.81139H19.9979V7.99219Z" fill="#B7B3B0"/>
    <path d="M19.9979 6.17383H18.1816V7.99303H19.9979V6.17383Z" fill="#231F20"/>
    <path d="M18.1829 51.6621H16.3657V53.4822H18.1829V51.6621Z" fill="#A8A29A"/>
    <path d="M18.1829 49.8438H16.3657V51.663H18.1829V49.8438Z" fill="#938D86"/>
    <path d="M18.1829 48.0244H16.3657V49.8436H18.1829V48.0244Z" fill="#99948F"/>
    <path d="M18.1829 46.2041H16.3657V48.0242H18.1829V46.2041Z" fill="#D98100"/>
    <path d="M18.1829 44.3848H16.3657V46.204H18.1829V44.3848Z" fill="#BCBCBC"/>
    <path d="M18.1829 42.5654H16.3657V44.3846H18.1829V42.5654Z" fill="#71B9F4"/>
    <path d="M18.1829 40.7451H16.3657V42.5653H18.1829V40.7451Z" fill="#ABD4EF"/>
    <path d="M18.1829 38.9258H16.3657V40.745H18.1829V38.9258Z" fill="#ABD4EF"/>
    <path d="M18.1829 37.1064H16.3657V38.9256H18.1829V37.1064Z" fill="#71B9F4"/>
    <path d="M18.1829 35.2871H16.3657V37.1063H18.1829V35.2871Z" fill="white"/>
    <path d="M18.1829 33.4668H16.3657V35.2869H18.1829V33.4668Z" fill="#FFA219"/>
    <path d="M18.1829 31.6475H16.3657V33.4667H18.1829V31.6475Z" fill="#D98100"/>
    <path d="M18.1829 29.8291H16.3657V31.6483H18.1829V29.8291Z" fill="#99948F"/>
    <path d="M18.1829 28.0088H16.3657V29.8289H18.1829V28.0088Z" fill="#B7B3B0"/>
    <path d="M18.1829 26.1895H16.3657V28.0087H18.1829V26.1895Z" fill="#99948F"/>
    <path d="M18.1829 24.3691H16.3657V26.1883H18.1829V24.3691Z" fill="#FFA219"/>
    <path d="M18.1829 22.5488H16.3657V24.369H18.1829V22.5488Z" fill="#D98100"/>
    <path d="M18.1829 20.7295H16.3657V22.5487H18.1829V20.7295Z" fill="#BCBCBC"/>
    <path d="M18.1829 18.9102H16.3657V20.7294H18.1829V18.9102Z" fill="#ABD4EF"/>
    <path d="M18.1829 17.0908H16.3657V18.91H18.1829V17.0908Z" fill="#71B9F4"/>
    <path d="M18.1829 15.2715H16.3657V17.0916H18.1829V15.2715Z" fill="#ABD4EF"/>
    <path d="M18.1829 13.4521H16.3657V15.2713H18.1829V13.4521Z" fill="white"/>
    <path d="M18.1829 11.6318H16.3657V13.451H18.1829V11.6318Z" fill="#D98100"/>
    <path d="M18.1829 9.81152H16.3657V11.6317H18.1829V9.81152Z" fill="#99948F"/>
    <path d="M18.1829 7.99219H16.3657V9.81139H18.1829V7.99219Z" fill="#B7B3B0"/>
    <path d="M18.1829 6.17383H16.3657V7.99303H18.1829V6.17383Z" fill="#231F20"/>
    <path d="M16.3646 51.6621H14.5483V53.4822H16.3646V51.6621Z" fill="#A8A29A"/>
    <path d="M16.3646 49.8438H14.5483V51.663H16.3646V49.8438Z" fill="#B7B3B0"/>
    <path d="M16.3646 48.0244H14.5483V49.8436H16.3646V48.0244Z" fill="#99948F"/>
    <path d="M16.3646 46.2041H14.5483V48.0242H16.3646V46.2041Z" fill="#FFA219"/>
    <path d="M16.3646 44.3848H14.5483V46.204H16.3646V44.3848Z" fill="#BCBCBC"/>
    <path d="M16.3646 42.5654H14.5483V44.3846H16.3646V42.5654Z" fill="white"/>
    <path d="M16.3646 40.7451H14.5483V42.5653H16.3646V40.7451Z" fill="white"/>
    <path d="M16.3646 38.9258H14.5483V40.745H16.3646V38.9258Z" fill="white"/>
    <path d="M16.3646 37.1064H14.5483V38.9256H16.3646V37.1064Z" fill="white"/>
    <path d="M16.3646 35.2871H14.5483V37.1063H16.3646V35.2871Z" fill="#FFA219"/>
    <path d="M16.3646 33.4668H14.5483V35.2869H16.3646V33.4668Z" fill="#FFA219"/>
    <path d="M16.3646 31.6475H14.5483V33.4667H16.3646V31.6475Z" fill="#D98100"/>
    <path d="M16.3646 29.8291H14.5483V31.6483H16.3646V29.8291Z" fill="#99948F"/>
    <path d="M16.3646 28.0088H14.5483V29.8289H16.3646V28.0088Z" fill="#B7B3B0"/>
    <path d="M16.3646 26.1895H14.5483V28.0087H16.3646V26.1895Z" fill="#99948F"/>
    <path d="M16.3646 24.3691H14.5483V26.1883H16.3646V24.3691Z" fill="#FFA219"/>
    <path d="M16.3646 22.5488H14.5483V24.369H16.3646V22.5488Z" fill="#D98100"/>
    <path d="M16.3646 20.7295H14.5483V22.5487H16.3646V20.7295Z" fill="#BCBCBC"/>
    <path d="M16.3646 18.9102H14.5483V20.7294H16.3646V18.9102Z" fill="white"/>
    <path d="M16.3646 17.0908H14.5483V18.91H16.3646V17.0908Z" fill="white"/>
    <path d="M16.3646 15.2715H14.5483V17.0916H16.3646V15.2715Z" fill="white"/>
    <path d="M16.3646 13.4521H14.5483V15.2713H16.3646V13.4521Z" fill="#FFA219"/>
    <path d="M16.3646 11.6318H14.5483V13.451H16.3646V11.6318Z" fill="#D98100"/>
    <path d="M16.3646 9.81152H14.5483V11.6317H16.3646V9.81152Z" fill="#99948F"/>
    <path d="M16.3646 7.99219H14.5483V9.81139H16.3646V7.99219Z" fill="#B7B3B0"/>
    <path d="M16.3646 6.17383H14.5483V7.99303H16.3646V6.17383Z" fill="#231F20"/>
    <path d="M14.5487 51.6621H12.7324V53.4822H14.5487V51.6621Z" fill="#A8A29A"/>
    <path d="M14.5487 49.8438H12.7324V51.663H14.5487V49.8438Z" fill="#B7B3B0"/>
    <path d="M14.5487 48.0244H12.7324V49.8436H14.5487V48.0244Z" fill="#99948F"/>
    <path d="M14.5487 46.2041H12.7324V48.0242H14.5487V46.2041Z" fill="#FFBF66"/>
    <path d="M14.5487 44.3848H12.7324V46.204H14.5487V44.3848Z" fill="#FFBF66"/>
    <path d="M14.5487 42.5654H12.7324V44.3846H14.5487V42.5654Z" fill="#FFBF66"/>
    <path d="M14.5487 40.7451H12.7324V42.5653H14.5487V40.7451Z" fill="#FFBF66"/>
    <path d="M14.5487 38.9258H12.7324V40.745H14.5487V38.9258Z" fill="#FFBF66"/>
    <path d="M14.5487 37.1064H12.7324V38.9256H14.5487V37.1064Z" fill="#FFBF66"/>
    <path d="M14.5487 35.2871H12.7324V37.1063H14.5487V35.2871Z" fill="#FFBF66"/>
    <path d="M14.5487 33.4668H12.7324V35.2869H14.5487V33.4668Z" fill="#FFBF66"/>
    <path d="M14.5487 31.6475H12.7324V33.4667H14.5487V31.6475Z" fill="#D98100"/>
    <path d="M14.5487 29.8291H12.7324V31.6483H14.5487V29.8291Z" fill="#99948F"/>
    <path d="M14.5487 28.0088H12.7324V29.8289H14.5487V28.0088Z" fill="#B7B3B0"/>
    <path d="M14.5487 26.1895H12.7324V28.0087H14.5487V26.1895Z" fill="#99948F"/>
    <path d="M14.5487 24.3691H12.7324V26.1883H14.5487V24.3691Z" fill="#FFBF66"/>
    <path d="M14.5487 22.5488H12.7324V24.369H14.5487V22.5488Z" fill="#FFBF66"/>
    <path d="M14.5487 20.7295H12.7324V22.5487H14.5487V20.7295Z" fill="#FFBF66"/>
    <path d="M14.5487 18.9102H12.7324V20.7294H14.5487V18.9102Z" fill="#FFBF66"/>
    <path d="M14.5487 17.0908H12.7324V18.91H14.5487V17.0908Z" fill="#FFBF66"/>
    <path d="M14.5487 15.2715H12.7324V17.0916H14.5487V15.2715Z" fill="#FFBF66"/>
    <path d="M14.5487 13.4521H12.7324V15.2713H14.5487V13.4521Z" fill="#FFBF66"/>
    <path d="M14.5487 11.6318H12.7324V13.451H14.5487V11.6318Z" fill="#D98100"/>
    <path d="M14.5487 9.81152H12.7324V11.6317H14.5487V9.81152Z" fill="#99948F"/>
    <path d="M14.5487 7.99219H12.7324V9.81139H14.5487V7.99219Z" fill="#B7B3B0"/>
    <path d="M14.5487 6.17383H12.7324V7.99303H14.5487V6.17383Z" fill="#231F20"/>
    <path d="M12.7322 51.6621H10.915V53.4822H12.7322V51.6621Z" fill="#A8A29A"/>
    <path d="M12.7322 49.8438H10.915V51.663H12.7322V49.8438Z" fill="#B7B3B0"/>
    <path d="M12.7322 48.0244H10.915V49.8436H12.7322V48.0244Z" fill="#99948F"/>
    <path d="M12.7322 46.2041H10.915V48.0242H12.7322V46.2041Z" fill="#231F20"/>
    <path d="M12.7322 44.3848H10.915V46.204H12.7322V44.3848Z" fill="#231F20"/>
    <path d="M12.7322 42.5654H10.915V44.3846H12.7322V42.5654Z" fill="#231F20"/>
    <path d="M12.7322 40.7451H10.915V42.5653H12.7322V40.7451Z" fill="#231F20"/>
    <path d="M12.7322 38.9258H10.915V40.745H12.7322V38.9258Z" fill="#231F20"/>
    <path d="M12.7322 37.1064H10.915V38.9256H12.7322V37.1064Z" fill="#231F20"/>
    <path d="M12.7322 35.2871H10.915V37.1063H12.7322V35.2871Z" fill="#231F20"/>
    <path d="M12.7322 33.4668H10.915V35.2869H12.7322V33.4668Z" fill="#231F20"/>
    <path d="M12.7322 31.6475H10.915V33.4667H12.7322V31.6475Z" fill="#231F20"/>
    <path d="M12.7322 29.8291H10.915V31.6483H12.7322V29.8291Z" fill="#99948F"/>
    <path d="M12.7322 28.0088H10.915V29.8289H12.7322V28.0088Z" fill="#B7B3B0"/>
    <path d="M12.7322 26.1895H10.915V28.0087H12.7322V26.1895Z" fill="#99948F"/>
    <path d="M12.7322 24.3691H10.915V26.1883H12.7322V24.3691Z" fill="#231F20"/>
    <path d="M12.7322 22.5488H10.915V24.369H12.7322V22.5488Z" fill="#231F20"/>
    <path d="M12.7322 20.7295H10.915V22.5487H12.7322V20.7295Z" fill="#231F20"/>
    <path d="M12.7322 18.9102H10.915V20.7294H12.7322V18.9102Z" fill="#231F20"/>
    <path d="M12.7322 17.0908H10.915V18.91H12.7322V17.0908Z" fill="#231F20"/>
    <path d="M12.7322 15.2715H10.915V17.0916H12.7322V15.2715Z" fill="#231F20"/>
    <path d="M12.7322 13.4521H10.915V15.2713H12.7322V13.4521Z" fill="#231F20"/>
    <path d="M12.7322 11.6318H10.915V13.451H12.7322V11.6318Z" fill="#231F20"/>
    <path d="M12.7322 9.81152H10.915V11.6317H12.7322V9.81152Z" fill="#99948F"/>
    <path d="M12.7322 7.99219H10.915V9.81139H12.7322V7.99219Z" fill="#B7B3B0"/>
    <path d="M12.7322 6.17383H10.915V7.99303H12.7322V6.17383Z" fill="#231F20"/>
    <path d="M10.9149 51.6621H9.09863V53.4822H10.9149V51.6621Z" fill="#A8A29A"/>
    <path d="M10.9149 49.8438H9.09863V51.663H10.9149V49.8438Z" fill="#B7B3B0"/>
    <path d="M10.9149 48.0244H9.09863V49.8436H10.9149V48.0244Z" fill="#231F20"/>
    <path d="M10.9149 29.8291H9.09863V31.6483H10.9149V29.8291Z" fill="#231F20"/>
    <path d="M10.9149 28.0088H9.09863V29.8289H10.9149V28.0088Z" fill="#B7B3B0"/>
    <path d="M10.9149 26.1895H9.09863V28.0087H10.9149V26.1895Z" fill="#231F20"/>
    <path d="M10.9149 9.81152H9.09863V11.6317H10.9149V9.81152Z" fill="#231F20"/>
    <path d="M10.9149 7.99219H9.09863V9.81139H10.9149V7.99219Z" fill="#B7B3B0"/>
    <path d="M10.9149 6.17383H9.09863V7.99303H10.9149V6.17383Z" fill="#231F20"/>
    <path d="M9.09896 51.6621H7.28271V53.4822H9.09896V51.6621Z" fill="#A8A29A"/>
    <path d="M9.09896 49.8438H7.28271V51.663H9.09896V49.8438Z" fill="#B7B3B0"/>
    <path d="M9.09896 48.0244H7.28271V49.8436H9.09896V48.0244Z" fill="#231F20"/>
    <path d="M9.09896 29.8291H7.28271V31.6483H9.09896V29.8291Z" fill="#231F20"/>
    <path d="M9.09896 28.0088H7.28271V29.8289H9.09896V28.0088Z" fill="#231F20"/>
    <path d="M9.09896 9.81152H7.28271V11.6317H9.09896V9.81152Z" fill="#231F20"/>
    <path d="M9.09896 7.99219H7.28271V9.81139H9.09896V7.99219Z" fill="#231F20"/>
    <path d="M7.2825 51.6621H5.46533V53.4822H7.2825V51.6621Z" fill="#231F20"/>
    <path d="M54.5246 53.4395H3.62891V55.3034H54.5246V53.4395Z" fill="white"/>
    <path d="M54.5245 49.8037H52.6636V53.5316H54.5245V49.8037Z" fill="white"/>
    <path d="M5.50348 49.8037H3.64258V53.5316H5.50348V49.8037Z" fill="white"/>
    <path d="M10.9264 31.6445H9.07812V46.186H10.9264V31.6445Z" fill="white"/>
    <path d="M49.0875 31.6445H47.2393V46.186H49.0875V31.6445Z" fill="white"/>
    <path d="M54.524 48.0342H50.8818V49.8553H54.524V48.0342Z" fill="white"/>
    <path d="M7.28474 48.0068H3.64258V49.8551H7.28474V48.0068Z" fill="white"/>
    <path d="M9.13244 31.6172H7.28418V33.4654H9.13244V31.6172Z" fill="white"/>
    <path d="M50.9088 31.6172H49.0605V33.4654H50.9088V31.6172Z" fill="white"/>
    <path d="M7.28418 31.6169L7.28418 28.002L5.49028 28.002L5.49028 31.6169L7.28418 31.6169Z" fill="white"/>
    <path d="M52.7026 31.6169L52.7026 28.002L50.9087 28.002L50.9087 31.6169L52.7026 31.6169Z" fill="white"/>
    <path d="M7.28439 28.002L9.10547 28.002L9.10547 26.2081L7.28439 26.2081L7.28439 28.002Z" fill="white"/>
    <path d="M49.0876 28.002L50.9087 28.002L50.9087 26.2081L49.0876 26.2081L49.0876 28.002Z" fill="white"/>
    <path d="M7.28439 13.4336L9.10547 13.4336L9.10547 11.6397L7.28439 11.6397L7.28439 13.4336Z" fill="white"/>
    <path d="M5.4631 11.6396L7.28418 11.6396L7.28418 9.84575L5.4631 9.84575L5.4631 11.6396Z" fill="white"/>
    <path d="M5.4631 9.81836L7.28418 9.81836L7.28418 7.99728L5.4631 7.99728L5.4631 9.81836Z" fill="white"/>
    <path d="M7.28439 7.99707L9.10547 7.99707L9.10547 6.17599L7.28439 6.17599L7.28439 7.99707Z" fill="white"/>
    <path d="M49.0608 7.99707L50.8818 7.99707L50.8818 6.17599L49.0608 6.17599L49.0608 7.99707Z" fill="white"/>
    <path d="M47.2397 13.4609L50.8818 13.4609L50.8818 11.6399L47.2397 11.6399L47.2397 13.4609Z" fill="white"/>
    <path d="M50.8816 11.6396L52.7026 11.6396L52.7026 7.99749L50.8816 7.99749L50.8816 11.6396Z" fill="white"/>
    <path d="M9.10549 6.17675L49.0605 6.17676L49.0605 4.35568L9.10549 4.35568L9.10549 6.17675Z" fill="white"/>
    <path d="M9.0785 26.209L10.9268 26.209L10.9268 11.6403L9.0785 11.6403L9.0785 26.209Z" fill="white"/>
    <path d="M47.2391 26.209L49.0874 26.209L49.0874 11.6403L47.2391 11.6403L47.2391 26.209Z" fill="white"/>
    <path d="M52.6753 46.1855H47.2393V48.0066H52.6753V46.1855Z" fill="white"/>
    <path d="M10.9268 46.1855H5.49072V48.0066H10.9268V46.1855Z" fill="white"/>
    <path d="M7.2825 49.8438H5.46533V51.663H7.2825V49.8438Z" fill="#231F20"/>
</svg>
