<svg width="70" height="70" viewBox="0 0 70 70" fill="none" xmlns="http://www.w3.org/2000/svg">
    <g clip-path="url(#clip0_2000_15782)">
        <path d="M7.00004 27.3638H4.45459V29.9092H7.00004V27.3638Z" fill="black"/>
        <path d="M7.00004 24.8179H4.45459V27.3633H7.00004V24.8179Z" fill="white"/>
        <path d="M9.54545 22.2725H7V24.8179H9.54545V22.2725Z" fill="white"/>
        <path d="M12.0911 19.7271H9.54565V22.2725H12.0911V19.7271Z" fill="white"/>
        <path d="M14.6365 17.1816H12.0911V19.7271H14.6365V17.1816Z" fill="white"/>
        <path d="M17.1819 14.6362H14.6365V17.1817H17.1819V14.6362Z" fill="white"/>
        <path d="M19.7273 12.0908H17.1819V14.6363H19.7273V12.0908Z" fill="white"/>
        <path d="M22.2727 14.6362H19.7273V17.1817H22.2727V14.6362Z" fill="white"/>
        <path d="M24.8182 17.1816H22.2727V19.7271H24.8182V17.1816Z" fill="white"/>
        <path d="M27.3638 19.7271H24.8184V22.2725H27.3638V19.7271Z" fill="white"/>
        <path d="M24.8182 22.2725H22.2727V24.8179H24.8182V22.2725Z" fill="white"/>
        <path d="M27.3638 24.8179H24.8184V27.3633H27.3638V24.8179Z" fill="white"/>
        <path d="M29.9092 24.8179H27.3638V27.3633H29.9092V24.8179Z" fill="white"/>
        <path d="M32.4546 24.8179H29.9092V27.3633H32.4546V24.8179Z" fill="white"/>
        <path d="M35 22.2725H32.4546V24.8179H35V22.2725Z" fill="white"/>
        <path d="M37.5455 19.7271H35V22.2725H37.5455V19.7271Z" fill="white"/>
        <path d="M40.0872 19.7271H37.5417V22.2725H40.0872V19.7271Z" fill="white"/>
        <path d="M42.6287 19.7271H40.0833V22.2725H42.6287V19.7271Z" fill="white"/>
        <path d="M45.1819 22.2725H42.6365V24.8179H45.1819V22.2725Z" fill="white"/>
        <path d="M45.1819 19.7271H42.6365V22.2725H45.1819V19.7271Z" fill="white"/>
        <path d="M47.7273 17.1816H45.1819V19.7271H47.7273V17.1816Z" fill="white"/>
        <path d="M50.2652 14.6362H47.7197V17.1817H50.2652V14.6362Z" fill="white"/>
        <path d="M52.8106 12.0908H50.2651V14.6363H52.8106V12.0908Z" fill="white"/>
        <path d="M55.3638 14.6362H52.8184V17.1817H55.3638V14.6362Z" fill="white"/>
        <path d="M57.9092 17.1816H55.3638V19.7271H57.9092V17.1816Z" fill="white"/>
        <path d="M60.4546 19.7271H57.9092V22.2725H60.4546V19.7271Z" fill="white"/>
        <path d="M63 22.2725H60.4546V24.8179H63V22.2725Z" fill="white"/>
        <path d="M65.5455 24.8179H63V27.3633H65.5455V24.8179Z" fill="white"/>
        <path d="M68.0911 27.3638H65.5457V29.9092H68.0911V27.3638Z" fill="white"/>
        <path d="M68.0911 29.9092H65.5457V32.4546H68.0911V29.9092Z" fill="white"/>
        <path d="M65.5455 29.9092H63V32.4546H65.5455V29.9092Z" fill="white"/>
        <path d="M65.5455 32.4546H63V35H65.5455V32.4546Z" fill="white"/>
        <path d="M63 32.4546H60.4546V35H63V32.4546Z" fill="white"/>
        <path d="M63 35H60.4546V37.5455H63V35Z" fill="white"/>
        <path d="M60.4546 35H57.9092V37.5455H60.4546V35Z" fill="white"/>
        <path d="M57.9092 35H55.3638V37.5455H57.9092V35Z" fill="white"/>
        <path d="M57.9092 32.4546H55.3638V35H57.9092V32.4546Z" fill="white"/>
        <path d="M55.3638 35H52.8184V37.5455H55.3638V35Z" fill="white"/>
        <path d="M55.3638 37.5454H52.8184V40.0909H55.3638V37.5454Z" fill="white"/>
        <path d="M52.8182 37.5454H50.2727V40.0909H52.8182V37.5454Z" fill="white"/>
        <path d="M52.8182 40.0908H50.2727V42.6363H52.8182V40.0908Z" fill="white"/>
        <path d="M52.8182 42.6362H50.2727V45.1817H52.8182V42.6362Z" fill="white"/>
        <path d="M50.2728 40.0908H47.7273V42.6363H50.2728V40.0908Z" fill="white"/>
        <path d="M52.8182 45.1816H50.2727V47.7271H52.8182V45.1816Z" fill="white"/>
        <path d="M50.2728 45.1816H47.7273V47.7271H50.2728V45.1816Z" fill="white"/>
        <path d="M50.2728 47.7271H47.7273V50.2725H50.2728V47.7271Z" fill="white"/>
        <path d="M47.7273 47.7271H45.1819V50.2725H47.7273V47.7271Z" fill="white"/>
        <path d="M47.7273 50.2725H45.1819V52.8179H47.7273V50.2725Z" fill="white"/>
        <path d="M45.1819 50.2725H42.6365V52.8179H45.1819V50.2725Z" fill="white"/>
        <path d="M45.1819 52.8179H42.6365V55.3633H45.1819V52.8179Z" fill="white"/>
        <path d="M42.6365 52.8179H40.0911V55.3633H42.6365V52.8179Z" fill="white"/>
        <path d="M42.6365 55.3638H40.0911V57.9092H42.6365V55.3638Z" fill="white"/>
        <path d="M40.0911 55.3638H37.5457V57.9092H40.0911V55.3638Z" fill="white"/>
        <path d="M37.5455 55.3638H35V57.9092H37.5455V55.3638Z" fill="white"/>
        <path d="M35 55.3638H32.4546V57.9092H35V55.3638Z" fill="white"/>
        <path d="M32.4546 55.3638H29.9092V57.9092H32.4546V55.3638Z" fill="white"/>
        <path d="M32.4546 52.8179H29.9092V55.3633H32.4546V52.8179Z" fill="white"/>
        <path d="M29.9092 52.8179H27.3638V55.3633H29.9092V52.8179Z" fill="white"/>
        <path d="M29.9092 50.2725H27.3638V52.8179H29.9092V50.2725Z" fill="white"/>
        <path d="M27.3638 50.2725H24.8184V52.8179H27.3638V50.2725Z" fill="white"/>
        <path d="M27.3638 47.7271H24.8184V50.2725H27.3638V47.7271Z" fill="white"/>
        <path d="M24.8182 47.7271H22.2727V50.2725H24.8182V47.7271Z" fill="white"/>
        <path d="M24.8182 45.1816H22.2727V47.7271H24.8182V45.1816Z" fill="white"/>
        <path d="M22.2727 45.1816H19.7273V47.7271H22.2727V45.1816Z" fill="white"/>
        <path d="M22.2727 42.6362H19.7273V45.1817H22.2727V42.6362Z" fill="white"/>
        <path d="M19.7273 42.6362H17.1819V45.1817H19.7273V42.6362Z" fill="white"/>
        <path d="M19.7273 40.0908H17.1819V42.6363H19.7273V40.0908Z" fill="white"/>
        <path d="M17.1819 40.0908H14.6365V42.6363H17.1819V40.0908Z" fill="white"/>
        <path d="M17.1819 37.5454H14.6365V40.0909H17.1819V37.5454Z" fill="white"/>
        <path d="M17.1819 35H14.6365V37.5455H17.1819V35Z" fill="white"/>
        <path d="M14.6365 35H12.0911V37.5455H14.6365V35Z" fill="white"/>
        <path d="M12.0911 35H9.54565V37.5455H12.0911V35Z" fill="white"/>
        <path d="M9.54545 35H7V37.5455H9.54545V35Z" fill="white"/>
        <path d="M9.54545 32.4546H7V35H9.54545V32.4546Z" fill="white"/>
        <path d="M7.00004 32.4546H4.45459V35H7.00004V32.4546Z" fill="white"/>
        <path d="M7.00004 29.9092H4.45459V32.4546H7.00004V29.9092Z" fill="white"/>
        <path d="M4.45463 27.3638H1.90918V29.9092H4.45463V27.3638Z" fill="white"/>
        <path d="M4.45463 29.9092H1.90918V32.4546H4.45463V29.9092Z" fill="white"/>
        <path d="M14.6365 32.4546H12.0911V35H14.6365V32.4546Z" fill="white"/>
        <path d="M47.7234 22.2725H45.178V24.8179H47.7234V22.2725Z" fill="white"/>
        <path d="M9.54545 27.3638H7V29.9092H9.54545V27.3638Z" fill="#C9CFDF"/>
        <path d="M12.0911 27.3638H9.54565V29.9092H12.0911V27.3638Z" fill="#C9CFDF"/>
        <path d="M12.0911 29.9092H9.54565V32.4546H12.0911V29.9092Z" fill="#C9CFDF"/>
        <path d="M14.6365 27.3638H12.0911V29.9092H14.6365V27.3638Z" fill="#DDE4EE"/>
        <path d="M12.0911 24.8179H9.54565V27.3633H12.0911V24.8179Z" fill="#DDE4EE"/>
        <path d="M14.6365 24.8179H12.0911V27.3633H14.6365V24.8179Z" fill="#F1F2F7"/>
        <path d="M14.6365 22.2725H12.0911V24.8179H14.6365V22.2725Z" fill="#F1F2F7"/>
        <path d="M17.1819 22.2725H14.6365V24.8179H17.1819V22.2725Z" fill="#F1F2F7"/>
        <path d="M17.1819 24.8179H14.6365V27.3633H17.1819V24.8179Z" fill="#DDE4EE"/>
        <path d="M17.1819 19.7271H14.6365V22.2725H17.1819V19.7271Z" fill="#F1F2F7"/>
        <path d="M19.7273 19.7271H17.1819V22.2725H19.7273V19.7271Z" fill="#F1F2F7"/>
        <path d="M22.2727 19.7271H19.7273V22.2725H22.2727V19.7271Z" fill="#DDE4EE"/>
        <path d="M19.7273 17.1816H17.1819V19.7271H19.7273V17.1816Z" fill="#F1F2F7"/>
        <path d="M19.7273 22.2725H17.1819V24.8179H19.7273V22.2725Z" fill="#DDE4EE"/>
        <path d="M60.447 29.9092H62.9924V27.3637H60.447V29.9092Z" fill="#C9CFDF"/>
        <path d="M57.9016 29.9092H60.447V27.3637H57.9016V29.9092Z" fill="#C9CFDF"/>
        <path d="M57.9016 32.4546H60.447V29.9091H57.9016V32.4546Z" fill="#C9CFDF"/>
        <path d="M55.3562 29.9092H57.9016V27.3637H55.3562V29.9092Z" fill="#DDE4EE"/>
        <path d="M57.9016 27.3638H60.447V24.8183H57.9016V27.3638Z" fill="#DDE4EE"/>
        <path d="M55.3562 27.3638H57.9016V24.8183H55.3562V27.3638Z" fill="#F1F2F7"/>
        <path d="M55.3562 24.8179H57.9016V22.2724H55.3562V24.8179Z" fill="#F1F2F7"/>
        <path d="M52.8107 24.8179H55.3562V22.2724H52.8107V24.8179Z" fill="#F1F2F7"/>
        <path d="M52.8107 27.3638H55.3562V24.8183H52.8107V27.3638Z" fill="#DDE4EE"/>
        <path d="M52.8107 22.2725H55.3562V19.727H52.8107V22.2725Z" fill="#F1F2F7"/>
        <path d="M50.2651 22.2725H52.8105V19.727H50.2651V22.2725Z" fill="#F1F2F7"/>
        <path d="M47.7197 22.2725H50.2651V19.727H47.7197V22.2725Z" fill="#DDE4EE"/>
        <path d="M50.2651 19.7271H52.8105V17.1816H50.2651V19.7271Z" fill="#F1F2F7"/>
        <path d="M50.2651 24.8179H52.8105V22.2724H50.2651V24.8179Z" fill="#DDE4EE"/>
        <path d="M65.5455 27.3638H63V29.9092H65.5455V27.3638Z" fill="black"/>
        <path d="M63 24.8179H60.4546V27.3633H63V24.8179Z" fill="black"/>
        <path d="M60.4546 22.2725H57.9092V24.8179H60.4546V22.2725Z" fill="black"/>
        <path d="M57.9092 19.7271H55.3638V22.2725H57.9092V19.7271Z" fill="black"/>
        <path d="M55.3638 17.1816H52.8184V19.7271H55.3638V17.1816Z" fill="black"/>
        <path d="M52.8182 14.6362H50.2727V17.1817H52.8182V14.6362Z" fill="black"/>
        <path d="M50.2728 17.1816H47.7273V19.7271H50.2728V17.1816Z" fill="black"/>
        <path d="M47.7273 24.8179H45.1819V27.3633H47.7273V24.8179Z" fill="black"/>
        <path d="M47.7273 19.7271H45.1819V22.2725H47.7273V19.7271Z" fill="black"/>
        <path d="M50.2728 22.2725H47.7273V24.8179H50.2728V22.2725Z" fill="black"/>
        <path d="M52.8182 24.8179H50.2727V27.3633H52.8182V24.8179Z" fill="black"/>
        <path d="M55.3638 27.3638H52.8184V29.9092H55.3638V27.3638Z" fill="black"/>
        <path d="M57.9092 29.9092H55.3638V32.4546H57.9092V29.9092Z" fill="black"/>
        <path d="M55.3638 32.4546H52.8184V35H55.3638V32.4546Z" fill="black"/>
        <path d="M52.8182 35H50.2727V37.5455H52.8182V35Z" fill="black"/>
        <path d="M50.2728 37.5454H47.7273V40.0909H50.2728V37.5454Z" fill="black"/>
        <path d="M47.7273 40.0908H45.1819V42.6363H47.7273V40.0908Z" fill="black"/>
        <path d="M60.4546 32.4546H57.9092V35H60.4546V32.4546Z" fill="black"/>
        <path d="M63 29.9092H60.4546V32.4546H63V29.9092Z" fill="black"/>
        <path d="M9.54545 24.8179H7V27.3633H9.54545V24.8179Z" fill="black"/>
        <path d="M12.0911 22.2725H9.54565V24.8179H12.0911V22.2725Z" fill="black"/>
        <path d="M14.6365 19.7271H12.0911V22.2725H14.6365V19.7271Z" fill="black"/>
        <path d="M17.1819 17.1816H14.6365V19.7271H17.1819V17.1816Z" fill="black"/>
        <path d="M19.7273 14.6362H17.1819V17.1817H19.7273V14.6362Z" fill="black"/>
        <path d="M22.2727 17.1816H19.7273V19.7271H22.2727V17.1816Z" fill="black"/>
        <path d="M24.8182 19.7271H22.2727V22.2725H24.8182V19.7271Z" fill="black"/>
        <path d="M9.54545 29.9092H7V32.4546H9.54545V29.9092Z" fill="black"/>
        <path d="M12.0911 32.4546H9.54565V35H12.0911V32.4546Z" fill="black"/>
        <path d="M14.6365 29.9092H12.0911V32.4546H14.6365V29.9092Z" fill="black"/>
        <path d="M17.1819 32.4546H14.6365V35H17.1819V32.4546Z" fill="black"/>
        <path d="M19.7273 37.5454H17.1819V40.0909H19.7273V37.5454Z" fill="black"/>
        <path d="M19.7273 35H17.1819V37.5455H19.7273V35Z" fill="black"/>
        <path d="M22.2727 40.0908H19.7273V42.6363H22.2727V40.0908Z" fill="black"/>
        <path d="M24.8182 42.6362H22.2727V45.1817H24.8182V42.6362Z" fill="black"/>
        <path d="M27.3638 45.1816H24.8184V47.7271H27.3638V45.1816Z" fill="black"/>
        <path d="M29.9092 47.7271H27.3638V50.2725H29.9092V47.7271Z" fill="black"/>
        <path d="M32.4546 50.2725H29.9092V52.8179H32.4546V50.2725Z" fill="black"/>
        <path d="M35 52.8179H32.4546V55.3633H35V52.8179Z" fill="black"/>
        <path d="M37.5455 52.8179H35V55.3633H37.5455V52.8179Z" fill="black"/>
        <path d="M17.1819 27.3638H14.6365V29.9092H17.1819V27.3638Z" fill="black"/>
        <path d="M19.7273 24.8179H17.1819V27.3633H19.7273V24.8179Z" fill="black"/>
        <path d="M22.2727 22.2725H19.7273V24.8179H22.2727V22.2725Z" fill="black"/>
        <path d="M24.8182 24.8179H22.2727V27.3633H24.8182V24.8179Z" fill="black"/>
        <path d="M27.3638 27.3638H24.8184V29.9092H27.3638V27.3638Z" fill="black"/>
        <path d="M29.9092 27.3638H27.3638V29.9092H29.9092V27.3638Z" fill="black"/>
        <path d="M29.9092 29.9092H27.3638V32.4546H29.9092V29.9092Z" fill="black"/>
        <path d="M27.3638 32.4546H24.8184V35H27.3638V32.4546Z" fill="black"/>
        <path d="M29.9092 35H27.3638V37.5455H29.9092V35Z" fill="black"/>
        <path d="M32.4546 35H29.9092V37.5455H32.4546V35Z" fill="black"/>
        <path d="M35 35H32.4546V37.5455H35V35Z" fill="black"/>
        <path d="M37.5455 32.4546H35V35H37.5455V32.4546Z" fill="black"/>
        <path d="M40.0911 35H37.5457V37.5455H40.0911V35Z" fill="black"/>
        <path d="M42.6365 37.5454H40.0911V40.0909H42.6365V37.5454Z" fill="black"/>
        <path d="M45.1819 40.0908H42.6365V42.6363H45.1819V40.0908Z" fill="black"/>
        <path d="M50.2728 42.6362H47.7273V45.1817H50.2728V42.6362Z" fill="black"/>
        <path d="M47.7273 45.1816H45.1819V47.7271H47.7273V45.1816Z" fill="black"/>
        <path d="M45.1819 47.7271H42.6365V50.2725H45.1819V47.7271Z" fill="black"/>
        <path d="M42.6365 50.2725H40.0911V52.8179H42.6365V50.2725Z" fill="black"/>
        <path d="M40.0911 52.8179H37.5457V55.3633H40.0911V52.8179Z" fill="black"/>
        <path d="M32.4546 27.3638H29.9092V29.9092H32.4546V27.3638Z" fill="black"/>
        <path d="M35 24.8179H32.4546V27.3633H35V24.8179Z" fill="black"/>
        <path d="M37.5455 22.2725H35V24.8179H37.5455V22.2725Z" fill="black"/>
        <path d="M40.0911 22.2725H37.5457V24.8179H40.0911V22.2725Z" fill="black"/>
        <path d="M42.6365 22.2725H40.0911V24.8179H42.6365V22.2725Z" fill="black"/>
        <path d="M37.5455 24.8179H35V27.3633H37.5455V24.8179Z" fill="#FFE8CA"/>
        <path d="M40.0911 24.8179H37.5457V27.3633H40.0911V24.8179Z" fill="#FFE8CA"/>
        <path d="M42.6365 24.8179H40.0911V27.3633H42.6365V24.8179Z" fill="#FFE8CA"/>
        <path d="M37.5455 27.3638H35V29.9092H37.5455V27.3638Z" fill="#FFD9A6"/>
        <path d="M40.0911 27.3638H37.5457V29.9092H40.0911V27.3638Z" fill="#FFD9A6"/>
        <path d="M42.6365 27.3638H40.0911V29.9092H42.6365V27.3638Z" fill="#FFD9A6"/>
        <path d="M37.5455 29.9092H35V32.4546H37.5455V29.9092Z" fill="#FFD9A6"/>
        <path d="M35 27.3638H32.4546V29.9092H35V27.3638Z" fill="#FFE8CA"/>
        <path d="M35 29.9092H32.4546V32.4546H35V29.9092Z" fill="#FFD9A6"/>
        <path d="M32.4546 29.9092H29.9092V32.4546H32.4546V29.9092Z" fill="#FFE8CA"/>
        <path d="M35 32.4546H32.4546V35H35V32.4546Z" fill="#FFD9A6"/>
        <path d="M32.4546 32.4546H29.9092V35H32.4546V32.4546Z" fill="#FFD9A6"/>
        <path d="M29.9092 32.4546H27.3638V35H29.9092V32.4546Z" fill="#FFD9A6"/>
        <path d="M22.2727 24.8179H19.7273V27.3633H22.2727V24.8179Z" fill="#D3B38C"/>
        <path d="M22.2727 27.3638H19.7273V29.9092H22.2727V27.3638Z" fill="#D3B38C"/>
        <path d="M22.2727 29.9092H19.7273V32.4546H22.2727V29.9092Z" fill="#FFD9A6"/>
        <path d="M22.2727 32.4546H19.7273V35H22.2727V32.4546Z" fill="#FFD9A6"/>
        <path d="M19.7273 27.3638H17.1819V29.9092H19.7273V27.3638Z" fill="#D3B38C"/>
        <path d="M19.7273 29.9092H17.1819V32.4546H19.7273V29.9092Z" fill="#FFD9A6"/>
        <path d="M17.1819 29.9092H14.6365V32.4546H17.1819V29.9092Z" fill="#D3B38C"/>
        <path d="M19.7273 32.4546H17.1819V35H19.7273V32.4546Z" fill="#FFD9A6"/>
        <path d="M22.2727 35H19.7273V37.5455H22.2727V35Z" fill="#FFD9A6"/>
        <path d="M22.2727 37.5454H19.7273V40.0909H22.2727V37.5454Z" fill="#FFE8CA"/>
        <path d="M24.8182 27.3638H22.2727V29.9092H24.8182V27.3638Z" fill="#D3B38C"/>
        <path d="M24.8182 29.9092H22.2727V32.4546H24.8182V29.9092Z" fill="#FFD9A6"/>
        <path d="M27.3638 29.9092H24.8184V32.4546H27.3638V29.9092Z" fill="#FFD9A6"/>
        <path d="M24.8182 32.4546H22.2727V35H24.8182V32.4546Z" fill="#FFD9A6"/>
        <path d="M24.8182 35H22.2727V37.5455H24.8182V35Z" fill="#FFD9A6"/>
        <path d="M24.8182 37.5454H22.2727V40.0909H24.8182V37.5454Z" fill="#FFD9A6"/>
        <path d="M27.3638 35H24.8184V37.5455H27.3638V35Z" fill="#D3B38C"/>
        <path d="M27.3638 37.5454H24.8184V40.0909H27.3638V37.5454Z" fill="#FFD9A6"/>
        <path d="M29.9092 37.5454H27.3638V40.0909H29.9092V37.5454Z" fill="#D3B38C"/>
        <path d="M32.4546 37.5454H29.9092V40.0909H32.4546V37.5454Z" fill="#D3B38C"/>
        <path d="M40.0911 37.5454H37.5457V40.0909H40.0911V37.5454Z" fill="#D3B38C"/>
        <path d="M37.5455 37.5454H35V40.0909H37.5455V37.5454Z" fill="#D3B38C"/>
        <path d="M37.5455 35H35V37.5455H37.5455V35Z" fill="#D3B38C"/>
        <path d="M35 37.5454H32.4546V40.0909H35V37.5454Z" fill="#D3B38C"/>
        <path d="M24.8182 40.0908H22.2727V42.6363H24.8182V40.0908Z" fill="#FFE8CA"/>
        <path d="M27.3638 40.0908H24.8184V42.6363H27.3638V40.0908Z" fill="#FFD9A6"/>
        <path d="M29.9092 40.0908H27.3638V42.6363H29.9092V40.0908Z" fill="#FFD9A6"/>
        <path d="M32.4546 40.0908H29.9092V42.6363H32.4546V40.0908Z" fill="#D3B38C"/>
        <path d="M40.0911 40.0908H37.5457V42.6363H40.0911V40.0908Z" fill="#D3B38C"/>
        <path d="M37.5455 40.0908H35V42.6363H37.5455V40.0908Z" fill="#D3B38C"/>
        <path d="M35 40.0908H32.4546V42.6363H35V40.0908Z" fill="#D3B38C"/>
        <path d="M27.3638 42.6362H24.8184V45.1817H27.3638V42.6362Z" fill="#FFE8CA"/>
        <path d="M29.9092 42.6362H27.3638V45.1817H29.9092V42.6362Z" fill="#FFD9A6"/>
        <path d="M32.4546 42.6362H29.9092V45.1817H32.4546V42.6362Z" fill="#FFD9A6"/>
        <path d="M40.0911 42.6362H37.5457V45.1817H40.0911V42.6362Z" fill="#D3B38C"/>
        <path d="M37.5455 42.6362H35V45.1817H37.5455V42.6362Z" fill="#D3B38C"/>
        <path d="M35 42.6362H32.4546V45.1817H35V42.6362Z" fill="#FFD9A6"/>
        <path d="M29.9092 45.1816H27.3638V47.7271H29.9092V45.1816Z" fill="#FFE8CA"/>
        <path d="M32.4546 45.1816H29.9092V47.7271H32.4546V45.1816Z" fill="#FFD9A6"/>
        <path d="M40.0911 45.1816H37.5457V47.7271H40.0911V45.1816Z" fill="#B29577"/>
        <path d="M37.5455 45.1816H35V47.7271H37.5455V45.1816Z" fill="#FFD9A6"/>
        <path d="M35 45.1816H32.4546V47.7271H35V45.1816Z" fill="#FFD9A6"/>
        <path d="M32.4546 47.7271H29.9092V50.2725H32.4546V47.7271Z" fill="#FFD9A6"/>
        <path d="M40.0911 47.7271H37.5457V50.2725H40.0911V47.7271Z" fill="#FFD9A6"/>
        <path d="M42.6365 40.0908H40.0911V42.6363H42.6365V40.0908Z" fill="#B29577"/>
        <path d="M42.6365 42.6362H40.0911V45.1817H42.6365V42.6362Z" fill="#D3B38C"/>
        <path d="M42.6365 45.1816H40.0911V47.7271H42.6365V45.1816Z" fill="#FFD9A6"/>
        <path d="M45.1819 42.6362H42.6365V45.1817H45.1819V42.6362Z" fill="#B29577"/>
        <path d="M47.7273 42.6362H45.1819V45.1817H47.7273V42.6362Z" fill="#D3B38C"/>
        <path d="M45.1819 45.1816H42.6365V47.7271H45.1819V45.1816Z" fill="#D3B38C"/>
        <path d="M42.6365 47.7271H40.0911V50.2725H42.6365V47.7271Z" fill="#B29577"/>
        <path d="M37.5455 47.7271H35V50.2725H37.5455V47.7271Z" fill="#FFD9A6"/>
        <path d="M35 47.7271H32.4546V50.2725H35V47.7271Z" fill="#B29577"/>
        <path d="M40.0911 50.2725H37.5457V52.8179H40.0911V50.2725Z" fill="#FFD9A6"/>
        <path d="M37.5455 50.2725H35V52.8179H37.5455V50.2725Z" fill="#B29577"/>
        <path d="M35 50.2725H32.4546V52.8179H35V50.2725Z" fill="#FFD9A6"/>
        <path d="M40.0911 29.9092H37.5457V32.4546H40.0911V29.9092Z" fill="#FFD9A6"/>
        <path d="M42.6365 29.9092H40.0911V32.4546H42.6365V29.9092Z" fill="#FFD9A6"/>
        <path d="M40.0911 32.4546H37.5457V35H40.0911V32.4546Z" fill="#FFD9A6"/>
        <path d="M42.6365 32.4546H40.0911V35H42.6365V32.4546Z" fill="#FFD9A6"/>
        <path d="M42.6365 35H40.0911V37.5455H42.6365V35Z" fill="#FFD9A6"/>
        <path d="M45.1819 27.3638H42.6365V29.9092H45.1819V27.3638Z" fill="#FFD9A6"/>
        <path d="M45.1819 29.9092H42.6365V32.4546H45.1819V29.9092Z" fill="#FFD9A6"/>
        <path d="M45.1819 32.4546H42.6365V35H45.1819V32.4546Z" fill="#FFD9A6"/>
        <path d="M45.1819 35H42.6365V37.5455H45.1819V35Z" fill="#FFD9A6"/>
        <path d="M47.7273 27.3638H45.1819V29.9092H47.7273V27.3638Z" fill="#FFD9A6"/>
        <path d="M47.7273 29.9092H45.1819V32.4546H47.7273V29.9092Z" fill="#FFD9A6"/>
        <path d="M47.7273 32.4546H45.1819V35H47.7273V32.4546Z" fill="#FFD9A6"/>
        <path d="M47.7273 35H45.1819V37.5455H47.7273V35Z" fill="#FFD9A6"/>
        <path d="M45.1819 37.5454H42.6365V40.0909H45.1819V37.5454Z" fill="#FFD9A6"/>
        <path d="M47.7273 37.5454H45.1819V40.0909H47.7273V37.5454Z" fill="#FFD9A6"/>
        <path d="M50.2728 27.3638H47.7273V29.9092H50.2728V27.3638Z" fill="#D3B38C"/>
        <path d="M50.2728 29.9092H47.7273V32.4546H50.2728V29.9092Z" fill="#FFD9A6"/>
        <path d="M50.2728 32.4546H47.7273V35H50.2728V32.4546Z" fill="#FFD9A6"/>
        <path d="M52.8182 27.3638H50.2727V29.9092H52.8182V27.3638Z" fill="#D3B38C"/>
        <path d="M50.2652 24.8179H47.7197V27.3633H50.2652V24.8179Z" fill="#D3B38C"/>
        <path d="M52.8182 29.9092H50.2727V32.4546H52.8182V29.9092Z" fill="#FFD9A6"/>
        <path d="M55.3638 29.9092H52.8184V32.4546H55.3638V29.9092Z" fill="#D3B38C"/>
        <path d="M52.8182 32.4546H50.2727V35H52.8182V32.4546Z" fill="#FFD9A6"/>
        <path d="M50.2728 35H47.7273V37.5455H50.2728V35Z" fill="#FFD9A6"/>
        <path d="M45.1819 24.8179H42.6365V27.3633H45.1819V24.8179Z" fill="black"/>
    </g>
    <defs>
        <clipPath id="clip0_2000_15782">
            <rect width="66.1818" height="45.8182" fill="white" transform="translate(1.90918 12.0908)"/>
        </clipPath>
    </defs>
</svg>
