<svg width="60" height="60" viewBox="0 0 60 60" fill="none" xmlns="http://www.w3.org/2000/svg">
    <g clip-path="url(#clip0_2279_13970)">
        <path d="M57.6924 6.92203H55.3847V4.61318H53.0747V2.30664H6.92203V4.61318H4.61549V6.92203H2.30664V53.077H4.61549V55.3847H6.92203V57.6924H53.0113V55.3847H55.3847V53.077H57.6924V6.92203Z" fill="#1B1464"/>
        <path d="M6.92293 2.30762H4.61523V4.61531H6.92293V2.30762Z" fill="white"/>
        <path d="M55.3848 2.30762H53.0771V4.61531H55.3848V2.30762Z" fill="white"/>
        <path d="M53.0744 0H6.92285V2.30769H53.0744V0Z" fill="white"/>
        <path d="M4.57869 4.65234H2.271V6.96004H4.57869V4.65234Z" fill="white"/>
        <path d="M4.61531 53.0771H2.30762V57.6925H4.61531V53.0771Z" fill="white"/>
        <path d="M6.92293 55.3848H4.61523V60.0002H6.92293V55.3848Z" fill="white"/>
        <path d="M53.0109 57.6924H6.92285V60.0001H53.0109V57.6924Z" fill="white"/>
        <path d="M55.3847 55.3848H53.0112V60.0002H55.3847V55.3848Z" fill="white"/>
        <path d="M57.6925 53.0771H55.3848V57.6925H57.6925V53.0771Z" fill="white"/>
        <path d="M2.30769 6.90918H0V55.3846H2.30769V6.90918Z" fill="white"/>
        <path d="M57.6925 4.65234H55.3848V6.96004H57.6925V4.65234Z" fill="white"/>
        <path d="M60.0001 6.95996H57.6924V55.3846H60.0001V6.95996Z" fill="white"/>
        <path d="M16.0676 4.7207H13.7783V7.00878H16.0676V4.7207Z" fill="black"/>
        <path d="M18.3566 4.7207H16.0674V7.00878H18.3566V4.7207Z" fill="black"/>
        <path d="M20.6462 4.7207H18.3569V7.00878H20.6462V4.7207Z" fill="black"/>
        <path d="M34.3869 4.7207H32.0977V7.00878H34.3869V4.7207Z" fill="black"/>
        <path d="M36.6774 4.7207H34.3882V7.00878H36.6774V4.7207Z" fill="black"/>
        <path d="M38.9723 4.7207H36.6831V7.00878H38.9723V4.7207Z" fill="black"/>
        <path d="M13.7726 7.01465H11.4834V9.30273H13.7726V7.01465Z" fill="black"/>
        <path d="M16.0676 7.01465H13.7783V9.30273H16.0676V7.01465Z" fill="#BE1E55"/>
        <path d="M22.9352 7.01465H20.646V9.30273H22.9352V7.01465Z" fill="black"/>
        <path d="M32.0988 7.01465H29.8096V9.30273H32.0988V7.01465Z" fill="black"/>
        <path d="M34.3869 7.01465H32.0977V9.30273H34.3869V7.01465Z" fill="#E15080"/>
        <path d="M36.6774 7.01465H34.3882V9.30273H36.6774V7.01465Z" fill="#E15080"/>
        <path d="M38.9723 7.01465H36.6831V9.30273H38.9723V7.01465Z" fill="#E15080"/>
        <path d="M41.2619 7.01465H38.9727V9.30273H41.2619V7.01465Z" fill="black"/>
        <path d="M11.4831 9.30176H9.19385V11.5898H11.4831V9.30176Z" fill="black"/>
        <path d="M13.7726 9.30176H11.4834V11.5898H13.7726V9.30176Z" fill="#BE1E55"/>
        <path d="M18.3566 9.30176H16.0674V11.5898H18.3566V9.30176Z" fill="#E15080"/>
        <path d="M20.6462 9.30176H18.3569V11.5898H20.6462V9.30176Z" fill="#E15080"/>
        <path d="M22.9352 9.30176H20.646V11.5898H22.9352V9.30176Z" fill="#E15080"/>
        <path d="M25.2258 9.30176H22.9365V11.5898H25.2258V9.30176Z" fill="black"/>
        <path d="M29.8088 9.30176H27.5195V11.5898H29.8088V9.30176Z" fill="black"/>
        <path d="M32.0988 9.30176H29.8096V11.5898H32.0988V9.30176Z" fill="#E15080"/>
        <path d="M34.3869 9.30176H32.0977V11.5898H34.3869V9.30176Z" fill="#E15080"/>
        <path d="M36.6774 9.30176H34.3882V11.5898H36.6774V9.30176Z" fill="white"/>
        <path d="M38.9723 9.30176H36.6831V11.5898H38.9723V9.30176Z" fill="#E15080"/>
        <path d="M41.2619 9.30176H38.9727V11.5898H41.2619V9.30176Z" fill="#E15080"/>
        <path d="M43.5509 9.30176H41.2617V11.5898H43.5509V9.30176Z" fill="black"/>
        <path d="M9.19402 11.5898H6.90479V13.8779H9.19402V11.5898Z" fill="black"/>
        <path d="M11.4831 11.5898H9.19385V13.8779H11.4831V11.5898Z" fill="#BE1E55"/>
        <path d="M16.0676 11.5898H13.7783V13.8779H16.0676V11.5898Z" fill="#E15080"/>
        <path d="M18.3566 11.5898H16.0674V13.8779H18.3566V11.5898Z" fill="#E15080"/>
        <path d="M20.6462 11.5898H18.3569V13.8779H20.6462V11.5898Z" fill="#E15080"/>
        <path d="M22.9352 11.5898H20.646V13.8779H22.9352V11.5898Z" fill="#E15080"/>
        <path d="M25.2258 11.5898H22.9365V13.8779H25.2258V11.5898Z" fill="#E15080"/>
        <path d="M27.5192 11.5898H25.23V13.8779H27.5192V11.5898Z" fill="black"/>
        <path d="M29.8088 11.5898H27.5195V13.8779H29.8088V11.5898Z" fill="#E15080"/>
        <path d="M32.0988 11.5898H29.8096V13.8779H32.0988V11.5898Z" fill="#E15080"/>
        <path d="M34.3869 11.5898H32.0977V13.8779H34.3869V11.5898Z" fill="#E15080"/>
        <path d="M36.6774 11.5898H34.3882V13.8779H36.6774V11.5898Z" fill="#E15080"/>
        <path d="M38.9723 11.5898H36.6831V13.8779H38.9723V11.5898Z" fill="white"/>
        <path d="M41.2619 11.5898H38.9727V13.8779H41.2619V11.5898Z" fill="#E15080"/>
        <path d="M43.5509 11.5898H41.2617V13.8779H43.5509V11.5898Z" fill="#E15080"/>
        <path d="M45.84 11.5898H43.5508V13.8779H45.84V11.5898Z" fill="black"/>
        <path d="M9.19402 13.877H6.90479V16.165H9.19402V13.877Z" fill="black"/>
        <path d="M11.4831 13.877H9.19385V16.165H11.4831V13.877Z" fill="#BE1E55"/>
        <path d="M16.0676 13.877H13.7783V16.165H16.0676V13.877Z" fill="#E15080"/>
        <path d="M18.3566 13.877H16.0674V16.165H18.3566V13.877Z" fill="#E15080"/>
        <path d="M20.6462 13.877H18.3569V16.165H20.6462V13.877Z" fill="#E15080"/>
        <path d="M22.9352 13.877H20.646V16.165H22.9352V13.877Z" fill="#E15080"/>
        <path d="M25.2258 13.877H22.9365V16.165H25.2258V13.877Z" fill="#E15080"/>
        <path d="M27.5192 13.877H25.23V16.165H27.5192V13.877Z" fill="#E15080"/>
        <path d="M29.8088 13.877H27.5195V16.165H29.8088V13.877Z" fill="#E15080"/>
        <path d="M32.0988 13.877H29.8096V16.165H32.0988V13.877Z" fill="#E15080"/>
        <path d="M34.3869 13.877H32.0977V16.165H34.3869V13.877Z" fill="#E15080"/>
        <path d="M36.6774 13.877H34.3882V16.165H36.6774V13.877Z" fill="#E15080"/>
        <path d="M38.9723 13.877H36.6831V16.165H38.9723V13.877Z" fill="white"/>
        <path d="M41.2619 13.877H38.9727V16.165H41.2619V13.877Z" fill="#E15080"/>
        <path d="M43.5509 13.877H41.2617V16.165H43.5509V13.877Z" fill="#E15080"/>
        <path d="M45.84 13.877H43.5508V16.165H45.84V13.877Z" fill="black"/>
        <path d="M9.19402 16.1641H6.90479V18.4521H9.19402V16.1641Z" fill="black"/>
        <path d="M11.4831 16.1641H9.19385V18.4521H11.4831V16.1641Z" fill="#BE1E55"/>
        <path d="M16.0676 16.1641H13.7783V18.4521H16.0676V16.1641Z" fill="#E15080"/>
        <path d="M18.3566 16.1641H16.0674V18.4521H18.3566V16.1641Z" fill="#E15080"/>
        <path d="M20.6462 16.1641H18.3569V18.4521H20.6462V16.1641Z" fill="#E15080"/>
        <path d="M22.9352 16.1641H20.646V18.4521H22.9352V16.1641Z" fill="#E15080"/>
        <path d="M25.2258 16.1641H22.9365V18.4521H25.2258V16.1641Z" fill="#E15080"/>
        <path d="M27.5192 16.1641H25.23V18.4521H27.5192V16.1641Z" fill="#E15080"/>
        <path d="M29.8088 16.1641H27.5195V18.4521H29.8088V16.1641Z" fill="#E15080"/>
        <path d="M32.0988 16.1641H29.8096V18.4521H32.0988V16.1641Z" fill="#E15080"/>
        <path d="M34.3869 16.1641H32.0977V18.4521H34.3869V16.1641Z" fill="#E15080"/>
        <path d="M36.6774 16.1641H34.3882V18.4521H36.6774V16.1641Z" fill="#E15080"/>
        <path d="M38.9723 16.1641H36.6831V18.4521H38.9723V16.1641Z" fill="#E15080"/>
        <path d="M41.2619 16.1641H38.9727V18.4521H41.2619V16.1641Z" fill="#E15080"/>
        <path d="M43.5509 16.1641H41.2617V18.4521H43.5509V16.1641Z" fill="#E15080"/>
        <path d="M45.84 16.1641H43.5508V18.4521H45.84V16.1641Z" fill="black"/>
        <path d="M9.19402 18.458H6.90479V20.7461H9.19402V18.458Z" fill="black"/>
        <path d="M11.4831 18.458H9.19385V20.7461H11.4831V18.458Z" fill="#941C3D"/>
        <path d="M13.7726 18.458H11.4834V20.7461H13.7726V18.458Z" fill="#BE1E55"/>
        <path d="M18.3566 18.458H16.0674V20.7461H18.3566V18.458Z" fill="#E15080"/>
        <path d="M20.6462 18.458H18.3569V20.7461H20.6462V18.458Z" fill="#E15080"/>
        <path d="M22.9352 18.458H20.646V20.7461H22.9352V18.458Z" fill="#E15080"/>
        <path d="M25.2258 18.458H22.9365V20.7461H25.2258V18.458Z" fill="#E15080"/>
        <path d="M27.5192 18.458H25.23V20.7461H27.5192V18.458Z" fill="#E15080"/>
        <path d="M29.8088 18.458H27.5195V20.7461H29.8088V18.458Z" fill="#E15080"/>
        <path d="M32.0988 18.458H29.8096V20.7461H32.0988V18.458Z" fill="#E15080"/>
        <path d="M34.3869 18.458H32.0977V20.7461H34.3869V18.458Z" fill="#E15080"/>
        <path d="M36.6774 18.458H34.3882V20.7461H36.6774V18.458Z" fill="white"/>
        <path d="M38.9723 18.458H36.6831V20.7461H38.9723V18.458Z" fill="#E15080"/>
        <path d="M41.2619 18.458H38.9727V20.7461H41.2619V18.458Z" fill="#E15080"/>
        <path d="M43.5509 18.458H41.2617V20.7461H43.5509V18.458Z" fill="#E15080"/>
        <path d="M45.84 18.458H43.5508V20.7461H45.84V18.458Z" fill="black"/>
        <path d="M11.4831 20.7451H9.19385V23.0332H11.4831V20.7451Z" fill="black"/>
        <path d="M13.7726 20.7451H11.4834V23.0332H13.7726V20.7451Z" fill="#941C3D"/>
        <path d="M16.0676 20.7451H13.7783V23.0332H16.0676V20.7451Z" fill="#BE1E55"/>
        <path d="M20.6462 20.7451H18.3569V23.0332H20.6462V20.7451Z" fill="#E15080"/>
        <path d="M22.9352 20.7451H20.646V23.0332H22.9352V20.7451Z" fill="#E15080"/>
        <path d="M25.2258 20.7451H22.9365V23.0332H25.2258V20.7451Z" fill="#E15080"/>
        <path d="M27.5192 20.7451H25.23V23.0332H27.5192V20.7451Z" fill="#E15080"/>
        <path d="M29.8088 20.7451H27.5195V23.0332H29.8088V20.7451Z" fill="#E15080"/>
        <path d="M32.0988 20.7451H29.8096V23.0332H32.0988V20.7451Z" fill="#E15080"/>
        <path d="M34.3869 20.7451H32.0977V23.0332H34.3869V20.7451Z" fill="#E15080"/>
        <path d="M36.6774 20.7451H34.3882V23.0332H36.6774V20.7451Z" fill="#E15080"/>
        <path d="M38.9723 20.7451H36.6831V23.0332H38.9723V20.7451Z" fill="#E15080"/>
        <path d="M41.2619 20.7451H38.9727V23.0332H41.2619V20.7451Z" fill="#E15080"/>
        <path d="M43.5509 20.7451H41.2617V23.0332H43.5509V20.7451Z" fill="black"/>
        <path d="M13.7726 23.0332H11.4834V25.3213H13.7726V23.0332Z" fill="black"/>
        <path d="M16.0676 23.0332H13.7783V25.3213H16.0676V23.0332Z" fill="#941C3D"/>
        <path d="M18.3566 23.0332H16.0674V25.3213H18.3566V23.0332Z" fill="#BE1E55"/>
        <path d="M22.9352 23.0332H20.646V25.3213H22.9352V23.0332Z" fill="#E15080"/>
        <path d="M25.2258 23.0332H22.9365V25.3213H25.2258V23.0332Z" fill="#E15080"/>
        <path d="M27.5192 23.0332H25.23V25.3213H27.5192V23.0332Z" fill="#E15080"/>
        <path d="M29.8088 23.0332H27.5195V25.3213H29.8088V23.0332Z" fill="#E15080"/>
        <path d="M32.0988 23.0332H29.8096V25.3213H32.0988V23.0332Z" fill="#E15080"/>
        <path d="M34.3869 23.0332H32.0977V25.3213H34.3869V23.0332Z" fill="#E15080"/>
        <path d="M36.6774 23.0332H34.3882V25.3213H36.6774V23.0332Z" fill="#E15080"/>
        <path d="M38.9723 23.0332H36.6831V25.3213H38.9723V23.0332Z" fill="#E15080"/>
        <path d="M41.2619 23.0332H38.9727V25.3213H41.2619V23.0332Z" fill="black"/>
        <path d="M16.0676 25.3203H13.7783V27.6084H16.0676V25.3203Z" fill="black"/>
        <path d="M18.3566 25.3203H16.0674V27.6084H18.3566V25.3203Z" fill="#941C3D"/>
        <path d="M20.6462 25.3203H18.3569V27.6084H20.6462V25.3203Z" fill="#BE1E55"/>
        <path d="M25.2258 25.3203H22.9365V27.6084H25.2258V25.3203Z" fill="#E15080"/>
        <path d="M27.5192 25.3203H25.23V27.6084H27.5192V25.3203Z" fill="#E15080"/>
        <path d="M29.8088 25.3203H27.5195V27.6084H29.8088V25.3203Z" fill="#E15080"/>
        <path d="M32.0988 25.3203H29.8096V27.6084H32.0988V25.3203Z" fill="#E15080"/>
        <path d="M34.3869 25.3203H32.0977V27.6084H34.3869V25.3203Z" fill="#E15080"/>
        <path d="M36.6774 25.3203H34.3882V27.6084H36.6774V25.3203Z" fill="#E15080"/>
        <path d="M38.9723 25.3203H36.6831V27.6084H38.9723V25.3203Z" fill="black"/>
        <path d="M18.3566 27.6084H16.0674V29.8965H18.3566V27.6084Z" fill="black"/>
        <path d="M20.6462 27.6084H18.3569V29.8965H20.6462V27.6084Z" fill="#941C3D"/>
        <path d="M22.9352 27.6084H20.646V29.8965H22.9352V27.6084Z" fill="#BE1E55"/>
        <path d="M27.5192 27.6084H25.23V29.8965H27.5192V27.6084Z" fill="#E15080"/>
        <path d="M29.8088 27.6084H27.5195V29.8965H29.8088V27.6084Z" fill="#E15080"/>
        <path d="M32.0988 27.6084H29.8096V29.8965H32.0988V27.6084Z" fill="#E15080"/>
        <path d="M36.6774 27.6084H34.3882V29.8965H36.6774V27.6084Z" fill="black"/>
        <path d="M20.6462 29.9014H18.3569V32.1894H20.6462V29.9014Z" fill="black"/>
        <path d="M22.9352 29.9014H20.646V32.1894H22.9352V29.9014Z" fill="#941C3D"/>
        <path d="M25.2258 29.9014H22.9365V32.1894H25.2258V29.9014Z" fill="#BE1E55"/>
        <path d="M29.8088 29.9014H27.5195V32.1894H29.8088V29.9014Z" fill="#E15080"/>
        <path d="M34.3869 29.9014H32.0977V32.1894H34.3869V29.9014Z" fill="black"/>
        <path d="M22.9352 32.1895H20.646V34.4775H22.9352V32.1895Z" fill="black"/>
        <path d="M25.2258 32.1895H22.9365V34.4775H25.2258V32.1895Z" fill="#941C3D"/>
        <path d="M27.5192 32.1895H25.23V34.4775H27.5192V32.1895Z" fill="#BE1E55"/>
        <path d="M18.3566 7.01465H16.0674V9.30273H18.3566V7.01465Z" fill="#D72F73"/>
        <path d="M20.6462 7.01465H18.3569V9.30273H20.6462V7.01465Z" fill="#D72F73"/>
        <path d="M16.0676 9.30176H13.7783V11.5898H16.0676V9.30176Z" fill="#D72F73"/>
        <path d="M13.7726 11.5898H11.4834V13.8779H13.7726V11.5898Z" fill="#D72F73"/>
        <path d="M13.7726 13.877H11.4834V16.165H13.7726V13.877Z" fill="#D72F73"/>
        <path d="M13.7726 16.1641H11.4834V18.4521H13.7726V16.1641Z" fill="#D72F73"/>
        <path d="M16.0676 18.458H13.7783V20.7461H16.0676V18.458Z" fill="#D72F73"/>
        <path d="M18.3566 20.7451H16.0674V23.0332H18.3566V20.7451Z" fill="#D72F73"/>
        <path d="M20.6462 23.0332H18.3569V25.3213H20.6462V23.0332Z" fill="#D72F73"/>
        <path d="M22.9352 25.3203H20.646V27.6084H22.9352V25.3203Z" fill="#D72F73"/>
        <path d="M25.2258 27.6084H22.9365V29.8965H25.2258V27.6084Z" fill="#D72F73"/>
        <path d="M34.3869 27.6084H32.0977V29.8965H34.3869V27.6084Z" fill="#D72F73"/>
        <path d="M27.5192 29.9014H25.23V32.1894H27.5192V29.9014Z" fill="#D72F73"/>
        <path d="M32.0988 29.9014H29.8096V32.1894H32.0988V29.9014Z" fill="#D72F73"/>
        <path d="M29.8088 32.1895H27.5195V34.4775H29.8088V32.1895Z" fill="#D72F73"/>
        <path d="M32.0988 32.1895H29.8096V34.4775H32.0988V32.1895Z" fill="black"/>
        <path d="M25.2258 34.4775H22.9365V36.7656H25.2258V34.4775Z" fill="black"/>
        <path d="M27.5192 34.4775H25.23V36.7656H27.5192V34.4775Z" fill="#941C3D"/>
        <path d="M29.8088 34.4775H27.5195V36.7656H29.8088V34.4775Z" fill="black"/>
        <path d="M27.5192 36.7646H25.23V39.0527H27.5192V36.7646Z" fill="black"/>
        <path d="M41.2637 50.6445H38.9561V52.9522H41.2637V50.6445Z" fill="#2986FF"/>
        <path d="M38.9561 50.6445H36.6484V52.9522H38.9561V50.6445Z" fill="#2986FF"/>
        <path d="M41.2637 48.3369H38.9561V50.6446H41.2637V48.3369Z" fill="#2986FF"/>
        <path d="M38.9561 48.3369H36.6484V50.6446H38.9561V48.3369Z" fill="#45B3E9"/>
        <path d="M41.2637 46.0293H38.9561V48.337H41.2637V46.0293Z" fill="#45B3E9"/>
        <path d="M38.9561 46.0293H36.6484V48.337H38.9561V46.0293Z" fill="#45B3E9"/>
        <path d="M36.6485 48.3369H34.3408V50.6446H36.6485V48.3369Z" fill="#2986FF"/>
        <path d="M36.6485 46.0293H34.3408V48.337H36.6485V46.0293Z" fill="#82CBE8"/>
        <path d="M34.3409 46.0293H32.0332V48.337H34.3409V46.0293Z" fill="black"/>
        <path d="M36.6485 43.7217H34.3408V46.0294H36.6485V43.7217Z" fill="black"/>
        <path d="M38.9595 41.415H36.6519V43.7227H38.9595V41.415Z" fill="black"/>
        <path d="M41.2594 41.415H38.9517V43.7227H41.2594V41.415Z" fill="black"/>
        <path d="M41.2603 39.1953H38.9526V41.503H41.2603V39.1953Z" fill="black"/>
        <path d="M41.2603 36.8916H38.9526V39.1993H41.2603V36.8916Z" fill="black"/>
        <path d="M41.2594 34.585H38.9517V36.8927H41.2594V34.585Z" fill="black"/>
        <path d="M41.2594 32.2842H38.9517V34.5919H41.2594V32.2842Z" fill="black"/>
        <path d="M41.2594 29.9834H38.9517V32.2911H41.2594V29.9834Z" fill="black"/>
        <path d="M41.2594 27.6826H38.9517V29.9903H41.2594V27.6826Z" fill="black"/>
        <path d="M43.5772 25.3652H41.2695V27.6729H43.5772V25.3652Z" fill="black"/>
        <path d="M45.8951 23.0469H43.5874V25.3546H45.8951V23.0469Z" fill="black"/>
        <path d="M48.1905 23.0469H45.8828V25.3546H48.1905V23.0469Z" fill="black"/>
        <path d="M50.4981 23.0469H48.1904V25.3546H50.4981V23.0469Z" fill="black"/>
        <path d="M52.8092 25.3584H50.5015V27.6661H52.8092V25.3584Z" fill="black"/>
        <path d="M52.8092 27.6689H50.5015V29.9766H52.8092V27.6689Z" fill="black"/>
        <path d="M50.5001 29.9785H48.1924V32.2862H50.5001V29.9785Z" fill="black"/>
        <path d="M45.8803 32.2871H48.188V29.9794H45.8803V32.2871Z" fill="black"/>
        <path d="M43.5751 32.2871H45.8828V29.9794H43.5751V32.2871Z" fill="black"/>
        <path d="M43.5751 34.5938H45.8828V32.2861H43.5751V34.5938Z" fill="black"/>
        <path d="M43.5751 36.9004H45.8828V34.5927H43.5751V36.9004Z" fill="black"/>
        <path d="M43.5668 39.1963H45.8745V36.8886H43.5668V39.1963Z" fill="black"/>
        <path d="M43.5668 41.5H45.8745V39.1923H43.5668V41.5Z" fill="black"/>
        <path d="M43.5702 46.0215H45.8779V43.7138H43.5702V46.0215Z" fill="black"/>
        <path d="M43.5702 43.8096H45.8779V41.5019H43.5702V43.8096Z" fill="black"/>
        <path d="M43.5702 48.3252H45.8779V46.0175H43.5702V48.3252Z" fill="black"/>
        <path d="M43.5702 50.6299H45.8779V48.3222H43.5702V50.6299Z" fill="black"/>
        <path d="M41.2558 52.9443H43.5635V50.6366H41.2558V52.9443Z" fill="black"/>
        <path d="M38.9408 55.2588H41.2485V52.9511H38.9408V55.2588Z" fill="black"/>
        <path d="M36.6518 55.2588H38.9595V52.9511H36.6518V55.2588Z" fill="black"/>
        <path d="M34.3383 52.9463H36.646V50.6386H34.3383V52.9463Z" fill="black"/>
        <path d="M32.0248 50.6338H34.3325V48.3261H32.0248V50.6338Z" fill="black"/>
        <path d="M43.5714 48.3369H41.2637V50.6446H43.5714V48.3369Z" fill="#2986FF"/>
        <path d="M43.5714 46.0293H41.2637V48.337H43.5714V46.0293Z" fill="#45B3E9"/>
        <path d="M43.5714 43.7227H41.2637V46.0303H43.5714V43.7227Z" fill="#45B3E9"/>
        <path d="M43.5714 41.502H41.2637V43.8096H43.5714V41.502Z" fill="#45B3E9"/>
        <path d="M43.5679 39.1982H41.2603V41.5059H43.5679V39.1982Z" fill="#45B3E9"/>
        <path d="M43.5679 36.8916H41.2603V39.1993H43.5679V36.8916Z" fill="#45B3E9"/>
        <path d="M43.5748 34.5938H41.2671V36.9014H43.5748V34.5938Z" fill="#45B3E9"/>
        <path d="M43.5748 32.2842H41.2671V34.5919H43.5748V32.2842Z" fill="#45B3E9"/>
        <path d="M43.5748 29.9756H41.2671V32.2833H43.5748V29.9756Z" fill="#45B3E9"/>
        <path d="M45.8824 27.6699H43.5747V29.9776H45.8824V27.6699Z" fill="#2986FF"/>
        <path d="M43.5748 27.6699H41.2671V29.9776H43.5748V27.6699Z" fill="#45B3E9"/>
        <path d="M48.1905 27.6699H45.8828V29.9776H48.1905V27.6699Z" fill="#2986FF"/>
        <path d="M50.4981 27.6699H48.1904V29.9776H50.4981V27.6699Z" fill="#2986FF"/>
        <path d="M48.1905 25.3613H45.8828V27.669H48.1905V25.3613Z" fill="#45B3E9"/>
        <path d="M45.8824 25.3613H43.5747V27.669H45.8824V25.3613Z" fill="#45B3E9"/>
        <path d="M50.4981 25.3613H48.1904V27.669H50.4981V25.3613Z" fill="#45B3E9"/>
        <path d="M41.2637 43.7217H38.9561V46.0294H41.2637V43.7217Z" fill="#82CBE8"/>
        <path d="M38.9561 43.7217H36.6484V46.0294H38.9561V43.7217Z" fill="#82CBE8"/>
    </g>
    <defs>
        <clipPath id="clip0_2279_13970">
            <rect width="60" height="60" fill="white"/>
        </clipPath>
    </defs>
</svg>
