<svg width="70" height="70" viewBox="0 0 70 70" fill="none" xmlns="http://www.w3.org/2000/svg">
    <g clip-path="url(#clip0_2000_21591)">
        <path d="M9.54545 17.1816H7V19.7271H9.54545V17.1816Z" fill="black"/>
        <path d="M9.54545 14.6362H7V17.1817H9.54545V14.6362Z" fill="white"/>
        <path d="M12.0909 17.1816H9.54541V19.7271H12.0909V17.1816Z" fill="#CCCCCC"/>
        <path d="M14.6363 17.1816H12.0908V19.7271H14.6363V17.1816Z" fill="#E6E6E6"/>
        <path d="M17.1817 17.1816H14.6362V19.7271H17.1817V17.1816Z" fill="#E6E6E6"/>
        <path d="M19.7276 17.1816H17.1821V19.7271H19.7276V17.1816Z" fill="#F2F2F2"/>
        <path d="M22.273 17.1816H19.7275V19.7271H22.273V17.1816Z" fill="#F2F2F2"/>
        <path d="M19.7276 19.7271H17.1821V22.2725H19.7276V19.7271Z" fill="#F2F2F2"/>
        <path d="M22.273 19.7271H19.7275V22.2725H22.273V19.7271Z" fill="white"/>
        <path d="M19.7276 22.2725H17.1821V24.8179H19.7276V22.2725Z" fill="#F2F2F2"/>
        <path d="M22.273 22.2725H19.7275V24.8179H22.273V22.2725Z" fill="white"/>
        <path d="M19.7276 24.8179H17.1821V27.3633H19.7276V24.8179Z" fill="#F2F2F2"/>
        <path d="M22.273 24.8179H19.7275V27.3633H22.273V24.8179Z" fill="#F2F2F2"/>
        <path d="M19.7276 32.4546H17.1821V35H19.7276V32.4546Z" fill="#F2F2F2"/>
        <path d="M22.273 32.4546H19.7275V35H22.273V32.4546Z" fill="white"/>
        <path d="M19.7276 35H17.1821V37.5455H19.7276V35Z" fill="#F2F2F2"/>
        <path d="M22.273 35H19.7275V37.5455H22.273V35Z" fill="white"/>
        <path d="M19.7276 37.5454H17.1821V40.0909H19.7276V37.5454Z" fill="#F2F2F2"/>
        <path d="M22.273 37.5454H19.7275V40.0909H22.273V37.5454Z" fill="white"/>
        <path d="M19.7276 40.0894H17.1821V42.6348H19.7276V40.0894Z" fill="#F2F2F2"/>
        <path d="M22.273 40.0894H19.7275V42.6348H22.273V40.0894Z" fill="white"/>
        <path d="M19.7276 42.6348H17.1821V45.1802H19.7276V42.6348Z" fill="#F2F2F2"/>
        <path d="M22.273 42.6348H19.7275V45.1802H22.273V42.6348Z" fill="#F2F2F2"/>
        <path d="M19.7276 45.1807H17.1821V47.7261H19.7276V45.1807Z" fill="#E6E6E6"/>
        <path d="M22.273 45.1807H19.7275V47.7261H22.273V45.1807Z" fill="#E6E6E6"/>
        <path d="M24.8184 17.1816H22.2729V19.7271H24.8184V17.1816Z" fill="#F2F2F2"/>
        <path d="M27.3638 17.1816H24.8184V19.7271H27.3638V17.1816Z" fill="white"/>
        <path d="M29.9092 17.1816H27.3638V19.7271H29.9092V17.1816Z" fill="white"/>
        <path d="M32.4546 17.1816H29.9092V19.7271H32.4546V17.1816Z" fill="white"/>
        <path d="M32.4546 19.7271H29.9092V22.2725H32.4546V19.7271Z" fill="white"/>
        <path d="M32.4546 22.2725H29.9092V24.8179H32.4546V22.2725Z" fill="white"/>
        <path d="M32.4546 24.8179H29.9092V27.3633H32.4546V24.8179Z" fill="white"/>
        <path d="M32.4546 27.3638H29.9092V29.9092H32.4546V27.3638Z" fill="white"/>
        <path d="M32.4546 29.9092H29.9092V32.4546H32.4546V29.9092Z" fill="white"/>
        <path d="M32.4546 32.4546H29.9092V35H32.4546V32.4546Z" fill="white"/>
        <path d="M32.4546 35H29.9092V37.5455H32.4546V35Z" fill="white"/>
        <path d="M32.4546 37.5454H29.9092V40.0909H32.4546V37.5454Z" fill="white"/>
        <path d="M32.4546 40.0908H29.9092V42.6363H32.4546V40.0908Z" fill="white"/>
        <path d="M32.4546 42.6362H29.9092V45.1817H32.4546V42.6362Z" fill="white"/>
        <path d="M32.4546 45.1816H29.9092V47.7271H32.4546V45.1816Z" fill="#E6E6E6"/>
        <path d="M29.9092 19.7271H27.3638V22.2725H29.9092V19.7271Z" fill="white"/>
        <path d="M29.9092 22.2725H27.3638V24.8179H29.9092V22.2725Z" fill="white"/>
        <path d="M29.9092 24.8179H27.3638V27.3633H29.9092V24.8179Z" fill="white"/>
        <path d="M29.9092 27.3638H27.3638V29.9092H29.9092V27.3638Z" fill="white"/>
        <path d="M29.9092 29.9092H27.3638V32.4546H29.9092V29.9092Z" fill="white"/>
        <path d="M29.9092 32.4546H27.3638V35H29.9092V32.4546Z" fill="white"/>
        <path d="M29.9092 35H27.3638V37.5455H29.9092V35Z" fill="white"/>
        <path d="M29.9092 37.5454H27.3638V40.0909H29.9092V37.5454Z" fill="white"/>
        <path d="M29.9092 40.0908H27.3638V42.6363H29.9092V40.0908Z" fill="white"/>
        <path d="M29.9092 42.6362H27.3638V45.1817H29.9092V42.6362Z" fill="white"/>
        <path d="M29.9092 45.1816H27.3638V47.7271H29.9092V45.1816Z" fill="#E6E6E6"/>
        <path d="M35 17.1816H32.4546V19.7271H35V17.1816Z" fill="white"/>
        <path d="M37.5455 17.1816H35V19.7271H37.5455V17.1816Z" fill="white"/>
        <path d="M40.0909 17.1816H37.5454V19.7271H40.0909V17.1816Z" fill="white"/>
        <path d="M42.6363 17.1816H40.0908V19.7271H42.6363V17.1816Z" fill="white"/>
        <path d="M45.1817 17.1816H42.6362V19.7271H45.1817V17.1816Z" fill="white"/>
        <path d="M47.7276 17.1816H45.1821V19.7271H47.7276V17.1816Z" fill="white"/>
        <path d="M50.273 17.1816H47.7275V19.7271H50.273V17.1816Z" fill="white"/>
        <path d="M52.8184 17.1816H50.2729V19.7271H52.8184V17.1816Z" fill="white"/>
        <path d="M55.3638 17.1816H52.8184V19.7271H55.3638V17.1816Z" fill="white"/>
        <path d="M57.9092 17.1816H55.3638V19.7271H57.9092V17.1816Z" fill="white"/>
        <path d="M60.4546 17.1816H57.9092V19.7271H60.4546V17.1816Z" fill="white"/>
        <path d="M9.54545 19.7271H7V22.2725H9.54545V19.7271Z" fill="#CCCCCC"/>
        <path d="M9.54545 22.2725H7V24.8179H9.54545V22.2725Z" fill="#CCCCCC"/>
        <path d="M9.54545 24.8179H7V27.3633H9.54545V24.8179Z" fill="#CCCCCC"/>
        <path d="M9.54545 27.3638H7V29.9092H9.54545V27.3638Z" fill="#CCCCCC"/>
        <path d="M9.54545 29.9092H7V32.4546H9.54545V29.9092Z" fill="#CCCCCC"/>
        <path d="M9.54545 32.4546H7V35H9.54545V32.4546Z" fill="#CCCCCC"/>
        <path d="M9.54545 35H7V37.5455H9.54545V35Z" fill="#CCCCCC"/>
        <path d="M9.54545 37.5454H7V40.0909H9.54545V37.5454Z" fill="#CCCCCC"/>
        <path d="M9.54545 40.0908H7V42.6363H9.54545V40.0908Z" fill="#CCCCCC"/>
        <path d="M9.54545 42.6362H7V45.1817H9.54545V42.6362Z" fill="#CCCCCC"/>
        <path d="M9.54545 45.1816H7V47.7271H9.54545V45.1816Z" fill="#CCCCCC"/>
        <path d="M12.0909 19.7271H9.54541V22.2725H12.0909V19.7271Z" fill="#E6E6E6"/>
        <path d="M12.0909 22.2725H9.54541V24.8179H12.0909V22.2725Z" fill="#E6E6E6"/>
        <path d="M12.0909 24.8179H9.54541V27.3633H12.0909V24.8179Z" fill="#E6E6E6"/>
        <path d="M12.0909 27.3638H9.54541V29.9092H12.0909V27.3638Z" fill="#E6E6E6"/>
        <path d="M12.0909 29.9092H9.54541V32.4546H12.0909V29.9092Z" fill="#E6E6E6"/>
        <path d="M12.0909 32.4546H9.54541V35H12.0909V32.4546Z" fill="#E6E6E6"/>
        <path d="M12.0909 35H9.54541V37.5455H12.0909V35Z" fill="#E6E6E6"/>
        <path d="M12.0909 37.5454H9.54541V40.0909H12.0909V37.5454Z" fill="#E6E6E6"/>
        <path d="M12.0909 40.0908H9.54541V42.6363H12.0909V40.0908Z" fill="#E6E6E6"/>
        <path d="M12.0909 42.6362H9.54541V45.1817H12.0909V42.6362Z" fill="#E6E6E6"/>
        <path d="M12.0909 45.1816H9.54541V47.7271H12.0909V45.1816Z" fill="#CCCCCC"/>
        <path d="M14.6363 19.7271H12.0908V22.2725H14.6363V19.7271Z" fill="#49CE58"/>
        <path d="M14.6363 22.2725H12.0908V24.8179H14.6363V22.2725Z" fill="#49CE58"/>
        <path d="M14.6363 24.8179H12.0908V27.3633H14.6363V24.8179Z" fill="#49CE58"/>
        <path d="M14.6363 27.3638H12.0908V29.9092H14.6363V27.3638Z" fill="#49CE58"/>
        <path d="M14.6363 29.9092H12.0908V32.4546H14.6363V29.9092Z" fill="#49CE58"/>
        <path d="M14.6363 32.4546H12.0908V35H14.6363V32.4546Z" fill="#49CE58"/>
        <path d="M14.6363 35H12.0908V37.5455H14.6363V35Z" fill="#49CE58"/>
        <path d="M14.6363 37.5454H12.0908V40.0909H14.6363V37.5454Z" fill="#49CE58"/>
        <path d="M14.6363 40.0908H12.0908V42.6363H14.6363V40.0908Z" fill="#49CE58"/>
        <path d="M14.6363 42.6362H12.0908V45.1817H14.6363V42.6362Z" fill="#49CE58"/>
        <path d="M14.6363 45.1816H12.0908V47.7271H14.6363V45.1816Z" fill="#CCCCCC"/>
        <path d="M17.1817 19.7271H14.6362V22.2725H17.1817V19.7271Z" fill="#49CE58"/>
        <path d="M17.1817 22.2725H14.6362V24.8179H17.1817V22.2725Z" fill="#E6E6E6"/>
        <path d="M17.1817 24.8179H14.6362V27.3633H17.1817V24.8179Z" fill="#E6E6E6"/>
        <path d="M17.1817 27.3638H14.6362V29.9092H17.1817V27.3638Z" fill="#E6E6E6"/>
        <path d="M17.1817 29.9092H14.6362V32.4546H17.1817V29.9092Z" fill="#E6E6E6"/>
        <path d="M17.1817 32.4546H14.6362V35H17.1817V32.4546Z" fill="#E6E6E6"/>
        <path d="M17.1817 35H14.6362V37.5455H17.1817V35Z" fill="#E6E6E6"/>
        <path d="M17.1817 37.5454H14.6362V40.0909H17.1817V37.5454Z" fill="#E6E6E6"/>
        <path d="M17.1817 40.0908H14.6362V42.6363H17.1817V40.0908Z" fill="#E6E6E6"/>
        <path d="M17.1817 42.6362H14.6362V45.1817H17.1817V42.6362Z" fill="#49CE58"/>
        <path d="M17.1817 45.1816H14.6362V47.7271H17.1817V45.1816Z" fill="#CCCCCC"/>
        <path d="M19.7276 19.7271H17.1821V22.2725H19.7276V19.7271Z" fill="#F2F2F2"/>
        <path d="M19.7276 22.2725H17.1821V24.8179H19.7276V22.2725Z" fill="#49CE58"/>
        <path d="M19.7276 24.8179H17.1821V27.3633H19.7276V24.8179Z" fill="#F2F2F2"/>
        <path d="M19.7276 27.3638H17.1821V29.9092H19.7276V27.3638Z" fill="#F2F2F2"/>
        <path d="M19.7276 29.9092H17.1821V32.4546H19.7276V29.9092Z" fill="#F2F2F2"/>
        <path d="M19.7276 32.4546H17.1821V35H19.7276V32.4546Z" fill="#F2F2F2"/>
        <path d="M19.7276 35H17.1821V37.5455H19.7276V35Z" fill="#F2F2F2"/>
        <path d="M19.7276 37.5454H17.1821V40.0909H19.7276V37.5454Z" fill="#F2F2F2"/>
        <path d="M19.7276 40.0908H17.1821V42.6363H19.7276V40.0908Z" fill="#49CE58"/>
        <path d="M19.7276 42.6362H17.1821V45.1817H19.7276V42.6362Z" fill="#F2F2F2"/>
        <path d="M19.7276 45.1816H17.1821V47.7271H19.7276V45.1816Z" fill="#F2F2F2"/>
        <path d="M22.273 19.7271H19.7275V22.2725H22.273V19.7271Z" fill="#F2F2F2"/>
        <path d="M22.273 22.2725H19.7275V24.8179H22.273V22.2725Z" fill="#F2F2F2"/>
        <path d="M22.273 24.8179H19.7275V27.3633H22.273V24.8179Z" fill="#49CE58"/>
        <path d="M22.273 27.3638H19.7275V29.9092H22.273V27.3638Z" fill="#49CE58"/>
        <path d="M22.273 29.9092H19.7275V32.4546H22.273V29.9092Z" fill="#49CE58"/>
        <path d="M22.273 32.4546H19.7275V35H22.273V32.4546Z" fill="#49CE58"/>
        <path d="M22.273 35H19.7275V37.5455H22.273V35Z" fill="#49CE58"/>
        <path d="M22.273 37.5454H19.7275V40.0909H22.273V37.5454Z" fill="#49CE58"/>
        <path d="M22.273 40.0908H19.7275V42.6363H22.273V40.0908Z" fill="#F2F2F2"/>
        <path d="M22.273 42.6362H19.7275V45.1817H22.273V42.6362Z" fill="#F2F2F2"/>
        <path d="M22.273 45.1816H19.7275V47.7271H22.273V45.1816Z" fill="#F2F2F2"/>
        <path d="M24.8184 19.7271H22.2729V22.2725H24.8184V19.7271Z" fill="#F2F2F2"/>
        <path d="M24.8184 22.2725H22.2729V24.8179H24.8184V22.2725Z" fill="#F2F2F2"/>
        <path d="M24.8184 24.8179H22.2729V27.3633H24.8184V24.8179Z" fill="#F2F2F2"/>
        <path d="M24.8184 27.3638H22.2729V29.9092H24.8184V27.3638Z" fill="#F2F2F2"/>
        <path d="M24.8184 29.9092H22.2729V32.4546H24.8184V29.9092Z" fill="#F2F2F2"/>
        <path d="M24.8184 32.4546H22.2729V35H24.8184V32.4546Z" fill="#F2F2F2"/>
        <path d="M24.8184 35H22.2729V37.5455H24.8184V35Z" fill="#F2F2F2"/>
        <path d="M24.8184 37.5454H22.2729V40.0909H24.8184V37.5454Z" fill="#F2F2F2"/>
        <path d="M24.8184 40.0908H22.2729V42.6363H24.8184V40.0908Z" fill="#F2F2F2"/>
        <path d="M24.8184 42.6362H22.2729V45.1817H24.8184V42.6362Z" fill="#F2F2F2"/>
        <path d="M24.8184 45.1816H22.2729V47.7271H24.8184V45.1816Z" fill="#F2F2F2"/>
        <path d="M27.3638 19.7271H24.8184V22.2725H27.3638V19.7271Z" fill="white"/>
        <path d="M27.3638 22.2725H24.8184V24.8179H27.3638V22.2725Z" fill="#49CE58"/>
        <path d="M27.3638 24.8179H24.8184V27.3633H27.3638V24.8179Z" fill="#49CE58"/>
        <path d="M27.3638 27.3638H24.8184V29.9092H27.3638V27.3638Z" fill="#49CE58"/>
        <path d="M27.3638 29.9092H24.8184V32.4546H27.3638V29.9092Z" fill="#49CE58"/>
        <path d="M27.3638 32.4546H24.8184V35H27.3638V32.4546Z" fill="#49CE58"/>
        <path d="M27.3638 35H24.8184V37.5455H27.3638V35Z" fill="#49CE58"/>
        <path d="M27.3638 37.5454H24.8184V40.0909H27.3638V37.5454Z" fill="#49CE58"/>
        <path d="M27.3638 40.0908H24.8184V42.6363H27.3638V40.0908Z" fill="#49CE58"/>
        <path d="M27.3638 42.6362H24.8184V45.1817H27.3638V42.6362Z" fill="white"/>
        <path d="M27.3638 45.1816H24.8184V47.7271H27.3638V45.1816Z" fill="white"/>
        <path d="M29.9092 19.7271H27.3638V22.2725H29.9092V19.7271Z" fill="#49CE58"/>
        <path d="M29.9092 22.2725H27.3638V24.8179H29.9092V22.2725Z" fill="white"/>
        <path d="M29.9092 24.8179H27.3638V27.3633H29.9092V24.8179Z" fill="white"/>
        <path d="M29.9092 27.3638H27.3638V29.9092H29.9092V27.3638Z" fill="white"/>
        <path d="M29.9092 29.9092H27.3638V32.4546H29.9092V29.9092Z" fill="white"/>
        <path d="M29.9092 32.4546H27.3638V35H29.9092V32.4546Z" fill="white"/>
        <path d="M29.9092 35H27.3638V37.5455H29.9092V35Z" fill="white"/>
        <path d="M29.9092 37.5454H27.3638V40.0909H29.9092V37.5454Z" fill="white"/>
        <path d="M29.9092 40.0908H27.3638V42.6363H29.9092V40.0908Z" fill="white"/>
        <path d="M29.9092 42.6362H27.3638V45.1817H29.9092V42.6362Z" fill="#E6E6E6"/>
        <path d="M29.9092 45.1816H27.3638V47.7271H29.9092V45.1816Z" fill="white"/>
        <path d="M32.4546 19.7271H29.9092V22.2725H32.4546V19.7271Z" fill="#49CE58"/>
        <path d="M32.4546 22.2725H29.9092V24.8179H32.4546V22.2725Z" fill="white"/>
        <path d="M32.4546 24.8179H29.9092V27.3633H32.4546V24.8179Z" fill="white"/>
        <path d="M32.4546 27.3638H29.9092V29.9092H32.4546V27.3638Z" fill="white"/>
        <path d="M32.4546 29.9092H29.9092V32.4546H32.4546V29.9092Z" fill="white"/>
        <path d="M32.4546 32.4546H29.9092V35H32.4546V32.4546Z" fill="white"/>
        <path d="M32.4546 35H29.9092V37.5455H32.4546V35Z" fill="white"/>
        <path d="M32.4546 37.5454H29.9092V40.0909H32.4546V37.5454Z" fill="white"/>
        <path d="M32.4546 40.0908H29.9092V42.6363H32.4546V40.0908Z" fill="white"/>
        <path d="M32.4546 42.6362H29.9092V45.1817H32.4546V42.6362Z" fill="#49CE58"/>
        <path d="M32.4546 45.1816H29.9092V47.7271H32.4546V45.1816Z" fill="white"/>
        <path d="M35 19.7271H32.4546V22.2725H35V19.7271Z" fill="white"/>
        <path d="M35 22.2725H32.4546V24.8179H35V22.2725Z" fill="#49CE58"/>
        <path d="M35 24.8179H32.4546V27.3633H35V24.8179Z" fill="#E6E6E6"/>
        <path d="M35 27.3638H32.4546V29.9092H35V27.3638Z" fill="#49CE58"/>
        <path d="M35 29.9092H32.4546V32.4546H35V29.9092Z" fill="#49CE58"/>
        <path d="M35 32.4546H32.4546V35H35V32.4546Z" fill="#49CE58"/>
        <path d="M35 35H32.4546V37.5455H35V35Z" fill="#49CE58"/>
        <path d="M35 37.5454H32.4546V40.0909H35V37.5454Z" fill="#49CE58"/>
        <path d="M35 40.0908H32.4546V42.6363H35V40.0908Z" fill="#49CE58"/>
        <path d="M35 42.6362H32.4546V45.1817H35V42.6362Z" fill="white"/>
        <path d="M35 45.1816H32.4546V47.7271H35V45.1816Z" fill="white"/>
        <path d="M37.5455 19.7271H35V22.2725H37.5455V19.7271Z" fill="white"/>
        <path d="M37.5455 22.2725H35V24.8179H37.5455V22.2725Z" fill="white"/>
        <path d="M37.5455 24.8179H35V27.3633H37.5455V24.8179Z" fill="#E6E6E6"/>
        <path d="M37.5455 27.3638H35V29.9092H37.5455V27.3638Z" fill="white"/>
        <path d="M37.5455 29.9092H35V32.4546H37.5455V29.9092Z" fill="white"/>
        <path d="M37.5455 32.4546H35V35H37.5455V32.4546Z" fill="white"/>
        <path d="M37.5455 35H35V37.5455H37.5455V35Z" fill="white"/>
        <path d="M37.5455 37.5454H35V40.0909H37.5455V37.5454Z" fill="white"/>
        <path d="M37.5455 40.0908H35V42.6363H37.5455V40.0908Z" fill="white"/>
        <path d="M37.5455 42.6362H35V45.1817H37.5455V42.6362Z" fill="white"/>
        <path d="M37.5455 45.1816H35V47.7271H37.5455V45.1816Z" fill="white"/>
        <path d="M12.0909 47.7271H9.54541V50.2725H12.0909V47.7271Z" fill="#CCCCCC"/>
        <path d="M14.6363 47.7271H12.0908V50.2725H14.6363V47.7271Z" fill="#CCCCCC"/>
        <path d="M17.1817 47.7271H14.6362V50.2725H17.1817V47.7271Z" fill="#CCCCCC"/>
        <path d="M19.7276 47.7271H17.1821V50.2725H19.7276V47.7271Z" fill="#CCCCCC"/>
        <path d="M22.273 47.7271H19.7275V50.2725H22.273V47.7271Z" fill="#CCCCCC"/>
        <path d="M24.8184 47.7271H22.2729V50.2725H24.8184V47.7271Z" fill="#CCCCCC"/>
        <path d="M27.3638 47.7271H24.8184V50.2725H27.3638V47.7271Z" fill="#CCCCCC"/>
        <path d="M29.9092 47.7271H27.3638V50.2725H29.9092V47.7271Z" fill="#CCCCCC"/>
        <path d="M32.4546 47.7271H29.9092V50.2725H32.4546V47.7271Z" fill="#CCCCCC"/>
        <path d="M35 47.7271H32.4546V50.2725H35V47.7271Z" fill="#CCCCCC"/>
        <path d="M37.5455 47.7271H35V50.2725H37.5455V47.7271Z" fill="#CCCCCC"/>
        <path d="M40.0909 47.7271H37.5454V50.2725H40.0909V47.7271Z" fill="#CCCCCC"/>
        <path d="M62.9999 47.7271H40.0908V50.2725H62.9999V47.7271Z" fill="#CCCCCC"/>
        <path d="M42.6363 45.1816H40.0908V47.7271H42.6363V45.1816Z" fill="#E6E6E6"/>
        <path d="M42.6363 42.6362H40.0908V45.1817H42.6363V42.6362Z" fill="white"/>
        <path d="M42.6363 40.0908H40.0908V42.6363H42.6363V40.0908Z" fill="white"/>
        <path d="M42.6363 37.5454H40.0908V40.0909H42.6363V37.5454Z" fill="white"/>
        <path d="M42.6363 35H40.0908V37.5455H42.6363V35Z" fill="white"/>
        <path d="M42.6363 32.4546H40.0908V35H42.6363V32.4546Z" fill="white"/>
        <path d="M42.6363 29.9092H40.0908V32.4546H42.6363V29.9092Z" fill="white"/>
        <path d="M42.6363 27.3638H40.0908V29.9092H42.6363V27.3638Z" fill="#49CE58"/>
        <path d="M42.6363 24.8179H40.0908V27.3633H42.6363V24.8179Z" fill="white"/>
        <path d="M42.6363 22.2725H40.0908V24.8179H42.6363V22.2725Z" fill="white"/>
        <path d="M42.6363 19.7271H40.0908V22.2725H42.6363V19.7271Z" fill="white"/>
        <path d="M45.1817 45.1816H42.6362V47.7271H45.1817V45.1816Z" fill="#E6E6E6"/>
        <path d="M45.1817 42.6362H42.6362V45.1817H45.1817V42.6362Z" fill="white"/>
        <path d="M45.1817 40.0908H42.6362V42.6363H45.1817V40.0908Z" fill="white"/>
        <path d="M45.1817 37.5454H42.6362V40.0909H45.1817V37.5454Z" fill="white"/>
        <path d="M45.1817 35H42.6362V37.5455H45.1817V35Z" fill="white"/>
        <path d="M45.1817 32.4546H42.6362V35H45.1817V32.4546Z" fill="white"/>
        <path d="M45.1817 29.9092H42.6362V32.4546H45.1817V29.9092Z" fill="#49CE58"/>
        <path d="M45.1817 27.3638H42.6362V29.9092H45.1817V27.3638Z" fill="white"/>
        <path d="M45.1817 24.8179H42.6362V27.3633H45.1817V24.8179Z" fill="white"/>
        <path d="M45.1817 22.2725H42.6362V24.8179H45.1817V22.2725Z" fill="white"/>
        <path d="M45.1817 19.7271H42.6362V22.2725H45.1817V19.7271Z" fill="white"/>
        <path d="M47.7276 45.1816H45.1821V47.7271H47.7276V45.1816Z" fill="#E6E6E6"/>
        <path d="M47.7276 42.6362H45.1821V45.1817H47.7276V42.6362Z" fill="#49CE58"/>
        <path d="M47.7276 40.0908H45.1821V42.6363H47.7276V40.0908Z" fill="#49CE58"/>
        <path d="M47.7276 37.5454H45.1821V40.0909H47.7276V37.5454Z" fill="#49CE58"/>
        <path d="M47.7276 35H45.1821V37.5455H47.7276V35Z" fill="#49CE58"/>
        <path d="M47.7276 32.4546H45.1821V35H47.7276V32.4546Z" fill="#49CE58"/>
        <path d="M47.7276 29.9092H45.1821V32.4546H47.7276V29.9092Z" fill="#49CE58"/>
        <path d="M47.7276 27.3638H45.1821V29.9092H47.7276V27.3638Z" fill="#49CE58"/>
        <path d="M47.7276 24.8179H45.1821V27.3633H47.7276V24.8179Z" fill="#49CE58"/>
        <path d="M47.7276 22.2725H45.1821V24.8179H47.7276V22.2725Z" fill="#49CE58"/>
        <path d="M47.7276 19.7271H45.1821V22.2725H47.7276V19.7271Z" fill="#49CE58"/>
        <path d="M50.273 45.1816H47.7275V47.7271H50.273V45.1816Z" fill="#E6E6E6"/>
        <path d="M50.273 42.6362H47.7275V45.1817H50.273V42.6362Z" fill="white"/>
        <path d="M50.273 40.0908H47.7275V42.6363H50.273V40.0908Z" fill="white"/>
        <path d="M50.273 37.5454H47.7275V40.0909H50.273V37.5454Z" fill="white"/>
        <path d="M50.273 35H47.7275V37.5455H50.273V35Z" fill="white"/>
        <path d="M50.273 32.4546H47.7275V35H50.273V32.4546Z" fill="white"/>
        <path d="M50.273 29.9092H47.7275V32.4546H50.273V29.9092Z" fill="white"/>
        <path d="M50.273 27.3638H47.7275V29.9092H50.273V27.3638Z" fill="white"/>
        <path d="M50.273 24.8179H47.7275V27.3633H50.273V24.8179Z" fill="white"/>
        <path d="M50.273 22.2725H47.7275V24.8179H50.273V22.2725Z" fill="white"/>
        <path d="M50.273 19.7271H47.7275V22.2725H50.273V19.7271Z" fill="white"/>
        <path d="M52.8184 45.1816H50.2729V47.7271H52.8184V45.1816Z" fill="#E6E6E6"/>
        <path d="M52.8184 42.6362H50.2729V45.1817H52.8184V42.6362Z" fill="#49CE58"/>
        <path d="M52.8184 40.0908H50.2729V42.6363H52.8184V40.0908Z" fill="#49CE58"/>
        <path d="M52.8184 37.5454H50.2729V40.0909H52.8184V37.5454Z" fill="#49CE58"/>
        <path d="M52.8184 35H50.2729V37.5455H52.8184V35Z" fill="#49CE58"/>
        <path d="M52.8184 32.4546H50.2729V35H52.8184V32.4546Z" fill="#49CE58"/>
        <path d="M52.8184 29.9092H50.2729V32.4546H52.8184V29.9092Z" fill="#49CE58"/>
        <path d="M52.8184 27.3638H50.2729V29.9092H52.8184V27.3638Z" fill="#49CE58"/>
        <path d="M52.8184 24.8179H50.2729V27.3633H52.8184V24.8179Z" fill="#49CE58"/>
        <path d="M52.8184 22.2725H50.2729V24.8179H52.8184V22.2725Z" fill="#49CE58"/>
        <path d="M52.8184 19.7271H50.2729V22.2725H52.8184V19.7271Z" fill="#49CE58"/>
        <path d="M55.3638 45.1816H52.8184V47.7271H55.3638V45.1816Z" fill="#E6E6E6"/>
        <path d="M55.3638 42.6362H52.8184V45.1817H55.3638V42.6362Z" fill="#49CE58"/>
        <path d="M55.3638 40.0908H52.8184V42.6363H55.3638V40.0908Z" fill="white"/>
        <path d="M55.3638 37.5454H52.8184V40.0909H55.3638V37.5454Z" fill="white"/>
        <path d="M55.3638 35H52.8184V37.5455H55.3638V35Z" fill="white"/>
        <path d="M55.3638 32.4546H52.8184V35H55.3638V32.4546Z" fill="white"/>
        <path d="M55.3638 29.9092H52.8184V32.4546H55.3638V29.9092Z" fill="#49CE58"/>
        <path d="M55.3638 27.3638H52.8184V29.9092H55.3638V27.3638Z" fill="white"/>
        <path d="M55.3638 24.8179H52.8184V27.3633H55.3638V24.8179Z" fill="white"/>
        <path d="M55.3638 22.2725H52.8184V24.8179H55.3638V22.2725Z" fill="white"/>
        <path d="M55.3638 19.7271H52.8184V22.2725H55.3638V19.7271Z" fill="#49CE58"/>
        <path d="M57.9092 45.1816H55.3638V47.7271H57.9092V45.1816Z" fill="#E6E6E6"/>
        <path d="M57.9092 42.6362H55.3638V45.1817H57.9092V42.6362Z" fill="#49CE58"/>
        <path d="M57.9092 40.0908H55.3638V42.6363H57.9092V40.0908Z" fill="white"/>
        <path d="M57.9092 37.5454H55.3638V40.0909H57.9092V37.5454Z" fill="white"/>
        <path d="M57.9092 35H55.3638V37.5455H57.9092V35Z" fill="white"/>
        <path d="M57.9092 32.4546H55.3638V35H57.9092V32.4546Z" fill="white"/>
        <path d="M57.9092 29.9092H55.3638V32.4546H57.9092V29.9092Z" fill="#49CE58"/>
        <path d="M57.9092 27.3638H55.3638V29.9092H57.9092V27.3638Z" fill="white"/>
        <path d="M57.9092 24.8179H55.3638V27.3633H57.9092V24.8179Z" fill="white"/>
        <path d="M57.9092 22.2725H55.3638V24.8179H57.9092V22.2725Z" fill="white"/>
        <path d="M57.9092 19.7271H55.3638V22.2725H57.9092V19.7271Z" fill="#49CE58"/>
        <path d="M60.4546 45.1816H57.9092V47.7271H60.4546V45.1816Z" fill="#E6E6E6"/>
        <path d="M60.4546 42.6362H57.9092V45.1817H60.4546V42.6362Z" fill="white"/>
        <path d="M60.4546 40.0908H57.9092V42.6363H60.4546V40.0908Z" fill="white"/>
        <path d="M60.4546 37.5454H57.9092V40.0909H60.4546V37.5454Z" fill="white"/>
        <path d="M60.4546 35H57.9092V37.5455H60.4546V35Z" fill="white"/>
        <path d="M60.4546 32.4546H57.9092V35H60.4546V32.4546Z" fill="white"/>
        <path d="M60.4546 29.9092H57.9092V32.4546H60.4546V29.9092Z" fill="white"/>
        <path d="M60.4546 27.3638H57.9092V29.9092H60.4546V27.3638Z" fill="white"/>
        <path d="M60.4546 24.8179H57.9092V27.3633H60.4546V24.8179Z" fill="white"/>
        <path d="M60.4546 22.2725H57.9092V24.8179H60.4546V22.2725Z" fill="white"/>
        <path d="M60.4546 19.7271H57.9092V22.2725H60.4546V19.7271Z" fill="white"/>
        <path d="M63 45.1816H60.4546V47.7271H63V45.1816Z" fill="#E6E6E6"/>
        <path d="M63 42.6362H60.4546V45.1817H63V42.6362Z" fill="white"/>
        <path d="M63 40.0908H60.4546V42.6363H63V40.0908Z" fill="white"/>
        <path d="M63 37.5454H60.4546V40.0909H63V37.5454Z" fill="white"/>
        <path d="M63 35H60.4546V37.5455H63V35Z" fill="white"/>
        <path d="M63 32.4546H60.4546V35H63V32.4546Z" fill="white"/>
        <path d="M63 29.9092H60.4546V32.4546H63V29.9092Z" fill="white"/>
        <path d="M63 27.3638H60.4546V29.9092H63V27.3638Z" fill="white"/>
        <path d="M63 24.8179H60.4546V27.3633H63V24.8179Z" fill="white"/>
        <path d="M63 22.2725H60.4546V24.8179H63V22.2725Z" fill="white"/>
        <path d="M63 19.7271H60.4546V22.2725H63V19.7271Z" fill="white"/>
        <path d="M40.0909 19.7271H37.5454V22.2725H40.0909V19.7271Z" fill="#49CE58"/>
        <path d="M40.0909 22.2725H37.5454V24.8179H40.0909V22.2725Z" fill="#49CE58"/>
        <path d="M40.0909 24.8179H37.5454V27.3633H40.0909V24.8179Z" fill="#49CE58"/>
        <path d="M37.5455 24.8179H35V27.3633H37.5455V24.8179Z" fill="white"/>
        <path d="M35 24.8179H32.4546V27.3633H35V24.8179Z" fill="#49CE58"/>
        <path d="M40.0909 27.3638H37.5454V29.9092H40.0909V27.3638Z" fill="#49CE58"/>
        <path d="M40.0909 29.9092H37.5454V32.4546H40.0909V29.9092Z" fill="#49CE58"/>
        <path d="M40.0909 32.4546H37.5454V35H40.0909V32.4546Z" fill="#49CE58"/>
        <path d="M40.0909 35H37.5454V37.5455H40.0909V35Z" fill="#49CE58"/>
        <path d="M40.0909 37.5454H37.5454V40.0909H40.0909V37.5454Z" fill="#49CE58"/>
        <path d="M40.0909 40.0908H37.5454V42.6363H40.0909V40.0908Z" fill="#49CE58"/>
        <path d="M40.0909 42.6362H37.5454V45.1817H40.0909V42.6362Z" fill="#49CE58"/>
        <path d="M40.0909 45.1807H37.5454V47.7261H40.0909V45.1807Z" fill="#E6E6E6"/>
        <path d="M9.54545 50.2725H7V52.8179H9.54545V50.2725Z" fill="white"/>
        <path d="M9.54545 52.8179H7V55.3633H9.54545V52.8179Z" fill="white"/>
        <path d="M65.5455 55.3638H63V57.9092H65.5455V55.3638Z" fill="white"/>
        <path d="M68.0909 55.3638H65.5454V57.9092H68.0909V55.3638Z" fill="white"/>
        <path d="M63 55.3638H60.4546V57.9092H63V55.3638Z" fill="white"/>
        <path d="M68.0909 52.8179H65.5454V55.3633H68.0909V52.8179Z" fill="white"/>
        <path d="M68.0909 50.2739H65.5454V52.8194H68.0909V50.2739Z" fill="white"/>
        <path d="M65.5455 50.2725H63V52.8179H65.5455V50.2725Z" fill="white"/>
        <path d="M65.5455 17.1816H63V19.7271H65.5455V17.1816Z" fill="white"/>
        <path d="M63 14.6362H60.4546V17.1817H63V14.6362Z" fill="white"/>
        <path d="M60.4545 12.0908H9.54541V14.6363H60.4545V12.0908Z" fill="white"/>
        <path d="M68.0909 19.7271H65.5454V50.2725H68.0909V19.7271Z" fill="white"/>
        <path d="M63 52.8179H9.54541V55.3633H63V52.8179Z" fill="white"/>
        <path d="M7.00004 47.7271H4.45459V50.2725H7.00004V47.7271Z" fill="white"/>
        <path d="M7.00004 50.2739H4.45459V52.8194H7.00004V50.2739Z" fill="white"/>
        <path d="M4.45463 47.7271H1.90918V50.2725H4.45463V47.7271Z" fill="white"/>
        <path d="M7.00004 17.1816H4.45459V19.7271H7.00004V17.1816Z" fill="white"/>
        <path d="M4.45463 19.7271H1.90918V47.7271H4.45463V19.7271Z" fill="white"/>
        <path d="M63 17.1816H60.4546V19.7271H63V17.1816Z" fill="black"/>
        <path d="M9.54545 47.7271H7V50.2725H9.54545V47.7271Z" fill="black"/>
        <path d="M62.9999 50.2725H40.0908V52.8179H62.9999V50.2725Z" fill="black"/>
        <path d="M65.5455 52.8179H63V55.3633H65.5455V52.8179Z" fill="black"/>
        <path d="M40.0909 50.2725H9.54541V52.8179H40.0909V50.2725Z" fill="black"/>
        <path d="M7.00004 19.7271H4.45459V47.7271H7.00004V19.7271Z" fill="black"/>
        <path d="M65.5455 19.7271H63V50.2725H65.5455V19.7271Z" fill="black"/>
        <path d="M60.4545 14.6362H9.54541V17.1817H60.4545V14.6362Z" fill="black"/>
        <path d="M29.9078 42.6362H27.3623V45.1817H29.9078V42.6362Z" fill="#49CE58"/>
    </g>
    <defs>
        <clipPath id="clip0_2000_21591">
            <rect width="66.1818" height="45.8182" fill="white" transform="translate(1.90918 12.0908)"/>
        </clipPath>
    </defs>
</svg>
