<svg width="50" height="50" viewBox="0 0 50 50" fill="none" xmlns="http://www.w3.org/2000/svg">
    <path d="M11.8292 8.6665H9.5528V10.9998H11.8292V8.6665Z" fill="black"/>
    <path d="M39.146 8.6665H36.8696V10.9998H39.146V8.6665Z" fill="#BB891A"/>
    <path d="M11.8292 20.333H9.5528V22.6663H11.8292V20.333Z" fill="white"/>
    <path d="M9.55283 39H7.27643V41.3333H9.55283V39Z" fill="white"/>
    <path d="M7.2764 39H5V41.3333H7.2764V39Z" fill="white"/>
    <path d="M9.55283 41.333H7.27643V43.6663H9.55283V41.333Z" fill="white"/>
    <path d="M11.8292 43.6665H9.5528V45.9998H11.8292V43.6665Z" fill="white"/>
    <path d="M41.4223 43.6665H39.1459V45.9998H41.4223V43.6665Z" fill="white"/>
    <path d="M43.6988 41.333H41.4224V43.6663H43.6988V41.333Z" fill="white"/>
    <path d="M45.9752 39H43.6988V41.3333H45.9752V39Z" fill="white"/>
    <path d="M9.55283 8.6665H7.27643V10.9998H9.55283V8.6665Z" fill="white"/>
    <path d="M11.8292 6.33301H9.5528V8.66632H11.8292V6.33301Z" fill="white"/>
    <path d="M41.4223 6.33301H39.1459V8.66632H41.4223V6.33301Z" fill="white"/>
    <path d="M43.6988 8.6665H41.4224V10.9998H43.6988V8.6665Z" fill="white"/>
    <path d="M39.146 4H11.8292V6.33331H39.146V4Z" fill="white"/>
    <path d="M11.8292 41.333H9.5528V43.6663H11.8292V41.333Z" fill="white"/>
    <path d="M41.4223 41.333H39.1459V43.6663H41.4223V41.333Z" fill="white"/>
    <path d="M43.6988 39H41.4224V41.3333H43.6988V39Z" fill="white"/>
    <path d="M45.9752 10.9995H43.6988V38.9992H45.9752V10.9995Z" fill="white"/>
    <path d="M39.146 43.6665H11.8292V45.9998H39.146V43.6665Z" fill="white"/>
    <path d="M7.2764 10.9995H5V38.9992H7.2764V10.9995Z" fill="white"/>
    <path d="M11.8292 36.666H9.5528V38.9993H11.8292V36.666Z" fill="#BB891A"/>
    <path d="M39.146 36.666H11.8292V38.9993H39.146V36.666Z" fill="#EEB81D"/>
    <path d="M11.8292 18H9.5528V20.3333H11.8292V18Z" fill="#EEB81D"/>
    <path d="M11.8292 22.667H9.5528V36.6668H11.8292V22.667Z" fill="#EEB81D"/>
    <path d="M14.1056 13.3335H11.8292V36.6666H14.1056V13.3335Z" fill="#F0C915"/>
    <path d="M41.4223 10.9995H39.1459V38.9992H41.4223V10.9995Z" fill="#BB891A"/>
    <path d="M11.8292 13.3335H9.5528V18.0001H11.8292V13.3335Z" fill="white"/>
    <path d="M18.6584 8.6665H11.8292V10.9998H18.6584V8.6665Z" fill="white"/>
    <path d="M36.8696 8.6665H18.6584V10.9998H36.8696V8.6665Z" fill="#EEB81D"/>
    <path d="M39.146 39H11.8292V41.3333H39.146V39Z" fill="#BB891A"/>
    <path d="M14.1056 10.9995H9.5528V13.3328H14.1056V10.9995Z" fill="white"/>
    <path d="M41.4223 8.6665H39.1459V10.9998H41.4223V8.6665Z" fill="black"/>
    <path d="M39.146 10.9995H14.1057V36.6659H39.146V10.9995Z" fill="#F0C915"/>
    <path d="M11.8292 39H9.5528V41.3333H11.8292V39Z" fill="black"/>
    <path d="M41.4223 39H39.1459V41.3333H41.4223V39Z" fill="black"/>
    <path d="M39.146 6.33301H11.8292V8.66632H39.146V6.33301Z" fill="black"/>
    <path d="M39.146 41.333H11.8292V43.6663H39.146V41.333Z" fill="black"/>
    <path d="M9.55283 10.9995H7.27643V38.9992H9.55283V10.9995Z" fill="black"/>
    <path d="M43.6988 10.9995H41.4224V38.9992H43.6988V10.9995Z" fill="black"/>
    <path d="M14.1056 18H11.8292V20.3333H14.1056V18Z" fill="black"/>
    <path d="M20.9348 20.333H14.1057V22.6663H20.9348V20.333Z" fill="black"/>
    <path d="M14.1056 15.6665H11.8292V17.9998H14.1056V15.6665Z" fill="black"/>
    <path d="M16.3821 13.3335H14.1057V15.6668H16.3821V13.3335Z" fill="black"/>
    <path d="M32.2963 13.3335H16.382V18.0001H32.2963V13.3335Z" fill="white"/>
    <path d="M20.9348 15.6665H14.1057V20.3331H20.9348V15.6665Z" fill="white"/>
    <path d="M27.7639 22.667H20.9348V27.3336H27.7639V22.667Z" fill="white"/>
    <path d="M27.7639 29.6665H20.9348V34.3331H27.7639V29.6665Z" fill="white"/>
    <path d="M34.5932 15.6665H27.764V22.6664H34.5932V15.6665Z" fill="white"/>
    <path d="M32.2963 10.9995H16.382V13.3328H32.2963V10.9995Z" fill="black"/>
    <path d="M36.8696 15.6665H34.5932V22.6664H36.8696V15.6665Z" fill="black"/>
    <path d="M34.5727 13.3335H32.2963V15.6668H34.5727V13.3335Z" fill="black"/>
    <path d="M20.9348 22.667H18.6584V25.0003H20.9348V22.667Z" fill="black"/>
    <path d="M23.2112 18H20.9348V20.3333H23.2112V18Z" fill="black"/>
    <path d="M25.4876 18H23.2112V20.3333H25.4876V18Z" fill="black"/>
    <path d="M27.764 18H25.4876V20.3333H27.764V18Z" fill="black"/>
    <path d="M27.7639 20.333H20.9348V22.6663H27.7639V20.333Z" fill="black"/>
    <path d="M20.9348 25H18.6584V27.3333H20.9348V25Z" fill="black"/>
    <path d="M23.2112 27.3325H20.9348V29.6658H23.2112V27.3325Z" fill="black"/>
    <path d="M20.9348 29.6665H18.6584V31.9998H20.9348V29.6665Z" fill="black"/>
    <path d="M20.9348 31.9995H18.6584V34.3328H20.9348V31.9995Z" fill="black"/>
    <path d="M23.2112 34.333H20.9348V36.6663H23.2112V34.333Z" fill="black"/>
    <path d="M25.4876 34.333H23.2112V36.6663H25.4876V34.333Z" fill="black"/>
    <path d="M27.764 34.333H25.4876V36.6663H27.764V34.333Z" fill="black"/>
    <path d="M30.0404 29.6665H27.764V31.9998H30.0404V29.6665Z" fill="black"/>
    <path d="M30.0404 31.9995H27.764V34.3328H30.0404V31.9995Z" fill="black"/>
    <path d="M25.4876 27.3325H23.2112V29.6658H25.4876V27.3325Z" fill="black"/>
    <path d="M27.764 27.3325H25.4876V29.6658H27.764V27.3325Z" fill="black"/>
    <path d="M30.0404 25H27.764V27.3333H30.0404V25Z" fill="black"/>
    <path d="M32.3168 25H30.0404V27.3333H32.3168V25Z" fill="black"/>
    <path d="M34.5932 22.667H32.3168V25.0003H34.5932V22.667Z" fill="black"/>
    <path d="M32.3168 22.667H27.764V25.0003H32.3168V22.667Z" fill="white"/>
</svg>
