<svg width="50" height="50" viewBox="0 0 50 50" fill="none" xmlns="http://www.w3.org/2000/svg">
    <path d="M6.33333 10.666H4V38.6646H6.33333V10.666Z" fill="white"/>
    <path d="M46 10.666H43.6667V38.6646H46V10.666Z" fill="white"/>
    <path d="M8.66665 8.3335H6.33331V10.6667H8.66665V8.3335Z" fill="white"/>
    <path d="M8.66665 38.665H6.33331V40.9983H8.66665V38.665Z" fill="white"/>
    <path d="M43.6667 8.3335H41.3333V10.6667H43.6667V8.3335Z" fill="white"/>
    <path d="M43.6667 38.665H41.3333V40.9983H43.6667V38.665Z" fill="white"/>
    <path d="M27.3333 8.3335H22.6667V10.6667H27.3333V8.3335Z" fill="white"/>
    <path d="M27.3333 38.665H22.6667V40.9983H27.3333V38.665Z" fill="white"/>
    <path d="M22.6667 6H8.66666V8.33321H22.6667V6Z" fill="white"/>
    <path d="M41.3333 6H27.3333V8.33321H41.3333V6Z" fill="white"/>
    <path d="M22.6667 40.998H8.66666V43.3313H22.6667V40.998Z" fill="white"/>
    <path d="M41.3333 40.998H27.3333V43.3313H41.3333V40.998Z" fill="white"/>
    <path d="M20.3333 12.9995H11V36.3316H20.3333V12.9995Z" fill="white"/>
    <path d="M39 12.9995H29.6667V36.3316H39V12.9995Z" fill="white"/>
    <path d="M11 10.666H8.66666V12.9992H11V10.666Z" fill="#EEB81D"/>
    <path d="M11 12.9995H8.66666V15.3327H11V12.9995Z" fill="#BB891A"/>
    <path d="M13.3333 10.666H11V12.9992H13.3333V10.666Z" fill="#F0C915"/>
    <path d="M20.3333 17.666H13.3333V19.9992H20.3333V17.666Z" fill="#808080"/>
    <path d="M18 22.3325H13.3333V24.6657H18V22.3325Z" fill="#808080"/>
    <path d="M20.3333 26.999H13.3333V29.3322H20.3333V26.999Z" fill="#808080"/>
    <path d="M36.6667 17.666H29.6667V19.9992H36.6667V17.666Z" fill="#808080"/>
    <path d="M34.3333 22.3325H29.6667V24.6657H34.3333V22.3325Z" fill="#808080"/>
    <path d="M36.6667 26.999H29.6667V29.3322H36.6667V26.999Z" fill="#808080"/>
    <path d="M22.6667 10.666H13.3333V12.9992H22.6667V10.666Z" fill="#39A84A"/>
    <path d="M41.3333 10.666H39V12.9992H41.3333V10.666Z" fill="#EEB81D"/>
    <path d="M41.3333 12.9995H39V15.3327H41.3333V12.9995Z" fill="#BB891A"/>
    <path d="M41.3333 15.333H39V33.9987H41.3333V15.333Z" fill="#39A84A"/>
    <path d="M11 15.333H8.66666V33.9987H11V15.333Z" fill="#39A84A"/>
    <path d="M39 10.666H36.6667V12.9992H39V10.666Z" fill="#F0C915"/>
    <path d="M36.6667 10.666H27.3333V12.9992H36.6667V10.666Z" fill="#39A84A"/>
    <path d="M22.6667 36.332H13.3333V38.6652H22.6667V36.332Z" fill="#39A84A"/>
    <path d="M36.6667 36.332H27.3333V38.6652H36.6667V36.332Z" fill="#39A84A"/>
    <path d="M11 36.332H8.66666V38.6652H11V36.332Z" fill="#EEB81D"/>
    <path d="M13.3333 36.332H11V38.6652H13.3333V36.332Z" fill="#F0C915"/>
    <path d="M11 33.9985H8.66666V36.3317H11V33.9985Z" fill="#BB891A"/>
    <path d="M41.3333 36.332H39V38.6652H41.3333V36.332Z" fill="#EEB81D"/>
    <path d="M39 36.332H36.6667V38.6652H39V36.332Z" fill="#F0C915"/>
    <path d="M41.3333 33.9985H39V36.3317H41.3333V33.9985Z" fill="#BB891A"/>
    <path d="M27.3333 10.666H22.6667V12.9992H27.3333V10.666Z" fill="black"/>
    <path d="M27.3333 36.332H22.6667V38.6652H27.3333V36.332Z" fill="black"/>
    <path d="M25 15.333H22.6667V33.9987H25V15.333Z" fill="#E6E6E6"/>
    <path d="M22.6667 15.333H20.3333V33.9987H22.6667V15.333Z" fill="white"/>
    <path d="M29.6667 15.333H27.3333V33.9987H29.6667V15.333Z" fill="white"/>
    <path d="M27.3333 15.333H25V33.9987H27.3333V15.333Z" fill="#F2F2F2"/>
    <path d="M22.6667 8.3335H8.66666V10.6667H22.6667V8.3335Z" fill="black"/>
    <path d="M41.3333 8.3335H27.3333V10.6667H41.3333V8.3335Z" fill="black"/>
    <path d="M22.6667 38.665H8.66666V40.9983H22.6667V38.665Z" fill="black"/>
    <path d="M41.3333 38.665H27.3333V40.9983H41.3333V38.665Z" fill="black"/>
    <path d="M8.66665 10.666H6.33331V38.6646H8.66665V10.666Z" fill="black"/>
    <path d="M43.6667 10.666H41.3333V38.6646H43.6667V10.666Z" fill="black"/>
    <path d="M29.6667 12.9995H20.3333V15.3327H29.6667V12.9995Z" fill="#39A84A"/>
    <path d="M29.6667 33.9985H20.3333V36.3317H29.6667V33.9985Z" fill="#39A84A"/>
</svg>
