<svg width="50" height="50" viewBox="0 0 50 50" fill="none" xmlns="http://www.w3.org/2000/svg">
    <path d="M8.66668 22.6665H6.33334V38.9998H8.66668V22.6665Z" fill="white"/>
    <path d="M6.33333 39H4V43.6667H6.33333V39Z" fill="white"/>
    <path d="M6.33333 20.3335H4V22.6668H6.33333V20.3335Z" fill="white"/>
    <path d="M6.33333 22.6665H4V24.9998H6.33333V22.6665Z" fill="white"/>
    <path d="M6.33333 43.6665H4V45.9998H6.33333V43.6665Z" fill="white"/>
    <path d="M46 43.6665H43.6667V45.9998H46V43.6665Z" fill="white"/>
    <path d="M46 36.6665H43.6667V38.9998H46V36.6665Z" fill="white"/>
    <path d="M6.33333 36.6665H4V38.9998H6.33333V36.6665Z" fill="white"/>
    <path d="M46 22.6665H43.6667V24.9998H46V22.6665Z" fill="white"/>
    <path d="M8.66668 18H6.33334V20.3333H8.66668V18Z" fill="white"/>
    <path d="M11 15.6665H8.66666V17.9998H11V15.6665Z" fill="white"/>
    <path d="M13.3333 13.3335H11V15.6668H13.3333V13.3335Z" fill="white"/>
    <path d="M15.6667 11H13.3333V13.3333H15.6667V11Z" fill="white"/>
    <path d="M18 8.6665H15.6667V10.9998H18V8.6665Z" fill="white"/>
    <path d="M20.3333 6.3335H18V8.66683H20.3333V6.3335Z" fill="white"/>
    <path d="M32 6.3335H29.6667V8.66683H32V6.3335Z" fill="white"/>
    <path d="M34.3333 8.6665H32V10.9998H34.3333V8.6665Z" fill="white"/>
    <path d="M36.6667 11H34.3333V13.3333H36.6667V11Z" fill="white"/>
    <path d="M39 13.3335H36.6667V15.6668H39V13.3335Z" fill="white"/>
    <path d="M41.3333 15.6665H39V17.9998H41.3333V15.6665Z" fill="white"/>
    <path d="M43.6667 18H41.3333V20.3333H43.6667V18Z" fill="white"/>
    <path d="M46 20.3335H43.6667V22.6668H46V20.3335Z" fill="white"/>
    <path d="M43.6667 43.6665H6.33334V45.9998H43.6667V43.6665Z" fill="white"/>
    <path d="M46 39H43.6667V43.6667H46V39Z" fill="white"/>
    <path d="M43.6667 22.6665H41.3333V38.9998H43.6667V22.6665Z" fill="white"/>
    <path d="M29.6667 4H20.3333V6.33333H29.6667V4Z" fill="white"/>
    <path d="M11 22.6665H8.66666V24.9998H11V22.6665Z" fill="black"/>
    <path d="M41.3333 22.6665H39V24.9998H41.3333V22.6665Z" fill="black"/>
    <path d="M11 25H8.66666V36.6667H11V25Z" fill="black"/>
    <path d="M41.3333 25H39V36.6667H41.3333V25Z" fill="black"/>
    <path d="M8.66668 39H6.33334V41.3333H8.66668V39Z" fill="black"/>
    <path d="M43.6667 39H41.3333V41.3333H43.6667V39Z" fill="black"/>
    <path d="M39 15.6665H36.6667V17.9998H39V15.6665Z" fill="black"/>
    <path d="M36.6667 13.3335H34.3333V15.6668H36.6667V13.3335Z" fill="black"/>
    <path d="M34.3333 11H32V13.3333H34.3333V11Z" fill="black"/>
    <path d="M32 8.6665H29.6667V10.9998H32V8.6665Z" fill="black"/>
    <path d="M29.6667 6.3335H20.3333V8.66683H29.6667V6.3335Z" fill="black"/>
    <path d="M13.3333 15.6665H11V17.9998H13.3333V15.6665Z" fill="black"/>
    <path d="M15.6667 13.3335H13.3333V15.6668H15.6667V13.3335Z" fill="black"/>
    <path d="M18 11H15.6667V13.3333H18V11Z" fill="black"/>
    <path d="M20.3333 8.6665H18V10.9998H20.3333V8.6665Z" fill="black"/>
    <path d="M41.3333 20.3335H15.6667V22.6668H41.3333V20.3335Z" fill="#D95C17"/>
    <path d="M36.6667 15.6665H20.3333V17.9998H36.6667V15.6665Z" fill="#D95C17"/>
    <path d="M34.3333 13.3335H22.6667V15.6668H34.3333V13.3335Z" fill="#D95C17"/>
    <path d="M32 11H25V13.3333H32V11Z" fill="#D95C17"/>
    <path d="M29.6667 8.6665H27.3333V10.9998H29.6667V8.6665Z" fill="#D95C17"/>
    <path d="M43.6667 20.3335H41.3333V22.6668H43.6667V20.3335Z" fill="black"/>
    <path d="M8.66668 20.3335H6.33334V22.6668H8.66668V20.3335Z" fill="black"/>
    <path d="M11 18H8.66666V20.3333H11V18Z" fill="black"/>
    <path d="M41.3333 18H39V20.3333H41.3333V18Z" fill="black"/>
    <path d="M39 18H18V20.3333H39V18Z" fill="#D95C17"/>
    <path d="M18 22.6665H11V36.6665H18V22.6665Z" fill="#D98100"/>
    <path d="M11 36.6665H8.66666V38.9998H11V36.6665Z" fill="black"/>
    <path d="M41.3333 36.6665H39V38.9998H41.3333V36.6665Z" fill="black"/>
    <path d="M39 36.6665H11V38.9998H39V36.6665Z" fill="#B3B3B3"/>
    <path d="M39 22.6665H18V36.6665H39V22.6665Z" fill="#FFA219"/>
    <path d="M43.6667 41.3335H6.33334V43.6668H43.6667V41.3335Z" fill="black"/>
    <path d="M41.3333 39H8.66666V41.3333H41.3333V39Z" fill="#808080"/>
    <path d="M39 22.6665H36.6667V36.6665H39V22.6665Z" fill="#FFBF66"/>
    <path d="M41.3333 20.3335H39V22.6668H41.3333V20.3335Z" fill="#FF8000"/>
    <path d="M39 18H36.6667V20.3333H39V18Z" fill="#FF8000"/>
    <path d="M36.6667 15.6665H34.3333V17.9998H36.6667V15.6665Z" fill="#FF8000"/>
    <path d="M34.3333 13.3335H32V15.6668H34.3333V13.3335Z" fill="#FF8000"/>
    <path d="M32 11H29.6667V13.3333H32V11Z" fill="#FF8000"/>
    <path d="M29.6667 8.6665H27.3333V10.9998H29.6667V8.6665Z" fill="#FF8000"/>
    <path d="M18 20.3335H8.66666V22.6668H18V20.3335Z" fill="#BF4400"/>
    <path d="M22.6667 15.6665H13.3333V17.9998H22.6667V15.6665Z" fill="#BF4400"/>
    <path d="M25 13.3335H15.6667V15.6668H25V13.3335Z" fill="#BF4400"/>
    <path d="M27.3333 11H18V13.3333H27.3333V11Z" fill="#BF4400"/>
    <path d="M29.6667 8.6665H20.3333V10.9998H29.6667V8.6665Z" fill="#BF4400"/>
    <path d="M20.3333 18H11V20.3333H20.3333V18Z" fill="#BF4400"/>
    <path d="M32 27.3335H25V36.6668H32V27.3335Z" fill="#D95C17"/>
    <path d="M15.6667 27.3335H13.3333V34.3335H15.6667V27.3335Z" fill="#BF4400"/>
    <path d="M27.3333 27.3335H25V36.6668H27.3333V27.3335Z" fill="#BF4400"/>
</svg>
