<svg width="50" height="50" viewBox="0 0 50 50" fill="none" xmlns="http://www.w3.org/2000/svg">
    <path d="M14.5009 6.36377H12.3984V8.46624H14.5009V6.36377Z" fill="white"/>
    <path d="M16.602 6.36377H14.4995V8.46624H16.602V6.36377Z" fill="white"/>
    <path d="M18.7056 6.36377H16.603V8.46624H18.7056V6.36377Z" fill="white"/>
    <path d="M20.807 6.36377H18.7046V8.46624H20.807V6.36377Z" fill="white"/>
    <path d="M22.8979 6.36377H20.7954V8.46624H22.8979V6.36377Z" fill="white"/>
    <path d="M25.0004 6.36377H22.8979V8.46624H25.0004V6.36377Z" fill="white"/>
    <path d="M27.103 6.36377H25.0005V8.46624H27.103V6.36377Z" fill="white"/>
    <path d="M29.2045 6.36377H27.1021V8.46624H29.2045V6.36377Z" fill="white"/>
    <path d="M31.3081 6.36377H29.2056V8.46624H31.3081V6.36377Z" fill="white"/>
    <path d="M33.3978 6.36377H31.2954V8.46624H33.3978V6.36377Z" fill="white"/>
    <path d="M35.5 6.36377H33.3975V8.46624H35.5V6.36377Z" fill="white"/>
    <path d="M37.6024 6.36377H35.5V8.46624H37.6024V6.36377Z" fill="white"/>
    <path d="M12.3974 8.46631H10.2949V10.5688H12.3974V8.46631Z" fill="white"/>
    <path d="M14.5009 8.46631H12.3984V10.5688H14.5009V8.46631Z" fill="black"/>
    <path d="M16.602 8.46631H14.4995V10.5688H16.602V8.46631Z" fill="black"/>
    <path d="M18.7056 8.46631H16.603V10.5688H18.7056V8.46631Z" fill="black"/>
    <path d="M20.807 8.46631H18.7046V10.5688H20.807V8.46631Z" fill="black"/>
    <path d="M22.8979 8.46631H20.7954V10.5688H22.8979V8.46631Z" fill="black"/>
    <path d="M25.0004 8.46631H22.8979V10.5688H25.0004V8.46631Z" fill="black"/>
    <path d="M27.103 8.46631H25.0005V10.5688H27.103V8.46631Z" fill="black"/>
    <path d="M29.2045 8.46631H27.1021V10.5688H29.2045V8.46631Z" fill="black"/>
    <path d="M31.3081 8.46631H29.2056V10.5688H31.3081V8.46631Z" fill="black"/>
    <path d="M33.3978 8.46631H31.2954V10.5688H33.3978V8.46631Z" fill="black"/>
    <path d="M35.5 8.46631H33.3975V10.5688H35.5V8.46631Z" fill="black"/>
    <path d="M37.6024 8.46631H35.5V10.5688H37.6024V8.46631Z" fill="black"/>
    <path d="M39.7051 8.46631H37.6025V10.5688H39.7051V8.46631Z" fill="white"/>
    <path d="M10.3075 10.5688H8.20508V12.6713H10.3075V10.5688Z" fill="white"/>
    <path d="M12.3974 10.5688H10.2949V12.6713H12.3974V10.5688Z" fill="black"/>
    <path d="M14.5009 10.5688H12.3984V12.6713H14.5009V10.5688Z" fill="#E3E3E3"/>
    <path d="M16.602 10.5688H14.4995V12.6713H16.602V10.5688Z" fill="#E3E3E3"/>
    <path d="M18.7056 10.5688H16.603V12.6713H18.7056V10.5688Z" fill="white"/>
    <path d="M20.807 10.5688H18.7046V12.6713H20.807V10.5688Z" fill="white"/>
    <path d="M22.8979 10.5688H20.7954V12.6713H22.8979V10.5688Z" fill="#E3E3E3"/>
    <path d="M25.0004 10.5688H22.8979V12.6713H25.0004V10.5688Z" fill="white"/>
    <path d="M27.103 10.5688H25.0005V12.6713H27.103V10.5688Z" fill="white"/>
    <path d="M29.2045 10.5688H27.1021V12.6713H29.2045V10.5688Z" fill="white"/>
    <path d="M31.3081 10.5688H29.2056V12.6713H31.3081V10.5688Z" fill="white"/>
    <path d="M33.3978 10.5688H31.2954V12.6713H33.3978V10.5688Z" fill="#E3E3E3"/>
    <path d="M35.5 10.5688H33.3975V12.6713H35.5V10.5688Z" fill="#E3E3E3"/>
    <path d="M37.6024 10.5688H35.5V12.6713H37.6024V10.5688Z" fill="white"/>
    <path d="M39.7051 10.5688H37.6025V12.6713H39.7051V10.5688Z" fill="white"/>
    <path d="M41.8075 10.5688H39.7051V12.6713H41.8075V10.5688Z" fill="white"/>
    <path d="M8.20594 12.6597H6.10352V14.7621H8.20594V12.6597Z" fill="white"/>
    <path d="M10.3075 12.6597H8.20508V14.7621H10.3075V12.6597Z" fill="black"/>
    <path d="M12.3974 12.6597H10.2949V14.7621H12.3974V12.6597Z" fill="#8C8C8C"/>
    <path d="M14.5009 12.6597H12.3984V14.7621H14.5009V12.6597Z" fill="#E3E3E3"/>
    <path d="M16.602 12.6597H14.4995V14.7621H16.602V12.6597Z" fill="#E3E3E3"/>
    <path d="M18.7056 12.6597H16.603V14.7621H18.7056V12.6597Z" fill="#E3E3E3"/>
    <path d="M20.807 12.6597H18.7046V14.7621H20.807V12.6597Z" fill="#E3E3E3"/>
    <path d="M22.8979 12.6597H20.7954V14.7621H22.8979V12.6597Z" fill="#E3E3E3"/>
    <path d="M25.0004 12.6597H22.8979V14.7621H25.0004V12.6597Z" fill="#E3E3E3"/>
    <path d="M27.103 12.6597H25.0005V14.7621H27.103V12.6597Z" fill="#E3E3E3"/>
    <path d="M29.2045 12.6597H27.1021V14.7621H29.2045V12.6597Z" fill="#E3E3E3"/>
    <path d="M31.3081 12.6597H29.2056V14.7621H31.3081V12.6597Z" fill="#E3E3E3"/>
    <path d="M33.3978 12.6597H31.2954V14.7621H33.3978V12.6597Z" fill="#E3E3E3"/>
    <path d="M35.5 12.6597H33.3975V14.7621H35.5V12.6597Z" fill="#E3E3E3"/>
    <path d="M37.6024 12.6597H35.5V14.7621H37.6024V12.6597Z" fill="#E3E3E3"/>
    <path d="M39.7051 12.6597H37.6025V14.7621H39.7051V12.6597Z" fill="#E3E3E3"/>
    <path d="M41.8075 12.6597H39.7051V14.7621H41.8075V12.6597Z" fill="black"/>
    <path d="M43.8974 12.6597H41.7949V14.7621H43.8974V12.6597Z" fill="white"/>
    <path d="M8.20594 14.7612H6.10352V16.8637H8.20594V14.7612Z" fill="white"/>
    <path d="M10.3075 14.7612H8.20508V16.8637H10.3075V14.7612Z" fill="black"/>
    <path d="M12.3974 14.7612H10.2949V16.8637H12.3974V14.7612Z" fill="#8C8C8C"/>
    <path d="M14.5009 14.7612H12.3984V16.8637H14.5009V14.7612Z" fill="#E3E3E3"/>
    <path d="M16.602 14.7612H14.4995V16.8637H16.602V14.7612Z" fill="black"/>
    <path d="M18.7056 14.7612H16.603V16.8637H18.7056V14.7612Z" fill="black"/>
    <path d="M20.807 14.7612H18.7046V16.8637H20.807V14.7612Z" fill="#E3E3E3"/>
    <path d="M22.8979 14.7612H20.7954V16.8637H22.8979V14.7612Z" fill="#E3E3E3"/>
    <path d="M25.0004 14.7612H22.8979V16.8637H25.0004V14.7612Z" fill="black"/>
    <path d="M27.103 14.7612H25.0005V16.8637H27.103V14.7612Z" fill="black"/>
    <path d="M29.2045 14.7612H27.1021V16.8637H29.2045V14.7612Z" fill="black"/>
    <path d="M31.3081 14.7612H29.2056V16.8637H31.3081V14.7612Z" fill="#E3E3E3"/>
    <path d="M33.3978 14.7612H31.2954V16.8637H33.3978V14.7612Z" fill="#E3E3E3"/>
    <path d="M35.5 14.7612H33.3975V16.8637H35.5V14.7612Z" fill="black"/>
    <path d="M37.6024 14.7612H35.5V16.8637H37.6024V14.7612Z" fill="black"/>
    <path d="M39.7051 14.7612H37.6025V16.8637H39.7051V14.7612Z" fill="#E3E3E3"/>
    <path d="M41.8075 14.7612H39.7051V16.8637H41.8075V14.7612Z" fill="black"/>
    <path d="M43.8974 14.7612H41.7949V16.8637H43.8974V14.7612Z" fill="white"/>
    <path d="M8.20594 16.8633H6.10352V18.9657H8.20594V16.8633Z" fill="white"/>
    <path d="M10.3075 16.8633H8.20508V18.9657H10.3075V16.8633Z" fill="black"/>
    <path d="M12.3974 16.8633H10.2949V18.9657H12.3974V16.8633Z" fill="#8C8C8C"/>
    <path d="M14.5009 16.8633H12.3984V18.9657H14.5009V16.8633Z" fill="#E3E3E3"/>
    <path d="M16.602 16.8633H14.4995V18.9657H16.602V16.8633Z" fill="black"/>
    <path d="M18.7056 16.8633H16.603V18.9657H18.7056V16.8633Z" fill="#E3E3E3"/>
    <path d="M20.807 16.8633H18.7046V18.9657H20.807V16.8633Z" fill="#E3E3E3"/>
    <path d="M22.8979 16.8633H20.7954V18.9657H22.8979V16.8633Z" fill="black"/>
    <path d="M25.0004 16.8633H22.8979V18.9657H25.0004V16.8633Z" fill="#E3E3E3"/>
    <path d="M27.103 16.8633H25.0005V18.9657H27.103V16.8633Z" fill="#E3E3E3"/>
    <path d="M29.2045 16.8633H27.1021V18.9657H29.2045V16.8633Z" fill="#E3E3E3"/>
    <path d="M31.3081 16.8633H29.2056V18.9657H31.3081V16.8633Z" fill="black"/>
    <path d="M33.3978 16.8633H31.2954V18.9657H33.3978V16.8633Z" fill="#E3E3E3"/>
    <path d="M35.5 16.8633H33.3975V18.9657H35.5V16.8633Z" fill="#E3E3E3"/>
    <path d="M37.6024 16.8633H35.5V18.9657H37.6024V16.8633Z" fill="black"/>
    <path d="M39.7051 16.8633H37.6025V18.9657H39.7051V16.8633Z" fill="#E3E3E3"/>
    <path d="M41.8075 16.8633H39.7051V18.9657H41.8075V16.8633Z" fill="black"/>
    <path d="M43.8974 16.8633H41.7949V18.9657H43.8974V16.8633Z" fill="white"/>
    <path d="M8.20594 18.9658H6.10352V21.0683H8.20594V18.9658Z" fill="white"/>
    <path d="M10.3075 18.9658H8.20508V21.0683H10.3075V18.9658Z" fill="black"/>
    <path d="M12.3974 18.9658H10.2949V21.0683H12.3974V18.9658Z" fill="#8C8C8C"/>
    <path d="M14.5009 18.9658H12.3984V21.0683H14.5009V18.9658Z" fill="#E3E3E3"/>
    <path d="M16.602 18.9658H14.4995V21.0683H16.602V18.9658Z" fill="black"/>
    <path d="M18.7056 18.9658H16.603V21.0683H18.7056V18.9658Z" fill="#E3E3E3"/>
    <path d="M20.807 18.9658H18.7046V21.0683H20.807V18.9658Z" fill="#E3E3E3"/>
    <path d="M22.8979 18.9658H20.7954V21.0683H22.8979V18.9658Z" fill="black"/>
    <path d="M25.0004 18.9658H22.8979V21.0683H25.0004V18.9658Z" fill="#E3E3E3"/>
    <path d="M27.103 18.9658H25.0005V21.0683H27.103V18.9658Z" fill="#E3E3E3"/>
    <path d="M29.2045 18.9658H27.1021V21.0683H29.2045V18.9658Z" fill="#E3E3E3"/>
    <path d="M31.3081 18.9658H29.2056V21.0683H31.3081V18.9658Z" fill="black"/>
    <path d="M33.3978 18.9658H31.2954V21.0683H33.3978V18.9658Z" fill="#E3E3E3"/>
    <path d="M35.5 18.9658H33.3975V21.0683H35.5V18.9658Z" fill="#E3E3E3"/>
    <path d="M37.6024 18.9658H35.5V21.0683H37.6024V18.9658Z" fill="black"/>
    <path d="M39.7051 18.9658H37.6025V21.0683H39.7051V18.9658Z" fill="#E3E3E3"/>
    <path d="M41.8075 18.9658H39.7051V21.0683H41.8075V18.9658Z" fill="black"/>
    <path d="M43.8974 18.9658H41.7949V21.0683H43.8974V18.9658Z" fill="white"/>
    <path d="M8.20594 21.0684H6.10352V23.1708H8.20594V21.0684Z" fill="white"/>
    <path d="M10.3075 21.0684H8.20508V23.1708H10.3075V21.0684Z" fill="black"/>
    <path d="M12.3974 21.0684H10.2949V23.1708H12.3974V21.0684Z" fill="#8C8C8C"/>
    <path d="M14.5009 21.0684H12.3984V23.1708H14.5009V21.0684Z" fill="#E3E3E3"/>
    <path d="M16.602 21.0684H14.4995V23.1708H16.602V21.0684Z" fill="black"/>
    <path d="M18.7056 21.0684H16.603V23.1708H18.7056V21.0684Z" fill="#E3E3E3"/>
    <path d="M20.807 21.0684H18.7046V23.1708H20.807V21.0684Z" fill="#E3E3E3"/>
    <path d="M22.8979 21.0684H20.7954V23.1708H22.8979V21.0684Z" fill="black"/>
    <path d="M25.0004 21.0684H22.8979V23.1708H25.0004V21.0684Z" fill="#E3E3E3"/>
    <path d="M27.103 21.0684H25.0005V23.1708H27.103V21.0684Z" fill="#E3E3E3"/>
    <path d="M29.2045 21.0684H27.1021V23.1708H29.2045V21.0684Z" fill="#E3E3E3"/>
    <path d="M31.3081 21.0684H29.2056V23.1708H31.3081V21.0684Z" fill="black"/>
    <path d="M33.3978 21.0684H31.2954V23.1708H33.3978V21.0684Z" fill="#E3E3E3"/>
    <path d="M35.5 21.0684H33.3975V23.1708H35.5V21.0684Z" fill="#E3E3E3"/>
    <path d="M37.6024 21.0684H35.5V23.1708H37.6024V21.0684Z" fill="black"/>
    <path d="M39.7051 21.0684H37.6025V23.1708H39.7051V21.0684Z" fill="#E3E3E3"/>
    <path d="M41.8075 21.0684H39.7051V23.1708H41.8075V21.0684Z" fill="black"/>
    <path d="M43.8974 21.0684H41.7949V23.1708H43.8974V21.0684Z" fill="white"/>
    <path d="M8.20594 23.1582H6.10352V25.2607H8.20594V23.1582Z" fill="white"/>
    <path d="M10.3075 23.1582H8.20508V25.2607H10.3075V23.1582Z" fill="black"/>
    <path d="M12.3974 23.1582H10.2949V25.2607H12.3974V23.1582Z" fill="#8C8C8C"/>
    <path d="M14.5009 23.1582H12.3984V25.2607H14.5009V23.1582Z" fill="#E3E3E3"/>
    <path d="M16.602 23.1582H14.4995V25.2607H16.602V23.1582Z" fill="black"/>
    <path d="M18.7056 23.1582H16.603V25.2607H18.7056V23.1582Z" fill="#E3E3E3"/>
    <path d="M20.807 23.1582H18.7046V25.2607H20.807V23.1582Z" fill="#E3E3E3"/>
    <path d="M22.8979 23.1582H20.7954V25.2607H22.8979V23.1582Z" fill="black"/>
    <path d="M25.0004 23.1582H22.8979V25.2607H25.0004V23.1582Z" fill="#E3E3E3"/>
    <path d="M27.103 23.1582H25.0005V25.2607H27.103V23.1582Z" fill="#E3E3E3"/>
    <path d="M29.2045 23.1582H27.1021V25.2607H29.2045V23.1582Z" fill="#E3E3E3"/>
    <path d="M31.3081 23.1582H29.2056V25.2607H31.3081V23.1582Z" fill="black"/>
    <path d="M33.3978 23.1582H31.2954V25.2607H33.3978V23.1582Z" fill="#E3E3E3"/>
    <path d="M35.5 23.1582H33.3975V25.2607H35.5V23.1582Z" fill="#E3E3E3"/>
    <path d="M37.6024 23.1582H35.5V25.2607H37.6024V23.1582Z" fill="black"/>
    <path d="M39.7051 23.1582H37.6025V25.2607H39.7051V23.1582Z" fill="#E3E3E3"/>
    <path d="M41.8075 23.1582H39.7051V25.2607H41.8075V23.1582Z" fill="black"/>
    <path d="M43.8974 23.1582H41.7949V25.2607H43.8974V23.1582Z" fill="white"/>
    <path d="M8.20594 25.2607H6.10352V27.3632H8.20594V25.2607Z" fill="white"/>
    <path d="M10.3075 25.2607H8.20508V27.3632H10.3075V25.2607Z" fill="black"/>
    <path d="M12.3974 25.2607H10.2949V27.3632H12.3974V25.2607Z" fill="#8C8C8C"/>
    <path d="M14.5009 25.2607H12.3984V27.3632H14.5009V25.2607Z" fill="#E3E3E3"/>
    <path d="M16.602 25.2607H14.4995V27.3632H16.602V25.2607Z" fill="black"/>
    <path d="M18.7056 25.2607H16.603V27.3632H18.7056V25.2607Z" fill="#E3E3E3"/>
    <path d="M20.807 25.2607H18.7046V27.3632H20.807V25.2607Z" fill="#E3E3E3"/>
    <path d="M22.8979 25.2607H20.7954V27.3632H22.8979V25.2607Z" fill="black"/>
    <path d="M25.0004 25.2607H22.8979V27.3632H25.0004V25.2607Z" fill="#E3E3E3"/>
    <path d="M27.103 25.2607H25.0005V27.3632H27.103V25.2607Z" fill="#E3E3E3"/>
    <path d="M29.2045 25.2607H27.1021V27.3632H29.2045V25.2607Z" fill="#E3E3E3"/>
    <path d="M31.3081 25.2607H29.2056V27.3632H31.3081V25.2607Z" fill="black"/>
    <path d="M33.3978 25.2607H31.2954V27.3632H33.3978V25.2607Z" fill="#E3E3E3"/>
    <path d="M35.5 25.2607H33.3975V27.3632H35.5V25.2607Z" fill="#E3E3E3"/>
    <path d="M37.6024 25.2607H35.5V27.3632H37.6024V25.2607Z" fill="black"/>
    <path d="M39.7051 25.2607H37.6025V27.3632H39.7051V25.2607Z" fill="#E3E3E3"/>
    <path d="M41.8075 25.2607H39.7051V27.3632H41.8075V25.2607Z" fill="black"/>
    <path d="M43.8974 25.2607H41.7949V27.3632H43.8974V25.2607Z" fill="white"/>
    <path d="M8.20594 27.3633H6.10352V29.4658H8.20594V27.3633Z" fill="white"/>
    <path d="M10.3075 27.3633H8.20508V29.4658H10.3075V27.3633Z" fill="black"/>
    <path d="M12.3974 27.3633H10.2949V29.4658H12.3974V27.3633Z" fill="#8C8C8C"/>
    <path d="M14.5009 27.3633H12.3984V29.4658H14.5009V27.3633Z" fill="#E3E3E3"/>
    <path d="M16.602 27.3633H14.4995V29.4658H16.602V27.3633Z" fill="black"/>
    <path d="M18.7056 27.3633H16.603V29.4658H18.7056V27.3633Z" fill="#E3E3E3"/>
    <path d="M20.807 27.3633H18.7046V29.4658H20.807V27.3633Z" fill="#E3E3E3"/>
    <path d="M22.8979 27.3633H20.7954V29.4658H22.8979V27.3633Z" fill="#E3E3E3"/>
    <path d="M25.0004 27.3633H22.8979V29.4658H25.0004V27.3633Z" fill="black"/>
    <path d="M27.103 27.3633H25.0005V29.4658H27.103V27.3633Z" fill="black"/>
    <path d="M29.2045 27.3633H27.1021V29.4658H29.2045V27.3633Z" fill="black"/>
    <path d="M31.3081 27.3633H29.2056V29.4658H31.3081V27.3633Z" fill="#E3E3E3"/>
    <path d="M33.3978 27.3633H31.2954V29.4658H33.3978V27.3633Z" fill="#E3E3E3"/>
    <path d="M35.5 27.3633H33.3975V29.4658H35.5V27.3633Z" fill="#E3E3E3"/>
    <path d="M37.6024 27.3633H35.5V29.4658H37.6024V27.3633Z" fill="black"/>
    <path d="M39.7051 27.3633H37.6025V29.4658H39.7051V27.3633Z" fill="#E3E3E3"/>
    <path d="M41.8075 27.3633H39.7051V29.4658H41.8075V27.3633Z" fill="black"/>
    <path d="M43.8974 27.3633H41.7949V29.4658H43.8974V27.3633Z" fill="white"/>
    <path d="M8.20594 29.4658H6.10352V31.5683H8.20594V29.4658Z" fill="white"/>
    <path d="M10.3075 29.4658H8.20508V31.5683H10.3075V29.4658Z" fill="black"/>
    <path d="M12.3974 29.4658H10.2949V31.5683H12.3974V29.4658Z" fill="#8C8C8C"/>
    <path d="M14.5009 29.4658H12.3984V31.5683H14.5009V29.4658Z" fill="#E3E3E3"/>
    <path d="M16.602 29.4658H14.4995V31.5683H16.602V29.4658Z" fill="black"/>
    <path d="M18.7056 29.4658H16.603V31.5683H18.7056V29.4658Z" fill="black"/>
    <path d="M20.807 29.4658H18.7046V31.5683H20.807V29.4658Z" fill="#E3E3E3"/>
    <path d="M22.8979 29.4658H20.7954V31.5683H22.8979V29.4658Z" fill="#E3E3E3"/>
    <path d="M25.0004 29.4658H22.8979V31.5683H25.0004V29.4658Z" fill="#E3E3E3"/>
    <path d="M27.103 29.4658H25.0005V31.5683H27.103V29.4658Z" fill="#E3E3E3"/>
    <path d="M29.2045 29.4658H27.1021V31.5683H29.2045V29.4658Z" fill="#E3E3E3"/>
    <path d="M31.3081 29.4658H29.2056V31.5683H31.3081V29.4658Z" fill="black"/>
    <path d="M33.3978 29.4658H31.2954V31.5683H33.3978V29.4658Z" fill="#E3E3E3"/>
    <path d="M35.5 29.4658H33.3975V31.5683H35.5V29.4658Z" fill="black"/>
    <path d="M37.6024 29.4658H35.5V31.5683H37.6024V29.4658Z" fill="black"/>
    <path d="M39.7051 29.4658H37.6025V31.5683H39.7051V29.4658Z" fill="#E3E3E3"/>
    <path d="M41.8075 29.4658H39.7051V31.5683H41.8075V29.4658Z" fill="black"/>
    <path d="M43.8974 29.4658H41.7949V31.5683H43.8974V29.4658Z" fill="white"/>
    <path d="M8.20594 31.5679H6.10352V33.6703H8.20594V31.5679Z" fill="white"/>
    <path d="M10.3075 31.5679H8.20508V33.6703H10.3075V31.5679Z" fill="black"/>
    <path d="M12.3974 31.5679H10.2949V33.6703H12.3974V31.5679Z" fill="#8C8C8C"/>
    <path d="M14.5009 31.5679H12.3984V33.6703H14.5009V31.5679Z" fill="#E3E3E3"/>
    <path d="M16.602 31.5679H14.4995V33.6703H16.602V31.5679Z" fill="#E3E3E3"/>
    <path d="M18.7056 31.5679H16.603V33.6703H18.7056V31.5679Z" fill="#E3E3E3"/>
    <path d="M20.807 31.5679H18.7046V33.6703H20.807V31.5679Z" fill="#E3E3E3"/>
    <path d="M22.8979 31.5679H20.7954V33.6703H22.8979V31.5679Z" fill="#E3E3E3"/>
    <path d="M25.0004 31.5679H22.8979V33.6703H25.0004V31.5679Z" fill="#E3E3E3"/>
    <path d="M27.103 31.5679H25.0005V33.6703H27.103V31.5679Z" fill="#E3E3E3"/>
    <path d="M29.2045 31.5679H27.1021V33.6703H29.2045V31.5679Z" fill="#E3E3E3"/>
    <path d="M31.3081 31.5679H29.2056V33.6703H31.3081V31.5679Z" fill="#E3E3E3"/>
    <path d="M33.3978 31.5679H31.2954V33.6703H33.3978V31.5679Z" fill="#E3E3E3"/>
    <path d="M35.5 31.5679H33.3975V33.6703H35.5V31.5679Z" fill="#E3E3E3"/>
    <path d="M37.6024 31.5679H35.5V33.6703H37.6024V31.5679Z" fill="#E3E3E3"/>
    <path d="M39.7051 31.5679H37.6025V33.6703H39.7051V31.5679Z" fill="#D9D9D9"/>
    <path d="M41.8075 31.5679H39.7051V33.6703H41.8075V31.5679Z" fill="black"/>
    <path d="M43.8974 31.5679H41.7949V33.6703H43.8974V31.5679Z" fill="white"/>
    <path d="M8.20594 33.6592H6.10352V35.7616H8.20594V33.6592Z" fill="white"/>
    <path d="M10.3075 33.6592H8.20508V35.7616H10.3075V33.6592Z" fill="black"/>
    <path d="M12.3974 33.6592H10.2949V35.7616H12.3974V33.6592Z" fill="#8C8C8C"/>
    <path d="M14.5009 33.6592H12.3984V35.7616H14.5009V33.6592Z" fill="white"/>
    <path d="M16.602 33.6592H14.4995V35.7616H16.602V33.6592Z" fill="white"/>
    <path d="M18.7056 33.6592H16.603V35.7616H18.7056V33.6592Z" fill="white"/>
    <path d="M20.807 33.6592H18.7046V35.7616H20.807V33.6592Z" fill="white"/>
    <path d="M22.8979 33.6592H20.7954V35.7616H22.8979V33.6592Z" fill="white"/>
    <path d="M25.0004 33.6592H22.8979V35.7616H25.0004V33.6592Z" fill="white"/>
    <path d="M27.103 33.6592H25.0005V35.7616H27.103V33.6592Z" fill="white"/>
    <path d="M29.2045 33.6592H27.1021V35.7616H29.2045V33.6592Z" fill="white"/>
    <path d="M31.3081 33.6592H29.2056V35.7616H31.3081V33.6592Z" fill="white"/>
    <path d="M33.3978 33.6592H31.2954V35.7616H33.3978V33.6592Z" fill="white"/>
    <path d="M35.5 33.6592H33.3975V35.7616H35.5V33.6592Z" fill="white"/>
    <path d="M37.6024 33.6592H35.5V35.7616H37.6024V33.6592Z" fill="white"/>
    <path d="M39.7051 33.6592H37.6025V35.7616H39.7051V33.6592Z" fill="white"/>
    <path d="M41.8075 33.6592H39.7051V35.7616H41.8075V33.6592Z" fill="black"/>
    <path d="M43.8974 33.6592H41.7949V35.7616H43.8974V33.6592Z" fill="white"/>
    <path d="M8.20594 35.7603H6.10352V37.8627H8.20594V35.7603Z" fill="white"/>
    <path d="M10.3075 35.7603H8.20508V37.8627H10.3075V35.7603Z" fill="black"/>
    <path d="M12.3974 35.7603H10.2949V37.8627H12.3974V35.7603Z" fill="#8C8C8C"/>
    <path d="M14.5009 35.7603H12.3984V37.8627H14.5009V35.7603Z" fill="#808080"/>
    <path d="M16.602 35.7603H14.4995V37.8627H16.602V35.7603Z" fill="#808080"/>
    <path d="M18.7056 35.7603H16.603V37.8627H18.7056V35.7603Z" fill="#808080"/>
    <path d="M20.807 35.7603H18.7046V37.8627H20.807V35.7603Z" fill="#808080"/>
    <path d="M22.8979 35.7603H20.7954V37.8627H22.8979V35.7603Z" fill="#808080"/>
    <path d="M25.0004 35.7603H22.8979V37.8627H25.0004V35.7603Z" fill="#808080"/>
    <path d="M27.103 35.7603H25.0005V37.8627H27.103V35.7603Z" fill="#808080"/>
    <path d="M29.2045 35.7603H27.1021V37.8627H29.2045V35.7603Z" fill="#808080"/>
    <path d="M31.3081 35.7603H29.2056V37.8627H31.3081V35.7603Z" fill="#808080"/>
    <path d="M33.3978 35.7603H31.2954V37.8627H33.3978V35.7603Z" fill="#808080"/>
    <path d="M35.5 35.7603H33.3975V37.8627H35.5V35.7603Z" fill="#808080"/>
    <path d="M37.6024 35.7603H35.5V37.8627H37.6024V35.7603Z" fill="#808080"/>
    <path d="M39.7051 35.7603H37.6025V37.8627H39.7051V35.7603Z" fill="#8C8C8C"/>
    <path d="M41.8075 35.7603H39.7051V37.8627H41.8075V35.7603Z" fill="black"/>
    <path d="M43.8974 35.7603H41.7949V37.8627H43.8974V35.7603Z" fill="white"/>
    <path d="M8.20594 37.8628H6.10352V39.9653H8.20594V37.8628Z" fill="white"/>
    <path d="M10.3075 37.8628H8.20508V39.9653H10.3075V37.8628Z" fill="white"/>
    <path d="M12.3974 37.8628H10.2949V39.9653H12.3974V37.8628Z" fill="black"/>
    <path d="M14.5009 37.8628H12.3984V39.9653H14.5009V37.8628Z" fill="#8C8C8C"/>
    <path d="M16.602 37.8628H14.4995V39.9653H16.602V37.8628Z" fill="#8C8C8C"/>
    <path d="M18.7056 37.8628H16.603V39.9653H18.7056V37.8628Z" fill="#8C8C8C"/>
    <path d="M20.807 37.8628H18.7046V39.9653H20.807V37.8628Z" fill="#8C8C8C"/>
    <path d="M22.8979 37.8628H20.7954V39.9653H22.8979V37.8628Z" fill="#8C8C8C"/>
    <path d="M25.0004 37.8628H22.8979V39.9653H25.0004V37.8628Z" fill="#8C8C8C"/>
    <path d="M27.103 37.8628H25.0005V39.9653H27.103V37.8628Z" fill="#8C8C8C"/>
    <path d="M29.2045 37.8628H27.1021V39.9653H29.2045V37.8628Z" fill="#8C8C8C"/>
    <path d="M31.3081 37.8628H29.2056V39.9653H31.3081V37.8628Z" fill="#8C8C8C"/>
    <path d="M33.3978 37.8628H31.2954V39.9653H33.3978V37.8628Z" fill="#8C8C8C"/>
    <path d="M35.5 37.8628H33.3975V39.9653H35.5V37.8628Z" fill="#8C8C8C"/>
    <path d="M37.6024 37.8628H35.5V39.9653H37.6024V37.8628Z" fill="#8C8C8C"/>
    <path d="M39.7051 37.8628H37.6025V39.9653H39.7051V37.8628Z" fill="black"/>
    <path d="M41.8075 37.8628H39.7051V39.9653H41.8075V37.8628Z" fill="white"/>
    <path d="M43.8974 37.8628H41.7949V39.9653H43.8974V37.8628Z" fill="white"/>
    <path d="M10.3075 39.9653H8.20508V42.0678H10.3075V39.9653Z" fill="white"/>
    <path d="M12.3974 39.9653H10.2949V42.0678H12.3974V39.9653Z" fill="white"/>
    <path d="M14.5009 39.9653H12.3984V42.0678H14.5009V39.9653Z" fill="black"/>
    <path d="M16.602 39.9653H14.4995V42.0678H16.602V39.9653Z" fill="black"/>
    <path d="M18.7056 39.9653H16.603V42.0678H18.7056V39.9653Z" fill="black"/>
    <path d="M20.807 39.9653H18.7046V42.0678H20.807V39.9653Z" fill="black"/>
    <path d="M22.8979 39.9653H20.7954V42.0678H22.8979V39.9653Z" fill="black"/>
    <path d="M25.0004 39.9653H22.8979V42.0678H25.0004V39.9653Z" fill="black"/>
    <path d="M27.103 39.9653H25.0005V42.0678H27.103V39.9653Z" fill="black"/>
    <path d="M29.2045 39.9653H27.1021V42.0678H29.2045V39.9653Z" fill="black"/>
    <path d="M31.3081 39.9653H29.2056V42.0678H31.3081V39.9653Z" fill="black"/>
    <path d="M33.3978 39.9653H31.2954V42.0678H33.3978V39.9653Z" fill="black"/>
    <path d="M35.5 39.9653H33.3975V42.0678H35.5V39.9653Z" fill="black"/>
    <path d="M37.6024 39.9653H35.5V42.0678H37.6024V39.9653Z" fill="black"/>
    <path d="M39.7051 39.9653H37.6025V42.0678H39.7051V39.9653Z" fill="white"/>
    <path d="M41.8075 39.9653H39.7051V42.0678H41.8075V39.9653Z" fill="white"/>
    <path d="M12.3974 42.0679H10.2949V44.1703H12.3974V42.0679Z" fill="white"/>
    <path d="M14.5009 42.0679H12.3984V44.1703H14.5009V42.0679Z" fill="white"/>
    <path d="M12.3974 6.36377H10.2949V8.46624H12.3974V6.36377Z" fill="white"/>
    <path d="M10.3075 8.46631H8.20508V10.5688H10.3075V8.46631Z" fill="white"/>
    <path d="M12.3974 8.46631H10.2949V10.5688H12.3974V8.46631Z" fill="black"/>
    <path d="M8.20594 10.5688H6.10352V12.6713H8.20594V10.5688Z" fill="white"/>
    <path d="M10.3075 10.5688H8.20508V12.6713H10.3075V10.5688Z" fill="black"/>
    <path d="M12.3974 10.5688H10.2949V12.6713H12.3974V10.5688Z" fill="#8C8C8C"/>
    <path d="M6.10247 12.6597H4V14.7621H6.10247V12.6597Z" fill="white"/>
    <path d="M8.20594 12.6597H6.10352V14.7621H8.20594V12.6597Z" fill="black"/>
    <path d="M10.3075 12.6597H8.20508V14.7621H10.3075V12.6597Z" fill="#8C8C8C"/>
    <path d="M12.3974 12.6597H10.2949V14.7621H12.3974V12.6597Z" fill="#E3E3E3"/>
    <path d="M6.10247 14.7612H4V16.8637H6.10247V14.7612Z" fill="white"/>
    <path d="M8.20594 14.7612H6.10352V16.8637H8.20594V14.7612Z" fill="black"/>
    <path d="M10.3075 14.7612H8.20508V16.8637H10.3075V14.7612Z" fill="#8C8C8C"/>
    <path d="M12.3974 14.7612H10.2949V16.8637H12.3974V14.7612Z" fill="#E3E3E3"/>
    <path d="M6.10247 16.8633H4V18.9657H6.10247V16.8633Z" fill="white"/>
    <path d="M8.20594 16.8633H6.10352V18.9657H8.20594V16.8633Z" fill="black"/>
    <path d="M10.3075 16.8633H8.20508V18.9657H10.3075V16.8633Z" fill="#8C8C8C"/>
    <path d="M12.3974 16.8633H10.2949V18.9657H12.3974V16.8633Z" fill="#E3E3E3"/>
    <path d="M6.10247 18.9658H4V21.0683H6.10247V18.9658Z" fill="white"/>
    <path d="M8.20594 18.9658H6.10352V21.0683H8.20594V18.9658Z" fill="black"/>
    <path d="M10.3075 18.9658H8.20508V21.0683H10.3075V18.9658Z" fill="#8C8C8C"/>
    <path d="M12.3974 18.9658H10.2949V21.0683H12.3974V18.9658Z" fill="#E3E3E3"/>
    <path d="M6.10247 21.0684H4V23.1708H6.10247V21.0684Z" fill="white"/>
    <path d="M8.20594 21.0684H6.10352V23.1708H8.20594V21.0684Z" fill="black"/>
    <path d="M10.3075 21.0684H8.20508V23.1708H10.3075V21.0684Z" fill="#8C8C8C"/>
    <path d="M12.3974 21.0684H10.2949V23.1708H12.3974V21.0684Z" fill="#E3E3E3"/>
    <path d="M6.10247 23.1582H4V25.2607H6.10247V23.1582Z" fill="white"/>
    <path d="M8.20594 23.1582H6.10352V25.2607H8.20594V23.1582Z" fill="black"/>
    <path d="M10.3075 23.1582H8.20508V25.2607H10.3075V23.1582Z" fill="#8C8C8C"/>
    <path d="M12.3974 23.1582H10.2949V25.2607H12.3974V23.1582Z" fill="#E3E3E3"/>
    <path d="M6.10247 25.2607H4V27.3632H6.10247V25.2607Z" fill="white"/>
    <path d="M8.20594 25.2607H6.10352V27.3632H8.20594V25.2607Z" fill="black"/>
    <path d="M10.3075 25.2607H8.20508V27.3632H10.3075V25.2607Z" fill="#8C8C8C"/>
    <path d="M12.3974 25.2607H10.2949V27.3632H12.3974V25.2607Z" fill="#E3E3E3"/>
    <path d="M6.10247 27.3633H4V29.4658H6.10247V27.3633Z" fill="white"/>
    <path d="M8.20594 27.3633H6.10352V29.4658H8.20594V27.3633Z" fill="black"/>
    <path d="M10.3075 27.3633H8.20508V29.4658H10.3075V27.3633Z" fill="#8C8C8C"/>
    <path d="M12.3974 27.3633H10.2949V29.4658H12.3974V27.3633Z" fill="#E3E3E3"/>
    <path d="M6.10247 29.4658H4V31.5683H6.10247V29.4658Z" fill="white"/>
    <path d="M8.20594 29.4658H6.10352V31.5683H8.20594V29.4658Z" fill="black"/>
    <path d="M10.3075 29.4658H8.20508V31.5683H10.3075V29.4658Z" fill="#8C8C8C"/>
    <path d="M12.3974 29.4658H10.2949V31.5683H12.3974V29.4658Z" fill="#E3E3E3"/>
    <path d="M6.10247 31.5679H4V33.6703H6.10247V31.5679Z" fill="white"/>
    <path d="M8.20594 31.5679H6.10352V33.6703H8.20594V31.5679Z" fill="black"/>
    <path d="M10.3075 31.5679H8.20508V33.6703H10.3075V31.5679Z" fill="#8C8C8C"/>
    <path d="M12.3974 31.5679H10.2949V33.6703H12.3974V31.5679Z" fill="white"/>
    <path d="M6.10247 33.6592H4V35.7616H6.10247V33.6592Z" fill="white"/>
    <path d="M8.20594 33.6592H6.10352V35.7616H8.20594V33.6592Z" fill="black"/>
    <path d="M10.3075 33.6592H8.20508V35.7616H10.3075V33.6592Z" fill="#8C8C8C"/>
    <path d="M12.3974 33.6592H10.2949V35.7616H12.3974V33.6592Z" fill="#808080"/>
    <path d="M6.10247 35.7603H4V37.8627H6.10247V35.7603Z" fill="white"/>
    <path d="M8.20594 35.7603H6.10352V37.8627H8.20594V35.7603Z" fill="black"/>
    <path d="M10.3075 35.7603H8.20508V37.8627H10.3075V35.7603Z" fill="#8C8C8C"/>
    <path d="M12.3974 35.7603H10.2949V37.8627H12.3974V35.7603Z" fill="#8C8C8C"/>
    <path d="M6.10247 37.8628H4V39.9653H6.10247V37.8628Z" fill="white"/>
    <path d="M8.20594 37.8628H6.10352V39.9653H8.20594V37.8628Z" fill="white"/>
    <path d="M10.3075 37.8628H8.20508V39.9653H10.3075V37.8628Z" fill="black"/>
    <path d="M12.3974 37.8628H10.2949V39.9653H12.3974V37.8628Z" fill="#8C8C8C"/>
    <path d="M8.20594 39.9653H6.10352V42.0678H8.20594V39.9653Z" fill="white"/>
    <path d="M10.3075 39.9653H8.20508V42.0678H10.3075V39.9653Z" fill="white"/>
    <path d="M12.3974 39.9653H10.2949V42.0678H12.3974V39.9653Z" fill="black"/>
    <path d="M10.3075 42.0679H8.20508V44.1703H10.3075V42.0679Z" fill="white"/>
    <path d="M12.3974 42.0679H10.2949V44.1703H12.3974V42.0679Z" fill="white"/>
    <path d="M16.602 42.0679H14.4995V44.1703H16.602V42.0679Z" fill="white"/>
    <path d="M18.7056 42.0679H16.603V44.1703H18.7056V42.0679Z" fill="white"/>
    <path d="M20.807 42.0679H18.7046V44.1703H20.807V42.0679Z" fill="white"/>
    <path d="M22.8979 42.0679H20.7954V44.1703H22.8979V42.0679Z" fill="white"/>
    <path d="M25.0004 42.0679H22.8979V44.1703H25.0004V42.0679Z" fill="white"/>
    <path d="M27.103 42.0679H25.0005V44.1703H27.103V42.0679Z" fill="white"/>
    <path d="M29.2045 42.0679H27.1021V44.1703H29.2045V42.0679Z" fill="white"/>
    <path d="M31.3081 42.0679H29.2056V44.1703H31.3081V42.0679Z" fill="white"/>
    <path d="M33.3978 42.0679H31.2954V44.1703H33.3978V42.0679Z" fill="white"/>
    <path d="M35.5 42.0679H33.3975V44.1703H35.5V42.0679Z" fill="white"/>
    <path d="M37.6024 42.0679H35.5V44.1703H37.6024V42.0679Z" fill="white"/>
    <path d="M39.7051 42.0679H37.6025V44.1703H39.7051V42.0679Z" fill="white"/>
    <path d="M39.7051 6.36377H37.6025V8.46624H39.7051V6.36377Z" fill="white"/>
    <path d="M39.7051 8.46631H37.6025V10.5688H39.7051V8.46631Z" fill="black"/>
    <path d="M41.8075 8.46631H39.7051V10.5688H41.8075V8.46631Z" fill="white"/>
    <path d="M41.8075 10.5688H39.7051V12.6713H41.8075V10.5688Z" fill="black"/>
    <path d="M43.8974 10.5688H41.7949V12.6713H43.8974V10.5688Z" fill="white"/>
    <path d="M39.7051 12.6597H37.6025V14.7621H39.7051V12.6597Z" fill="#E3E3E3"/>
    <path d="M41.8075 12.6597H39.7051V14.7621H41.8075V12.6597Z" fill="#E3E3E3"/>
    <path d="M43.8974 12.6597H41.7949V14.7621H43.8974V12.6597Z" fill="black"/>
    <path d="M45.9999 12.6597H43.8975V14.7621H45.9999V12.6597Z" fill="white"/>
    <path d="M39.7051 14.7612H37.6025V16.8637H39.7051V14.7612Z" fill="#E3E3E3"/>
    <path d="M41.8075 14.7612H39.7051V16.8637H41.8075V14.7612Z" fill="#E3E3E3"/>
    <path d="M43.8974 14.7612H41.7949V16.8637H43.8974V14.7612Z" fill="black"/>
    <path d="M45.9999 14.7612H43.8975V16.8637H45.9999V14.7612Z" fill="white"/>
    <path d="M39.7051 16.8633H37.6025V18.9657H39.7051V16.8633Z" fill="#E3E3E3"/>
    <path d="M41.8075 16.8633H39.7051V18.9657H41.8075V16.8633Z" fill="#E3E3E3"/>
    <path d="M43.8974 16.8633H41.7949V18.9657H43.8974V16.8633Z" fill="black"/>
    <path d="M45.9999 16.8633H43.8975V18.9657H45.9999V16.8633Z" fill="white"/>
    <path d="M39.7051 18.9658H37.6025V21.0683H39.7051V18.9658Z" fill="#E3E3E3"/>
    <path d="M41.8075 18.9658H39.7051V21.0683H41.8075V18.9658Z" fill="#E3E3E3"/>
    <path d="M43.8974 18.9658H41.7949V21.0683H43.8974V18.9658Z" fill="black"/>
    <path d="M45.9999 18.9658H43.8975V21.0683H45.9999V18.9658Z" fill="white"/>
    <path d="M39.7051 21.0684H37.6025V23.1708H39.7051V21.0684Z" fill="#E3E3E3"/>
    <path d="M41.8075 21.0684H39.7051V23.1708H41.8075V21.0684Z" fill="#E3E3E3"/>
    <path d="M43.8974 21.0684H41.7949V23.1708H43.8974V21.0684Z" fill="black"/>
    <path d="M45.9999 21.0684H43.8975V23.1708H45.9999V21.0684Z" fill="white"/>
    <path d="M39.7051 23.1582H37.6025V25.2607H39.7051V23.1582Z" fill="#E3E3E3"/>
    <path d="M41.8075 23.1582H39.7051V25.2607H41.8075V23.1582Z" fill="#E3E3E3"/>
    <path d="M43.8974 23.1582H41.7949V25.2607H43.8974V23.1582Z" fill="black"/>
    <path d="M45.9999 23.1582H43.8975V25.2607H45.9999V23.1582Z" fill="white"/>
    <path d="M39.7051 25.2607H37.6025V27.3632H39.7051V25.2607Z" fill="#E3E3E3"/>
    <path d="M41.8075 25.2607H39.7051V27.3632H41.8075V25.2607Z" fill="#E3E3E3"/>
    <path d="M43.8974 25.2607H41.7949V27.3632H43.8974V25.2607Z" fill="black"/>
    <path d="M45.9999 25.2607H43.8975V27.3632H45.9999V25.2607Z" fill="white"/>
    <path d="M39.7051 27.3633H37.6025V29.4658H39.7051V27.3633Z" fill="#E3E3E3"/>
    <path d="M41.8075 27.3633H39.7051V29.4658H41.8075V27.3633Z" fill="#E3E3E3"/>
    <path d="M43.8974 27.3633H41.7949V29.4658H43.8974V27.3633Z" fill="black"/>
    <path d="M45.9999 27.3633H43.8975V29.4658H45.9999V27.3633Z" fill="white"/>
    <path d="M39.7051 29.4658H37.6025V31.5683H39.7051V29.4658Z" fill="#E3E3E3"/>
    <path d="M41.8075 29.4658H39.7051V31.5683H41.8075V29.4658Z" fill="#E3E3E3"/>
    <path d="M43.8974 29.4658H41.7949V31.5683H43.8974V29.4658Z" fill="black"/>
    <path d="M45.9999 29.4658H43.8975V31.5683H45.9999V29.4658Z" fill="white"/>
    <path d="M39.7051 31.5679H37.6025V33.6703H39.7051V31.5679Z" fill="#E3E3E3"/>
    <path d="M41.8075 31.5679H39.7051V33.6703H41.8075V31.5679Z" fill="white"/>
    <path d="M43.8974 31.5679H41.7949V33.6703H43.8974V31.5679Z" fill="black"/>
    <path d="M45.9999 31.5679H43.8975V33.6703H45.9999V31.5679Z" fill="white"/>
    <path d="M41.8075 33.6592H39.7051V35.7616H41.8075V33.6592Z" fill="#808080"/>
    <path d="M43.8974 33.6592H41.7949V35.7616H43.8974V33.6592Z" fill="black"/>
    <path d="M45.9999 33.6592H43.8975V35.7616H45.9999V33.6592Z" fill="white"/>
    <path d="M39.7051 35.7603H37.6025V37.8627H39.7051V35.7603Z" fill="#808080"/>
    <path d="M41.8075 35.7603H39.7051V37.8627H41.8075V35.7603Z" fill="#8C8C8C"/>
    <path d="M43.8974 35.7603H41.7949V37.8627H43.8974V35.7603Z" fill="black"/>
    <path d="M45.9999 35.7603H43.8975V37.8627H45.9999V35.7603Z" fill="white"/>
    <path d="M39.7051 37.8628H37.6025V39.9653H39.7051V37.8628Z" fill="#8C8C8C"/>
    <path d="M41.8075 37.8628H39.7051V39.9653H41.8075V37.8628Z" fill="black"/>
    <path d="M43.8974 37.8628H41.7949V39.9653H43.8974V37.8628Z" fill="white"/>
    <path d="M45.9999 37.8628H43.8975V39.9653H45.9999V37.8628Z" fill="white"/>
    <path d="M39.7051 39.9653H37.6025V42.0678H39.7051V39.9653Z" fill="black"/>
    <path d="M41.8075 39.9653H39.7051V42.0678H41.8075V39.9653Z" fill="white"/>
    <path d="M43.8974 39.9653H41.7949V42.0678H43.8974V39.9653Z" fill="white"/>
    <path d="M39.7051 42.0679H37.6025V44.1703H39.7051V42.0679Z" fill="white"/>
    <path d="M41.8075 42.0679H39.7051V44.1703H41.8075V42.0679Z" fill="white"/>
</svg>
