<svg width="50" height="50" viewBox="0 0 50 50" fill="none" xmlns="http://www.w3.org/2000/svg">
    <g clip-path="url(#clip0_2090_25534)">
        <path d="M17.3076 8.10449H15.3845V10.0276H17.3076V8.10449Z" fill="black"/>
        <path d="M34.6155 8.10449H32.6924V10.0276H34.6155V8.10449Z" fill="black"/>
        <path d="M34.6155 10.0278H32.6924V11.9509H34.6155V10.0278Z" fill="black"/>
        <path d="M32.6924 8.10449H30.7693V10.0276H32.6924V8.10449Z" fill="black"/>
        <path d="M15.3845 15.7969H17.3076V13.8738H15.3845V15.7969Z" fill="black"/>
        <path d="M15.3845 13.874H17.3076V11.9509H15.3845V13.874Z" fill="black"/>
        <path d="M17.3076 15.7969H19.2307V13.8738H17.3076V15.7969Z" fill="black"/>
        <path d="M17.3076 10.0278H15.3845V11.9509H17.3076V10.0278Z" fill="black"/>
        <path d="M17.3078 13.874L32.6924 13.874V11.9509L17.3078 11.9509V13.874Z" fill="#F0C915"/>
        <path d="M32.6922 10.0278H17.3076V11.9509H32.6922V10.0278Z" fill="#F0C915"/>
        <path d="M19.2307 8.10449H17.3076V10.0276H19.2307V8.10449Z" fill="black"/>
        <path d="M32.6924 15.7969H34.6155V13.8738H32.6924V15.7969Z" fill="black"/>
        <path d="M32.6924 13.874H34.6155V11.9509H32.6924V13.874Z" fill="black"/>
        <path d="M30.7693 15.7969H32.6924V13.8738H30.7693V15.7969Z" fill="black"/>
        <path d="M28.8462 15.7969H30.7693V13.8738H28.8462V15.7969Z" fill="black"/>
        <path d="M26.9231 15.7969H28.8462V13.8738H26.9231V15.7969Z" fill="black"/>
        <path d="M25 15.7969H26.9231V13.8738H25V15.7969Z" fill="black"/>
        <path d="M23.0769 15.7969H25V13.8738H23.0769V15.7969Z" fill="black"/>
        <path d="M11.5383 23.4893H13.4614V21.5662H11.5383V23.4893Z" fill="black"/>
        <path d="M11.5383 25.4126H13.4614V23.4895H11.5383V25.4126Z" fill="#D62F73"/>
        <path d="M11.5383 27.3354H13.4614V25.4124H11.5383V27.3354Z" fill="#D62F73"/>
        <path d="M11.5383 29.2588H13.4614V27.3357H11.5383V29.2588Z" fill="#D62F73"/>
        <path d="M11.5383 31.1816H13.4614V29.2586H11.5383V31.1816Z" fill="#D62F73"/>
        <path d="M11.5383 33.1045H13.4614V31.1814H11.5383V33.1045Z" fill="#D62F73"/>
        <path d="M11.5383 35.0278H13.4614V33.1048H11.5383V35.0278Z" fill="#D62F73"/>
        <path d="M11.5383 36.9507H13.4614V35.0276H11.5383V36.9507Z" fill="#BD1E55"/>
        <path d="M11.5383 38.874H13.4614V36.9509H11.5383V38.874Z" fill="#BD1E55"/>
        <path d="M9.6155 27.3354H11.5386V25.4124H9.6155V27.3354Z" fill="#D62F73"/>
        <path d="M9.6155 29.2588H11.5386V27.3357H9.6155V29.2588Z" fill="#D62F73"/>
        <path d="M9.6155 31.1816H11.5386V29.2586H9.6155V31.1816Z" fill="#D62F73"/>
        <path d="M9.6155 33.1045H11.5386V31.1814H9.6155V33.1045Z" fill="#D62F73"/>
        <path d="M9.6155 35.0278H11.5386V33.1048H9.6155V35.0278Z" fill="#BD1E55"/>
        <path d="M9.6155 36.9507H11.5386V35.0276H9.6155V36.9507Z" fill="#BD1E55"/>
        <path d="M7.6924 29.2588H9.61548V27.3357H7.6924V29.2588Z" fill="#BD1E55"/>
        <path d="M7.6924 31.1816H9.61548V29.2586H7.6924V31.1816Z" fill="#BD1E55"/>
        <path d="M7.6924 33.1045H9.61548V31.1814H7.6924V33.1045Z" fill="#BD1E55"/>
        <path d="M7.6924 35.0278H9.61548V33.1048H7.6924V35.0278Z" fill="#BD1E55"/>
        <path d="M5.76931 31.1816H7.69238V29.2586H5.76931V31.1816Z" fill="#BD1E55"/>
        <path d="M5.76931 33.1045H7.69238V31.1814H5.76931V33.1045Z" fill="#BD1E55"/>
        <path d="M3.84621 33.1045H5.76929V31.1814H3.84621V33.1045Z" fill="#931C3D"/>
        <path d="M5.76931 35.0278H7.69238V33.1048H5.76931V35.0278Z" fill="#931C3D"/>
        <path d="M7.6924 36.9507H9.61548V35.0276H7.6924V36.9507Z" fill="#931C3D"/>
        <path d="M9.6155 38.874H11.5386V36.9509H9.6155V38.874Z" fill="#931C3D"/>
        <path d="M13.4614 27.3354H15.3845V25.4124H13.4614V27.3354Z" fill="#D62F73"/>
        <path d="M13.4614 29.2588H15.3845V27.3357H13.4614V29.2588Z" fill="#D62F73"/>
        <path d="M13.4614 31.1816H15.3845V29.2586H13.4614V31.1816Z" fill="#D62F73"/>
        <path d="M13.4614 33.1045H15.3845V31.1814H13.4614V33.1045Z" fill="#D62F73"/>
        <path d="M13.4614 35.0278H15.3845V33.1048H13.4614V35.0278Z" fill="#BD1E55"/>
        <path d="M13.4614 36.9507H15.3845V35.0276H13.4614V36.9507Z" fill="#BD1E55"/>
        <path d="M15.3845 29.2588H17.3076V27.3357H15.3845V29.2588Z" fill="#D62F73"/>
        <path d="M15.3845 31.1816H17.3076V29.2586H15.3845V31.1816Z" fill="#D62F73"/>
        <path d="M15.3845 33.1045H17.3076V31.1814H15.3845V33.1045Z" fill="#BD1E55"/>
        <path d="M15.3845 35.0278H17.3076V33.1048H15.3845V35.0278Z" fill="#BD1E55"/>
        <path d="M17.3076 31.1816H19.2307V29.2586H17.3076V31.1816Z" fill="#BD1E55"/>
        <path d="M17.3076 33.1045H19.2307V31.1814H17.3076V33.1045Z" fill="#BD1E55"/>
        <path d="M19.2307 33.1045H21.1538V31.1814H19.2307V33.1045Z" fill="#931C3D"/>
        <path d="M17.3076 35.0278H19.2307V33.1048H17.3076V35.0278Z" fill="#931C3D"/>
        <path d="M15.3845 36.9507H17.3076V35.0276H15.3845V36.9507Z" fill="#931C3D"/>
        <path d="M13.4614 38.874H15.3845V36.9509H13.4614V38.874Z" fill="#931C3D"/>
        <path d="M11.5383 40.7969H13.4614V38.8738H11.5383V40.7969Z" fill="#931C3D"/>
        <path d="M7.6924 27.3354H9.61548V25.4124H7.6924V27.3354Z" fill="black"/>
        <path d="M5.76931 29.2588H7.69238V27.3357H5.76931V29.2588Z" fill="black"/>
        <path d="M3.84621 31.1816H5.76929V29.2586H3.84621V31.1816Z" fill="black"/>
        <path d="M3.84621 35.0278H5.76929V33.1048H3.84621V35.0278Z" fill="black"/>
        <path d="M1.92311 33.1045H3.84619L3.84619 31.1814H1.92311L1.92311 33.1045Z" fill="black"/>
        <path d="M5.76931 36.9453H7.69238V35.0222H5.76931V36.9453Z" fill="black"/>
        <path d="M7.6924 38.874H9.61548V36.9509H7.6924V38.874Z" fill="black"/>
        <path d="M9.6155 40.7969H11.5386V38.8738H9.6155V40.7969Z" fill="black"/>
        <path d="M13.4614 40.7969H15.3845V38.8738H13.4614V40.7969Z" fill="black"/>
        <path d="M15.3845 38.874H17.3076V36.9509H15.3845V38.874Z" fill="black"/>
        <path d="M17.3076 36.9565H19.2307V35.0335H17.3076V36.9565Z" fill="black"/>
        <path d="M19.2307 35.0278H21.1538V33.1048H19.2307V35.0278Z" fill="black"/>
        <path d="M21.1538 33.1045H23.0769V31.1814H21.1538V33.1045Z" fill="black"/>
        <path d="M19.2307 31.1816H21.1538V29.2586H19.2307V31.1816Z" fill="black"/>
        <path d="M17.3076 29.2588H19.2307V27.3357H17.3076V29.2588Z" fill="black"/>
        <path d="M15.3845 27.3354H17.3076V25.4124H15.3845V27.3354Z" fill="black"/>
        <path d="M13.4614 25.4126H15.3845V23.4895H13.4614V25.4126Z" fill="black"/>
        <path d="M15.3845 23.4893H17.3076V21.5662H15.3845V23.4893Z" fill="black"/>
        <path d="M17.3076 21.5664H19.2307V19.6433H17.3076V21.5664Z" fill="black"/>
        <path d="M19.2307 19.6431H21.1538V17.72H19.2307V19.6431Z" fill="black"/>
        <path d="M21.1538 17.7202H23.0769V15.7971H21.1538V17.7202Z" fill="black"/>
        <path d="M19.2307 17.7202H21.1538V15.7971H19.2307V17.7202Z" fill="white"/>
        <path d="M17.3076 19.6431H19.2307V17.72H17.3076V19.6431Z" fill="white"/>
        <path d="M21.1538 19.6431H23.0769V17.72H21.1538V19.6431Z" fill="white"/>
        <path d="M19.2307 21.5664H21.1538V19.6433H19.2307V21.5664Z" fill="white"/>
        <path d="M17.3076 23.4893H19.2307V21.5662H17.3076V23.4893Z" fill="white"/>
        <path d="M15.3845 25.4126H17.3076V23.4895H15.3845V25.4126Z" fill="white"/>
        <path d="M17.3076 27.3354H19.2307V25.4124H17.3076V27.3354Z" fill="white"/>
        <path d="M19.2307 29.2588H21.1538V27.3357H19.2307V29.2588Z" fill="white"/>
        <path d="M21.1538 31.1816H23.0769V29.2586H21.1538V31.1816Z" fill="white"/>
        <path d="M23.0769 33.1045H25V31.1814H23.0769V33.1045Z" fill="white"/>
        <path d="M21.1538 35.0278H23.0769V33.1048H21.1538V35.0278Z" fill="white"/>
        <path d="M23.0769 35.0278H25V33.1048H23.0769V35.0278Z" fill="white"/>
        <path d="M19.2307 36.9565H21.1538V35.0335H19.2307V36.9565Z" fill="white"/>
        <path d="M21.1538 36.9565H23.0769V35.0335H21.1538V36.9565Z" fill="white"/>
        <path d="M17.3076 38.874H19.2307V36.9509H17.3076V38.874Z" fill="white"/>
        <path d="M19.2307 38.874H21.1538V36.9509H19.2307V38.874Z" fill="white"/>
        <path d="M15.3845 40.7969H17.3076V38.8738H15.3845V40.7969Z" fill="white"/>
        <path d="M17.3076 40.7969H19.2307V38.8738H17.3076V40.7969Z" fill="white"/>
        <path d="M13.4614 42.7202H15.3845V40.7971H13.4614V42.7202Z" fill="white"/>
        <path d="M15.3845 42.7202H17.3076V40.7971H15.3845V42.7202Z" fill="white"/>
        <path d="M11.5383 44.6431H13.4614V42.72H11.5383V44.6431Z" fill="white"/>
        <path d="M13.4614 44.6431H15.3845V42.72H13.4614V44.6431Z" fill="white"/>
        <path d="M9.6155 44.6431H11.5386V42.72H9.6155V44.6431Z" fill="white"/>
        <path d="M9.6155 42.7202H11.5386V40.7971H9.6155V42.7202Z" fill="white"/>
        <path d="M7.6924 42.7202H9.61548V40.7971H7.6924V42.7202Z" fill="white"/>
        <path d="M7.6924 40.7969H9.61548V38.8738H7.6924V40.7969Z" fill="white"/>
        <path d="M5.76931 40.7969H7.69238V38.8738H5.76931V40.7969Z" fill="white"/>
        <path d="M5.76931 38.874H7.69238V36.9509H5.76931V38.874Z" fill="white"/>
        <path d="M3.84621 38.874H5.76929V36.9509H3.84621V38.874Z" fill="white"/>
        <path d="M3.84621 36.9507H5.76929V35.0276H3.84621V36.9507Z" fill="white"/>
        <path d="M1.92311 36.9507H3.84619L3.84619 35.0276H1.92311L1.92311 36.9507Z" fill="white"/>
        <path d="M1.92311 35.0278H3.84619L3.84619 33.1048H1.92311L1.92311 35.0278Z" fill="white"/>
        <path d="M1.87159e-05 35.0278H1.9231L1.9231 33.1048H1.87159e-05L1.87159e-05 35.0278Z" fill="white"/>
        <path d="M1.87159e-05 33.1045H1.9231L1.9231 31.1814H1.87159e-05L1.87159e-05 33.1045Z" fill="white"/>
        <path d="M1.92311 31.1816H3.84619L3.84619 29.2586H1.92311L1.92311 31.1816Z" fill="white"/>
        <path d="M3.84621 29.2588H5.76929V27.3357H3.84621V29.2588Z" fill="white"/>
        <path d="M5.76931 27.3354H7.69238V25.4124H5.76931V27.3354Z" fill="white"/>
        <path d="M7.6924 25.4126H9.61548V23.4895H7.6924V25.4126Z" fill="white"/>
        <path d="M9.6155 23.4893H11.5386V21.5662H9.6155V23.4893Z" fill="white"/>
        <path d="M11.5383 21.5078H13.4614V19.5847H11.5383V21.5078Z" fill="white"/>
        <path d="M26.9231 19.6431H28.8462V17.72H26.9231V19.6431Z" fill="white"/>
        <path d="M28.8462 21.5664H30.7693V19.6433H28.8462V21.5664Z" fill="white"/>
        <path d="M32.6924 21.5664H34.6155V19.6433H32.6924V21.5664Z" fill="white"/>
        <path d="M30.7693 19.6431H32.6924V17.72H30.7693V19.6431Z" fill="white"/>
        <path d="M30.7693 23.4893H32.6924V21.5662H30.7693V23.4893Z" fill="white"/>
        <path d="M28.8452 23.4893H30.7683V21.5662H28.8452V23.4893Z" fill="white"/>
        <path d="M15.3845 21.5664H17.3076V19.6433H15.3845V21.5664Z" fill="white"/>
        <path d="M13.4614 23.4893H15.3845V21.5662H13.4614V23.4893Z" fill="white"/>
        <path d="M23.0769 17.7202H26.9231V15.7971H23.0769V17.7202Z" fill="white"/>
        <path d="M28.8462 17.7202H34.6155V15.7971H28.8462V17.7202Z" fill="white"/>
        <path d="M17.3076 17.7202H19.2307V15.7971H17.3076V17.7202Z" fill="white"/>
        <path d="M15.3845 17.7202H17.3076V15.7971H15.3845V17.7202Z" fill="white"/>
        <path d="M15.3847 8.10449L34.6155 8.10449V6.18142L15.3847 6.18142V8.10449Z" fill="white"/>
        <path d="M13.4614 15.7969H15.3845L15.3845 8.10457H13.4614V15.7969Z" fill="white"/>
        <path d="M34.6155 15.7969H36.5386V8.10457H34.6155V15.7969Z" fill="white"/>
        <path d="M17.3076 11.9507H19.2307V10.0276H17.3076V11.9507Z" fill="#BB891A"/>
        <path d="M19.2307 11.9507H21.1538V10.0276H19.2307V11.9507Z" fill="#EEB81D"/>
        <path d="M17.3076 13.874H19.2307V11.9509H17.3076V13.874Z" fill="#BB891A"/>
        <path d="M19.2307 13.874H21.1538V11.9509H19.2307V13.874Z" fill="#BB891A"/>
        <path d="M21.1538 11.9507H23.0769V10.0276H21.1538V11.9507Z" fill="#EEB81D"/>
        <path d="M21.1538 13.874H23.0769V11.9509H21.1538V13.874Z" fill="#EEB81D"/>
        <path d="M23.0769 13.874H25V11.9509H23.0769V13.874Z" fill="#EEB81D"/>
        <path d="M30.7682 40.7969H46.1528V38.8738H30.7682V40.7969Z" fill="#45B3E9"/>
        <path d="M46.1539 25.4126H30.7693V38.8741H46.1539V25.4126Z" fill="#45B3E9"/>
        <path d="M30.7683 38.874H32.6914V36.9509H30.7683V38.874Z" fill="#2986FF"/>
        <path d="M32.6914 38.874H34.6145V36.9509H32.6914V38.874Z" fill="#2986FF"/>
        <path d="M30.7683 40.7969H32.6914V38.8738H30.7683V40.7969Z" fill="#2986FF"/>
        <path d="M32.6914 40.7969H34.6145V38.8738H32.6914V40.7969Z" fill="#2986FF"/>
        <path d="M34.6145 38.874H36.5376V36.9509H34.6145V38.874Z" fill="#2986FF"/>
        <path d="M30.7683 36.9565H32.6914V35.0335H30.7683V36.9565Z" fill="#2986FF"/>
        <path d="M32.6914 36.9565H34.6145V35.0335H32.6914V36.9565Z" fill="#2986FF"/>
        <path d="M30.7683 35.0386H32.6914V33.1155H30.7683V35.0386Z" fill="#2986FF"/>
        <path d="M30.7683 33.1211H32.6914V31.198H30.7683V33.1211Z" fill="#2986FF"/>
        <path d="M44.2298 27.3354H46.1528V25.4124H44.2298V27.3354Z" fill="#82CBE8"/>
        <path d="M44.2298 29.2588H46.1528V27.3357H44.2298V29.2588Z" fill="#82CBE8"/>
        <path d="M42.3067 29.2588H44.2297V27.3357H42.3067V29.2588Z" fill="#82CBE8"/>
        <path d="M44.2298 31.1816H46.1528V29.2586H44.2298V31.1816Z" fill="#82CBE8"/>
        <path d="M42.3067 27.3354H44.2297V25.4124H42.3067V27.3354Z" fill="#82CBE8"/>
        <path d="M40.3836 27.3354H42.3066V25.4124H40.3836V27.3354Z" fill="#82CBE8"/>
        <path d="M32.6914 35.0386H34.6145V33.1155H32.6914V35.0386Z" fill="#2986FF"/>
        <path d="M34.6145 36.9565H36.5376V35.0335H34.6145V36.9565Z" fill="#2986FF"/>
        <path d="M34.6145 40.7969H36.5376V38.8738H34.6145V40.7969Z" fill="#2986FF"/>
        <path d="M36.5376 40.7969H38.4607V38.8738H36.5376V40.7969Z" fill="#2986FF"/>
        <path d="M36.5383 38.874H38.4614V36.9509H36.5383V38.874Z" fill="#2986FF"/>
        <path d="M38.4614 40.7969H40.3845V38.8738H38.4614V40.7969Z" fill="#2986FF"/>
        <path d="M32.6924 23.4893H34.6155V21.5662H32.6924V23.4893Z" fill="black"/>
        <path d="M30.7693 21.5664H32.6924V19.6433H30.7693V21.5664Z" fill="black"/>
        <path d="M28.8462 19.6431H30.7693V17.72H28.8462V19.6431Z" fill="black"/>
        <path d="M26.9231 17.7202H28.8462V15.7971H26.9231V17.7202Z" fill="black"/>
        <path d="M9.6155 25.4126H11.5386V23.4895H9.6155V25.4126Z" fill="black"/>
        <path d="M11.5383 42.7202H13.4614V40.7971H11.5383V42.7202Z" fill="black"/>
        <path d="M21.1538 15.7969H23.0769V13.8738H21.1538V15.7969Z" fill="black"/>
        <path d="M19.2307 15.7969H21.1538V13.8738H19.2307V15.7969Z" fill="black"/>
        <path d="M28.8462 10.0278H30.7693V8.10476H28.8462V10.0278Z" fill="black"/>
        <path d="M26.9231 10.0278H28.8462V8.10476H26.9231V10.0278Z" fill="black"/>
        <path d="M25 10.0278H26.9231V8.10476H25V10.0278Z" fill="black"/>
        <path d="M23.0769 10.0278H25V8.10476H23.0769V10.0278Z" fill="black"/>
        <path d="M21.1538 10.0278H23.0769V8.10476H21.1538V10.0278Z" fill="black"/>
        <path d="M19.2307 10.0278H21.1538V8.10476H19.2307V10.0278Z" fill="black"/>
        <path d="M30.7693 23.4893H28.8462V25.4123H30.7693V23.4893Z" fill="black"/>
        <path d="M48.0769 23.4893H46.1538V25.4123H48.0769V23.4893Z" fill="black"/>
        <path d="M48.0769 25.4126H46.1538V27.3357H48.0769V25.4126Z" fill="black"/>
        <path d="M46.1538 23.4893H44.2307V25.4123H46.1538V23.4893Z" fill="black"/>
        <path d="M30.7693 25.4126H28.8462V27.3357H30.7693V25.4126Z" fill="black"/>
        <path d="M48.0769 27.3354H46.1538V29.2585H48.0769V27.3354Z" fill="black"/>
        <path d="M30.7693 27.3354H28.8462V29.2585H30.7693V27.3354Z" fill="black"/>
        <path d="M48.0769 29.2588H46.1538V31.1819H48.0769V29.2588Z" fill="black"/>
        <path d="M30.7693 29.2588H28.8462V31.1819H30.7693V29.2588Z" fill="black"/>
        <path d="M48.0769 31.1816H46.1538V33.1047H48.0769V31.1816Z" fill="black"/>
        <path d="M30.7693 31.1816H28.8462V33.1047H30.7693V31.1816Z" fill="black"/>
        <path d="M48.0769 33.1045H46.1538V35.0276H48.0769V33.1045Z" fill="black"/>
        <path d="M30.7693 33.1045H28.8462V35.0276H30.7693V33.1045Z" fill="black"/>
        <path d="M48.0769 35.0278H46.1538V36.9509H48.0769V35.0278Z" fill="black"/>
        <path d="M30.7693 35.0278H28.8462V36.9509H30.7693V35.0278Z" fill="black"/>
        <path d="M48.0769 36.9507H46.1538V38.8738H48.0769V36.9507Z" fill="black"/>
        <path d="M30.7693 36.9507H28.8462V38.8738H30.7693V36.9507Z" fill="black"/>
        <path d="M48.0769 38.874H46.1538V40.7971H48.0769V38.874Z" fill="black"/>
        <path d="M30.7693 38.874H28.8462V40.7971H30.7693V38.874Z" fill="black"/>
        <path d="M48.0769 40.7969H46.1538V42.72H48.0769V40.7969Z" fill="black"/>
        <path d="M30.7693 40.7969H28.8462V42.72H30.7693V40.7969Z" fill="black"/>
        <path d="M32.6924 23.4893H30.7693V25.4123H32.6924V23.4893Z" fill="black"/>
        <path d="M34.6144 23.4893H48.0759V21.5662H34.6144V23.4893Z" fill="white"/>
        <path d="M28.8461 44.6431H48.0769V42.72H28.8461V44.6431Z" fill="white"/>
        <path d="M26.9221 44.6431H28.8452L28.8452 23.4892H26.9221L26.9221 44.6431Z" fill="white"/>
        <path d="M48.0759 44.6431H49.999V23.4892H48.0759V44.6431Z" fill="white"/>
        <path d="M42.3067 25.4126H44.2297V23.4895H42.3067V25.4126Z" fill="black"/>
        <path d="M40.3836 25.4126H42.3066V23.4895H40.3836V25.4126Z" fill="black"/>
        <path d="M38.4605 25.4126H40.3835V23.4895H38.4605V25.4126Z" fill="black"/>
        <path d="M36.5376 25.4126H38.4607V23.4895H36.5376V25.4126Z" fill="black"/>
        <path d="M34.6145 25.4126H36.5376V23.4895H34.6145V25.4126Z" fill="black"/>
        <path d="M32.6914 25.4126H34.6145V23.4895H32.6914V25.4126Z" fill="black"/>
        <path d="M46.1538 40.7969H44.2307V42.72H46.1538V40.7969Z" fill="black"/>
        <path d="M32.6924 40.7969H30.7693V42.72H32.6924V40.7969Z" fill="black"/>
        <path d="M42.3067 42.7202H44.2297V40.7971H42.3067V42.7202Z" fill="black"/>
        <path d="M40.3836 42.7202H42.3066V40.7971H40.3836V42.7202Z" fill="black"/>
        <path d="M38.4605 42.7202H40.3835V40.7971H38.4605V42.7202Z" fill="black"/>
        <path d="M36.5376 42.7202H38.4607V40.7971H36.5376V42.7202Z" fill="black"/>
        <path d="M34.6145 42.7202H36.5376V40.7971H34.6145V42.7202Z" fill="black"/>
        <path d="M32.6914 42.7202H34.6145V40.7971H32.6914V42.7202Z" fill="black"/>
    </g>
    <defs>
        <clipPath id="clip0_2090_25534">
            <rect width="50" height="38.4615" fill="white" transform="translate(0 6.18164)"/>
        </clipPath>
    </defs>
</svg>
