<svg width="50" height="50" viewBox="0 0 50 50" fill="none" xmlns="http://www.w3.org/2000/svg">
    <path d="M5.71702 41.1904H3.81226V43.0952H5.71702V41.1904Z" fill="black"/>
    <path d="M7.62205 41.1904H5.71729V43.0952H7.62205V41.1904Z" fill="black"/>
    <path d="M9.52659 41.1904H7.62183V43.0952H9.52659V41.1904Z" fill="black"/>
    <path d="M11.4314 41.1904H9.52661V43.0952H11.4314V41.1904Z" fill="black"/>
    <path d="M13.3362 41.1904H11.4314V43.0952H13.3362V41.1904Z" fill="black"/>
    <path d="M15.2412 41.1904H13.3364V43.0952H15.2412V41.1904Z" fill="black"/>
    <path d="M17.1457 41.1904H15.241V43.0952H17.1457V41.1904Z" fill="black"/>
    <path d="M19.0505 41.1904H17.1458V43.0952H19.0505V41.1904Z" fill="black"/>
    <path d="M20.9555 41.1904H19.0508V43.0952H20.9555V41.1904Z" fill="black"/>
    <path d="M22.8601 41.1904H20.9553V43.0952H22.8601V41.1904Z" fill="black"/>
    <path d="M24.7649 41.1904H22.8601V43.0952H24.7649V41.1904Z" fill="black"/>
    <path d="M26.6694 41.1904H24.7646V43.0952H26.6694V41.1904Z" fill="black"/>
    <path d="M28.5744 41.1904H26.6697V43.0952H28.5744V41.1904Z" fill="black"/>
    <path d="M30.479 41.1904H28.5742V43.0952H30.479V41.1904Z" fill="black"/>
    <path d="M32.3838 41.1904H30.479V43.0952H32.3838V41.1904Z" fill="black"/>
    <path d="M34.2886 41.1904H32.3838V43.0952H34.2886V41.1904Z" fill="black"/>
    <path d="M36.1936 41.1904H34.2888V43.0952H36.1936V41.1904Z" fill="black"/>
    <path d="M38.0981 41.1904H36.1934V43.0952H38.0981V41.1904Z" fill="black"/>
    <path d="M40.0029 41.1904H38.0981V43.0952H40.0029V41.1904Z" fill="black"/>
    <path d="M41.9079 41.1904H40.0032V43.0952H41.9079V41.1904Z" fill="black"/>
    <path d="M43.8125 41.1904H41.9077V43.0952H43.8125V41.1904Z" fill="black"/>
    <path d="M45.7173 41.1904H43.8125V43.0952H45.7173V41.1904Z" fill="black"/>
    <path d="M47.6221 39.2856H45.7173V41.1904H47.6221V39.2856Z" fill="black"/>
    <path d="M47.6221 37.3809H45.7173V39.2856H47.6221V37.3809Z" fill="black"/>
    <path d="M45.7173 35.4761H43.8125V37.3808H45.7173V35.4761Z" fill="black"/>
    <path d="M45.7173 33.5713H43.8125V35.4761H45.7173V33.5713Z" fill="black"/>
    <path d="M43.8125 31.6665H41.9077V33.5713H43.8125V31.6665Z" fill="black"/>
    <path d="M43.8125 29.7622H41.9077V31.667H43.8125V29.7622Z" fill="black"/>
    <path d="M45.7173 39.2856H43.8125V41.1904H45.7173V39.2856Z" fill="#333333"/>
    <path d="M45.7173 37.3809H43.8125V39.2856H45.7173V37.3809Z" fill="#333333"/>
    <path d="M43.8125 39.2856H41.9077V41.1904H43.8125V39.2856Z" fill="#333333"/>
    <path d="M43.8125 37.3809H41.9077V39.2856H43.8125V37.3809Z" fill="#333333"/>
    <path d="M41.9079 39.2856H40.0032V41.1904H41.9079V39.2856Z" fill="#333333"/>
    <path d="M41.9079 37.3809H40.0032V39.2856H41.9079V37.3809Z" fill="#333333"/>
    <path d="M40.0029 39.2856H38.0981V41.1904H40.0029V39.2856Z" fill="#333333"/>
    <path d="M40.0029 37.3809H38.0981V39.2856H40.0029V37.3809Z" fill="#333333"/>
    <path d="M38.0981 39.2856H36.1934V41.1904H38.0981V39.2856Z" fill="#333333"/>
    <path d="M38.0981 37.3809H36.1934V39.2856H38.0981V37.3809Z" fill="#333333"/>
    <path d="M36.1936 39.2856H34.2888V41.1904H36.1936V39.2856Z" fill="#333333"/>
    <path d="M36.1936 37.3809H34.2888V39.2856H36.1936V37.3809Z" fill="#333333"/>
    <path d="M34.2886 39.2856H32.3838V41.1904H34.2886V39.2856Z" fill="#333333"/>
    <path d="M34.2886 37.3809H32.3838V39.2856H34.2886V37.3809Z" fill="#333333"/>
    <path d="M32.3838 39.2856H30.479V41.1904H32.3838V39.2856Z" fill="#333333"/>
    <path d="M32.3838 37.3809H30.479V39.2856H32.3838V37.3809Z" fill="#333333"/>
    <path d="M30.479 39.2856H28.5742V41.1904H30.479V39.2856Z" fill="#333333"/>
    <path d="M30.479 37.3809H28.5742V39.2856H30.479V37.3809Z" fill="#333333"/>
    <path d="M28.5744 39.2856H26.6697V41.1904H28.5744V39.2856Z" fill="#333333"/>
    <path d="M28.5744 37.3809H26.6697V39.2856H28.5744V37.3809Z" fill="#333333"/>
    <path d="M26.6694 39.2856H24.7646V41.1904H26.6694V39.2856Z" fill="#333333"/>
    <path d="M26.6694 37.3809H24.7646V39.2856H26.6694V37.3809Z" fill="#333333"/>
    <path d="M24.7649 39.2856H22.8601V41.1904H24.7649V39.2856Z" fill="#333333"/>
    <path d="M24.7649 37.3809H22.8601V39.2856H24.7649V37.3809Z" fill="#333333"/>
    <path d="M22.8601 39.2856H20.9553V41.1904H22.8601V39.2856Z" fill="#333333"/>
    <path d="M22.8601 37.3809H20.9553V39.2856H22.8601V37.3809Z" fill="#333333"/>
    <path d="M20.9555 39.2856H19.0508V41.1904H20.9555V39.2856Z" fill="#333333"/>
    <path d="M20.9555 37.3809H19.0508V39.2856H20.9555V37.3809Z" fill="#333333"/>
    <path d="M19.0505 39.2856H17.1458V41.1904H19.0505V39.2856Z" fill="#333333"/>
    <path d="M19.0505 37.3809H17.1458V39.2856H19.0505V37.3809Z" fill="#333333"/>
    <path d="M17.1457 39.2856H15.241V41.1904H17.1457V39.2856Z" fill="#333333"/>
    <path d="M17.1457 37.3809H15.241V39.2856H17.1457V37.3809Z" fill="#333333"/>
    <path d="M15.2412 39.2856H13.3364V41.1904H15.2412V39.2856Z" fill="#333333"/>
    <path d="M15.2412 37.3809H13.3364V39.2856H15.2412V37.3809Z" fill="#333333"/>
    <path d="M13.3362 39.2856H11.4314V41.1904H13.3362V39.2856Z" fill="#333333"/>
    <path d="M13.3362 37.3809H11.4314V39.2856H13.3362V37.3809Z" fill="#333333"/>
    <path d="M11.4314 39.2856H9.52661V41.1904H11.4314V39.2856Z" fill="#333333"/>
    <path d="M11.4314 37.3809H9.52661V39.2856H11.4314V37.3809Z" fill="#333333"/>
    <path d="M9.52659 39.2856H7.62183V41.1904H9.52659V39.2856Z" fill="#333333"/>
    <path d="M9.52659 37.3809H7.62183V39.2856H9.52659V37.3809Z" fill="#333333"/>
    <path d="M7.62205 39.2856H5.71729V41.1904H7.62205V39.2856Z" fill="#333333"/>
    <path d="M7.62205 37.3809H5.71729V39.2856H7.62205V37.3809Z" fill="#333333"/>
    <path d="M43.8125 35.4761H41.9077V37.3808H43.8125V35.4761Z" fill="#333333"/>
    <path d="M43.8125 33.5713H41.9077V35.4761H43.8125V33.5713Z" fill="#333333"/>
    <path d="M41.9079 35.4761H40.0032V37.3808H41.9079V35.4761Z" fill="#CCCCCC"/>
    <path d="M41.9079 33.5713H40.0032V35.4761H41.9079V33.5713Z" fill="#333333"/>
    <path d="M40.0029 35.4761H38.0981V37.3808H40.0029V35.4761Z" fill="#CCCCCC"/>
    <path d="M40.0029 33.5713H38.0981V35.4761H40.0029V33.5713Z" fill="#333333"/>
    <path d="M38.0981 35.4761H36.1934V37.3808H38.0981V35.4761Z" fill="#CCCCCC"/>
    <path d="M38.0981 33.5713H36.1934V35.4761H38.0981V33.5713Z" fill="#333333"/>
    <path d="M36.1936 35.4761H34.2888V37.3808H36.1936V35.4761Z" fill="#333333"/>
    <path d="M36.1936 33.5713H34.2888V35.4761H36.1936V33.5713Z" fill="#333333"/>
    <path d="M34.2886 35.4761H32.3838V37.3808H34.2886V35.4761Z" fill="#CCCCCC"/>
    <path d="M34.2886 33.5713H32.3838V35.4761H34.2886V33.5713Z" fill="#333333"/>
    <path d="M32.3838 35.4761H30.479V37.3808H32.3838V35.4761Z" fill="#CCCCCC"/>
    <path d="M32.3838 33.5713H30.479V35.4761H32.3838V33.5713Z" fill="#333333"/>
    <path d="M30.479 35.4761H28.5742V37.3808H30.479V35.4761Z" fill="#333333"/>
    <path d="M30.479 33.5713H28.5742V35.4761H30.479V33.5713Z" fill="#333333"/>
    <path d="M28.5744 35.4761H26.6697V37.3808H28.5744V35.4761Z" fill="#CCCCCC"/>
    <path d="M28.5744 33.5713H26.6697V35.4761H28.5744V33.5713Z" fill="#333333"/>
    <path d="M26.6694 35.4761H24.7646V37.3808H26.6694V35.4761Z" fill="#CCCCCC"/>
    <path d="M26.6694 33.5713H24.7646V35.4761H26.6694V33.5713Z" fill="#333333"/>
    <path d="M24.7649 35.4761H22.8601V37.3808H24.7649V35.4761Z" fill="#333333"/>
    <path d="M24.7649 33.5713H22.8601V35.4761H24.7649V33.5713Z" fill="#333333"/>
    <path d="M22.8601 35.4761H20.9553V37.3808H22.8601V35.4761Z" fill="#CCCCCC"/>
    <path d="M22.8601 33.5713H20.9553V35.4761H22.8601V33.5713Z" fill="#333333"/>
    <path d="M20.9555 35.4761H19.0508V37.3808H20.9555V35.4761Z" fill="#CCCCCC"/>
    <path d="M20.9555 33.5713H19.0508V35.4761H20.9555V33.5713Z" fill="#333333"/>
    <path d="M19.0505 35.4761H17.1458V37.3808H19.0505V35.4761Z" fill="#333333"/>
    <path d="M19.0505 33.5713H17.1458V35.4761H19.0505V33.5713Z" fill="#333333"/>
    <path d="M17.1457 35.4761H15.241V37.3808H17.1457V35.4761Z" fill="#CCCCCC"/>
    <path d="M17.1457 33.5713H15.241V35.4761H17.1457V33.5713Z" fill="#333333"/>
    <path d="M15.2412 35.4761H13.3364V37.3808H15.2412V35.4761Z" fill="#CCCCCC"/>
    <path d="M15.2412 33.5713H13.3364V35.4761H15.2412V33.5713Z" fill="#333333"/>
    <path d="M13.3362 35.4761H11.4314V37.3808H13.3362V35.4761Z" fill="#333333"/>
    <path d="M13.3362 33.5713H11.4314V35.4761H13.3362V33.5713Z" fill="#333333"/>
    <path d="M11.4314 35.4761H9.52661V37.3808H11.4314V35.4761Z" fill="#CCCCCC"/>
    <path d="M11.4314 33.5713H9.52661V35.4761H11.4314V33.5713Z" fill="#333333"/>
    <path d="M9.52659 35.4761H7.62183V37.3808H9.52659V35.4761Z" fill="#CCCCCC"/>
    <path d="M9.52659 33.5713H7.62183V35.4761H9.52659V33.5713Z" fill="#333333"/>
    <path d="M41.9079 31.6665H40.0032V33.5713H41.9079V31.6665Z" fill="#333333"/>
    <path d="M41.9079 29.7622H40.0032V31.667H41.9079V29.7622Z" fill="#333333"/>
    <path d="M40.0029 31.6665H38.0981V33.5713H40.0029V31.6665Z" fill="#CCCCCC"/>
    <path d="M40.0029 29.7622H38.0981V31.667H40.0029V29.7622Z" fill="#333333"/>
    <path d="M40.0029 27.8574H38.0981V29.7622H40.0029V27.8574Z" fill="#333333"/>
    <path d="M40.0029 25.9526H38.0981V27.8574H40.0029V25.9526Z" fill="#333333"/>
    <path d="M38.0981 27.8574H36.1934V29.7622H38.0981V27.8574Z" fill="#CCCCCC"/>
    <path d="M38.0981 25.9526H36.1934V27.8574H38.0981V25.9526Z" fill="#333333"/>
    <path d="M36.1936 27.8574H34.2888V29.7622H36.1936V27.8574Z" fill="#CCCCCC"/>
    <path d="M36.1936 25.9526H34.2888V27.8574H36.1936V25.9526Z" fill="#333333"/>
    <path d="M34.2886 27.8574H32.3838V29.7622H34.2886V27.8574Z" fill="#333333"/>
    <path d="M34.2886 25.9526H32.3838V27.8574H34.2886V25.9526Z" fill="#333333"/>
    <path d="M32.3838 27.8574H30.479V29.7622H32.3838V27.8574Z" fill="#CCCCCC"/>
    <path d="M32.3838 25.9526H30.479V27.8574H32.3838V25.9526Z" fill="#333333"/>
    <path d="M30.479 27.8574H28.5742V29.7622H30.479V27.8574Z" fill="#CCCCCC"/>
    <path d="M30.479 25.9526H28.5742V27.8574H30.479V25.9526Z" fill="#333333"/>
    <path d="M28.5744 27.8574H26.6697V29.7622H28.5744V27.8574Z" fill="#333333"/>
    <path d="M28.5744 25.9526H26.6697V27.8574H28.5744V25.9526Z" fill="#333333"/>
    <path d="M26.6694 27.8574H24.7646V29.7622H26.6694V27.8574Z" fill="#CCCCCC"/>
    <path d="M26.6694 25.9526H24.7646V27.8574H26.6694V25.9526Z" fill="#333333"/>
    <path d="M24.7649 27.8574H22.8601V29.7622H24.7649V27.8574Z" fill="#CCCCCC"/>
    <path d="M24.7649 25.9526H22.8601V27.8574H24.7649V25.9526Z" fill="#333333"/>
    <path d="M22.8601 27.8574H20.9553V29.7622H22.8601V27.8574Z" fill="#333333"/>
    <path d="M22.8601 25.9526H20.9553V27.8574H22.8601V25.9526Z" fill="#333333"/>
    <path d="M20.9555 27.8574H19.0508V29.7622H20.9555V27.8574Z" fill="#CCCCCC"/>
    <path d="M20.9555 25.9526H19.0508V27.8574H20.9555V25.9526Z" fill="#333333"/>
    <path d="M19.0505 27.8574H17.1458V29.7622H19.0505V27.8574Z" fill="#CCCCCC"/>
    <path d="M19.0505 25.9526H17.1458V27.8574H19.0505V25.9526Z" fill="#333333"/>
    <path d="M17.1457 27.8574H15.241V29.7622H17.1457V27.8574Z" fill="#333333"/>
    <path d="M17.1457 25.9526H15.241V27.8574H17.1457V25.9526Z" fill="#333333"/>
    <path d="M15.2412 27.8574H13.3364V29.7622H15.2412V27.8574Z" fill="#CCCCCC"/>
    <path d="M15.2412 25.9526H13.3364V27.8574H15.2412V25.9526Z" fill="#333333"/>
    <path d="M13.3362 27.8574H11.4314V29.7622H13.3362V27.8574Z" fill="#CCCCCC"/>
    <path d="M13.3362 25.9526H11.4314V27.8574H13.3362V25.9526Z" fill="#333333"/>
    <path d="M38.0981 31.6665H36.1934V33.5713H38.0981V31.6665Z" fill="#CCCCCC"/>
    <path d="M38.0981 29.7622H36.1934V31.667H38.0981V29.7622Z" fill="#333333"/>
    <path d="M36.1936 31.6665H34.2888V33.5713H36.1936V31.6665Z" fill="#CCCCCC"/>
    <path d="M36.1936 29.7622H34.2888V31.667H36.1936V29.7622Z" fill="#333333"/>
    <path d="M34.2886 31.6665H32.3838V33.5713H34.2886V31.6665Z" fill="#CCCCCC"/>
    <path d="M34.2886 29.7622H32.3838V31.667H34.2886V29.7622Z" fill="#333333"/>
    <path d="M32.3838 31.6665H30.479V33.5713H32.3838V31.6665Z" fill="#333333"/>
    <path d="M32.3838 29.7622H30.479V31.667H32.3838V29.7622Z" fill="#333333"/>
    <path d="M30.479 31.6665H28.5742V33.5713H30.479V31.6665Z" fill="#CCCCCC"/>
    <path d="M30.479 29.7622H28.5742V31.667H30.479V29.7622Z" fill="#333333"/>
    <path d="M28.5744 31.6665H26.6697V33.5713H28.5744V31.6665Z" fill="#CCCCCC"/>
    <path d="M28.5744 29.7622H26.6697V31.667H28.5744V29.7622Z" fill="#333333"/>
    <path d="M26.6694 31.6665H24.7646V33.5713H26.6694V31.6665Z" fill="#333333"/>
    <path d="M26.6694 29.7622H24.7646V31.667H26.6694V29.7622Z" fill="#333333"/>
    <path d="M24.7649 31.6665H22.8601V33.5713H24.7649V31.6665Z" fill="#CCCCCC"/>
    <path d="M24.7649 29.7622H22.8601V31.667H24.7649V29.7622Z" fill="#333333"/>
    <path d="M22.8601 31.6665H20.9553V33.5713H22.8601V31.6665Z" fill="#CCCCCC"/>
    <path d="M22.8601 29.7622H20.9553V31.667H22.8601V29.7622Z" fill="#333333"/>
    <path d="M20.9555 31.6665H19.0508V33.5713H20.9555V31.6665Z" fill="#333333"/>
    <path d="M20.9555 29.7622H19.0508V31.667H20.9555V29.7622Z" fill="#333333"/>
    <path d="M19.0505 31.6665H17.1458V33.5713H19.0505V31.6665Z" fill="#CCCCCC"/>
    <path d="M19.0505 29.7622H17.1458V31.667H19.0505V29.7622Z" fill="#333333"/>
    <path d="M17.1457 31.6665H15.241V33.5713H17.1457V31.6665Z" fill="#CCCCCC"/>
    <path d="M17.1457 29.7622H15.241V31.667H17.1457V29.7622Z" fill="#333333"/>
    <path d="M15.2412 31.6665H13.3364V33.5713H15.2412V31.6665Z" fill="#333333"/>
    <path d="M15.2412 29.7622H13.3364V31.667H15.2412V29.7622Z" fill="#333333"/>
    <path d="M13.3362 31.6665H11.4314V33.5713H13.3362V31.6665Z" fill="#CCCCCC"/>
    <path d="M13.3362 29.7622H11.4314V31.667H13.3362V29.7622Z" fill="#333333"/>
    <path d="M11.4314 31.6665H9.52661V33.5713H11.4314V31.6665Z" fill="#CCCCCC"/>
    <path d="M11.4314 29.7622H9.52661V31.667H11.4314V29.7622Z" fill="#333333"/>
    <path d="M3.81224 39.2856H1.90747V41.1904H3.81224V39.2856Z" fill="black"/>
    <path d="M3.81224 41.1904H1.90747V43.0952H3.81224V41.1904Z" fill="white"/>
    <path d="M5.71702 43.0952H3.81226V45H5.71702V43.0952Z" fill="white"/>
    <path d="M3.81224 43.0952H1.90747V45H3.81224V43.0952Z" fill="white"/>
    <path d="M1.90477 41.1885H0V43.0932H1.90477V41.1885Z" fill="white"/>
    <path d="M1.90477 39.2856H0V41.1904H1.90477V39.2856Z" fill="white"/>
    <path d="M1.90477 37.3828H0V39.2876H1.90477V37.3828Z" fill="white"/>
    <path d="M1.90477 35.4761H0V37.3808H1.90477V35.4761Z" fill="white"/>
    <path d="M3.81224 35.4761H1.90747V37.3808H3.81224V35.4761Z" fill="white"/>
    <path d="M3.81224 33.5713H1.90747V35.4761H3.81224V33.5713Z" fill="white"/>
    <path d="M5.71702 31.6665H3.81226V33.5713H5.71702V31.6665Z" fill="white"/>
    <path d="M5.71702 29.7622H3.81226V31.667H5.71702V29.7622Z" fill="white"/>
    <path d="M7.62205 27.8574H5.71729V29.7622H7.62205V27.8574Z" fill="white"/>
    <path d="M7.62205 25.9526H5.71729V27.8574H7.62205V25.9526Z" fill="white"/>
    <path d="M7.62205 24.0479H5.71729V25.9526H7.62205V24.0479Z" fill="white"/>
    <path d="M9.52659 22.1431H7.62183V24.0478H9.52659V22.1431Z" fill="white"/>
    <path d="M7.62205 20.2383H5.71729V22.143H7.62205V20.2383Z" fill="white"/>
    <path d="M7.62205 18.3335H5.71729V20.2383H7.62205V18.3335Z" fill="white"/>
    <path d="M9.52659 16.4287H7.62183V18.3335H9.52659V16.4287Z" fill="white"/>
    <path d="M9.52659 14.5239H7.62183V16.4287H9.52659V14.5239Z" fill="white"/>
    <path d="M9.52659 12.6191H7.62183V14.5239H9.52659V12.6191Z" fill="white"/>
    <path d="M9.52659 10.7144H7.62183V12.6191H9.52659V10.7144Z" fill="white"/>
    <path d="M9.52659 8.80957H7.62183V10.7143H9.52659V8.80957Z" fill="white"/>
    <path d="M9.52659 6.90479H7.62183V8.80955H9.52659V6.90479Z" fill="white"/>
    <path d="M11.4314 5H9.52661V6.90477H11.4314V5Z" fill="white"/>
    <path d="M13.3362 5H11.4314V6.90477H13.3362V5Z" fill="white"/>
    <path d="M15.2412 5H13.3364V6.90477H15.2412V5Z" fill="white"/>
    <path d="M17.1457 5H15.241V6.90477H17.1457V5Z" fill="white"/>
    <path d="M19.0505 5H17.1458V6.90477H19.0505V5Z" fill="white"/>
    <path d="M20.9555 5H19.0508V6.90477H20.9555V5Z" fill="white"/>
    <path d="M22.8601 5H20.9553V6.90477H22.8601V5Z" fill="white"/>
    <path d="M24.7649 5H22.8601V6.90477H24.7649V5Z" fill="white"/>
    <path d="M26.6694 5H24.7646V6.90477H26.6694V5Z" fill="white"/>
    <path d="M28.5744 5H26.6697V6.90477H28.5744V5Z" fill="white"/>
    <path d="M30.479 5H28.5742V6.90477H30.479V5Z" fill="white"/>
    <path d="M32.3838 5H30.479V6.90477H32.3838V5Z" fill="white"/>
    <path d="M34.2886 5H32.3838V6.90477H34.2886V5Z" fill="white"/>
    <path d="M36.1936 5H34.2888V6.90477H36.1936V5Z" fill="white"/>
    <path d="M38.0981 5H36.1934V6.90477H38.0981V5Z" fill="white"/>
    <path d="M40.0029 5H38.0981V6.90477H40.0029V5Z" fill="white"/>
    <path d="M41.9079 6.90479H40.0032V8.80955H41.9079V6.90479Z" fill="white"/>
    <path d="M41.9079 8.80957H40.0032V10.7143H41.9079V8.80957Z" fill="white"/>
    <path d="M41.9079 10.7144H40.0032V12.6191H41.9079V10.7144Z" fill="white"/>
    <path d="M41.9079 12.6191H40.0032V14.5239H41.9079V12.6191Z" fill="white"/>
    <path d="M41.9079 14.5239H40.0032V16.4287H41.9079V14.5239Z" fill="white"/>
    <path d="M41.9079 16.4287H40.0032V18.3335H41.9079V16.4287Z" fill="white"/>
    <path d="M43.8125 18.3335H41.9077V20.2383H43.8125V18.3335Z" fill="white"/>
    <path d="M43.8125 20.2383H41.9077V22.143H43.8125V20.2383Z" fill="white"/>
    <path d="M41.9079 22.1431H40.0032V24.0478H41.9079V22.1431Z" fill="white"/>
    <path d="M43.8125 24.0479H41.9077V25.9526H43.8125V24.0479Z" fill="white"/>
    <path d="M43.8125 25.9526H41.9077V27.8574H43.8125V25.9526Z" fill="white"/>
    <path d="M43.8125 27.8574H41.9077V29.7622H43.8125V27.8574Z" fill="white"/>
    <path d="M45.7173 29.7622H43.8125V31.667H45.7173V29.7622Z" fill="white"/>
    <path d="M45.7173 31.6665H43.8125V33.5713H45.7173V31.6665Z" fill="white"/>
    <path d="M47.6221 33.5713H45.7173V35.4761H47.6221V33.5713Z" fill="white"/>
    <path d="M47.6221 35.4761H45.7173V37.3808H47.6221V35.4761Z" fill="white"/>
    <path d="M49.5271 35.4761H47.6223V37.3808H49.5271V35.4761Z" fill="white"/>
    <path d="M49.5271 37.3809H47.6223V39.2856H49.5271V37.3809Z" fill="white"/>
    <path d="M49.5271 39.2856H47.6223V41.1904H49.5271V39.2856Z" fill="white"/>
    <path d="M49.5271 41.1904H47.6223V43.0952H49.5271V41.1904Z" fill="white"/>
    <path d="M47.6221 41.1904H45.7173V43.0952H47.6221V41.1904Z" fill="white"/>
    <path d="M47.6221 43.0952H45.7173V45H47.6221V43.0952Z" fill="white"/>
    <path d="M45.7173 43.0952H43.8125V45H45.7173V43.0952Z" fill="white"/>
    <path d="M43.8125 43.0952H41.9077V45H43.8125V43.0952Z" fill="white"/>
    <path d="M41.9079 43.0952H40.0032V45H41.9079V43.0952Z" fill="white"/>
    <path d="M40.0029 43.0952H38.0981V45H40.0029V43.0952Z" fill="white"/>
    <path d="M38.0981 43.0952H36.1934V45H38.0981V43.0952Z" fill="white"/>
    <path d="M36.1936 43.0952H34.2888V45H36.1936V43.0952Z" fill="white"/>
    <path d="M34.2886 43.0952H32.3838V45H34.2886V43.0952Z" fill="white"/>
    <path d="M32.3838 43.0952H30.479V45H32.3838V43.0952Z" fill="white"/>
    <path d="M30.479 43.0952H28.5742V45H30.479V43.0952Z" fill="white"/>
    <path d="M28.5744 43.0952H26.6697V45H28.5744V43.0952Z" fill="white"/>
    <path d="M26.6694 43.0952H24.7646V45H26.6694V43.0952Z" fill="white"/>
    <path d="M24.7649 43.0952H22.8601V45H24.7649V43.0952Z" fill="white"/>
    <path d="M22.8601 43.0952H20.9553V45H22.8601V43.0952Z" fill="white"/>
    <path d="M20.9555 43.0952H19.0508V45H20.9555V43.0952Z" fill="white"/>
    <path d="M19.0505 43.0952H17.1458V45H19.0505V43.0952Z" fill="white"/>
    <path d="M17.1457 43.0952H15.241V45H17.1457V43.0952Z" fill="white"/>
    <path d="M15.2412 43.0952H13.3364V45H15.2412V43.0952Z" fill="white"/>
    <path d="M13.3362 43.0952H11.4314V45H13.3362V43.0952Z" fill="white"/>
    <path d="M11.4314 43.0952H9.52661V45H11.4314V43.0952Z" fill="white"/>
    <path d="M9.52659 43.0952H7.62183V45H9.52659V43.0952Z" fill="white"/>
    <path d="M7.62205 43.0952H5.71729V45H7.62205V43.0952Z" fill="white"/>
    <path d="M3.81224 37.3809H1.90747V39.2856H3.81224V37.3809Z" fill="black"/>
    <path d="M5.71702 35.4761H3.81226V37.3808H5.71702V35.4761Z" fill="black"/>
    <path d="M5.71702 33.5713H3.81226V35.4761H5.71702V33.5713Z" fill="black"/>
    <path d="M7.62205 31.6665H5.71729V33.5713H7.62205V31.6665Z" fill="black"/>
    <path d="M7.62205 29.7622H5.71729V31.667H7.62205V29.7622Z" fill="black"/>
    <path d="M5.71702 39.2856H3.81226V41.1904H5.71702V39.2856Z" fill="#808080"/>
    <path d="M5.71702 37.3809H3.81226V39.2856H5.71702V37.3809Z" fill="#808080"/>
    <path d="M7.62205 35.4761H5.71729V37.3808H7.62205V35.4761Z" fill="#808080"/>
    <path d="M7.62205 33.5713H5.71729V35.4761H7.62205V33.5713Z" fill="#808080"/>
    <path d="M9.52659 31.6665H7.62183V33.5713H9.52659V31.6665Z" fill="#808080"/>
    <path d="M9.52659 29.7622H7.62183V31.667H9.52659V29.7622Z" fill="#808080"/>
    <path d="M11.4314 27.8574H9.52661V29.7622H11.4314V27.8574Z" fill="#808080"/>
    <path d="M11.4314 25.9526H9.52661V27.8574H11.4314V25.9526Z" fill="#808080"/>
    <path d="M11.4314 24.0479H9.52661V25.9526H11.4314V24.0479Z" fill="#808080"/>
    <path d="M11.4314 18.3335H9.52661V20.2383H11.4314V18.3335Z" fill="#808080"/>
    <path d="M13.3362 18.3335H11.4314V20.2383H13.3362V18.3335Z" fill="#808080"/>
    <path d="M15.2412 18.3335H13.3364V20.2383H15.2412V18.3335Z" fill="#808080"/>
    <path d="M17.1457 18.3335H15.241V20.2383H17.1457V18.3335Z" fill="#808080"/>
    <path d="M19.0505 18.3335H17.1458V20.2383H19.0505V18.3335Z" fill="#808080"/>
    <path d="M20.9555 18.3335H19.0508V20.2383H20.9555V18.3335Z" fill="#808080"/>
    <path d="M22.8601 18.3335H20.9553V20.2383H22.8601V18.3335Z" fill="#808080"/>
    <path d="M24.7649 18.3335H22.8601V20.2383H24.7649V18.3335Z" fill="#808080"/>
    <path d="M26.6694 18.3335H24.7646V20.2383H26.6694V18.3335Z" fill="#808080"/>
    <path d="M28.5744 18.3335H26.6697V20.2383H28.5744V18.3335Z" fill="#808080"/>
    <path d="M30.479 18.3335H28.5742V20.2383H30.479V18.3335Z" fill="#808080"/>
    <path d="M32.3838 18.3335H30.479V20.2383H32.3838V18.3335Z" fill="#808080"/>
    <path d="M34.2886 18.3335H32.3838V20.2383H34.2886V18.3335Z" fill="#808080"/>
    <path d="M36.1936 18.3335H34.2888V20.2383H36.1936V18.3335Z" fill="#808080"/>
    <path d="M38.0981 18.3335H36.1934V20.2383H38.0981V18.3335Z" fill="#808080"/>
    <path d="M40.0029 18.3335H38.0981V20.2383H40.0029V18.3335Z" fill="#808080"/>
    <path d="M40.0029 20.2383H38.0981V22.143H40.0029V20.2383Z" fill="#4D4D4D"/>
    <path d="M38.0981 20.2383H36.1934V22.143H38.0981V20.2383Z" fill="#4D4D4D"/>
    <path d="M36.1936 20.2383H34.2888V22.143H36.1936V20.2383Z" fill="#4D4D4D"/>
    <path d="M34.2886 20.2383H32.3838V22.143H34.2886V20.2383Z" fill="#4D4D4D"/>
    <path d="M32.3838 20.2383H30.479V22.143H32.3838V20.2383Z" fill="#4D4D4D"/>
    <path d="M30.479 20.2383H28.5742V22.143H30.479V20.2383Z" fill="#4D4D4D"/>
    <path d="M28.5744 20.2383H26.6697V22.143H28.5744V20.2383Z" fill="#4D4D4D"/>
    <path d="M26.6694 20.2383H24.7646V22.143H26.6694V20.2383Z" fill="#4D4D4D"/>
    <path d="M24.7649 20.2383H22.8601V22.143H24.7649V20.2383Z" fill="#4D4D4D"/>
    <path d="M22.8601 20.2383H20.9553V22.143H22.8601V20.2383Z" fill="#4D4D4D"/>
    <path d="M20.9555 20.2383H19.0508V22.143H20.9555V20.2383Z" fill="#4D4D4D"/>
    <path d="M19.0505 20.2383H17.1458V22.143H19.0505V20.2383Z" fill="#4D4D4D"/>
    <path d="M17.1457 20.2383H15.241V22.143H17.1457V20.2383Z" fill="#4D4D4D"/>
    <path d="M15.2412 20.2383H13.3364V22.143H15.2412V20.2383Z" fill="#4D4D4D"/>
    <path d="M13.3362 20.2383H11.4314V22.143H13.3362V20.2383Z" fill="#4D4D4D"/>
    <path d="M11.4314 20.2383H9.52661V22.143H11.4314V20.2383Z" fill="#4D4D4D"/>
    <path d="M13.3362 24.0479H11.4314V25.9526H13.3362V24.0479Z" fill="#808080"/>
    <path d="M15.2412 24.0479H13.3364V25.9526H15.2412V24.0479Z" fill="#808080"/>
    <path d="M17.1457 24.0479H15.241V25.9526H17.1457V24.0479Z" fill="#808080"/>
    <path d="M19.0505 24.0479H17.1458V25.9526H19.0505V24.0479Z" fill="#808080"/>
    <path d="M20.9555 24.0479H19.0508V25.9526H20.9555V24.0479Z" fill="#808080"/>
    <path d="M22.8601 24.0479H20.9553V25.9526H22.8601V24.0479Z" fill="#808080"/>
    <path d="M24.7649 24.0479H22.8601V25.9526H24.7649V24.0479Z" fill="#808080"/>
    <path d="M26.6694 24.0479H24.7646V25.9526H26.6694V24.0479Z" fill="#808080"/>
    <path d="M28.5744 24.0479H26.6697V25.9526H28.5744V24.0479Z" fill="#808080"/>
    <path d="M30.479 24.0479H28.5742V25.9526H30.479V24.0479Z" fill="#808080"/>
    <path d="M32.3838 24.0479H30.479V25.9526H32.3838V24.0479Z" fill="#808080"/>
    <path d="M34.2886 24.0479H32.3838V25.9526H34.2886V24.0479Z" fill="#808080"/>
    <path d="M36.1936 24.0479H34.2888V25.9526H36.1936V24.0479Z" fill="#808080"/>
    <path d="M38.0981 24.0479H36.1934V25.9526H38.0981V24.0479Z" fill="#808080"/>
    <path d="M40.0029 24.0479H38.0981V25.9526H40.0029V24.0479Z" fill="#808080"/>
    <path d="M9.52659 27.8574H7.62183V29.7622H9.52659V27.8574Z" fill="black"/>
    <path d="M9.52659 25.9526H7.62183V27.8574H9.52659V25.9526Z" fill="black"/>
    <path d="M9.52659 24.0479H7.62183V25.9526H9.52659V24.0479Z" fill="black"/>
    <path d="M41.9079 27.8574H40.0032V29.7622H41.9079V27.8574Z" fill="black"/>
    <path d="M41.9079 25.9526H40.0032V27.8574H41.9079V25.9526Z" fill="black"/>
    <path d="M41.9079 24.0479H40.0032V25.9526H41.9079V24.0479Z" fill="black"/>
    <path d="M40.0029 22.1431H38.0981V24.0478H40.0029V22.1431Z" fill="black"/>
    <path d="M41.9079 20.2383H40.0032V22.143H41.9079V20.2383Z" fill="black"/>
    <path d="M41.9079 18.3335H40.0032V20.2383H41.9079V18.3335Z" fill="black"/>
    <path d="M40.0029 16.4287H38.0981V18.3335H40.0029V16.4287Z" fill="black"/>
    <path d="M40.0029 14.5239H38.0981V16.4287H40.0029V14.5239Z" fill="black"/>
    <path d="M38.0981 22.1431H36.1934V24.0478H38.0981V22.1431Z" fill="black"/>
    <path d="M36.1936 22.1431H34.2888V24.0478H36.1936V22.1431Z" fill="black"/>
    <path d="M34.2886 22.1431H32.3838V24.0478H34.2886V22.1431Z" fill="black"/>
    <path d="M32.3838 22.1431H30.479V24.0478H32.3838V22.1431Z" fill="black"/>
    <path d="M30.479 22.1431H28.5742V24.0478H30.479V22.1431Z" fill="black"/>
    <path d="M28.5744 22.1431H26.6697V24.0478H28.5744V22.1431Z" fill="black"/>
    <path d="M26.6694 22.1431H24.7646V24.0478H26.6694V22.1431Z" fill="black"/>
    <path d="M24.7649 22.1431H22.8601V24.0478H24.7649V22.1431Z" fill="black"/>
    <path d="M22.8601 22.1431H20.9553V24.0478H22.8601V22.1431Z" fill="black"/>
    <path d="M20.9555 22.1431H19.0508V24.0478H20.9555V22.1431Z" fill="black"/>
    <path d="M19.0505 22.1431H17.1458V24.0478H19.0505V22.1431Z" fill="black"/>
    <path d="M17.1457 22.1431H15.241V24.0478H17.1457V22.1431Z" fill="black"/>
    <path d="M15.2412 22.1431H13.3364V24.0478H15.2412V22.1431Z" fill="black"/>
    <path d="M13.3362 22.1431H11.4314V24.0478H13.3362V22.1431Z" fill="black"/>
    <path d="M11.4314 22.1431H9.52661V24.0478H11.4314V22.1431Z" fill="black"/>
    <path d="M9.52659 20.2383H7.62183V22.143H9.52659V20.2383Z" fill="black"/>
    <path d="M9.52659 18.3335H7.62183V20.2383H9.52659V18.3335Z" fill="black"/>
    <path d="M11.4314 16.4287H9.52661V18.3335H11.4314V16.4287Z" fill="black"/>
    <path d="M13.3362 16.4287H11.4314V18.3335H13.3362V16.4287Z" fill="#C9CFDF"/>
    <path d="M15.2412 16.4287H13.3364V18.3335H15.2412V16.4287Z" fill="#C9CFDF"/>
    <path d="M17.1457 16.4287H15.241V18.3335H17.1457V16.4287Z" fill="#C9CFDF"/>
    <path d="M19.0505 16.4287H17.1458V18.3335H19.0505V16.4287Z" fill="#C9CFDF"/>
    <path d="M20.9555 16.4287H19.0508V18.3335H20.9555V16.4287Z" fill="#C9CFDF"/>
    <path d="M22.8601 16.4287H20.9553V18.3335H22.8601V16.4287Z" fill="#C9CFDF"/>
    <path d="M24.7649 16.4287H22.8601V18.3335H24.7649V16.4287Z" fill="#C9CFDF"/>
    <path d="M26.6694 16.4287H24.7646V18.3335H26.6694V16.4287Z" fill="#C9CFDF"/>
    <path d="M28.5744 16.4287H26.6697V18.3335H28.5744V16.4287Z" fill="#C9CFDF"/>
    <path d="M30.479 16.4287H28.5742V18.3335H30.479V16.4287Z" fill="#C9CFDF"/>
    <path d="M32.3838 16.4287H30.479V18.3335H32.3838V16.4287Z" fill="#C9CFDF"/>
    <path d="M34.2886 16.4287H32.3838V18.3335H34.2886V16.4287Z" fill="#C9CFDF"/>
    <path d="M36.1936 16.4287H34.2888V18.3335H36.1936V16.4287Z" fill="#C9CFDF"/>
    <path d="M38.0981 16.4287H36.1934V18.3335H38.0981V16.4287Z" fill="#C9CFDF"/>
    <path d="M13.3362 14.5239H11.4314V16.4287H13.3362V14.5239Z" fill="#DDE4EE"/>
    <path d="M15.2412 14.5239H13.3364V16.4287H15.2412V14.5239Z" fill="black"/>
    <path d="M17.1457 14.5239H15.241V16.4287H17.1457V14.5239Z" fill="black"/>
    <path d="M19.0505 14.5239H17.1458V16.4287H19.0505V14.5239Z" fill="black"/>
    <path d="M20.9555 14.5239H19.0508V16.4287H20.9555V14.5239Z" fill="#DDE4EE"/>
    <path d="M22.8601 14.5239H20.9553V16.4287H22.8601V14.5239Z" fill="black"/>
    <path d="M24.7649 14.5239H22.8601V16.4287H24.7649V14.5239Z" fill="black"/>
    <path d="M26.6694 14.5239H24.7646V16.4287H26.6694V14.5239Z" fill="black"/>
    <path d="M28.5744 14.5239H26.6697V16.4287H28.5744V14.5239Z" fill="#DDE4EE"/>
    <path d="M30.479 14.5239H28.5742V16.4287H30.479V14.5239Z" fill="black"/>
    <path d="M32.3838 14.5239H30.479V16.4287H32.3838V14.5239Z" fill="#DDE4EE"/>
    <path d="M34.2886 14.5239H32.3838V16.4287H34.2886V14.5239Z" fill="black"/>
    <path d="M36.1936 14.5239H34.2888V16.4287H36.1936V14.5239Z" fill="black"/>
    <path d="M38.0981 14.5239H36.1934V16.4287H38.0981V14.5239Z" fill="#DDE4EE"/>
    <path d="M13.3362 12.6191H11.4314V14.5239H13.3362V12.6191Z" fill="#F1F2F7"/>
    <path d="M15.2412 12.6191H13.3364V14.5239H15.2412V12.6191Z" fill="#F1F2F7"/>
    <path d="M17.1457 12.6191H15.241V14.5239H17.1457V12.6191Z" fill="#F1F2F7"/>
    <path d="M19.0505 12.6191H17.1458V14.5239H19.0505V12.6191Z" fill="#F1F2F7"/>
    <path d="M20.9555 12.6191H19.0508V14.5239H20.9555V12.6191Z" fill="#F1F2F7"/>
    <path d="M22.8601 12.6191H20.9553V14.5239H22.8601V12.6191Z" fill="#F1F2F7"/>
    <path d="M24.7649 12.6191H22.8601V14.5239H24.7649V12.6191Z" fill="#F1F2F7"/>
    <path d="M26.6694 12.6191H24.7646V14.5239H26.6694V12.6191Z" fill="#F1F2F7"/>
    <path d="M28.5744 12.6191H26.6697V14.5239H28.5744V12.6191Z" fill="#F1F2F7"/>
    <path d="M30.479 12.6191H28.5742V14.5239H30.479V12.6191Z" fill="#F1F2F7"/>
    <path d="M32.3838 12.6191H30.479V14.5239H32.3838V12.6191Z" fill="#F1F2F7"/>
    <path d="M34.2886 12.6191H32.3838V14.5239H34.2886V12.6191Z" fill="#F1F2F7"/>
    <path d="M36.1936 12.6191H34.2888V14.5239H36.1936V12.6191Z" fill="#F1F2F7"/>
    <path d="M38.0981 12.6191H36.1934V14.5239H38.0981V12.6191Z" fill="#F1F2F7"/>
    <path d="M13.3362 10.7144H11.4314V12.6191H13.3362V10.7144Z" fill="#F1F2F7"/>
    <path d="M15.2412 10.7144H13.3364V12.6191H15.2412V10.7144Z" fill="black"/>
    <path d="M17.1457 10.7144H15.241V12.6191H17.1457V10.7144Z" fill="black"/>
    <path d="M19.0505 10.7144H17.1458V12.6191H19.0505V10.7144Z" fill="black"/>
    <path d="M20.9555 10.7144H19.0508V12.6191H20.9555V10.7144Z" fill="black"/>
    <path d="M22.8601 10.7144H20.9553V12.6191H22.8601V10.7144Z" fill="black"/>
    <path d="M24.7649 10.7144H22.8601V12.6191H24.7649V10.7144Z" fill="black"/>
    <path d="M26.6694 10.7144H24.7646V12.6191H26.6694V10.7144Z" fill="black"/>
    <path d="M28.5744 10.7144H26.6697V12.6191H28.5744V10.7144Z" fill="#F1F2F7"/>
    <path d="M30.479 10.7144H28.5742V12.6191H30.479V10.7144Z" fill="black"/>
    <path d="M32.3838 10.7144H30.479V12.6191H32.3838V10.7144Z" fill="#F1F2F7"/>
    <path d="M34.2886 10.7144H32.3838V12.6191H34.2886V10.7144Z" fill="#F1F2F7"/>
    <path d="M36.1936 10.7144H34.2888V12.6191H36.1936V10.7144Z" fill="#F1F2F7"/>
    <path d="M38.0981 10.7144H36.1934V12.6191H38.0981V10.7144Z" fill="#F1F2F7"/>
    <path d="M13.3362 8.80957H11.4314V10.7143H13.3362V8.80957Z" fill="#F1F2F7"/>
    <path d="M15.2412 8.80957H13.3364V10.7143H15.2412V8.80957Z" fill="#F1F2F7"/>
    <path d="M17.1457 8.80957H15.241V10.7143H17.1457V8.80957Z" fill="#F1F2F7"/>
    <path d="M19.0505 8.80957H17.1458V10.7143H19.0505V8.80957Z" fill="#F1F2F7"/>
    <path d="M20.9555 8.80957H19.0508V10.7143H20.9555V8.80957Z" fill="#F1F2F7"/>
    <path d="M22.8601 8.80957H20.9553V10.7143H22.8601V8.80957Z" fill="#F1F2F7"/>
    <path d="M24.7649 8.80957H22.8601V10.7143H24.7649V8.80957Z" fill="#F1F2F7"/>
    <path d="M26.6694 8.80957H24.7646V10.7143H26.6694V8.80957Z" fill="#F1F2F7"/>
    <path d="M28.5744 8.80957H26.6697V10.7143H28.5744V8.80957Z" fill="#F1F2F7"/>
    <path d="M30.479 8.80957H28.5742V10.7143H30.479V8.80957Z" fill="#F1F2F7"/>
    <path d="M32.3838 8.80957H30.479V10.7143H32.3838V8.80957Z" fill="#F1F2F7"/>
    <path d="M34.2886 8.80957H32.3838V10.7143H34.2886V8.80957Z" fill="#F1F2F7"/>
    <path d="M36.1936 8.80957H34.2888V10.7143H36.1936V8.80957Z" fill="#F1F2F7"/>
    <path d="M38.0981 8.80957H36.1934V10.7143H38.0981V8.80957Z" fill="#F1F2F7"/>
    <path d="M11.4314 14.5239H9.52661V16.4287H11.4314V14.5239Z" fill="black"/>
    <path d="M40.0029 12.6191H38.0981V14.5239H40.0029V12.6191Z" fill="black"/>
    <path d="M11.4314 12.6191H9.52661V14.5239H11.4314V12.6191Z" fill="black"/>
    <path d="M40.0029 10.7144H38.0981V12.6191H40.0029V10.7144Z" fill="black"/>
    <path d="M11.4314 10.7144H9.52661V12.6191H11.4314V10.7144Z" fill="black"/>
    <path d="M40.0029 8.80957H38.0981V10.7143H40.0029V8.80957Z" fill="black"/>
    <path d="M11.4314 8.80957H9.52661V10.7143H11.4314V8.80957Z" fill="black"/>
    <path d="M40.0029 6.90479H38.0981V8.80955H40.0029V6.90479Z" fill="black"/>
    <path d="M38.0981 6.90479H36.1934V8.80955H38.0981V6.90479Z" fill="black"/>
    <path d="M36.1936 6.90479H34.2888V8.80955H36.1936V6.90479Z" fill="black"/>
    <path d="M34.2886 6.90479H32.3838V8.80955H34.2886V6.90479Z" fill="black"/>
    <path d="M32.3838 6.90479H30.479V8.80955H32.3838V6.90479Z" fill="black"/>
    <path d="M30.479 6.90479H28.5742V8.80955H30.479V6.90479Z" fill="black"/>
    <path d="M28.5744 6.90479H26.6697V8.80955H28.5744V6.90479Z" fill="black"/>
    <path d="M26.6694 6.90479H24.7646V8.80955H26.6694V6.90479Z" fill="black"/>
    <path d="M24.7649 6.90479H22.8601V8.80955H24.7649V6.90479Z" fill="black"/>
    <path d="M22.8601 6.90479H20.9553V8.80955H22.8601V6.90479Z" fill="black"/>
    <path d="M20.9555 6.90479H19.0508V8.80955H20.9555V6.90479Z" fill="black"/>
    <path d="M19.0505 6.90479H17.1458V8.80955H19.0505V6.90479Z" fill="black"/>
    <path d="M17.1457 6.90479H15.241V8.80955H17.1457V6.90479Z" fill="black"/>
    <path d="M15.2412 6.90479H13.3364V8.80955H15.2412V6.90479Z" fill="black"/>
    <path d="M13.3362 6.90479H11.4314V8.80955H13.3362V6.90479Z" fill="black"/>
    <path d="M11.4314 6.90479H9.52661V8.80955H11.4314V6.90479Z" fill="black"/>
</svg>
