<svg width="50" height="50" viewBox="0 0 50 50" fill="none" xmlns="http://www.w3.org/2000/svg">
    <path d="M39 11.3335H11V13.6667H39V11.3335Z" fill="black"/>
    <path d="M11 15.9995H8.66666V34.6652H11V15.9995Z" fill="white"/>
    <path d="M41.3333 15.9995H39V34.6652H41.3333V15.9995Z" fill="white"/>
    <path d="M39 13.666H11V36.9982H39V13.666Z" fill="white"/>
    <path d="M6.33333 15.9995H4V34.6652H6.33333V15.9995Z" fill="white"/>
    <path d="M8.66668 34.6655H6.33334V36.9987H8.66668V34.6655Z" fill="white"/>
    <path d="M11 36.9985H8.66666V39.3317H11V36.9985Z" fill="white"/>
    <path d="M39 39.332H11V41.6652H39V39.332Z" fill="white"/>
    <path d="M41.3333 36.9985H39V39.3317H41.3333V36.9985Z" fill="white"/>
    <path d="M43.6667 34.6655H41.3333V36.9987H43.6667V34.6655Z" fill="white"/>
    <path d="M46 15.9995H43.6667V34.6652H46V15.9995Z" fill="white"/>
    <path d="M43.6667 13.666H41.3333V15.9992H43.6667V13.666Z" fill="white"/>
    <path d="M41.3333 11.3335H39V13.6667H41.3333V11.3335Z" fill="white"/>
    <path d="M8.66668 13.666H6.33334V15.9992H8.66668V13.666Z" fill="white"/>
    <path d="M11 11.3335H8.66666V13.6667H11V11.3335Z" fill="white"/>
    <path d="M39 9H11V11.3332H39V9Z" fill="white"/>
    <path d="M39 18.3071H27.3333V20.6403H39V18.3071Z" fill="black"/>
    <path d="M39 22.999H27.3333V25.3322H39V22.999Z" fill="black"/>
    <path d="M39 27.6655H27.3333V29.9987H39V27.6655Z" fill="black"/>
    <path d="M8.66668 15.9995H6.33334V34.6652H8.66668V15.9995Z" fill="black"/>
    <path d="M43.6667 15.9995H41.3333V34.6652H43.6667V15.9995Z" fill="black"/>
    <path d="M11 34.6655H8.66666V36.9987H11V34.6655Z" fill="#4D4D4D"/>
    <path d="M11 13.666H8.66666V15.9992H11V13.666Z" fill="#1A1A1A"/>
    <path d="M15.6667 11.3335H11V13.6667H15.6667V11.3335Z" fill="#333333"/>
    <path d="M8.66668 20.666H6.33334V25.3324H8.66668V20.666Z" fill="#333333"/>
    <path d="M8.66668 29.999H6.33334V34.6655H8.66668V29.999Z" fill="#333333"/>
    <path d="M20.3333 11.3335H15.6667V13.6667H20.3333V11.3335Z" fill="#4D4D4D"/>
    <path d="M8.66668 25.3325H6.33334V29.9989H8.66668V25.3325Z" fill="#4D4D4D"/>
    <path d="M18 15.9995H15.6667V18.3327H18V15.9995Z" fill="#FFA219"/>
    <path d="M20.3333 15.9995H18V18.3327H20.3333V15.9995Z" fill="#FFBF66"/>
    <path d="M22.6667 18.333H20.3333V20.6662H22.6667V18.333Z" fill="#FFBF66"/>
    <path d="M22.6667 20.666H20.3333V22.9992H22.6667V20.666Z" fill="#FFA219"/>
    <path d="M20.3333 22.999H18V25.3322H20.3333V22.999Z" fill="#D98100"/>
    <path d="M20.3333 20.666H18V22.9992H20.3333V20.666Z" fill="#FFA219"/>
    <path d="M18 22.999H15.6667V25.3322H18V22.999Z" fill="#D98100"/>
    <path d="M18 20.666H15.6667V22.9992H18V20.666Z" fill="#D98100"/>
    <path d="M20.3333 18.333H18V20.6662H20.3333V18.333Z" fill="#FFA219"/>
    <path d="M18 18.333H15.6667V20.6662H18V18.333Z" fill="#FFA219"/>
    <path d="M22.6667 32.332H13.3333V34.6652H22.6667V32.332Z" fill="#D98100"/>
    <path d="M25 29.999H11V32.3322H25V29.999Z" fill="#FFA219"/>
    <path d="M20.3333 27.6655H15.6667V29.9987H20.3333V27.6655Z" fill="#FFBF66"/>
    <path d="M15.6667 20.666H13.3333V22.9992H15.6667V20.666Z" fill="#D98100"/>
    <path d="M15.6667 18.333H13.3333V20.6662H15.6667V18.333Z" fill="#D98100"/>
    <path d="M41.3333 34.6655H39V36.9987H41.3333V34.6655Z" fill="black"/>
    <path d="M41.3333 13.666H39V15.9992H41.3333V13.666Z" fill="black"/>
    <path d="M39 36.9985H11V39.3317H39V36.9985Z" fill="black"/>
    <path d="M15.6667 36.9985H11V39.3317H15.6667V36.9985Z" fill="#666666"/>
    <path d="M20.3333 36.9985H15.6667V39.3317H20.3333V36.9985Z" fill="#4D4D4D"/>
    <path d="M25 36.9985H20.3333V39.3317H25V36.9985Z" fill="#333333"/>
    <path d="M29.6667 36.9985H25V39.3317H29.6667V36.9985Z" fill="#1A1A1A"/>
</svg>
