<svg width="70" height="70" viewBox="0 0 70 70" fill="none" xmlns="http://www.w3.org/2000/svg">
    <g clip-path="url(#clip0_2000_23283)">
        <path d="M65.5453 9.54403H62.9999V6.99731H60.4519V4.45312H9.54403V6.99731H6.99985V9.54403H4.45312V60.4544H6.99985V62.9999H9.54403V65.5453H60.3819V62.9999H62.9999V60.4544H65.5453V9.54403Z" fill="#1B1464"/>
        <path d="M14.6363 27.3633H12.0908V29.9087H14.6363V27.3633Z" fill="black"/>
        <path d="M35 24.8184H32.4546V27.3638H35V24.8184Z" fill="#FFF4C7"/>
        <path d="M32.4546 24.8184H29.9092V27.3638H32.4546V24.8184Z" fill="#FFF4C7"/>
        <path d="M29.9092 24.8184H27.3638V27.3638H29.9092V24.8184Z" fill="#FFF4C7"/>
        <path d="M27.3638 24.8184H24.8184V27.3638H27.3638V24.8184Z" fill="#FFF4C7"/>
        <path d="M24.8184 24.8184H22.2729V27.3638H24.8184V24.8184Z" fill="#FFF4C7"/>
        <path d="M22.2725 24.8184H19.7271V27.3638H22.2725V24.8184Z" fill="#FFF4C7"/>
        <path d="M35 27.3633H32.4546V29.9087H35V27.3633Z" fill="#FFDF57"/>
        <path d="M32.4546 27.3633H29.9092V29.9087H32.4546V27.3633Z" fill="#FFDF57"/>
        <path d="M40.0909 27.3633H37.5454V29.9087H40.0909V27.3633Z" fill="#FFDF57"/>
        <path d="M37.5455 27.3633H35V29.9087H37.5455V27.3633Z" fill="#FFDF57"/>
        <path d="M29.9092 27.3633H27.3638V29.9087H29.9092V27.3633Z" fill="#FFDF57"/>
        <path d="M27.3638 27.3633H24.8184V29.9087H27.3638V27.3633Z" fill="#FFDF57"/>
        <path d="M24.8184 27.3633H22.2729V29.9087H24.8184V27.3633Z" fill="#FFDF57"/>
        <path d="M22.2725 27.3633H19.7271V29.9087H22.2725V27.3633Z" fill="#FFDF57"/>
        <path d="M19.7271 27.3633H17.1816V29.9087H19.7271V27.3633Z" fill="#FFF4C7"/>
        <path d="M17.1817 27.3633H14.6362V29.9087H17.1817V27.3633Z" fill="#FFF4C7"/>
        <path d="M24.8184 29.9092H22.2729V32.4546H24.8184V29.9092Z" fill="#F0C915"/>
        <path d="M12.0909 29.9092H9.54541V35.0001H12.0909V29.9092Z" fill="black"/>
        <path d="M22.2725 29.9092H19.7271V32.4546H22.2725V29.9092Z" fill="#F0C915"/>
        <path d="M19.7271 29.9092H17.1816V32.4546H19.7271V29.9092Z" fill="#FFDF57"/>
        <path d="M17.1817 29.9092H14.6362V32.4546H17.1817V29.9092Z" fill="#FFDF57"/>
        <path d="M14.6363 29.9092H12.0908V32.4546H14.6363V29.9092Z" fill="#FFF4C7"/>
        <path d="M22.2725 32.4541H19.7271V34.9996H22.2725V32.4541Z" fill="#F0C915"/>
        <path d="M19.7271 32.4541H17.1816V34.9996H19.7271V32.4541Z" fill="#F0C915"/>
        <path d="M17.1817 32.4541H14.6362V34.9996H17.1817V32.4541Z" fill="#FFDF57"/>
        <path d="M14.6363 32.4541H12.0908V34.9996H14.6363V32.4541Z" fill="#FFF4C7"/>
        <path d="M19.7271 35H17.1816V37.5455H19.7271V35Z" fill="#F0C915"/>
        <path d="M17.1817 35H14.6362V37.5455H17.1817V35Z" fill="#F0C915"/>
        <path d="M14.6363 35H12.0908V37.5455H14.6363V35Z" fill="#FFDF57"/>
        <path d="M12.0909 35H9.54541V37.5455H12.0909V35Z" fill="#FFF4C7"/>
        <path d="M17.1817 37.5449H14.6362V40.0904H17.1817V37.5449Z" fill="#F0C915"/>
        <path d="M14.6363 37.5449H12.0908V40.0904H14.6363V37.5449Z" fill="#FFDF57"/>
        <path d="M12.0909 37.5449H9.54541V40.0904H12.0909V37.5449Z" fill="#FFF4C7"/>
        <path d="M17.1817 40.0908H14.6362V42.6363H17.1817V40.0908Z" fill="#F0C915"/>
        <path d="M14.6363 40.0908H12.0908V42.6363H14.6363V40.0908Z" fill="#FFDF57"/>
        <path d="M12.0909 40.0908H9.54541V42.6363H12.0909V40.0908Z" fill="#FFF4C7"/>
        <path d="M17.1817 42.6357H14.6362V45.1812H17.1817V42.6357Z" fill="#F0C915"/>
        <path d="M14.6363 42.6357H12.0908V45.1812H14.6363V42.6357Z" fill="#FFDF57"/>
        <path d="M12.0909 42.6357H9.54541V45.1812H12.0909V42.6357Z" fill="#FFF4C7"/>
        <path d="M17.1817 45.1816H14.6362V47.7271H17.1817V45.1816Z" fill="#F0C915"/>
        <path d="M14.6363 45.1816H12.0908V47.7271H14.6363V45.1816Z" fill="#FFDF57"/>
        <path d="M12.0909 45.1816H9.54541V47.7271H12.0909V45.1816Z" fill="#FFF4C7"/>
        <path d="M17.1817 47.7266H14.6362V50.272H17.1817V47.7266Z" fill="#F0C915"/>
        <path d="M14.6363 47.7266H12.0908V50.272H14.6363V47.7266Z" fill="#FFDF57"/>
        <path d="M17.1817 50.2725H14.6362V52.8179H17.1817V50.2725Z" fill="#FFDF57"/>
        <path d="M14.6363 50.2725H12.0908V52.8179H14.6363V50.2725Z" fill="#FFF4C7"/>
        <path d="M17.1817 52.8184H14.6362V55.3638H17.1817V52.8184Z" fill="#FFDF57"/>
        <path d="M17.1817 55.3633H14.6362V57.9087H17.1817V55.3633Z" fill="#FFF4C7"/>
        <path d="M19.7271 47.7266H17.1816V50.272H19.7271V47.7266Z" fill="#F0C915"/>
        <path d="M19.7271 50.2725H17.1816V52.8179H19.7271V50.2725Z" fill="#F0C915"/>
        <path d="M19.7271 52.8184H17.1816V55.3638H19.7271V52.8184Z" fill="#FFDF57"/>
        <path d="M19.7271 55.3633H17.1816V57.9087H19.7271V55.3633Z" fill="#FFF4C7"/>
        <path d="M22.2725 50.2725H19.7271V52.8179H22.2725V50.2725Z" fill="#F0C915"/>
        <path d="M22.2725 52.8184H19.7271V55.3638H22.2725V52.8184Z" fill="#F0C915"/>
        <path d="M22.2725 55.3633H19.7271V57.9087H22.2725V55.3633Z" fill="#FFDF57"/>
        <path d="M24.8184 52.8184H22.2729V55.3638H24.8184V52.8184Z" fill="#F0C915"/>
        <path d="M24.8184 55.3633H22.2729V57.9087H24.8184V55.3633Z" fill="#FFDF57"/>
        <path d="M27.3638 55.3633H24.8184V57.9087H27.3638V55.3633Z" fill="#FFDF57"/>
        <path d="M29.9092 55.3633H27.3638V57.9087H29.9092V55.3633Z" fill="#FFDF57"/>
        <path d="M32.4546 55.3633H29.9092V57.9087H32.4546V55.3633Z" fill="#FFDF57"/>
        <path d="M35 55.3633H32.4546V57.9087H35V55.3633Z" fill="#FFDF57"/>
        <path d="M22.2725 57.9092H19.7271V60.4546H22.2725V57.9092Z" fill="#FFF4C7"/>
        <path d="M24.8184 57.9092H22.2729V60.4546H24.8184V57.9092Z" fill="#FFF4C7"/>
        <path d="M27.3638 57.9092H24.8184V60.4546H27.3638V57.9092Z" fill="#FFF4C7"/>
        <path d="M29.9092 57.9092H27.3638V60.4546H29.9092V57.9092Z" fill="#FFF4C7"/>
        <path d="M32.4546 57.9092H29.9092V60.4546H32.4546V57.9092Z" fill="#FFF4C7"/>
        <path d="M35 57.9092H32.4546V60.4546H35V57.9092Z" fill="#FFF4C7"/>
        <path d="M37.5455 55.3633H35V57.9087H37.5455V55.3633Z" fill="#FFF4C7"/>
        <path d="M40.0909 55.3633H37.5454V57.9087H40.0909V55.3633Z" fill="#FFF4C7"/>
        <path d="M14.6363 52.8184H12.0908V55.3638H14.6363V52.8184Z" fill="#FFF4C7"/>
        <path d="M12.0909 47.7266H9.54541V50.272H12.0909V47.7266Z" fill="#FFF4C7"/>
        <path d="M14.6363 55.3633H12.0908V57.9087H14.6363V55.3633Z" fill="black"/>
        <path d="M24.8184 50.2725H22.2729V52.8179H24.8184V50.2725Z" fill="black"/>
        <path d="M24.8184 32.4541H22.2729V34.9996H24.8184V32.4541Z" fill="black"/>
        <path d="M22.2725 35H19.7271V37.5455H22.2725V35Z" fill="black"/>
        <path d="M22.2725 47.7266H19.7271V50.272H22.2725V47.7266Z" fill="black"/>
        <path d="M19.7271 37.5449H17.1816V47.7267H19.7271V37.5449Z" fill="black"/>
        <path d="M42.6363 52.8184H40.0908V57.9093H42.6363V52.8184Z" fill="black"/>
        <path d="M42.6363 27.3633H40.0908V32.4542H42.6363V27.3633Z" fill="black"/>
        <path d="M12.0909 50.2725H9.54541V55.3634H12.0909V50.2725Z" fill="black"/>
        <path d="M9.54545 35H7V50.2727H9.54545V35Z" fill="black"/>
        <path d="M19.7271 24.8184H14.6362V27.3638H19.7271V24.8184Z" fill="black"/>
        <path d="M40.0909 24.8184H35V27.3638H40.0909V24.8184Z" fill="black"/>
        <path d="M40.0909 57.9092H35V60.4546H40.0909V57.9092Z" fill="black"/>
        <path d="M40.0911 52.8184H24.8184V55.3638H40.0911V52.8184Z" fill="black"/>
        <path d="M40.0911 29.9092H24.8184V32.4546H40.0911V29.9092Z" fill="black"/>
        <path d="M19.7271 57.9092H14.6362V60.4546H19.7271V57.9092Z" fill="black"/>
        <path d="M34.9998 60.4541H19.7271V62.9996H34.9998V60.4541Z" fill="black"/>
        <path d="M34.9998 22.2725H19.7271V24.8179H34.9998V22.2725Z" fill="black"/>
        <path d="M37.5305 9.53711H34.9863V12.0813H37.5305V9.53711Z" fill="#C1272D"/>
        <path d="M40.0808 9.53711H37.5366V12.0813H40.0808V9.53711Z" fill="#ED1C24"/>
        <path d="M45.1692 9.53711H42.625V12.0813H45.1692V9.53711Z" fill="#ED1C24"/>
        <path d="M47.7136 9.53711H45.1694V12.0813H47.7136V9.53711Z" fill="#ED1C24"/>
        <path d="M34.9861 12.082H32.4419V14.6262H34.9861V12.082Z" fill="#C1272D"/>
        <path d="M37.5305 12.082H34.9863V14.6262H37.5305V12.082Z" fill="#ED1C24"/>
        <path d="M40.0808 12.082H37.5366V14.6262H40.0808V12.082Z" fill="#ED1C24"/>
        <path d="M42.6252 12.082H40.0811V14.6262H42.6252V12.082Z" fill="#ED1C24"/>
        <path d="M45.1692 12.082H42.625V14.6262H45.1692V12.082Z" fill="#ED1C24"/>
        <path d="M47.7136 12.082H45.1694V14.6262H47.7136V12.082Z" fill="#ED1C24"/>
        <path d="M50.259 12.082H47.7148V14.6262H50.259V12.082Z" fill="#C1272D"/>
        <path d="M37.5305 14.6318H34.9863V17.176H37.5305V14.6318Z" fill="#C1272D"/>
        <path d="M40.0808 14.6318H37.5366V17.176H40.0808V14.6318Z" fill="#ED1C24"/>
        <path d="M42.6252 14.6318H40.0811V17.176H42.6252V14.6318Z" fill="#ED1C24"/>
        <path d="M45.1692 14.6318H42.625V17.176H45.1692V14.6318Z" fill="#ED1C24"/>
        <path d="M47.7136 14.6318H45.1694V17.176H47.7136V14.6318Z" fill="#C1272D"/>
        <path d="M40.0808 17.1768H37.5366V19.7209H40.0808V17.1768Z" fill="#C1272D"/>
        <path d="M42.6252 17.1768H40.0811V19.7209H42.6252V17.1768Z" fill="#ED1C24"/>
        <path d="M45.1692 17.1768H42.625V19.7209H45.1692V17.1768Z" fill="#C1272D"/>
        <path d="M42.6252 19.7217H40.0811V22.2659H42.6252V19.7217Z" fill="#C1272D"/>
        <path d="M40.0808 19.7217H37.5366V22.2659H40.0808V19.7217Z" fill="black"/>
        <path d="M37.5305 17.1816H34.9863V19.7258H37.5305V17.1816Z" fill="black"/>
        <path d="M34.9861 14.6318H32.4419V17.176H34.9861V14.6318Z" fill="black"/>
        <path d="M32.4407 12.0869H29.8965V14.6311H32.4407V12.0869Z" fill="black"/>
        <path d="M34.9861 9.54297H32.4419V12.0872H34.9861V9.54297Z" fill="black"/>
        <path d="M37.5305 6.99902H34.9863V9.54321H37.5305V6.99902Z" fill="black"/>
        <path d="M40.0759 6.99902H37.5317V9.54321H40.0759V6.99902Z" fill="black"/>
        <path d="M42.6252 9.53223H40.0811V12.0764H42.6252V9.53223Z" fill="black"/>
        <path d="M45.1692 6.99902H42.625V9.54321H45.1692V6.99902Z" fill="black"/>
        <path d="M47.7136 6.99902H45.1694V9.54321H47.7136V6.99902Z" fill="black"/>
        <path d="M50.259 9.53223H47.7148V12.0764H50.259V9.53223Z" fill="black"/>
        <path d="M52.8069 12.0811H50.2627V14.6252H52.8069V12.0811Z" fill="black"/>
        <path d="M50.259 14.6289H47.7148V17.1731H50.259V14.6289Z" fill="black"/>
        <path d="M47.7097 17.1787H45.1655V19.7229H47.7097V17.1787Z" fill="black"/>
        <path d="M45.1604 19.7266H42.6162V22.2707H45.1604V19.7266Z" fill="black"/>
        <path d="M42.6125 22.2754H40.0684V24.8196H42.6125V22.2754Z" fill="black"/>
        <path d="M17.1817 12.0801H14.6362V14.6255H17.1817V12.0801Z" fill="#FFDF57"/>
        <path d="M19.7271 9.5293H17.1816V12.0748H19.7271V9.5293Z" fill="#FFF4C7"/>
        <path d="M19.7271 14.6309H17.1816V17.1763H19.7271V14.6309Z" fill="#FFDF57"/>
        <path d="M22.2725 12.0898H19.7271V14.6353H22.2725V12.0898Z" fill="#FFF4C7"/>
        <path d="M19.7271 12.0801H17.1816V14.6255H19.7271V12.0801Z" fill="#F0C915"/>
        <path d="M27.3638 40.0801H24.8184V42.6255H27.3638V40.0801Z" fill="#FFDF57"/>
        <path d="M29.9092 37.5293H27.3638V40.0748H29.9092V37.5293Z" fill="#FFF4C7"/>
        <path d="M29.9092 42.6309H27.3638V45.1763H29.9092V42.6309Z" fill="#FFDF57"/>
        <path d="M32.4546 40.0898H29.9092V42.6353H32.4546V40.0898Z" fill="#FFF4C7"/>
        <path d="M29.9092 40.0801H27.3638V42.6255H29.9092V40.0801Z" fill="#F0C915"/>
        <path d="M55.3638 17.1826H52.8184V19.7281H55.3638V17.1826Z" fill="#FFDF57"/>
        <path d="M57.9092 14.6318H55.3638V17.1773H57.9092V14.6318Z" fill="#FFF4C7"/>
        <path d="M57.9092 19.7334H55.3638V22.2789H57.9092V19.7334Z" fill="#FFDF57"/>
        <path d="M60.4546 17.1924H57.9092V19.7378H60.4546V17.1924Z" fill="#FFF4C7"/>
        <path d="M57.9092 17.1826H55.3638V19.7281H57.9092V17.1826Z" fill="#F0C915"/>
        <path d="M9.54545 4.45508H7V7.00053H9.54545V4.45508Z" fill="white"/>
        <path d="M63 4.45508H60.4546V7.00053H63V4.45508Z" fill="white"/>
        <path d="M60.452 1.90918H9.54541V4.45463H60.452V1.90918Z" fill="white"/>
        <path d="M6.95952 7.04102H4.41406V9.58647H6.95952V7.04102Z" fill="white"/>
        <path d="M7.00004 60.4551H4.45459V65.546H7.00004V60.4551Z" fill="white"/>
        <path d="M9.54545 63H7V68.0909H9.54545V63Z" fill="white"/>
        <path d="M60.382 65.5459H9.54541V68.0914H60.382V65.5459Z" fill="white"/>
        <path d="M63.0003 63H60.3823V68.0909H63.0003V63Z" fill="white"/>
        <path d="M65.5455 60.4551H63V65.546H65.5455V60.4551Z" fill="white"/>
        <path d="M4.45463 9.53027H1.90918V63.0001H4.45463V9.53027Z" fill="white"/>
        <path d="M65.5455 7.04102H63V9.58647H65.5455V7.04102Z" fill="white"/>
        <path d="M68.0909 9.58594H65.5454V62.9998H68.0909V9.58594Z" fill="white"/>
        <path d="M50.2754 52.8184H47.73V55.3638H50.2754V52.8184Z" fill="#2986FF"/>
        <path d="M47.73 52.8184H45.1846V55.3638H47.73V52.8184Z" fill="#2986FF"/>
        <path d="M50.2754 50.2725H47.73V52.8179H50.2754V50.2725Z" fill="#2986FF"/>
        <path d="M47.73 50.2725H45.1846V52.8179H47.73V50.2725Z" fill="#45B3E9"/>
        <path d="M50.2754 47.7275H47.73V50.273H50.2754V47.7275Z" fill="#45B3E9"/>
        <path d="M47.73 47.7275H45.1846V50.273H47.73V47.7275Z" fill="#45B3E9"/>
        <path d="M45.1846 50.2725H42.6392V52.8179H45.1846V50.2725Z" fill="#2986FF"/>
        <path d="M45.1846 47.7275H42.6392V50.273H45.1846V47.7275Z" fill="#82CBE8"/>
        <path d="M42.6392 47.7275H40.0938V50.273H42.6392V47.7275Z" fill="black"/>
        <path d="M45.1832 45.1826H42.6377V47.7281H45.1832V45.1826Z" fill="black"/>
        <path d="M47.7325 42.6338H45.187V45.1792H47.7325V42.6338Z" fill="black"/>
        <path d="M50.2754 42.6338H47.73V45.1792H50.2754V42.6338Z" fill="black"/>
        <path d="M50.2754 40.0918H47.73V42.6373H50.2754V40.0918Z" fill="black"/>
        <path d="M47.7212 37.5391H45.1758V40.0845H47.7212V37.5391Z" fill="black"/>
        <path d="M47.7212 35H45.1758V37.5455H47.7212V35Z" fill="black"/>
        <path d="M47.7212 32.4619H45.1758V35.0074H47.7212V32.4619Z" fill="black"/>
        <path d="M47.7212 29.9248H45.1758V32.4703H47.7212V29.9248Z" fill="black"/>
        <path d="M50.2779 27.3672H47.7324V29.9126H50.2779V27.3672Z" fill="black"/>
        <path d="M52.835 24.8105H50.2896V27.356H52.835V24.8105Z" fill="black"/>
        <path d="M55.3663 24.8105H52.8208V27.356H55.3663V24.8105Z" fill="black"/>
        <path d="M57.9117 24.8105H55.3662V27.356H57.9117V24.8105Z" fill="black"/>
        <path d="M60.461 27.3594H57.9155V29.9048H60.461V27.3594Z" fill="black"/>
        <path d="M60.461 29.9092H57.9155V32.4546H60.461V29.9092Z" fill="black"/>
        <path d="M57.9146 32.457H55.3691V35.0025H57.9146V32.457Z" fill="black"/>
        <path d="M52.8173 35.001H55.3628V32.4555H52.8173V35.001Z" fill="black"/>
        <path d="M50.2744 35.001H52.8198V32.4555H50.2744V35.001Z" fill="black"/>
        <path d="M50.2744 37.5469H52.8198V35.0014H50.2744V37.5469Z" fill="black"/>
        <path d="M50.2744 40.0908H52.8198V37.5454H50.2744V40.0908Z" fill="black"/>
        <path d="M52.8198 42.6338H55.3652V40.0883H52.8198V42.6338Z" fill="black"/>
        <path d="M52.8198 45.1758H55.3652V42.6303H52.8198V45.1758Z" fill="black"/>
        <path d="M52.8198 47.7168H55.3652V45.1713H52.8198V47.7168Z" fill="black"/>
        <path d="M52.8198 50.2588H55.3652V47.7133H52.8198V50.2588Z" fill="black"/>
        <path d="M52.8198 52.8018H55.3652V50.2563H52.8198V52.8018Z" fill="black"/>
        <path d="M50.2651 55.3545H52.8105V52.809H50.2651V55.3545Z" fill="black"/>
        <path d="M47.7109 57.9092H50.2563V55.3637H47.7109V57.9092Z" fill="black"/>
        <path d="M45.187 57.9092H47.7324V55.3637H45.187V57.9092Z" fill="black"/>
        <path d="M42.6367 55.3574H45.1821V52.812H42.6367V55.3574Z" fill="black"/>
        <path d="M40.0835 52.8057H42.6289V50.2602H40.0835V52.8057Z" fill="black"/>
        <path d="M52.8208 50.2725H50.2754V52.8179H52.8208V50.2725Z" fill="#2986FF"/>
        <path d="M52.8208 47.7275H50.2754V50.273H52.8208V47.7275Z" fill="#45B3E9"/>
        <path d="M52.8208 45.1826H50.2754V47.7281H52.8208V45.1826Z" fill="#45B3E9"/>
        <path d="M52.8208 42.6377H50.2754V45.1832H52.8208V42.6377Z" fill="#45B3E9"/>
        <path d="M52.8208 40.0918H50.2754V42.6373H52.8208V40.0918Z" fill="#45B3E9"/>
        <path d="M50.2754 37.5469H47.73V40.0923H50.2754V37.5469Z" fill="#45B3E9"/>
        <path d="M50.2754 35H47.73V37.5455H50.2754V35Z" fill="#45B3E9"/>
        <path d="M50.2754 32.4531H47.73V34.9986H50.2754V32.4531Z" fill="#45B3E9"/>
        <path d="M52.8208 29.9102H50.2754V32.4556H52.8208V29.9102Z" fill="#2986FF"/>
        <path d="M50.2754 29.9102H47.73V32.4556H50.2754V29.9102Z" fill="#45B3E9"/>
        <path d="M55.3663 29.9102H52.8208V32.4556H55.3663V29.9102Z" fill="#2986FF"/>
        <path d="M57.9117 29.9102H55.3662V32.4556H57.9117V29.9102Z" fill="#2986FF"/>
        <path d="M55.3663 27.3633H52.8208V29.9087H55.3663V27.3633Z" fill="#45B3E9"/>
        <path d="M52.8208 27.3633H50.2754V29.9087H52.8208V27.3633Z" fill="#45B3E9"/>
        <path d="M57.9117 27.3633H55.3662V29.9087H57.9117V27.3633Z" fill="#45B3E9"/>
        <path d="M50.2754 45.1816H47.73V47.7271H50.2754V45.1816Z" fill="#82CBE8"/>
        <path d="M47.73 45.1816H45.1846V47.7271H47.73V45.1816Z" fill="#82CBE8"/>
    </g>
    <defs>
        <clipPath id="clip0_2000_23283">
            <rect width="66.1818" height="66.1818" fill="white" transform="translate(1.90918 1.90918)"/>
        </clipPath>
    </defs>
</svg>
