<svg width="50" height="50" viewBox="0 0 50 50" fill="none" xmlns="http://www.w3.org/2000/svg">
    <g clip-path="url(#clip0_2090_32724)">
        <path d="M44.3848 8.84552H42.7694V7.22932H41.1524V5.61475H8.84552V7.22932H7.23094V8.84552H5.61475V41.154H7.23094V42.7694H8.84552V44.3848H41.108V42.7694H42.7694V41.154H44.3848V8.84552Z" fill="#1B1464"/>
        <path d="M12.0773 20.1538H10.4619V21.7692H12.0773V20.1538Z" fill="black"/>
        <path d="M25.0002 18.5381H23.3848V20.1535H25.0002V18.5381Z" fill="#FFF4C7"/>
        <path d="M23.3849 18.5381H21.7695V20.1535H23.3849V18.5381Z" fill="#FFF4C7"/>
        <path d="M21.7692 18.5381H20.1538V20.1535H21.7692V18.5381Z" fill="#FFF4C7"/>
        <path d="M20.154 18.5381H18.5386V20.1535H20.154V18.5381Z" fill="#FFF4C7"/>
        <path d="M18.5387 18.5381H16.9233V20.1535H18.5387V18.5381Z" fill="#FFF4C7"/>
        <path d="M16.9235 18.5381H15.3081V20.1535H16.9235V18.5381Z" fill="#FFF4C7"/>
        <path d="M25.0002 20.1538H23.3848V21.7692H25.0002V20.1538Z" fill="#FFDF57"/>
        <path d="M23.3849 20.1538H21.7695V21.7692H23.3849V20.1538Z" fill="#FFDF57"/>
        <path d="M28.2311 20.1538H26.6157V21.7692H28.2311V20.1538Z" fill="#FFDF57"/>
        <path d="M26.6154 20.1538H25V21.7692H26.6154V20.1538Z" fill="#FFDF57"/>
        <path d="M21.7692 20.1538H20.1538V21.7692H21.7692V20.1538Z" fill="#FFDF57"/>
        <path d="M20.154 20.1538H18.5386V21.7692H20.154V20.1538Z" fill="#FFDF57"/>
        <path d="M18.5387 20.1538H16.9233V21.7692H18.5387V20.1538Z" fill="#FFDF57"/>
        <path d="M16.9235 20.1538H15.3081V21.7692H16.9235V20.1538Z" fill="#FFDF57"/>
        <path d="M15.3078 20.1538H13.6924V21.7692H15.3078V20.1538Z" fill="#FFF4C7"/>
        <path d="M13.6925 20.1538H12.0771V21.7692H13.6925V20.1538Z" fill="#FFF4C7"/>
        <path d="M18.5387 21.769H16.9233V23.3844H18.5387V21.769Z" fill="#F0C915"/>
        <path d="M10.4616 21.769H8.84619V24.9998H10.4616V21.769Z" fill="black"/>
        <path d="M16.9235 21.769H15.3081V23.3844H16.9235V21.769Z" fill="#F0C915"/>
        <path d="M15.3078 21.769H13.6924V23.3844H15.3078V21.769Z" fill="#FFDF57"/>
        <path d="M13.6925 21.769H12.0771V23.3844H13.6925V21.769Z" fill="#FFDF57"/>
        <path d="M12.0773 21.769H10.4619V23.3844H12.0773V21.769Z" fill="#FFF4C7"/>
        <path d="M16.9235 23.3843H15.3081V24.9997H16.9235V23.3843Z" fill="#F0C915"/>
        <path d="M15.3078 23.3843H13.6924V24.9997H15.3078V23.3843Z" fill="#F0C915"/>
        <path d="M13.6925 23.3843H12.0771V24.9997H13.6925V23.3843Z" fill="#FFDF57"/>
        <path d="M12.0773 23.3843H10.4619V24.9997H12.0773V23.3843Z" fill="#FFF4C7"/>
        <path d="M15.3078 25H13.6924V26.6154H15.3078V25Z" fill="#F0C915"/>
        <path d="M13.6925 25H12.0771V26.6154H13.6925V25Z" fill="#F0C915"/>
        <path d="M12.0773 25H10.4619V26.6154H12.0773V25Z" fill="#FFDF57"/>
        <path d="M10.4616 25H8.84619V26.6154H10.4616V25Z" fill="#FFF4C7"/>
        <path d="M13.6925 26.6152H12.0771V28.2306H13.6925V26.6152Z" fill="#F0C915"/>
        <path d="M12.0773 26.6152H10.4619V28.2306H12.0773V26.6152Z" fill="#FFDF57"/>
        <path d="M10.4616 26.6152H8.84619V28.2306H10.4616V26.6152Z" fill="#FFF4C7"/>
        <path d="M13.6925 28.2305H12.0771V29.8459H13.6925V28.2305Z" fill="#F0C915"/>
        <path d="M12.0773 28.2305H10.4619V29.8459H12.0773V28.2305Z" fill="#FFDF57"/>
        <path d="M10.4616 28.2305H8.84619V29.8459H10.4616V28.2305Z" fill="#FFF4C7"/>
        <path d="M13.6925 29.8457H12.0771V31.4611H13.6925V29.8457Z" fill="#F0C915"/>
        <path d="M12.0773 29.8457H10.4619V31.4611H12.0773V29.8457Z" fill="#FFDF57"/>
        <path d="M10.4616 29.8457H8.84619V31.4611H10.4616V29.8457Z" fill="#FFF4C7"/>
        <path d="M13.6925 31.4614H12.0771V33.0768H13.6925V31.4614Z" fill="#F0C915"/>
        <path d="M12.0773 31.4614H10.4619V33.0768H12.0773V31.4614Z" fill="#FFDF57"/>
        <path d="M10.4616 31.4614H8.84619V33.0768H10.4616V31.4614Z" fill="#FFF4C7"/>
        <path d="M13.6925 33.0767H12.0771V34.692H13.6925V33.0767Z" fill="#F0C915"/>
        <path d="M12.0773 33.0767H10.4619V34.692H12.0773V33.0767Z" fill="#FFDF57"/>
        <path d="M13.6925 34.6919H12.0771V36.3073H13.6925V34.6919Z" fill="#FFDF57"/>
        <path d="M12.0773 34.6919H10.4619V36.3073H12.0773V34.6919Z" fill="#FFF4C7"/>
        <path d="M13.6925 36.3076H12.0771V37.923H13.6925V36.3076Z" fill="#FFDF57"/>
        <path d="M13.6925 37.9229H12.0771V39.5382H13.6925V37.9229Z" fill="#FFF4C7"/>
        <path d="M15.3078 33.0767H13.6924V34.692H15.3078V33.0767Z" fill="#F0C915"/>
        <path d="M15.3078 34.6919H13.6924V36.3073H15.3078V34.6919Z" fill="#F0C915"/>
        <path d="M15.3078 36.3076H13.6924V37.923H15.3078V36.3076Z" fill="#FFDF57"/>
        <path d="M15.3078 37.9229H13.6924V39.5382H15.3078V37.9229Z" fill="#FFF4C7"/>
        <path d="M16.9235 34.6919H15.3081V36.3073H16.9235V34.6919Z" fill="#F0C915"/>
        <path d="M16.9235 36.3076H15.3081V37.923H16.9235V36.3076Z" fill="#F0C915"/>
        <path d="M16.9235 37.9229H15.3081V39.5382H16.9235V37.9229Z" fill="#FFDF57"/>
        <path d="M18.5387 36.3076H16.9233V37.923H18.5387V36.3076Z" fill="#F0C915"/>
        <path d="M18.5387 37.9229H16.9233V39.5382H18.5387V37.9229Z" fill="#FFDF57"/>
        <path d="M20.154 37.9229H18.5386V39.5382H20.154V37.9229Z" fill="#FFDF57"/>
        <path d="M21.7692 37.9229H20.1538V39.5382H21.7692V37.9229Z" fill="#FFDF57"/>
        <path d="M23.3849 37.9229H21.7695V39.5382H23.3849V37.9229Z" fill="#FFDF57"/>
        <path d="M25.0002 37.9229H23.3848V39.5382H25.0002V37.9229Z" fill="#FFDF57"/>
        <path d="M16.9235 39.5381H15.3081V41.1535H16.9235V39.5381Z" fill="#FFF4C7"/>
        <path d="M18.5387 39.5381H16.9233V41.1535H18.5387V39.5381Z" fill="#FFF4C7"/>
        <path d="M20.154 39.5381H18.5386V41.1535H20.154V39.5381Z" fill="#FFF4C7"/>
        <path d="M21.7692 39.5381H20.1538V41.1535H21.7692V39.5381Z" fill="#FFF4C7"/>
        <path d="M23.3849 39.5381H21.7695V41.1535H23.3849V39.5381Z" fill="#FFF4C7"/>
        <path d="M25.0002 39.5381H23.3848V41.1535H25.0002V39.5381Z" fill="#FFF4C7"/>
        <path d="M26.6154 37.9229H25V39.5382H26.6154V37.9229Z" fill="#FFF4C7"/>
        <path d="M28.2311 37.9229H26.6157V39.5382H28.2311V37.9229Z" fill="#FFF4C7"/>
        <path d="M12.0773 36.3076H10.4619V37.923H12.0773V36.3076Z" fill="#FFF4C7"/>
        <path d="M10.4616 33.0767H8.84619V34.692H10.4616V33.0767Z" fill="#FFF4C7"/>
        <path d="M12.0773 37.9229H10.4619V39.5382H12.0773V37.9229Z" fill="black"/>
        <path d="M18.5387 34.6919H16.9233V36.3073H18.5387V34.6919Z" fill="black"/>
        <path d="M18.5387 23.3843H16.9233V24.9997H18.5387V23.3843Z" fill="black"/>
        <path d="M16.9235 25H15.3081V26.6154H16.9235V25Z" fill="black"/>
        <path d="M16.9235 33.0767H15.3081V34.692H16.9235V33.0767Z" fill="black"/>
        <path d="M15.3078 26.6152H13.6924V33.0768H15.3078V26.6152Z" fill="black"/>
        <path d="M29.8463 36.3076H28.231V39.5384H29.8463V36.3076Z" fill="black"/>
        <path d="M29.8463 20.1538H28.231V23.3846H29.8463V20.1538Z" fill="black"/>
        <path d="M10.4616 34.6919H8.84619V37.9227H10.4616V34.6919Z" fill="black"/>
        <path d="M8.84634 25H7.23096V34.6923H8.84634V25Z" fill="black"/>
        <path d="M15.3079 18.5381H12.0771V20.1535H15.3079V18.5381Z" fill="black"/>
        <path d="M28.2308 18.5381H25V20.1535H28.2308V18.5381Z" fill="black"/>
        <path d="M28.2308 39.5381H25V41.1535H28.2308V39.5381Z" fill="black"/>
        <path d="M28.2309 36.3076H18.5386V37.923H28.2309V36.3076Z" fill="black"/>
        <path d="M28.2309 21.769H18.5386V23.3844H28.2309V21.769Z" fill="black"/>
        <path d="M15.3079 39.5381H12.0771V41.1535H15.3079V39.5381Z" fill="black"/>
        <path d="M25.0004 41.1538H15.3081V42.7692H25.0004V41.1538Z" fill="black"/>
        <path d="M25.0004 16.9229H15.3081V18.5382H25.0004V16.9229Z" fill="black"/>
        <path d="M26.6058 8.84033H24.9912V10.4549H26.6058V8.84033Z" fill="#C1272D"/>
        <path d="M28.2244 8.84033H26.6099V10.4549H28.2244V8.84033Z" fill="#ED1C24"/>
        <path d="M31.4534 8.84033H29.8389V10.4549H31.4534V8.84033Z" fill="#ED1C24"/>
        <path d="M33.0682 8.84033H31.4536V10.4549H33.0682V8.84033Z" fill="#ED1C24"/>
        <path d="M24.991 10.4561H23.3765V12.0706H24.991V10.4561Z" fill="#C1272D"/>
        <path d="M26.6058 10.4561H24.9912V12.0706H26.6058V10.4561Z" fill="#ED1C24"/>
        <path d="M28.2244 10.4561H26.6099V12.0706H28.2244V10.4561Z" fill="#ED1C24"/>
        <path d="M29.8392 10.4561H28.2246V12.0706H29.8392V10.4561Z" fill="#ED1C24"/>
        <path d="M31.4534 10.4561H29.8389V12.0706H31.4534V10.4561Z" fill="#ED1C24"/>
        <path d="M33.0682 10.4561H31.4536V12.0706H33.0682V10.4561Z" fill="#ED1C24"/>
        <path d="M34.6834 10.4561H33.0688V12.0706H34.6834V10.4561Z" fill="#C1272D"/>
        <path d="M26.6058 12.0737H24.9912V13.6883H26.6058V12.0737Z" fill="#C1272D"/>
        <path d="M28.2244 12.0737H26.6099V13.6883H28.2244V12.0737Z" fill="#ED1C24"/>
        <path d="M29.8392 12.0737H28.2246V13.6883H29.8392V12.0737Z" fill="#ED1C24"/>
        <path d="M31.4534 12.0737H29.8389V13.6883H31.4534V12.0737Z" fill="#ED1C24"/>
        <path d="M33.0682 12.0737H31.4536V13.6883H33.0682V12.0737Z" fill="#C1272D"/>
        <path d="M28.2244 13.689H26.6099V15.3035H28.2244V13.689Z" fill="#C1272D"/>
        <path d="M29.8392 13.689H28.2246V15.3035H29.8392V13.689Z" fill="#ED1C24"/>
        <path d="M31.4534 13.689H29.8389V15.3035H31.4534V13.689Z" fill="#C1272D"/>
        <path d="M29.8392 15.3037H28.2246V16.9183H29.8392V15.3037Z" fill="#C1272D"/>
        <path d="M28.2244 15.3037H26.6099V16.9183H28.2244V15.3037Z" fill="black"/>
        <path d="M26.6058 13.6924H24.9912V15.307H26.6058V13.6924Z" fill="black"/>
        <path d="M24.991 12.0737H23.3765V13.6883H24.991V12.0737Z" fill="black"/>
        <path d="M23.3758 10.459H21.7612V12.0736H23.3758V10.459Z" fill="black"/>
        <path d="M24.991 8.84473H23.3765V10.4593H24.991V8.84473Z" fill="black"/>
        <path d="M26.6058 7.22998H24.9912V8.84456H26.6058V7.22998Z" fill="black"/>
        <path d="M28.221 7.22998H26.6064V8.84456H28.221V7.22998Z" fill="black"/>
        <path d="M29.8392 8.8374H28.2246V10.452H29.8392V8.8374Z" fill="black"/>
        <path d="M31.4534 7.22998H29.8389V8.84456H31.4534V7.22998Z" fill="black"/>
        <path d="M33.0682 7.22998H31.4536V8.84456H33.0682V7.22998Z" fill="black"/>
        <path d="M34.6834 8.8374H33.0688V10.452H34.6834V8.8374Z" fill="black"/>
        <path d="M36.3006 10.4551H34.686V12.0697H36.3006V10.4551Z" fill="black"/>
        <path d="M34.6834 12.0723H33.0688V13.6868H34.6834V12.0723Z" fill="black"/>
        <path d="M33.0658 13.6899H31.4512V15.3045H33.0658V13.6899Z" fill="black"/>
        <path d="M31.4481 15.3071H29.8335V16.9217H31.4481V15.3071Z" fill="black"/>
        <path d="M29.8309 16.9248H28.2163V18.5394H29.8309V16.9248Z" fill="black"/>
        <path d="M13.6925 10.4541H12.0771V12.0695H13.6925V10.4541Z" fill="#FFDF57"/>
        <path d="M15.3078 8.83545H13.6924V10.4508H15.3078V8.83545Z" fill="#FFF4C7"/>
        <path d="M15.3078 12.0728H13.6924V13.6881H15.3078V12.0728Z" fill="#FFDF57"/>
        <path d="M16.9235 10.4604H15.3081V12.0758H16.9235V10.4604Z" fill="#FFF4C7"/>
        <path d="M15.3078 10.4541H13.6924V12.0695H15.3078V10.4541Z" fill="#F0C915"/>
        <path d="M20.154 28.2236H18.5386V29.839H20.154V28.2236Z" fill="#FFDF57"/>
        <path d="M21.7692 26.605H20.1538V28.2204H21.7692V26.605Z" fill="#FFF4C7"/>
        <path d="M21.7692 29.8423H20.1538V31.4577H21.7692V29.8423Z" fill="#FFDF57"/>
        <path d="M23.3849 28.23H21.7695V29.8454H23.3849V28.23Z" fill="#FFF4C7"/>
        <path d="M21.7692 28.2236H20.1538V29.839H21.7692V28.2236Z" fill="#F0C915"/>
        <path d="M37.923 13.6924H36.3076V15.3078H37.923V13.6924Z" fill="#FFDF57"/>
        <path d="M39.5382 12.0737H37.9229V13.6891H39.5382V12.0737Z" fill="#FFF4C7"/>
        <path d="M39.5382 15.311H37.9229V16.9264H39.5382V15.311Z" fill="#FFDF57"/>
        <path d="M41.154 13.6987H39.5386V15.3141H41.154V13.6987Z" fill="#FFF4C7"/>
        <path d="M39.5382 13.6924H37.9229V15.3078H39.5382V13.6924Z" fill="#F0C915"/>
        <path d="M8.84634 5.61523H7.23096V7.23062H8.84634V5.61523Z" fill="white"/>
        <path d="M42.7692 5.61523H41.1538V7.23062H42.7692V5.61523Z" fill="white"/>
        <path d="M41.1523 4H8.84619V5.61538H41.1523V4Z" fill="white"/>
        <path d="M7.20474 7.25684H5.58936V8.87222H7.20474V7.25684Z" fill="white"/>
        <path d="M7.23062 41.1538H5.61523V44.3846H7.23062V41.1538Z" fill="white"/>
        <path d="M8.84634 42.769H7.23096V45.9998H8.84634V42.769Z" fill="white"/>
        <path d="M41.1078 44.3848H8.84619V46.0001H41.1078V44.3848Z" fill="white"/>
        <path d="M42.7693 42.769H41.1079V45.9998H42.7693V42.769Z" fill="white"/>
        <path d="M44.3844 41.1538H42.769V44.3846H44.3844V41.1538Z" fill="white"/>
        <path d="M5.61538 8.83643H4V42.7692H5.61538V8.83643Z" fill="white"/>
        <path d="M44.3844 7.25684H42.769V8.87222H44.3844V7.25684Z" fill="white"/>
        <path d="M46.0001 8.87207H44.3848V42.7693H46.0001V8.87207Z" fill="white"/>
        <path d="M34.694 36.3076H33.0786V37.923H34.694V36.3076Z" fill="#2986FF"/>
        <path d="M33.0788 36.3076H31.4634V37.923H33.0788V36.3076Z" fill="#2986FF"/>
        <path d="M34.694 34.6924H33.0786V36.3078H34.694V34.6924Z" fill="#2986FF"/>
        <path d="M33.0788 34.6924H31.4634V36.3078H33.0788V34.6924Z" fill="#45B3E9"/>
        <path d="M34.694 33.0771H33.0786V34.6925H34.694V33.0771Z" fill="#45B3E9"/>
        <path d="M33.0788 33.0771H31.4634V34.6925H33.0788V33.0771Z" fill="#45B3E9"/>
        <path d="M31.4635 34.6924H29.8481V36.3078H31.4635V34.6924Z" fill="#2986FF"/>
        <path d="M31.4635 33.0771H29.8481V34.6925H31.4635V33.0771Z" fill="#82CBE8"/>
        <path d="M29.8478 33.0771H28.2324V34.6925H29.8478V33.0771Z" fill="black"/>
        <path d="M31.4626 31.4624H29.8472V33.0778H31.4626V31.4624Z" fill="black"/>
        <path d="M33.0802 29.8447H31.4648V31.4601H33.0802V29.8447Z" fill="black"/>
        <path d="M34.694 29.8447H33.0786V31.4601H34.694V29.8447Z" fill="black"/>
        <path d="M34.694 28.2314H33.0786V29.8468H34.694V28.2314Z" fill="black"/>
        <path d="M33.0729 26.6113H31.4575V28.2267H33.0729V26.6113Z" fill="black"/>
        <path d="M33.0729 25H31.4575V26.6154H33.0729V25Z" fill="black"/>
        <path d="M33.0729 23.3896H31.4575V25.005H33.0729V23.3896Z" fill="black"/>
        <path d="M33.0729 21.7788H31.4575V23.3942H33.0729V21.7788Z" fill="black"/>
        <path d="M34.6955 20.1562H33.0801V21.7716H34.6955V20.1562Z" fill="black"/>
        <path d="M36.3185 18.5337H34.7031V20.1491H36.3185V18.5337Z" fill="black"/>
        <path d="M37.925 18.5337H36.3096V20.1491H37.925V18.5337Z" fill="black"/>
        <path d="M39.5402 18.5337H37.9248V20.1491H39.5402V18.5337Z" fill="black"/>
        <path d="M41.1579 20.1514H39.5425V21.7668H41.1579V20.1514Z" fill="black"/>
        <path d="M41.1579 21.7695H39.5425V23.3849H41.1579V21.7695Z" fill="black"/>
        <path d="M39.5417 23.3862H37.9263V25.0016H39.5417V23.3862Z" fill="black"/>
        <path d="M36.307 25.001H37.9224V23.3856H36.307V25.001Z" fill="black"/>
        <path d="M34.6932 25.001H36.3086V23.3856H34.6932V25.001Z" fill="black"/>
        <path d="M34.6932 26.6162H36.3086V25.0008H34.6932V26.6162Z" fill="black"/>
        <path d="M34.6932 28.231H36.3086V26.6156H34.6932V28.231Z" fill="black"/>
        <path d="M36.3084 29.8447H37.9238V28.2293H36.3084V29.8447Z" fill="black"/>
        <path d="M36.3084 31.4575H37.9238V29.8421H36.3084V31.4575Z" fill="black"/>
        <path d="M36.3084 33.0703H37.9238V31.4549H36.3084V33.0703Z" fill="black"/>
        <path d="M36.3084 34.6836H37.9238V33.0682H36.3084V34.6836Z" fill="black"/>
        <path d="M36.3084 36.2974H37.9238V34.682H36.3084V36.2974Z" fill="black"/>
        <path d="M34.6878 37.9175H36.3032V36.3021H34.6878V37.9175Z" fill="black"/>
        <path d="M33.0667 39.5386H34.6821V37.9232H33.0667V39.5386Z" fill="black"/>
        <path d="M31.4647 39.5386H33.0801V37.9232H31.4647V39.5386Z" fill="black"/>
        <path d="M29.8465 37.9189H31.4619V36.3036H29.8465V37.9189Z" fill="black"/>
        <path d="M28.2259 36.2998H29.8413V34.6844H28.2259V36.2998Z" fill="black"/>
        <path d="M36.3092 34.6924H34.6938V36.3078H36.3092V34.6924Z" fill="#2986FF"/>
        <path d="M36.3092 33.0771H34.6938V34.6925H36.3092V33.0771Z" fill="#45B3E9"/>
        <path d="M36.3092 31.4624H34.6938V33.0778H36.3092V31.4624Z" fill="#45B3E9"/>
        <path d="M36.3092 29.8472H34.6938V31.4626H36.3092V29.8472Z" fill="#45B3E9"/>
        <path d="M36.3092 28.2314H34.6938V29.8468H36.3092V28.2314Z" fill="#45B3E9"/>
        <path d="M34.694 26.6162H33.0786V28.2316H34.694V26.6162Z" fill="#45B3E9"/>
        <path d="M34.694 25H33.0786V26.6154H34.694V25Z" fill="#45B3E9"/>
        <path d="M34.694 23.3838H33.0786V24.9992H34.694V23.3838Z" fill="#45B3E9"/>
        <path d="M36.3092 21.77H34.6938V23.3854H36.3092V21.77Z" fill="#2986FF"/>
        <path d="M34.694 21.77H33.0786V23.3854H34.694V21.77Z" fill="#45B3E9"/>
        <path d="M37.925 21.77H36.3096V23.3854H37.925V21.77Z" fill="#2986FF"/>
        <path d="M39.5402 21.77H37.9248V23.3854H39.5402V21.77Z" fill="#2986FF"/>
        <path d="M37.925 20.1538H36.3096V21.7692H37.925V20.1538Z" fill="#45B3E9"/>
        <path d="M36.3092 20.1538H34.6938V21.7692H36.3092V20.1538Z" fill="#45B3E9"/>
        <path d="M39.5402 20.1538H37.9248V21.7692H39.5402V20.1538Z" fill="#45B3E9"/>
        <path d="M34.694 31.4614H33.0786V33.0768H34.694V31.4614Z" fill="#82CBE8"/>
        <path d="M33.0788 31.4614H31.4634V33.0768H33.0788V31.4614Z" fill="#82CBE8"/>
    </g>
    <defs>
        <clipPath id="clip0_2090_32724">
            <rect width="42" height="42" fill="white" transform="translate(4 4)"/>
        </clipPath>
    </defs>
</svg>
