<svg width="70" height="70" viewBox="0 0 70 70" fill="none" xmlns="http://www.w3.org/2000/svg">
    <path d="M28.6326 8.27246H26.0884V10.8166H28.6326V8.27246Z" fill="white"/>
    <path d="M31.1767 8.27246H28.6326V10.8166H31.1767V8.27246Z" fill="white"/>
    <path d="M33.7221 8.27246H31.178V10.8166H33.7221V8.27246Z" fill="white"/>
    <path d="M36.2727 8.27246H33.7285V10.8166H36.2727V8.27246Z" fill="white"/>
    <path d="M38.8156 8.27246H36.2715V10.8166H38.8156V8.27246Z" fill="white"/>
    <path d="M41.3599 8.27246H38.8157V10.8166H41.3599V8.27246Z" fill="white"/>
    <path d="M43.9053 8.27246H41.3611V10.8166H43.9053V8.27246Z" fill="white"/>
    <path d="M23.5442 10.8164H21V13.3606H23.5442V10.8164Z" fill="white"/>
    <path d="M26.0883 10.8164H23.5442V13.3606H26.0883V10.8164Z" fill="white"/>
    <path d="M28.6326 10.8164H26.0884V13.3606H28.6326V10.8164Z" fill="black"/>
    <path d="M31.1767 10.8164H28.6326V13.3606H31.1767V10.8164Z" fill="black"/>
    <path d="M33.7221 10.8164H31.178V13.3606H33.7221V10.8164Z" fill="black"/>
    <path d="M36.2727 10.8164H33.7285V13.3606H36.2727V10.8164Z" fill="black"/>
    <path d="M38.8156 10.8164H36.2715V13.3606H38.8156V10.8164Z" fill="black"/>
    <path d="M41.3599 10.8164H38.8157V13.3606H41.3599V10.8164Z" fill="black"/>
    <path d="M43.9053 10.8164H41.3611V13.3606H43.9053V10.8164Z" fill="black"/>
    <path d="M46.4483 10.8164H43.9041V13.3606H46.4483V10.8164Z" fill="white"/>
    <path d="M48.9988 10.8164H46.4546V13.3606H48.9988V10.8164Z" fill="white"/>
    <path d="M20.9937 13.3604H18.4495V15.9045H20.9937V13.3604Z" fill="white"/>
    <path d="M23.5442 13.3604H21V15.9045H23.5442V13.3604Z" fill="black"/>
    <path d="M26.0883 13.3604H23.5442V15.9045H26.0883V13.3604Z" fill="black"/>
    <path d="M28.6326 13.3604H26.0884V15.9045H28.6326V13.3604Z" fill="#F2DE98"/>
    <path d="M31.1767 13.3604H28.6326V15.9045H31.1767V13.3604Z" fill="#F2DE98"/>
    <path d="M33.7221 13.3604H31.178V15.9045H33.7221V13.3604Z" fill="#F2DE98"/>
    <path d="M36.2727 13.3604H33.7285V15.9045H36.2727V13.3604Z" fill="#F2DE98"/>
    <path d="M38.8156 13.3604H36.2715V15.9045H38.8156V13.3604Z" fill="#F2DE98"/>
    <path d="M41.3599 13.3604H38.8157V15.9045H41.3599V13.3604Z" fill="#F2DE98"/>
    <path d="M43.9053 13.3604H41.3611V15.9045H43.9053V13.3604Z" fill="#F2DE98"/>
    <path d="M46.4483 13.3604H43.9041V15.9045H46.4483V13.3604Z" fill="black"/>
    <path d="M48.9988 13.3604H46.4546V15.9045H48.9988V13.3604Z" fill="black"/>
    <path d="M51.5442 13.3604H49V15.9045H51.5442V13.3604Z" fill="white"/>
    <path d="M18.4494 15.9111H15.9053V18.4553H18.4494V15.9111Z" fill="white"/>
    <path d="M20.9937 15.9111H18.4495V18.4553H20.9937V15.9111Z" fill="black"/>
    <path d="M23.5442 15.9111H21V18.4553H23.5442V15.9111Z" fill="#F2DE98"/>
    <path d="M26.0883 15.9111H23.5442V18.4553H26.0883V15.9111Z" fill="#F2DE98"/>
    <path d="M28.6326 15.9111H26.0884V18.4553H28.6326V15.9111Z" fill="#FFC522"/>
    <path d="M31.1767 15.9111H28.6326V18.4553H31.1767V15.9111Z" fill="#FFC522"/>
    <path d="M33.7221 15.9111H31.178V18.4553H33.7221V15.9111Z" fill="#FFC522"/>
    <path d="M36.2727 15.9111H33.7285V18.4553H36.2727V15.9111Z" fill="#FFC522"/>
    <path d="M38.8156 15.9111H36.2715V18.4553H38.8156V15.9111Z" fill="#FFC522"/>
    <path d="M41.3599 15.9111H38.8157V18.4553H41.3599V15.9111Z" fill="#FFC522"/>
    <path d="M43.9053 15.9111H41.3611V18.4553H43.9053V15.9111Z" fill="#FFC522"/>
    <path d="M46.4483 15.9111H43.9041V18.4553H46.4483V15.9111Z" fill="#F2DE98"/>
    <path d="M48.9988 15.9111H46.4546V18.4553H48.9988V15.9111Z" fill="#F2DE98"/>
    <path d="M51.5442 15.9111H49V18.4553H51.5442V15.9111Z" fill="black"/>
    <path d="M54.0883 15.9111H51.5442V18.4553H54.0883V15.9111Z" fill="white"/>
    <path d="M15.9053 18.4551H13.3611V20.9993H15.9053V18.4551Z" fill="white"/>
    <path d="M18.4494 18.4551H15.9053V20.9993H18.4494V18.4551Z" fill="black"/>
    <path d="M20.9937 18.4551H18.4495V20.9993H20.9937V18.4551Z" fill="#FF9605"/>
    <path d="M23.5442 18.4551H21V20.9993H23.5442V18.4551Z" fill="#FFC522"/>
    <path d="M26.0883 18.4551H23.5442V20.9993H26.0883V18.4551Z" fill="#FFC522"/>
    <path d="M28.6326 18.4551H26.0884V20.9993H28.6326V18.4551Z" fill="#FFC522"/>
    <path d="M31.1767 18.4551H28.6326V20.9993H31.1767V18.4551Z" fill="#FFC522"/>
    <path d="M33.7221 18.4551H31.178V20.9993H33.7221V18.4551Z" fill="#FFC522"/>
    <path d="M36.2727 18.4551H33.7285V20.9993H36.2727V18.4551Z" fill="#FFC522"/>
    <path d="M38.8156 18.4551H36.2715V20.9993H38.8156V18.4551Z" fill="white"/>
    <path d="M41.3599 18.4551H38.8157V20.9993H41.3599V18.4551Z" fill="#FFC522"/>
    <path d="M43.9053 18.4551H41.3611V20.9993H43.9053V18.4551Z" fill="white"/>
    <path d="M46.4483 18.4551H43.9041V20.9993H46.4483V18.4551Z" fill="#FFC522"/>
    <path d="M48.9988 18.4551H46.4546V20.9993H48.9988V18.4551Z" fill="#FFC522"/>
    <path d="M51.5442 18.4551H49V20.9993H51.5442V18.4551Z" fill="#F2DE98"/>
    <path d="M54.0883 18.4551H51.5442V20.9993H54.0883V18.4551Z" fill="black"/>
    <path d="M56.6326 18.4551H54.0884V20.9993H56.6326V18.4551Z" fill="white"/>
    <path d="M13.361 21.001H10.8169V23.5452H13.361V21.001Z" fill="white"/>
    <path d="M15.9053 21.001H13.3611V23.5452H15.9053V21.001Z" fill="black"/>
    <path d="M18.4494 21.001H15.9053V23.5452H18.4494V21.001Z" fill="#FF9605"/>
    <path d="M20.9937 21.001H18.4495V23.5452H20.9937V21.001Z" fill="#FFC522"/>
    <path d="M23.5442 21.001H21V23.5452H23.5442V21.001Z" fill="#FFC522"/>
    <path d="M26.0883 21.001H23.5442V23.5452H26.0883V21.001Z" fill="#FFC522"/>
    <path d="M28.6326 21.001H26.0884V23.5452H28.6326V21.001Z" fill="#FFC522"/>
    <path d="M31.1767 21.001H28.6326V23.5452H31.1767V21.001Z" fill="#FFC522"/>
    <path d="M33.7221 21.001H31.178V23.5452H33.7221V21.001Z" fill="#FFC522"/>
    <path d="M36.2727 21.001H33.7285V23.5452H36.2727V21.001Z" fill="#FFC522"/>
    <path d="M38.8156 21.001H36.2715V23.5452H38.8156V21.001Z" fill="#FFC522"/>
    <path d="M41.3599 21.001H38.8157V23.5452H41.3599V21.001Z" fill="#FFC522"/>
    <path d="M43.9053 21.001H41.3611V23.5452H43.9053V21.001Z" fill="#FFC522"/>
    <path d="M46.4483 21.001H43.9041V23.5452H46.4483V21.001Z" fill="white"/>
    <path d="M48.9988 21.001H46.4546V23.5452H48.9988V21.001Z" fill="#FFC522"/>
    <path d="M51.5442 21.001H49V23.5452H51.5442V21.001Z" fill="#FFC522"/>
    <path d="M54.0883 21.001H51.5442V23.5452H54.0883V21.001Z" fill="#F2DE98"/>
    <path d="M56.6326 21.001H54.0884V23.5452H56.6326V21.001Z" fill="black"/>
    <path d="M59.1767 21.001H56.6326V23.5452H59.1767V21.001Z" fill="white"/>
    <path d="M13.361 23.5439H10.8169V26.0881H13.361V23.5439Z" fill="white"/>
    <path d="M15.9053 23.5439H13.3611V26.0881H15.9053V23.5439Z" fill="black"/>
    <path d="M18.4494 23.5439H15.9053V26.0881H18.4494V23.5439Z" fill="#FF9605"/>
    <path d="M20.9937 23.5439H18.4495V26.0881H20.9937V23.5439Z" fill="#FFC522"/>
    <path d="M23.5442 23.5439H21V26.0881H23.5442V23.5439Z" fill="#FFC522"/>
    <path d="M26.0883 23.5439H23.5442V26.0881H26.0883V23.5439Z" fill="#FFC522"/>
    <path d="M28.6326 23.5439H26.0884V26.0881H28.6326V23.5439Z" fill="#FFC522"/>
    <path d="M31.1767 23.5439H28.6326V26.0881H31.1767V23.5439Z" fill="#FFC522"/>
    <path d="M33.7221 23.5439H31.178V26.0881H33.7221V23.5439Z" fill="#FFC522"/>
    <path d="M36.2727 23.5439H33.7285V26.0881H36.2727V23.5439Z" fill="#FFC522"/>
    <path d="M38.8156 23.5439H36.2715V26.0881H38.8156V23.5439Z" fill="#FFC522"/>
    <path d="M41.3599 23.5439H38.8157V26.0881H41.3599V23.5439Z" fill="#FFC522"/>
    <path d="M43.9053 23.5439H41.3611V26.0881H43.9053V23.5439Z" fill="#FFC522"/>
    <path d="M46.4483 23.5439H43.9041V26.0881H46.4483V23.5439Z" fill="#FFC522"/>
    <path d="M48.9988 23.5439H46.4546V26.0881H48.9988V23.5439Z" fill="#FFC522"/>
    <path d="M51.5442 23.5439H49V26.0881H51.5442V23.5439Z" fill="#FFC522"/>
    <path d="M54.0883 23.5439H51.5442V26.0881H54.0883V23.5439Z" fill="#F2DE98"/>
    <path d="M56.6326 23.5439H54.0884V26.0881H56.6326V23.5439Z" fill="black"/>
    <path d="M59.1767 23.5439H56.6326V26.0881H59.1767V23.5439Z" fill="white"/>
    <path d="M10.8169 26.0879H8.27271V28.6321H10.8169V26.0879Z" fill="white"/>
    <path d="M13.361 26.0879H10.8169V28.6321H13.361V26.0879Z" fill="black"/>
    <path d="M15.9053 26.0879H13.3611V28.6321H15.9053V26.0879Z" fill="#1A1A1A"/>
    <path d="M18.4494 26.0879H15.9053V28.6321H18.4494V26.0879Z" fill="#1A1A1A"/>
    <path d="M20.9937 26.0879H18.4495V28.6321H20.9937V26.0879Z" fill="#1A1A1A"/>
    <path d="M23.5442 26.0879H21V28.6321H23.5442V26.0879Z" fill="#1A1A1A"/>
    <path d="M26.0883 26.0879H23.5442V28.6321H26.0883V26.0879Z" fill="#1A1A1A"/>
    <path d="M28.6326 26.0879H26.0884V28.6321H28.6326V26.0879Z" fill="#1A1A1A"/>
    <path d="M31.1767 26.0879H28.6326V28.6321H31.1767V26.0879Z" fill="#1A1A1A"/>
    <path d="M33.7221 26.0879H31.178V28.6321H33.7221V26.0879Z" fill="#1A1A1A"/>
    <path d="M36.2727 26.0879H33.7285V28.6321H36.2727V26.0879Z" fill="#1A1A1A"/>
    <path d="M38.8156 26.0879H36.2715V28.6321H38.8156V26.0879Z" fill="#1A1A1A"/>
    <path d="M41.3599 26.0879H38.8157V28.6321H41.3599V26.0879Z" fill="#1A1A1A"/>
    <path d="M43.9053 26.0879H41.3611V28.6321H43.9053V26.0879Z" fill="#1A1A1A"/>
    <path d="M46.4483 26.0879H43.9041V28.6321H46.4483V26.0879Z" fill="#1A1A1A"/>
    <path d="M48.9988 26.0879H46.4546V28.6321H48.9988V26.0879Z" fill="#1A1A1A"/>
    <path d="M51.5442 26.0879H49V28.6321H51.5442V26.0879Z" fill="#1A1A1A"/>
    <path d="M54.0883 26.0879H51.5442V28.6321H54.0883V26.0879Z" fill="#1A1A1A"/>
    <path d="M56.6326 26.0879H54.0884V28.6321H56.6326V26.0879Z" fill="#1A1A1A"/>
    <path d="M59.1767 26.0879H56.6326V28.6321H59.1767V26.0879Z" fill="black"/>
    <path d="M61.7273 26.0879H59.1831V28.6321H61.7273V26.0879Z" fill="white"/>
    <path d="M10.8169 28.6387H8.27271V31.1829H10.8169V28.6387Z" fill="white"/>
    <path d="M13.361 28.6387H10.8169V31.1829H13.361V28.6387Z" fill="black"/>
    <path d="M15.9053 28.6387H13.3611V31.1829H15.9053V28.6387Z" fill="#FF9605"/>
    <path d="M18.4494 28.6387H15.9053V31.1829H18.4494V28.6387Z" fill="black"/>
    <path d="M20.9937 28.6387H18.4495V31.1829H20.9937V28.6387Z" fill="#00A6E8"/>
    <path d="M23.5442 28.6387H21V31.1829H23.5442V28.6387Z" fill="#00A6E8"/>
    <path d="M26.0883 28.6387H23.5442V31.1829H26.0883V28.6387Z" fill="#00A6E8"/>
    <path d="M28.6326 28.6387H26.0884V31.1829H28.6326V28.6387Z" fill="#45B3E9"/>
    <path d="M31.1767 28.6387H28.6326V31.1829H31.1767V28.6387Z" fill="white"/>
    <path d="M33.7221 28.6387H31.178V31.1829H33.7221V28.6387Z" fill="black"/>
    <path d="M36.2727 28.6387H33.7285V31.1829H36.2727V28.6387Z" fill="black"/>
    <path d="M38.8156 28.6387H36.2715V31.1829H38.8156V28.6387Z" fill="black"/>
    <path d="M41.3599 28.6387H38.8157V31.1829H41.3599V28.6387Z" fill="#D62F73"/>
    <path d="M43.9053 28.6387H41.3611V31.1829H43.9053V28.6387Z" fill="#D62F73"/>
    <path d="M46.4483 28.6387H43.9041V31.1829H46.4483V28.6387Z" fill="#D62F73"/>
    <path d="M48.9988 28.6387H46.4546V31.1829H48.9988V28.6387Z" fill="#E05080"/>
    <path d="M51.5442 28.6387H49V31.1829H51.5442V28.6387Z" fill="white"/>
    <path d="M54.0883 28.6387H51.5442V31.1829H54.0883V28.6387Z" fill="black"/>
    <path d="M56.6326 28.6387H54.0884V31.1829H56.6326V28.6387Z" fill="#F2DE98"/>
    <path d="M59.1767 28.6387H56.6326V31.1829H59.1767V28.6387Z" fill="black"/>
    <path d="M61.7273 28.6387H59.1831V31.1829H61.7273V28.6387Z" fill="white"/>
    <path d="M10.8169 31.1826H8.27271V33.7268H10.8169V31.1826Z" fill="white"/>
    <path d="M13.361 31.1826H10.8169V33.7268H13.361V31.1826Z" fill="black"/>
    <path d="M15.9053 31.1826H13.3611V33.7268H15.9053V31.1826Z" fill="#FF9605"/>
    <path d="M18.4494 31.1826H15.9053V33.7268H18.4494V31.1826Z" fill="black"/>
    <path d="M20.9937 31.1826H18.4495V33.7268H20.9937V31.1826Z" fill="#00A6E8"/>
    <path d="M23.5442 31.1826H21V33.7268H23.5442V31.1826Z" fill="#00A6E8"/>
    <path d="M26.0883 31.1826H23.5442V33.7268H26.0883V31.1826Z" fill="#45B3E9"/>
    <path d="M28.6326 31.1826H26.0884V33.7268H28.6326V31.1826Z" fill="#45B3E9"/>
    <path d="M31.1767 31.1826H28.6326V33.7268H31.1767V31.1826Z" fill="#45B3E9"/>
    <path d="M33.7221 31.1826H31.178V33.7268H33.7221V31.1826Z" fill="#1A1A1A"/>
    <path d="M36.2727 31.1826H33.7285V33.7268H36.2727V31.1826Z" fill="#FFC522"/>
    <path d="M38.8156 31.1826H36.2715V33.7268H38.8156V31.1826Z" fill="black"/>
    <path d="M41.3599 31.1826H38.8157V33.7268H41.3599V31.1826Z" fill="#D62F73"/>
    <path d="M43.9053 31.1826H41.3611V33.7268H43.9053V31.1826Z" fill="#D62F73"/>
    <path d="M46.4483 31.1826H43.9041V33.7268H46.4483V31.1826Z" fill="#E05080"/>
    <path d="M48.9988 31.1826H46.4546V33.7268H48.9988V31.1826Z" fill="#E05080"/>
    <path d="M51.5442 31.1826H49V33.7268H51.5442V31.1826Z" fill="#E05080"/>
    <path d="M54.0883 31.1826H51.5442V33.7268H54.0883V31.1826Z" fill="#1A1A1A"/>
    <path d="M56.6326 31.1826H54.0884V33.7268H56.6326V31.1826Z" fill="#F2DE98"/>
    <path d="M59.1767 31.1826H56.6326V33.7268H59.1767V31.1826Z" fill="black"/>
    <path d="M61.7273 31.1826H59.1831V33.7268H61.7273V31.1826Z" fill="white"/>
    <path d="M10.8169 33.7285H8.27271V36.2727H10.8169V33.7285Z" fill="white"/>
    <path d="M13.361 33.7285H10.8169V36.2727H13.361V33.7285Z" fill="black"/>
    <path d="M15.9053 33.7285H13.3611V36.2727H15.9053V33.7285Z" fill="#FF9605"/>
    <path d="M18.4494 33.7285H15.9053V36.2727H18.4494V33.7285Z" fill="#FFC522"/>
    <path d="M20.9937 33.7285H18.4495V36.2727H20.9937V33.7285Z" fill="black"/>
    <path d="M23.5442 33.7285H21V36.2727H23.5442V33.7285Z" fill="#00A6E8"/>
    <path d="M26.0883 33.7285H23.5442V36.2727H26.0883V33.7285Z" fill="#00A6E8"/>
    <path d="M28.6326 33.7285H26.0884V36.2727H28.6326V33.7285Z" fill="#45B3E9"/>
    <path d="M31.1767 33.7285H28.6326V36.2727H31.1767V33.7285Z" fill="#1A1A1A"/>
    <path d="M33.7221 33.7285H31.178V36.2727H33.7221V33.7285Z" fill="#FFC522"/>
    <path d="M36.2727 33.7285H33.7285V36.2727H36.2727V33.7285Z" fill="#FFC522"/>
    <path d="M38.8156 33.7285H36.2715V36.2727H38.8156V33.7285Z" fill="#FFC522"/>
    <path d="M41.3599 33.7285H38.8157V36.2727H41.3599V33.7285Z" fill="black"/>
    <path d="M43.9053 33.7285H41.3611V36.2727H43.9053V33.7285Z" fill="#D62F73"/>
    <path d="M46.4483 33.7285H43.9041V36.2727H46.4483V33.7285Z" fill="#D62F73"/>
    <path d="M48.9988 33.7285H46.4546V36.2727H48.9988V33.7285Z" fill="#E05080"/>
    <path d="M51.5442 33.7285H49V36.2727H51.5442V33.7285Z" fill="#1A1A1A"/>
    <path d="M54.0883 33.7285H51.5442V36.2727H54.0883V33.7285Z" fill="#FFC522"/>
    <path d="M56.6326 33.7285H54.0884V36.2727H56.6326V33.7285Z" fill="#F2DE98"/>
    <path d="M59.1767 33.7285H56.6326V36.2727H59.1767V33.7285Z" fill="black"/>
    <path d="M61.7273 33.7285H59.1831V36.2727H61.7273V33.7285Z" fill="white"/>
    <path d="M10.8169 36.2725H8.27271V38.8166H10.8169V36.2725Z" fill="white"/>
    <path d="M13.361 36.2725H10.8169V38.8166H13.361V36.2725Z" fill="black"/>
    <path d="M15.9053 36.2725H13.3611V38.8166H15.9053V36.2725Z" fill="#FF9605"/>
    <path d="M18.4494 36.2725H15.9053V38.8166H18.4494V36.2725Z" fill="#FFC522"/>
    <path d="M20.9937 36.2725H18.4495V38.8166H20.9937V36.2725Z" fill="#FFC522"/>
    <path d="M23.5442 36.2725H21V38.8166H23.5442V36.2725Z" fill="#1A1A1A"/>
    <path d="M26.0883 36.2725H23.5442V38.8166H26.0883V36.2725Z" fill="#1A1A1A"/>
    <path d="M28.6326 36.2725H26.0884V38.8166H28.6326V36.2725Z" fill="#1A1A1A"/>
    <path d="M31.1767 36.2725H28.6326V38.8166H31.1767V36.2725Z" fill="#FFC522"/>
    <path d="M33.7221 36.2725H31.178V38.8166H33.7221V36.2725Z" fill="#FFC522"/>
    <path d="M36.2727 36.2725H33.7285V38.8166H36.2727V36.2725Z" fill="#FFC522"/>
    <path d="M38.8156 36.2725H36.2715V38.8166H38.8156V36.2725Z" fill="#FFC522"/>
    <path d="M41.3599 36.2725H38.8157V38.8166H41.3599V36.2725Z" fill="#FFC522"/>
    <path d="M43.9053 36.2725H41.3611V38.8166H43.9053V36.2725Z" fill="#1A1A1A"/>
    <path d="M46.4483 36.2725H43.9041V38.8166H46.4483V36.2725Z" fill="#1A1A1A"/>
    <path d="M48.9988 36.2725H46.4546V38.8166H48.9988V36.2725Z" fill="#1A1A1A"/>
    <path d="M51.5442 36.2725H49V38.8166H51.5442V36.2725Z" fill="#FFC522"/>
    <path d="M54.0883 36.2725H51.5442V38.8166H54.0883V36.2725Z" fill="#FFC522"/>
    <path d="M56.6326 36.2725H54.0884V38.8166H56.6326V36.2725Z" fill="#F2DE98"/>
    <path d="M59.1767 36.2725H56.6326V38.8166H59.1767V36.2725Z" fill="black"/>
    <path d="M61.7273 36.2725H59.1831V38.8166H61.7273V36.2725Z" fill="white"/>
    <path d="M10.8169 38.8164H8.27271V41.3606H10.8169V38.8164Z" fill="white"/>
    <path d="M13.361 38.8164H10.8169V41.3606H13.361V38.8164Z" fill="black"/>
    <path d="M15.9053 38.8164H13.3611V41.3606H15.9053V38.8164Z" fill="#FF9605"/>
    <path d="M18.4494 38.8164H15.9053V41.3606H18.4494V38.8164Z" fill="#FFC522"/>
    <path d="M20.9937 38.8164H18.4495V41.3606H20.9937V38.8164Z" fill="#FFC522"/>
    <path d="M23.5442 38.8164H21V41.3606H23.5442V38.8164Z" fill="#FFC522"/>
    <path d="M26.0883 38.8164H23.5442V41.3606H26.0883V38.8164Z" fill="#FFC522"/>
    <path d="M28.6326 38.8164H26.0884V41.3606H28.6326V38.8164Z" fill="#FFC522"/>
    <path d="M31.1767 38.8164H28.6326V41.3606H31.1767V38.8164Z" fill="#FFC522"/>
    <path d="M33.7221 38.8164H31.178V41.3606H33.7221V38.8164Z" fill="#FFC522"/>
    <path d="M36.2727 38.8164H33.7285V41.3606H36.2727V38.8164Z" fill="#FFC522"/>
    <path d="M38.8156 38.8164H36.2715V41.3606H38.8156V38.8164Z" fill="#FFC522"/>
    <path d="M41.3599 38.8164H38.8157V41.3606H41.3599V38.8164Z" fill="#FFC522"/>
    <path d="M43.9053 38.8164H41.3611V41.3606H43.9053V38.8164Z" fill="#FFC522"/>
    <path d="M46.4483 38.8164H43.9041V41.3606H46.4483V38.8164Z" fill="#FFC522"/>
    <path d="M48.9988 38.8164H46.4546V41.3606H48.9988V38.8164Z" fill="#FFC522"/>
    <path d="M51.5442 38.8164H49V41.3606H51.5442V38.8164Z" fill="#FFC522"/>
    <path d="M54.0883 38.8164H51.5442V41.3606H54.0883V38.8164Z" fill="#FFC522"/>
    <path d="M56.6326 38.8164H54.0884V41.3606H56.6326V38.8164Z" fill="#F2DE98"/>
    <path d="M59.1767 38.8164H56.6326V41.3606H59.1767V38.8164Z" fill="black"/>
    <path d="M61.7273 38.8164H59.1831V41.3606H61.7273V38.8164Z" fill="white"/>
    <path d="M10.8169 41.3672H8.27271V43.9114H10.8169V41.3672Z" fill="white"/>
    <path d="M13.361 41.3672H10.8169V43.9114H13.361V41.3672Z" fill="black"/>
    <path d="M15.9053 41.3672H13.3611V43.9114H15.9053V41.3672Z" fill="#FF9605"/>
    <path d="M18.4494 41.3672H15.9053V43.9114H18.4494V41.3672Z" fill="#FFC522"/>
    <path d="M20.9937 41.3672H18.4495V43.9114H20.9937V41.3672Z" fill="#FFC522"/>
    <path d="M23.5442 41.3672H21V43.9114H23.5442V41.3672Z" fill="#71382A"/>
    <path d="M26.0883 41.3672H23.5442V43.9114H26.0883V41.3672Z" fill="#71382A"/>
    <path d="M28.6326 41.3672H26.0884V43.9114H28.6326V41.3672Z" fill="#71382A"/>
    <path d="M31.1767 41.3672H28.6326V43.9114H31.1767V41.3672Z" fill="#71382A"/>
    <path d="M33.7221 41.3672H31.178V43.9114H33.7221V41.3672Z" fill="#71382A"/>
    <path d="M36.2727 41.3672H33.7285V43.9114H36.2727V41.3672Z" fill="#71382A"/>
    <path d="M38.8156 41.3672H36.2715V43.9114H38.8156V41.3672Z" fill="#71382A"/>
    <path d="M41.3599 41.3672H38.8157V43.9114H41.3599V41.3672Z" fill="#71382A"/>
    <path d="M43.9053 41.3672H41.3611V43.9114H43.9053V41.3672Z" fill="#71382A"/>
    <path d="M46.4483 41.3672H43.9041V43.9114H46.4483V41.3672Z" fill="#71382A"/>
    <path d="M48.9988 41.3672H46.4546V43.9114H48.9988V41.3672Z" fill="#71382A"/>
    <path d="M51.5442 41.3672H49V43.9114H51.5442V41.3672Z" fill="#FFC522"/>
    <path d="M54.0883 41.3672H51.5442V43.9114H54.0883V41.3672Z" fill="#FFC522"/>
    <path d="M56.6326 41.3672H54.0884V43.9114H56.6326V41.3672Z" fill="#F2DE98"/>
    <path d="M59.1767 41.3672H56.6326V43.9114H59.1767V41.3672Z" fill="black"/>
    <path d="M61.7273 41.3672H59.1831V43.9114H61.7273V41.3672Z" fill="white"/>
    <path d="M13.361 43.9131H10.8169V46.4573H13.361V43.9131Z" fill="white"/>
    <path d="M15.9053 43.9131H13.3611V46.4573H15.9053V43.9131Z" fill="black"/>
    <path d="M18.4494 43.9131H15.9053V46.4573H18.4494V43.9131Z" fill="#FF9605"/>
    <path d="M20.9937 43.9131H18.4495V46.4573H20.9937V43.9131Z" fill="#FFC522"/>
    <path d="M23.5442 43.9131H21V46.4573H23.5442V43.9131Z" fill="#71382A"/>
    <path d="M26.0883 43.9131H23.5442V46.4573H26.0883V43.9131Z" fill="white"/>
    <path d="M28.6326 43.9131H26.0884V46.4573H28.6326V43.9131Z" fill="white"/>
    <path d="M31.1767 43.9131H28.6326V46.4573H31.1767V43.9131Z" fill="white"/>
    <path d="M33.7221 43.9131H31.178V46.4573H33.7221V43.9131Z" fill="white"/>
    <path d="M36.2727 43.9131H33.7285V46.4573H36.2727V43.9131Z" fill="white"/>
    <path d="M38.8156 43.9131H36.2715V46.4573H38.8156V43.9131Z" fill="white"/>
    <path d="M41.3599 43.9131H38.8157V46.4573H41.3599V43.9131Z" fill="white"/>
    <path d="M43.9053 43.9131H41.3611V46.4573H43.9053V43.9131Z" fill="white"/>
    <path d="M46.4483 43.9131H43.9041V46.4573H46.4483V43.9131Z" fill="white"/>
    <path d="M48.9988 43.9131H46.4546V46.4573H48.9988V43.9131Z" fill="#71382A"/>
    <path d="M51.5442 43.9131H49V46.4573H51.5442V43.9131Z" fill="#FFC522"/>
    <path d="M54.0883 43.9131H51.5442V46.4573H54.0883V43.9131Z" fill="#F2DE98"/>
    <path d="M56.6326 43.9131H54.0884V46.4573H56.6326V43.9131Z" fill="black"/>
    <path d="M59.1767 43.9131H56.6326V46.4573H59.1767V43.9131Z" fill="white"/>
    <path d="M13.361 46.4551H10.8169V48.9993H13.361V46.4551Z" fill="white"/>
    <path d="M15.9053 46.4551H13.3611V48.9993H15.9053V46.4551Z" fill="black"/>
    <path d="M18.4494 46.4551H15.9053V48.9993H18.4494V46.4551Z" fill="#FF9605"/>
    <path d="M20.9937 46.4551H18.4495V48.9993H20.9937V46.4551Z" fill="#FFC522"/>
    <path d="M23.5442 46.4551H21V48.9993H23.5442V46.4551Z" fill="#FFC522"/>
    <path d="M26.0883 46.4551H23.5442V48.9993H26.0883V46.4551Z" fill="#71382A"/>
    <path d="M28.6326 46.4551H26.0884V48.9993H28.6326V46.4551Z" fill="white"/>
    <path d="M31.1767 46.4551H28.6326V48.9993H31.1767V46.4551Z" fill="white"/>
    <path d="M33.7221 46.4551H31.178V48.9993H33.7221V46.4551Z" fill="white"/>
    <path d="M36.2727 46.4551H33.7285V48.9993H36.2727V46.4551Z" fill="white"/>
    <path d="M38.8156 46.4551H36.2715V48.9993H38.8156V46.4551Z" fill="white"/>
    <path d="M41.3599 46.4551H38.8157V48.9993H41.3599V46.4551Z" fill="white"/>
    <path d="M43.9053 46.4551H41.3611V48.9993H43.9053V46.4551Z" fill="white"/>
    <path d="M46.4483 46.4551H43.9041V48.9993H46.4483V46.4551Z" fill="#71382A"/>
    <path d="M48.9988 46.4551H46.4546V48.9993H48.9988V46.4551Z" fill="#FFC522"/>
    <path d="M51.5442 46.4551H49V48.9993H51.5442V46.4551Z" fill="#FFC522"/>
    <path d="M54.0883 46.4551H51.5442V48.9993H54.0883V46.4551Z" fill="#F2DE98"/>
    <path d="M56.6326 46.4551H54.0884V48.9993H56.6326V46.4551Z" fill="black"/>
    <path d="M59.1767 46.4551H56.6326V48.9993H59.1767V46.4551Z" fill="white"/>
    <path d="M13.361 49H10.8169V51.5442H13.361V49Z" fill="white"/>
    <path d="M15.9053 49H13.3611V51.5442H15.9053V49Z" fill="white"/>
    <path d="M18.4494 49H15.9053V51.5442H18.4494V49Z" fill="black"/>
    <path d="M20.9937 49H18.4495V51.5442H20.9937V49Z" fill="#FF9605"/>
    <path d="M23.5442 49H21V51.5442H23.5442V49Z" fill="#FFC522"/>
    <path d="M26.0883 49H23.5442V51.5442H26.0883V49Z" fill="#FFC522"/>
    <path d="M28.6326 49H26.0884V51.5442H28.6326V49Z" fill="#71382A"/>
    <path d="M31.1767 49H28.6326V51.5442H31.1767V49Z" fill="#71382A"/>
    <path d="M33.7221 49H31.178V51.5442H33.7221V49Z" fill="#71382A"/>
    <path d="M36.2727 49H33.7285V51.5442H36.2727V49Z" fill="#71382A"/>
    <path d="M38.8156 49H36.2715V51.5442H38.8156V49Z" fill="#71382A"/>
    <path d="M41.3599 49H38.8157V51.5442H41.3599V49Z" fill="#71382A"/>
    <path d="M43.9053 49H41.3611V51.5442H43.9053V49Z" fill="#71382A"/>
    <path d="M46.4483 49H43.9041V51.5442H46.4483V49Z" fill="#FFC522"/>
    <path d="M48.9988 49H46.4546V51.5442H48.9988V49Z" fill="#FFC522"/>
    <path d="M51.5442 49H49V51.5442H51.5442V49Z" fill="#F2DE98"/>
    <path d="M54.0883 49H51.5442V51.5442H54.0883V49Z" fill="black"/>
    <path d="M56.6326 49H54.0884V51.5442H56.6326V49Z" fill="white"/>
    <path d="M59.1767 49H56.6326V51.5442H59.1767V49Z" fill="white"/>
    <path d="M15.9053 51.5439H13.3611V54.0881H15.9053V51.5439Z" fill="white"/>
    <path d="M18.4494 51.5439H15.9053V54.0881H18.4494V51.5439Z" fill="white"/>
    <path d="M20.9937 51.5439H18.4495V54.0881H20.9937V51.5439Z" fill="black"/>
    <path d="M23.5442 51.5439H21V54.0881H23.5442V51.5439Z" fill="#FF9605"/>
    <path d="M26.0883 51.5439H23.5442V54.0881H26.0883V51.5439Z" fill="#FF9605"/>
    <path d="M28.6326 51.5439H26.0884V54.0881H28.6326V51.5439Z" fill="#FFC522"/>
    <path d="M31.1767 51.5439H28.6326V54.0881H31.1767V51.5439Z" fill="#FFC522"/>
    <path d="M33.7221 51.5439H31.178V54.0881H33.7221V51.5439Z" fill="#FFC522"/>
    <path d="M36.2727 51.5439H33.7285V54.0881H36.2727V51.5439Z" fill="#FFC522"/>
    <path d="M38.8156 51.5439H36.2715V54.0881H38.8156V51.5439Z" fill="#FFC522"/>
    <path d="M41.3599 51.5439H38.8157V54.0881H41.3599V51.5439Z" fill="#FFC522"/>
    <path d="M43.9053 51.5439H41.3611V54.0881H43.9053V51.5439Z" fill="#FFC522"/>
    <path d="M46.4483 51.5439H43.9041V54.0881H46.4483V51.5439Z" fill="#F2DE98"/>
    <path d="M48.9988 51.5439H46.4546V54.0881H48.9988V51.5439Z" fill="#F2DE98"/>
    <path d="M51.5442 51.5439H49V54.0881H51.5442V51.5439Z" fill="black"/>
    <path d="M54.0883 51.5439H51.5442V54.0881H54.0883V51.5439Z" fill="white"/>
    <path d="M56.6326 51.5439H54.0884V54.0881H56.6326V51.5439Z" fill="white"/>
    <path d="M18.4494 54.0947H15.9053V56.6389H18.4494V54.0947Z" fill="white"/>
    <path d="M20.9937 54.0947H18.4495V56.6389H20.9937V54.0947Z" fill="white"/>
    <path d="M23.5442 54.0947H21V56.6389H23.5442V54.0947Z" fill="black"/>
    <path d="M26.0883 54.0947H23.5442V56.6389H26.0883V54.0947Z" fill="black"/>
    <path d="M28.6326 54.0947H26.0884V56.6389H28.6326V54.0947Z" fill="#FF9605"/>
    <path d="M31.1767 54.0947H28.6326V56.6389H31.1767V54.0947Z" fill="#FF9605"/>
    <path d="M33.7221 54.0947H31.178V56.6389H33.7221V54.0947Z" fill="#FF9605"/>
    <path d="M36.2727 54.0947H33.7285V56.6389H36.2727V54.0947Z" fill="#FF9605"/>
    <path d="M38.8156 54.0947H36.2715V56.6389H38.8156V54.0947Z" fill="#FF9605"/>
    <path d="M41.3599 54.0947H38.8157V56.6389H41.3599V54.0947Z" fill="#FF9605"/>
    <path d="M43.9053 54.0947H41.3611V56.6389H43.9053V54.0947Z" fill="#FF9605"/>
    <path d="M46.4483 54.0947H43.9041V56.6389H46.4483V54.0947Z" fill="black"/>
    <path d="M48.9988 54.0947H46.4546V56.6389H48.9988V54.0947Z" fill="black"/>
    <path d="M51.5442 54.0947H49V56.6389H51.5442V54.0947Z" fill="white"/>
    <path d="M54.0883 54.0947H51.5442V56.6389H54.0883V54.0947Z" fill="white"/>
    <path d="M20.9937 56.6396H18.4495V59.1838H20.9937V56.6396Z" fill="white"/>
    <path d="M23.5442 56.6396H21V59.1838H23.5442V56.6396Z" fill="white"/>
    <path d="M26.0883 56.6396H23.5442V59.1838H26.0883V56.6396Z" fill="white"/>
    <path d="M28.6326 56.6396H26.0884V59.1838H28.6326V56.6396Z" fill="black"/>
    <path d="M31.1767 56.6396H28.6326V59.1838H31.1767V56.6396Z" fill="black"/>
    <path d="M33.7221 56.6396H31.178V59.1838H33.7221V56.6396Z" fill="black"/>
    <path d="M36.2727 56.6396H33.7285V59.1838H36.2727V56.6396Z" fill="black"/>
    <path d="M38.8156 56.6396H36.2715V59.1838H38.8156V56.6396Z" fill="black"/>
    <path d="M41.3599 56.6396H38.8157V59.1838H41.3599V56.6396Z" fill="black"/>
    <path d="M43.9053 56.6396H41.3611V59.1838H43.9053V56.6396Z" fill="black"/>
    <path d="M46.4483 56.6396H43.9041V59.1838H46.4483V56.6396Z" fill="white"/>
    <path d="M48.9988 56.6396H46.4546V59.1838H48.9988V56.6396Z" fill="white"/>
    <path d="M51.5442 56.6396H49V59.1838H51.5442V56.6396Z" fill="white"/>
    <path d="M26.0883 59.1826H23.5442V61.7268H26.0883V59.1826Z" fill="white"/>
    <path d="M28.6326 59.1826H26.0884V61.7268H28.6326V59.1826Z" fill="white"/>
    <path d="M31.1767 59.1826H28.6326V61.7268H31.1767V59.1826Z" fill="white"/>
    <path d="M33.7221 59.1826H31.178V61.7268H33.7221V59.1826Z" fill="white"/>
    <path d="M36.2727 59.1826H33.7285V61.7268H36.2727V59.1826Z" fill="white"/>
    <path d="M38.8156 59.1826H36.2715V61.7268H38.8156V59.1826Z" fill="white"/>
    <path d="M41.3599 59.1826H38.8157V61.7268H41.3599V59.1826Z" fill="white"/>
    <path d="M43.9053 59.1826H41.3611V61.7268H43.9053V59.1826Z" fill="white"/>
    <path d="M46.4483 59.1826H43.9041V61.7268H46.4483V59.1826Z" fill="white"/>
</svg>
