<svg width="50" height="50" viewBox="0 0 50 50" fill="none" xmlns="http://www.w3.org/2000/svg">
    <path d="M16.0301 11.3638H13.6968V37.0304H16.0301V11.3638Z" fill="#D98100"/>
    <path d="M18.3636 11.3638H16.0303V37.0304H18.3636V11.3638Z" fill="#FFA219"/>
    <path d="M34.6969 11.3638H32.3635V16.0304H34.6969V11.3638Z" fill="#D98100"/>
    <path d="M20.6969 18.3638H18.3635V23.0304H20.6969V18.3638Z" fill="#D98100"/>
    <path d="M23.0301 18.3638H20.6968V23.0304H23.0301V18.3638Z" fill="#FFA219"/>
    <path d="M25.3636 11.3638H23.0303V37.0304H25.3636V11.3638Z" fill="#D98100"/>
    <path d="M27.6969 11.3638H25.3635V37.0304H27.6969V11.3638Z" fill="#FFA219"/>
    <path d="M34.6969 18.3638H32.3635V37.0304H34.6969V18.3638Z" fill="#D98100"/>
    <path d="M37.0304 11.3638H34.697V16.0304H37.0304V11.3638Z" fill="#FFA219"/>
    <path d="M37.0304 18.3638H34.697V37.0304H37.0304V18.3638Z" fill="#FFA219"/>
    <path d="M11.3634 9.03076H9.03003V11.3641H11.3634V9.03076Z" fill="black"/>
    <path d="M11.3634 6.69678H9.03003V9.03011H11.3634V6.69678Z" fill="white"/>
    <path d="M13.6969 9.03076H11.3635V11.3641H13.6969V9.03076Z" fill="#CCCCCC"/>
    <path d="M16.0301 9.03076H13.6968V11.3641H16.0301V9.03076Z" fill="#E6E6E6"/>
    <path d="M18.3636 9.03076H16.0303V11.3641H18.3636V9.03076Z" fill="#E6E6E6"/>
    <path d="M20.6969 9.03076H18.3635V11.3641H20.6969V9.03076Z" fill="#F2F2F2"/>
    <path d="M23.0301 9.03076H20.6968V11.3641H23.0301V9.03076Z" fill="#F2F2F2"/>
    <path d="M20.6969 11.3638H18.3635V13.6971H20.6969V11.3638Z" fill="#F2F2F2"/>
    <path d="M23.0301 11.3638H20.6968V13.6971H23.0301V11.3638Z" fill="white"/>
    <path d="M20.6969 13.6968H18.3635V16.0301H20.6969V13.6968Z" fill="#F2F2F2"/>
    <path d="M23.0301 13.6968H20.6968V16.0301H23.0301V13.6968Z" fill="white"/>
    <path d="M20.6969 16.0308H18.3635V18.3641H20.6969V16.0308Z" fill="#F2F2F2"/>
    <path d="M23.0301 16.0308H20.6968V18.3641H23.0301V16.0308Z" fill="#F2F2F2"/>
    <path d="M20.6969 23.0303H18.3635V25.3636H20.6969V23.0303Z" fill="#F2F2F2"/>
    <path d="M23.0301 23.0303H20.6968V25.3636H23.0301V23.0303Z" fill="white"/>
    <path d="M20.6969 25.3638H18.3635V27.6971H20.6969V25.3638Z" fill="#F2F2F2"/>
    <path d="M23.0301 25.3638H20.6968V27.6971H23.0301V25.3638Z" fill="white"/>
    <path d="M20.6969 27.6973H18.3635V30.0306H20.6969V27.6973Z" fill="#F2F2F2"/>
    <path d="M23.0301 27.6973H20.6968V30.0306H23.0301V27.6973Z" fill="white"/>
    <path d="M20.6969 30.0293H18.3635V32.3626H20.6969V30.0293Z" fill="#F2F2F2"/>
    <path d="M23.0301 30.0293H20.6968V32.3626H23.0301V30.0293Z" fill="white"/>
    <path d="M20.6969 32.3623H18.3635V34.6956H20.6969V32.3623Z" fill="#F2F2F2"/>
    <path d="M23.0301 32.3623H20.6968V34.6956H23.0301V32.3623Z" fill="#F2F2F2"/>
    <path d="M20.6969 34.6958H18.3635V37.0291H20.6969V34.6958Z" fill="#E6E6E6"/>
    <path d="M23.0301 34.6958H20.6968V37.0291H23.0301V34.6958Z" fill="#E6E6E6"/>
    <path d="M25.3636 9.03076H23.0303V11.3641H25.3636V9.03076Z" fill="#F2F2F2"/>
    <path d="M27.6969 9.03076H25.3635V11.3641H27.6969V9.03076Z" fill="white"/>
    <path d="M30.0301 9.03076H27.6968V11.3641H30.0301V9.03076Z" fill="white"/>
    <path d="M32.3636 9.03076H30.0303V11.3641H32.3636V9.03076Z" fill="white"/>
    <path d="M32.3636 11.3638H30.0303V13.6971H32.3636V11.3638Z" fill="white"/>
    <path d="M32.3636 13.6968H30.0303V16.0301H32.3636V13.6968Z" fill="white"/>
    <path d="M32.3636 16.0308H30.0303V18.3641H32.3636V16.0308Z" fill="white"/>
    <path d="M32.3636 18.3638H30.0303V20.6971H32.3636V18.3638Z" fill="white"/>
    <path d="M32.3636 20.6973H30.0303V23.0306H32.3636V20.6973Z" fill="white"/>
    <path d="M32.3636 23.0303H30.0303V25.3636H32.3636V23.0303Z" fill="white"/>
    <path d="M32.3636 25.3638H30.0303V27.6971H32.3636V25.3638Z" fill="white"/>
    <path d="M32.3636 27.6973H30.0303V30.0306H32.3636V27.6973Z" fill="white"/>
    <path d="M32.3636 30.0303H30.0303V32.3636H32.3636V30.0303Z" fill="white"/>
    <path d="M32.3636 32.3638H30.0303V34.6971H32.3636V32.3638Z" fill="white"/>
    <path d="M32.3636 34.6973H30.0303V37.0306H32.3636V34.6973Z" fill="#E6E6E6"/>
    <path d="M30.0301 11.3638H27.6968V13.6971H30.0301V11.3638Z" fill="white"/>
    <path d="M30.0301 13.6968H27.6968V16.0301H30.0301V13.6968Z" fill="white"/>
    <path d="M30.0301 16.0308H27.6968V18.3641H30.0301V16.0308Z" fill="white"/>
    <path d="M30.0301 18.3638H27.6968V20.6971H30.0301V18.3638Z" fill="white"/>
    <path d="M30.0301 20.6973H27.6968V23.0306H30.0301V20.6973Z" fill="white"/>
    <path d="M30.0301 23.0303H27.6968V25.3636H30.0301V23.0303Z" fill="white"/>
    <path d="M30.0301 25.3638H27.6968V27.6971H30.0301V25.3638Z" fill="white"/>
    <path d="M30.0301 27.6973H27.6968V30.0306H30.0301V27.6973Z" fill="white"/>
    <path d="M30.0301 30.0303H27.6968V32.3636H30.0301V30.0303Z" fill="white"/>
    <path d="M30.0301 32.3638H27.6968V34.6971H30.0301V32.3638Z" fill="white"/>
    <path d="M30.0301 34.6973H27.6968V37.0306H30.0301V34.6973Z" fill="#E6E6E6"/>
    <path d="M34.6969 9.03076H32.3635V11.3641H34.6969V9.03076Z" fill="white"/>
    <path d="M37.0301 9.03076H34.6968V11.3641H37.0301V9.03076Z" fill="white"/>
    <path d="M39.3634 9.03076H37.03V11.3641H39.3634V9.03076Z" fill="white"/>
    <path d="M11.3634 11.3638H9.03003V13.6971H11.3634V11.3638Z" fill="#CCCCCC"/>
    <path d="M11.3634 13.6968H9.03003V16.0301H11.3634V13.6968Z" fill="#CCCCCC"/>
    <path d="M11.3634 16.0308H9.03003V18.3641H11.3634V16.0308Z" fill="#CCCCCC"/>
    <path d="M11.3634 18.3638H9.03003V20.6971H11.3634V18.3638Z" fill="#CCCCCC"/>
    <path d="M11.3634 20.6973H9.03003V23.0306H11.3634V20.6973Z" fill="#CCCCCC"/>
    <path d="M11.3634 23.0303H9.03003V25.3636H11.3634V23.0303Z" fill="#CCCCCC"/>
    <path d="M11.3634 25.3638H9.03003V27.6971H11.3634V25.3638Z" fill="#CCCCCC"/>
    <path d="M11.3634 27.6973H9.03003V30.0306H11.3634V27.6973Z" fill="#CCCCCC"/>
    <path d="M11.3634 30.0303H9.03003V32.3636H11.3634V30.0303Z" fill="#CCCCCC"/>
    <path d="M11.3634 32.3638H9.03003V34.6971H11.3634V32.3638Z" fill="#CCCCCC"/>
    <path d="M11.3634 34.6973H9.03003V37.0306H11.3634V34.6973Z" fill="#CCCCCC"/>
    <path d="M13.6969 11.3638H11.3635V13.6971H13.6969V11.3638Z" fill="#E6E6E6"/>
    <path d="M13.6969 13.6968H11.3635V16.0301H13.6969V13.6968Z" fill="#E6E6E6"/>
    <path d="M13.6969 16.0308H11.3635V18.3641H13.6969V16.0308Z" fill="#E6E6E6"/>
    <path d="M13.6969 18.3638H11.3635V20.6971H13.6969V18.3638Z" fill="#E6E6E6"/>
    <path d="M13.6969 20.6973H11.3635V23.0306H13.6969V20.6973Z" fill="#E6E6E6"/>
    <path d="M13.6969 23.0303H11.3635V25.3636H13.6969V23.0303Z" fill="#E6E6E6"/>
    <path d="M13.6969 25.3638H11.3635V27.6971H13.6969V25.3638Z" fill="#E6E6E6"/>
    <path d="M13.6969 27.6973H11.3635V30.0306H13.6969V27.6973Z" fill="#E6E6E6"/>
    <path d="M13.6969 30.0303H11.3635V32.3636H13.6969V30.0303Z" fill="#E6E6E6"/>
    <path d="M13.6969 32.3638H11.3635V34.6971H13.6969V32.3638Z" fill="#E6E6E6"/>
    <path d="M13.6969 34.6973H11.3635V37.0306H13.6969V34.6973Z" fill="#CCCCCC"/>
    <path d="M13.6969 37.0303H11.3635V39.3636H13.6969V37.0303Z" fill="#CCCCCC"/>
    <path d="M16.0301 37.0303H13.6968V39.3636H16.0301V37.0303Z" fill="#CCCCCC"/>
    <path d="M18.3636 37.0303H16.0303V39.3636H18.3636V37.0303Z" fill="#CCCCCC"/>
    <path d="M20.6969 37.0303H18.3635V39.3636H20.6969V37.0303Z" fill="#CCCCCC"/>
    <path d="M23.0301 37.0303H20.6968V39.3636H23.0301V37.0303Z" fill="#CCCCCC"/>
    <path d="M25.3636 37.0303H23.0303V39.3636H25.3636V37.0303Z" fill="#CCCCCC"/>
    <path d="M27.6969 37.0303H25.3635V39.3636H27.6969V37.0303Z" fill="#CCCCCC"/>
    <path d="M30.0301 37.0303H27.6968V39.3636H30.0301V37.0303Z" fill="#CCCCCC"/>
    <path d="M32.3636 37.0303H30.0303V39.3636H32.3636V37.0303Z" fill="#CCCCCC"/>
    <path d="M34.6969 37.0303H32.3635V39.3636H34.6969V37.0303Z" fill="#CCCCCC"/>
    <path d="M37.0301 37.0303H34.6968V39.3636H37.0301V37.0303Z" fill="#CCCCCC"/>
    <path d="M39.3634 37.0303H37.03V39.3636H39.3634V37.0303Z" fill="#CCCCCC"/>
    <path d="M41.6969 37.0303H39.3635V39.3636H41.6969V37.0303Z" fill="#CCCCCC"/>
    <path d="M41.6969 34.6973H39.3635V37.0306H41.6969V34.6973Z" fill="#E6E6E6"/>
    <path d="M41.6969 32.3638H39.3635V34.6971H41.6969V32.3638Z" fill="white"/>
    <path d="M41.6969 30.0303H39.3635V32.3636H41.6969V30.0303Z" fill="white"/>
    <path d="M41.6969 27.6973H39.3635V30.0306H41.6969V27.6973Z" fill="white"/>
    <path d="M41.6969 25.3638H39.3635V27.6971H41.6969V25.3638Z" fill="white"/>
    <path d="M41.6969 23.0303H39.3635V25.3636H41.6969V23.0303Z" fill="white"/>
    <path d="M41.6969 20.6973H39.3635V23.0306H41.6969V20.6973Z" fill="white"/>
    <path d="M41.6969 18.3638H39.3635V20.6971H41.6969V18.3638Z" fill="white"/>
    <path d="M41.6969 16.0308H39.3635V18.3641H41.6969V16.0308Z" fill="white"/>
    <path d="M41.6969 13.6968H39.3635V16.0301H41.6969V13.6968Z" fill="white"/>
    <path d="M41.6969 11.3638H39.3635V13.6971H41.6969V11.3638Z" fill="white"/>
    <path d="M39.3634 11.3638H37.03V13.6971H39.3634V11.3638Z" fill="white"/>
    <path d="M39.3634 13.6968H37.03V16.0301H39.3634V13.6968Z" fill="white"/>
    <path d="M39.3634 16.0308H37.03V18.3641H39.3634V16.0308Z" fill="white"/>
    <path d="M37.0301 16.0308H34.6968V18.3641H37.0301V16.0308Z" fill="white"/>
    <path d="M34.6969 16.0308H32.3635V18.3641H34.6969V16.0308Z" fill="white"/>
    <path d="M39.3634 18.3638H37.03V20.6971H39.3634V18.3638Z" fill="white"/>
    <path d="M39.3634 20.6973H37.03V23.0306H39.3634V20.6973Z" fill="white"/>
    <path d="M39.3634 23.0303H37.03V25.3636H39.3634V23.0303Z" fill="white"/>
    <path d="M39.3634 25.3638H37.03V27.6971H39.3634V25.3638Z" fill="white"/>
    <path d="M39.3634 27.6973H37.03V30.0306H39.3634V27.6973Z" fill="white"/>
    <path d="M39.3634 30.0303H37.03V32.3636H39.3634V30.0303Z" fill="white"/>
    <path d="M39.3634 32.3638H37.03V34.6971H39.3634V32.3638Z" fill="white"/>
    <path d="M39.3634 34.6973H37.03V37.0306H39.3634V34.6973Z" fill="#E6E6E6"/>
    <path d="M11.3634 39.3638H9.03003V41.6971H11.3634V39.3638Z" fill="white"/>
    <path d="M11.3634 41.6973H9.03003V44.0306H11.3634V41.6973Z" fill="white"/>
    <path d="M44.0304 44.0303H41.697V46.3636H44.0304V44.0303Z" fill="white"/>
    <path d="M46.3634 44.0303H44.03V46.3636H46.3634V44.0303Z" fill="white"/>
    <path d="M41.6969 44.0303H39.3635V46.3636H41.6969V44.0303Z" fill="white"/>
    <path d="M46.3634 41.6973H44.03V44.0306H46.3634V41.6973Z" fill="white"/>
    <path d="M46.3634 39.3652H44.03V41.6986H46.3634V39.3652Z" fill="white"/>
    <path d="M44.0304 39.3638H41.697V41.6971H44.0304V39.3638Z" fill="white"/>
    <path d="M44.0304 9.03076H41.697V11.3641H44.0304V9.03076Z" fill="white"/>
    <path d="M41.6969 6.69678H39.3635V9.03011H41.6969V6.69678Z" fill="white"/>
    <path d="M39.3635 4.36377H11.3635V6.6971H39.3635V4.36377Z" fill="white"/>
    <path d="M46.3634 11.3638H44.03V39.3638H46.3634V11.3638Z" fill="white"/>
    <path d="M41.6969 41.6973H11.3635V44.0306H41.6969V41.6973Z" fill="white"/>
    <path d="M9.03035 37.0303H6.69702V39.3636H9.03035V37.0303Z" fill="white"/>
    <path d="M9.03035 39.3652H6.69702V41.6986H9.03035V39.3652Z" fill="white"/>
    <path d="M6.69686 37.0303H4.36353V39.3636H6.69686V37.0303Z" fill="white"/>
    <path d="M9.03035 9.03076H6.69702V11.3641H9.03035V9.03076Z" fill="white"/>
    <path d="M6.69686 11.3638H4.36353V37.0304H6.69686V11.3638Z" fill="white"/>
    <path d="M41.6969 9.03076H39.3635V11.3641H41.6969V9.03076Z" fill="black"/>
    <path d="M11.3634 37.0303H9.03003V39.3636H11.3634V37.0303Z" fill="black"/>
    <path d="M41.6969 39.3638H39.3635V41.6971H41.6969V39.3638Z" fill="black"/>
    <path d="M44.0304 41.6973H41.697V44.0306H44.0304V41.6973Z" fill="black"/>
    <path d="M39.3635 39.3638H11.3635V41.6971H39.3635V39.3638Z" fill="black"/>
    <path d="M9.03035 11.3638H6.69702V37.0304H9.03035V11.3638Z" fill="black"/>
    <path d="M44.0304 11.3638H41.697V39.3638H44.0304V11.3638Z" fill="black"/>
    <path d="M39.3635 6.69678H11.3635V9.03011H39.3635V6.69678Z" fill="black"/>
    <path d="M30.0291 32.3638H27.6958V34.6971H30.0291V32.3638Z" fill="#F2F2F2"/>
</svg>
