<svg width="70" height="70" viewBox="0 0 70 70" fill="none" xmlns="http://www.w3.org/2000/svg">
    <path d="M3.33334 6.6665H0V46.6666H3.33334V6.6665Z" fill="white"/>
    <path d="M60 6.6665H56.6667V46.6666H60V6.6665Z" fill="white"/>
    <path d="M6.66664 3.33301H3.33331V6.66635H6.66664V3.33301Z" fill="white"/>
    <path d="M6.66664 46.6665H3.33331V49.9998H6.66664V46.6665Z" fill="white"/>
    <path d="M30 50.0005H26.6666V53.3338H30V50.0005Z" fill="white"/>
    <path d="M33.3334 50.0005H30V53.3338H33.3334V50.0005Z" fill="white"/>
    <path d="M6.66664 50.0005H3.33331V53.3338H6.66664V50.0005Z" fill="white"/>
    <path d="M3.33334 46.6665H0V49.9998H3.33334V46.6665Z" fill="white"/>
    <path d="M60 46.6665H56.6667V49.9998H60V46.6665Z" fill="white"/>
    <path d="M56.6667 50.0005H53.3334V53.3338H56.6667V50.0005Z" fill="white"/>
    <path d="M56.6667 3.33301H53.3334V6.66635H56.6667V3.33301Z" fill="white"/>
    <path d="M56.6667 46.6665H53.3334V49.9998H56.6667V46.6665Z" fill="white"/>
    <path d="M33.3333 3.33301H26.6666V6.66635H33.3333V3.33301Z" fill="white"/>
    <path d="M33.3333 46.6665H26.6666V49.9998H33.3333V46.6665Z" fill="white"/>
    <path d="M26.6667 0H6.66662V3.33334H26.6667V0Z" fill="white"/>
    <path d="M53.3334 0H33.3334V3.33334H53.3334V0Z" fill="white"/>
    <path d="M26.6667 50.0005H6.66662V53.3338H26.6667V50.0005Z" fill="white"/>
    <path d="M53.3334 50.0005H33.3334V53.3338H53.3334V50.0005Z" fill="white"/>
    <path d="M23.3334 10.0005H10V43.3339H23.3334V10.0005Z" fill="white"/>
    <path d="M50.0001 10.0005H36.6667V43.3339H50.0001V10.0005Z" fill="white"/>
    <path d="M10 6.6665H6.66668V9.99984H10V6.6665Z" fill="#EEB81D"/>
    <path d="M10 10.0005H6.66668V13.3338H10V10.0005Z" fill="#BB891A"/>
    <path d="M13.3334 6.6665H10V9.99984H13.3334V6.6665Z" fill="#F0C915"/>
    <path d="M23.3334 16.6665H13.3334V19.9998H23.3334V16.6665Z" fill="#808080"/>
    <path d="M20 23.3335H13.3334V26.6668H20V23.3335Z" fill="#808080"/>
    <path d="M23.3334 30H13.3334V33.3333H23.3334V30Z" fill="#808080"/>
    <path d="M46.6668 16.6665H36.6667V19.9998H46.6668V16.6665Z" fill="#808080"/>
    <path d="M43.3334 23.3335H36.6667V26.6668H43.3334V23.3335Z" fill="#808080"/>
    <path d="M46.6668 30H36.6667V33.3333H46.6668V30Z" fill="#808080"/>
    <path d="M26.6667 6.6665H13.3334V9.99984H26.6667V6.6665Z" fill="#39A84A"/>
    <path d="M53.3334 6.6665H50.0001V9.99984H53.3334V6.6665Z" fill="#EEB81D"/>
    <path d="M53.3334 10.0005H50.0001V13.3338H53.3334V10.0005Z" fill="#BB891A"/>
    <path d="M53.3334 13.3335H50.0001V40.0002H53.3334V13.3335Z" fill="#39A84A"/>
    <path d="M10 13.3335H6.66668V40.0002H10V13.3335Z" fill="#39A84A"/>
    <path d="M50.0001 6.6665H46.6667V9.99984H50.0001V6.6665Z" fill="#F0C915"/>
    <path d="M46.6667 6.6665H33.3334V9.99984H46.6667V6.6665Z" fill="#39A84A"/>
    <path d="M26.6667 43.333H13.3334V46.6663H26.6667V43.333Z" fill="#39A84A"/>
    <path d="M46.6667 43.333H33.3334V46.6663H46.6667V43.333Z" fill="#39A84A"/>
    <path d="M10 43.333H6.66668V46.6663H10V43.333Z" fill="#EEB81D"/>
    <path d="M13.3334 43.333H10V46.6663H13.3334V43.333Z" fill="#F0C915"/>
    <path d="M10 40H6.66668V43.3333H10V40Z" fill="#BB891A"/>
    <path d="M53.3334 43.333H50.0001V46.6663H53.3334V43.333Z" fill="#EEB81D"/>
    <path d="M50.0001 43.333H46.6667V46.6663H50.0001V43.333Z" fill="#F0C915"/>
    <path d="M53.3334 40H50.0001V43.3333H53.3334V40Z" fill="#BB891A"/>
    <path d="M33.3333 6.6665H26.6666V9.99984H33.3333V6.6665Z" fill="black"/>
    <path d="M33.3333 43.333H26.6666V46.6663H33.3333V43.333Z" fill="black"/>
    <path d="M30 13.3335H26.6666V40.0002H30V13.3335Z" fill="#E6E6E6"/>
    <path d="M26.6667 13.3335H23.3334V40.0002H26.6667V13.3335Z" fill="white"/>
    <path d="M36.6667 13.3335H33.3334V40.0002H36.6667V13.3335Z" fill="white"/>
    <path d="M33.3334 13.3335H30.0001V40.0002H33.3334V13.3335Z" fill="#F2F2F2"/>
    <path d="M26.6667 3.33301H6.66668V6.66635H26.6667V3.33301Z" fill="black"/>
    <path d="M53.3334 3.33301H33.3334V6.66635H53.3334V3.33301Z" fill="black"/>
    <path d="M26.6667 46.6665H6.66668V49.9998H26.6667V46.6665Z" fill="black"/>
    <path d="M53.3334 46.6665H33.3334V49.9998H53.3334V46.6665Z" fill="black"/>
    <path d="M6.66671 6.6665H3.33337V46.6666H6.66671V6.6665Z" fill="black"/>
    <path d="M56.6668 6.6665H53.3334V46.6666H56.6668V6.6665Z" fill="black"/>
    <path d="M36.6668 10.0005H23.3334V13.3338H36.6668V10.0005Z" fill="#39A84A"/>
    <path d="M36.6668 40H23.3334V43.3333H36.6668V40Z" fill="#39A84A"/>
</svg>
