<svg width="70" height="70" viewBox="0 0 70 70" fill="none" xmlns="http://www.w3.org/2000/svg">
    <g>
        <path d="M18.6971 1.95361H16.8274V3.90746H18.6971V1.95361Z" fill="black"/>
        <path d="M18.6971 3.90771H16.8274V5.86156H18.6971V3.90771Z" fill="black"/>
        <path d="M44.8731 3.90771H18.6971V23.4462H44.8731V3.90771Z" fill="#F0C915"/>
        <path d="M43.0034 1.95361H18.6971V3.90746H43.0034V1.95361Z" fill="black"/>
        <path d="M18.6971 9.76904H16.8274V11.7229H18.6971V9.76904Z" fill="black"/>
        <path d="M18.6971 7.81543H16.8274V9.76928H18.6971V7.81543Z" fill="black"/>
        <path d="M18.6971 5.86133H16.8274V7.81517H18.6971V5.86133Z" fill="black"/>
        <path d="M18.6971 11.7231H16.8274V23.4462H18.6971V11.7231Z" fill="black"/>
        <path d="M20.5669 23.4463H18.6971V25.4001H20.5669V23.4463Z" fill="black"/>
        <path d="M20.5669 21.4922H18.6971V23.446H20.5669V21.4922Z" fill="#EEB81D"/>
        <path d="M22.4365 21.4922H20.5668V23.446H22.4365V21.4922Z" fill="#EEB81D"/>
        <path d="M24.3062 21.4922H22.4365V23.446H24.3062V21.4922Z" fill="#EEB81D"/>
        <path d="M26.176 21.4922H24.3063V23.446H26.176V21.4922Z" fill="#EEB81D"/>
        <path d="M28.0456 21.4922H26.1759V23.446H28.0456V21.4922Z" fill="#EEB81D"/>
        <path d="M20.5669 19.5386H18.6971V21.4924H20.5669V19.5386Z" fill="#EEB81D"/>
        <path d="M22.4365 19.5386H20.5668V21.4924H22.4365V19.5386Z" fill="#EEB81D"/>
        <path d="M22.4365 17.5845H20.5668V19.5383H22.4365V17.5845Z" fill="#EEB81D"/>
        <path d="M24.3062 19.5386H22.4365V21.4924H24.3062V19.5386Z" fill="#EEB81D"/>
        <path d="M20.5669 17.5845H18.6971V19.5383H20.5669V17.5845Z" fill="#EEB81D"/>
        <path d="M20.5669 3.90771H18.6971V17.5846H20.5669V3.90771Z" fill="#EEB81D"/>
        <path d="M44.873 3.90771H43.0033V17.5846H44.873V3.90771Z" fill="white"/>
        <path d="M22.4365 25.3999H20.5668V27.3537H22.4365V25.3999Z" fill="black"/>
        <path d="M24.3062 25.3999H22.4365V27.3537H24.3062V25.3999Z" fill="#BB891A"/>
        <path d="M26.176 25.3999H24.3063V27.3537H26.176V25.3999Z" fill="#BB891A"/>
        <path d="M26.176 27.354H24.3063V29.3079H26.176V27.354Z" fill="#BB891A"/>
        <path d="M5.60909 46.8921H3.73938V48.8459H5.60909V46.8921Z" fill="black"/>
        <path d="M3.73946 37.123H1.86975V46.8923H3.73946V37.123Z" fill="black"/>
        <path d="M7.47884 46.8921H5.60913V48.8459H7.47884V46.8921Z" fill="black"/>
        <path d="M9.34859 46.8921H7.47888V48.8459H9.34859V46.8921Z" fill="black"/>
        <path d="M9.34859 35.1694H7.47888V37.1233H9.34859V35.1694Z" fill="black"/>
        <path d="M9.34859 37.123H7.47888V39.0769H9.34859V37.123Z" fill="black"/>
        <path d="M9.34859 39.0771H7.47888V41.031H9.34859V39.0771Z" fill="black"/>
        <path d="M11.2182 39.0771H9.34851V41.031H11.2182V39.0771Z" fill="black"/>
        <path d="M9.34859 41.0308H7.47888V42.9846H9.34859V41.0308Z" fill="black"/>
        <path d="M11.2182 41.0308H9.34851V42.9846H11.2182V41.0308Z" fill="black"/>
        <path d="M11.2182 37.123H9.34851V39.0769H11.2182V37.123Z" fill="black"/>
        <path d="M22.4365 35.1694H20.5668V37.1233H22.4365V35.1694Z" fill="black"/>
        <path d="M22.4365 37.123H20.5668V39.0769H22.4365V37.123Z" fill="black"/>
        <path d="M22.4365 39.0771H20.5668V41.031H22.4365V39.0771Z" fill="black"/>
        <path d="M24.3062 39.0771H22.4365V41.031H24.3062V39.0771Z" fill="black"/>
        <path d="M22.4365 41.0308H20.5668V42.9846H22.4365V41.0308Z" fill="black"/>
        <path d="M24.3062 41.0308H22.4365V42.9846H24.3062V41.0308Z" fill="black"/>
        <path d="M24.3062 37.123H22.4365V39.0769H24.3062V37.123Z" fill="black"/>
        <path d="M11.2182 46.8921H9.34851V48.8459H11.2182V46.8921Z" fill="black"/>
        <path d="M13.088 37.123H11.2183V46.8923H13.088V37.123Z" fill="black"/>
        <path d="M18.6971 46.8921H16.8274V48.8459H18.6971V46.8921Z" fill="black"/>
        <path d="M16.8274 37.123H14.9576V46.8923H16.8274V37.123Z" fill="black"/>
        <path d="M20.5669 46.8921H18.6971V48.8459H20.5669V46.8921Z" fill="black"/>
        <path d="M22.4365 46.8921H20.5668V48.8459H22.4365V46.8921Z" fill="black"/>
        <path d="M7.47884 33.2153H5.60913V35.1692H7.47884V33.2153Z" fill="black"/>
        <path d="M9.34859 33.2153H7.47888V35.1692H9.34859V33.2153Z" fill="black"/>
        <path d="M20.5669 33.2153H18.6971V35.1692H20.5669V33.2153Z" fill="black"/>
        <path d="M22.4365 33.2153H20.5668V35.1692H22.4365V33.2153Z" fill="black"/>
        <path d="M24.3062 46.8921H22.4365V48.8459H24.3062V46.8921Z" fill="black"/>
        <path d="M5.60909 35.1694H3.73938V37.1233H5.60909V35.1694Z" fill="black"/>
        <path d="M5.60909 33.2153H3.73938V35.1692H5.60909V33.2153Z" fill="white"/>
        <path d="M3.73946 35.1694H1.86975V37.1233H3.73946V35.1694Z" fill="white"/>
        <path d="M3.73942 46.8921H0V48.8459H3.73942V46.8921Z" fill="white"/>
        <path d="M1.86971 37.123H0V46.8923H1.86971V37.123Z" fill="white"/>
        <path d="M7.47884 31.2617H5.60913V33.2156H7.47884V31.2617Z" fill="white"/>
        <path d="M9.34859 31.2617H7.47888V33.2156H9.34859V31.2617Z" fill="white"/>
        <path d="M20.5669 31.2617H18.6971V33.2156H20.5669V31.2617Z" fill="white"/>
        <path d="M22.4365 31.2617H20.5668V33.2156H22.4365V31.2617Z" fill="white"/>
        <path d="M26.1759 31.2617H22.4365V33.2156H26.1759V31.2617Z" fill="white"/>
        <path d="M46.7428 33.2153H24.3063V35.1692H46.7428V33.2153Z" fill="white"/>
        <path d="M24.3062 29.3076H20.5668V31.2615H24.3062V29.3076Z" fill="white"/>
        <path d="M22.4366 27.354H18.6971V29.3079H22.4366V27.354Z" fill="white"/>
        <path d="M20.5668 25.3999H16.8274V27.3537H20.5668V25.3999Z" fill="white"/>
        <path d="M18.6971 23.4463H14.9576V25.4001H18.6971V23.4463Z" fill="white"/>
        <path d="M46.7427 0H16.8274V1.95385H46.7427V0Z" fill="white"/>
        <path d="M14.9576 1.95398L14.9576 23.4463H16.8274V1.95398H14.9576Z" fill="white"/>
        <path d="M46.7427 1.95379V33.2153H48.6124V1.95379H46.7427Z" fill="white"/>
        <path d="M11.2182 33.2153H9.34851V35.1692H11.2182V33.2153Z" fill="white"/>
        <path d="M18.6971 33.2153H16.8274V35.1692H18.6971V33.2153Z" fill="white"/>
        <path d="M24.3062 33.2153H22.4365V35.1692H24.3062V33.2153Z" fill="white"/>
        <path d="M13.088 37.1233V35.1694H11.2183V37.1233H13.088Z" fill="white"/>
        <path d="M16.8274 37.1233V35.1694H14.9577V37.1233H16.8274Z" fill="white"/>
        <path d="M26.1759 37.1233V35.1694H24.3062V37.1233H26.1759Z" fill="white"/>
        <path d="M16.8274 46.8921H11.2183V48.8459H16.8274V46.8921Z" fill="white"/>
        <path d="M28.0457 46.8921H24.3063V48.8459H28.0457V46.8921Z" fill="white"/>
        <path d="M26.176 48.8462H1.86975V50.8H26.176V48.8462Z" fill="white"/>
        <path d="M14.9577 37.123H13.088V46.8923H14.9577V37.123Z" fill="white"/>
        <path d="M28.0456 37.123H26.1759V46.8923H28.0456V37.123Z" fill="white"/>
        <path d="M7.47884 35.1694H5.60913V37.1233H7.47884V35.1694Z" fill="white"/>
        <path d="M7.47884 37.123H5.60913V39.0769H7.47884V37.123Z" fill="white"/>
        <path d="M5.60909 37.123H3.73938V39.0769H5.60909V37.123Z" fill="white"/>
        <path d="M7.47884 39.0771H5.60913V41.031H7.47884V39.0771Z" fill="white"/>
        <path d="M5.60909 39.0771H3.73938V41.031H5.60909V39.0771Z" fill="white"/>
        <path d="M7.47884 41.0308H5.60913V42.9846H7.47884V41.0308Z" fill="white"/>
        <path d="M5.60909 41.0308H3.73938V42.9846H5.60909V41.0308Z" fill="white"/>
        <path d="M7.47884 42.9844H5.60913V44.9382H7.47884V42.9844Z" fill="white"/>
        <path d="M5.60909 42.9844H3.73938V44.9382H5.60909V42.9844Z" fill="white"/>
        <path d="M7.47884 44.9385H5.60913V46.8923H7.47884V44.9385Z" fill="white"/>
        <path d="M5.60909 44.9385H3.73938V46.8923H5.60909V44.9385Z" fill="white"/>
        <path d="M11.2182 42.9844H9.34851V44.9382H11.2182V42.9844Z" fill="white"/>
        <path d="M9.34859 42.9844H7.47888V44.9382H9.34859V42.9844Z" fill="white"/>
        <path d="M11.2182 44.9385H9.34851V46.8923H11.2182V44.9385Z" fill="white"/>
        <path d="M9.34859 44.9385H7.47888V46.8923H9.34859V44.9385Z" fill="white"/>
        <path d="M20.5669 35.1694H18.6971V37.1233H20.5669V35.1694Z" fill="white"/>
        <path d="M20.5669 37.123H18.6971V39.0769H20.5669V37.123Z" fill="white"/>
        <path d="M18.6971 37.123H16.8274V39.0769H18.6971V37.123Z" fill="white"/>
        <path d="M20.5669 39.0771H18.6971V41.031H20.5669V39.0771Z" fill="white"/>
        <path d="M18.6971 39.0771H16.8274V41.031H18.6971V39.0771Z" fill="white"/>
        <path d="M20.5669 41.0308H18.6971V42.9846H20.5669V41.0308Z" fill="white"/>
        <path d="M18.6971 41.0308H16.8274V42.9846H18.6971V41.0308Z" fill="white"/>
        <path d="M20.5669 42.9844H18.6971V44.9382H20.5669V42.9844Z" fill="white"/>
        <path d="M18.6971 42.9844H16.8274V44.9382H18.6971V42.9844Z" fill="white"/>
        <path d="M20.5669 44.9385H18.6971V46.8923H20.5669V44.9385Z" fill="white"/>
        <path d="M18.6971 44.9385H16.8274V46.8923H18.6971V44.9385Z" fill="white"/>
        <path d="M24.3062 42.9844H22.4365V44.9382H24.3062V42.9844Z" fill="white"/>
        <path d="M22.4365 42.9844H20.5668V44.9382H22.4365V42.9844Z" fill="white"/>
        <path d="M24.3062 44.9385H22.4365V46.8923H24.3062V44.9385Z" fill="white"/>
        <path d="M22.4365 44.9385H20.5668V46.8923H22.4365V44.9385Z" fill="white"/>
        <path d="M11.2182 35.1694H9.34851V37.1233H11.2182V35.1694Z" fill="black"/>
        <path d="M18.6971 35.1694H16.8274V37.1233H18.6971V35.1694Z" fill="black"/>
        <path d="M24.3062 35.1694H22.4365V37.1233H24.3062V35.1694Z" fill="black"/>
        <path d="M26.176 37.123H24.3063V46.8923H26.176V37.123Z" fill="black"/>
        <path d="M24.3062 27.354H22.4365V29.3079H24.3062V27.354Z" fill="black"/>
        <path d="M44.873 23.4463H28.0457V31.2617H44.873V23.4463Z" fill="#F0C915"/>
        <path d="M26.176 29.3076H24.3063V31.2615H26.176V29.3076Z" fill="black"/>
        <path d="M44.873 31.2617H28.0457V33.2156H44.873V31.2617Z" fill="black"/>
        <path d="M28.0456 25.3999H26.1759V33.2153H28.0456V25.3999Z" fill="black"/>
        <path d="M28.0456 23.4463H20.5668V25.4001H28.0456V23.4463Z" fill="black"/>
        <path d="M46.7428 1.95361H44.873V3.90746H46.7428V1.95361Z" fill="black"/>
        <path d="M46.7428 3.90771H44.873V33.2154H46.7428V3.90771Z" fill="black"/>
        <path d="M44.873 1.95361H43.0033V3.90746H44.873V1.95361Z" fill="black"/>
        <path d="M29.9154 21.4922H28.0457V31.2614H29.9154V21.4922Z" fill="#EEB81D"/>
        <path d="M31.7851 29.3076H29.9154V31.2615H31.7851V29.3076Z" fill="#EEB81D"/>
        <path d="M31.7851 27.354H29.9154V29.3079H31.7851V27.354Z" fill="#EEB81D"/>
        <path d="M33.6547 29.3076H31.785V31.2615H33.6547V29.3076Z" fill="#EEB81D"/>
        <path d="M35.5245 29.3076H33.6548V31.2615H35.5245V29.3076Z" fill="#EEB81D"/>
        <path d="M37.3942 29.3076H35.5245V31.2615H37.3942V29.3076Z" fill="#EEB81D"/>
        <path d="M39.2639 29.3076H37.3942V31.2615H39.2639V29.3076Z" fill="#EEB81D"/>
        <path d="M41.1336 29.3076H39.2639V31.2615H41.1336V29.3076Z" fill="#EEB81D"/>
        <path d="M43.0033 29.3076H41.1335V31.2615H43.0033V29.3076Z" fill="#EEB81D"/>
        <path d="M44.873 29.3076H43.0033V31.2615H44.873V29.3076Z" fill="#EEB81D"/>
        <path d="M33.6547 27.354H31.785V29.3079H33.6547V27.354Z" fill="#EEB81D"/>
        <path d="M31.7851 25.3999H29.9154V27.3537H31.7851V25.3999Z" fill="#EEB81D"/>
    </g>
</svg>
