<svg width="50" height="50" viewBox="0 0 50 50" fill="none" xmlns="http://www.w3.org/2000/svg">
    <g clip-path="url(#clip0_2090_31040)">
        <path d="M5.66672 11.7778H3.77783V13.6667H5.66672V11.7778Z" fill="black"/>
        <path d="M5.66672 9.88867H3.77783V11.7776H5.66672V9.88867Z" fill="white"/>
        <path d="M7.55539 11.7778H5.6665V13.6667H7.55539V11.7778Z" fill="#CCCCCC"/>
        <path d="M9.44455 11.7778H7.55566V13.6667H9.44455V11.7778Z" fill="#E6E6E6"/>
        <path d="M11.3332 11.7778H9.44434V13.6667H11.3332V11.7778Z" fill="#E6E6E6"/>
        <path d="M13.2224 11.7778H11.3335V13.6667H13.2224V11.7778Z" fill="#F2F2F2"/>
        <path d="M15.1111 11.7778H13.2222V13.6667H15.1111V11.7778Z" fill="#F2F2F2"/>
        <path d="M13.2224 13.6665H11.3335V15.5554H13.2224V13.6665Z" fill="#F2F2F2"/>
        <path d="M15.1111 13.6665H13.2222V15.5554H15.1111V13.6665Z" fill="white"/>
        <path d="M13.2224 15.5557H11.3335V17.4446H13.2224V15.5557Z" fill="#F2F2F2"/>
        <path d="M15.1111 15.5557H13.2222V17.4446H15.1111V15.5557Z" fill="white"/>
        <path d="M13.2224 17.4443H11.3335V19.3332H13.2224V17.4443Z" fill="#F2F2F2"/>
        <path d="M15.1111 17.4443H13.2222V19.3332H15.1111V17.4443Z" fill="#F2F2F2"/>
        <path d="M13.2224 23.1113H11.3335V25.0002H13.2224V23.1113Z" fill="#F2F2F2"/>
        <path d="M15.1111 23.1113H13.2222V25.0002H15.1111V23.1113Z" fill="white"/>
        <path d="M13.2224 25H11.3335V26.8889H13.2224V25Z" fill="#F2F2F2"/>
        <path d="M15.1111 25H13.2222V26.8889H15.1111V25Z" fill="white"/>
        <path d="M13.2224 26.8887H11.3335V28.7776H13.2224V26.8887Z" fill="#F2F2F2"/>
        <path d="M15.1111 26.8887H13.2222V28.7776H15.1111V26.8887Z" fill="white"/>
        <path d="M13.2224 28.7769H11.3335V30.6657H13.2224V28.7769Z" fill="#F2F2F2"/>
        <path d="M15.1111 28.7769H13.2222V30.6657H15.1111V28.7769Z" fill="white"/>
        <path d="M13.2224 30.6655H11.3335V32.5544H13.2224V30.6655Z" fill="#F2F2F2"/>
        <path d="M15.1111 30.6655H13.2222V32.5544H15.1111V30.6655Z" fill="#F2F2F2"/>
        <path d="M13.2224 32.5547H11.3335V34.4436H13.2224V32.5547Z" fill="#E6E6E6"/>
        <path d="M15.1111 32.5547H13.2222V34.4436H15.1111V32.5547Z" fill="#E6E6E6"/>
        <path d="M17.0002 11.7778H15.1113V13.6667H17.0002V11.7778Z" fill="#F2F2F2"/>
        <path d="M18.8889 11.7778H17V13.6667H18.8889V11.7778Z" fill="white"/>
        <path d="M20.7776 11.7778H18.8887V13.6667H20.7776V11.7778Z" fill="white"/>
        <path d="M22.6667 11.7778H20.7778V13.6667H22.6667V11.7778Z" fill="white"/>
        <path d="M22.6667 13.6665H20.7778V15.5554H22.6667V13.6665Z" fill="white"/>
        <path d="M22.6667 15.5557H20.7778V17.4446H22.6667V15.5557Z" fill="white"/>
        <path d="M22.6667 17.4443H20.7778V19.3332H22.6667V17.4443Z" fill="white"/>
        <path d="M22.6667 19.3335H20.7778V21.2224H22.6667V19.3335Z" fill="white"/>
        <path d="M22.6667 21.2222H20.7778V23.1111H22.6667V21.2222Z" fill="white"/>
        <path d="M22.6667 23.1113H20.7778V25.0002H22.6667V23.1113Z" fill="white"/>
        <path d="M22.6667 25H20.7778V26.8889H22.6667V25Z" fill="white"/>
        <path d="M22.6667 26.8887H20.7778V28.7776H22.6667V26.8887Z" fill="white"/>
        <path d="M22.6667 28.7778H20.7778V30.6667H22.6667V28.7778Z" fill="white"/>
        <path d="M22.6667 30.6665H20.7778V32.5554H22.6667V30.6665Z" fill="white"/>
        <path d="M22.6667 32.5557H20.7778V34.4446H22.6667V32.5557Z" fill="#E6E6E6"/>
        <path d="M20.7776 13.6665H18.8887V15.5554H20.7776V13.6665Z" fill="white"/>
        <path d="M20.7776 15.5557H18.8887V17.4446H20.7776V15.5557Z" fill="white"/>
        <path d="M20.7776 17.4443H18.8887V19.3332H20.7776V17.4443Z" fill="white"/>
        <path d="M20.7776 19.3335H18.8887V21.2224H20.7776V19.3335Z" fill="white"/>
        <path d="M20.7776 21.2222H18.8887V23.1111H20.7776V21.2222Z" fill="white"/>
        <path d="M20.7776 23.1113H18.8887V25.0002H20.7776V23.1113Z" fill="white"/>
        <path d="M20.7776 25H18.8887V26.8889H20.7776V25Z" fill="white"/>
        <path d="M20.7776 26.8887H18.8887V28.7776H20.7776V26.8887Z" fill="white"/>
        <path d="M20.7776 28.7778H18.8887V30.6667H20.7776V28.7778Z" fill="white"/>
        <path d="M20.7776 30.6665H18.8887V32.5554H20.7776V30.6665Z" fill="white"/>
        <path d="M20.7776 32.5557H18.8887V34.4446H20.7776V32.5557Z" fill="#E6E6E6"/>
        <path d="M24.5554 11.7778H22.6665V13.6667H24.5554V11.7778Z" fill="white"/>
        <path d="M26.4446 11.7778H24.5557V13.6667H26.4446V11.7778Z" fill="white"/>
        <path d="M28.3332 11.7778H26.4443V13.6667H28.3332V11.7778Z" fill="white"/>
        <path d="M30.2224 11.7778H28.3335V13.6667H30.2224V11.7778Z" fill="white"/>
        <path d="M32.1111 11.7778H30.2222V13.6667H32.1111V11.7778Z" fill="white"/>
        <path d="M34.0002 11.7778H32.1113V13.6667H34.0002V11.7778Z" fill="white"/>
        <path d="M35.8889 11.7778H34V13.6667H35.8889V11.7778Z" fill="white"/>
        <path d="M37.7776 11.7778H35.8887V13.6667H37.7776V11.7778Z" fill="white"/>
        <path d="M39.6667 11.7778H37.7778V13.6667H39.6667V11.7778Z" fill="white"/>
        <path d="M41.5554 11.7778H39.6665V13.6667H41.5554V11.7778Z" fill="white"/>
        <path d="M43.4446 11.7778H41.5557V13.6667H43.4446V11.7778Z" fill="white"/>
        <path d="M5.66672 13.6665H3.77783V15.5554H5.66672V13.6665Z" fill="#CCCCCC"/>
        <path d="M5.66672 15.5557H3.77783V17.4446H5.66672V15.5557Z" fill="#CCCCCC"/>
        <path d="M5.66672 17.4443H3.77783V19.3332H5.66672V17.4443Z" fill="#CCCCCC"/>
        <path d="M5.66672 19.3335H3.77783V21.2224H5.66672V19.3335Z" fill="#CCCCCC"/>
        <path d="M5.66672 21.2222H3.77783V23.1111H5.66672V21.2222Z" fill="#CCCCCC"/>
        <path d="M5.66672 23.1113H3.77783V25.0002H5.66672V23.1113Z" fill="#CCCCCC"/>
        <path d="M5.66672 25H3.77783V26.8889H5.66672V25Z" fill="#CCCCCC"/>
        <path d="M5.66672 26.8887H3.77783V28.7776H5.66672V26.8887Z" fill="#CCCCCC"/>
        <path d="M5.66672 28.7778H3.77783V30.6667H5.66672V28.7778Z" fill="#CCCCCC"/>
        <path d="M5.66672 30.6665H3.77783V32.5554H5.66672V30.6665Z" fill="#CCCCCC"/>
        <path d="M5.66672 32.5557H3.77783V34.4446H5.66672V32.5557Z" fill="#CCCCCC"/>
        <path d="M7.55539 13.6665H5.6665V15.5554H7.55539V13.6665Z" fill="#E6E6E6"/>
        <path d="M7.55539 15.5557H5.6665V17.4446H7.55539V15.5557Z" fill="#E6E6E6"/>
        <path d="M7.55539 17.4443H5.6665V19.3332H7.55539V17.4443Z" fill="#E6E6E6"/>
        <path d="M7.55539 19.3335H5.6665V21.2224H7.55539V19.3335Z" fill="#E6E6E6"/>
        <path d="M7.55539 21.2222H5.6665V23.1111H7.55539V21.2222Z" fill="#E6E6E6"/>
        <path d="M7.55539 23.1113H5.6665V25.0002H7.55539V23.1113Z" fill="#E6E6E6"/>
        <path d="M7.55539 25H5.6665V26.8889H7.55539V25Z" fill="#E6E6E6"/>
        <path d="M7.55539 26.8887H5.6665V28.7776H7.55539V26.8887Z" fill="#E6E6E6"/>
        <path d="M7.55539 28.7778H5.6665V30.6667H7.55539V28.7778Z" fill="#E6E6E6"/>
        <path d="M7.55539 30.6665H5.6665V32.5554H7.55539V30.6665Z" fill="#E6E6E6"/>
        <path d="M7.55539 32.5557H5.6665V34.4446H7.55539V32.5557Z" fill="#CCCCCC"/>
        <path d="M9.44455 13.6665H7.55566V15.5554H9.44455V13.6665Z" fill="#49CE58"/>
        <path d="M9.44455 15.5557H7.55566V17.4446H9.44455V15.5557Z" fill="#49CE58"/>
        <path d="M9.44455 17.4443H7.55566V19.3332H9.44455V17.4443Z" fill="#49CE58"/>
        <path d="M9.44455 19.3335H7.55566V21.2224H9.44455V19.3335Z" fill="#49CE58"/>
        <path d="M9.44455 21.2222H7.55566V23.1111H9.44455V21.2222Z" fill="#49CE58"/>
        <path d="M9.44455 23.1113H7.55566V25.0002H9.44455V23.1113Z" fill="#49CE58"/>
        <path d="M9.44455 25H7.55566V26.8889H9.44455V25Z" fill="#49CE58"/>
        <path d="M9.44455 26.8887H7.55566V28.7776H9.44455V26.8887Z" fill="#49CE58"/>
        <path d="M9.44455 28.7778H7.55566V30.6667H9.44455V28.7778Z" fill="#49CE58"/>
        <path d="M9.44455 30.6665H7.55566V32.5554H9.44455V30.6665Z" fill="#49CE58"/>
        <path d="M9.44455 32.5557H7.55566V34.4446H9.44455V32.5557Z" fill="#CCCCCC"/>
        <path d="M11.3332 13.6665H9.44434V15.5554H11.3332V13.6665Z" fill="#49CE58"/>
        <path d="M11.3332 15.5557H9.44434V17.4446H11.3332V15.5557Z" fill="#E6E6E6"/>
        <path d="M11.3332 17.4443H9.44434V19.3332H11.3332V17.4443Z" fill="#E6E6E6"/>
        <path d="M11.3332 19.3335H9.44434V21.2224H11.3332V19.3335Z" fill="#E6E6E6"/>
        <path d="M11.3332 21.2222H9.44434V23.1111H11.3332V21.2222Z" fill="#E6E6E6"/>
        <path d="M11.3332 23.1113H9.44434V25.0002H11.3332V23.1113Z" fill="#E6E6E6"/>
        <path d="M11.3332 25H9.44434V26.8889H11.3332V25Z" fill="#E6E6E6"/>
        <path d="M11.3332 26.8887H9.44434V28.7776H11.3332V26.8887Z" fill="#E6E6E6"/>
        <path d="M11.3332 28.7778H9.44434V30.6667H11.3332V28.7778Z" fill="#E6E6E6"/>
        <path d="M11.3332 30.6665H9.44434V32.5554H11.3332V30.6665Z" fill="#49CE58"/>
        <path d="M11.3332 32.5557H9.44434V34.4446H11.3332V32.5557Z" fill="#CCCCCC"/>
        <path d="M13.2224 13.6665H11.3335V15.5554H13.2224V13.6665Z" fill="#F2F2F2"/>
        <path d="M13.2224 15.5557H11.3335V17.4446H13.2224V15.5557Z" fill="#49CE58"/>
        <path d="M13.2224 17.4443H11.3335V19.3332H13.2224V17.4443Z" fill="#F2F2F2"/>
        <path d="M13.2224 19.3335H11.3335V21.2224H13.2224V19.3335Z" fill="#F2F2F2"/>
        <path d="M13.2224 21.2222H11.3335V23.1111H13.2224V21.2222Z" fill="#F2F2F2"/>
        <path d="M13.2224 23.1113H11.3335V25.0002H13.2224V23.1113Z" fill="#F2F2F2"/>
        <path d="M13.2224 25H11.3335V26.8889H13.2224V25Z" fill="#F2F2F2"/>
        <path d="M13.2224 26.8887H11.3335V28.7776H13.2224V26.8887Z" fill="#F2F2F2"/>
        <path d="M13.2224 28.7778H11.3335V30.6667H13.2224V28.7778Z" fill="#49CE58"/>
        <path d="M13.2224 30.6665H11.3335V32.5554H13.2224V30.6665Z" fill="#F2F2F2"/>
        <path d="M13.2224 32.5557H11.3335V34.4446H13.2224V32.5557Z" fill="#F2F2F2"/>
        <path d="M15.1111 13.6665H13.2222V15.5554H15.1111V13.6665Z" fill="#F2F2F2"/>
        <path d="M15.1111 15.5557H13.2222V17.4446H15.1111V15.5557Z" fill="#F2F2F2"/>
        <path d="M15.1111 17.4443H13.2222V19.3332H15.1111V17.4443Z" fill="#49CE58"/>
        <path d="M15.1111 19.3335H13.2222V21.2224H15.1111V19.3335Z" fill="#49CE58"/>
        <path d="M15.1111 21.2222H13.2222V23.1111H15.1111V21.2222Z" fill="#49CE58"/>
        <path d="M15.1111 23.1113H13.2222V25.0002H15.1111V23.1113Z" fill="#49CE58"/>
        <path d="M15.1111 25H13.2222V26.8889H15.1111V25Z" fill="#49CE58"/>
        <path d="M15.1111 26.8887H13.2222V28.7776H15.1111V26.8887Z" fill="#49CE58"/>
        <path d="M15.1111 28.7778H13.2222V30.6667H15.1111V28.7778Z" fill="#F2F2F2"/>
        <path d="M15.1111 30.6665H13.2222V32.5554H15.1111V30.6665Z" fill="#F2F2F2"/>
        <path d="M15.1111 32.5557H13.2222V34.4446H15.1111V32.5557Z" fill="#F2F2F2"/>
        <path d="M17.0002 13.6665H15.1113V15.5554H17.0002V13.6665Z" fill="#F2F2F2"/>
        <path d="M17.0002 15.5557H15.1113V17.4446H17.0002V15.5557Z" fill="#F2F2F2"/>
        <path d="M17.0002 17.4443H15.1113V19.3332H17.0002V17.4443Z" fill="#F2F2F2"/>
        <path d="M17.0002 19.3335H15.1113V21.2224H17.0002V19.3335Z" fill="#F2F2F2"/>
        <path d="M17.0002 21.2222H15.1113V23.1111H17.0002V21.2222Z" fill="#F2F2F2"/>
        <path d="M17.0002 23.1113H15.1113V25.0002H17.0002V23.1113Z" fill="#F2F2F2"/>
        <path d="M17.0002 25H15.1113V26.8889H17.0002V25Z" fill="#F2F2F2"/>
        <path d="M17.0002 26.8887H15.1113V28.7776H17.0002V26.8887Z" fill="#F2F2F2"/>
        <path d="M17.0002 28.7778H15.1113V30.6667H17.0002V28.7778Z" fill="#F2F2F2"/>
        <path d="M17.0002 30.6665H15.1113V32.5554H17.0002V30.6665Z" fill="#F2F2F2"/>
        <path d="M17.0002 32.5557H15.1113V34.4446H17.0002V32.5557Z" fill="#F2F2F2"/>
        <path d="M18.8889 13.6665H17V15.5554H18.8889V13.6665Z" fill="white"/>
        <path d="M18.8889 15.5557H17V17.4446H18.8889V15.5557Z" fill="#49CE58"/>
        <path d="M18.8889 17.4443H17V19.3332H18.8889V17.4443Z" fill="#49CE58"/>
        <path d="M18.8889 19.3335H17V21.2224H18.8889V19.3335Z" fill="#49CE58"/>
        <path d="M18.8889 21.2222H17V23.1111H18.8889V21.2222Z" fill="#49CE58"/>
        <path d="M18.8889 23.1113H17V25.0002H18.8889V23.1113Z" fill="#49CE58"/>
        <path d="M18.8889 25H17V26.8889H18.8889V25Z" fill="#49CE58"/>
        <path d="M18.8889 26.8887H17V28.7776H18.8889V26.8887Z" fill="#49CE58"/>
        <path d="M18.8889 28.7778H17V30.6667H18.8889V28.7778Z" fill="#49CE58"/>
        <path d="M18.8889 30.6665H17V32.5554H18.8889V30.6665Z" fill="white"/>
        <path d="M18.8889 32.5557H17V34.4446H18.8889V32.5557Z" fill="white"/>
        <path d="M20.7776 13.6665H18.8887V15.5554H20.7776V13.6665Z" fill="#49CE58"/>
        <path d="M20.7776 15.5557H18.8887V17.4446H20.7776V15.5557Z" fill="white"/>
        <path d="M20.7776 17.4443H18.8887V19.3332H20.7776V17.4443Z" fill="white"/>
        <path d="M20.7776 19.3335H18.8887V21.2224H20.7776V19.3335Z" fill="white"/>
        <path d="M20.7776 21.2222H18.8887V23.1111H20.7776V21.2222Z" fill="white"/>
        <path d="M20.7776 23.1113H18.8887V25.0002H20.7776V23.1113Z" fill="white"/>
        <path d="M20.7776 25H18.8887V26.8889H20.7776V25Z" fill="white"/>
        <path d="M20.7776 26.8887H18.8887V28.7776H20.7776V26.8887Z" fill="white"/>
        <path d="M20.7776 28.7778H18.8887V30.6667H20.7776V28.7778Z" fill="white"/>
        <path d="M20.7776 30.6665H18.8887V32.5554H20.7776V30.6665Z" fill="#E6E6E6"/>
        <path d="M20.7776 32.5557H18.8887V34.4446H20.7776V32.5557Z" fill="white"/>
        <path d="M22.6667 13.6665H20.7778V15.5554H22.6667V13.6665Z" fill="#49CE58"/>
        <path d="M22.6667 15.5557H20.7778V17.4446H22.6667V15.5557Z" fill="white"/>
        <path d="M22.6667 17.4443H20.7778V19.3332H22.6667V17.4443Z" fill="white"/>
        <path d="M22.6667 19.3335H20.7778V21.2224H22.6667V19.3335Z" fill="white"/>
        <path d="M22.6667 21.2222H20.7778V23.1111H22.6667V21.2222Z" fill="white"/>
        <path d="M22.6667 23.1113H20.7778V25.0002H22.6667V23.1113Z" fill="white"/>
        <path d="M22.6667 25H20.7778V26.8889H22.6667V25Z" fill="white"/>
        <path d="M22.6667 26.8887H20.7778V28.7776H22.6667V26.8887Z" fill="white"/>
        <path d="M22.6667 28.7778H20.7778V30.6667H22.6667V28.7778Z" fill="white"/>
        <path d="M22.6667 30.6665H20.7778V32.5554H22.6667V30.6665Z" fill="#49CE58"/>
        <path d="M22.6667 32.5557H20.7778V34.4446H22.6667V32.5557Z" fill="white"/>
        <path d="M24.5554 13.6665H22.6665V15.5554H24.5554V13.6665Z" fill="white"/>
        <path d="M24.5554 15.5557H22.6665V17.4446H24.5554V15.5557Z" fill="#49CE58"/>
        <path d="M24.5554 17.4443H22.6665V19.3332H24.5554V17.4443Z" fill="#E6E6E6"/>
        <path d="M24.5554 19.3335H22.6665V21.2224H24.5554V19.3335Z" fill="#49CE58"/>
        <path d="M24.5554 21.2222H22.6665V23.1111H24.5554V21.2222Z" fill="#49CE58"/>
        <path d="M24.5554 23.1113H22.6665V25.0002H24.5554V23.1113Z" fill="#49CE58"/>
        <path d="M24.5554 25H22.6665V26.8889H24.5554V25Z" fill="#49CE58"/>
        <path d="M24.5554 26.8887H22.6665V28.7776H24.5554V26.8887Z" fill="#49CE58"/>
        <path d="M24.5554 28.7778H22.6665V30.6667H24.5554V28.7778Z" fill="#49CE58"/>
        <path d="M24.5554 30.6665H22.6665V32.5554H24.5554V30.6665Z" fill="white"/>
        <path d="M24.5554 32.5557H22.6665V34.4446H24.5554V32.5557Z" fill="white"/>
        <path d="M26.4446 13.6665H24.5557V15.5554H26.4446V13.6665Z" fill="white"/>
        <path d="M26.4446 15.5557H24.5557V17.4446H26.4446V15.5557Z" fill="white"/>
        <path d="M26.4446 17.4443H24.5557V19.3332H26.4446V17.4443Z" fill="#E6E6E6"/>
        <path d="M26.4446 19.3335H24.5557V21.2224H26.4446V19.3335Z" fill="white"/>
        <path d="M26.4446 21.2222H24.5557V23.1111H26.4446V21.2222Z" fill="white"/>
        <path d="M26.4446 23.1113H24.5557V25.0002H26.4446V23.1113Z" fill="white"/>
        <path d="M26.4446 25H24.5557V26.8889H26.4446V25Z" fill="white"/>
        <path d="M26.4446 26.8887H24.5557V28.7776H26.4446V26.8887Z" fill="white"/>
        <path d="M26.4446 28.7778H24.5557V30.6667H26.4446V28.7778Z" fill="white"/>
        <path d="M26.4446 30.6665H24.5557V32.5554H26.4446V30.6665Z" fill="white"/>
        <path d="M26.4446 32.5557H24.5557V34.4446H26.4446V32.5557Z" fill="white"/>
        <path d="M7.55539 34.4443H5.6665V36.3332H7.55539V34.4443Z" fill="#CCCCCC"/>
        <path d="M9.44455 34.4443H7.55566V36.3332H9.44455V34.4443Z" fill="#CCCCCC"/>
        <path d="M11.3332 34.4443H9.44434V36.3332H11.3332V34.4443Z" fill="#CCCCCC"/>
        <path d="M13.2224 34.4443H11.3335V36.3332H13.2224V34.4443Z" fill="#CCCCCC"/>
        <path d="M15.1111 34.4443H13.2222V36.3332H15.1111V34.4443Z" fill="#CCCCCC"/>
        <path d="M17.0002 34.4443H15.1113V36.3332H17.0002V34.4443Z" fill="#CCCCCC"/>
        <path d="M18.8889 34.4443H17V36.3332H18.8889V34.4443Z" fill="#CCCCCC"/>
        <path d="M20.7776 34.4443H18.8887V36.3332H20.7776V34.4443Z" fill="#CCCCCC"/>
        <path d="M22.6667 34.4443H20.7778V36.3332H22.6667V34.4443Z" fill="#CCCCCC"/>
        <path d="M24.5554 34.4443H22.6665V36.3332H24.5554V34.4443Z" fill="#CCCCCC"/>
        <path d="M26.4446 34.4443H24.5557V36.3332H26.4446V34.4443Z" fill="#CCCCCC"/>
        <path d="M28.3332 34.4443H26.4443V36.3332H28.3332V34.4443Z" fill="#CCCCCC"/>
        <path d="M45.3335 34.4443H28.3335V36.3332H45.3335V34.4443Z" fill="#CCCCCC"/>
        <path d="M30.2224 32.5557H28.3335V34.4446H30.2224V32.5557Z" fill="#E6E6E6"/>
        <path d="M30.2224 30.6665H28.3335V32.5554H30.2224V30.6665Z" fill="white"/>
        <path d="M30.2224 28.7778H28.3335V30.6667H30.2224V28.7778Z" fill="white"/>
        <path d="M30.2224 26.8887H28.3335V28.7776H30.2224V26.8887Z" fill="white"/>
        <path d="M30.2224 25H28.3335V26.8889H30.2224V25Z" fill="white"/>
        <path d="M30.2224 23.1113H28.3335V25.0002H30.2224V23.1113Z" fill="white"/>
        <path d="M30.2224 21.2222H28.3335V23.1111H30.2224V21.2222Z" fill="white"/>
        <path d="M30.2224 19.3335H28.3335V21.2224H30.2224V19.3335Z" fill="#49CE58"/>
        <path d="M30.2224 17.4443H28.3335V19.3332H30.2224V17.4443Z" fill="white"/>
        <path d="M30.2224 15.5557H28.3335V17.4446H30.2224V15.5557Z" fill="white"/>
        <path d="M30.2224 13.6665H28.3335V15.5554H30.2224V13.6665Z" fill="white"/>
        <path d="M32.1111 32.5557H30.2222V34.4446H32.1111V32.5557Z" fill="#E6E6E6"/>
        <path d="M32.1111 30.6665H30.2222V32.5554H32.1111V30.6665Z" fill="white"/>
        <path d="M32.1111 28.7778H30.2222V30.6667H32.1111V28.7778Z" fill="white"/>
        <path d="M32.1111 26.8887H30.2222V28.7776H32.1111V26.8887Z" fill="white"/>
        <path d="M32.1111 25H30.2222V26.8889H32.1111V25Z" fill="white"/>
        <path d="M32.1111 23.1113H30.2222V25.0002H32.1111V23.1113Z" fill="white"/>
        <path d="M32.1111 21.2222H30.2222V23.1111H32.1111V21.2222Z" fill="#49CE58"/>
        <path d="M32.1111 19.3335H30.2222V21.2224H32.1111V19.3335Z" fill="white"/>
        <path d="M32.1111 17.4443H30.2222V19.3332H32.1111V17.4443Z" fill="white"/>
        <path d="M32.1111 15.5557H30.2222V17.4446H32.1111V15.5557Z" fill="white"/>
        <path d="M32.1111 13.6665H30.2222V15.5554H32.1111V13.6665Z" fill="white"/>
        <path d="M34.0002 32.5557H32.1113V34.4446H34.0002V32.5557Z" fill="#E6E6E6"/>
        <path d="M34.0002 30.6665H32.1113V32.5554H34.0002V30.6665Z" fill="#49CE58"/>
        <path d="M34.0002 28.7778H32.1113V30.6667H34.0002V28.7778Z" fill="#49CE58"/>
        <path d="M34.0002 26.8887H32.1113V28.7776H34.0002V26.8887Z" fill="#49CE58"/>
        <path d="M34.0002 25H32.1113V26.8889H34.0002V25Z" fill="#49CE58"/>
        <path d="M34.0002 23.1113H32.1113V25.0002H34.0002V23.1113Z" fill="#49CE58"/>
        <path d="M34.0002 21.2222H32.1113V23.1111H34.0002V21.2222Z" fill="#49CE58"/>
        <path d="M34.0002 19.3335H32.1113V21.2224H34.0002V19.3335Z" fill="#49CE58"/>
        <path d="M34.0002 17.4443H32.1113V19.3332H34.0002V17.4443Z" fill="#49CE58"/>
        <path d="M34.0002 15.5557H32.1113V17.4446H34.0002V15.5557Z" fill="#49CE58"/>
        <path d="M34.0002 13.6665H32.1113V15.5554H34.0002V13.6665Z" fill="#49CE58"/>
        <path d="M35.8889 32.5557H34V34.4446H35.8889V32.5557Z" fill="#E6E6E6"/>
        <path d="M35.8889 30.6665H34V32.5554H35.8889V30.6665Z" fill="white"/>
        <path d="M35.8889 28.7778H34V30.6667H35.8889V28.7778Z" fill="white"/>
        <path d="M35.8889 26.8887H34V28.7776H35.8889V26.8887Z" fill="white"/>
        <path d="M35.8889 25H34V26.8889H35.8889V25Z" fill="white"/>
        <path d="M35.8889 23.1113H34V25.0002H35.8889V23.1113Z" fill="white"/>
        <path d="M35.8889 21.2222H34V23.1111H35.8889V21.2222Z" fill="white"/>
        <path d="M35.8889 19.3335H34V21.2224H35.8889V19.3335Z" fill="white"/>
        <path d="M35.8889 17.4443H34V19.3332H35.8889V17.4443Z" fill="white"/>
        <path d="M35.8889 15.5557H34V17.4446H35.8889V15.5557Z" fill="white"/>
        <path d="M35.8889 13.6665H34V15.5554H35.8889V13.6665Z" fill="white"/>
        <path d="M37.7776 32.5557H35.8887V34.4446H37.7776V32.5557Z" fill="#E6E6E6"/>
        <path d="M37.7776 30.6665H35.8887V32.5554H37.7776V30.6665Z" fill="#49CE58"/>
        <path d="M37.7776 28.7778H35.8887V30.6667H37.7776V28.7778Z" fill="#49CE58"/>
        <path d="M37.7776 26.8887H35.8887V28.7776H37.7776V26.8887Z" fill="#49CE58"/>
        <path d="M37.7776 25H35.8887V26.8889H37.7776V25Z" fill="#49CE58"/>
        <path d="M37.7776 23.1113H35.8887V25.0002H37.7776V23.1113Z" fill="#49CE58"/>
        <path d="M37.7776 21.2222H35.8887V23.1111H37.7776V21.2222Z" fill="#49CE58"/>
        <path d="M37.7776 19.3335H35.8887V21.2224H37.7776V19.3335Z" fill="#49CE58"/>
        <path d="M37.7776 17.4443H35.8887V19.3332H37.7776V17.4443Z" fill="#49CE58"/>
        <path d="M37.7776 15.5557H35.8887V17.4446H37.7776V15.5557Z" fill="#49CE58"/>
        <path d="M37.7776 13.6665H35.8887V15.5554H37.7776V13.6665Z" fill="#49CE58"/>
        <path d="M39.6667 32.5557H37.7778V34.4446H39.6667V32.5557Z" fill="#E6E6E6"/>
        <path d="M39.6667 30.6665H37.7778V32.5554H39.6667V30.6665Z" fill="#49CE58"/>
        <path d="M39.6667 28.7778H37.7778V30.6667H39.6667V28.7778Z" fill="white"/>
        <path d="M39.6667 26.8887H37.7778V28.7776H39.6667V26.8887Z" fill="white"/>
        <path d="M39.6667 25H37.7778V26.8889H39.6667V25Z" fill="white"/>
        <path d="M39.6667 23.1113H37.7778V25.0002H39.6667V23.1113Z" fill="white"/>
        <path d="M39.6667 21.2222H37.7778V23.1111H39.6667V21.2222Z" fill="#49CE58"/>
        <path d="M39.6667 19.3335H37.7778V21.2224H39.6667V19.3335Z" fill="white"/>
        <path d="M39.6667 17.4443H37.7778V19.3332H39.6667V17.4443Z" fill="white"/>
        <path d="M39.6667 15.5557H37.7778V17.4446H39.6667V15.5557Z" fill="white"/>
        <path d="M39.6667 13.6665H37.7778V15.5554H39.6667V13.6665Z" fill="#49CE58"/>
        <path d="M41.5554 32.5557H39.6665V34.4446H41.5554V32.5557Z" fill="#E6E6E6"/>
        <path d="M41.5554 30.6665H39.6665V32.5554H41.5554V30.6665Z" fill="#49CE58"/>
        <path d="M41.5554 28.7778H39.6665V30.6667H41.5554V28.7778Z" fill="white"/>
        <path d="M41.5554 26.8887H39.6665V28.7776H41.5554V26.8887Z" fill="white"/>
        <path d="M41.5554 25H39.6665V26.8889H41.5554V25Z" fill="white"/>
        <path d="M41.5554 23.1113H39.6665V25.0002H41.5554V23.1113Z" fill="white"/>
        <path d="M41.5554 21.2222H39.6665V23.1111H41.5554V21.2222Z" fill="#49CE58"/>
        <path d="M41.5554 19.3335H39.6665V21.2224H41.5554V19.3335Z" fill="white"/>
        <path d="M41.5554 17.4443H39.6665V19.3332H41.5554V17.4443Z" fill="white"/>
        <path d="M41.5554 15.5557H39.6665V17.4446H41.5554V15.5557Z" fill="white"/>
        <path d="M41.5554 13.6665H39.6665V15.5554H41.5554V13.6665Z" fill="#49CE58"/>
        <path d="M43.4446 32.5557H41.5557V34.4446H43.4446V32.5557Z" fill="#E6E6E6"/>
        <path d="M43.4446 30.6665H41.5557V32.5554H43.4446V30.6665Z" fill="white"/>
        <path d="M43.4446 28.7778H41.5557V30.6667H43.4446V28.7778Z" fill="white"/>
        <path d="M43.4446 26.8887H41.5557V28.7776H43.4446V26.8887Z" fill="white"/>
        <path d="M43.4446 25H41.5557V26.8889H43.4446V25Z" fill="white"/>
        <path d="M43.4446 23.1113H41.5557V25.0002H43.4446V23.1113Z" fill="white"/>
        <path d="M43.4446 21.2222H41.5557V23.1111H43.4446V21.2222Z" fill="white"/>
        <path d="M43.4446 19.3335H41.5557V21.2224H43.4446V19.3335Z" fill="white"/>
        <path d="M43.4446 17.4443H41.5557V19.3332H43.4446V17.4443Z" fill="white"/>
        <path d="M43.4446 15.5557H41.5557V17.4446H43.4446V15.5557Z" fill="white"/>
        <path d="M43.4446 13.6665H41.5557V15.5554H43.4446V13.6665Z" fill="white"/>
        <path d="M45.3332 32.5557H43.4443V34.4446H45.3332V32.5557Z" fill="#E6E6E6"/>
        <path d="M45.3332 30.6665H43.4443V32.5554H45.3332V30.6665Z" fill="white"/>
        <path d="M45.3332 28.7778H43.4443V30.6667H45.3332V28.7778Z" fill="white"/>
        <path d="M45.3332 26.8887H43.4443V28.7776H45.3332V26.8887Z" fill="white"/>
        <path d="M45.3332 25H43.4443V26.8889H45.3332V25Z" fill="white"/>
        <path d="M45.3332 23.1113H43.4443V25.0002H45.3332V23.1113Z" fill="white"/>
        <path d="M45.3332 21.2222H43.4443V23.1111H45.3332V21.2222Z" fill="white"/>
        <path d="M45.3332 19.3335H43.4443V21.2224H45.3332V19.3335Z" fill="white"/>
        <path d="M45.3332 17.4443H43.4443V19.3332H45.3332V17.4443Z" fill="white"/>
        <path d="M45.3332 15.5557H43.4443V17.4446H45.3332V15.5557Z" fill="white"/>
        <path d="M45.3332 13.6665H43.4443V15.5554H45.3332V13.6665Z" fill="white"/>
        <path d="M28.3332 13.6665H26.4443V15.5554H28.3332V13.6665Z" fill="#49CE58"/>
        <path d="M28.3332 15.5557H26.4443V17.4446H28.3332V15.5557Z" fill="#49CE58"/>
        <path d="M28.3332 17.4443H26.4443V19.3332H28.3332V17.4443Z" fill="#49CE58"/>
        <path d="M26.4446 17.4443H24.5557V19.3332H26.4446V17.4443Z" fill="white"/>
        <path d="M24.5554 17.4443H22.6665V19.3332H24.5554V17.4443Z" fill="#49CE58"/>
        <path d="M28.3332 19.3335H26.4443V21.2224H28.3332V19.3335Z" fill="#49CE58"/>
        <path d="M28.3332 21.2222H26.4443V23.1111H28.3332V21.2222Z" fill="#49CE58"/>
        <path d="M28.3332 23.1113H26.4443V25.0002H28.3332V23.1113Z" fill="#49CE58"/>
        <path d="M28.3332 25H26.4443V26.8889H28.3332V25Z" fill="#49CE58"/>
        <path d="M28.3332 26.8887H26.4443V28.7776H28.3332V26.8887Z" fill="#49CE58"/>
        <path d="M28.3332 28.7778H26.4443V30.6667H28.3332V28.7778Z" fill="#49CE58"/>
        <path d="M28.3332 30.6665H26.4443V32.5554H28.3332V30.6665Z" fill="#49CE58"/>
        <path d="M28.3332 32.5547H26.4443V34.4436H28.3332V32.5547Z" fill="#E6E6E6"/>
        <path d="M5.66672 36.3335H3.77783V38.2224H5.66672V36.3335Z" fill="white"/>
        <path d="M5.66672 38.2222H3.77783V40.1111H5.66672V38.2222Z" fill="white"/>
        <path d="M47.2224 40.1113H45.3335V42.0002H47.2224V40.1113Z" fill="white"/>
        <path d="M49.1111 40.1113H47.2222V42.0002H49.1111V40.1113Z" fill="white"/>
        <path d="M45.3332 40.1113H43.4443V42.0002H45.3332V40.1113Z" fill="white"/>
        <path d="M49.1111 38.2222H47.2222V40.1111H49.1111V38.2222Z" fill="white"/>
        <path d="M49.1111 36.3345H47.2222V38.2234H49.1111V36.3345Z" fill="white"/>
        <path d="M47.2224 36.3335H45.3335V38.2224H47.2224V36.3335Z" fill="white"/>
        <path d="M47.2224 11.7778H45.3335V13.6667H47.2224V11.7778Z" fill="white"/>
        <path d="M45.3332 9.88867H43.4443V11.7776H45.3332V9.88867Z" fill="white"/>
        <path d="M43.4443 8H5.6665V9.88889H43.4443V8Z" fill="white"/>
        <path d="M49.1111 13.6665H47.2222V36.3332H49.1111V13.6665Z" fill="white"/>
        <path d="M45.3332 38.2222H5.6665V40.1111H45.3332V38.2222Z" fill="white"/>
        <path d="M3.77756 34.4443H1.88867V36.3332H3.77756V34.4443Z" fill="white"/>
        <path d="M3.77756 36.3345H1.88867V38.2234H3.77756V36.3345Z" fill="white"/>
        <path d="M1.88889 34.4443H0V36.3332H1.88889V34.4443Z" fill="white"/>
        <path d="M3.77756 11.7778H1.88867V13.6667H3.77756V11.7778Z" fill="white"/>
        <path d="M1.88889 13.6665H0V34.4443H1.88889V13.6665Z" fill="white"/>
        <path d="M45.3332 11.7778H43.4443V13.6667H45.3332V11.7778Z" fill="black"/>
        <path d="M5.66672 34.4443H3.77783V36.3332H5.66672V34.4443Z" fill="black"/>
        <path d="M45.3335 36.3335H28.3335V38.2224H45.3335V36.3335Z" fill="black"/>
        <path d="M47.2224 38.2222H45.3335V40.1111H47.2224V38.2222Z" fill="black"/>
        <path d="M28.3332 36.3335H5.6665V38.2224H28.3332V36.3335Z" fill="black"/>
        <path d="M3.77756 13.6665H1.88867V34.4443H3.77756V13.6665Z" fill="black"/>
        <path d="M47.2224 13.6665H45.3335V36.3332H47.2224V13.6665Z" fill="black"/>
        <path d="M43.4443 9.88867H5.6665V11.7776H43.4443V9.88867Z" fill="black"/>
        <path d="M20.7771 30.6665H18.8882V32.5554H20.7771V30.6665Z" fill="#49CE58"/>
    </g>
    <defs>
        <clipPath id="clip0_2090_31040">
            <rect width="49.1111" height="34" fill="white" transform="translate(0 8)"/>
        </clipPath>
    </defs>
</svg>
