<svg width="70" height="70" viewBox="0 0 70 70" fill="none" xmlns="http://www.w3.org/2000/svg">
    <g clip-path="url(#clip0_2000_15558)">
        <path d="M24.8182 12.0908H22.2727V14.6363H24.8182V12.0908Z" fill="black"/>
        <path d="M47.7273 12.0908H45.1819V14.6363H47.7273V12.0908Z" fill="black"/>
        <path d="M47.7273 14.6362H45.1819V17.1817H47.7273V14.6362Z" fill="black"/>
        <path d="M45.1819 12.0908H42.6365V14.6363H45.1819V12.0908Z" fill="black"/>
        <path d="M22.2729 22.2725H24.8184V19.727H22.2729V22.2725Z" fill="black"/>
        <path d="M22.2729 19.7271H24.8184V17.1816H22.2729V19.7271Z" fill="black"/>
        <path d="M24.8183 22.2725H27.3638V19.727H24.8183V22.2725Z" fill="black"/>
        <path d="M24.8182 14.6362H22.2727V17.1817H24.8182V14.6362Z" fill="black"/>
        <path d="M24.8182 19.7271L45.1819 19.7271V17.1816L24.8182 17.1816V19.7271Z" fill="#F0C915"/>
        <path d="M45.182 14.6362H24.8184V17.1817H45.182V14.6362Z" fill="#F0C915"/>
        <path d="M27.3638 12.0908H24.8184V14.6363H27.3638V12.0908Z" fill="black"/>
        <path d="M45.1818 22.2725H47.7273V19.727H45.1818V22.2725Z" fill="black"/>
        <path d="M45.1818 19.7271H47.7273V17.1816H45.1818V19.7271Z" fill="black"/>
        <path d="M42.6364 22.2725H45.1819V19.727H42.6364V22.2725Z" fill="black"/>
        <path d="M40.091 22.2725H42.6365V19.727H40.091V22.2725Z" fill="black"/>
        <path d="M37.5456 22.2725H40.0911V19.727H37.5456V22.2725Z" fill="black"/>
        <path d="M35.0002 22.2725H37.5457V19.727H35.0002V22.2725Z" fill="black"/>
        <path d="M32.4545 22.2725H35V19.727H32.4545V22.2725Z" fill="black"/>
        <path d="M17.1818 32.4546H19.7273V29.9091H17.1818V32.4546Z" fill="black"/>
        <path d="M17.1818 35H19.7273V32.4545H17.1818V35Z" fill="#D62F73"/>
        <path d="M17.1818 37.5454H19.7273V35H17.1818V37.5454Z" fill="#D62F73"/>
        <path d="M17.1818 40.0908H19.7273V37.5454H17.1818V40.0908Z" fill="#D62F73"/>
        <path d="M17.1818 42.6362H19.7273V40.0908H17.1818V42.6362Z" fill="#D62F73"/>
        <path d="M17.1818 45.1816H19.7273V42.6362H17.1818V45.1816Z" fill="#D62F73"/>
        <path d="M17.1818 47.7271H19.7273V45.1816H17.1818V47.7271Z" fill="#D62F73"/>
        <path d="M17.1818 50.2725H19.7273V47.727H17.1818V50.2725Z" fill="#BD1E55"/>
        <path d="M17.1818 52.8184H19.7273V50.2729H17.1818V52.8184Z" fill="#BD1E55"/>
        <path d="M14.6364 37.5454H17.1819V35H14.6364V37.5454Z" fill="#D62F73"/>
        <path d="M14.6364 40.0908H17.1819V37.5454H14.6364V40.0908Z" fill="#D62F73"/>
        <path d="M14.6364 42.6362H17.1819V40.0908H14.6364V42.6362Z" fill="#D62F73"/>
        <path d="M14.6364 45.1816H17.1819V42.6362H14.6364V45.1816Z" fill="#D62F73"/>
        <path d="M14.6364 47.7271H17.1819V45.1816H14.6364V47.7271Z" fill="#BD1E55"/>
        <path d="M14.6364 50.2725H17.1819V47.727H14.6364V50.2725Z" fill="#BD1E55"/>
        <path d="M12.091 40.0908H14.6365V37.5454H12.091V40.0908Z" fill="#BD1E55"/>
        <path d="M12.091 42.6362H14.6365V40.0908H12.091V42.6362Z" fill="#BD1E55"/>
        <path d="M12.091 45.1816H14.6365V42.6362H12.091V45.1816Z" fill="#BD1E55"/>
        <path d="M12.091 47.7271H14.6365V45.1816H12.091V47.7271Z" fill="#BD1E55"/>
        <path d="M9.54561 42.6362H12.0911V40.0908H9.54561V42.6362Z" fill="#BD1E55"/>
        <path d="M9.54561 45.1816H12.0911V42.6362H9.54561V45.1816Z" fill="#BD1E55"/>
        <path d="M7.0002 45.1816H9.54565V42.6362H7.0002V45.1816Z" fill="#931C3D"/>
        <path d="M9.54561 47.7271H12.0911V45.1816H9.54561V47.7271Z" fill="#931C3D"/>
        <path d="M12.091 50.2725H14.6365V47.727H12.091V50.2725Z" fill="#931C3D"/>
        <path d="M14.6364 52.8184H17.1819V50.2729H14.6364V52.8184Z" fill="#931C3D"/>
        <path d="M19.7273 37.5454H22.2727V35H19.7273V37.5454Z" fill="#D62F73"/>
        <path d="M19.7273 40.0908H22.2727V37.5454H19.7273V40.0908Z" fill="#D62F73"/>
        <path d="M19.7273 42.6362H22.2727V40.0908H19.7273V42.6362Z" fill="#D62F73"/>
        <path d="M19.7273 45.1816H22.2727V42.6362H19.7273V45.1816Z" fill="#D62F73"/>
        <path d="M19.7273 47.7271H22.2727V45.1816H19.7273V47.7271Z" fill="#BD1E55"/>
        <path d="M19.7273 50.2725H22.2727V47.727H19.7273V50.2725Z" fill="#BD1E55"/>
        <path d="M22.2729 40.0908H24.8184V37.5454H22.2729V40.0908Z" fill="#D62F73"/>
        <path d="M22.2729 42.6362H24.8184V40.0908H22.2729V42.6362Z" fill="#D62F73"/>
        <path d="M22.2729 45.1816H24.8184V42.6362H22.2729V45.1816Z" fill="#BD1E55"/>
        <path d="M22.2729 47.7271H24.8184V45.1816H22.2729V47.7271Z" fill="#BD1E55"/>
        <path d="M24.8183 42.6362H27.3638V40.0908H24.8183V42.6362Z" fill="#BD1E55"/>
        <path d="M24.8183 45.1816H27.3638V42.6362H24.8183V45.1816Z" fill="#BD1E55"/>
        <path d="M27.3637 45.1816H29.9092V42.6362H27.3637V45.1816Z" fill="#931C3D"/>
        <path d="M24.8183 47.7271H27.3638V45.1816H24.8183V47.7271Z" fill="#931C3D"/>
        <path d="M22.2729 50.2725H24.8184V47.727H22.2729V50.2725Z" fill="#931C3D"/>
        <path d="M19.7273 52.8184H22.2727V50.2729H19.7273V52.8184Z" fill="#931C3D"/>
        <path d="M17.1818 55.3638H19.7273V52.8183H17.1818V55.3638Z" fill="#931C3D"/>
        <path d="M12.091 37.5454H14.6365V35H12.091V37.5454Z" fill="black"/>
        <path d="M9.54561 40.0908H12.0911V37.5454H9.54561V40.0908Z" fill="black"/>
        <path d="M7.0002 42.6362H9.54565V40.0908H7.0002V42.6362Z" fill="black"/>
        <path d="M7.0002 47.7271H9.54565V45.1816H7.0002V47.7271Z" fill="black"/>
        <path d="M4.45455 45.1816H7V42.6362H4.45455V45.1816Z" fill="black"/>
        <path d="M9.54561 50.2651H12.0911V47.7197H9.54561V50.2651Z" fill="black"/>
        <path d="M12.091 52.8184H14.6365V50.2729H12.091V52.8184Z" fill="black"/>
        <path d="M14.6364 55.3638H17.1819V52.8183H14.6364V55.3638Z" fill="black"/>
        <path d="M19.7273 55.3638H22.2727V52.8183H19.7273V55.3638Z" fill="black"/>
        <path d="M22.2729 52.8184H24.8184V50.2729H22.2729V52.8184Z" fill="black"/>
        <path d="M24.8183 50.2803H27.3638V47.7348H24.8183V50.2803Z" fill="black"/>
        <path d="M27.3637 47.7271H29.9092V45.1816H27.3637V47.7271Z" fill="black"/>
        <path d="M29.9091 45.1816H32.4546V42.6362H29.9091V45.1816Z" fill="black"/>
        <path d="M27.3637 42.6362H29.9092V40.0908H27.3637V42.6362Z" fill="black"/>
        <path d="M24.8183 40.0908H27.3638V37.5454H24.8183V40.0908Z" fill="black"/>
        <path d="M22.2729 37.5454H24.8184V35H22.2729V37.5454Z" fill="black"/>
        <path d="M19.7273 35H22.2727V32.4545H19.7273V35Z" fill="black"/>
        <path d="M22.2729 32.4546H24.8184V29.9091H22.2729V32.4546Z" fill="black"/>
        <path d="M24.8183 29.9092H27.3638V27.3637H24.8183V29.9092Z" fill="black"/>
        <path d="M27.3637 27.3638H29.9092V24.8183H27.3637V27.3638Z" fill="black"/>
        <path d="M29.9091 24.8184H32.4546V22.2729H29.9091V24.8184Z" fill="black"/>
        <path d="M27.3637 24.8184H29.9092V22.2729H27.3637V24.8184Z" fill="white"/>
        <path d="M24.8183 27.3638H27.3638V24.8183H24.8183V27.3638Z" fill="white"/>
        <path d="M29.9091 27.3638H32.4546V24.8183H29.9091V27.3638Z" fill="white"/>
        <path d="M27.3637 29.9092H29.9092V27.3637H27.3637V29.9092Z" fill="white"/>
        <path d="M24.8183 32.4546H27.3638V29.9091H24.8183V32.4546Z" fill="white"/>
        <path d="M22.2729 35H24.8184V32.4545H22.2729V35Z" fill="white"/>
        <path d="M24.8183 37.5454H27.3638V35H24.8183V37.5454Z" fill="white"/>
        <path d="M27.3637 40.0908H29.9092V37.5454H27.3637V40.0908Z" fill="white"/>
        <path d="M29.9091 42.6362H32.4546V40.0908H29.9091V42.6362Z" fill="white"/>
        <path d="M32.4545 45.1816H35V42.6362H32.4545V45.1816Z" fill="white"/>
        <path d="M29.9091 47.7271H32.4546V45.1816H29.9091V47.7271Z" fill="white"/>
        <path d="M32.4545 47.7271H35V45.1816H32.4545V47.7271Z" fill="white"/>
        <path d="M27.3637 50.2803H29.9092V47.7348H27.3637V50.2803Z" fill="white"/>
        <path d="M29.9091 50.2803H32.4546V47.7348H29.9091V50.2803Z" fill="white"/>
        <path d="M24.8183 52.8184H27.3638V50.2729H24.8183V52.8184Z" fill="white"/>
        <path d="M27.3637 52.8184H29.9092V50.2729H27.3637V52.8184Z" fill="white"/>
        <path d="M22.2729 55.3638H24.8184V52.8183H22.2729V55.3638Z" fill="white"/>
        <path d="M24.8183 55.3638H27.3638V52.8183H24.8183V55.3638Z" fill="white"/>
        <path d="M19.7273 57.9092H22.2727V55.3637H19.7273V57.9092Z" fill="white"/>
        <path d="M22.2729 57.9092H24.8184V55.3637H22.2729V57.9092Z" fill="white"/>
        <path d="M17.1818 60.4546H19.7273V57.9091H17.1818V60.4546Z" fill="white"/>
        <path d="M19.7273 60.4546H22.2727V57.9091H19.7273V60.4546Z" fill="white"/>
        <path d="M14.6364 60.4546H17.1819V57.9091H14.6364V60.4546Z" fill="white"/>
        <path d="M14.6364 57.9092H17.1819V55.3637H14.6364V57.9092Z" fill="white"/>
        <path d="M12.091 57.9092H14.6365V55.3637H12.091V57.9092Z" fill="white"/>
        <path d="M12.091 55.3638H14.6365V52.8183H12.091V55.3638Z" fill="white"/>
        <path d="M9.54561 55.3638H12.0911V52.8183H9.54561V55.3638Z" fill="white"/>
        <path d="M9.54561 52.8184H12.0911V50.2729H9.54561V52.8184Z" fill="white"/>
        <path d="M7.0002 52.8184H9.54565V50.2729H7.0002V52.8184Z" fill="white"/>
        <path d="M7.0002 50.2725H9.54565V47.727H7.0002V50.2725Z" fill="white"/>
        <path d="M4.45455 50.2725H7V47.727H4.45455V50.2725Z" fill="white"/>
        <path d="M4.45455 47.7271H7V45.1816H4.45455V47.7271Z" fill="white"/>
        <path d="M1.90914 47.7271H4.45459V45.1816H1.90914L1.90914 47.7271Z" fill="white"/>
        <path d="M1.90914 45.1816H4.45459V42.6362H1.90914L1.90914 45.1816Z" fill="white"/>
        <path d="M4.45455 42.6362H7V40.0908H4.45455V42.6362Z" fill="white"/>
        <path d="M7.0002 40.0908H9.54565V37.5454H7.0002V40.0908Z" fill="white"/>
        <path d="M9.54561 37.5454H12.0911V35H9.54561V37.5454Z" fill="white"/>
        <path d="M12.091 35H14.6365V32.4545H12.091V35Z" fill="white"/>
        <path d="M14.6364 32.4546H17.1819V29.9091H14.6364V32.4546Z" fill="white"/>
        <path d="M17.1818 29.8315H19.7273V27.2861H17.1818V29.8315Z" fill="white"/>
        <path d="M37.5456 27.3638H40.0911V24.8183H37.5456V27.3638Z" fill="white"/>
        <path d="M40.091 29.9092H42.6365V27.3637H40.091V29.9092Z" fill="white"/>
        <path d="M45.1818 29.9092H47.7273V27.3637H45.1818V29.9092Z" fill="white"/>
        <path d="M42.6364 27.3638H45.1819V24.8183H42.6364V27.3638Z" fill="white"/>
        <path d="M42.6364 32.4546H45.1819V29.9091H42.6364V32.4546Z" fill="white"/>
        <path d="M40.0898 32.4546H42.6353V29.9091H40.0898V32.4546Z" fill="white"/>
        <path d="M22.2729 29.9092H24.8184V27.3637H22.2729V29.9092Z" fill="white"/>
        <path d="M19.7273 32.4546H22.2727V29.9091H19.7273V32.4546Z" fill="white"/>
        <path d="M32.4547 24.8184H37.5457V22.2729H32.4547V24.8184Z" fill="white"/>
        <path d="M40.0909 24.8184H47.7273V22.2729H40.0909V24.8184Z" fill="white"/>
        <path d="M24.8183 24.8184H27.3638V22.2729H24.8183V24.8184Z" fill="white"/>
        <path d="M22.2729 24.8184H24.8184V22.2729H22.2729V24.8184Z" fill="white"/>
        <path d="M22.2728 12.0908L47.7273 12.0908V9.54537L22.2728 9.54537V12.0908Z" fill="white"/>
        <path d="M19.7273 22.2725H22.2727V12.0906H19.7273V22.2725Z" fill="white"/>
        <path d="M47.7272 22.2725H50.2727V12.0906H47.7272V22.2725Z" fill="white"/>
        <path d="M24.8183 17.1816H27.3638V14.6362H24.8183V17.1816Z" fill="#BB891A"/>
        <path d="M27.3637 17.1816H29.9092V14.6362H27.3637V17.1816Z" fill="#EEB81D"/>
        <path d="M24.8183 19.7271H27.3638V17.1816H24.8183V19.7271Z" fill="#BB891A"/>
        <path d="M27.3637 19.7271H29.9092V17.1816H27.3637V19.7271Z" fill="#BB891A"/>
        <path d="M29.9091 17.1816H32.4546V14.6362H29.9091V17.1816Z" fill="#EEB81D"/>
        <path d="M29.9091 19.7271H32.4546V17.1816H29.9091V19.7271Z" fill="#EEB81D"/>
        <path d="M32.4545 19.7271H35V17.1816H32.4545V19.7271Z" fill="#EEB81D"/>
        <path d="M42.6351 55.3638H62.9988V52.8183H42.6351V55.3638Z" fill="#45B3E9"/>
        <path d="M63.0001 35H42.6365V52.8182H63.0001V35Z" fill="#45B3E9"/>
        <path d="M42.6352 52.8184H45.1807V50.2729H42.6352V52.8184Z" fill="#2986FF"/>
        <path d="M45.1806 52.8184H47.7261V50.2729H45.1806V52.8184Z" fill="#2986FF"/>
        <path d="M42.6352 55.3638H45.1807V52.8183H42.6352V55.3638Z" fill="#2986FF"/>
        <path d="M45.1806 55.3638H47.7261V52.8183H45.1806V55.3638Z" fill="#2986FF"/>
        <path d="M47.726 52.8184H50.2715V50.2729H47.726V52.8184Z" fill="#2986FF"/>
        <path d="M42.6352 50.2803H45.1807V47.7348H42.6352V50.2803Z" fill="#2986FF"/>
        <path d="M45.1806 50.2803H47.7261V47.7348H45.1806V50.2803Z" fill="#2986FF"/>
        <path d="M42.6352 47.7412H45.1807V45.1958H42.6352V47.7412Z" fill="#2986FF"/>
        <path d="M42.6352 45.2036H45.1807V42.6582H42.6352V45.2036Z" fill="#2986FF"/>
        <path d="M60.4533 37.5454H62.9988V35H60.4533V37.5454Z" fill="#82CBE8"/>
        <path d="M60.4533 40.0908H62.9988V37.5454H60.4533V40.0908Z" fill="#82CBE8"/>
        <path d="M57.9079 40.0908H60.4534V37.5454H57.9079V40.0908Z" fill="#82CBE8"/>
        <path d="M60.4533 42.6362H62.9988V40.0908H60.4533V42.6362Z" fill="#82CBE8"/>
        <path d="M57.9079 37.5454H60.4534V35H57.9079V37.5454Z" fill="#82CBE8"/>
        <path d="M55.3625 37.5454H57.908V35H55.3625V37.5454Z" fill="#82CBE8"/>
        <path d="M45.1806 47.7412H47.7261V45.1958H45.1806V47.7412Z" fill="#2986FF"/>
        <path d="M47.726 50.2803H50.2715V47.7348H47.726V50.2803Z" fill="#2986FF"/>
        <path d="M47.726 55.3638H50.2715V52.8183H47.726V55.3638Z" fill="#2986FF"/>
        <path d="M50.2714 55.3638H52.8169V52.8183H50.2714V55.3638Z" fill="#2986FF"/>
        <path d="M50.2729 52.8184H52.8184V50.2729H50.2729V52.8184Z" fill="#2986FF"/>
        <path d="M52.8183 55.3638H55.3638V52.8183H52.8183V55.3638Z" fill="#2986FF"/>
        <path d="M45.1818 32.4546H47.7273V29.9091H45.1818V32.4546Z" fill="black"/>
        <path d="M42.6364 29.9092H45.1819V27.3637H42.6364V29.9092Z" fill="black"/>
        <path d="M40.091 27.3638H42.6365V24.8183H40.091V27.3638Z" fill="black"/>
        <path d="M37.5456 24.8184H40.0911V22.2729H37.5456V24.8184Z" fill="black"/>
        <path d="M14.6364 35H17.1819V32.4545H14.6364V35Z" fill="black"/>
        <path d="M17.1818 57.9092H19.7273V55.3637H17.1818V57.9092Z" fill="black"/>
        <path d="M29.9091 22.2725H32.4546V19.727H29.9091V22.2725Z" fill="black"/>
        <path d="M27.3637 22.2725H29.9092V19.727H27.3637V22.2725Z" fill="black"/>
        <path d="M40.091 14.6362H42.6365V12.0908H40.091V14.6362Z" fill="black"/>
        <path d="M37.5456 14.6362H40.0911V12.0908H37.5456V14.6362Z" fill="black"/>
        <path d="M35.0002 14.6362H37.5457V12.0908H35.0002V14.6362Z" fill="black"/>
        <path d="M32.4545 14.6362H35V12.0908H32.4545V14.6362Z" fill="black"/>
        <path d="M29.9091 14.6362H32.4546V12.0908H29.9091V14.6362Z" fill="black"/>
        <path d="M27.3637 14.6362H29.9092V12.0908H27.3637V14.6362Z" fill="black"/>
        <path d="M42.6365 32.4546H40.0911V35H42.6365V32.4546Z" fill="black"/>
        <path d="M65.5455 32.4546H63V35H65.5455V32.4546Z" fill="black"/>
        <path d="M65.5455 35H63V37.5455H65.5455V35Z" fill="black"/>
        <path d="M63 32.4546H60.4546V35H63V32.4546Z" fill="black"/>
        <path d="M42.6365 35H40.0911V37.5455H42.6365V35Z" fill="black"/>
        <path d="M65.5455 37.5454H63V40.0909H65.5455V37.5454Z" fill="black"/>
        <path d="M42.6365 37.5454H40.0911V40.0909H42.6365V37.5454Z" fill="black"/>
        <path d="M65.5455 40.0908H63V42.6363H65.5455V40.0908Z" fill="black"/>
        <path d="M42.6365 40.0908H40.0911V42.6363H42.6365V40.0908Z" fill="black"/>
        <path d="M65.5455 42.6362H63V45.1817H65.5455V42.6362Z" fill="black"/>
        <path d="M42.6365 42.6362H40.0911V45.1817H42.6365V42.6362Z" fill="black"/>
        <path d="M65.5455 45.1816H63V47.7271H65.5455V45.1816Z" fill="black"/>
        <path d="M42.6365 45.1816H40.0911V47.7271H42.6365V45.1816Z" fill="black"/>
        <path d="M65.5455 47.7271H63V50.2725H65.5455V47.7271Z" fill="black"/>
        <path d="M42.6365 47.7271H40.0911V50.2725H42.6365V47.7271Z" fill="black"/>
        <path d="M65.5455 50.2725H63V52.8179H65.5455V50.2725Z" fill="black"/>
        <path d="M42.6365 50.2725H40.0911V52.8179H42.6365V50.2725Z" fill="black"/>
        <path d="M65.5455 52.8184H63V55.3638H65.5455V52.8184Z" fill="black"/>
        <path d="M42.6365 52.8184H40.0911V55.3638H42.6365V52.8184Z" fill="black"/>
        <path d="M65.5455 55.3638H63V57.9092H65.5455V55.3638Z" fill="black"/>
        <path d="M42.6365 55.3638H40.0911V57.9092H42.6365V55.3638Z" fill="black"/>
        <path d="M45.1819 32.4546H42.6365V35H45.1819V32.4546Z" fill="black"/>
        <path d="M47.726 32.4546H65.5442V29.9091L47.726 29.9091V32.4546Z" fill="white"/>
        <path d="M40.0911 60.4546H65.5457V57.9091H40.0911V60.4546Z" fill="white"/>
        <path d="M37.5444 60.4546H40.0898V32.4546H37.5444V60.4546Z" fill="white"/>
        <path d="M65.5444 60.4546H68.0898V32.4546H65.5444V60.4546Z" fill="white"/>
        <path d="M57.9079 35H60.4534V32.4545H57.9079V35Z" fill="black"/>
        <path d="M55.3625 35H57.908V32.4545H55.3625V35Z" fill="black"/>
        <path d="M52.8171 35H55.3625V32.4545H52.8171V35Z" fill="black"/>
        <path d="M50.2714 35H52.8169V32.4545H50.2714V35Z" fill="black"/>
        <path d="M47.726 35H50.2715V32.4545H47.726V35Z" fill="black"/>
        <path d="M45.1806 35H47.7261V32.4545H45.1806V35Z" fill="black"/>
        <path d="M63 55.3638H60.4546V57.9092H63V55.3638Z" fill="black"/>
        <path d="M45.1819 55.3638H42.6365V57.9092H45.1819V55.3638Z" fill="black"/>
        <path d="M57.9079 57.9092H60.4534V55.3637H57.9079V57.9092Z" fill="black"/>
        <path d="M55.3625 57.9092H57.908V55.3637H55.3625V57.9092Z" fill="black"/>
        <path d="M52.8171 57.9092H55.3625V55.3637H52.8171V57.9092Z" fill="black"/>
        <path d="M50.2714 57.9092H52.8169V55.3637H50.2714V57.9092Z" fill="black"/>
        <path d="M47.726 57.9092H50.2715V55.3637H47.726V57.9092Z" fill="black"/>
        <path d="M45.1806 57.9092H47.7261V55.3637H45.1806V57.9092Z" fill="black"/>
    </g>
    <defs>
        <clipPath id="clip0_2000_15558">
            <rect width="66.1818" height="50.9091" fill="white" transform="translate(1.90918 9.54541)"/>
        </clipPath>
    </defs>
</svg>
