<svg width="50" height="50" viewBox="0 0 50 50" fill="none" xmlns="http://www.w3.org/2000/svg">
    <path d="M20.0059 4.09082H18.0039V6.09282H20.0059V4.09082Z" fill="white"/>
    <path d="M21.9969 4.09082H19.9949V6.09282H21.9969V4.09082Z" fill="white"/>
    <path d="M23.9991 4.09082H21.9971V6.09282H23.9991V4.09082Z" fill="white"/>
    <path d="M26.001 4.09082H23.999V6.09282H26.001V4.09082Z" fill="white"/>
    <path d="M28.003 4.09082H26.001V6.09282H28.003V4.09082Z" fill="white"/>
    <path d="M30.0061 4.09082H28.0042V6.09282H30.0061V4.09082Z" fill="white"/>
    <path d="M31.9961 4.09082H29.9941V6.09282H31.9961V4.09082Z" fill="white"/>
    <path d="M16.002 6.09277H14V8.09478H16.002V6.09277Z" fill="white"/>
    <path d="M18.004 6.09277H16.002V8.09478H18.004V6.09277Z" fill="white"/>
    <path d="M20.0059 6.09277H18.0039V8.09478H20.0059V6.09277Z" fill="#1A1A1A"/>
    <path d="M21.9969 6.09277H19.9949V8.09478H21.9969V6.09277Z" fill="#1A1A1A"/>
    <path d="M23.9991 6.09277H21.9971V8.09478H23.9991V6.09277Z" fill="#1A1A1A"/>
    <path d="M26.001 6.09277H23.999V8.09478H26.001V6.09277Z" fill="#1A1A1A"/>
    <path d="M28.003 6.09277H26.001V8.09478H28.003V6.09277Z" fill="#1A1A1A"/>
    <path d="M30.0061 6.09277H28.0042V8.09478H30.0061V6.09277Z" fill="#1A1A1A"/>
    <path d="M31.9961 6.09277H29.9941V8.09478H31.9961V6.09277Z" fill="#1A1A1A"/>
    <path d="M33.9979 6.09277H31.9958V8.09478H33.9979V6.09277Z" fill="white"/>
    <path d="M36.001 6.09277H33.999V8.09478H36.001V6.09277Z" fill="white"/>
    <path d="M14 8.0957H11.998V10.0977H14V8.0957Z" fill="white"/>
    <path d="M16.002 8.0957H14V10.0977H16.002V8.0957Z" fill="#1A1A1A"/>
    <path d="M18.004 8.0957H16.002V10.0977H18.004V8.0957Z" fill="#1A1A1A"/>
    <path d="M20.0059 8.0957H18.0039V10.0977H20.0059V8.0957Z" fill="#D9D9D9"/>
    <path d="M21.9969 8.0957H19.9949V10.0977H21.9969V8.0957Z" fill="#D9D9D9"/>
    <path d="M23.9991 8.0957H21.9971V10.0977H23.9991V8.0957Z" fill="#D9D9D9"/>
    <path d="M26.001 8.0957H23.999V10.0977H26.001V8.0957Z" fill="#D9D9D9"/>
    <path d="M28.003 8.0957H26.001V10.0977H28.003V8.0957Z" fill="#D9D9D9"/>
    <path d="M30.0061 8.0957H28.0042V10.0977H30.0061V8.0957Z" fill="#D9D9D9"/>
    <path d="M31.9961 8.0957H29.9941V10.0977H31.9961V8.0957Z" fill="#D9D9D9"/>
    <path d="M33.9979 8.0957H31.9958V10.0977H33.9979V8.0957Z" fill="#1A1A1A"/>
    <path d="M36.001 8.0957H33.999V10.0977H36.001V8.0957Z" fill="#1A1A1A"/>
    <path d="M38.003 8.0957H36.001V10.0977H38.003V8.0957Z" fill="white"/>
    <path d="M11.9971 10.0859H9.99512V12.0879H11.9971V10.0859Z" fill="white"/>
    <path d="M14 10.0859H11.998V12.0879H14V10.0859Z" fill="#1A1A1A"/>
    <path d="M16.002 10.0859H14V12.0879H16.002V10.0859Z" fill="#D9D9D9"/>
    <path d="M18.004 10.0859H16.002V12.0879H18.004V10.0859Z" fill="#D9D9D9"/>
    <path d="M20.0059 10.0859H18.0039V12.0879H20.0059V10.0859Z" fill="#49CE58"/>
    <path d="M21.9969 10.0859H19.9949V12.0879H21.9969V10.0859Z" fill="#49CE58"/>
    <path d="M23.9991 10.0859H21.9971V12.0879H23.9991V10.0859Z" fill="#49CE58"/>
    <path d="M26.001 10.0859H23.999V12.0879H26.001V10.0859Z" fill="#49CE58"/>
    <path d="M28.003 10.0859H26.001V12.0879H28.003V10.0859Z" fill="#49CE58"/>
    <path d="M30.0061 10.0859H28.0042V12.0879H30.0061V10.0859Z" fill="#49CE58"/>
    <path d="M31.9961 10.0859H29.9941V12.0879H31.9961V10.0859Z" fill="#49CE58"/>
    <path d="M33.9979 10.0859H31.9958V12.0879H33.9979V10.0859Z" fill="#D9D9D9"/>
    <path d="M36.001 10.0859H33.999V12.0879H36.001V10.0859Z" fill="#D9D9D9"/>
    <path d="M38.003 10.0859H36.001V12.0879H38.003V10.0859Z" fill="#1A1A1A"/>
    <path d="M40.0049 10.0859H38.0029V12.0879H40.0049V10.0859Z" fill="white"/>
    <path d="M10.0071 12.0879H8.00513V14.0899H10.0071V12.0879Z" fill="white"/>
    <path d="M11.9971 12.0879H9.99512V14.0899H11.9971V12.0879Z" fill="#1A1A1A"/>
    <path d="M14 12.0879H11.998V14.0899H14V12.0879Z" fill="#BFBFBF"/>
    <path d="M16.002 12.0879H14V14.0899H16.002V12.0879Z" fill="#49CE58"/>
    <path d="M18.004 12.0879H16.002V14.0899H18.004V12.0879Z" fill="#49CE58"/>
    <path d="M20.0059 12.0879H18.0039V14.0899H20.0059V12.0879Z" fill="#39A84A"/>
    <path d="M21.9969 12.0879H19.9949V14.0899H21.9969V12.0879Z" fill="#39A84A"/>
    <path d="M23.9991 12.0879H21.9971V14.0899H23.9991V12.0879Z" fill="#39A84A"/>
    <path d="M26.001 12.0879H23.999V14.0899H26.001V12.0879Z" fill="#39A84A"/>
    <path d="M28.003 12.0879H26.001V14.0899H28.003V12.0879Z" fill="#39A84A"/>
    <path d="M30.0061 12.0879H28.0042V14.0899H30.0061V12.0879Z" fill="#39A84A"/>
    <path d="M31.9961 12.0879H29.9941V14.0899H31.9961V12.0879Z" fill="#39A84A"/>
    <path d="M33.9979 12.0879H31.9958V14.0899H33.9979V12.0879Z" fill="#49CE58"/>
    <path d="M36.001 12.0879H33.999V14.0899H36.001V12.0879Z" fill="#49CE58"/>
    <path d="M38.003 12.0879H36.001V14.0899H38.003V12.0879Z" fill="#D9D9D9"/>
    <path d="M40.0049 12.0879H38.0029V14.0899H40.0049V12.0879Z" fill="#1A1A1A"/>
    <path d="M41.9952 12.0879H39.9932V14.0899H41.9952V12.0879Z" fill="white"/>
    <path d="M8.00395 14.0908H6.00195V16.0928H8.00395V14.0908Z" fill="white"/>
    <path d="M10.0071 14.0908H8.00513V16.0928H10.0071V14.0908Z" fill="#1A1A1A"/>
    <path d="M11.9971 14.0908H9.99512V16.0928H11.9971V14.0908Z" fill="#BFBFBF"/>
    <path d="M14 14.0908H11.998V16.0928H14V14.0908Z" fill="#49CE58"/>
    <path d="M16.002 14.0908H14V16.0928H16.002V14.0908Z" fill="#39A84A"/>
    <path d="M18.004 14.0908H16.002V16.0928H18.004V14.0908Z" fill="#39A84A"/>
    <path d="M20.0059 14.0908H18.0039V16.0928H20.0059V14.0908Z" fill="#39A84A"/>
    <path d="M21.9969 14.0908H19.9949V16.0928H21.9969V14.0908Z" fill="#39A84A"/>
    <path d="M23.9991 14.0908H21.9971V16.0928H23.9991V14.0908Z" fill="#39A84A"/>
    <path d="M26.001 14.0908H23.999V16.0928H26.001V14.0908Z" fill="#39A84A"/>
    <path d="M28.003 14.0908H26.001V16.0928H28.003V14.0908Z" fill="#39A84A"/>
    <path d="M30.0061 14.0908H28.0042V16.0928H30.0061V14.0908Z" fill="#39A84A"/>
    <path d="M31.9961 14.0908H29.9941V16.0928H31.9961V14.0908Z" fill="#39A84A"/>
    <path d="M33.9979 14.0908H31.9958V16.0928H33.9979V14.0908Z" fill="#39A84A"/>
    <path d="M36.001 14.0908H33.999V16.0928H36.001V14.0908Z" fill="#39A84A"/>
    <path d="M38.003 14.0908H36.001V16.0928H38.003V14.0908Z" fill="#49CE58"/>
    <path d="M40.0049 14.0908H38.0029V16.0928H40.0049V14.0908Z" fill="#D9D9D9"/>
    <path d="M41.9952 14.0908H39.9932V16.0928H41.9952V14.0908Z" fill="#1A1A1A"/>
    <path d="M43.9981 14.0908H41.9961V16.0928H43.9981V14.0908Z" fill="white"/>
    <path d="M8.00395 16.0928H6.00195V18.0948H8.00395V16.0928Z" fill="white"/>
    <path d="M10.0071 16.0928H8.00513V18.0948H10.0071V16.0928Z" fill="#1A1A1A"/>
    <path d="M11.9971 16.0928H9.99512V18.0948H11.9971V16.0928Z" fill="#BFBFBF"/>
    <path d="M14 16.0928H11.998V18.0948H14V16.0928Z" fill="#49CE58"/>
    <path d="M16.002 16.0928H14V18.0948H16.002V16.0928Z" fill="#39A84A"/>
    <path d="M18.004 16.0928H16.002V18.0948H18.004V16.0928Z" fill="#39A84A"/>
    <path d="M20.0059 16.0928H18.0039V18.0948H20.0059V16.0928Z" fill="#39A84A"/>
    <path d="M21.9969 16.0928H19.9949V18.0948H21.9969V16.0928Z" fill="#39A84A"/>
    <path d="M23.9991 16.0928H21.9971V18.0948H23.9991V16.0928Z" fill="#39A84A"/>
    <path d="M26.001 16.0928H23.999V18.0948H26.001V16.0928Z" fill="#39A84A"/>
    <path d="M28.003 16.0928H26.001V18.0948H28.003V16.0928Z" fill="#39A84A"/>
    <path d="M30.0061 16.0928H28.0042V18.0948H30.0061V16.0928Z" fill="#39A84A"/>
    <path d="M31.9961 16.0928H29.9941V18.0948H31.9961V16.0928Z" fill="#39A84A"/>
    <path d="M33.9979 16.0928H31.9958V18.0948H33.9979V16.0928Z" fill="#39A84A"/>
    <path d="M36.001 16.0928H33.999V18.0948H36.001V16.0928Z" fill="#39A84A"/>
    <path d="M38.003 16.0928H36.001V18.0948H38.003V16.0928Z" fill="#49CE58"/>
    <path d="M40.0049 16.0928H38.0029V18.0948H40.0049V16.0928Z" fill="#D9D9D9"/>
    <path d="M41.9952 16.0928H39.9932V18.0948H41.9952V16.0928Z" fill="#1A1A1A"/>
    <path d="M43.9981 16.0928H41.9961V18.0948H43.9981V16.0928Z" fill="white"/>
    <path d="M6.002 18.0947H4V20.0967H6.002V18.0947Z" fill="white"/>
    <path d="M8.00395 18.0947H6.00195V20.0967H8.00395V18.0947Z" fill="#1A1A1A"/>
    <path d="M10.0071 18.0947H8.00513V20.0967H10.0071V18.0947Z" fill="#BFBFBF"/>
    <path d="M11.9971 18.0947H9.99512V20.0967H11.9971V18.0947Z" fill="#266B2E"/>
    <path d="M14 18.0947H11.998V20.0967H14V18.0947Z" fill="#39A84A"/>
    <path d="M16.002 18.0947H14V20.0967H16.002V18.0947Z" fill="#39A84A"/>
    <path d="M18.004 18.0947H16.002V20.0967H18.004V18.0947Z" fill="#39A84A"/>
    <path d="M20.0059 18.0947H18.0039V20.0967H20.0059V18.0947Z" fill="#39A84A"/>
    <path d="M21.9969 18.0947H19.9949V20.0967H21.9969V18.0947Z" fill="#39A84A"/>
    <path d="M23.9991 18.0947H21.9971V20.0967H23.9991V18.0947Z" fill="#39A84A"/>
    <path d="M26.001 18.0947H23.999V20.0967H26.001V18.0947Z" fill="#39A84A"/>
    <path d="M28.003 18.0947H26.001V20.0967H28.003V18.0947Z" fill="#39A84A"/>
    <path d="M30.0061 18.0947H28.0042V20.0967H30.0061V18.0947Z" fill="#39A84A"/>
    <path d="M31.9961 18.0947H29.9941V20.0967H31.9961V18.0947Z" fill="#39A84A"/>
    <path d="M33.9979 18.0947H31.9958V20.0967H33.9979V18.0947Z" fill="#39A84A"/>
    <path d="M36.001 18.0947H33.999V20.0967H36.001V18.0947Z" fill="#39A84A"/>
    <path d="M38.003 18.0947H36.001V20.0967H38.003V18.0947Z" fill="#39A84A"/>
    <path d="M40.0049 18.0947H38.0029V20.0967H40.0049V18.0947Z" fill="#49CE58"/>
    <path d="M41.9952 18.0947H39.9932V20.0967H41.9952V18.0947Z" fill="#D9D9D9"/>
    <path d="M43.9981 18.0947H41.9961V20.0967H43.9981V18.0947Z" fill="#1A1A1A"/>
    <path d="M46 18.0947H43.998V20.0967H46V18.0947Z" fill="white"/>
    <path d="M6.002 20.085H4V22.087H6.002V20.085Z" fill="white"/>
    <path d="M8.00395 20.085H6.00195V22.087H8.00395V20.085Z" fill="#1A1A1A"/>
    <path d="M10.0071 20.085H8.00513V22.087H10.0071V20.085Z" fill="#BFBFBF"/>
    <path d="M11.9971 20.085H9.99512V22.087H11.9971V20.085Z" fill="#266B2E"/>
    <path d="M14 20.085H11.998V22.087H14V20.085Z" fill="#39A84A"/>
    <path d="M16.002 20.085H14V22.087H16.002V20.085Z" fill="#39A84A"/>
    <path d="M18.004 20.085H16.002V22.087H18.004V20.085Z" fill="#39A84A"/>
    <path d="M20.0059 20.085H18.0039V22.087H20.0059V20.085Z" fill="#39A84A"/>
    <path d="M21.9969 20.085H19.9949V22.087H21.9969V20.085Z" fill="#39A84A"/>
    <path d="M23.9991 20.085H21.9971V22.087H23.9991V20.085Z" fill="#39A84A"/>
    <path d="M26.001 20.085H23.999V22.087H26.001V20.085Z" fill="#39A84A"/>
    <path d="M28.003 20.085H26.001V22.087H28.003V20.085Z" fill="#39A84A"/>
    <path d="M30.0061 20.085H28.0042V22.087H30.0061V20.085Z" fill="#39A84A"/>
    <path d="M31.9961 20.085H29.9941V22.087H31.9961V20.085Z" fill="#39A84A"/>
    <path d="M33.9979 20.085H31.9958V22.087H33.9979V20.085Z" fill="#39A84A"/>
    <path d="M36.001 20.0845H33.999V22.0865H36.001V20.0845Z" fill="#39A84A"/>
    <path d="M38.003 20.0845H36.001V22.0865H38.003V20.0845Z" fill="#39A84A"/>
    <path d="M40.0049 20.085H38.0029V22.087H40.0049V20.085Z" fill="#49CE58"/>
    <path d="M41.9952 20.085H39.9932V22.087H41.9952V20.085Z" fill="#D9D9D9"/>
    <path d="M43.9981 20.085H41.9961V22.087H43.9981V20.085Z" fill="#1A1A1A"/>
    <path d="M46 20.085H43.998V22.087H46V20.085Z" fill="white"/>
    <path d="M6.002 22.0879H4V24.0899H6.002V22.0879Z" fill="white"/>
    <path d="M8.00395 22.0879H6.00195V24.0899H8.00395V22.0879Z" fill="#1A1A1A"/>
    <path d="M10.0071 22.0879H8.00513V24.0899H10.0071V22.0879Z" fill="#BFBFBF"/>
    <path d="M11.9971 22.0879H9.99512V24.0899H11.9971V22.0879Z" fill="#266B2E"/>
    <path d="M14 22.0879H11.998V24.0899H14V22.0879Z" fill="#39A84A"/>
    <path d="M16.002 22.0879H14V24.0899H16.002V22.0879Z" fill="#39A84A"/>
    <path d="M18.004 22.0879H16.002V24.0899H18.004V22.0879Z" fill="#39A84A"/>
    <path d="M20.0059 22.0879H18.0039V24.0899H20.0059V22.0879Z" fill="#39A84A"/>
    <path d="M21.9969 22.0879H19.9949V24.0899H21.9969V22.0879Z" fill="#39A84A"/>
    <path d="M23.9991 22.0879H21.9971V24.0899H23.9991V22.0879Z" fill="#39A84A"/>
    <path d="M26.001 22.0879H23.999V24.0899H26.001V22.0879Z" fill="#39A84A"/>
    <path d="M28.003 22.0879H26.001V24.0899H28.003V22.0879Z" fill="#39A84A"/>
    <path d="M30.0061 22.0879H28.0042V24.0899H30.0061V22.0879Z" fill="#39A84A"/>
    <path d="M31.9961 22.0879H29.9941V24.0899H31.9961V22.0879Z" fill="#39A84A"/>
    <path d="M33.9979 22.0879H31.9958V24.0899H33.9979V22.0879Z" fill="#39A84A"/>
    <path d="M36.001 22.0879H33.999V24.0899H36.001V22.0879Z" fill="#39A84A"/>
    <path d="M38.003 22.0879H36.001V24.0899H38.003V22.0879Z" fill="#39A84A"/>
    <path d="M40.0049 22.0879H38.0029V24.0899H40.0049V22.0879Z" fill="#49CE58"/>
    <path d="M41.9952 22.0879H39.9932V24.0899H41.9952V22.0879Z" fill="#D9D9D9"/>
    <path d="M43.9981 22.0879H41.9961V24.0899H43.9981V22.0879Z" fill="#1A1A1A"/>
    <path d="M46 22.0879H43.998V24.0899H46V22.0879Z" fill="white"/>
    <path d="M6.002 24.0898H4V26.0918H6.002V24.0898Z" fill="white"/>
    <path d="M8.00395 24.0898H6.00195V26.0918H8.00395V24.0898Z" fill="#1A1A1A"/>
    <path d="M10.0071 24.0898H8.00513V26.0918H10.0071V24.0898Z" fill="#BFBFBF"/>
    <path d="M11.9971 24.0898H9.99512V26.0918H11.9971V24.0898Z" fill="#266B2E"/>
    <path d="M14 24.0898H11.998V26.0918H14V24.0898Z" fill="#39A84A"/>
    <path d="M16.002 24.0898H14V26.0918H16.002V24.0898Z" fill="#39A84A"/>
    <path d="M18.004 24.0898H16.002V26.0918H18.004V24.0898Z" fill="#39A84A"/>
    <path d="M20.0059 24.0898H18.0039V26.0918H20.0059V24.0898Z" fill="#39A84A"/>
    <path d="M21.9969 24.0898H19.9949V26.0918H21.9969V24.0898Z" fill="#39A84A"/>
    <path d="M23.9991 24.0898H21.9971V26.0918H23.9991V24.0898Z" fill="#39A84A"/>
    <path d="M26.001 24.0898H23.999V26.0918H26.001V24.0898Z" fill="#39A84A"/>
    <path d="M28.003 24.0898H26.001V26.0918H28.003V24.0898Z" fill="#39A84A"/>
    <path d="M30.0061 24.0898H28.0042V26.0918H30.0061V24.0898Z" fill="#39A84A"/>
    <path d="M31.9961 24.0898H29.9941V26.0918H31.9961V24.0898Z" fill="#39A84A"/>
    <path d="M33.9979 24.0898H31.9958V26.0918H33.9979V24.0898Z" fill="#39A84A"/>
    <path d="M36.001 24.0898H33.999V26.0918H36.001V24.0898Z" fill="#39A84A"/>
    <path d="M38.003 24.0898H36.001V26.0918H38.003V24.0898Z" fill="#39A84A"/>
    <path d="M40.0049 24.0898H38.0029V26.0918H40.0049V24.0898Z" fill="#49CE58"/>
    <path d="M41.9952 24.0898H39.9932V26.0918H41.9952V24.0898Z" fill="#D9D9D9"/>
    <path d="M43.9981 24.0898H41.9961V26.0918H43.9981V24.0898Z" fill="#1A1A1A"/>
    <path d="M46 24.0898H43.998V26.0918H46V24.0898Z" fill="white"/>
    <path d="M6.002 26.0918H4V28.0938H6.002V26.0918Z" fill="white"/>
    <path d="M8.00395 26.0918H6.00195V28.0938H8.00395V26.0918Z" fill="#1A1A1A"/>
    <path d="M10.0071 26.0918H8.00513V28.0938H10.0071V26.0918Z" fill="#BFBFBF"/>
    <path d="M11.9971 26.0918H9.99512V28.0938H11.9971V26.0918Z" fill="#266B2E"/>
    <path d="M14 26.0918H11.998V28.0938H14V26.0918Z" fill="#39A84A"/>
    <path d="M16.002 26.0918H14V28.0938H16.002V26.0918Z" fill="#39A84A"/>
    <path d="M18.004 26.0918H16.002V28.0938H18.004V26.0918Z" fill="#39A84A"/>
    <path d="M20.0059 26.0918H18.0039V28.0938H20.0059V26.0918Z" fill="#39A84A"/>
    <path d="M21.9969 26.0918H19.9949V28.0938H21.9969V26.0918Z" fill="#39A84A"/>
    <path d="M23.9991 26.0918H21.9971V28.0938H23.9991V26.0918Z" fill="#39A84A"/>
    <path d="M26.001 26.0918H23.999V28.0938H26.001V26.0918Z" fill="#39A84A"/>
    <path d="M28.003 26.0918H26.001V28.0938H28.003V26.0918Z" fill="#39A84A"/>
    <path d="M30.0061 26.0918H28.0042V28.0938H30.0061V26.0918Z" fill="#39A84A"/>
    <path d="M31.9961 26.0918H29.9941V28.0938H31.9961V26.0918Z" fill="#39A84A"/>
    <path d="M33.9979 26.0918H31.9958V28.0938H33.9979V26.0918Z" fill="#39A84A"/>
    <path d="M36.001 26.0918H33.999V28.0938H36.001V26.0918Z" fill="#39A84A"/>
    <path d="M38.003 26.0918H36.001V28.0938H38.003V26.0918Z" fill="#39A84A"/>
    <path d="M40.0049 26.0918H38.0029V28.0938H40.0049V26.0918Z" fill="#49CE58"/>
    <path d="M41.9952 26.0918H39.9932V28.0938H41.9952V26.0918Z" fill="#D9D9D9"/>
    <path d="M43.9981 26.0918H41.9961V28.0938H43.9981V26.0918Z" fill="#1A1A1A"/>
    <path d="M46 26.0918H43.998V28.0938H46V26.0918Z" fill="white"/>
    <path d="M6.002 28.0947H4V30.0967H6.002V28.0947Z" fill="white"/>
    <path d="M8.00395 28.0947H6.00195V30.0967H8.00395V28.0947Z" fill="#1A1A1A"/>
    <path d="M10.0071 28.0947H8.00513V30.0967H10.0071V28.0947Z" fill="#BFBFBF"/>
    <path d="M11.9971 28.0947H9.99512V30.0967H11.9971V28.0947Z" fill="#266B2E"/>
    <path d="M14 28.0947H11.998V30.0967H14V28.0947Z" fill="#39A84A"/>
    <path d="M16.002 28.0947H14V30.0967H16.002V28.0947Z" fill="#39A84A"/>
    <path d="M18.004 28.0947H16.002V30.0967H18.004V28.0947Z" fill="#39A84A"/>
    <path d="M20.0059 28.0947H18.0039V30.0967H20.0059V28.0947Z" fill="#39A84A"/>
    <path d="M21.9969 28.0947H19.9949V30.0967H21.9969V28.0947Z" fill="#39A84A"/>
    <path d="M23.9991 28.0947H21.9971V30.0967H23.9991V28.0947Z" fill="#39A84A"/>
    <path d="M26.001 28.0947H23.999V30.0967H26.001V28.0947Z" fill="#39A84A"/>
    <path d="M28.003 28.0947H26.001V30.0967H28.003V28.0947Z" fill="#39A84A"/>
    <path d="M30.0061 28.0947H28.0042V30.0967H30.0061V28.0947Z" fill="#39A84A"/>
    <path d="M31.9961 28.0947H29.9941V30.0967H31.9961V28.0947Z" fill="#39A84A"/>
    <path d="M33.9979 28.0947H31.9958V30.0967H33.9979V28.0947Z" fill="#39A84A"/>
    <path d="M36.001 28.0947H33.999V30.0967H36.001V28.0947Z" fill="#39A84A"/>
    <path d="M38.003 28.0947H36.001V30.0967H38.003V28.0947Z" fill="#39A84A"/>
    <path d="M40.0049 28.0947H38.0029V30.0967H40.0049V28.0947Z" fill="#49CE58"/>
    <path d="M41.9952 28.0947H39.9932V30.0967H41.9952V28.0947Z" fill="#D9D9D9"/>
    <path d="M43.9981 28.0947H41.9961V30.0967H43.9981V28.0947Z" fill="#1A1A1A"/>
    <path d="M46 28.0947H43.998V30.0967H46V28.0947Z" fill="white"/>
    <path d="M6.002 30.0845H4V32.0865H6.002V30.0845Z" fill="white"/>
    <path d="M8.00395 30.0845H6.00195V32.0865H8.00395V30.0845Z" fill="#1A1A1A"/>
    <path d="M10.0071 30.0845H8.00513V32.0865H10.0071V30.0845Z" fill="#BFBFBF"/>
    <path d="M11.9971 30.0845H9.99512V32.0865H11.9971V30.0845Z" fill="#266B2E"/>
    <path d="M14 30.0845H11.998V32.0865H14V30.0845Z" fill="#39A84A"/>
    <path d="M16.002 30.0845H14V32.0865H16.002V30.0845Z" fill="#39A84A"/>
    <path d="M18.004 30.0845H16.002V32.0865H18.004V30.0845Z" fill="#39A84A"/>
    <path d="M20.0059 30.0845H18.0039V32.0865H20.0059V30.0845Z" fill="#39A84A"/>
    <path d="M21.9969 30.0845H19.9949V32.0865H21.9969V30.0845Z" fill="#39A84A"/>
    <path d="M23.9991 30.0845H21.9971V32.0865H23.9991V30.0845Z" fill="#39A84A"/>
    <path d="M26.001 30.0845H23.999V32.0865H26.001V30.0845Z" fill="#39A84A"/>
    <path d="M28.003 30.0845H26.001V32.0865H28.003V30.0845Z" fill="#39A84A"/>
    <path d="M30.0061 30.0845H28.0042V32.0865H30.0061V30.0845Z" fill="#39A84A"/>
    <path d="M31.9961 30.0845H29.9941V32.0865H31.9961V30.0845Z" fill="#39A84A"/>
    <path d="M33.9979 30.0845H31.9958V32.0865H33.9979V30.0845Z" fill="#39A84A"/>
    <path d="M36.001 30.0845H33.999V32.0865H36.001V30.0845Z" fill="#39A84A"/>
    <path d="M38.003 30.0845H36.001V32.0865H38.003V30.0845Z" fill="#39A84A"/>
    <path d="M40.0049 30.0845H38.0029V32.0865H40.0049V30.0845Z" fill="#49CE58"/>
    <path d="M41.9952 30.0845H39.9932V32.0865H41.9952V30.0845Z" fill="#D9D9D9"/>
    <path d="M43.9981 30.0845H41.9961V32.0865H43.9981V30.0845Z" fill="#1A1A1A"/>
    <path d="M46 30.0845H43.998V32.0865H46V30.0845Z" fill="white"/>
    <path d="M8.00395 32.0869H6.00195V34.0889H8.00395V32.0869Z" fill="white"/>
    <path d="M10.0071 32.0869H8.00513V34.0889H10.0071V32.0869Z" fill="#1A1A1A"/>
    <path d="M11.9971 32.0869H9.99512V34.0889H11.9971V32.0869Z" fill="#BFBFBF"/>
    <path d="M14 32.0869H11.998V34.0889H14V32.0869Z" fill="#266B2E"/>
    <path d="M16.002 32.0869H14V34.0889H16.002V32.0869Z" fill="#39A84A"/>
    <path d="M18.004 32.0869H16.002V34.0889H18.004V32.0869Z" fill="#39A84A"/>
    <path d="M20.0059 32.0869H18.0039V34.0889H20.0059V32.0869Z" fill="#39A84A"/>
    <path d="M21.9969 32.0869H19.9949V34.0889H21.9969V32.0869Z" fill="#39A84A"/>
    <path d="M23.9991 32.0869H21.9971V34.0889H23.9991V32.0869Z" fill="#39A84A"/>
    <path d="M26.001 32.0869H23.999V34.0889H26.001V32.0869Z" fill="#39A84A"/>
    <path d="M28.003 32.0869H26.001V34.0889H28.003V32.0869Z" fill="#39A84A"/>
    <path d="M30.0061 32.0869H28.0042V34.0889H30.0061V32.0869Z" fill="#39A84A"/>
    <path d="M31.9961 32.0869H29.9941V34.0889H31.9961V32.0869Z" fill="#39A84A"/>
    <path d="M33.9979 32.0869H31.9958V34.0889H33.9979V32.0869Z" fill="#39A84A"/>
    <path d="M36.001 32.0869H33.999V34.0889H36.001V32.0869Z" fill="#39A84A"/>
    <path d="M38.003 32.0869H36.001V34.0889H38.003V32.0869Z" fill="#39A84A"/>
    <path d="M40.0049 32.0869H38.0029V34.0889H40.0049V32.0869Z" fill="#D9D9D9"/>
    <path d="M41.9952 32.0869H39.9932V34.0889H41.9952V32.0869Z" fill="#1A1A1A"/>
    <path d="M43.9981 32.0869H41.9961V34.0889H43.9981V32.0869Z" fill="white"/>
    <path d="M8.00395 34.0889H6.00195V36.0909H8.00395V34.0889Z" fill="white"/>
    <path d="M10.0071 34.0889H8.00513V36.0909H10.0071V34.0889Z" fill="#1A1A1A"/>
    <path d="M11.9971 34.0889H9.99512V36.0909H11.9971V34.0889Z" fill="#BFBFBF"/>
    <path d="M14 34.0889H11.998V36.0909H14V34.0889Z" fill="#266B2E"/>
    <path d="M16.002 34.0889H14V36.0909H16.002V34.0889Z" fill="#39A84A"/>
    <path d="M18.004 34.0889H16.002V36.0909H18.004V34.0889Z" fill="#39A84A"/>
    <path d="M20.0059 34.0889H18.0039V36.0909H20.0059V34.0889Z" fill="#39A84A"/>
    <path d="M21.9969 34.0889H19.9949V36.0909H21.9969V34.0889Z" fill="#39A84A"/>
    <path d="M23.9991 34.0889H21.9971V36.0909H23.9991V34.0889Z" fill="#39A84A"/>
    <path d="M26.001 34.0889H23.999V36.0909H26.001V34.0889Z" fill="#39A84A"/>
    <path d="M28.003 34.0889H26.001V36.0909H28.003V34.0889Z" fill="#39A84A"/>
    <path d="M30.0061 34.0889H28.0042V36.0909H30.0061V34.0889Z" fill="#39A84A"/>
    <path d="M31.9961 34.0889H29.9941V36.0909H31.9961V34.0889Z" fill="#39A84A"/>
    <path d="M33.9979 34.0889H31.9958V36.0909H33.9979V34.0889Z" fill="#39A84A"/>
    <path d="M36.001 34.0889H33.999V36.0909H36.001V34.0889Z" fill="#39A84A"/>
    <path d="M38.003 34.0889H36.001V36.0909H38.003V34.0889Z" fill="#39A84A"/>
    <path d="M40.0049 34.0889H38.0029V36.0909H40.0049V34.0889Z" fill="#D9D9D9"/>
    <path d="M41.9952 34.0889H39.9932V36.0909H41.9952V34.0889Z" fill="#1A1A1A"/>
    <path d="M43.9981 34.0889H41.9961V36.0909H43.9981V34.0889Z" fill="white"/>
    <path d="M8.00395 36.0918H6.00195V38.0938H8.00395V36.0918Z" fill="white"/>
    <path d="M10.0071 36.0918H8.00513V38.0938H10.0071V36.0918Z" fill="white"/>
    <path d="M11.9971 36.0918H9.99512V38.0938H11.9971V36.0918Z" fill="#1A1A1A"/>
    <path d="M14 36.0918H11.998V38.0938H14V36.0918Z" fill="#BFBFBF"/>
    <path d="M16.002 36.0918H14V38.0938H16.002V36.0918Z" fill="#266B2E"/>
    <path d="M18.004 36.0918H16.002V38.0938H18.004V36.0918Z" fill="#266B2E"/>
    <path d="M20.0059 36.0918H18.0039V38.0938H20.0059V36.0918Z" fill="#39A84A"/>
    <path d="M21.9969 36.0918H19.9949V38.0938H21.9969V36.0918Z" fill="#39A84A"/>
    <path d="M23.9991 36.0918H21.9971V38.0938H23.9991V36.0918Z" fill="#39A84A"/>
    <path d="M26.001 36.0918H23.999V38.0938H26.001V36.0918Z" fill="#39A84A"/>
    <path d="M28.003 36.0918H26.001V38.0938H28.003V36.0918Z" fill="#39A84A"/>
    <path d="M30.0061 36.0918H28.0042V38.0938H30.0061V36.0918Z" fill="#39A84A"/>
    <path d="M31.9961 36.0918H29.9941V38.0938H31.9961V36.0918Z" fill="#39A84A"/>
    <path d="M33.9979 36.0918H31.9958V38.0938H33.9979V36.0918Z" fill="#39A84A"/>
    <path d="M36.001 36.0918H33.999V38.0938H36.001V36.0918Z" fill="#39A84A"/>
    <path d="M38.003 36.0918H36.001V38.0938H38.003V36.0918Z" fill="#D9D9D9"/>
    <path d="M40.0049 36.0918H38.0029V38.0938H40.0049V36.0918Z" fill="#1A1A1A"/>
    <path d="M41.9952 36.0918H39.9932V38.0938H41.9952V36.0918Z" fill="white"/>
    <path d="M43.9981 36.0918H41.9961V38.0938H43.9981V36.0918Z" fill="white"/>
    <path d="M10.0071 38.0938H8.00513V40.0957H10.0071V38.0938Z" fill="white"/>
    <path d="M11.9971 38.0938H9.99512V40.0957H11.9971V38.0938Z" fill="white"/>
    <path d="M14 38.0938H11.998V40.0957H14V38.0938Z" fill="#1A1A1A"/>
    <path d="M16.002 38.0938H14V40.0957H16.002V38.0938Z" fill="#BFBFBF"/>
    <path d="M18.004 38.0938H16.002V40.0957H18.004V38.0938Z" fill="#BFBFBF"/>
    <path d="M20.0059 38.0938H18.0039V40.0957H20.0059V38.0938Z" fill="#266B2E"/>
    <path d="M21.9969 38.0938H19.9949V40.0957H21.9969V38.0938Z" fill="#266B2E"/>
    <path d="M23.9991 38.0938H21.9971V40.0957H23.9991V38.0938Z" fill="#266B2E"/>
    <path d="M26.001 38.0938H23.999V40.0957H26.001V38.0938Z" fill="#266B2E"/>
    <path d="M28.003 38.0938H26.001V40.0957H28.003V38.0938Z" fill="#266B2E"/>
    <path d="M30.0061 38.0938H28.0042V40.0957H30.0061V38.0938Z" fill="#266B2E"/>
    <path d="M31.9961 38.0938H29.9941V40.0957H31.9961V38.0938Z" fill="#266B2E"/>
    <path d="M33.9979 38.0938H31.9958V40.0957H33.9979V38.0938Z" fill="#D9D9D9"/>
    <path d="M36.001 38.0938H33.999V40.0957H36.001V38.0938Z" fill="#D9D9D9"/>
    <path d="M38.003 38.0938H36.001V40.0957H38.003V38.0938Z" fill="#1A1A1A"/>
    <path d="M40.0049 38.0938H38.0029V40.0957H40.0049V38.0938Z" fill="white"/>
    <path d="M41.9952 38.0938H39.9932V40.0957H41.9952V38.0938Z" fill="white"/>
    <path d="M11.9971 40.085H9.99512V42.087H11.9971V40.085Z" fill="white"/>
    <path d="M14 40.085H11.998V42.087H14V40.085Z" fill="white"/>
    <path d="M16.002 40.085H14V42.087H16.002V40.085Z" fill="#1A1A1A"/>
    <path d="M18.004 40.085H16.002V42.087H18.004V40.085Z" fill="#1A1A1A"/>
    <path d="M20.0059 40.085H18.0039V42.087H20.0059V40.085Z" fill="#BFBFBF"/>
    <path d="M21.9969 40.085H19.9949V42.087H21.9969V40.085Z" fill="#BFBFBF"/>
    <path d="M23.9991 40.085H21.9971V42.087H23.9991V40.085Z" fill="#BFBFBF"/>
    <path d="M26.001 40.085H23.999V42.087H26.001V40.085Z" fill="#BFBFBF"/>
    <path d="M28.003 40.085H26.001V42.087H28.003V40.085Z" fill="#BFBFBF"/>
    <path d="M30.0061 40.085H28.0042V42.087H30.0061V40.085Z" fill="#BFBFBF"/>
    <path d="M31.9961 40.085H29.9941V42.087H31.9961V40.085Z" fill="#BFBFBF"/>
    <path d="M33.9979 40.085H31.9958V42.087H33.9979V40.085Z" fill="#1A1A1A"/>
    <path d="M36.001 40.085H33.999V42.087H36.001V40.085Z" fill="#1A1A1A"/>
    <path d="M38.003 40.085H36.001V42.087H38.003V40.085Z" fill="white"/>
    <path d="M40.0049 40.085H38.0029V42.087H40.0049V40.085Z" fill="white"/>
    <path d="M14 42.0869H11.998V44.0889H14V42.0869Z" fill="white"/>
    <path d="M16.002 42.0869H14V44.0889H16.002V42.0869Z" fill="white"/>
    <path d="M18.004 42.0869H16.002V44.0889H18.004V42.0869Z" fill="white"/>
    <path d="M20.0059 42.0869H18.0039V44.0889H20.0059V42.0869Z" fill="#1A1A1A"/>
    <path d="M21.9969 42.0869H19.9949V44.0889H21.9969V42.0869Z" fill="#1A1A1A"/>
    <path d="M23.9991 42.0869H21.9971V44.0889H23.9991V42.0869Z" fill="#1A1A1A"/>
    <path d="M26.001 42.0869H23.999V44.0889H26.001V42.0869Z" fill="#1A1A1A"/>
    <path d="M28.003 42.0869H26.001V44.0889H28.003V42.0869Z" fill="#1A1A1A"/>
    <path d="M30.0061 42.0869H28.0042V44.0889H30.0061V42.0869Z" fill="#1A1A1A"/>
    <path d="M31.9961 42.0869H29.9941V44.0889H31.9961V42.0869Z" fill="#1A1A1A"/>
    <path d="M33.9979 42.0869H31.9958V44.0889H33.9979V42.0869Z" fill="white"/>
    <path d="M36.001 42.0869H33.999V44.0889H36.001V42.0869Z" fill="white"/>
    <path d="M38.003 42.0869H36.001V44.0889H38.003V42.0869Z" fill="white"/>
    <path d="M18.004 44.0889H16.002V46.0909H18.004V44.0889Z" fill="white"/>
    <path d="M20.0059 44.0889H18.0039V46.0909H20.0059V44.0889Z" fill="white"/>
    <path d="M21.9969 44.0889H19.9949V46.0909H21.9969V44.0889Z" fill="white"/>
    <path d="M23.9991 44.0889H21.9971V46.0909H23.9991V44.0889Z" fill="white"/>
    <path d="M26.001 44.0889H23.999V46.0909H26.001V44.0889Z" fill="white"/>
    <path d="M28.003 44.0889H26.001V46.0909H28.003V44.0889Z" fill="white"/>
    <path d="M30.0061 44.0889H28.0042V46.0909H30.0061V44.0889Z" fill="white"/>
    <path d="M31.9961 44.0889H29.9941V46.0909H31.9961V44.0889Z" fill="white"/>
    <path d="M33.9979 44.0889H31.9958V46.0909H33.9979V44.0889Z" fill="white"/>
    <path d="M36 18.0889H33.998V20.0909H36V18.0889Z" fill="white"/>
    <path d="M38.001 18.0889H35.999V20.0909H38.001V18.0889Z" fill="white"/>
    <path d="M33.9971 20.0908H31.9951V22.0928H33.9971V20.0908Z" fill="white"/>
    <path d="M31.9949 22.0938H29.9929V24.0957H31.9949V22.0938Z" fill="white"/>
    <path d="M36 20.085H33.998V22.087H36V20.085Z" fill="white"/>
    <path d="M33.9971 22.0879H31.9951V24.0899H33.9971V22.0879Z" fill="white"/>
    <path d="M31.9949 24.0898H29.9929V26.0918H31.9949V24.0898Z" fill="white"/>
    <path d="M18.003 24.0957H16.001V26.0977H18.003V24.0957Z" fill="white"/>
    <path d="M16.001 24.0957H13.999V26.0977H16.001V24.0957Z" fill="white"/>
    <path d="M16.001 22.0879H13.999V24.0899H16.001V22.0879Z" fill="white"/>
    <path d="M14.001 22.0879H11.999V24.0899H14.001V22.0879Z" fill="white"/>
    <path d="M26.001 30.0908H23.999V32.0928H26.001V30.0908Z" fill="white"/>
    <path d="M23.9981 32.0928H21.9961V34.0948H23.9981V32.0928Z" fill="white"/>
    <path d="M28.001 28.0889H25.999V30.0909H28.001V28.0889Z" fill="white"/>
    <path d="M30.0061 26.0981H28.0042V28.1001H30.0061V26.0981Z" fill="white"/>
    <path d="M30.004 24.0957H28.002V26.0977H30.004V24.0957Z" fill="white"/>
    <path d="M20.0049 26.0981H18.0029V28.1001H20.0049V26.0981Z" fill="white"/>
    <path d="M28.002 26.0981H26V28.1001H28.002V26.0981Z" fill="white"/>
    <path d="M21.9959 28.0889H19.9939V30.0909H21.9959V28.0889Z" fill="white"/>
    <path d="M18.003 26.0928H16.001V28.0948H18.003V26.0928Z" fill="white"/>
    <path d="M20.0049 28.0947H18.0029V30.0967H20.0049V28.0947Z" fill="white"/>
    <path d="M21.9959 30.0845H19.9939V32.0865H21.9959V30.0845Z" fill="white"/>
    <path d="M26 28.0889H23.998V30.0909H26V28.0889Z" fill="white"/>
    <path d="M23.9981 30.0908H21.9961V32.0928H23.9981V30.0908Z" fill="white"/>
</svg>
