<svg width="139" height="53" viewBox="0 0 139 53" fill="none" xmlns="http://www.w3.org/2000/svg">
    <path d="M121 41H118V44H121V41Z" fill="black" stroke="white" stroke-width="5"/>
    <path d="M124 44L121 43.9915V47H124V50H127V41H130V38H124V44Z" stroke="white" stroke-width="5"/>
    <rect y="7" width="72" height="31" fill="white"/>
    <path d="M9 35H6V38H9V35Z" fill="white" stroke="white" stroke-width="5.43327" stroke-miterlimit="10"/>
    <path d="M133 6H130V9H133V6Z" fill="white" stroke="white" stroke-width="5.43327" stroke-miterlimit="10"/>
    <path d="M118 38H9V41H118V38Z" fill="white" stroke="white" stroke-width="5.43327" stroke-miterlimit="10"/>
    <path d="M136 9H133V35H136V9Z" fill="white" stroke="white" stroke-width="5.43327" stroke-miterlimit="10"/>
    <path d="M130 3H9V6H130V3Z" fill="white" stroke="white" stroke-width="5.43327" stroke-miterlimit="10"/>
    <path d="M6 9H3V35H6V9Z" fill="white" stroke="white" stroke-width="5.43327" stroke-miterlimit="10"/>
    <path d="M121.069 6.74878H118.321V9.49744H121.069V6.74878Z" fill="white" stroke="white" stroke-width="5.43327" stroke-miterlimit="10"/>
    <path d="M133 35H130V38H133V35Z" fill="white" stroke="white" stroke-width="5.43327" stroke-miterlimit="10"/>
    <path d="M9 6H6V9H9V6Z" fill="white" stroke="white" stroke-width="5.43327" stroke-miterlimit="10"/>
    <path d="M9 35H6V38H9V35Z" fill="black"/>
    <path d="M118 38H9V41H118V38Z" fill="black"/>
    <path d="M136 9H133V35H136V9Z" fill="black"/>
    <path d="M130 3H9V6H130V3Z" fill="black"/>
    <path d="M6 9H3V35H6V9Z" fill="black"/>
    <path d="M133 6H130V9H133V6Z" fill="black"/>
    <path d="M133 35H130V38H133V35Z" fill="black"/>
    <path d="M9 6H6V9H9V6Z" fill="black"/>
    <path d="M124 44L121 43.9915V47H124V50H127V41H130V38H124V44Z" fill="black"/>
    <path d="M121 41H118V44H121V41Z" fill="black"/>
</svg>
