<svg width="29" height="40" viewBox="0 0 29 40" fill="none" xmlns="http://www.w3.org/2000/svg">
    <path d="M8.00003 0L6.39819 0V1.60184H8.00003V0Z" fill="white"/>
    <path d="M9.60135 0L7.99951 0V1.60184H9.60135V0Z" fill="white"/>
    <path d="M11.2036 0L9.60181 0V1.60184H11.2036V0Z" fill="white"/>
    <path d="M12.8051 0L11.2032 0V1.60184H12.8051V0Z" fill="white"/>
    <path d="M14.3982 0L12.7964 0V1.60184H14.3982V0Z" fill="white"/>
    <path d="M15.9997 0L14.3978 0V1.60184H15.9997V0Z" fill="white"/>
    <path d="M17.6018 0L16 0V1.60184H17.6018V0Z" fill="white"/>
    <path d="M19.2033 0L17.6014 0V1.60184H19.2033V0Z" fill="white"/>
    <path d="M20.8055 0L19.2036 0V1.60184H20.8055V0Z" fill="white"/>
    <path d="M22.3979 0L20.796 0V1.60184H22.3979V0Z" fill="white"/>
    <path d="M24.0002 0L22.3983 0V1.60184H24.0002V0Z" fill="white"/>
    <path d="M25.6016 0L23.9998 0V1.60184H25.6016V0Z" fill="white"/>
    <path d="M27.2039 0L25.6021 0V1.60184H27.2039V0Z" fill="white"/>
    <path d="M6.39786 1.60205H4.79602V3.20389H6.39786V1.60205Z" fill="white"/>
    <path d="M8.00003 1.60205H6.39819V3.20389H8.00003V1.60205Z" fill="black"/>
    <path d="M9.60135 1.60205H7.99951V3.20389H9.60135V1.60205Z" fill="black"/>
    <path d="M11.2036 1.60205H9.60181V3.20389H11.2036V1.60205Z" fill="black"/>
    <path d="M12.8051 1.60205H11.2032V3.20389H12.8051V1.60205Z" fill="black"/>
    <path d="M14.3983 1.60205H12.7965V3.20389H14.3983V1.60205Z" fill="black"/>
    <path d="M15.9997 1.60205H14.3978V3.20389H15.9997V1.60205Z" fill="black"/>
    <path d="M17.6018 1.60205H16V3.20389H17.6018V1.60205Z" fill="black"/>
    <path d="M19.2034 1.60205H17.6016V3.20389H19.2034V1.60205Z" fill="black"/>
    <path d="M20.8055 1.60205H19.2036V3.20389H20.8055V1.60205Z" fill="black"/>
    <path d="M22.3979 1.60205H20.796V3.20389H22.3979V1.60205Z" fill="black"/>
    <path d="M24.0002 1.60205H22.3983V3.20389H24.0002V1.60205Z" fill="black"/>
    <path d="M25.6015 1.60205H23.9996V3.20389H25.6015V1.60205Z" fill="black"/>
    <path d="M27.2039 1.60205H25.6021V3.20389H27.2039V1.60205Z" fill="black"/>
    <path d="M28.8052 1.60205H27.2034V3.20389H28.8052V1.60205Z" fill="white"/>
    <path d="M6.39786 3.20361H4.79602V4.80545H6.39786V3.20361Z" fill="white"/>
    <path d="M8.00003 3.20361H6.39819V4.80545H8.00003V3.20361Z" fill="black"/>
    <path d="M9.60135 3.20361H7.99951V4.80545H9.60135V3.20361Z" fill="#D98100"/>
    <path d="M11.2036 3.20361H9.60181V4.80545H11.2036V3.20361Z" fill="#FFBF66"/>
    <path d="M12.8052 3.20361H11.2034V4.80545H12.8052V3.20361Z" fill="#FFBF66"/>
    <path d="M14.3983 3.20361H12.7965V4.80545H14.3983V3.20361Z" fill="#FFBF66"/>
    <path d="M15.9997 3.20361H14.3978V4.80545H15.9997V3.20361Z" fill="#FFBF66"/>
    <path d="M17.6018 3.20361H16V4.80545H17.6018V3.20361Z" fill="#FFBF66"/>
    <path d="M19.2033 3.20361H17.6014V4.80545H19.2033V3.20361Z" fill="#FFBF66"/>
    <path d="M20.8055 3.20361H19.2036V4.80545H20.8055V3.20361Z" fill="#FFBF66"/>
    <path d="M22.3979 3.20361H20.796V4.80545H22.3979V3.20361Z" fill="#FFBF66"/>
    <path d="M24.0002 3.20361H22.3983V4.80545H24.0002V3.20361Z" fill="#FFBF66"/>
    <path d="M25.6016 3.20361H23.9998V4.80545H25.6016V3.20361Z" fill="#FFBF66"/>
    <path d="M27.2039 3.20361H25.6021V4.80545H27.2039V3.20361Z" fill="black"/>
    <path d="M28.8052 3.20361H27.2034V4.80545H28.8052V3.20361Z" fill="white"/>
    <path d="M6.39774 4.79639H4.7959V6.39823H6.39774V4.79639Z" fill="white"/>
    <path d="M8.00003 4.79639H6.39819V6.39823H8.00003V4.79639Z" fill="black"/>
    <path d="M9.60135 4.79688H7.99951V6.39871H9.60135V4.79688Z" fill="#D98100"/>
    <path d="M11.2036 4.79688H9.60181V6.39871H11.2036V4.79688Z" fill="#FFA219"/>
    <path d="M12.8051 4.79688H11.2032V6.39871H12.8051V4.79688Z" fill="#FFA219"/>
    <path d="M14.3982 4.79688H12.7964V6.39871H14.3982V4.79688Z" fill="#FFA219"/>
    <path d="M15.9998 4.79688H14.3979V6.39871H15.9998V4.79688Z" fill="#FFA219"/>
    <path d="M17.6018 4.79688H16V6.39871H17.6018V4.79688Z" fill="#FFA219"/>
    <path d="M19.2033 4.79688H17.6014V6.39871H19.2033V4.79688Z" fill="#FFA219"/>
    <path d="M20.8055 4.79688H19.2036V6.39871H20.8055V4.79688Z" fill="#FFA219"/>
    <path d="M22.3979 4.79688H20.796V6.39871H22.3979V4.79688Z" fill="#FFA219"/>
    <path d="M24.0002 4.79688H22.3983V6.39871H24.0002V4.79688Z" fill="#FFBF66"/>
    <path d="M25.6016 4.79688H23.9998V6.39871H25.6016V4.79688Z" fill="black"/>
    <path d="M27.2039 4.79688H25.6021V6.39871H27.2039V4.79688Z" fill="white"/>
    <path d="M4.80545 6.39844H3.20361V8.00028H4.80545V6.39844Z" fill="white"/>
    <path d="M6.39786 6.39844H4.79602V8.00028H6.39786V6.39844Z" fill="black"/>
    <path d="M8.00003 6.39844H6.39819V8.00028H8.00003V6.39844Z" fill="#D98100"/>
    <path d="M9.60135 6.39844H7.99951V8.00028H9.60135V6.39844Z" fill="#FFA219"/>
    <path d="M11.2036 6.39844H9.60181V8.00028H11.2036V6.39844Z" fill="#FFA219"/>
    <path d="M12.8051 6.39844H11.2032V8.00028H12.8051V6.39844Z" fill="#FFA219"/>
    <path d="M14.3982 6.39844H12.7964V8.00028H14.3982V6.39844Z" fill="#FFA219"/>
    <path d="M15.9997 6.39844H14.3978V8.00028H15.9997V6.39844Z" fill="#FFA219"/>
    <path d="M17.6018 6.39844H16V8.00028H17.6018V6.39844Z" fill="white"/>
    <path d="M19.2033 6.39844H17.6014V8.00028H19.2033V6.39844Z" fill="#FFA219"/>
    <path d="M20.8055 6.39844H19.2036V8.00028H20.8055V6.39844Z" fill="#FFA219"/>
    <path d="M22.3979 6.39844H20.796V8.00028H22.3979V6.39844Z" fill="#FFBF66"/>
    <path d="M24.0002 6.39844H22.3983V8.00028H24.0002V6.39844Z" fill="black"/>
    <path d="M25.6016 6.39844H23.9998V8.00028H25.6016V6.39844Z" fill="white"/>
    <path d="M4.80545 8H3.20361V9.60184H4.80545V8Z" fill="white"/>
    <path d="M6.39786 8H4.79602V9.60184H6.39786V8Z" fill="black"/>
    <path d="M8.00003 8H6.39819V9.60184H8.00003V8Z" fill="#D98100"/>
    <path d="M9.60135 8H7.99951V9.60184H9.60135V8Z" fill="#FFA219"/>
    <path d="M11.2036 8H9.60181V9.60184H11.2036V8Z" fill="#FFA219"/>
    <path d="M12.8051 8H11.2032V9.60184H12.8051V8Z" fill="#FFA219"/>
    <path d="M14.3983 8H12.7965V9.60184H14.3983V8Z" fill="#FFA219"/>
    <path d="M15.9997 8H14.3978V9.60184H15.9997V8Z" fill="white"/>
    <path d="M17.6018 8H16V9.60184H17.6018V8Z" fill="#FFA219"/>
    <path d="M19.2033 8H17.6014V9.60184H19.2033V8Z" fill="#FFA219"/>
    <path d="M20.8055 8H19.2036V9.60184H20.8055V8Z" fill="#FFBF66"/>
    <path d="M22.3979 8H20.796V9.60184H22.3979V8Z" fill="black"/>
    <path d="M24.0002 8H22.3983V9.60184H24.0002V8Z" fill="white"/>
    <path d="M4.80545 9.60205H3.20361V11.2039H4.80545V9.60205Z" fill="white"/>
    <path d="M6.39786 9.60205H4.79602V11.2039H6.39786V9.60205Z" fill="black"/>
    <path d="M8.00003 9.60156H6.39819V11.2034H8.00003V9.60156Z" fill="#D98100"/>
    <path d="M9.60135 9.60205H7.99951V11.2039H9.60135V9.60205Z" fill="#FFA219"/>
    <path d="M11.2036 9.60205H9.60181V11.2039H11.2036V9.60205Z" fill="#FFA219"/>
    <path d="M12.8051 9.60205H11.2032V11.2039H12.8051V9.60205Z" fill="#FFA219"/>
    <path d="M14.3982 9.60205H12.7964V11.2039H14.3982V9.60205Z" fill="#FFA219"/>
    <path d="M15.9997 9.60205H14.3978V11.2039H15.9997V9.60205Z" fill="#FFA219"/>
    <path d="M17.602 9.60205H16.0001V11.2039H17.602V9.60205Z" fill="#FFA219"/>
    <path d="M19.2033 9.60205H17.6014V11.2039H19.2033V9.60205Z" fill="#FFBF66"/>
    <path d="M20.8055 9.60205H19.2036V11.2039H20.8055V9.60205Z" fill="black"/>
    <path d="M22.3979 9.60205H20.796V11.2039H22.3979V9.60205Z" fill="white"/>
    <path d="M3.20413 11.2036H1.60229V12.8055H3.20413V11.2036Z" fill="white"/>
    <path d="M4.80545 11.2036H3.20361V12.8055H4.80545V11.2036Z" fill="black"/>
    <path d="M6.39774 11.2036H4.7959V12.8055H6.39774V11.2036Z" fill="#D98100"/>
    <path d="M8.00003 11.2036H6.39819V12.8055H8.00003V11.2036Z" fill="#FFA219"/>
    <path d="M9.60147 11.2036H7.99963V12.8055H9.60147V11.2036Z" fill="#FFA219"/>
    <path d="M11.2036 11.2036H9.60181V12.8055H11.2036V11.2036Z" fill="#FFA219"/>
    <path d="M12.8051 11.2036H11.2032V12.8055H12.8051V11.2036Z" fill="#FFA219"/>
    <path d="M14.3983 11.2036H12.7965V12.8055H14.3983V11.2036Z" fill="#FFA219"/>
    <path d="M15.9997 11.2036H14.3978V12.8055H15.9997V11.2036Z" fill="#FFA219"/>
    <path d="M17.6018 11.2036H16V12.8055H17.6018V11.2036Z" fill="#FFBF66"/>
    <path d="M19.2033 11.2036H17.6014V12.8055H19.2033V11.2036Z" fill="black"/>
    <path d="M20.8055 11.2036H19.2036V12.8055H20.8055V11.2036Z" fill="white"/>
    <path d="M3.20413 12.7959H1.60229V14.3977H3.20413V12.7959Z" fill="white"/>
    <path d="M4.80545 12.7959H3.20361V14.3977H4.80545V12.7959Z" fill="black"/>
    <path d="M6.39774 12.7959H4.7959V14.3977H6.39774V12.7959Z" fill="#D98100"/>
    <path d="M8.00003 12.7959H6.39819V14.3977H8.00003V12.7959Z" fill="#FFA219"/>
    <path d="M9.60135 12.7959H7.99951V14.3977H9.60135V12.7959Z" fill="#FFA219"/>
    <path d="M11.2036 12.7959H9.60181V14.3977H11.2036V12.7959Z" fill="#FFA219"/>
    <path d="M12.8051 12.7959H11.2032V14.3977H12.8051V12.7959Z" fill="#FFA219"/>
    <path d="M14.3982 12.7959H12.7964V14.3977H14.3982V12.7959Z" fill="#FFA219"/>
    <path d="M15.9997 12.7959H14.3978V14.3977H15.9997V12.7959Z" fill="#FFBF66"/>
    <path d="M17.602 12.7959H16.0001V14.3977H17.602V12.7959Z" fill="black"/>
    <path d="M19.2033 12.7959H17.6014V14.3977H19.2033V12.7959Z" fill="white"/>
    <path d="M20.8055 12.7959H19.2036V14.3977H20.8055V12.7959Z" fill="white"/>
    <path d="M22.3979 12.7959H20.796V14.3977H22.3979V12.7959Z" fill="white"/>
    <path d="M24 12.7959H22.3982V14.3977H24V12.7959Z" fill="white"/>
    <path d="M3.20413 14.3975H1.60229V15.9993H3.20413V14.3975Z" fill="white"/>
    <path d="M4.80545 14.3975H3.20361V15.9993H4.80545V14.3975Z" fill="black"/>
    <path d="M6.39786 14.3975H4.79602V15.9993H6.39786V14.3975Z" fill="#D98100"/>
    <path d="M8.00003 14.3975H6.39819V15.9993H8.00003V14.3975Z" fill="#FFA219"/>
    <path d="M9.60147 14.3984H7.99963V16.0003H9.60147V14.3984Z" fill="#FFA219"/>
    <path d="M11.2036 14.3984H9.60181V16.0003H11.2036V14.3984Z" fill="#FFA219"/>
    <path d="M12.8051 14.3975H11.2032V15.9993H12.8051V14.3975Z" fill="#FFA219"/>
    <path d="M14.3982 14.3975H12.7964V15.9993H14.3982V14.3975Z" fill="#FFBF66"/>
    <path d="M15.9997 14.3975H14.3978V15.9993H15.9997V14.3975Z" fill="black"/>
    <path d="M17.6018 14.3975H16V15.9993H17.6018V14.3975Z" fill="black"/>
    <path d="M19.2033 14.3984H17.6014V16.0003H19.2033V14.3984Z" fill="black"/>
    <path d="M20.8055 14.3984H19.2036V16.0003H20.8055V14.3984Z" fill="black"/>
    <path d="M22.398 14.3984H20.7961V16.0003H22.398V14.3984Z" fill="black"/>
    <path d="M24.0002 14.3984H22.3983V16.0003H24.0002V14.3984Z" fill="black"/>
    <path d="M25.6016 14.3975H23.9998V15.9993H25.6016V14.3975Z" fill="white"/>
    <path d="M1.60184 16H0L0 17.6018H1.60184V16Z" fill="white"/>
    <path d="M3.20413 16H1.60229V17.6018H3.20413V16Z" fill="black"/>
    <path d="M4.80545 16H3.20361V17.6018H4.80545V16Z" fill="#D98100"/>
    <path d="M6.39786 16H4.79602V17.6018H6.39786V16Z" fill="#FFA219"/>
    <path d="M8.00003 16H6.39819V17.6018H8.00003V16Z" fill="#FFA219"/>
    <path d="M9.60135 16H7.99951V17.6018H9.60135V16Z" fill="#FFA219"/>
    <path d="M11.2036 16H9.60181V17.6018H11.2036V16Z" fill="#FFA219"/>
    <path d="M12.8051 15.9995H11.2032V17.6013H12.8051V15.9995Z" fill="#FFA219"/>
    <path d="M14.3983 16H12.7965V17.6018H14.3983V16Z" fill="#FFA219"/>
    <path d="M15.9997 16H14.3978V17.6018H15.9997V16Z" fill="#FFA219"/>
    <path d="M17.6018 16H16V17.6018H17.6018V16Z" fill="#FFA219"/>
    <path d="M19.2033 16H17.6014V17.6018H19.2033V16Z" fill="#FFA219"/>
    <path d="M20.8055 16H19.2036V17.6018H20.8055V16Z" fill="#FFA219"/>
    <path d="M22.3979 16H20.796V17.6018H22.3979V16Z" fill="#FFA219"/>
    <path d="M24.0002 16H22.3983V17.6018H24.0002V16Z" fill="#FFBF66"/>
    <path d="M25.6016 15.9995H23.9998V17.6013H25.6016V15.9995Z" fill="black"/>
    <path d="M27.2039 16H25.6021V17.6018H27.2039V16Z" fill="white"/>
    <path d="M1.60184 17.6016H0L0 19.2034H1.60184V17.6016Z" fill="white"/>
    <path d="M3.20413 17.6016H1.60229V19.2034H3.20413V17.6016Z" fill="black"/>
    <path d="M4.80545 17.6016H3.20361V19.2034H4.80545V17.6016Z" fill="#D98100"/>
    <path d="M6.39774 17.6016H4.7959V19.2034H6.39774V17.6016Z" fill="#D98100"/>
    <path d="M8.00003 17.6016H6.39819V19.2034H8.00003V17.6016Z" fill="#D98100"/>
    <path d="M9.60135 17.6016H7.99951V19.2034H9.60135V17.6016Z" fill="#D98100"/>
    <path d="M11.2036 17.6016H9.60181V19.2034H11.2036V17.6016Z" fill="#D98100"/>
    <path d="M12.8051 17.6016H11.2032V19.2034H12.8051V17.6016Z" fill="#FFA219"/>
    <path d="M14.3983 17.6016H12.7965V19.2034H14.3983V17.6016Z" fill="#FFA219"/>
    <path d="M15.9997 17.6016H14.3978V19.2034H15.9997V17.6016Z" fill="#FFA219"/>
    <path d="M17.6018 17.6016H16V19.2034H17.6018V17.6016Z" fill="#FFA219"/>
    <path d="M19.2033 17.6016H17.6014V19.2034H19.2033V17.6016Z" fill="white"/>
    <path d="M20.8055 17.6016H19.2036V19.2034H20.8055V17.6016Z" fill="#FFA219"/>
    <path d="M22.3979 17.6016H20.796V19.2034H22.3979V17.6016Z" fill="#FFA219"/>
    <path d="M24.0002 17.6016H22.3983V19.2034H24.0002V17.6016Z" fill="#FFBF66"/>
    <path d="M25.6016 17.6016H23.9998V19.2034H25.6016V17.6016Z" fill="black"/>
    <path d="M27.2039 17.6016H25.6021V19.2034H27.2039V17.6016Z" fill="white"/>
    <path d="M1.60184 19.2041H0L0 20.8059H1.60184V19.2041Z" fill="white"/>
    <path d="M3.20413 19.2041H1.60229V20.8059H3.20413V19.2041Z" fill="black"/>
    <path d="M4.80545 19.2041H3.20361V20.8059H4.80545V19.2041Z" fill="black"/>
    <path d="M6.39774 19.2041H4.7959V20.8059H6.39774V19.2041Z" fill="black"/>
    <path d="M8.00003 19.2041H6.39819V20.8059H8.00003V19.2041Z" fill="black"/>
    <path d="M9.60135 19.2041H7.99951V20.8059H9.60135V19.2041Z" fill="black"/>
    <path d="M11.2036 19.2041H9.60181V20.8059H11.2036V19.2041Z" fill="#D98100"/>
    <path d="M12.8051 19.2041H11.2032V20.8059H12.8051V19.2041Z" fill="#FFA219"/>
    <path d="M14.3982 19.2041H12.7964V20.8059H14.3982V19.2041Z" fill="#FFA219"/>
    <path d="M15.9997 19.2041H14.3978V20.8059H15.9997V19.2041Z" fill="#FFA219"/>
    <path d="M17.6018 19.2041H16V20.8059H17.6018V19.2041Z" fill="white"/>
    <path d="M19.2033 19.2041H17.6014V20.8059H19.2033V19.2041Z" fill="#FFA219"/>
    <path d="M20.8055 19.2041H19.2036V20.8059H20.8055V19.2041Z" fill="#FFA219"/>
    <path d="M22.3979 19.2041H20.796V20.8059H22.3979V19.2041Z" fill="#FFBF66"/>
    <path d="M24.0002 19.2041H22.3983V20.8059H24.0002V19.2041Z" fill="black"/>
    <path d="M25.6016 19.2041H23.9998V20.8059H25.6016V19.2041Z" fill="white"/>
    <path d="M27.2039 19.2041H25.6021V20.8059H27.2039V19.2041Z" fill="white"/>
    <path d="M3.20413 20.7959H1.60229V22.3977H3.20413V20.7959Z" fill="white"/>
    <path d="M4.80545 20.7959H3.20361V22.3977H4.80545V20.7959Z" fill="white"/>
    <path d="M6.39774 20.7959H4.7959V22.3977H6.39774V20.7959Z" fill="white"/>
    <path d="M8.00003 20.7959H6.39819V22.3977H8.00003V20.7959Z" fill="white"/>
    <path d="M9.60135 20.7959H7.99951V22.3977H9.60135V20.7959Z" fill="black"/>
    <path d="M11.2036 20.7959H9.60181V22.3977H11.2036V20.7959Z" fill="#D98100"/>
    <path d="M12.8051 20.7959H11.2032V22.3977H12.8051V20.7959Z" fill="#FFA219"/>
    <path d="M14.3983 20.7959H12.7965V22.3977H14.3983V20.7959Z" fill="#FFA219"/>
    <path d="M15.9997 20.7959H14.3978V22.3977H15.9997V20.7959Z" fill="#FFA219"/>
    <path d="M17.6018 20.7959H16V22.3977H17.6018V20.7959Z" fill="#FFA219"/>
    <path d="M19.2033 20.7959H17.6014V22.3977H19.2033V20.7959Z" fill="#FFA219"/>
    <path d="M20.8055 20.7959H19.2036V22.3977H20.8055V20.7959Z" fill="#FFBF66"/>
    <path d="M22.398 20.7959H20.7961V22.3977H22.398V20.7959Z" fill="black"/>
    <path d="M24.0002 20.7959H22.3983V22.3977H24.0002V20.7959Z" fill="white"/>
    <path d="M25.6016 20.7959H23.9998V22.3977H25.6016V20.7959Z" fill="white"/>
    <path d="M8.00003 22.3984H6.39819V24.0003H8.00003V22.3984Z" fill="white"/>
    <path d="M9.60135 22.3979H7.99951V23.9998H9.60135V22.3979Z" fill="black"/>
    <path d="M11.2036 22.3979H9.60181V23.9998H11.2036V22.3979Z" fill="#D98100"/>
    <path d="M12.8051 22.3984H11.2032V24.0003H12.8051V22.3984Z" fill="#FFA219"/>
    <path d="M14.3982 22.3979H12.7964V23.9998H14.3982V22.3979Z" fill="#FFA219"/>
    <path d="M15.9997 22.3984H14.3978V24.0003H15.9997V22.3984Z" fill="#FFA219"/>
    <path d="M17.6018 22.3984H16V24.0003H17.6018V22.3984Z" fill="#FFA219"/>
    <path d="M19.2033 22.3979H17.6014V23.9998H19.2033V22.3979Z" fill="#FFBF66"/>
    <path d="M20.8055 22.3979H19.2036V23.9998H20.8055V22.3979Z" fill="black"/>
    <path d="M22.3979 22.3979H20.796V23.9998H22.3979V22.3979Z" fill="white"/>
    <path d="M24 22.3979H22.3982V23.9998H24V22.3979Z" fill="white"/>
    <path d="M6.39786 24H4.79602V25.6018H6.39786V24Z" fill="white"/>
    <path d="M8.00003 24H6.39819V25.6018H8.00003V24Z" fill="black"/>
    <path d="M9.60135 24H7.99951V25.6018H9.60135V24Z" fill="#D98100"/>
    <path d="M11.2036 24H9.60181V25.6018H11.2036V24Z" fill="#D98100"/>
    <path d="M12.8051 24H11.2032V25.6018H12.8051V24Z" fill="#FFA219"/>
    <path d="M14.3983 24H12.7965V25.6018H14.3983V24Z" fill="#FFA219"/>
    <path d="M15.9997 24H14.3978V25.6018H15.9997V24Z" fill="#FFA219"/>
    <path d="M17.6018 24H16V25.6018H17.6018V24Z" fill="#FFBF66"/>
    <path d="M19.2034 24H17.6016V25.6018H19.2034V24Z" fill="black"/>
    <path d="M20.8055 24H19.2036V25.6018H20.8055V24Z" fill="white"/>
    <path d="M22.3979 24H20.796V25.6018H22.3979V24Z" fill="white"/>
    <path d="M6.39786 25.6016H4.79602V27.2034H6.39786V25.6016Z" fill="white"/>
    <path d="M8.00003 25.6016H6.39819V27.2034H8.00003V25.6016Z" fill="black"/>
    <path d="M9.60135 25.6016H7.99951V27.2034H9.60135V25.6016Z" fill="#D98100"/>
    <path d="M11.2036 25.6016H9.60181V27.2034H11.2036V25.6016Z" fill="#FFA219"/>
    <path d="M12.8051 25.6016H11.2032V27.2034H12.8051V25.6016Z" fill="#FFA219"/>
    <path d="M14.3983 25.6016H12.7965V27.2034H14.3983V25.6016Z" fill="#FFA219"/>
    <path d="M15.9997 25.6016H14.3978V27.2034H15.9997V25.6016Z" fill="#FFBF66"/>
    <path d="M17.6018 25.6016H16V27.2034H17.6018V25.6016Z" fill="black"/>
    <path d="M19.2033 25.6016H17.6014V27.2034H19.2033V25.6016Z" fill="white"/>
    <path d="M20.8055 25.6016H19.2036V27.2034H20.8055V25.6016Z" fill="white"/>
    <path d="M6.39786 27.2036H4.79602V28.8055H6.39786V27.2036Z" fill="white"/>
    <path d="M8.00003 27.2036H6.39819V28.8055H8.00003V27.2036Z" fill="black"/>
    <path d="M9.60135 27.2031H7.99951V28.805H9.60135V27.2031Z" fill="#D98100"/>
    <path d="M11.2036 27.2031H9.60181V28.805H11.2036V27.2031Z" fill="#FFA219"/>
    <path d="M12.8051 27.2036H11.2032V28.8055H12.8051V27.2036Z" fill="#FFA219"/>
    <path d="M14.3982 27.2031H12.7964V28.805H14.3982V27.2031Z" fill="#FFBF66"/>
    <path d="M15.9997 27.2036H14.3978V28.8055H15.9997V27.2036Z" fill="black"/>
    <path d="M17.602 27.2036H16.0001V28.8055H17.602V27.2036Z" fill="white"/>
    <path d="M19.2033 27.2031H17.6014V28.805H19.2033V27.2031Z" fill="white"/>
    <path d="M4.80545 28.7959H3.20361V30.3977H4.80545V28.7959Z" fill="white"/>
    <path d="M6.39786 28.7959H4.79602V30.3977H6.39786V28.7959Z" fill="black"/>
    <path d="M8.00003 28.7959H6.39819V30.3977H8.00003V28.7959Z" fill="#D98100"/>
    <path d="M9.60135 28.7959H7.99951V30.3977H9.60135V28.7959Z" fill="#D98100"/>
    <path d="M11.2036 28.7959H9.60181V30.3977H11.2036V28.7959Z" fill="#FFA219"/>
    <path d="M12.8051 28.7959H11.2032V30.3977H12.8051V28.7959Z" fill="#FFBF66"/>
    <path d="M14.3982 28.7959H12.7964V30.3977H14.3982V28.7959Z" fill="black"/>
    <path d="M15.9997 28.7959H14.3978V30.3977H15.9997V28.7959Z" fill="white"/>
    <path d="M17.6018 28.7959H16V30.3977H17.6018V28.7959Z" fill="white"/>
    <path d="M4.80545 30.3979H3.20361V31.9998H4.80545V30.3979Z" fill="white"/>
    <path d="M6.39786 30.3979H4.79602V31.9998H6.39786V30.3979Z" fill="black"/>
    <path d="M8.00003 30.3984H6.39819V32.0003H8.00003V30.3984Z" fill="#D98100"/>
    <path d="M9.60135 30.3984H7.99951V32.0003H9.60135V30.3984Z" fill="#FFA219"/>
    <path d="M11.2036 30.3984H9.60181V32.0003H11.2036V30.3984Z" fill="#FFBF66"/>
    <path d="M12.8051 30.3979H11.2032V31.9998H12.8051V30.3979Z" fill="black"/>
    <path d="M14.3983 30.3984H12.7965V32.0003H14.3983V30.3984Z" fill="white"/>
    <path d="M15.9997 30.3979H14.3978V31.9998H15.9997V30.3979Z" fill="white"/>
    <path d="M4.80545 32H3.20361V33.6018H4.80545V32Z" fill="white"/>
    <path d="M6.39774 32H4.7959V33.6018H6.39774V32Z" fill="black"/>
    <path d="M8.00003 32H6.39819V33.6018H8.00003V32Z" fill="#D98100"/>
    <path d="M9.60135 32H7.99951V33.6018H9.60135V32Z" fill="#FFBF66"/>
    <path d="M11.2036 32H9.60181V33.6018H11.2036V32Z" fill="black"/>
    <path d="M12.8051 32H11.2032V33.6018H12.8051V32Z" fill="white"/>
    <path d="M14.3982 32H12.7964V33.6018H14.3982V32Z" fill="white"/>
    <path d="M3.20413 33.6016H1.60229V35.2034H3.20413V33.6016Z" fill="white"/>
    <path d="M4.80545 33.6016H3.20361V35.2034H4.80545V33.6016Z" fill="black"/>
    <path d="M6.39786 33.6016H4.79602V35.2034H6.39786V33.6016Z" fill="#D98100"/>
    <path d="M8.00003 33.6016H6.39819V35.2034H8.00003V33.6016Z" fill="#D98100"/>
    <path d="M9.60135 33.6016H7.99951V35.2034H9.60135V33.6016Z" fill="black"/>
    <path d="M11.2036 33.6016H9.60181V35.2034H11.2036V33.6016Z" fill="white"/>
    <path d="M12.8051 33.6016H11.2032V35.2034H12.8051V33.6016Z" fill="white"/>
    <path d="M3.20413 35.2036H1.60229V36.8055H3.20413V35.2036Z" fill="white"/>
    <path d="M4.80545 35.2036H3.20361V36.8055H4.80545V35.2036Z" fill="black"/>
    <path d="M6.39774 35.2036H4.7959V36.8055H6.39774V35.2036Z" fill="#D98100"/>
    <path d="M8.00003 35.2036H6.39819V36.8055H8.00003V35.2036Z" fill="black"/>
    <path d="M9.60135 35.2036H7.99951V36.8055H9.60135V35.2036Z" fill="white"/>
    <path d="M11.2036 35.2036H9.60181V36.8055H11.2036V35.2036Z" fill="white"/>
    <path d="M3.20413 36.7959H1.60229V38.3977H3.20413V36.7959Z" fill="white"/>
    <path d="M4.80545 36.7959H3.20361V38.3977H4.80545V36.7959Z" fill="black"/>
    <path d="M6.39786 36.7959H4.79602V38.3977H6.39786V36.7959Z" fill="black"/>
    <path d="M8.00003 36.7959H6.39819V38.3977H8.00003V36.7959Z" fill="white"/>
    <path d="M9.60135 36.7959H7.99951V38.3977H9.60135V36.7959Z" fill="white"/>
    <path d="M3.20413 38.3979H1.60229V39.9998H3.20413V38.3979Z" fill="white"/>
    <path d="M4.80545 38.3984H3.20361V40.0003H4.80545V38.3984Z" fill="white"/>
    <path d="M6.39786 38.3984H4.79602V40.0003H6.39786V38.3984Z" fill="white"/>
    <path d="M8.00003 38.3984H6.39819V40.0003H8.00003V38.3984Z" fill="white"/>
</svg>
