<svg width="24" height="24" viewBox="0 0 24 24" fill="none" xmlns="http://www.w3.org/2000/svg">
    <path fill-rule="evenodd" clip-rule="evenodd" d="M24 11.7758C24 3.76887 16.2446 -1.89069 8.71753 0.588893L8.71609 0.589373C8.23464 0.751419 7.99267 1.27027 8.1317 1.74407L8.13424 1.75177C8.29388 2.23535 8.80628 2.48409 9.26622 2.34119L9.27011 2.33991C15.6413 0.23844 22.1779 5.0476 22.1779 11.789C22.1779 14.4423 21.113 16.9858 19.2678 18.8426L19.4358 16.9063L19.4361 16.9024C19.4713 16.4044 19.1025 15.9555 18.6015 15.9194C18.1136 15.8842 17.6655 16.2379 17.6285 16.7606L17.2756 20.8251L17.2753 20.829C17.2404 21.3228 17.5917 21.7748 18.1086 21.8119L22.1317 22.1549C22.6319 22.2073 23.0726 21.8288 23.11 21.3161C23.1612 20.8103 22.7862 20.3695 22.297 20.3166L20.5213 20.1637C22.8024 17.8942 24 14.8651 24 11.7758Z" fill="white"/>
    <path fill-rule="evenodd" clip-rule="evenodd" d="M-4.76837e-06 12.2242C-4.76837e-06 20.2311 7.76775 25.8907 15.3068 23.4111L15.3082 23.4106C15.7904 23.2486 16.0328 22.7297 15.8935 22.2559L15.891 22.2482C15.7311 21.7646 15.2179 21.5159 14.7572 21.6588L14.7533 21.6601C8.37199 23.7616 1.82497 18.9524 1.82497 12.211C1.82497 9.55773 2.89157 7.01424 4.73972 5.15741L4.57146 7.09371L4.57119 7.09757C4.5359 7.59565 4.90529 8.04451 5.40711 8.08065C5.8958 8.11584 6.34457 7.76208 6.38164 7.23937L6.73511 3.17492L6.73539 3.17104C6.77037 2.67722 6.41855 2.22517 5.90077 2.18806L1.87124 1.84512C1.37025 1.79265 0.928892 2.17116 0.89139 2.68392C0.840171 3.18968 1.21573 3.63052 1.70572 3.68345L3.48427 3.83627C1.19954 6.10577 -4.76837e-06 9.13491 -4.76837e-06 12.2242Z" fill="white"/>
</svg>
