<svg width="50" height="50" viewBox="0 0 50 50" fill="none" xmlns="http://www.w3.org/2000/svg">
    <path d="M8.66671 29.332H6.33337V31.6652H8.66671V29.332Z" fill="white"/>
    <path d="M8.66671 8.3335H6.33337V10.6667H8.66671V8.3335Z" fill="white"/>
    <path d="M6.33333 10.666H4V29.3317H6.33333V10.666Z" fill="white"/>
    <path d="M9.66646 31.6655H7.33313V36.332H9.66646V31.6655Z" fill="white"/>
    <path d="M11.9999 36.332H10.8332H9.66541V38.6652H10.8332H11.9999H13.1666H14.3332V36.332H13.1666H11.9999Z" fill="white"/>
    <path d="M18.9998 31.6655H16.6665V33.9987H18.9998V31.6655Z" fill="white"/>
    <path d="M16.6666 33.9985H14.3333V36.3317H16.6666V33.9985Z" fill="white"/>
    <path d="M21.3332 33.9985H18.9999V36.3317H21.3332V33.9985Z" fill="white"/>
    <path d="M33 38.665H30.6666V40.9983H33V38.665Z" fill="white"/>
    <path d="M42.3332 33.9985H39.9999V36.3317H42.3332V33.9985Z" fill="white"/>
    <path d="M42.3332 12.9995H39.9999V15.3327H42.3332V12.9995Z" fill="white"/>
    <path d="M30.6666 8.3335H28.3333V10.6667H30.6666V8.3335Z" fill="white"/>
    <path d="M40 10.666H30.6666V12.9992H40V10.666Z" fill="white"/>
    <path d="M44.6666 15.333H42.3333V33.9987H44.6666V15.333Z" fill="white"/>
    <path d="M40.0011 36.332H37.6677V40.9985H40.0011V36.332Z" fill="white"/>
    <path d="M37.6667 40.998H33V43.3313H37.6667V40.998Z" fill="white"/>
    <path d="M30.6666 36.332H21.3333V38.6652H30.6666V36.332Z" fill="white"/>
    <path d="M28.3332 6H7.33203V8.33321H28.3332V6Z" fill="white"/>
    <path d="M7.33333 10.6665H5V29.3322H7.33333V10.6665Z" fill="black"/>
    <path d="M28.3333 8.3335H7.33325V10.6667H28.3333V8.3335Z" fill="black"/>
    <path d="M11.9987 29.3325H7.33203V31.6657H11.9987V29.3325Z" fill="black"/>
    <path d="M12 31.6655H9.66663V33.9987H12V31.6655Z" fill="black"/>
    <path d="M12 33.9985H9.66663V36.3317H12V33.9985Z" fill="black"/>
    <path d="M14.3333 33.9985H12V36.3317H14.3333V33.9985Z" fill="black"/>
    <path d="M16.6667 31.6655H14.3334V33.9987H16.6667V31.6655Z" fill="black"/>
    <path d="M28.3333 29.3325H16.6666V31.6657H28.3333V29.3325Z" fill="black"/>
    <path d="M30.6666 10.6665H28.3333V29.3322H30.6666V10.6665Z" fill="black"/>
    <path d="M40.0013 33.9985H42.3346V15.3328H40.0013V33.9985Z" fill="#666666"/>
    <path d="M30.6679 15.333L40.0012 15.333V12.9998L30.6679 12.9998V15.333Z" fill="#666666"/>
    <path d="M40.0011 33.9985H35.3345V36.3317H40.0011V33.9985Z" fill="#666666"/>
    <path d="M37.6666 36.3315H35.3333V38.6648H37.6666V36.3315Z" fill="#666666"/>
    <path d="M37.6666 38.665H35.3333V40.9983H37.6666V38.665Z" fill="#666666"/>
    <path d="M35.3335 38.665H33.0001V40.9983H35.3335V38.665Z" fill="#666666"/>
    <path d="M33.0001 36.3315H30.6667V38.6648H33.0001V36.3315Z" fill="#666666"/>
    <path d="M21.3333 31.6655H19V33.9987H21.3333V31.6655Z" fill="#666666"/>
    <path d="M30.6667 33.9985H21.3334V36.3317H30.6667V33.9985Z" fill="#666666"/>
    <path d="M30.6666 15.333V29.3323H28.3333V31.6655H21.3333V33.9987H30.6666V36.3319H32.9999V38.6651H35.3333V33.9987H39.9999V15.333H30.6666Z" fill="white"/>
    <path d="M7.33325 10.6665V29.3322H11.9999V31.6654V33.9986H14.3333V31.6654H16.6666V29.3322H28.3333V10.6665H7.33325Z" fill="white"/>
    <path d="M26 15.333H9.66663V17.6662H26V15.333Z" fill="black"/>
    <path d="M26 19.999H9.66663V22.3322H26V19.999Z" fill="black"/>
    <path d="M9.66659 26.999H7.33325V29.3322H9.66659V26.999Z" fill="#CCCCCC"/>
    <path d="M12 26.999H9.66663V29.3322H12V26.999Z" fill="#CCCCCC"/>
    <path d="M12 24.6655H9.66663V26.9987H12V24.6655Z" fill="#E6E6E6"/>
    <path d="M9.66659 24.6655H7.33325V26.9987H9.66659V24.6655Z" fill="#CCCCCC"/>
    <path d="M9.66659 22.3325H7.33325V24.6657H9.66659V22.3325Z" fill="#CCCCCC"/>
    <path d="M9.66659 19.999H7.33325V22.3322H9.66659V19.999Z" fill="#E6E6E6"/>
    <path d="M9.66659 17.666H7.33325V19.9992H9.66659V17.666Z" fill="#E6E6E6"/>
    <path d="M9.66659 15.333H7.33325V17.6662H9.66659V15.333Z" fill="#F2F2F2"/>
    <path d="M9.66659 12.9995H7.33325V15.3327H9.66659V12.9995Z" fill="#F2F2F2"/>
    <path d="M9.66659 10.666H7.33325V12.9992H9.66659V10.666Z" fill="#F2F2F2"/>
    <path d="M14.3333 26.999H12V29.3322H14.3333V26.999Z" fill="#E6E6E6"/>
    <path d="M14.3333 29.332H12V31.6652H14.3333V29.332Z" fill="#CCCCCC"/>
    <path d="M16.6667 29.332H14.3334V31.6652H16.6667V29.332Z" fill="#E6E6E6"/>
    <path d="M14.3333 31.6655H12V33.9987H14.3333V31.6655Z" fill="#CCCCCC"/>
</svg>
