<svg width="42" height="42" viewBox="0 0 42 42" fill="none" xmlns="http://www.w3.org/2000/svg">
    <g clip-path="url(#clip0_2367_54871)">
        <path d="M5.18093 10.2456H3.58752V11.839H5.18093V10.2456Z" fill="black"/>
        <path d="M5.18093 8.6499H3.58752V10.2433H5.18093V8.6499Z" fill="white"/>
        <path d="M6.77407 10.2456H5.18066V11.839H6.77407V10.2456Z" fill="#CCCCCC"/>
        <path d="M8.36745 10.2456H6.77405V11.839H8.36745V10.2456Z" fill="#E6E6E6"/>
        <path d="M9.96108 10.2456H8.36768V11.839H9.96108V10.2456Z" fill="#E6E6E6"/>
        <path d="M11.5546 10.2456H9.96118V11.839H11.5546V10.2456Z" fill="#F2F2F2"/>
        <path d="M13.1477 10.2456H11.5543V11.839H13.1477V10.2456Z" fill="#F2F2F2"/>
        <path d="M11.5546 11.8379H9.96118V13.4313H11.5546V11.8379Z" fill="#F2F2F2"/>
        <path d="M13.1477 11.8379H11.5543V13.4313H13.1477V11.8379Z" fill="white"/>
        <path d="M11.5546 13.4312H9.96118V15.0246H11.5546V13.4312Z" fill="#F2F2F2"/>
        <path d="M13.1477 13.4312H11.5543V15.0246H13.1477V13.4312Z" fill="white"/>
        <path d="M11.5546 15.0244H9.96118V16.6178H11.5546V15.0244Z" fill="#F2F2F2"/>
        <path d="M13.1477 15.0244H11.5543V16.6178H13.1477V15.0244Z" fill="#F2F2F2"/>
        <path d="M11.5546 19.8042H9.96118V21.3976H11.5546V19.8042Z" fill="#F2F2F2"/>
        <path d="M13.1477 19.8042H11.5543V21.3976H13.1477V19.8042Z" fill="white"/>
        <path d="M11.5546 21.3984H9.96118V22.9918H11.5546V21.3984Z" fill="#F2F2F2"/>
        <path d="M13.1477 21.3984H11.5543V22.9918H13.1477V21.3984Z" fill="white"/>
        <path d="M11.5546 22.9912H9.96118V24.5846H11.5546V22.9912Z" fill="#F2F2F2"/>
        <path d="M13.1477 22.9912H11.5543V24.5846H13.1477V22.9912Z" fill="white"/>
        <path d="M11.5546 24.5845H9.96118V26.1779H11.5546V24.5845Z" fill="#F2F2F2"/>
        <path d="M13.1477 24.5845H11.5543V26.1779H13.1477V24.5845Z" fill="white"/>
        <path d="M11.5546 26.1772H9.96118V27.7707H11.5546V26.1772Z" fill="#F2F2F2"/>
        <path d="M13.1477 26.1772H11.5543V27.7707H13.1477V26.1772Z" fill="#F2F2F2"/>
        <path d="M11.5546 27.77H9.96118V29.3634H11.5546V27.77Z" fill="#E6E6E6"/>
        <path d="M13.1477 27.77H11.5543V29.3634H13.1477V27.77Z" fill="#E6E6E6"/>
        <path d="M14.7412 10.2456H13.1478V11.839H14.7412V10.2456Z" fill="#F2F2F2"/>
        <path d="M16.3347 10.2456H14.7413V11.839H16.3347V10.2456Z" fill="white"/>
        <path d="M17.9279 10.2456H16.3345V11.839H17.9279V10.2456Z" fill="white"/>
        <path d="M19.5215 10.2456H17.9281V11.839H19.5215V10.2456Z" fill="white"/>
        <path d="M19.5215 11.8379H17.9281V13.4313H19.5215V11.8379Z" fill="white"/>
        <path d="M19.5215 13.4312H17.9281V15.0246H19.5215V13.4312Z" fill="white"/>
        <path d="M19.5215 15.0244H17.9281V16.6178H19.5215V15.0244Z" fill="white"/>
        <path d="M19.5215 16.6187H17.9281V18.2121H19.5215V16.6187Z" fill="white"/>
        <path d="M19.5215 18.2119H17.9281V19.8053H19.5215V18.2119Z" fill="white"/>
        <path d="M19.5215 19.8042H17.9281V21.3976H19.5215V19.8042Z" fill="white"/>
        <path d="M19.5215 21.3984H17.9281V22.9918H19.5215V21.3984Z" fill="white"/>
        <path d="M19.5215 22.9912H17.9281V24.5846H19.5215V22.9912Z" fill="white"/>
        <path d="M19.5215 24.585H17.9281V26.1784H19.5215V24.585Z" fill="white"/>
        <path d="M19.5215 26.1782H17.9281V27.7716H19.5215V26.1782Z" fill="white"/>
        <path d="M19.5215 27.771H17.9281V29.3644H19.5215V27.771Z" fill="#E6E6E6"/>
        <path d="M17.9279 11.8379H16.3345V13.4313H17.9279V11.8379Z" fill="white"/>
        <path d="M17.9279 13.4312H16.3345V15.0246H17.9279V13.4312Z" fill="white"/>
        <path d="M17.9279 15.0244H16.3345V16.6178H17.9279V15.0244Z" fill="white"/>
        <path d="M17.9279 16.6187H16.3345V18.2121H17.9279V16.6187Z" fill="white"/>
        <path d="M17.9279 18.2119H16.3345V19.8053H17.9279V18.2119Z" fill="white"/>
        <path d="M17.9279 19.8042H16.3345V21.3976H17.9279V19.8042Z" fill="white"/>
        <path d="M17.9279 21.3984H16.3345V22.9918H17.9279V21.3984Z" fill="white"/>
        <path d="M17.9279 22.9912H16.3345V24.5846H17.9279V22.9912Z" fill="white"/>
        <path d="M17.9279 24.585H16.3345V26.1784H17.9279V24.585Z" fill="white"/>
        <path d="M17.9279 26.1782H16.3345V27.7716H17.9279V26.1782Z" fill="white"/>
        <path d="M17.9279 27.771H16.3345V29.3644H17.9279V27.771Z" fill="#E6E6E6"/>
        <path d="M21.1149 10.2456H19.5215V11.839H21.1149V10.2456Z" fill="white"/>
        <path d="M22.7083 10.2456H21.1149V11.839H22.7083V10.2456Z" fill="white"/>
        <path d="M24.3018 10.2456H22.7084V11.839H24.3018V10.2456Z" fill="white"/>
        <path d="M25.8952 10.2456H24.3018V11.839H25.8952V10.2456Z" fill="white"/>
        <path d="M27.4885 10.2456H25.8951V11.839H27.4885V10.2456Z" fill="white"/>
        <path d="M29.0819 10.2456H27.4885V11.839H29.0819V10.2456Z" fill="white"/>
        <path d="M30.6754 10.2456H29.082V11.839H30.6754V10.2456Z" fill="white"/>
        <path d="M32.2687 10.2456H30.6753V11.839H32.2687V10.2456Z" fill="white"/>
        <path d="M33.8621 10.2456H32.2687V11.839H33.8621V10.2456Z" fill="white"/>
        <path d="M35.4556 10.2456H33.8622V11.839H35.4556V10.2456Z" fill="white"/>
        <path d="M37.0488 10.2456H35.4554V11.839H37.0488V10.2456Z" fill="white"/>
        <path d="M5.18093 11.8379H3.58752V13.4313H5.18093V11.8379Z" fill="#CCCCCC"/>
        <path d="M5.18093 13.4312H3.58752V15.0246H5.18093V13.4312Z" fill="#CCCCCC"/>
        <path d="M5.18093 15.0244H3.58752V16.6178H5.18093V15.0244Z" fill="#CCCCCC"/>
        <path d="M5.18093 16.6187H3.58752V18.2121H5.18093V16.6187Z" fill="#CCCCCC"/>
        <path d="M5.18093 18.2119H3.58752V19.8053H5.18093V18.2119Z" fill="#CCCCCC"/>
        <path d="M5.18093 19.8042H3.58752V21.3976H5.18093V19.8042Z" fill="#CCCCCC"/>
        <path d="M5.18093 21.3984H3.58752V22.9918H5.18093V21.3984Z" fill="#CCCCCC"/>
        <path d="M5.18093 22.9912H3.58752V24.5846H5.18093V22.9912Z" fill="#CCCCCC"/>
        <path d="M5.18093 24.585H3.58752V26.1784H5.18093V24.585Z" fill="#CCCCCC"/>
        <path d="M5.18093 26.1782H3.58752V27.7716H5.18093V26.1782Z" fill="#CCCCCC"/>
        <path d="M5.18093 27.771H3.58752V29.3644H5.18093V27.771Z" fill="#CCCCCC"/>
        <path d="M6.77407 11.8379H5.18066V13.4313H6.77407V11.8379Z" fill="#E6E6E6"/>
        <path d="M6.77407 13.4312H5.18066V15.0246H6.77407V13.4312Z" fill="#E6E6E6"/>
        <path d="M6.77407 15.0244H5.18066V16.6178H6.77407V15.0244Z" fill="#E6E6E6"/>
        <path d="M6.77407 16.6187H5.18066V18.2121H6.77407V16.6187Z" fill="#E6E6E6"/>
        <path d="M6.77407 18.2119H5.18066V19.8053H6.77407V18.2119Z" fill="#E6E6E6"/>
        <path d="M6.77407 19.8042H5.18066V21.3976H6.77407V19.8042Z" fill="#E6E6E6"/>
        <path d="M6.77407 21.3984H5.18066V22.9918H6.77407V21.3984Z" fill="#E6E6E6"/>
        <path d="M6.77407 22.9912H5.18066V24.5846H6.77407V22.9912Z" fill="#E6E6E6"/>
        <path d="M6.77407 24.585H5.18066V26.1784H6.77407V24.585Z" fill="#E6E6E6"/>
        <path d="M6.77407 26.1782H5.18066V27.7716H6.77407V26.1782Z" fill="#E6E6E6"/>
        <path d="M6.77407 27.771H5.18066V29.3644H6.77407V27.771Z" fill="#CCCCCC"/>
        <path d="M8.36745 11.8379H6.77405V13.4313H8.36745V11.8379Z" fill="#49CE58"/>
        <path d="M8.36745 13.4312H6.77405V15.0246H8.36745V13.4312Z" fill="#49CE58"/>
        <path d="M8.36745 15.0244H6.77405V16.6178H8.36745V15.0244Z" fill="#49CE58"/>
        <path d="M8.36745 16.6187H6.77405V18.2121H8.36745V16.6187Z" fill="#49CE58"/>
        <path d="M8.36745 18.2119H6.77405V19.8053H8.36745V18.2119Z" fill="#49CE58"/>
        <path d="M8.36745 19.8042H6.77405V21.3976H8.36745V19.8042Z" fill="#49CE58"/>
        <path d="M8.36745 21.3984H6.77405V22.9918H8.36745V21.3984Z" fill="#49CE58"/>
        <path d="M8.36745 22.9912H6.77405V24.5846H8.36745V22.9912Z" fill="#49CE58"/>
        <path d="M8.36745 24.585H6.77405V26.1784H8.36745V24.585Z" fill="#49CE58"/>
        <path d="M8.36745 26.1782H6.77405V27.7716H8.36745V26.1782Z" fill="#49CE58"/>
        <path d="M8.36745 27.771H6.77405V29.3644H8.36745V27.771Z" fill="#CCCCCC"/>
        <path d="M9.96108 11.8379H8.36768V13.4313H9.96108V11.8379Z" fill="#49CE58"/>
        <path d="M9.96108 13.4312H8.36768V15.0246H9.96108V13.4312Z" fill="#E6E6E6"/>
        <path d="M9.96108 15.0244H8.36768V16.6178H9.96108V15.0244Z" fill="#E6E6E6"/>
        <path d="M9.96108 16.6187H8.36768V18.2121H9.96108V16.6187Z" fill="#E6E6E6"/>
        <path d="M9.96108 18.2119H8.36768V19.8053H9.96108V18.2119Z" fill="#E6E6E6"/>
        <path d="M9.96108 19.8042H8.36768V21.3976H9.96108V19.8042Z" fill="#E6E6E6"/>
        <path d="M9.96108 21.3984H8.36768V22.9918H9.96108V21.3984Z" fill="#E6E6E6"/>
        <path d="M9.96108 22.9912H8.36768V24.5846H9.96108V22.9912Z" fill="#E6E6E6"/>
        <path d="M9.96108 24.585H8.36768V26.1784H9.96108V24.585Z" fill="#E6E6E6"/>
        <path d="M9.96108 26.1782H8.36768V27.7716H9.96108V26.1782Z" fill="#49CE58"/>
        <path d="M9.96108 27.771H8.36768V29.3644H9.96108V27.771Z" fill="#CCCCCC"/>
        <path d="M11.5546 11.8379H9.96118V13.4313H11.5546V11.8379Z" fill="#F2F2F2"/>
        <path d="M11.5546 13.4312H9.96118V15.0246H11.5546V13.4312Z" fill="#49CE58"/>
        <path d="M11.5546 15.0244H9.96118V16.6178H11.5546V15.0244Z" fill="#F2F2F2"/>
        <path d="M11.5546 16.6187H9.96118V18.2121H11.5546V16.6187Z" fill="#F2F2F2"/>
        <path d="M11.5546 18.2119H9.96118V19.8053H11.5546V18.2119Z" fill="#F2F2F2"/>
        <path d="M11.5546 19.8042H9.96118V21.3976H11.5546V19.8042Z" fill="#F2F2F2"/>
        <path d="M11.5546 21.3984H9.96118V22.9918H11.5546V21.3984Z" fill="#F2F2F2"/>
        <path d="M11.5546 22.9912H9.96118V24.5846H11.5546V22.9912Z" fill="#F2F2F2"/>
        <path d="M11.5546 24.585H9.96118V26.1784H11.5546V24.585Z" fill="#49CE58"/>
        <path d="M11.5546 26.1782H9.96118V27.7716H11.5546V26.1782Z" fill="#F2F2F2"/>
        <path d="M11.5546 27.771H9.96118V29.3644H11.5546V27.771Z" fill="#F2F2F2"/>
        <path d="M13.1477 11.8379H11.5543V13.4313H13.1477V11.8379Z" fill="#F2F2F2"/>
        <path d="M13.1477 13.4312H11.5543V15.0246H13.1477V13.4312Z" fill="#F2F2F2"/>
        <path d="M13.1477 15.0244H11.5543V16.6178H13.1477V15.0244Z" fill="#49CE58"/>
        <path d="M13.1477 16.6187H11.5543V18.2121H13.1477V16.6187Z" fill="#49CE58"/>
        <path d="M13.1477 18.2119H11.5543V19.8053H13.1477V18.2119Z" fill="#49CE58"/>
        <path d="M13.1477 19.8042H11.5543V21.3976H13.1477V19.8042Z" fill="#49CE58"/>
        <path d="M13.1477 21.3984H11.5543V22.9918H13.1477V21.3984Z" fill="#49CE58"/>
        <path d="M13.1477 22.9912H11.5543V24.5846H13.1477V22.9912Z" fill="#49CE58"/>
        <path d="M13.1477 24.585H11.5543V26.1784H13.1477V24.585Z" fill="#F2F2F2"/>
        <path d="M13.1477 26.1782H11.5543V27.7716H13.1477V26.1782Z" fill="#F2F2F2"/>
        <path d="M13.1477 27.771H11.5543V29.3644H13.1477V27.771Z" fill="#F2F2F2"/>
        <path d="M14.7412 11.8379H13.1478V13.4313H14.7412V11.8379Z" fill="#F2F2F2"/>
        <path d="M14.7412 13.4312H13.1478V15.0246H14.7412V13.4312Z" fill="#F2F2F2"/>
        <path d="M14.7412 15.0244H13.1478V16.6178H14.7412V15.0244Z" fill="#F2F2F2"/>
        <path d="M14.7412 16.6187H13.1478V18.2121H14.7412V16.6187Z" fill="#F2F2F2"/>
        <path d="M14.7412 18.2119H13.1478V19.8053H14.7412V18.2119Z" fill="#F2F2F2"/>
        <path d="M14.7412 19.8042H13.1478V21.3976H14.7412V19.8042Z" fill="#F2F2F2"/>
        <path d="M14.7412 21.3984H13.1478V22.9918H14.7412V21.3984Z" fill="#F2F2F2"/>
        <path d="M14.7412 22.9912H13.1478V24.5846H14.7412V22.9912Z" fill="#F2F2F2"/>
        <path d="M14.7412 24.585H13.1478V26.1784H14.7412V24.585Z" fill="#F2F2F2"/>
        <path d="M14.7412 26.1782H13.1478V27.7716H14.7412V26.1782Z" fill="#F2F2F2"/>
        <path d="M14.7412 27.771H13.1478V29.3644H14.7412V27.771Z" fill="#F2F2F2"/>
        <path d="M16.3347 11.8379H14.7413V13.4313H16.3347V11.8379Z" fill="white"/>
        <path d="M16.3347 13.4312H14.7413V15.0246H16.3347V13.4312Z" fill="#49CE58"/>
        <path d="M16.3347 15.0244H14.7413V16.6178H16.3347V15.0244Z" fill="#49CE58"/>
        <path d="M16.3347 16.6187H14.7413V18.2121H16.3347V16.6187Z" fill="#49CE58"/>
        <path d="M16.3347 18.2119H14.7413V19.8053H16.3347V18.2119Z" fill="#49CE58"/>
        <path d="M16.3347 19.8042H14.7413V21.3976H16.3347V19.8042Z" fill="#49CE58"/>
        <path d="M16.3347 21.3984H14.7413V22.9918H16.3347V21.3984Z" fill="#49CE58"/>
        <path d="M16.3347 22.9912H14.7413V24.5846H16.3347V22.9912Z" fill="#49CE58"/>
        <path d="M16.3347 24.585H14.7413V26.1784H16.3347V24.585Z" fill="#49CE58"/>
        <path d="M16.3347 26.1782H14.7413V27.7716H16.3347V26.1782Z" fill="white"/>
        <path d="M16.3347 27.771H14.7413V29.3644H16.3347V27.771Z" fill="white"/>
        <path d="M17.9279 11.8379H16.3345V13.4313H17.9279V11.8379Z" fill="#49CE58"/>
        <path d="M17.9279 13.4312H16.3345V15.0246H17.9279V13.4312Z" fill="white"/>
        <path d="M17.9279 15.0244H16.3345V16.6178H17.9279V15.0244Z" fill="white"/>
        <path d="M17.9279 16.6187H16.3345V18.2121H17.9279V16.6187Z" fill="white"/>
        <path d="M17.9279 18.2119H16.3345V19.8053H17.9279V18.2119Z" fill="white"/>
        <path d="M17.9279 19.8042H16.3345V21.3976H17.9279V19.8042Z" fill="white"/>
        <path d="M17.9279 21.3984H16.3345V22.9918H17.9279V21.3984Z" fill="white"/>
        <path d="M17.9279 22.9912H16.3345V24.5846H17.9279V22.9912Z" fill="white"/>
        <path d="M17.9279 24.585H16.3345V26.1784H17.9279V24.585Z" fill="white"/>
        <path d="M17.9279 26.1782H16.3345V27.7716H17.9279V26.1782Z" fill="#E6E6E6"/>
        <path d="M17.9279 27.771H16.3345V29.3644H17.9279V27.771Z" fill="white"/>
        <path d="M19.5215 11.8379H17.9281V13.4313H19.5215V11.8379Z" fill="#49CE58"/>
        <path d="M19.5215 13.4312H17.9281V15.0246H19.5215V13.4312Z" fill="white"/>
        <path d="M19.5215 15.0244H17.9281V16.6178H19.5215V15.0244Z" fill="white"/>
        <path d="M19.5215 16.6187H17.9281V18.2121H19.5215V16.6187Z" fill="white"/>
        <path d="M19.5215 18.2119H17.9281V19.8053H19.5215V18.2119Z" fill="white"/>
        <path d="M19.5215 19.8042H17.9281V21.3976H19.5215V19.8042Z" fill="white"/>
        <path d="M19.5215 21.3984H17.9281V22.9918H19.5215V21.3984Z" fill="white"/>
        <path d="M19.5215 22.9912H17.9281V24.5846H19.5215V22.9912Z" fill="white"/>
        <path d="M19.5215 24.585H17.9281V26.1784H19.5215V24.585Z" fill="white"/>
        <path d="M19.5215 26.1782H17.9281V27.7716H19.5215V26.1782Z" fill="#49CE58"/>
        <path d="M19.5215 27.771H17.9281V29.3644H19.5215V27.771Z" fill="white"/>
        <path d="M21.1149 11.8379H19.5215V13.4313H21.1149V11.8379Z" fill="white"/>
        <path d="M21.1149 13.4312H19.5215V15.0246H21.1149V13.4312Z" fill="#49CE58"/>
        <path d="M21.1149 15.0244H19.5215V16.6178H21.1149V15.0244Z" fill="#E6E6E6"/>
        <path d="M21.1149 16.6187H19.5215V18.2121H21.1149V16.6187Z" fill="#49CE58"/>
        <path d="M21.1149 18.2119H19.5215V19.8053H21.1149V18.2119Z" fill="#49CE58"/>
        <path d="M21.1149 19.8042H19.5215V21.3976H21.1149V19.8042Z" fill="#49CE58"/>
        <path d="M21.1149 21.3984H19.5215V22.9918H21.1149V21.3984Z" fill="#49CE58"/>
        <path d="M21.1149 22.9912H19.5215V24.5846H21.1149V22.9912Z" fill="#49CE58"/>
        <path d="M21.1149 24.585H19.5215V26.1784H21.1149V24.585Z" fill="#49CE58"/>
        <path d="M21.1149 26.1782H19.5215V27.7716H21.1149V26.1782Z" fill="white"/>
        <path d="M21.1149 27.771H19.5215V29.3644H21.1149V27.771Z" fill="white"/>
        <path d="M22.7083 11.8379H21.1149V13.4313H22.7083V11.8379Z" fill="white"/>
        <path d="M22.7083 13.4312H21.1149V15.0246H22.7083V13.4312Z" fill="white"/>
        <path d="M22.7083 15.0244H21.1149V16.6178H22.7083V15.0244Z" fill="#E6E6E6"/>
        <path d="M22.7083 16.6187H21.1149V18.2121H22.7083V16.6187Z" fill="white"/>
        <path d="M22.7083 18.2119H21.1149V19.8053H22.7083V18.2119Z" fill="white"/>
        <path d="M22.7083 19.8042H21.1149V21.3976H22.7083V19.8042Z" fill="white"/>
        <path d="M22.7083 21.3984H21.1149V22.9918H22.7083V21.3984Z" fill="white"/>
        <path d="M22.7083 22.9912H21.1149V24.5846H22.7083V22.9912Z" fill="white"/>
        <path d="M22.7083 24.585H21.1149V26.1784H22.7083V24.585Z" fill="white"/>
        <path d="M22.7083 26.1782H21.1149V27.7716H22.7083V26.1782Z" fill="white"/>
        <path d="M22.7083 27.771H21.1149V29.3644H22.7083V27.771Z" fill="white"/>
        <path d="M6.77407 29.3652H5.18066V30.9586H6.77407V29.3652Z" fill="#CCCCCC"/>
        <path d="M8.36745 29.3652H6.77405V30.9586H8.36745V29.3652Z" fill="#CCCCCC"/>
        <path d="M9.96108 29.3652H8.36768V30.9586H9.96108V29.3652Z" fill="#CCCCCC"/>
        <path d="M11.5546 29.3652H9.96118V30.9586H11.5546V29.3652Z" fill="#CCCCCC"/>
        <path d="M13.1477 29.3652H11.5543V30.9586H13.1477V29.3652Z" fill="#CCCCCC"/>
        <path d="M14.7412 29.3652H13.1478V30.9586H14.7412V29.3652Z" fill="#CCCCCC"/>
        <path d="M16.3347 29.3652H14.7413V30.9586H16.3347V29.3652Z" fill="#CCCCCC"/>
        <path d="M17.9279 29.3652H16.3345V30.9586H17.9279V29.3652Z" fill="#CCCCCC"/>
        <path d="M19.5215 29.3652H17.9281V30.9586H19.5215V29.3652Z" fill="#CCCCCC"/>
        <path d="M21.1149 29.3652H19.5215V30.9586H21.1149V29.3652Z" fill="#CCCCCC"/>
        <path d="M22.7083 29.3652H21.1149V30.9586H22.7083V29.3652Z" fill="#CCCCCC"/>
        <path d="M24.3018 29.3652H22.7084V30.9586H24.3018V29.3652Z" fill="#CCCCCC"/>
        <path d="M38.6424 29.3652H24.3018V30.9586H38.6424V29.3652Z" fill="#CCCCCC"/>
        <path d="M25.8952 27.771H24.3018V29.3644H25.8952V27.771Z" fill="#E6E6E6"/>
        <path d="M25.8952 26.1782H24.3018V27.7716H25.8952V26.1782Z" fill="white"/>
        <path d="M25.8952 24.585H24.3018V26.1784H25.8952V24.585Z" fill="white"/>
        <path d="M25.8952 22.9912H24.3018V24.5846H25.8952V22.9912Z" fill="white"/>
        <path d="M25.8952 21.3984H24.3018V22.9918H25.8952V21.3984Z" fill="white"/>
        <path d="M25.8952 19.8042H24.3018V21.3976H25.8952V19.8042Z" fill="white"/>
        <path d="M25.8952 18.2119H24.3018V19.8053H25.8952V18.2119Z" fill="white"/>
        <path d="M25.8952 16.6187H24.3018V18.2121H25.8952V16.6187Z" fill="#49CE58"/>
        <path d="M25.8952 15.0244H24.3018V16.6178H25.8952V15.0244Z" fill="white"/>
        <path d="M25.8952 13.4312H24.3018V15.0246H25.8952V13.4312Z" fill="white"/>
        <path d="M25.8952 11.8379H24.3018V13.4313H25.8952V11.8379Z" fill="white"/>
        <path d="M27.4885 27.771H25.8951V29.3644H27.4885V27.771Z" fill="#E6E6E6"/>
        <path d="M27.4885 26.1782H25.8951V27.7716H27.4885V26.1782Z" fill="white"/>
        <path d="M27.4885 24.585H25.8951V26.1784H27.4885V24.585Z" fill="white"/>
        <path d="M27.4885 22.9912H25.8951V24.5846H27.4885V22.9912Z" fill="white"/>
        <path d="M27.4885 21.3984H25.8951V22.9918H27.4885V21.3984Z" fill="white"/>
        <path d="M27.4885 19.8042H25.8951V21.3976H27.4885V19.8042Z" fill="white"/>
        <path d="M27.4885 18.2119H25.8951V19.8053H27.4885V18.2119Z" fill="#49CE58"/>
        <path d="M27.4885 16.6187H25.8951V18.2121H27.4885V16.6187Z" fill="white"/>
        <path d="M27.4885 15.0244H25.8951V16.6178H27.4885V15.0244Z" fill="white"/>
        <path d="M27.4885 13.4312H25.8951V15.0246H27.4885V13.4312Z" fill="white"/>
        <path d="M27.4885 11.8379H25.8951V13.4313H27.4885V11.8379Z" fill="white"/>
        <path d="M29.0819 27.771H27.4885V29.3644H29.0819V27.771Z" fill="#E6E6E6"/>
        <path d="M29.0819 26.1782H27.4885V27.7716H29.0819V26.1782Z" fill="#49CE58"/>
        <path d="M29.0819 24.585H27.4885V26.1784H29.0819V24.585Z" fill="#49CE58"/>
        <path d="M29.0819 22.9912H27.4885V24.5846H29.0819V22.9912Z" fill="#49CE58"/>
        <path d="M29.0819 21.3984H27.4885V22.9918H29.0819V21.3984Z" fill="#49CE58"/>
        <path d="M29.0819 19.8042H27.4885V21.3976H29.0819V19.8042Z" fill="#49CE58"/>
        <path d="M29.0819 18.2119H27.4885V19.8053H29.0819V18.2119Z" fill="#49CE58"/>
        <path d="M29.0819 16.6187H27.4885V18.2121H29.0819V16.6187Z" fill="#49CE58"/>
        <path d="M29.0819 15.0244H27.4885V16.6178H29.0819V15.0244Z" fill="#49CE58"/>
        <path d="M29.0819 13.4312H27.4885V15.0246H29.0819V13.4312Z" fill="#49CE58"/>
        <path d="M29.0819 11.8379H27.4885V13.4313H29.0819V11.8379Z" fill="#49CE58"/>
        <path d="M30.6754 27.771H29.082V29.3644H30.6754V27.771Z" fill="#E6E6E6"/>
        <path d="M30.6754 26.1782H29.082V27.7716H30.6754V26.1782Z" fill="white"/>
        <path d="M30.6754 24.585H29.082V26.1784H30.6754V24.585Z" fill="white"/>
        <path d="M30.6754 22.9912H29.082V24.5846H30.6754V22.9912Z" fill="white"/>
        <path d="M30.6754 21.3984H29.082V22.9918H30.6754V21.3984Z" fill="white"/>
        <path d="M30.6754 19.8042H29.082V21.3976H30.6754V19.8042Z" fill="white"/>
        <path d="M30.6754 18.2119H29.082V19.8053H30.6754V18.2119Z" fill="white"/>
        <path d="M30.6754 16.6187H29.082V18.2121H30.6754V16.6187Z" fill="white"/>
        <path d="M30.6754 15.0244H29.082V16.6178H30.6754V15.0244Z" fill="white"/>
        <path d="M30.6754 13.4312H29.082V15.0246H30.6754V13.4312Z" fill="white"/>
        <path d="M30.6754 11.8379H29.082V13.4313H30.6754V11.8379Z" fill="white"/>
        <path d="M32.2687 27.771H30.6753V29.3644H32.2687V27.771Z" fill="#E6E6E6"/>
        <path d="M32.2687 26.1782H30.6753V27.7716H32.2687V26.1782Z" fill="#49CE58"/>
        <path d="M32.2687 24.585H30.6753V26.1784H32.2687V24.585Z" fill="#49CE58"/>
        <path d="M32.2687 22.9912H30.6753V24.5846H32.2687V22.9912Z" fill="#49CE58"/>
        <path d="M32.2687 21.3984H30.6753V22.9918H32.2687V21.3984Z" fill="#49CE58"/>
        <path d="M32.2687 19.8042H30.6753V21.3976H32.2687V19.8042Z" fill="#49CE58"/>
        <path d="M32.2687 18.2119H30.6753V19.8053H32.2687V18.2119Z" fill="#49CE58"/>
        <path d="M32.2687 16.6187H30.6753V18.2121H32.2687V16.6187Z" fill="#49CE58"/>
        <path d="M32.2687 15.0244H30.6753V16.6178H32.2687V15.0244Z" fill="#49CE58"/>
        <path d="M32.2687 13.4312H30.6753V15.0246H32.2687V13.4312Z" fill="#49CE58"/>
        <path d="M32.2687 11.8379H30.6753V13.4313H32.2687V11.8379Z" fill="#49CE58"/>
        <path d="M33.8621 27.771H32.2687V29.3644H33.8621V27.771Z" fill="#E6E6E6"/>
        <path d="M33.8621 26.1782H32.2687V27.7716H33.8621V26.1782Z" fill="#49CE58"/>
        <path d="M33.8621 24.585H32.2687V26.1784H33.8621V24.585Z" fill="white"/>
        <path d="M33.8621 22.9912H32.2687V24.5846H33.8621V22.9912Z" fill="white"/>
        <path d="M33.8621 21.3984H32.2687V22.9918H33.8621V21.3984Z" fill="white"/>
        <path d="M33.8621 19.8042H32.2687V21.3976H33.8621V19.8042Z" fill="white"/>
        <path d="M33.8621 18.2119H32.2687V19.8053H33.8621V18.2119Z" fill="#49CE58"/>
        <path d="M33.8621 16.6187H32.2687V18.2121H33.8621V16.6187Z" fill="white"/>
        <path d="M33.8621 15.0244H32.2687V16.6178H33.8621V15.0244Z" fill="white"/>
        <path d="M33.8621 13.4312H32.2687V15.0246H33.8621V13.4312Z" fill="white"/>
        <path d="M33.8621 11.8379H32.2687V13.4313H33.8621V11.8379Z" fill="#49CE58"/>
        <path d="M35.4556 27.771H33.8622V29.3644H35.4556V27.771Z" fill="#E6E6E6"/>
        <path d="M35.4556 26.1782H33.8622V27.7716H35.4556V26.1782Z" fill="#49CE58"/>
        <path d="M35.4556 24.585H33.8622V26.1784H35.4556V24.585Z" fill="white"/>
        <path d="M35.4556 22.9912H33.8622V24.5846H35.4556V22.9912Z" fill="white"/>
        <path d="M35.4556 21.3984H33.8622V22.9918H35.4556V21.3984Z" fill="white"/>
        <path d="M35.4556 19.8042H33.8622V21.3976H35.4556V19.8042Z" fill="white"/>
        <path d="M35.4556 18.2119H33.8622V19.8053H35.4556V18.2119Z" fill="#49CE58"/>
        <path d="M35.4556 16.6187H33.8622V18.2121H35.4556V16.6187Z" fill="white"/>
        <path d="M35.4556 15.0244H33.8622V16.6178H35.4556V15.0244Z" fill="white"/>
        <path d="M35.4556 13.4312H33.8622V15.0246H35.4556V13.4312Z" fill="white"/>
        <path d="M35.4556 11.8379H33.8622V13.4313H35.4556V11.8379Z" fill="#49CE58"/>
        <path d="M37.0488 27.771H35.4554V29.3644H37.0488V27.771Z" fill="#E6E6E6"/>
        <path d="M37.0488 26.1782H35.4554V27.7716H37.0488V26.1782Z" fill="white"/>
        <path d="M37.0488 24.585H35.4554V26.1784H37.0488V24.585Z" fill="white"/>
        <path d="M37.0488 22.9912H35.4554V24.5846H37.0488V22.9912Z" fill="white"/>
        <path d="M37.0488 21.3984H35.4554V22.9918H37.0488V21.3984Z" fill="white"/>
        <path d="M37.0488 19.8042H35.4554V21.3976H37.0488V19.8042Z" fill="white"/>
        <path d="M37.0488 18.2119H35.4554V19.8053H37.0488V18.2119Z" fill="white"/>
        <path d="M37.0488 16.6187H35.4554V18.2121H37.0488V16.6187Z" fill="white"/>
        <path d="M37.0488 15.0244H35.4554V16.6178H37.0488V15.0244Z" fill="white"/>
        <path d="M37.0488 13.4312H35.4554V15.0246H37.0488V13.4312Z" fill="white"/>
        <path d="M37.0488 11.8379H35.4554V13.4313H37.0488V11.8379Z" fill="white"/>
        <path d="M38.6424 27.771H37.049V29.3644H38.6424V27.771Z" fill="#E6E6E6"/>
        <path d="M38.6424 26.1782H37.049V27.7716H38.6424V26.1782Z" fill="white"/>
        <path d="M38.6424 24.585H37.049V26.1784H38.6424V24.585Z" fill="white"/>
        <path d="M38.6424 22.9912H37.049V24.5846H38.6424V22.9912Z" fill="white"/>
        <path d="M38.6424 21.3984H37.049V22.9918H38.6424V21.3984Z" fill="white"/>
        <path d="M38.6424 19.8042H37.049V21.3976H38.6424V19.8042Z" fill="white"/>
        <path d="M38.6424 18.2119H37.049V19.8053H38.6424V18.2119Z" fill="white"/>
        <path d="M38.6424 16.6187H37.049V18.2121H38.6424V16.6187Z" fill="white"/>
        <path d="M38.6424 15.0244H37.049V16.6178H38.6424V15.0244Z" fill="white"/>
        <path d="M38.6424 13.4312H37.049V15.0246H38.6424V13.4312Z" fill="white"/>
        <path d="M38.6424 11.8379H37.049V13.4313H38.6424V11.8379Z" fill="white"/>
        <path d="M24.3018 11.8379H22.7084V13.4313H24.3018V11.8379Z" fill="#49CE58"/>
        <path d="M24.3018 13.4312H22.7084V15.0246H24.3018V13.4312Z" fill="#49CE58"/>
        <path d="M24.3018 15.0244H22.7084V16.6178H24.3018V15.0244Z" fill="#49CE58"/>
        <path d="M22.7083 15.0244H21.1149V16.6178H22.7083V15.0244Z" fill="white"/>
        <path d="M21.1149 15.0244H19.5215V16.6178H21.1149V15.0244Z" fill="#49CE58"/>
        <path d="M24.3018 16.6187H22.7084V18.2121H24.3018V16.6187Z" fill="#49CE58"/>
        <path d="M24.3018 18.2119H22.7084V19.8053H24.3018V18.2119Z" fill="#49CE58"/>
        <path d="M24.3018 19.8042H22.7084V21.3976H24.3018V19.8042Z" fill="#49CE58"/>
        <path d="M24.3018 21.3984H22.7084V22.9918H24.3018V21.3984Z" fill="#49CE58"/>
        <path d="M24.3018 22.9912H22.7084V24.5846H24.3018V22.9912Z" fill="#49CE58"/>
        <path d="M24.3018 24.585H22.7084V26.1784H24.3018V24.585Z" fill="#49CE58"/>
        <path d="M24.3018 26.1782H22.7084V27.7716H24.3018V26.1782Z" fill="#49CE58"/>
        <path d="M24.3018 27.77H22.7084V29.3634H24.3018V27.77Z" fill="#E6E6E6"/>
        <path d="M5.18093 30.959H3.58752V32.5524H5.18093V30.959Z" fill="white"/>
        <path d="M5.18093 32.5522H3.58752V34.1457H5.18093V32.5522Z" fill="white"/>
        <path d="M40.2357 34.1455H38.6423V35.7389H40.2357V34.1455Z" fill="white"/>
        <path d="M41.8292 34.1455H40.2358V35.7389H41.8292V34.1455Z" fill="white"/>
        <path d="M38.6424 34.1455H37.049V35.7389H38.6424V34.1455Z" fill="white"/>
        <path d="M41.8292 32.5522H40.2358V34.1457H41.8292V32.5522Z" fill="white"/>
        <path d="M41.8292 30.96H40.2358V32.5534H41.8292V30.96Z" fill="white"/>
        <path d="M40.2357 30.959H38.6423V32.5524H40.2357V30.959Z" fill="white"/>
        <path d="M40.2357 10.2456H38.6423V11.839H40.2357V10.2456Z" fill="white"/>
        <path d="M38.6424 8.6499H37.049V10.2433H38.6424V8.6499Z" fill="white"/>
        <path d="M37.0488 7.05713H5.18066V8.65054H37.0488V7.05713Z" fill="white"/>
        <path d="M41.8292 11.8379H40.2358V30.9588H41.8292V11.8379Z" fill="white"/>
        <path d="M38.6422 32.5522H5.18066V34.1457H38.6422V32.5522Z" fill="white"/>
        <path d="M3.58755 29.3652H1.99414V30.9586H3.58755V29.3652Z" fill="white"/>
        <path d="M3.58755 30.96H1.99414V32.5534H3.58755V30.96Z" fill="white"/>
        <path d="M1.99392 29.3652H0.400513V30.9586H1.99392V29.3652Z" fill="white"/>
        <path d="M3.58755 10.2456H1.99414V11.839H3.58755V10.2456Z" fill="white"/>
        <path d="M1.99392 11.8379H0.400513V29.3654H1.99392V11.8379Z" fill="white"/>
        <path d="M38.6424 10.2456H37.049V11.839H38.6424V10.2456Z" fill="black"/>
        <path d="M5.18093 29.3652H3.58752V30.9586H5.18093V29.3652Z" fill="black"/>
        <path d="M38.6424 30.959H24.3018V32.5524H38.6424V30.959Z" fill="black"/>
        <path d="M40.2357 32.5522H38.6423V34.1457H40.2357V32.5522Z" fill="black"/>
        <path d="M24.3015 30.959H5.18066V32.5524H24.3015V30.959Z" fill="black"/>
        <path d="M3.58755 11.8379H1.99414V29.3654H3.58755V11.8379Z" fill="black"/>
        <path d="M40.2357 11.8379H38.6423V30.9588H40.2357V11.8379Z" fill="black"/>
        <path d="M37.0488 8.6499H5.18066V10.2433H37.0488V8.6499Z" fill="black"/>
        <path d="M17.9273 26.1782H16.3339V27.7716H17.9273V26.1782Z" fill="#49CE58"/>
    </g>
    <defs>
        <clipPath id="clip0_2367_54871">
            <rect width="41.4286" height="28.6813" fill="white" transform="translate(0.400513 7.05713)"/>
        </clipPath>
    </defs>
</svg>
