<svg width="70" height="70" viewBox="0 0 70 70" fill="none" xmlns="http://www.w3.org/2000/svg">
    <path d="M7.5 6H5V8.5625H7.5V6Z" fill="black"/>
    <path d="M37.5 6H35V8.5625H37.5V6Z" fill="#BB891A"/>
    <path d="M7.5 18.8125H5V21.375H7.5V18.8125Z" fill="white"/>
    <path d="M5 39.3125H2.5V41.875H5V39.3125Z" fill="white"/>
    <path d="M2.5 39.3125H0V41.875H2.5V39.3125Z" fill="white"/>
    <path d="M5 41.875H2.5V44.4375H5V41.875Z" fill="white"/>
    <path d="M7.5 44.4375H5V47H7.5V44.4375Z" fill="white"/>
    <path d="M40 44.4375H37.5V47H40V44.4375Z" fill="white"/>
    <path d="M42.5 41.875H40V44.4375H42.5V41.875Z" fill="white"/>
    <path d="M45 39.3125H42.5V41.875H45V39.3125Z" fill="white"/>
    <path d="M5 6H2.5V8.5625H5V6Z" fill="white"/>
    <path d="M7.5 3.4375H5V6H7.5V3.4375Z" fill="white"/>
    <path d="M40 3.4375H37.5V6H40V3.4375Z" fill="white"/>
    <path d="M42.5 6H40V8.5625H42.5V6Z" fill="white"/>
    <path d="M37.5 0.875H7.5V3.4375H37.5V0.875Z" fill="white"/>
    <path d="M7.5 41.875H5V44.4375H7.5V41.875Z" fill="white"/>
    <path d="M40 41.875H37.5V44.4375H40V41.875Z" fill="white"/>
    <path d="M42.5 39.3125H40V41.875H42.5V39.3125Z" fill="white"/>
    <path d="M45 8.5625H42.5V39.3125H45V8.5625Z" fill="white"/>
    <path d="M37.5 44.4375H7.5V47H37.5V44.4375Z" fill="white"/>
    <path d="M2.5 8.5625H0V39.3125H2.5V8.5625Z" fill="white"/>
    <path d="M7.5 36.75H5V39.3125H7.5V36.75Z" fill="#BB891A"/>
    <path d="M37.5 36.75H7.5V39.3125H37.5V36.75Z" fill="#EEB81D"/>
    <path d="M7.5 16.25H5V18.8125H7.5V16.25Z" fill="#EEB81D"/>
    <path d="M7.5 21.375H5V36.75H7.5V21.375Z" fill="#EEB81D"/>
    <path d="M10 11.125H7.5V36.75H10V11.125Z" fill="#F0C915"/>
    <path d="M40 8.5625H37.5V39.3125H40V8.5625Z" fill="#BB891A"/>
    <path d="M7.5 11.125H5V16.25H7.5V11.125Z" fill="white"/>
    <path d="M15 6H7.5V8.5625H15V6Z" fill="white"/>
    <path d="M35 6H15V8.5625H35V6Z" fill="#EEB81D"/>
    <path d="M37.5 39.3125H7.5V41.875H37.5V39.3125Z" fill="#BB891A"/>
    <path d="M10 8.5625H5V11.125H10V8.5625Z" fill="white"/>
    <path d="M40 6H37.5V8.5625H40V6Z" fill="black"/>
    <path d="M37.5 8.5625H10V36.75H37.5V8.5625Z" fill="#F0C915"/>
    <path d="M7.5 39.3125H5V41.875H7.5V39.3125Z" fill="black"/>
    <path d="M40 39.3125H37.5V41.875H40V39.3125Z" fill="black"/>
    <path d="M37.5 3.4375H7.5V6H37.5V3.4375Z" fill="black"/>
    <path d="M37.5 41.875H7.5V44.4375H37.5V41.875Z" fill="black"/>
    <path d="M5 8.5625H2.5V39.3125H5V8.5625Z" fill="black"/>
    <path d="M42.5 8.5625H40V39.3125H42.5V8.5625Z" fill="black"/>
    <path d="M10 16.25H7.5V18.8125H10V16.25Z" fill="black"/>
    <path d="M17.5 18.8125H10V21.375H17.5V18.8125Z" fill="black"/>
    <path d="M10 13.6875H7.5V16.25H10V13.6875Z" fill="black"/>
    <path d="M12.5 11.125H10V13.6875H12.5V11.125Z" fill="black"/>
    <path d="M29.9775 11.125H12.5V16.25H29.9775V11.125Z" fill="white"/>
    <path d="M17.5 13.6875H10V18.8125H17.5V13.6875Z" fill="white"/>
    <path d="M25 21.375H17.5V26.5H25V21.375Z" fill="white"/>
    <path d="M25 29.0625H17.5V34.1875H25V29.0625Z" fill="white"/>
    <path d="M32.5 13.6875H25V21.375H32.5V13.6875Z" fill="white"/>
    <path d="M29.9775 8.5625H12.5V11.125H29.9775V8.5625Z" fill="black"/>
    <path d="M35 13.6875H32.5V21.375H35V13.6875Z" fill="black"/>
    <path d="M32.4775 11.125H29.9775V13.6875H32.4775V11.125Z" fill="black"/>
    <path d="M17.5 21.375H15V23.9375H17.5V21.375Z" fill="black"/>
    <path d="M20 16.25H17.5V18.8125H20V16.25Z" fill="black"/>
    <path d="M22.5 16.25H20V18.8125H22.5V16.25Z" fill="black"/>
    <path d="M25 16.25H22.5V18.8125H25V16.25Z" fill="black"/>
    <path d="M25 18.8125H17.5V21.375H25V18.8125Z" fill="black"/>
    <path d="M17.5 23.9375H15V26.5H17.5V23.9375Z" fill="black"/>
    <path d="M20 26.5H17.5V29.0625H20V26.5Z" fill="black"/>
    <path d="M17.5 29.0625H15V31.625H17.5V29.0625Z" fill="black"/>
    <path d="M17.5 31.625H15V34.1875H17.5V31.625Z" fill="black"/>
    <path d="M20 34.1875H17.5V36.75H20V34.1875Z" fill="black"/>
    <path d="M22.5 34.1875H20V36.75H22.5V34.1875Z" fill="black"/>
    <path d="M25 34.1875H22.5V36.75H25V34.1875Z" fill="black"/>
    <path d="M27.5 29.0625H25V31.625H27.5V29.0625Z" fill="black"/>
    <path d="M27.5 31.625H25V34.1875H27.5V31.625Z" fill="black"/>
    <path d="M22.5 26.5H20V29.0625H22.5V26.5Z" fill="black"/>
    <path d="M25 26.5H22.5V29.0625H25V26.5Z" fill="black"/>
    <path d="M27.5 23.9375H25V26.5H27.5V23.9375Z" fill="black"/>
    <path d="M30 23.9375H27.5V26.5H30V23.9375Z" fill="black"/>
    <path d="M32.5 21.375H30V23.9375H32.5V21.375Z" fill="black"/>
    <path d="M30 21.375H25V23.9375H30V21.375Z" fill="white"/>
</svg>
