<svg width="54" height="53" viewBox="0 0 54 53" fill="none" xmlns="http://www.w3.org/2000/svg">
    <path d="M17.6763 2.93848H14.7302V5.87682H17.6763V2.93848Z" fill="black"/>
    <path d="M20.6223 2.93848H17.6763V5.87682H20.6223V2.93848Z" fill="black"/>
    <path d="M23.5685 2.93848H20.6224V5.87682H23.5685V2.93848Z" fill="black"/>
    <path d="M26.5145 2.93848H23.5685V5.87682H26.5145V2.93848Z" fill="black"/>
    <path d="M29.4605 5.875H26.5144V8.81334H29.4605V5.875Z" fill="black"/>
    <path d="M32.4065 5.875H29.4604V8.81334H32.4065V5.875Z" fill="black"/>
    <path d="M35.3525 8.81641H32.4065V11.7547H35.3525V8.81641Z" fill="black"/>
    <path d="M35.3525 11.7529H32.4065V14.6913H35.3525V11.7529Z" fill="black"/>
    <path d="M38.2986 14.6914H35.3525V17.6297H38.2986V14.6914Z" fill="black"/>
    <path d="M38.2986 17.6299H35.3525V20.5682H38.2986V17.6299Z" fill="black"/>
    <path d="M38.2986 20.5674H35.3525V23.5057H38.2986V20.5674Z" fill="black"/>
    <path d="M38.2986 23.5068H35.3525V26.4452H38.2986V23.5068Z" fill="black"/>
    <path d="M35.3525 26.4453H32.4065V29.3837H35.3525V26.4453Z" fill="black"/>
    <path d="M35.3525 29.3838H32.4065V32.3221H35.3525V29.3838Z" fill="black"/>
    <path d="M35.3525 32.3223H32.4065V35.2606H35.3525V32.3223Z" fill="black"/>
    <path d="M35.3525 35.2598H32.4065V38.1981H35.3525V35.2598Z" fill="#1A1A1A"/>
    <path d="M38.2986 32.3223H35.3525V35.2606H38.2986V32.3223Z" fill="black"/>
    <path d="M41.2448 35.2598H38.2987V38.1981H41.2448V35.2598Z" fill="black"/>
    <path d="M44.1907 38.1992H41.2446V41.1376H44.1907V38.1992Z" fill="black"/>
    <path d="M47.1368 41.1377H44.1908V44.076H47.1368V41.1377Z" fill="black"/>
    <path d="M38.2986 35.2598H35.3525V38.1981H38.2986V35.2598Z" fill="black"/>
    <path d="M41.2448 38.1992H38.2987V41.1376H41.2448V38.1992Z" fill="black"/>
    <path d="M44.1907 41.1377H41.2446V44.076H44.1907V41.1377Z" fill="black"/>
    <path d="M38.2986 38.1992H35.3525V41.1376H38.2986V38.1992Z" fill="#1A1A1A"/>
    <path d="M41.2448 41.1377H38.2987V44.076H41.2448V41.1377Z" fill="#333333"/>
    <path d="M44.1907 44.0752H41.2446V47.0135H44.1907V44.0752Z" fill="#333333"/>
    <path d="M47.1367 44.0752H44.1907V47.0135H47.1367V44.0752Z" fill="black"/>
    <path d="M50.0829 44.0752H47.1368V47.0135H50.0829V44.0752Z" fill="black"/>
    <path d="M50.0829 47.0127H47.1368V49.951H50.0829V47.0127Z" fill="black"/>
    <path d="M47.1367 47.0127H44.1907V49.951H47.1367V47.0127Z" fill="#4D4D4D"/>
    <path d="M32.4065 32.3223H29.4604V35.2606H32.4065V32.3223Z" fill="black"/>
    <path d="M29.4605 32.3223H26.5144V35.2606H29.4605V32.3223Z" fill="black"/>
    <path d="M26.5145 35.2598H23.5685V38.1981H26.5145V35.2598Z" fill="black"/>
    <path d="M23.5684 35.2598H20.6223V38.1981H23.5684V35.2598Z" fill="black"/>
    <path d="M20.6223 35.2598H17.6763V38.1981H20.6223V35.2598Z" fill="black"/>
    <path d="M17.6763 35.2598H14.7302V38.1981H17.6763V35.2598Z" fill="black"/>
    <path d="M14.7302 32.3223H11.7842V35.2606H14.7302V32.3223Z" fill="black"/>
    <path d="M11.7842 32.3223H8.83813V35.2606H11.7842V32.3223Z" fill="black"/>
    <path d="M26.5145 32.3223H23.5685V35.2606H26.5145V32.3223Z" fill="#2986FF"/>
    <path d="M23.5684 32.3223H20.6223V35.2606H23.5684V32.3223Z" fill="#2986FF"/>
    <path d="M20.6223 32.3223H17.6763V35.2606H20.6223V32.3223Z" fill="#2986FF"/>
    <path d="M17.6763 32.3223H14.7302V35.2606H17.6763V32.3223Z" fill="#2986FF"/>
    <path d="M14.7304 29.3838H11.7843V32.3221H14.7304V29.3838Z" fill="#2986FF"/>
    <path d="M17.6763 29.3838H14.7302V32.3221H17.6763V29.3838Z" fill="#2986FF"/>
    <path d="M11.7842 29.3838H8.83813V32.3221H11.7842V29.3838Z" fill="#2986FF"/>
    <path d="M11.7842 26.4453H8.83813V29.3837H11.7842V26.4453Z" fill="#2986FF"/>
    <path d="M8.83814 23.5068H5.89209V26.4452H8.83814V23.5068Z" fill="#2986FF"/>
    <path d="M11.7842 23.5068H8.83813V26.4452H11.7842V23.5068Z" fill="#2986FF"/>
    <path d="M8.83814 20.5674H5.89209V23.5057H8.83814V20.5674Z" fill="#2986FF"/>
    <path d="M8.83814 17.6299H5.89209V20.5682H8.83814V17.6299Z" fill="#2986FF"/>
    <path d="M8.83814 14.6914H5.89209V17.6297H8.83814V14.6914Z" fill="#2986FF"/>
    <path d="M8.83814 29.3838H5.89209V32.3221H8.83814V29.3838Z" fill="black"/>
    <path d="M8.83814 26.4453H5.89209V29.3837H8.83814V26.4453Z" fill="black"/>
    <path d="M5.89209 23.5068H2.94604V26.4452H5.89209V23.5068Z" fill="black"/>
    <path d="M5.89209 20.5674H2.94604V23.5057H5.89209V20.5674Z" fill="black"/>
    <path d="M5.89209 17.6299H2.94604V20.5682H5.89209V17.6299Z" fill="black"/>
    <path d="M5.89209 14.6914H2.94604V17.6297H5.89209V14.6914Z" fill="black"/>
    <path d="M8.83814 11.7529H5.89209V14.6913H8.83814V11.7529Z" fill="black"/>
    <path d="M8.83814 8.81641H5.89209V11.7547H8.83814V8.81641Z" fill="black"/>
    <path d="M11.7842 5.875H8.83813V8.81334H11.7842V5.875Z" fill="black"/>
    <path d="M14.7302 5.875H11.7842V8.81334H14.7302V5.875Z" fill="black"/>
    <path d="M14.7304 2.93848H11.7843V5.87682H14.7304V2.93848Z" fill="white"/>
    <path d="M11.7842 2.93848H8.83813V5.87682H11.7842V2.93848Z" fill="white"/>
    <path d="M8.83814 5.875H5.89209V8.81334H8.83814V5.875Z" fill="white"/>
    <path d="M5.89209 8.81641H2.94604V11.7547H5.89209V8.81641Z" fill="white"/>
    <path d="M5.89209 11.7529H2.94604V14.6913H5.89209V11.7529Z" fill="white"/>
    <path d="M32.4065 2.93848H29.4604V5.87682H32.4065V2.93848Z" fill="white"/>
    <path d="M35.3525 5.875H32.4065V8.81334H35.3525V5.875Z" fill="white"/>
    <path d="M38.2986 8.81641H35.3525V11.7547H38.2986V8.81641Z" fill="white"/>
    <path d="M38.2986 11.7529H35.3525V14.6913H38.2986V11.7529Z" fill="white"/>
    <path d="M41.2448 14.6914H38.2987V17.6297H41.2448V14.6914Z" fill="white"/>
    <path d="M41.2448 17.6299H38.2987V20.5682H41.2448V17.6299Z" fill="white"/>
    <path d="M41.2448 20.5674H38.2987V23.5057H41.2448V20.5674Z" fill="white"/>
    <path d="M41.2448 23.5068H38.2987V26.4452H41.2448V23.5068Z" fill="white"/>
    <path d="M41.2448 26.4453H38.2987V29.3837H41.2448V26.4453Z" fill="white"/>
    <path d="M38.2986 26.4453H35.3525V29.3837H38.2986V26.4453Z" fill="white"/>
    <path d="M38.2986 29.3838H35.3525V32.3221H38.2986V29.3838Z" fill="white"/>
    <path d="M41.2448 32.3223H38.2987V35.2606H41.2448V32.3223Z" fill="white"/>
    <path d="M44.1907 35.2598H41.2446V38.1981H44.1907V35.2598Z" fill="white"/>
    <path d="M47.1367 38.1992H44.1907V41.1376H47.1367V38.1992Z" fill="white"/>
    <path d="M50.0829 41.1377H47.1368V44.076H50.0829V41.1377Z" fill="white"/>
    <path d="M53.0288 44.0752H50.0828V47.0135H53.0288V44.0752Z" fill="white"/>
    <path d="M41.2448 29.3838H38.2987V32.3221H41.2448V29.3838Z" fill="white"/>
    <path d="M44.1907 32.3223H41.2446V35.2606H44.1907V32.3223Z" fill="white"/>
    <path d="M47.1367 35.2598H44.1907V38.1981H47.1367V35.2598Z" fill="white"/>
    <path d="M50.0829 38.1992H47.1368V41.1376H50.0829V38.1992Z" fill="white"/>
    <path d="M53.0288 41.1377H50.0828V44.076H53.0288V41.1377Z" fill="white"/>
    <path d="M53.0288 47.0127H50.0828V49.951H53.0288V47.0127Z" fill="white"/>
    <path d="M53.0288 49.9512H50.0828V52.8895H53.0288V49.9512Z" fill="white"/>
    <path d="M50.0829 49.9512H47.1368V52.8895H50.0829V49.9512Z" fill="white"/>
    <path d="M47.1368 49.9512H44.1908V52.8895H47.1368V49.9512Z" fill="white"/>
    <path d="M44.1907 47.0127H41.2446V49.951H44.1907V47.0127Z" fill="white"/>
    <path d="M41.2448 44.0752H38.2987V47.0135H41.2448V44.0752Z" fill="white"/>
    <path d="M38.2986 41.1377H35.3525V44.076H38.2986V41.1377Z" fill="white"/>
    <path d="M35.3525 38.1992H32.4065V41.1376H35.3525V38.1992Z" fill="white"/>
    <path d="M44.1907 49.9512H41.2446V52.8895H44.1907V49.9512Z" fill="white"/>
    <path d="M41.2448 47.0127H38.2987V49.951H41.2448V47.0127Z" fill="white"/>
    <path d="M38.2986 44.0752H35.3525V47.0135H38.2986V44.0752Z" fill="white"/>
    <path d="M35.3525 41.1377H32.4065V44.076H35.3525V41.1377Z" fill="white"/>
    <path d="M32.4065 38.1992H29.4604V41.1376H32.4065V38.1992Z" fill="white"/>
    <path d="M29.4605 38.1992H26.5144V41.1376H29.4605V38.1992Z" fill="white"/>
    <path d="M32.4065 35.2598H29.4604V38.1981H32.4065V35.2598Z" fill="white"/>
    <path d="M29.4605 35.2598H26.5144V38.1981H29.4605V35.2598Z" fill="white"/>
    <path d="M26.5145 38.1992H23.5685V41.1376H26.5145V38.1992Z" fill="white"/>
    <path d="M23.5684 38.1992H20.6223V41.1376H23.5684V38.1992Z" fill="white"/>
    <path d="M20.6223 38.1992H17.6763V41.1376H20.6223V38.1992Z" fill="white"/>
    <path d="M17.6763 38.1992H14.7302V41.1376H17.6763V38.1992Z" fill="white"/>
    <path d="M14.7302 35.2598H11.7842V38.1981H14.7302V35.2598Z" fill="white"/>
    <path d="M14.7304 38.1836H11.7843V41.1219H14.7304V38.1836Z" fill="white"/>
    <path d="M11.7842 35.2598H8.83813V38.1981H11.7842V35.2598Z" fill="white"/>
    <path d="M8.83814 32.3223H5.89209V35.2606H8.83814V32.3223Z" fill="white"/>
    <path d="M8.83814 35.2598H5.89209V38.1981H8.83814V35.2598Z" fill="white"/>
    <path d="M5.89209 29.3838H2.94604V32.3221H5.89209V29.3838Z" fill="white"/>
    <path d="M5.89209 32.3223H2.94604V35.2606H5.89209V32.3223Z" fill="white"/>
    <path d="M5.89209 26.4453H2.94604V29.3837H5.89209V26.4453Z" fill="white"/>
    <path d="M2.94605 23.5068H0V26.4452H2.94605V23.5068Z" fill="white"/>
    <path d="M2.94605 26.4453H0V29.3837H2.94605V26.4453Z" fill="white"/>
    <path d="M2.94605 20.5674H0V23.5057H2.94605V20.5674Z" fill="white"/>
    <path d="M2.94605 17.6299H0V20.5682H2.94605V17.6299Z" fill="white"/>
    <path d="M2.94605 14.6914H0V17.6297H2.94605V14.6914Z" fill="white"/>
    <path d="M29.4605 2.93848H26.5144V5.87682H29.4605V2.93848Z" fill="white"/>
    <path d="M17.6763 0H14.7302V2.93834H17.6763V0Z" fill="white"/>
    <path d="M20.6224 0H17.6764V2.93834H20.6224V0Z" fill="white"/>
    <path d="M23.5684 0H20.6223V2.93834H23.5684V0Z" fill="white"/>
    <path d="M26.5144 0H23.5684V2.93834H26.5144V0Z" fill="white"/>
    <path d="M17.6763 5.875H14.7302V8.81334H17.6763V5.875Z" fill="#45B3E9"/>
    <path d="M20.6223 5.875H17.6763V8.81334H20.6223V5.875Z" fill="#45B3E9"/>
    <path d="M23.5684 5.875H20.6223V8.81334H23.5684V5.875Z" fill="#45B3E9"/>
    <path d="M26.5145 5.875H23.5685V8.81334H26.5145V5.875Z" fill="#45B3E9"/>
    <path d="M29.4605 8.81641H26.5144V11.7547H29.4605V8.81641Z" fill="#45B3E9"/>
    <path d="M32.4065 8.81641H29.4604V11.7547H32.4065V8.81641Z" fill="#45B3E9"/>
    <path d="M11.7842 8.81641H8.83813V11.7547H11.7842V8.81641Z" fill="#45B3E9"/>
    <path d="M14.7302 8.81641H11.7842V11.7547H14.7302V8.81641Z" fill="#45B3E9"/>
    <path d="M17.6763 8.81641H14.7302V11.7547H17.6763V8.81641Z" fill="#45B3E9"/>
    <path d="M20.6223 8.81641H17.6763V11.7547H20.6223V8.81641Z" fill="black"/>
    <path d="M23.5684 8.81641H20.6223V11.7547H23.5684V8.81641Z" fill="black"/>
    <path d="M26.5145 8.81641H23.5685V11.7547H26.5145V8.81641Z" fill="#FCFFFE"/>
    <path d="M17.6763 11.7529H14.7302V14.6913H17.6763V11.7529Z" fill="black"/>
    <path d="M20.6223 11.7529H17.6763V14.6913H20.6223V11.7529Z" fill="#45B3E9"/>
    <path d="M23.5685 11.7529H20.6224V14.6913H23.5685V11.7529Z" fill="#45B3E9"/>
    <path d="M26.5145 11.7529H23.5685V14.6913H26.5145V11.7529Z" fill="black"/>
    <path d="M29.4605 11.7529H26.5144V14.6913H29.4605V11.7529Z" fill="#FCFFFE"/>
    <path d="M32.4065 11.7529H29.4604V14.6913H32.4065V11.7529Z" fill="#45B3E9"/>
    <path d="M11.7842 11.7529H8.83813V14.6913H11.7842V11.7529Z" fill="#45B3E9"/>
    <path d="M14.7304 11.7529H11.7843V14.6913H14.7304V11.7529Z" fill="#45B3E9"/>
    <path d="M17.6763 14.6914H14.7302V17.6297H17.6763V14.6914Z" fill="black"/>
    <path d="M20.6223 14.6914H17.6763V17.6297H20.6223V14.6914Z" fill="#45B3E9"/>
    <path d="M23.5685 14.6914H20.6224V17.6297H23.5685V14.6914Z" fill="#45B3E9"/>
    <path d="M26.5145 14.6914H23.5685V17.6297H26.5145V14.6914Z" fill="#45B3E9"/>
    <path d="M29.4605 14.6914H26.5144V17.6297H29.4605V14.6914Z" fill="#FCFFFE"/>
    <path d="M32.4065 14.6914H29.4604V17.6297H32.4065V14.6914Z" fill="#45B3E9"/>
    <path d="M11.7842 14.6914H8.83813V17.6297H11.7842V14.6914Z" fill="#45B3E9"/>
    <path d="M14.7304 14.6914H11.7843V17.6297H14.7304V14.6914Z" fill="#45B3E9"/>
    <path d="M17.6763 17.6299H14.7302V20.5682H17.6763V17.6299Z" fill="#45B3E9"/>
    <path d="M20.6223 17.6299H17.6763V20.5682H20.6223V17.6299Z" fill="black"/>
    <path d="M23.5684 17.6299H20.6223V20.5682H23.5684V17.6299Z" fill="black"/>
    <path d="M26.5145 17.6299H23.5685V20.5682H26.5145V17.6299Z" fill="#45B3E9"/>
    <path d="M29.4605 17.6299H26.5144V20.5682H29.4605V17.6299Z" fill="#45B3E9"/>
    <path d="M32.4065 17.6299H29.4604V20.5682H32.4065V17.6299Z" fill="#45B3E9"/>
    <path d="M11.7842 17.6299H8.83813V20.5682H11.7842V17.6299Z" fill="#45B3E9"/>
    <path d="M14.7302 17.6299H11.7842V20.5682H14.7302V17.6299Z" fill="#45B3E9"/>
    <path d="M17.6763 20.5674H14.7302V23.5057H17.6763V20.5674Z" fill="#45B3E9"/>
    <path d="M20.6223 20.5674H17.6763V23.5057H20.6223V20.5674Z" fill="#45B3E9"/>
    <path d="M23.5684 20.5674H20.6223V23.5057H23.5684V20.5674Z" fill="#45B3E9"/>
    <path d="M26.5145 20.5674H23.5685V23.5057H26.5145V20.5674Z" fill="black"/>
    <path d="M29.4605 20.5674H26.5144V23.5057H29.4605V20.5674Z" fill="#45B3E9"/>
    <path d="M32.4065 20.5674H29.4604V23.5057H32.4065V20.5674Z" fill="#45B3E9"/>
    <path d="M11.7842 20.5674H8.83813V23.5057H11.7842V20.5674Z" fill="#45B3E9"/>
    <path d="M14.7302 20.5674H11.7842V23.5057H14.7302V20.5674Z" fill="#45B3E9"/>
    <path d="M17.6763 23.5068H14.7302V26.4452H17.6763V23.5068Z" fill="black"/>
    <path d="M20.6223 23.5068H17.6763V26.4452H20.6223V23.5068Z" fill="#45B3E9"/>
    <path d="M23.5684 23.5068H20.6223V26.4452H23.5684V23.5068Z" fill="#45B3E9"/>
    <path d="M26.5145 23.5068H23.5685V26.4452H26.5145V23.5068Z" fill="black"/>
    <path d="M29.4605 23.5068H26.5144V26.4452H29.4605V23.5068Z" fill="#45B3E9"/>
    <path d="M32.4065 23.5068H29.4604V26.4452H32.4065V23.5068Z" fill="#45B3E9"/>
    <path d="M35.3525 14.6914H32.4065V17.6297H35.3525V14.6914Z" fill="#45B3E9"/>
    <path d="M35.3525 17.6299H32.4065V20.5682H35.3525V17.6299Z" fill="#45B3E9"/>
    <path d="M35.3525 20.5674H32.4065V23.5057H35.3525V20.5674Z" fill="#45B3E9"/>
    <path d="M35.3525 23.5068H32.4065V26.4452H35.3525V23.5068Z" fill="#45B3E9"/>
    <path d="M14.7302 23.5068H11.7842V26.4452H14.7302V23.5068Z" fill="#45B3E9"/>
    <path d="M17.6763 26.4453H14.7302V29.3837H17.6763V26.4453Z" fill="#45B3E9"/>
    <path d="M20.6223 26.4453H17.6763V29.3837H20.6223V26.4453Z" fill="black"/>
    <path d="M23.5685 26.4453H20.6224V29.3837H23.5685V26.4453Z" fill="black"/>
    <path d="M26.5145 26.4453H23.5685V29.3837H26.5145V26.4453Z" fill="#45B3E9"/>
    <path d="M29.4605 26.4453H26.5144V29.3837H29.4605V26.4453Z" fill="#45B3E9"/>
    <path d="M32.4065 26.4453H29.4604V29.3837H32.4065V26.4453Z" fill="#45B3E9"/>
    <path d="M20.6223 29.3838H17.6763V32.3221H20.6223V29.3838Z" fill="#45B3E9"/>
    <path d="M23.5685 29.3838H20.6224V32.3221H23.5685V29.3838Z" fill="#45B3E9"/>
    <path d="M26.5145 29.3838H23.5685V32.3221H26.5145V29.3838Z" fill="#45B3E9"/>
    <path d="M29.4605 29.3838H26.5144V32.3221H29.4605V29.3838Z" fill="#45B3E9"/>
    <path d="M32.4065 29.3838H29.4604V32.3221H32.4065V29.3838Z" fill="#45B3E9"/>
    <path d="M14.7304 26.4453H11.7843V29.3837H14.7304V26.4453Z" fill="#45B3E9"/>
</svg>
