<svg width="70" height="70" viewBox="0 0 70 70" fill="none" xmlns="http://www.w3.org/2000/svg">
    <g>
        <path d="M11.25 18.5605H9V20.5158H11.25V18.5605Z" fill="black"/>
        <path d="M18 47.8901H11.25V49.8454H18V47.8901Z" fill="black"/>
        <path d="M13.5 20.5156H11.25V30.2921H13.5V20.5156Z" fill="black"/>
        <path d="M18 20.5156H15.75V30.2921H18V20.5156Z" fill="black"/>
        <path d="M20.25 18.5605H18V20.5158H20.25V18.5605Z" fill="black"/>
        <path d="M11.25 30.292H9V47.8897H11.25V30.292Z" fill="black"/>
        <path d="M20.25 30.292H18V47.8897H20.25V30.292Z" fill="black"/>
        <path d="M42.75 4.87305H40.5V47.8897H42.75V4.87305Z" fill="black"/>
        <path d="M9 16.605H6.75V18.5603H9V16.605Z" fill="black"/>
        <path d="M22.5 16.605H20.25V18.5603H22.5V16.605Z" fill="black"/>
        <path d="M6.75 14.6499H4.5V16.6052H6.75V14.6499Z" fill="black"/>
        <path d="M24.75 14.6499H22.5V16.6052H24.75V14.6499Z" fill="black"/>
        <path d="M11.25 10.7393H9V12.6946H11.25V10.7393Z" fill="black"/>
        <path d="M20.25 10.7393H18V12.6946H20.25V10.7393Z" fill="black"/>
        <path d="M13.5 4.87305H11.25V10.739H13.5V4.87305Z" fill="black"/>
        <path d="M6.75 2.91797H4.5V4.87327H6.75V2.91797Z" fill="black"/>
        <path d="M6.75 4.87305H4.5V6.82835H6.75V4.87305Z" fill="#F3F4F6"/>
        <path d="M6.75 6.82861H4.5V8.78391H6.75V6.82861Z" fill="#F3F4F6"/>
        <path d="M6.75 8.78369H4.5V10.739H6.75V8.78369Z" fill="#C2C6CF"/>
        <path d="M6.75 10.7393H4.5V12.6946H6.75V10.7393Z" fill="#C2C6CF"/>
        <path d="M6.75 12.6943H4.5V14.6496H6.75V12.6943Z" fill="#A4AAB6"/>
        <path d="M9 10.7393H6.75V12.6946H9V10.7393Z" fill="#A4AAB6"/>
        <path d="M9 12.6943H6.75V14.6496H9V12.6943Z" fill="#C2C6CF"/>
        <path d="M11.2489 12.6943H8.9989V14.6496H11.2489V12.6943Z" fill="#A4AAB6"/>
        <path d="M13.4989 12.6943H11.2489V14.6496H13.4989V12.6943Z" fill="#C2C6CF"/>
        <path d="M15.7489 12.6943H13.4989V14.6496H15.7489V12.6943Z" fill="#C2C6CF"/>
        <path d="M17.9989 12.6943H15.7489V14.6496H17.9989V12.6943Z" fill="#C2C6CF"/>
        <path d="M13.4989 10.7393H11.2489V12.6946H13.4989V10.7393Z" fill="#A4AAB6"/>
        <path d="M15.7489 10.7393H13.4989V12.6946H15.7489V10.7393Z" fill="#C2C6CF"/>
        <path d="M15.7489 8.78369H13.4989V10.739H15.7489V8.78369Z" fill="#C2C6CF"/>
        <path d="M15.7489 6.82861H13.4989V8.78391H15.7489V6.82861Z" fill="#F3F4F6"/>
        <path d="M15.7489 4.87305H13.4989V6.82835H15.7489V4.87305Z" fill="#F3F4F6"/>
        <path d="M24.7478 8.78369H22.4978V10.739H24.7478V8.78369Z" fill="#C2C6CF"/>
        <path d="M24.7478 6.82861H22.4978V8.78391H24.7478V6.82861Z" fill="#F3F4F6"/>
        <path d="M24.7478 4.87305H22.4978V6.82835H24.7478V4.87305Z" fill="#F3F4F6"/>
        <path d="M40.5 4.87305H38.25V6.82835H40.5V4.87305Z" fill="#F3F4F6"/>
        <path d="M40.5 6.82861H38.25V8.78391H40.5V6.82861Z" fill="#A4AAB6"/>
        <path d="M40.5 8.78369H38.25V10.739H40.5V8.78369Z" fill="#A4AAB6"/>
        <path d="M40.5 10.7393H38.25V12.6946H40.5V10.7393Z" fill="#C2C6CF"/>
        <path d="M40.5 12.6943H38.25V14.6496H40.5V12.6943Z" fill="#C2C6CF"/>
        <path d="M40.5 14.6499H38.25V16.6052H40.5V14.6499Z" fill="#C2C6CF"/>
        <path d="M40.5 16.605H38.25V18.5603H40.5V16.605Z" fill="#C2C6CF"/>
        <path d="M40.5 18.5605H38.25V20.5158H40.5V18.5605Z" fill="#C2C6CF"/>
        <path d="M40.5 20.5156H38.25V22.4709H40.5V20.5156Z" fill="#C2C6CF"/>
        <path d="M40.5 22.4712H38.25V24.4265H40.5V22.4712Z" fill="#C2C6CF"/>
        <path d="M40.5 24.4263H38.25V26.3816H40.5V24.4263Z" fill="#C2C6CF"/>
        <path d="M40.5 26.3813H38.25V28.3366H40.5V26.3813Z" fill="#A4AAB6"/>
        <path d="M40.5 28.3369H38.25V30.2922H40.5V28.3369Z" fill="#A4AAB6"/>
        <path d="M38.25 6.82861H36V8.78391H38.25V6.82861Z" fill="#F3F4F6"/>
        <path d="M38.25 8.78369H36V10.739H38.25V8.78369Z" fill="#F3F4F6"/>
        <path d="M38.25 10.7393H36V12.6946H38.25V10.7393Z" fill="#A4AAB6"/>
        <path d="M38.25 12.6943H36V14.6496H38.25V12.6943Z" fill="#A4AAB6"/>
        <path d="M38.25 14.6499H36V16.6052H38.25V14.6499Z" fill="#A4AAB6"/>
        <path d="M38.25 16.605H36V18.5603H38.25V16.605Z" fill="#A4AAB6"/>
        <path d="M38.25 18.5605H36V20.5158H38.25V18.5605Z" fill="#A4AAB6"/>
        <path d="M38.25 20.5156H36V22.4709H38.25V20.5156Z" fill="#A4AAB6"/>
        <path d="M38.25 22.4712H36V24.4265H38.25V22.4712Z" fill="#A4AAB6"/>
        <path d="M38.25 24.4263H36V26.3816H38.25V24.4263Z" fill="#A4AAB6"/>
        <path d="M38.25 26.3813H36V28.3366H38.25V26.3813Z" fill="#A4AAB6"/>
        <path d="M36 10.7393H33.75V12.6946H36V10.7393Z" fill="#F3F4F6"/>
        <path d="M36 12.6943H33.75V14.6496H36V12.6943Z" fill="#F3F4F6"/>
        <path d="M36 14.6499H33.75V16.6052H36V14.6499Z" fill="#F3F4F6"/>
        <path d="M36 16.605H33.75V18.5603H36V16.605Z" fill="#F3F4F6"/>
        <path d="M36 18.5605H33.75V20.5158H36V18.5605Z" fill="#F3F4F6"/>
        <path d="M36 20.5156H33.75V22.4709H36V20.5156Z" fill="#F3F4F6"/>
        <path d="M36 22.4712H33.75V24.4265H36V22.4712Z" fill="#F3F4F6"/>
        <path d="M36 24.4263H33.75V26.3816H36V24.4263Z" fill="#F3F4F6"/>
        <path d="M36 26.3813H33.75V28.3366H36V26.3813Z" fill="#F3F4F6"/>
        <path d="M38.25 28.3369H36V30.2922H38.25V28.3369Z" fill="#F3F4F6"/>
        <path d="M40.5 30.292H38.25V32.2473H40.5V30.292Z" fill="#F3F4F6"/>
        <path d="M40.5 32.2476H38.25V34.2029H40.5V32.2476Z" fill="#F3F4F6"/>
        <path d="M40.5 34.2026H38.25V36.1579H40.5V34.2026Z" fill="#A4AAB6"/>
        <path d="M40.5 36.1582H38.25V38.1135H40.5V36.1582Z" fill="#C2C6CF"/>
        <path d="M40.5 38.1133H38.25V40.0686H40.5V38.1133Z" fill="#C2C6CF"/>
        <path d="M40.5 40.0688H38.25V42.0241H40.5V40.0688Z" fill="#C2C6CF"/>
        <path d="M40.5 42.0239H38.25V43.9792H40.5V42.0239Z" fill="#A4AAB6"/>
        <path d="M40.5 43.9795H38.25V45.9348H40.5V43.9795Z" fill="#A4AAB6"/>
        <path d="M40.5 45.9346H38.25V47.8899H40.5V45.9346Z" fill="#A4AAB6"/>
        <path d="M38.25 34.2026H36V36.1579H38.25V34.2026Z" fill="#F3F4F6"/>
        <path d="M38.25 36.1582H36V38.1135H38.25V36.1582Z" fill="#C2C6CF"/>
        <path d="M38.25 38.1133H36V40.0686H38.25V38.1133Z" fill="#C2C6CF"/>
        <path d="M38.25 40.0688H36V42.0241H38.25V40.0688Z" fill="#C2C6CF"/>
        <path d="M38.25 42.0239H36V43.9792H38.25V42.0239Z" fill="#C2C6CF"/>
        <path d="M36 38.1133H33.75V40.0686H36V38.1133Z" fill="#C2C6CF"/>
        <path d="M36 40.0688H33.75V42.0241H36V40.0688Z" fill="#C2C6CF"/>
        <path d="M36 42.0239H33.75V43.9792H36V42.0239Z" fill="#A4AAB6"/>
        <path d="M38.25 43.9795H36V45.9348H38.25V43.9795Z" fill="#A4AAB6"/>
        <path d="M38.25 45.9346H36V47.8899H38.25V45.9346Z" fill="#A4AAB6"/>
        <path d="M17.9989 10.7393H15.7489V12.6946H17.9989V10.7393Z" fill="#A4AAB6"/>
        <path d="M20.2478 12.6943H17.9978V14.6496H20.2478V12.6943Z" fill="#A4AAB6"/>
        <path d="M22.4978 12.6943H20.2478V14.6496H22.4978V12.6943Z" fill="#C2C6CF"/>
        <path d="M9 14.6499H6.75V16.6052H9V14.6499Z" fill="#A4AAB6"/>
        <path d="M11.2489 14.6499H8.9989V16.6052H11.2489V14.6499Z" fill="#C2C6CF"/>
        <path d="M13.4989 14.6499H11.2489V16.6052H13.4989V14.6499Z" fill="#C2C6CF"/>
        <path d="M15.7489 14.6499H13.4989V16.6052H15.7489V14.6499Z" fill="#C2C6CF"/>
        <path d="M17.9989 14.6499H15.7489V16.6052H17.9989V14.6499Z" fill="#C2C6CF"/>
        <path d="M20.2478 14.6499H17.9978V16.6052H20.2478V14.6499Z" fill="#C2C6CF"/>
        <path d="M11.2489 16.605H8.9989V18.5603H11.2489V16.605Z" fill="#A4AAB6"/>
        <path d="M13.4989 16.605H11.2489V18.5603H13.4989V16.605Z" fill="#C2C6CF"/>
        <path d="M15.7489 16.605H13.4989V18.5603H15.7489V16.605Z" fill="#C2C6CF"/>
        <path d="M17.9989 16.605H15.7489V18.5603H17.9989V16.605Z" fill="#C2C6CF"/>
        <path d="M13.4989 18.5605H11.2489V20.5158H13.4989V18.5605Z" fill="#A4AAB6"/>
        <path d="M15.7489 18.5605H13.4989V20.5158H15.7489V18.5605Z" fill="#C2C6CF"/>
        <path d="M15.7489 20.5156H13.4989V22.4709H15.7489V20.5156Z" fill="#A4AAB6"/>
        <path d="M15.7489 22.4712H13.4989V24.4265H15.7489V22.4712Z" fill="#A4AAB6"/>
        <path d="M15.7489 24.4263H13.4989V26.3816H15.7489V24.4263Z" fill="#C2C6CF"/>
        <path d="M15.7489 26.3813H13.4989V28.3366H15.7489V26.3813Z" fill="#C2C6CF"/>
        <path d="M15.7489 28.3369H13.4989V30.2922H15.7489V28.3369Z" fill="#C2C6CF"/>
        <path d="M13.5 30.292H11.25V32.2473H13.5V30.292Z" fill="#F3F4F6"/>
        <path d="M15.7489 30.292H13.4989V32.2473H15.7489V30.292Z" fill="#C2C6CF"/>
        <path d="M17.9978 30.292H15.7478V32.2473H17.9978V30.292Z" fill="#C2C6CF"/>
        <path d="M13.5 32.2476H11.25V34.2029H13.5V32.2476Z" fill="#F3F4F6"/>
        <path d="M15.7489 32.2476H13.4989V34.2029H15.7489V32.2476Z" fill="#C2C6CF"/>
        <path d="M17.9978 32.2476H15.7478V34.2029H17.9978V32.2476Z" fill="#C2C6CF"/>
        <path d="M13.5 34.2026H11.25V36.1579H13.5V34.2026Z" fill="#F3F4F6"/>
        <path d="M15.7489 34.2026H13.4989V36.1579H15.7489V34.2026Z" fill="#C2C6CF"/>
        <path d="M17.9978 34.2026H15.7478V36.1579H17.9978V34.2026Z" fill="#C2C6CF"/>
        <path d="M13.5 36.1582H11.25V38.1135H13.5V36.1582Z" fill="#F3F4F6"/>
        <path d="M15.7489 36.1582H13.4989V38.1135H15.7489V36.1582Z" fill="#C2C6CF"/>
        <path d="M17.9978 36.1582H15.7478V38.1135H17.9978V36.1582Z" fill="#C2C6CF"/>
        <path d="M13.5 38.1133H11.25V40.0686H13.5V38.1133Z" fill="#F3F4F6"/>
        <path d="M15.7489 38.1133H13.4989V40.0686H15.7489V38.1133Z" fill="#C2C6CF"/>
        <path d="M17.9978 38.1133H15.7478V40.0686H17.9978V38.1133Z" fill="#C2C6CF"/>
        <path d="M13.5 40.0688H11.25V42.0241H13.5V40.0688Z" fill="#F3F4F6"/>
        <path d="M15.7489 40.0688H13.4989V42.0241H15.7489V40.0688Z" fill="#C2C6CF"/>
        <path d="M17.9978 40.0688H15.7478V42.0241H17.9978V40.0688Z" fill="#C2C6CF"/>
        <path d="M13.5 42.0239H11.25V43.9792H13.5V42.0239Z" fill="#F3F4F6"/>
        <path d="M15.7489 42.0239H13.4989V43.9792H15.7489V42.0239Z" fill="#C2C6CF"/>
        <path d="M17.9978 42.0239H15.7478V43.9792H17.9978V42.0239Z" fill="#C2C6CF"/>
        <path d="M13.5 43.9795H11.25V45.9348H13.5V43.9795Z" fill="#F3F4F6"/>
        <path d="M15.7489 43.9795H13.4989V45.9348H15.7489V43.9795Z" fill="#C2C6CF"/>
        <path d="M17.9978 43.9795H15.7478V45.9348H17.9978V43.9795Z" fill="#C2C6CF"/>
        <path d="M13.5 45.9346H11.25V47.8899H13.5V45.9346Z" fill="#F3F4F6"/>
        <path d="M15.7489 45.9346H13.4989V47.8899H15.7489V45.9346Z" fill="#C2C6CF"/>
        <path d="M17.9978 45.9346H15.7478V47.8899H17.9978V45.9346Z" fill="#C2C6CF"/>
        <path d="M17.9989 18.5605H15.7489V20.5158H17.9989V18.5605Z" fill="#A4AAB6"/>
        <path d="M20.2478 16.605H17.9978V18.5603H20.2478V16.605Z" fill="#A4AAB6"/>
        <path d="M22.4978 14.6499H20.2478V16.6052H22.4978V14.6499Z" fill="#A4AAB6"/>
        <path d="M24.7478 12.6943H22.4978V14.6496H24.7478V12.6943Z" fill="#A4AAB6"/>
        <path d="M22.4978 10.7393H20.2478V12.6946H22.4978V10.7393Z" fill="#A4AAB6"/>
        <path d="M24.7478 10.7393H22.4978V12.6946H24.7478V10.7393Z" fill="#C2C6CF"/>
        <path d="M15.75 2.91797H13.5V4.87327H15.75V2.91797Z" fill="black"/>
        <path d="M18 4.87305H15.75V10.739H18V4.87305Z" fill="black"/>
        <path d="M22.5 4.87305H20.25V10.739H22.5V4.87305Z" fill="black"/>
        <path d="M24.75 2.91797H22.5V4.87327H24.75V2.91797Z" fill="black"/>
        <path d="M40.5 2.91797H38.25V4.87327H40.5V2.91797Z" fill="black"/>
        <path d="M38.25 4.87305H36V6.82835H38.25V4.87305Z" fill="black"/>
        <path d="M36 28.3369H33.75V30.2922H36V28.3369Z" fill="black"/>
        <path d="M36 43.9795H33.75V47.8901H36V43.9795Z" fill="black"/>
        <path d="M40.5 47.8901H36V49.8454H40.5V47.8901Z" fill="black"/>
        <path d="M38.25 30.292H36V34.2026H38.25V30.292Z" fill="black"/>
        <path d="M36 34.2026H33.75V38.1132H36V34.2026Z" fill="black"/>
        <path d="M33.75 38.1133H31.5V43.9792H33.75V38.1133Z" fill="black"/>
        <path d="M36 6.82861H33.75V10.7392H36V6.82861Z" fill="black"/>
        <path d="M33.75 10.7393H31.5V28.337H33.75V10.7393Z" fill="black"/>
        <path d="M27 4.87305H24.75V14.6496H27V4.87305Z" fill="black"/>
        <path d="M9 4.87305H6.75V10.739H9V4.87305Z" fill="black"/>
        <path d="M4.5 4.87305H2.25V14.6496H4.5V4.87305Z" fill="black"/>
        <path d="M4.5 2.91797H2.25V4.87327H4.5V2.91797Z" fill="white"/>
        <path d="M2.25 4.87354H0V14.65H2.25V4.87354Z" fill="white"/>
        <path d="M6.75 0.962891H4.5V2.91819H6.75V0.962891Z" fill="white"/>
        <path d="M15.75 0.962891H13.5V2.91819H15.75V0.962891Z" fill="white"/>
        <path d="M24.75 0.962891H22.5V2.91819H24.75V0.962891Z" fill="white"/>
        <path d="M40.5 0.962891H38.25V2.91819H40.5V0.962891Z" fill="white"/>
        <path d="M42.75 2.91797H40.5V4.87327H42.75V2.91797Z" fill="white"/>
        <path d="M45 47.8901H40.5V49.8454H45V47.8901Z" fill="white"/>
        <path d="M36 47.8901H31.5V49.8454H36V47.8901Z" fill="white"/>
        <path d="M33.75 47.8901V43.9795H31.5V47.8901H33.75Z" fill="white"/>
        <path d="M31.5 45.935V38.1138H29.25V45.935H31.5Z" fill="white"/>
        <path d="M33.75 38.1137V34.2031H31.5V38.1137H33.75Z" fill="white"/>
        <path d="M36 34.2031V30.2925H33.75V34.2031H36Z" fill="white"/>
        <path d="M33.75 30.2922V28.3369H31.5V30.2922H33.75Z" fill="white"/>
        <path d="M31.5 28.337V10.7393H29.25V28.337H31.5Z" fill="white"/>
        <path d="M42.75 49.8452H33.75V51.8005H42.75V49.8452Z" fill="white"/>
        <path d="M45 4.87354H42.75V47.8902H45V4.87354Z" fill="white"/>
        <path d="M9 2.91797H6.75V4.87327H9V2.91797Z" fill="white"/>
        <path d="M13.5 2.91797H11.25V4.87327H13.5V2.91797Z" fill="white"/>
        <path d="M18 2.91797H15.75V4.87327H18V2.91797Z" fill="white"/>
        <path d="M22.4978 2.91797H20.2478V4.87327H22.4978V2.91797Z" fill="white"/>
        <path d="M27 2.91797H24.75V4.87327H27V2.91797Z" fill="white"/>
        <path d="M36 4.87354H33.75V6.82884H36V4.87354Z" fill="white"/>
        <path d="M38.25 2.91797H36V4.87327H38.25V2.91797Z" fill="white"/>
        <path d="M33.75 6.82861H31.5V10.7392H33.75V6.82861Z" fill="white"/>
        <path d="M11.25 4.87354H9V6.82884H11.25V4.87354Z" fill="white"/>
        <path d="M11.25 6.82861H9V8.78391H11.25V6.82861Z" fill="white"/>
        <path d="M11.25 8.78418H9V10.7395H11.25V8.78418Z" fill="white"/>
        <path d="M20.25 4.87354H18V6.82884H20.25V4.87354Z" fill="white"/>
        <path d="M20.25 6.82861H18V8.78391H20.25V6.82861Z" fill="white"/>
        <path d="M20.25 8.78418H18V10.7395H20.25V8.78418Z" fill="white"/>
        <path d="M29.25 4.87354H27V6.82884H29.25V4.87354Z" fill="white"/>
        <path d="M29.25 6.82861H27V8.78391H29.25V6.82861Z" fill="white"/>
        <path d="M29.25 8.78418H27V10.7395H29.25V8.78418Z" fill="white"/>
        <path d="M29.25 10.7393H27V12.6946H29.25V10.7393Z" fill="white"/>
        <path d="M29.25 12.6948H27V14.6501H29.25V12.6948Z" fill="white"/>
        <path d="M27 14.6499H24.75V16.6052H27V14.6499Z" fill="white"/>
        <path d="M4.5 14.6499H2.25V16.6052H4.5V14.6499Z" fill="white"/>
        <path d="M24.7478 16.6055H22.4978V18.5608H24.7478V16.6055Z" fill="white"/>
        <path d="M6.75 16.6055H4.5V18.5608H6.75V16.6055Z" fill="white"/>
        <path d="M22.5 18.5605H20.25V20.5158H22.5V18.5605Z" fill="white"/>
        <path d="M22.5 28.3369H20.25V30.2922H22.5V28.3369Z" fill="white"/>
        <path d="M9 18.5605H6.75V20.5158H9V18.5605Z" fill="white"/>
        <path d="M9 28.3369H6.75V30.2922H9V28.3369Z" fill="white"/>
        <path d="M11.2489 47.8901H8.9989V49.8454H11.2489V47.8901Z" fill="white"/>
        <path d="M20.25 47.8901H18V49.8454H20.25V47.8901Z" fill="white"/>
        <path d="M22.5 30.2925H20.25V49.8455H22.5V30.2925Z" fill="white"/>
        <path d="M20.25 49.8452H8.9989V51.8005H20.25V49.8452Z" fill="white"/>
        <path d="M9 47.8901H6.75V49.8454H9V47.8901Z" fill="white"/>
        <path d="M20.25 20.5161H18V30.2926H20.25V20.5161Z" fill="white"/>
        <path d="M11.2489 20.5161H8.9989V30.2926H11.2489V20.5161Z" fill="white"/>
        <path d="M9 30.2925H6.75V47.8902H9V30.2925Z" fill="white"/>
    </g>
</svg>
