<svg width="70" height="70" viewBox="0 0 70 70" fill="none" xmlns="http://www.w3.org/2000/svg">
    <g>
        <path d="M5.69998 35.3521H2.84998V41.2441H5.69998V35.3521Z" fill="black"/>
        <path d="M8.54995 44.1899H5.69995V47.1359H8.54995V44.1899Z" fill="black"/>
        <path d="M5.69998 44.1899H2.84998V47.1359H5.69998V44.1899Z" fill="black"/>
        <path d="M5.69998 47.1362H2.84998V50.0822H5.69998V47.1362Z" fill="black"/>
        <path d="M8.54995 47.1362H5.69995V50.0822H8.54995V47.1362Z" fill="black"/>
        <path d="M8.54995 32.4062H5.69995V35.3523H8.54995V32.4062Z" fill="black"/>
        <path d="M11.4 29.46H8.55005V32.406H11.4V29.46Z" fill="black"/>
        <path d="M14.25 26.5142H11.4V29.4602H14.25V26.5142Z" fill="black"/>
        <path d="M17.1 23.5679H14.25V26.5139H17.1V23.5679Z" fill="black"/>
        <path d="M19.95 20.6221H17.1V23.5681H19.95V20.6221Z" fill="black"/>
        <path d="M22.8 17.6758H19.95V20.6218H22.8V17.6758Z" fill="black"/>
        <path d="M25.65 14.73H22.8V17.676H25.65V14.73Z" fill="black"/>
        <path d="M11.4 32.4062H8.55005V35.3523H11.4V32.4062Z" fill="#FFA219"/>
        <path d="M14.25 29.46H11.4V32.406H14.25V29.46Z" fill="#FFA219"/>
        <path d="M17.1 26.5142H14.25V29.4602H17.1V26.5142Z" fill="#FFA219"/>
        <path d="M19.95 23.5679H17.1V26.5139H19.95V23.5679Z" fill="#FFA219"/>
        <path d="M22.8 20.6221H19.95V23.5681H22.8V20.6221Z" fill="#FFA219"/>
        <path d="M25.65 17.6758H22.8V20.6218H25.65V17.6758Z" fill="#FFA219"/>
        <path d="M14.25 32.4062H11.4V35.3523H14.25V32.4062Z" fill="white"/>
        <path d="M17.1 29.46H14.25V32.406H17.1V29.46Z" fill="white"/>
        <path d="M19.95 26.5142H17.1V29.4602H19.95V26.5142Z" fill="white"/>
        <path d="M22.8 23.5679H19.95V26.5139H22.8V23.5679Z" fill="#FFBF66"/>
        <path d="M25.65 20.6221H22.8V23.5681H25.65V20.6221Z" fill="#FFBF66"/>
        <path d="M14.25 35.3521H11.4V38.2981H14.25V35.3521Z" fill="#FFA219"/>
        <path d="M17.1 32.4062H14.25V35.3523H17.1V32.4062Z" fill="#FFA219"/>
        <path d="M19.95 29.46H17.1V32.406H19.95V29.46Z" fill="#FFA219"/>
        <path d="M22.8 26.5142H19.95V29.4602H22.8V26.5142Z" fill="#FFA219"/>
        <path d="M25.65 23.5679H22.8V26.5139H25.65V23.5679Z" fill="#FFA219"/>
        <path d="M17.1 35.3521H14.25V38.2981H17.1V35.3521Z" fill="#FFA219"/>
        <path d="M19.95 32.4062H17.1V35.3523H19.95V32.4062Z" fill="#FFA219"/>
        <path d="M22.8 29.46H19.95V32.406H22.8V29.46Z" fill="#FFA219"/>
        <path d="M25.65 26.5142H22.8V29.4602H25.65V26.5142Z" fill="#FFA219"/>
        <path d="M17.1 38.2979H14.25V41.2439H17.1V38.2979Z" fill="#D98100"/>
        <path d="M19.95 35.3521H17.1V38.2981H19.95V35.3521Z" fill="#D98100"/>
        <path d="M22.8 32.4062H19.95V35.3523H22.8V32.4062Z" fill="#D98100"/>
        <path d="M25.65 29.46H22.8V32.406H25.65V29.46Z" fill="#D98100"/>
        <path d="M19.95 38.2979H17.1V41.2439H19.95V38.2979Z" fill="#D98100"/>
        <path d="M22.8 35.3521H19.95V38.2981H22.8V35.3521Z" fill="#D98100"/>
        <path d="M25.65 32.4062H22.8V35.3523H25.65V32.4062Z" fill="#D98100"/>
        <path d="M19.95 41.2441H17.1V44.1901H19.95V41.2441Z" fill="#AF6400"/>
        <path d="M22.8 38.2979H19.95V41.2439H22.8V38.2979Z" fill="#AF6400"/>
        <path d="M25.65 35.3521H22.8V38.2981H25.65V35.3521Z" fill="#AF6400"/>
        <path d="M28.5 14.73H25.65V17.676H28.5V14.73Z" fill="#FFA219"/>
        <path d="M28.5 17.6758H25.65V20.6218H28.5V17.6758Z" fill="#FFBF66"/>
        <path d="M28.5 20.6221H25.65V23.5681H28.5V20.6221Z" fill="#FFA219"/>
        <path d="M28.5 23.5679H25.65V26.5139H28.5V23.5679Z" fill="#FFA219"/>
        <path d="M28.5 26.5142H25.65V29.4602H28.5V26.5142Z" fill="#D98100"/>
        <path d="M28.5 29.46H25.65V32.406H28.5V29.46Z" fill="#D98100"/>
        <path d="M28.5 32.4062H25.65V35.3523H28.5V32.4062Z" fill="#AF6400"/>
        <path d="M28.5 11.7842H25.65V14.7302H28.5V11.7842Z" fill="black"/>
        <path d="M31.35 14.73H28.5V17.676H31.35V14.73Z" fill="white"/>
        <path d="M34.2 17.6758H31.35V20.6218H34.2V17.6758Z" fill="#B7B7B7"/>
        <path d="M37.05 20.6221H34.2V23.5681H37.05V20.6221Z" fill="#A0A0A0"/>
        <path d="M31.35 8.83789H28.5V11.7839H31.35V8.83789Z" fill="black"/>
        <path d="M31.35 11.7842H28.5V14.7302H31.35V11.7842Z" fill="#B7B7B7"/>
        <path d="M34.2 14.73H31.35V17.676H34.2V14.73Z" fill="#B7B7B7"/>
        <path d="M37.05 17.6758H34.2V20.6218H37.05V17.6758Z" fill="#A0A0A0"/>
        <path d="M34.2 11.7842H31.35V14.7302H34.2V11.7842Z" fill="white"/>
        <path d="M37.05 14.73H34.2V17.676H37.05V14.73Z" fill="#B7B7B7"/>
        <path d="M39.9 17.6758H37.05V20.6218H39.9V17.6758Z" fill="#A0A0A0"/>
        <path d="M39.9 20.6221H37.05V23.5681H39.9V20.6221Z" fill="#808080"/>
        <path d="M34.2 5.89209H31.35V8.83809H34.2V5.89209Z" fill="black"/>
        <path d="M34.2 2.9458H31.35V5.8918H34.2V2.9458Z" fill="white"/>
        <path d="M31.35 5.89209H28.5V8.83809H31.35V5.89209Z" fill="white"/>
        <path d="M28.5 8.83789H25.65V11.7839H28.5V8.83789Z" fill="white"/>
        <path d="M25.65 11.7842H22.8V14.7302H25.65V11.7842Z" fill="white"/>
        <path d="M22.8 14.73H19.95V17.676H22.8V14.73Z" fill="white"/>
        <path d="M19.95 17.6758H17.1V20.6218H19.95V17.6758Z" fill="white"/>
        <path d="M17.1 20.6221H14.25V23.5681H17.1V20.6221Z" fill="white"/>
        <path d="M14.25 23.5679H11.4V26.5139H14.25V23.5679Z" fill="white"/>
        <path d="M11.4 26.5142H8.55005V29.4602H11.4V26.5142Z" fill="white"/>
        <path d="M8.54995 29.46H5.69995V32.406H8.54995V29.46Z" fill="white"/>
        <path d="M5.69998 32.4062H2.84998V35.3523H5.69998V32.4062Z" fill="white"/>
        <path d="M19.95 47.1362H17.1V50.0822H19.95V47.1362Z" fill="white"/>
        <path d="M22.8 47.1362H19.95V50.0822H22.8V47.1362Z" fill="white"/>
        <path d="M19.95 50.082H17.1V53.028H19.95V50.082Z" fill="white"/>
        <path d="M22.8 44.1899H19.95V47.1359H22.8V44.1899Z" fill="white"/>
        <path d="M25.65 41.2441H22.8V44.1901H25.65V41.2441Z" fill="white"/>
        <path d="M28.5 38.2979H25.65V41.2439H28.5V38.2979Z" fill="white"/>
        <path d="M31.35 35.3521H28.5V38.2981H31.35V35.3521Z" fill="white"/>
        <path d="M34.2 32.4062H31.35V35.3523H34.2V32.4062Z" fill="white"/>
        <path d="M37.05 29.46H34.2V32.406H37.05V29.46Z" fill="white"/>
        <path d="M39.9 26.5142H37.05V29.4602H39.9V26.5142Z" fill="white"/>
        <path d="M42.75 23.5679H39.9V26.5139H42.75V23.5679Z" fill="white"/>
        <path d="M45.6 20.6221H42.75V23.5681H45.6V20.6221Z" fill="white"/>
        <path d="M48.45 17.6758H45.6V20.6218H48.45V17.6758Z" fill="white"/>
        <path d="M25.65 44.1899H22.8V47.1359H25.65V44.1899Z" fill="white"/>
        <path d="M28.5 41.2441H25.65V44.1901H28.5V41.2441Z" fill="white"/>
        <path d="M31.35 38.2979H28.5V41.2439H31.35V38.2979Z" fill="white"/>
        <path d="M34.2 35.3521H31.35V38.2981H34.2V35.3521Z" fill="white"/>
        <path d="M37.05 32.4062H34.2V35.3523H37.05V32.4062Z" fill="white"/>
        <path d="M39.9 29.46H37.05V32.406H39.9V29.46Z" fill="white"/>
        <path d="M42.75 26.5142H39.9V29.4602H42.75V26.5142Z" fill="white"/>
        <path d="M45.6 23.5679H42.75V26.5139H45.6V23.5679Z" fill="white"/>
        <path d="M48.45 20.6221H45.6V23.5681H48.45V20.6221Z" fill="white"/>
        <path d="M51.3 17.6758H48.45V20.6218H51.3V17.6758Z" fill="white"/>
        <path d="M51.3 14.73H48.45V17.676H51.3V14.73Z" fill="white"/>
        <path d="M51.3 11.7842H48.45V14.7302H51.3V11.7842Z" fill="white"/>
        <path d="M48.45 8.83789H45.6V11.7839H48.45V8.83789Z" fill="white"/>
        <path d="M45.6 5.89209H42.75V8.83809H45.6V5.89209Z" fill="white"/>
        <path d="M42.75 2.9458H39.9V5.8918H42.75V2.9458Z" fill="white"/>
        <path d="M39.9 0H34.2V2.946H39.9V0Z" fill="white"/>
        <path d="M17.1 50.082H0V53.028H17.1V50.082Z" fill="white"/>
        <path d="M2.85 35.3521H0V50.0821H2.85V35.3521Z" fill="white"/>
        <path d="M34.2 8.83789H31.35V11.7839H34.2V8.83789Z" fill="#D62F73"/>
        <path d="M37.05 8.83789H34.2V11.7839H37.05V8.83789Z" fill="#E05080"/>
        <path d="M39.9 8.83789H37.05V11.7839H39.9V8.83789Z" fill="#D62F73"/>
        <path d="M39.9 5.89209H37.05V8.83809H39.9V5.89209Z" fill="#E05080"/>
        <path d="M39.9 11.7842H37.05V14.7302H39.9V11.7842Z" fill="#D62F73"/>
        <path d="M37.05 11.7842H34.2V14.7302H37.05V11.7842Z" fill="#D62F73"/>
        <path d="M37.05 5.89209H34.2V8.83809H37.05V5.89209Z" fill="#D62F73"/>
        <path d="M39.9 14.73H37.05V17.676H39.9V14.73Z" fill="#BD1E55"/>
        <path d="M42.75 8.83789H39.9V11.7839H42.75V8.83789Z" fill="#D62F73"/>
        <path d="M42.75 11.7842H39.9V14.7302H42.75V11.7842Z" fill="#BD1E55"/>
        <path d="M42.75 14.73H39.9V17.676H42.75V14.73Z" fill="#BD1E55"/>
        <path d="M42.75 17.6758H39.9V20.6218H42.75V17.6758Z" fill="#931C3D"/>
        <path d="M19.95 44.1899H17.1V47.1359H19.95V44.1899Z" fill="black"/>
        <path d="M22.8 41.2441H19.95V44.1901H22.8V41.2441Z" fill="black"/>
        <path d="M25.65 38.2979H22.8V41.2439H25.65V38.2979Z" fill="black"/>
        <path d="M28.5 35.3521H25.65V38.2981H28.5V35.3521Z" fill="black"/>
        <path d="M31.35 32.4062H28.5V35.3523H31.35V32.4062Z" fill="black"/>
        <path d="M34.2 29.46H31.35V32.406H34.2V29.46Z" fill="black"/>
        <path d="M31.35 29.46H28.5V32.406H31.35V29.46Z" fill="#AF6400"/>
        <path d="M34.2 26.5142H31.35V29.4602H34.2V26.5142Z" fill="#AF6400"/>
        <path d="M31.35 26.5142H28.5V29.4602H31.35V26.5142Z" fill="#D98100"/>
        <path d="M34.2 23.5679H31.35V26.5139H34.2V23.5679Z" fill="#D98100"/>
        <path d="M31.35 23.5679H28.5V26.5139H31.35V23.5679Z" fill="#D98100"/>
        <path d="M31.35 20.6221H28.5V23.5681H31.35V20.6221Z" fill="#FFA219"/>
        <path d="M31.35 17.6758H28.5V20.6218H31.35V17.6758Z" fill="#FFA219"/>
        <path d="M34.2 20.6221H31.35V23.5681H34.2V20.6221Z" fill="#D98100"/>
        <path d="M37.05 26.5142H34.2V29.4602H37.05V26.5142Z" fill="black"/>
        <path d="M37.05 23.5679H34.2V26.5139H37.05V23.5679Z" fill="#AF6400"/>
        <path d="M39.9 23.5679H37.05V26.5139H39.9V23.5679Z" fill="black"/>
        <path d="M42.75 20.6221H39.9V23.5681H42.75V20.6221Z" fill="black"/>
        <path d="M45.6 17.6758H42.75V20.6218H45.6V17.6758Z" fill="black"/>
        <path d="M45.6 14.73H42.75V17.676H45.6V14.73Z" fill="#931C3D"/>
        <path d="M45.6 11.7842H42.75V14.7302H45.6V11.7842Z" fill="#931C3D"/>
        <path d="M48.45 14.73H45.6V17.676H48.45V14.73Z" fill="black"/>
        <path d="M48.45 11.7842H45.6V14.7302H48.45V11.7842Z" fill="black"/>
        <path d="M45.6 8.83789H42.75V11.7839H45.6V8.83789Z" fill="black"/>
        <path d="M42.75 5.89209H39.9V8.83809H42.75V5.89209Z" fill="black"/>
        <path d="M39.9 2.9458H34.2V5.8918H39.9V2.9458Z" fill="black"/>
        <path d="M17.1 41.2441H14.25V44.1901H17.1V41.2441Z" fill="#D98100"/>
        <path d="M14.25 38.2979H11.4V41.2439H14.25V38.2979Z" fill="#FFA219"/>
        <path d="M11.4 35.3521H8.55005V38.2981H11.4V35.3521Z" fill="#FFBF66"/>
        <path d="M8.54995 35.3521H5.69995V38.2981H8.54995V35.3521Z" fill="#F4A971"/>
        <path d="M17.1 44.1899H14.25V47.1359H17.1V44.1899Z" fill="#AD7246"/>
        <path d="M14.25 41.2441H11.4V44.1901H14.25V41.2441Z" fill="#DE9B64"/>
        <path d="M11.4 38.2979H8.55005V41.2439H11.4V38.2979Z" fill="#F4A971"/>
        <path d="M8.54995 38.2979H5.69995V41.2439H8.54995V38.2979Z" fill="#FFAF78"/>
        <path d="M5.69998 41.2441H2.84998V44.1901H5.69998V41.2441Z" fill="black"/>
        <path d="M14.25 44.1899H11.4V47.1359H14.25V44.1899Z" fill="#DE9B64"/>
        <path d="M11.4 41.2441H8.55005V44.1901H11.4V41.2441Z" fill="#F4A971"/>
        <path d="M8.54995 41.2441H5.69995V44.1901H8.54995V41.2441Z" fill="#F4A971"/>
        <path d="M11.4 44.1899H8.55005V47.1359H11.4V44.1899Z" fill="#DE9B64"/>
        <path d="M17.1 47.1362H14.25V50.0822H17.1V47.1362Z" fill="black"/>
        <path d="M14.25 47.1362H11.4V50.0822H14.25V47.1362Z" fill="black"/>
        <path d="M11.4 47.1362H8.55005V50.0822H11.4V47.1362Z" fill="black"/>
        <path d="M51.3001 29.4629H48.4473V32.4118H51.3001V29.4629Z" fill="#49CE58"/>
        <path d="M54.1514 29.4629H51.2986V32.4118H54.1514V29.4629Z" fill="#39A84A"/>
        <path d="M48.4457 32.4116H45.5929V35.3606H48.4457V32.4116Z" fill="#49CE58"/>
        <path d="M45.593 35.3608H42.7401V38.3098H45.593V35.3608Z" fill="#49CE58"/>
        <path d="M51.3001 32.4028H48.4473V35.3518H51.3001V32.4028Z" fill="#39A84A"/>
        <path d="M48.4457 35.3521H45.5929V38.301H48.4457V35.3521Z" fill="#39A84A"/>
        <path d="M45.593 38.3008H42.7401V41.2497H45.593V38.3008Z" fill="#39A84A"/>
        <path d="M25.6544 38.311H22.8015V41.26H25.6544V38.311Z" fill="#49CE58"/>
        <path d="M22.8015 38.311H19.9486V41.26H22.8015V38.311Z" fill="#39A84A"/>
        <path d="M22.8015 35.3521H19.9486V38.301H22.8015V35.3521Z" fill="#49CE58"/>
        <path d="M19.9515 35.3521H17.0986V38.301H19.9515V35.3521Z" fill="#39A84A"/>
        <path d="M37.0515 47.1401H34.1986V50.0891H37.0515V47.1401Z" fill="#39A84A"/>
        <path d="M34.1972 50.0908H31.3444V53.0398H34.1972V50.0908Z" fill="#39A84A"/>
        <path d="M39.9014 44.1914H37.0486V47.1404H39.9014V44.1914Z" fill="#39A84A"/>
        <path d="M42.7586 41.2603H39.9058V44.2092H42.7586V41.2603Z" fill="#39A84A"/>
        <path d="M42.7558 38.311H39.903V41.26H42.7558V38.311Z" fill="#49CE58"/>
        <path d="M28.5071 41.2603H25.6543V44.2092H28.5071V41.2603Z" fill="#49CE58"/>
        <path d="M39.9029 41.2603H37.05V44.2092H39.9029V41.2603Z" fill="#49CE58"/>
        <path d="M31.3443 44.1914H28.4915V47.1404H31.3443V44.1914Z" fill="#49CE58"/>
        <path d="M25.6544 41.2515H22.8015V44.2004H25.6544V41.2515Z" fill="#39A84A"/>
        <path d="M28.5071 44.2002H25.6543V47.1491H28.5071V44.2002Z" fill="#39A84A"/>
        <path d="M31.3443 47.1328H28.4915V50.0818H31.3443V47.1328Z" fill="#39A84A"/>
        <path d="M37.0501 44.1914H34.1973V47.1404H37.0501V44.1914Z" fill="#49CE58"/>
        <path d="M34.1972 47.1401H31.3444V50.0891H34.1972V47.1401Z" fill="#49CE58"/>
        <path d="M25.6529 47.1436H22.8029V50.0896H25.6529V47.1436Z" fill="white"/>
        <path d="M28.49 47.1362H25.64V50.0822H28.49V47.1362Z" fill="white"/>
        <path d="M28.49 50.082H25.64V53.028H28.49V50.082Z" fill="white"/>
        <path d="M31.34 50.082H28.49V53.028H31.34V50.082Z" fill="white"/>
        <path d="M31.3429 53.0415H28.4929V55.9875H31.3429V53.0415Z" fill="white"/>
        <path d="M34.1957 53.0415H31.3457V55.9875H34.1957V53.0415Z" fill="white"/>
        <path d="M37.0486 53.0415H34.1986V55.9875H37.0486V53.0415Z" fill="white"/>
        <path d="M37.0486 50.0923H34.1986V53.0383H37.0486V50.0923Z" fill="white"/>
        <path d="M39.9 50.0923H37.05V53.0383H39.9V50.0923Z" fill="white"/>
        <path d="M39.9 47.1436H37.05V50.0896H39.9V47.1436Z" fill="white"/>
        <path d="M42.7558 47.1436H39.9058V50.0896H42.7558V47.1436Z" fill="white"/>
        <path d="M42.7558 44.2017H39.9058V47.1477H42.7558V44.2017Z" fill="white"/>
        <path d="M45.6 44.2017H42.75V47.1477H45.6V44.2017Z" fill="white"/>
        <path d="M45.6 41.2617H42.75V44.2077H45.6V41.2617Z" fill="white"/>
        <path d="M48.45 41.2617H45.6V44.2077H48.45V41.2617Z" fill="white"/>
        <path d="M48.45 38.313H45.6V41.259H48.45V38.313Z" fill="white"/>
        <path d="M51.2971 38.313H48.4471V41.259H51.2971V38.313Z" fill="white"/>
        <path d="M51.2971 35.3623H48.4471V38.3083H51.2971V35.3623Z" fill="white"/>
        <path d="M54.15 35.3623H51.3V38.3083H54.15V35.3623Z" fill="white"/>
        <path d="M54.15 32.4136H51.3V35.3596H54.15V32.4136Z" fill="white"/>
        <path d="M57 29.4644H54.15V32.4104H57V29.4644Z" fill="white"/>
        <path d="M54.15 26.5142H51.3V29.4602H54.15V26.5142Z" fill="white"/>
        <path d="M51.3 26.5142H48.45V29.4602H51.3V26.5142Z" fill="white"/>
        <path d="M48.4442 29.46H45.5942V32.406H48.4442V29.46Z" fill="white"/>
        <path d="M45.5915 32.4048H42.7415V35.3508H45.5915V32.4048Z" fill="white"/>
        <path d="M42.75 35.3623H39.9V38.3083H42.75V35.3623Z" fill="white"/>
        <path d="M39.9014 38.3218H37.0514V41.2678H39.9014V38.3218Z" fill="white"/>
        <path d="M37.05 41.2617H34.2V44.2077H37.05V41.2617Z" fill="white"/>
        <path d="M34.2 44.1899H31.35V47.1359H34.2V44.1899Z" fill="white"/>
        <path d="M31.3571 41.2676H28.5071V44.2136H31.3571V41.2676Z" fill="white"/>
    </g>
</svg>
