<svg width="70" height="70" viewBox="0 0 70 70" fill="none" xmlns="http://www.w3.org/2000/svg">
    <path d="M24.8182 19.7271H22.2727V47.7271H24.8182V19.7271Z" fill="#D98100"/>
    <path d="M27.3636 19.7271H24.8181V47.7271H27.3636V19.7271Z" fill="#FFA219"/>
    <path d="M45.1817 19.7271H42.6362V24.818H45.1817V19.7271Z" fill="#D98100"/>
    <path d="M29.909 27.3633H27.3635V32.4542H29.909V27.3633Z" fill="#D98100"/>
    <path d="M32.4546 27.3633H29.9092V32.4542H32.4546V27.3633Z" fill="#FFA219"/>
    <path d="M35 19.7271H32.4546V47.7271H35V19.7271Z" fill="#D98100"/>
    <path d="M37.5455 19.7271H35V47.7271H37.5455V19.7271Z" fill="#FFA219"/>
    <path d="M45.1817 27.3633H42.6362V47.7269H45.1817V27.3633Z" fill="#D98100"/>
    <path d="M47.7273 19.7271H45.1819V24.818H47.7273V19.7271Z" fill="#FFA219"/>
    <path d="M47.7273 27.3633H45.1819V47.7269H47.7273V27.3633Z" fill="#FFA219"/>
    <path d="M19.7271 17.1816H17.1816V19.7271H19.7271V17.1816Z" fill="black"/>
    <path d="M19.7271 14.6362H17.1816V17.1817H19.7271V14.6362Z" fill="white"/>
    <path d="M22.2728 17.1816H19.7273V19.7271H22.2728V17.1816Z" fill="#CCCCCC"/>
    <path d="M24.8182 17.1816H22.2727V19.7271H24.8182V17.1816Z" fill="#E6E6E6"/>
    <path d="M27.3636 17.1816H24.8181V19.7271H27.3636V17.1816Z" fill="#E6E6E6"/>
    <path d="M29.909 17.1816H27.3635V19.7271H29.909V17.1816Z" fill="#F2F2F2"/>
    <path d="M32.4544 17.1816H29.9089V19.7271H32.4544V17.1816Z" fill="#F2F2F2"/>
    <path d="M29.909 19.7271H27.3635V22.2725H29.909V19.7271Z" fill="#F2F2F2"/>
    <path d="M32.4544 19.7271H29.9089V22.2725H32.4544V19.7271Z" fill="white"/>
    <path d="M29.909 22.2725H27.3635V24.8179H29.909V22.2725Z" fill="#F2F2F2"/>
    <path d="M32.4544 22.2725H29.9089V24.8179H32.4544V22.2725Z" fill="white"/>
    <path d="M29.909 24.8179H27.3635V27.3633H29.909V24.8179Z" fill="#F2F2F2"/>
    <path d="M32.4544 24.8179H29.9089V27.3633H32.4544V24.8179Z" fill="#F2F2F2"/>
    <path d="M29.909 32.4546H27.3635V35H29.909V32.4546Z" fill="#F2F2F2"/>
    <path d="M32.4544 32.4546H29.9089V35H32.4544V32.4546Z" fill="white"/>
    <path d="M29.909 35H27.3635V37.5455H29.909V35Z" fill="#F2F2F2"/>
    <path d="M32.4544 35H29.9089V37.5455H32.4544V35Z" fill="white"/>
    <path d="M29.909 37.5454H27.3635V40.0909H29.909V37.5454Z" fill="#F2F2F2"/>
    <path d="M32.4544 37.5454H29.9089V40.0909H32.4544V37.5454Z" fill="white"/>
    <path d="M29.909 40.0894H27.3635V42.6348H29.909V40.0894Z" fill="#F2F2F2"/>
    <path d="M32.4544 40.0894H29.9089V42.6348H32.4544V40.0894Z" fill="white"/>
    <path d="M29.909 42.6348H27.3635V45.1802H29.909V42.6348Z" fill="#F2F2F2"/>
    <path d="M32.4544 42.6348H29.9089V45.1802H32.4544V42.6348Z" fill="#F2F2F2"/>
    <path d="M29.909 45.1807H27.3635V47.7261H29.909V45.1807Z" fill="#E6E6E6"/>
    <path d="M32.4544 45.1807H29.9089V47.7261H32.4544V45.1807Z" fill="#E6E6E6"/>
    <path d="M34.9998 17.1816H32.4543V19.7271H34.9998V17.1816Z" fill="#F2F2F2"/>
    <path d="M37.5455 17.1816H35V19.7271H37.5455V17.1816Z" fill="white"/>
    <path d="M40.0909 17.1816H37.5454V19.7271H40.0909V17.1816Z" fill="white"/>
    <path d="M42.6363 17.1816H40.0908V19.7271H42.6363V17.1816Z" fill="white"/>
    <path d="M42.6363 19.7271H40.0908V22.2725H42.6363V19.7271Z" fill="white"/>
    <path d="M42.6363 22.2725H40.0908V24.8179H42.6363V22.2725Z" fill="white"/>
    <path d="M42.6363 24.8179H40.0908V27.3633H42.6363V24.8179Z" fill="white"/>
    <path d="M42.6363 27.3638H40.0908V29.9092H42.6363V27.3638Z" fill="white"/>
    <path d="M42.6363 29.9092H40.0908V32.4546H42.6363V29.9092Z" fill="white"/>
    <path d="M42.6363 32.4546H40.0908V35H42.6363V32.4546Z" fill="white"/>
    <path d="M42.6363 35H40.0908V37.5455H42.6363V35Z" fill="white"/>
    <path d="M42.6363 37.5454H40.0908V40.0909H42.6363V37.5454Z" fill="white"/>
    <path d="M42.6363 40.0908H40.0908V42.6363H42.6363V40.0908Z" fill="white"/>
    <path d="M42.6363 42.6362H40.0908V45.1817H42.6363V42.6362Z" fill="white"/>
    <path d="M42.6363 45.1816H40.0908V47.7271H42.6363V45.1816Z" fill="#E6E6E6"/>
    <path d="M40.0909 19.7271H37.5454V22.2725H40.0909V19.7271Z" fill="white"/>
    <path d="M40.0909 22.2725H37.5454V24.8179H40.0909V22.2725Z" fill="white"/>
    <path d="M40.0909 24.8179H37.5454V27.3633H40.0909V24.8179Z" fill="white"/>
    <path d="M40.0909 27.3638H37.5454V29.9092H40.0909V27.3638Z" fill="white"/>
    <path d="M40.0909 29.9092H37.5454V32.4546H40.0909V29.9092Z" fill="white"/>
    <path d="M40.0909 32.4546H37.5454V35H40.0909V32.4546Z" fill="white"/>
    <path d="M40.0909 35H37.5454V37.5455H40.0909V35Z" fill="white"/>
    <path d="M40.0909 37.5454H37.5454V40.0909H40.0909V37.5454Z" fill="white"/>
    <path d="M40.0909 40.0908H37.5454V42.6363H40.0909V40.0908Z" fill="white"/>
    <path d="M40.0909 42.6362H37.5454V45.1817H40.0909V42.6362Z" fill="white"/>
    <path d="M40.0909 45.1816H37.5454V47.7271H40.0909V45.1816Z" fill="#E6E6E6"/>
    <path d="M45.1817 17.1816H42.6362V19.7271H45.1817V17.1816Z" fill="white"/>
    <path d="M47.7271 17.1816H45.1816V19.7271H47.7271V17.1816Z" fill="white"/>
    <path d="M50.2728 17.1816H47.7273V19.7271H50.2728V17.1816Z" fill="white"/>
    <path d="M19.7271 19.7271H17.1816V22.2725H19.7271V19.7271Z" fill="#CCCCCC"/>
    <path d="M19.7271 22.2725H17.1816V24.8179H19.7271V22.2725Z" fill="#CCCCCC"/>
    <path d="M19.7271 24.8179H17.1816V27.3633H19.7271V24.8179Z" fill="#CCCCCC"/>
    <path d="M19.7271 27.3638H17.1816V29.9092H19.7271V27.3638Z" fill="#CCCCCC"/>
    <path d="M19.7271 29.9092H17.1816V32.4546H19.7271V29.9092Z" fill="#CCCCCC"/>
    <path d="M19.7271 32.4546H17.1816V35H19.7271V32.4546Z" fill="#CCCCCC"/>
    <path d="M19.7271 35H17.1816V37.5455H19.7271V35Z" fill="#CCCCCC"/>
    <path d="M19.7271 37.5454H17.1816V40.0909H19.7271V37.5454Z" fill="#CCCCCC"/>
    <path d="M19.7271 40.0908H17.1816V42.6363H19.7271V40.0908Z" fill="#CCCCCC"/>
    <path d="M19.7271 42.6362H17.1816V45.1817H19.7271V42.6362Z" fill="#CCCCCC"/>
    <path d="M19.7271 45.1816H17.1816V47.7271H19.7271V45.1816Z" fill="#CCCCCC"/>
    <path d="M22.2728 19.7271H19.7273V22.2725H22.2728V19.7271Z" fill="#E6E6E6"/>
    <path d="M22.2728 22.2725H19.7273V24.8179H22.2728V22.2725Z" fill="#E6E6E6"/>
    <path d="M22.2728 24.8179H19.7273V27.3633H22.2728V24.8179Z" fill="#E6E6E6"/>
    <path d="M22.2728 27.3638H19.7273V29.9092H22.2728V27.3638Z" fill="#E6E6E6"/>
    <path d="M22.2728 29.9092H19.7273V32.4546H22.2728V29.9092Z" fill="#E6E6E6"/>
    <path d="M22.2728 32.4546H19.7273V35H22.2728V32.4546Z" fill="#E6E6E6"/>
    <path d="M22.2728 35H19.7273V37.5455H22.2728V35Z" fill="#E6E6E6"/>
    <path d="M22.2728 37.5454H19.7273V40.0909H22.2728V37.5454Z" fill="#E6E6E6"/>
    <path d="M22.2728 40.0908H19.7273V42.6363H22.2728V40.0908Z" fill="#E6E6E6"/>
    <path d="M22.2728 42.6362H19.7273V45.1817H22.2728V42.6362Z" fill="#E6E6E6"/>
    <path d="M22.2728 45.1816H19.7273V47.7271H22.2728V45.1816Z" fill="#CCCCCC"/>
    <path d="M22.2728 47.7271H19.7273V50.2725H22.2728V47.7271Z" fill="#CCCCCC"/>
    <path d="M24.8182 47.7271H22.2727V50.2725H24.8182V47.7271Z" fill="#CCCCCC"/>
    <path d="M27.3636 47.7271H24.8181V50.2725H27.3636V47.7271Z" fill="#CCCCCC"/>
    <path d="M29.909 47.7271H27.3635V50.2725H29.909V47.7271Z" fill="#CCCCCC"/>
    <path d="M32.4544 47.7271H29.9089V50.2725H32.4544V47.7271Z" fill="#CCCCCC"/>
    <path d="M34.9998 47.7271H32.4543V50.2725H34.9998V47.7271Z" fill="#CCCCCC"/>
    <path d="M37.5455 47.7271H35V50.2725H37.5455V47.7271Z" fill="#CCCCCC"/>
    <path d="M40.0909 47.7271H37.5454V50.2725H40.0909V47.7271Z" fill="#CCCCCC"/>
    <path d="M42.6363 47.7271H40.0908V50.2725H42.6363V47.7271Z" fill="#CCCCCC"/>
    <path d="M45.1817 47.7271H42.6362V50.2725H45.1817V47.7271Z" fill="#CCCCCC"/>
    <path d="M47.7271 47.7271H45.1816V50.2725H47.7271V47.7271Z" fill="#CCCCCC"/>
    <path d="M50.2728 47.7271H47.7273V50.2725H50.2728V47.7271Z" fill="#CCCCCC"/>
    <path d="M52.8182 47.7271H50.2727V50.2725H52.8182V47.7271Z" fill="#CCCCCC"/>
    <path d="M52.8182 45.1816H50.2727V47.7271H52.8182V45.1816Z" fill="#E6E6E6"/>
    <path d="M52.8182 42.6362H50.2727V45.1817H52.8182V42.6362Z" fill="white"/>
    <path d="M52.8182 40.0908H50.2727V42.6363H52.8182V40.0908Z" fill="white"/>
    <path d="M52.8182 37.5454H50.2727V40.0909H52.8182V37.5454Z" fill="white"/>
    <path d="M52.8182 35H50.2727V37.5455H52.8182V35Z" fill="white"/>
    <path d="M52.8182 32.4546H50.2727V35H52.8182V32.4546Z" fill="white"/>
    <path d="M52.8182 29.9092H50.2727V32.4546H52.8182V29.9092Z" fill="white"/>
    <path d="M52.8182 27.3638H50.2727V29.9092H52.8182V27.3638Z" fill="white"/>
    <path d="M52.8182 24.8179H50.2727V27.3633H52.8182V24.8179Z" fill="white"/>
    <path d="M52.8182 22.2725H50.2727V24.8179H52.8182V22.2725Z" fill="white"/>
    <path d="M52.8182 19.7271H50.2727V22.2725H52.8182V19.7271Z" fill="white"/>
    <path d="M50.2728 19.7271H47.7273V22.2725H50.2728V19.7271Z" fill="white"/>
    <path d="M50.2728 22.2725H47.7273V24.8179H50.2728V22.2725Z" fill="white"/>
    <path d="M50.2728 24.8179H47.7273V27.3633H50.2728V24.8179Z" fill="white"/>
    <path d="M47.7271 24.8179H45.1816V27.3633H47.7271V24.8179Z" fill="white"/>
    <path d="M45.1817 24.8179H42.6362V27.3633H45.1817V24.8179Z" fill="white"/>
    <path d="M50.2728 27.3638H47.7273V29.9092H50.2728V27.3638Z" fill="white"/>
    <path d="M50.2728 29.9092H47.7273V32.4546H50.2728V29.9092Z" fill="white"/>
    <path d="M50.2728 32.4546H47.7273V35H50.2728V32.4546Z" fill="white"/>
    <path d="M50.2728 35H47.7273V37.5455H50.2728V35Z" fill="white"/>
    <path d="M50.2728 37.5454H47.7273V40.0909H50.2728V37.5454Z" fill="white"/>
    <path d="M50.2728 40.0908H47.7273V42.6363H50.2728V40.0908Z" fill="white"/>
    <path d="M50.2728 42.6362H47.7273V45.1817H50.2728V42.6362Z" fill="white"/>
    <path d="M50.2728 45.1816H47.7273V47.7271H50.2728V45.1816Z" fill="#E6E6E6"/>
    <path d="M19.7271 50.2725H17.1816V52.8179H19.7271V50.2725Z" fill="white"/>
    <path d="M19.7271 52.8179H17.1816V55.3633H19.7271V52.8179Z" fill="white"/>
    <path d="M55.3636 55.3638H52.8181V57.9092H55.3636V55.3638Z" fill="white"/>
    <path d="M57.909 55.3638H55.3635V57.9092H57.909V55.3638Z" fill="white"/>
    <path d="M52.8182 55.3638H50.2727V57.9092H52.8182V55.3638Z" fill="white"/>
    <path d="M57.909 52.8179H55.3635V55.3633H57.909V52.8179Z" fill="white"/>
    <path d="M57.909 50.2739H55.3635V52.8194H57.909V50.2739Z" fill="white"/>
    <path d="M55.3636 50.2725H52.8181V52.8179H55.3636V50.2725Z" fill="white"/>
    <path d="M55.3636 17.1816H52.8181V19.7271H55.3636V17.1816Z" fill="white"/>
    <path d="M52.8182 14.6362H50.2727V17.1817H52.8182V14.6362Z" fill="white"/>
    <path d="M50.2728 12.0908H19.7273V14.6363H50.2728V12.0908Z" fill="white"/>
    <path d="M57.909 19.7271H55.3635V50.2725H57.909V19.7271Z" fill="white"/>
    <path d="M52.8182 52.8179H19.7273V55.3633H52.8182V52.8179Z" fill="white"/>
    <path d="M17.1817 47.7271H14.6362V50.2725H17.1817V47.7271Z" fill="white"/>
    <path d="M17.1817 50.2739H14.6362V52.8194H17.1817V50.2739Z" fill="white"/>
    <path d="M14.6363 47.7271H12.0908V50.2725H14.6363V47.7271Z" fill="white"/>
    <path d="M17.1817 17.1816H14.6362V19.7271H17.1817V17.1816Z" fill="white"/>
    <path d="M14.6363 19.7271H12.0908V47.7271H14.6363V19.7271Z" fill="white"/>
    <path d="M52.8182 17.1816H50.2727V19.7271H52.8182V17.1816Z" fill="black"/>
    <path d="M19.7271 47.7271H17.1816V50.2725H19.7271V47.7271Z" fill="black"/>
    <path d="M52.8182 50.2725H50.2727V52.8179H52.8182V50.2725Z" fill="black"/>
    <path d="M55.3636 52.8179H52.8181V55.3633H55.3636V52.8179Z" fill="black"/>
    <path d="M50.2728 50.2725H19.7273V52.8179H50.2728V50.2725Z" fill="black"/>
    <path d="M17.1817 19.7271H14.6362V47.7271H17.1817V19.7271Z" fill="black"/>
    <path d="M55.3636 19.7271H52.8181V50.2725H55.3636V19.7271Z" fill="black"/>
    <path d="M50.2728 14.6362H19.7273V17.1817H50.2728V14.6362Z" fill="black"/>
    <path d="M40.0894 42.6362H37.5439V45.1817H40.0894V42.6362Z" fill="#F2F2F2"/>
</svg>
