<svg width="70" height="70" viewBox="0 0 70 70" fill="none" xmlns="http://www.w3.org/2000/svg">
    <g clip-path="url(#clip0_2000_4855)">
        <path d="M14.6365 45.1816H12.0911V47.7271H14.6365V45.1816Z" fill="black"/>
        <path d="M14.6365 42.6362H12.0911V45.1817H14.6365V42.6362Z" fill="white"/>
        <path d="M12.0911 42.6362H9.54565V45.1817H12.0911V42.6362Z" fill="white"/>
        <path d="M12.0911 45.1816H9.54565V47.7271H12.0911V45.1816Z" fill="white"/>
        <path d="M12.0911 47.7271H9.54565V50.2725H12.0911V47.7271Z" fill="white"/>
        <path d="M14.6365 47.7271H12.0911V50.2725H14.6365V47.7271Z" fill="white"/>
        <path d="M65.5455 47.7271H63V50.2725H65.5455V47.7271Z" fill="white"/>
        <path d="M68.0911 47.7271H65.5457V50.2725H68.0911V47.7271Z" fill="white"/>
        <path d="M68.0911 45.1816H65.5457V47.7271H68.0911V45.1816Z" fill="white"/>
        <path d="M68.0911 42.6362H65.5457V45.1817H68.0911V42.6362Z" fill="white"/>
        <path d="M65.5455 42.6362H63V45.1817H65.5455V42.6362Z" fill="white"/>
        <path d="M65.5455 40.0908H63V42.6363H65.5455V40.0908Z" fill="white"/>
        <path d="M63 37.5454H60.4546V40.0909H63V37.5454Z" fill="white"/>
        <path d="M60.4546 35H57.9092V37.5455H60.4546V35Z" fill="white"/>
        <path d="M57.9092 35H55.3638V37.5455H57.9092V35Z" fill="white"/>
        <path d="M57.9092 32.4546H55.3638V35H57.9092V32.4546Z" fill="white"/>
        <path d="M55.3638 29.9087H52.8184V32.4541H55.3638V29.9087Z" fill="white"/>
        <path d="M52.8182 27.3633H50.2727V29.9087H52.8182V27.3633Z" fill="white"/>
        <path d="M50.2728 24.8179H47.7273V27.3633H50.2728V24.8179Z" fill="white"/>
        <path d="M47.7273 22.2725H45.1819V24.8179H47.7273V22.2725Z" fill="white"/>
        <path d="M42.6365 19.7271H40.0911V22.2725H42.6365V19.7271Z" fill="white"/>
        <path d="M45.1819 19.7271H42.6365V22.2725H45.1819V19.7271Z" fill="white"/>
        <path d="M37.5455 17.1816H35V19.7271H37.5455V17.1816Z" fill="white"/>
        <path d="M40.0911 17.1816H37.5457V19.7271H40.0911V17.1816Z" fill="white"/>
        <path d="M32.4546 17.1816H29.9092V19.7271H32.4546V17.1816Z" fill="white"/>
        <path d="M29.9092 19.7271H27.3638V22.2725H29.9092V19.7271Z" fill="white"/>
        <path d="M27.3638 22.2725H24.8184V24.8179H27.3638V22.2725Z" fill="white"/>
        <path d="M24.8182 24.8179H22.2727V27.3633H24.8182V24.8179Z" fill="white"/>
        <path d="M24.8182 27.3633H22.2727V29.9087H24.8182V27.3633Z" fill="white"/>
        <path d="M24.8182 29.9087H22.2727V32.4541H24.8182V29.9087Z" fill="white"/>
        <path d="M7.00004 35H4.45459V37.5455H7.00004V35Z" fill="white"/>
        <path d="M4.45463 37.5454H1.90918V40.0909H4.45463V37.5454Z" fill="white"/>
        <path d="M7.00004 40.0908H4.45459V42.6363H7.00004V40.0908Z" fill="white"/>
        <path d="M9.54545 42.6362H7V45.1817H9.54545V42.6362Z" fill="white"/>
        <path d="M7.00004 42.6362H4.45459V45.1817H7.00004V42.6362Z" fill="white"/>
        <path d="M4.45463 40.0908H1.90918V42.6363H4.45463V40.0908Z" fill="white"/>
        <path d="M4.45463 35H1.90918V37.5455H4.45463V35Z" fill="white"/>
        <path d="M7.00004 32.4546H4.45459V35H7.00004V32.4546Z" fill="white"/>
        <path d="M22.2727 32.4546H7V35H22.2727V32.4546Z" fill="white"/>
        <path d="M35 17.1816H32.4546V19.7271H35V17.1816Z" fill="white"/>
        <path d="M65.5455 50.2725H63V52.8179H65.5455V50.2725Z" fill="white"/>
        <path d="M63.0002 50.2725H12.0911V52.8179H63.0002V50.2725Z" fill="white"/>
        <path d="M17.1819 45.1816H14.6365V47.7271H17.1819V45.1816Z" fill="#71382A"/>
        <path d="M19.7273 45.1816H17.1819V47.7271H19.7273V45.1816Z" fill="#71382A"/>
        <path d="M22.2727 45.1816H19.7273V47.7271H22.2727V45.1816Z" fill="#71382A"/>
        <path d="M24.8182 45.1816H22.2727V47.7271H24.8182V45.1816Z" fill="#71382A"/>
        <path d="M27.3638 45.1816H24.8184V47.7271H27.3638V45.1816Z" fill="#71382A"/>
        <path d="M29.9092 45.1816H27.3638V47.7271H29.9092V45.1816Z" fill="#422019"/>
        <path d="M9.54545 37.5454H7V40.0909H9.54545V37.5454Z" fill="#71382A"/>
        <path d="M12.0911 37.5454H9.54565V40.0909H12.0911V37.5454Z" fill="#71382A"/>
        <path d="M14.6365 37.5454H12.0911V40.0909H14.6365V37.5454Z" fill="#71382A"/>
        <path d="M17.1819 37.5454H14.6365V40.0909H17.1819V37.5454Z" fill="#71382A"/>
        <path d="M19.7273 37.5454H17.1819V40.0909H19.7273V37.5454Z" fill="#71382A"/>
        <path d="M22.2727 37.5454H19.7273V40.0909H22.2727V37.5454Z" fill="#422019"/>
        <path d="M17.1819 40.0908H14.6365V42.6363H17.1819V40.0908Z" fill="#422019"/>
        <path d="M19.7273 40.0908H17.1819V42.6363H19.7273V40.0908Z" fill="#422019"/>
        <path d="M22.2727 40.0908H19.7273V42.6363H22.2727V40.0908Z" fill="#422019"/>
        <path d="M14.6364 40.0908H7V42.6363H14.6364V40.0908Z" fill="black"/>
        <path d="M29.9092 42.6362H14.6365V45.1817H29.9092V42.6362Z" fill="black"/>
        <path d="M65.5455 45.1816H63V47.7271H65.5455V45.1816Z" fill="black"/>
        <path d="M60.4546 37.5454H57.9092V40.0909H60.4546V37.5454Z" fill="black"/>
        <path d="M32.4546 40.0908H29.9092V47.7272H32.4546V40.0908Z" fill="black"/>
        <path d="M35 32.4546H32.4546V40.091H35V32.4546Z" fill="black"/>
        <path d="M55.3638 32.4546H52.8184V35H55.3638V32.4546Z" fill="black"/>
        <path d="M37.5455 29.9087H35V32.4541H37.5455V29.9087Z" fill="black"/>
        <path d="M40.0911 29.9087H37.5457V32.4541H40.0911V29.9087Z" fill="#BD1E55"/>
        <path d="M42.6365 29.9087H40.0911V32.4541H42.6365V29.9087Z" fill="#D62F73"/>
        <path d="M45.1819 29.9087H42.6365V32.4541H45.1819V29.9087Z" fill="#E05080"/>
        <path d="M47.7273 29.9087H45.1819V32.4541H47.7273V29.9087Z" fill="#E05080"/>
        <path d="M40.0911 32.4546H37.5457V35H40.0911V32.4546Z" fill="#D62F73"/>
        <path d="M42.6365 32.4546H40.0911V35H42.6365V32.4546Z" fill="#D62F73"/>
        <path d="M45.1819 32.4546H42.6365V35H45.1819V32.4546Z" fill="#D62F73"/>
        <path d="M47.7273 32.4546H45.1819V35H47.7273V32.4546Z" fill="#D62F73"/>
        <path d="M40.0911 35H37.5457V37.5455H40.0911V35Z" fill="#BD1E55"/>
        <path d="M42.6365 35H40.0911V37.5455H42.6365V35Z" fill="#D62F73"/>
        <path d="M45.1819 35H42.6365V37.5455H45.1819V35Z" fill="#D62F73"/>
        <path d="M47.7273 35H45.1819V37.5455H47.7273V35Z" fill="#D62F73"/>
        <path d="M40.0911 37.5454H37.5457V40.0909H40.0911V37.5454Z" fill="#BD1E55"/>
        <path d="M42.6365 37.5454H40.0911V40.0909H42.6365V37.5454Z" fill="#D62F73"/>
        <path d="M45.1819 37.5454H42.6365V40.0909H45.1819V37.5454Z" fill="#D62F73"/>
        <path d="M47.7273 37.5454H45.1819V40.0909H47.7273V37.5454Z" fill="#D62F73"/>
        <path d="M40.0911 40.0908H37.5457V42.6363H40.0911V40.0908Z" fill="#BD1E55"/>
        <path d="M42.6365 40.0908H40.0911V42.6363H42.6365V40.0908Z" fill="#BD1E55"/>
        <path d="M45.1819 40.0908H42.6365V42.6363H45.1819V40.0908Z" fill="#D62F73"/>
        <path d="M47.7273 40.0908H45.1819V42.6363H47.7273V40.0908Z" fill="#D62F73"/>
        <path d="M40.0911 42.6362H37.5457V45.1817H40.0911V42.6362Z" fill="#931C3D"/>
        <path d="M42.6365 42.6362H40.0911V45.1817H42.6365V42.6362Z" fill="#BD1E55"/>
        <path d="M45.1819 42.6362H42.6365V45.1817H45.1819V42.6362Z" fill="#BD1E55"/>
        <path d="M47.7273 42.6362H45.1819V45.1817H47.7273V42.6362Z" fill="#D62F73"/>
        <path d="M40.0911 45.1816H37.5457V47.7271H40.0911V45.1816Z" fill="#931C3D"/>
        <path d="M37.5455 32.4546H35V35H37.5455V32.4546Z" fill="#BD1E55"/>
        <path d="M32.4546 22.2725H29.9092V24.8179H32.4546V22.2725Z" fill="#E05080"/>
        <path d="M35 22.2725H32.4546V24.8179H35V22.2725Z" fill="#E05080"/>
        <path d="M37.5455 22.2725H35V24.8179H37.5455V22.2725Z" fill="#E05080"/>
        <path d="M40.0911 22.2725H37.5457V24.8179H40.0911V22.2725Z" fill="#E05080"/>
        <path d="M32.4546 24.8179H29.9092V27.3633H32.4546V24.8179Z" fill="#D62F73"/>
        <path d="M35 24.8179H32.4546V27.3633H35V24.8179Z" fill="#D62F73"/>
        <path d="M37.5455 24.8179H35V27.3633H37.5455V24.8179Z" fill="#D62F73"/>
        <path d="M32.4546 27.3633H29.9092V29.9087H32.4546V27.3633Z" fill="#D62F73"/>
        <path d="M35 27.3633H32.4546V29.9087H35V27.3633Z" fill="#D62F73"/>
        <path d="M32.4546 29.9087H29.9092V32.4541H32.4546V29.9087Z" fill="#D62F73"/>
        <path d="M32.4546 32.4546H29.9092V35H32.4546V32.4546Z" fill="#BD1E55"/>
        <path d="M32.4546 35H29.9092V37.5455H32.4546V35Z" fill="#BD1E55"/>
        <path d="M32.4546 37.5454H29.9092V40.0909H32.4546V37.5454Z" fill="#BD1E55"/>
        <path d="M29.9092 24.8179H27.3638V27.3633H29.9092V24.8179Z" fill="#D62F73"/>
        <path d="M29.9092 27.3633H27.3638V29.9087H29.9092V27.3633Z" fill="#D62F73"/>
        <path d="M29.9092 29.9087H27.3638V32.4541H29.9092V29.9087Z" fill="#D62F73"/>
        <path d="M29.9092 32.4546H27.3638V35H29.9092V32.4546Z" fill="#D62F73"/>
        <path d="M29.9092 35H27.3638V37.5455H29.9092V35Z" fill="#D62F73"/>
        <path d="M29.9092 37.5454H27.3638V40.0909H29.9092V37.5454Z" fill="#BD1E55"/>
        <path d="M27.3638 32.4546H24.8184V35H27.3638V32.4546Z" fill="#BD1E55"/>
        <path d="M27.3638 35H24.8184V37.5455H27.3638V35Z" fill="#BD1E55"/>
        <path d="M27.3638 37.5454H24.8184V40.0909H27.3638V37.5454Z" fill="#BD1E55"/>
        <path d="M29.9092 40.0908H27.3638V42.6363H29.9092V40.0908Z" fill="#931C3D"/>
        <path d="M27.3638 40.0908H24.8184V42.6363H27.3638V40.0908Z" fill="#931C3D"/>
        <path d="M35 29.9087H32.4546V32.4541H35V29.9087Z" fill="#BD1E55"/>
        <path d="M37.5455 27.3633H35V29.9087H37.5455V27.3633Z" fill="#BD1E55"/>
        <path d="M40.0911 24.8179H37.5457V27.3633H40.0911V24.8179Z" fill="#D62F73"/>
        <path d="M42.6365 24.8179H40.0911V27.3633H42.6365V24.8179Z" fill="#E05080"/>
        <path d="M45.1819 24.8179H42.6365V27.3633H45.1819V24.8179Z" fill="#E05080"/>
        <path d="M37.5455 35H35V37.5455H37.5455V35Z" fill="#BD1E55"/>
        <path d="M37.5455 37.5454H35V40.0909H37.5455V37.5454Z" fill="#931C3D"/>
        <path d="M37.5455 40.0908H35V42.6363H37.5455V40.0908Z" fill="#931C3D"/>
        <path d="M37.5455 42.6362H35V45.1817H37.5455V42.6362Z" fill="#931C3D"/>
        <path d="M37.5455 45.1816H35V47.7271H37.5455V45.1816Z" fill="#931C3D"/>
        <path d="M35 40.0908H32.4546V42.6363H35V40.0908Z" fill="#931C3D"/>
        <path d="M35 42.6362H32.4546V45.1817H35V42.6362Z" fill="#931C3D"/>
        <path d="M35 45.1816H32.4546V47.7271H35V45.1816Z" fill="#931C3D"/>
        <path d="M42.6365 45.1816H40.0911V47.7271H42.6365V45.1816Z" fill="#931C3D"/>
        <path d="M45.1819 45.1816H42.6365V47.7271H45.1819V45.1816Z" fill="#BD1E55"/>
        <path d="M47.7273 45.1816H45.1819V47.7271H47.7273V45.1816Z" fill="#BD1E55"/>
        <path d="M50.2728 32.4546H47.7273V35H50.2728V32.4546Z" fill="#E05080"/>
        <path d="M52.8182 32.4546H50.2727V35H52.8182V32.4546Z" fill="#E05080"/>
        <path d="M50.2728 35H47.7273V37.5455H50.2728V35Z" fill="#D62F73"/>
        <path d="M52.8182 35H50.2727V37.5455H52.8182V35Z" fill="#E05080"/>
        <path d="M50.2728 37.5454H47.7273V40.0909H50.2728V37.5454Z" fill="#D62F73"/>
        <path d="M52.8182 37.5454H50.2727V40.0909H52.8182V37.5454Z" fill="#D62F73"/>
        <path d="M50.2728 40.0908H47.7273V42.6363H50.2728V40.0908Z" fill="#D62F73"/>
        <path d="M52.8182 40.0908H50.2727V42.6363H52.8182V40.0908Z" fill="#D62F73"/>
        <path d="M50.2728 42.6362H47.7273V45.1817H50.2728V42.6362Z" fill="#D62F73"/>
        <path d="M52.8182 42.6362H50.2727V45.1817H52.8182V42.6362Z" fill="#D62F73"/>
        <path d="M50.2728 45.1816H47.7273V47.7271H50.2728V45.1816Z" fill="#BD1E55"/>
        <path d="M52.8182 45.1816H50.2727V47.7271H52.8182V45.1816Z" fill="#BD1E55"/>
        <path d="M55.3638 37.5454H52.8184V40.0909H55.3638V37.5454Z" fill="#E05080"/>
        <path d="M55.3638 40.0908H52.8184V42.6363H55.3638V40.0908Z" fill="#D62F73"/>
        <path d="M55.3638 42.6362H52.8184V45.1817H55.3638V42.6362Z" fill="#D62F73"/>
        <path d="M55.3638 45.1816H52.8184V47.7271H55.3638V45.1816Z" fill="#BD1E55"/>
        <path d="M57.9092 40.0908H55.3638V42.6363H57.9092V40.0908Z" fill="#E05080"/>
        <path d="M57.9092 42.6362H55.3638V45.1817H57.9092V42.6362Z" fill="#D62F73"/>
        <path d="M57.9092 45.1816H55.3638V47.7271H57.9092V45.1816Z" fill="#BD1E55"/>
        <path d="M60.4546 40.0908H57.9092V42.6363H60.4546V40.0908Z" fill="#E05080"/>
        <path d="M60.4546 42.6362H57.9092V45.1817H60.4546V42.6362Z" fill="#D62F73"/>
        <path d="M60.4546 45.1816H57.9092V47.7271H60.4546V45.1816Z" fill="#BD1E55"/>
        <path d="M63 45.1816H60.4546V47.7271H63V45.1816Z" fill="#BD1E55"/>
        <path d="M52.8182 29.9087H47.7273V32.4541H52.8182V29.9087Z" fill="black"/>
        <path d="M47.7275 27.3633H37.5457V29.9087H47.7275V27.3633Z" fill="black"/>
        <path d="M63 40.0908H60.4546V45.1817H63V40.0908Z" fill="black"/>
        <path d="M63.0001 47.7271H14.6365V50.2725H63.0001V47.7271Z" fill="black"/>
        <path d="M7.00004 37.5454H4.45459V40.0909H7.00004V37.5454Z" fill="black"/>
        <path d="M22.2727 35H7V37.5455H22.2727V35Z" fill="black"/>
        <path d="M57.9092 37.5454H55.3638V40.0909H57.9092V37.5454Z" fill="black"/>
        <path d="M52.8182 29.9087H50.2727V32.4541H52.8182V29.9087Z" fill="black"/>
        <path d="M24.8182 32.4546H22.2727V42.6364H24.8182V32.4546Z" fill="black"/>
        <path d="M27.3638 24.8179H24.8184V32.4542H27.3638V24.8179Z" fill="black"/>
        <path d="M50.2728 27.3633H47.7273V29.9087H50.2728V27.3633Z" fill="black"/>
        <path d="M47.7273 24.8179H45.1819V27.3633H47.7273V24.8179Z" fill="black"/>
        <path d="M29.9092 22.2725H27.3638V24.8179H29.9092V22.2725Z" fill="black"/>
        <path d="M45.182 22.2725H40.0911V24.8179H45.182V22.2725Z" fill="black"/>
        <path d="M40.091 19.7271H29.9092V22.2725H40.091V19.7271Z" fill="black"/>
        <path d="M55.3638 32.4546H52.8184V37.5455H55.3638V32.4546Z" fill="black"/>
    </g>
    <defs>
        <clipPath id="clip0_2000_4855">
            <rect width="66.1818" height="35.6364" fill="white" transform="translate(1.90918 17.1816)"/>
        </clipPath>
    </defs>
</svg>
