<svg width="70" height="70" viewBox="0 0 70 70" fill="none" xmlns="http://www.w3.org/2000/svg">
    <path d="M28.6439 8.27295H26.0959V10.821H28.6439V8.27295Z" fill="white"/>
    <path d="M31.1779 8.27295H28.6299V10.821H31.1779V8.27295Z" fill="white"/>
    <path d="M33.726 8.27295H31.178V10.821H33.726V8.27295Z" fill="white"/>
    <path d="M36.2741 8.27295H33.7261V10.821H36.2741V8.27295Z" fill="white"/>
    <path d="M38.8219 8.27295H36.2739V10.821H38.8219V8.27295Z" fill="white"/>
    <path d="M41.3712 8.27295H38.8232V10.821H41.3712V8.27295Z" fill="white"/>
    <path d="M43.904 8.27295H41.356V10.821H43.904V8.27295Z" fill="white"/>
    <path d="M23.548 10.8208H21V13.3688H23.548V10.8208Z" fill="white"/>
    <path d="M26.0961 10.8208H23.5481V13.3688H26.0961V10.8208Z" fill="white"/>
    <path d="M28.6439 10.8208H26.0959V13.3688H28.6439V10.8208Z" fill="#1A1A1A"/>
    <path d="M31.1779 10.8208H28.6299V13.3688H31.1779V10.8208Z" fill="#1A1A1A"/>
    <path d="M33.726 10.8208H31.178V13.3688H33.726V10.8208Z" fill="#1A1A1A"/>
    <path d="M36.2741 10.8208H33.7261V13.3688H36.2741V10.8208Z" fill="#1A1A1A"/>
    <path d="M38.8219 10.8208H36.2739V13.3688H38.8219V10.8208Z" fill="#1A1A1A"/>
    <path d="M41.3712 10.8208H38.8232V13.3688H41.3712V10.8208Z" fill="#1A1A1A"/>
    <path d="M43.904 10.8208H41.356V13.3688H43.904V10.8208Z" fill="#1A1A1A"/>
    <path d="M46.4521 10.8208H43.9041V13.3688H46.4521V10.8208Z" fill="white"/>
    <path d="M49.0014 10.8208H46.4534V13.3688H49.0014V10.8208Z" fill="white"/>
    <path d="M20.9999 13.3701H18.4519V15.9181H20.9999V13.3701Z" fill="white"/>
    <path d="M23.548 13.3701H21V15.9181H23.548V13.3701Z" fill="#1A1A1A"/>
    <path d="M26.0961 13.3701H23.5481V15.9181H26.0961V13.3701Z" fill="#1A1A1A"/>
    <path d="M28.6439 13.3701H26.0959V15.9181H28.6439V13.3701Z" fill="#D9D9D9"/>
    <path d="M31.1779 13.3701H28.6299V15.9181H31.1779V13.3701Z" fill="#D9D9D9"/>
    <path d="M33.726 13.3701H31.178V15.9181H33.726V13.3701Z" fill="#D9D9D9"/>
    <path d="M36.2741 13.3701H33.7261V15.9181H36.2741V13.3701Z" fill="#D9D9D9"/>
    <path d="M38.8219 13.3701H36.2739V15.9181H38.8219V13.3701Z" fill="#D9D9D9"/>
    <path d="M41.3712 13.3701H38.8232V15.9181H41.3712V13.3701Z" fill="#D9D9D9"/>
    <path d="M43.904 13.3701H41.356V15.9181H43.904V13.3701Z" fill="#D9D9D9"/>
    <path d="M46.4521 13.3701H43.9041V15.9181H46.4521V13.3701Z" fill="#1A1A1A"/>
    <path d="M49.0014 13.3701H46.4534V15.9181H49.0014V13.3701Z" fill="#1A1A1A"/>
    <path d="M51.5492 13.3701H49.0012V15.9181H51.5492V13.3701Z" fill="white"/>
    <path d="M18.4506 15.9028H15.9026V18.4508H18.4506V15.9028Z" fill="white"/>
    <path d="M20.9999 15.9028H18.4519V18.4508H20.9999V15.9028Z" fill="#1A1A1A"/>
    <path d="M23.548 15.9028H21V18.4508H23.548V15.9028Z" fill="#D9D9D9"/>
    <path d="M26.0961 15.9028H23.5481V18.4508H26.0961V15.9028Z" fill="#D9D9D9"/>
    <path d="M28.6439 15.9028H26.0959V18.4508H28.6439V15.9028Z" fill="#49CE58"/>
    <path d="M31.1779 15.9028H28.6299V18.4508H31.1779V15.9028Z" fill="#49CE58"/>
    <path d="M33.726 15.9028H31.178V18.4508H33.726V15.9028Z" fill="#49CE58"/>
    <path d="M36.2741 15.9028H33.7261V18.4508H36.2741V15.9028Z" fill="#49CE58"/>
    <path d="M38.8219 15.9028H36.2739V18.4508H38.8219V15.9028Z" fill="#49CE58"/>
    <path d="M41.3712 15.9028H38.8232V18.4508H41.3712V15.9028Z" fill="#49CE58"/>
    <path d="M43.904 15.9028H41.356V18.4508H43.904V15.9028Z" fill="#49CE58"/>
    <path d="M46.4521 15.9028H43.9041V18.4508H46.4521V15.9028Z" fill="#D9D9D9"/>
    <path d="M49.0014 15.9028H46.4534V18.4508H49.0014V15.9028Z" fill="#D9D9D9"/>
    <path d="M51.5492 15.9028H49.0012V18.4508H51.5492V15.9028Z" fill="#1A1A1A"/>
    <path d="M54.0973 15.9028H51.5493V18.4508H54.0973V15.9028Z" fill="white"/>
    <path d="M15.9179 18.4512H13.3699V20.9992H15.9179V18.4512Z" fill="white"/>
    <path d="M18.4506 18.4512H15.9026V20.9992H18.4506V18.4512Z" fill="#1A1A1A"/>
    <path d="M20.9999 18.4512H18.4519V20.9992H20.9999V18.4512Z" fill="#BFBFBF"/>
    <path d="M23.548 18.4512H21V20.9992H23.548V18.4512Z" fill="#49CE58"/>
    <path d="M26.0961 18.4512H23.5481V20.9992H26.0961V18.4512Z" fill="#49CE58"/>
    <path d="M28.6439 18.4512H26.0959V20.9992H28.6439V18.4512Z" fill="#39A84A"/>
    <path d="M31.1779 18.4512H28.6299V20.9992H31.1779V18.4512Z" fill="#39A84A"/>
    <path d="M33.726 18.4512H31.178V20.9992H33.726V18.4512Z" fill="#39A84A"/>
    <path d="M36.2741 18.4512H33.7261V20.9992H36.2741V18.4512Z" fill="#39A84A"/>
    <path d="M38.8219 18.4512H36.2739V20.9992H38.8219V18.4512Z" fill="#39A84A"/>
    <path d="M41.3712 18.4512H38.8232V20.9992H41.3712V18.4512Z" fill="#39A84A"/>
    <path d="M43.904 18.4512H41.356V20.9992H43.904V18.4512Z" fill="#39A84A"/>
    <path d="M46.4521 18.4512H43.9041V20.9992H46.4521V18.4512Z" fill="#49CE58"/>
    <path d="M49.0014 18.4512H46.4534V20.9992H49.0014V18.4512Z" fill="#49CE58"/>
    <path d="M51.5492 18.4512H49.0012V20.9992H51.5492V18.4512Z" fill="#D9D9D9"/>
    <path d="M54.0973 18.4512H51.5493V20.9992H54.0973V18.4512Z" fill="#1A1A1A"/>
    <path d="M56.63 18.4512H54.082V20.9992H56.63V18.4512Z" fill="white"/>
    <path d="M13.3688 21H10.8208V23.548H13.3688V21Z" fill="white"/>
    <path d="M15.9179 21H13.3699V23.548H15.9179V21Z" fill="#1A1A1A"/>
    <path d="M18.4506 21H15.9026V23.548H18.4506V21Z" fill="#BFBFBF"/>
    <path d="M20.9999 21H18.4519V23.548H20.9999V21Z" fill="#49CE58"/>
    <path d="M23.548 21H21V23.548H23.548V21Z" fill="#39A84A"/>
    <path d="M26.0961 21H23.5481V23.548H26.0961V21Z" fill="#39A84A"/>
    <path d="M28.6439 21H26.0959V23.548H28.6439V21Z" fill="#39A84A"/>
    <path d="M31.1779 21H28.6299V23.548H31.1779V21Z" fill="#39A84A"/>
    <path d="M33.726 21H31.178V23.548H33.726V21Z" fill="#39A84A"/>
    <path d="M36.2741 21H33.7261V23.548H36.2741V21Z" fill="#39A84A"/>
    <path d="M38.8219 21H36.2739V23.548H38.8219V21Z" fill="#39A84A"/>
    <path d="M41.3712 21H38.8232V23.548H41.3712V21Z" fill="#39A84A"/>
    <path d="M43.904 21H41.356V23.548H43.904V21Z" fill="#39A84A"/>
    <path d="M46.4521 21H43.9041V23.548H46.4521V21Z" fill="#39A84A"/>
    <path d="M49.0014 21H46.4534V23.548H49.0014V21Z" fill="#39A84A"/>
    <path d="M51.5492 21H49.0012V23.548H51.5492V21Z" fill="#49CE58"/>
    <path d="M54.0973 21H51.5493V23.548H54.0973V21Z" fill="#D9D9D9"/>
    <path d="M56.63 21H54.082V23.548H56.63V21Z" fill="#1A1A1A"/>
    <path d="M59.1794 21H56.6313V23.548H59.1794V21Z" fill="white"/>
    <path d="M13.3688 23.5483H10.8208V26.0963H13.3688V23.5483Z" fill="white"/>
    <path d="M15.9179 23.5483H13.3699V26.0963H15.9179V23.5483Z" fill="#1A1A1A"/>
    <path d="M18.4506 23.5483H15.9026V26.0963H18.4506V23.5483Z" fill="#BFBFBF"/>
    <path d="M20.9999 23.5483H18.4519V26.0963H20.9999V23.5483Z" fill="#49CE58"/>
    <path d="M23.548 23.5483H21V26.0963H23.548V23.5483Z" fill="#39A84A"/>
    <path d="M26.0961 23.5483H23.5481V26.0963H26.0961V23.5483Z" fill="#39A84A"/>
    <path d="M28.6439 23.5483H26.0959V26.0963H28.6439V23.5483Z" fill="#39A84A"/>
    <path d="M31.1779 23.5483H28.6299V26.0963H31.1779V23.5483Z" fill="#39A84A"/>
    <path d="M33.726 23.5483H31.178V26.0963H33.726V23.5483Z" fill="#39A84A"/>
    <path d="M36.2741 23.5483H33.7261V26.0963H36.2741V23.5483Z" fill="#39A84A"/>
    <path d="M38.8219 23.5483H36.2739V26.0963H38.8219V23.5483Z" fill="#39A84A"/>
    <path d="M41.3712 23.5483H38.8232V26.0963H41.3712V23.5483Z" fill="#39A84A"/>
    <path d="M43.904 23.5483H41.356V26.0963H43.904V23.5483Z" fill="#39A84A"/>
    <path d="M46.4521 23.5483H43.9041V26.0963H46.4521V23.5483Z" fill="#39A84A"/>
    <path d="M49.0014 23.5483H46.4534V26.0963H49.0014V23.5483Z" fill="#39A84A"/>
    <path d="M51.5492 23.5483H49.0012V26.0963H51.5492V23.5483Z" fill="#49CE58"/>
    <path d="M54.0973 23.5483H51.5493V26.0963H54.0973V23.5483Z" fill="#D9D9D9"/>
    <path d="M56.63 23.5483H54.082V26.0963H56.63V23.5483Z" fill="#1A1A1A"/>
    <path d="M59.1794 23.5483H56.6313V26.0963H59.1794V23.5483Z" fill="white"/>
    <path d="M10.8207 26.0962H8.27271V28.6442H10.8207V26.0962Z" fill="white"/>
    <path d="M13.3688 26.0962H10.8208V28.6442H13.3688V26.0962Z" fill="#1A1A1A"/>
    <path d="M15.9179 26.0962H13.3699V28.6442H15.9179V26.0962Z" fill="#BFBFBF"/>
    <path d="M18.4506 26.0962H15.9026V28.6442H18.4506V26.0962Z" fill="#266B2E"/>
    <path d="M20.9999 26.0962H18.4519V28.6442H20.9999V26.0962Z" fill="#39A84A"/>
    <path d="M23.548 26.0962H21V28.6442H23.548V26.0962Z" fill="#39A84A"/>
    <path d="M26.0961 26.0962H23.5481V28.6442H26.0961V26.0962Z" fill="#39A84A"/>
    <path d="M28.6439 26.0962H26.0959V28.6442H28.6439V26.0962Z" fill="#39A84A"/>
    <path d="M31.1779 26.0962H28.6299V28.6442H31.1779V26.0962Z" fill="#39A84A"/>
    <path d="M33.726 26.0962H31.178V28.6442H33.726V26.0962Z" fill="#39A84A"/>
    <path d="M36.2741 26.0962H33.7261V28.6442H36.2741V26.0962Z" fill="#39A84A"/>
    <path d="M38.8219 26.0962H36.2739V28.6442H38.8219V26.0962Z" fill="#39A84A"/>
    <path d="M41.3712 26.0962H38.8232V28.6442H41.3712V26.0962Z" fill="#39A84A"/>
    <path d="M43.904 26.0962H41.356V28.6442H43.904V26.0962Z" fill="#39A84A"/>
    <path d="M46.4521 26.0962H43.9041V28.6442H46.4521V26.0962Z" fill="#39A84A"/>
    <path d="M49.0014 26.0962H46.4534V28.6442H49.0014V26.0962Z" fill="#39A84A"/>
    <path d="M51.5492 26.0962H49.0012V28.6442H51.5492V26.0962Z" fill="#39A84A"/>
    <path d="M54.0973 26.0962H51.5493V28.6442H54.0973V26.0962Z" fill="#49CE58"/>
    <path d="M56.63 26.0962H54.082V28.6442H56.63V26.0962Z" fill="#D9D9D9"/>
    <path d="M59.1794 26.0962H56.6313V28.6442H59.1794V26.0962Z" fill="#1A1A1A"/>
    <path d="M61.7272 26.0962H59.1792V28.6442H61.7272V26.0962Z" fill="white"/>
    <path d="M10.8207 28.6289H8.27271V31.1769H10.8207V28.6289Z" fill="white"/>
    <path d="M13.3688 28.6289H10.8208V31.1769H13.3688V28.6289Z" fill="#1A1A1A"/>
    <path d="M15.9179 28.6289H13.3699V31.1769H15.9179V28.6289Z" fill="#BFBFBF"/>
    <path d="M18.4506 28.6289H15.9026V31.1769H18.4506V28.6289Z" fill="#266B2E"/>
    <path d="M20.9999 28.6289H18.4519V31.1769H20.9999V28.6289Z" fill="#39A84A"/>
    <path d="M23.548 28.6289H21V31.1769H23.548V28.6289Z" fill="#39A84A"/>
    <path d="M26.0961 28.6289H23.5481V31.1769H26.0961V28.6289Z" fill="#39A84A"/>
    <path d="M28.6439 28.6289H26.0959V31.1769H28.6439V28.6289Z" fill="#39A84A"/>
    <path d="M31.1779 28.6289H28.6299V31.1769H31.1779V28.6289Z" fill="#39A84A"/>
    <path d="M33.726 28.6289H31.178V31.1769H33.726V28.6289Z" fill="#39A84A"/>
    <path d="M36.2741 28.6289H33.7261V31.1769H36.2741V28.6289Z" fill="#39A84A"/>
    <path d="M38.8219 28.6289H36.2739V31.1769H38.8219V28.6289Z" fill="#39A84A"/>
    <path d="M41.3712 28.6289H38.8232V31.1769H41.3712V28.6289Z" fill="#39A84A"/>
    <path d="M43.904 28.6289H41.356V31.1769H43.904V28.6289Z" fill="#39A84A"/>
    <path d="M46.4521 28.6289H43.9041V31.1769H46.4521V28.6289Z" fill="#39A84A"/>
    <path d="M49.0014 28.6289H46.4534V31.1769H49.0014V28.6289Z" fill="#39A84A"/>
    <path d="M51.5492 28.6289H49.0012V31.1769H51.5492V28.6289Z" fill="#39A84A"/>
    <path d="M54.0973 28.6289H51.5493V31.1769H54.0973V28.6289Z" fill="#49CE58"/>
    <path d="M56.63 28.6289H54.082V31.1769H56.63V28.6289Z" fill="#D9D9D9"/>
    <path d="M59.1794 28.6289H56.6313V31.1769H59.1794V28.6289Z" fill="#1A1A1A"/>
    <path d="M61.7272 28.6289H59.1792V31.1769H61.7272V28.6289Z" fill="white"/>
    <path d="M10.8207 31.1782H8.27271V33.7262H10.8207V31.1782Z" fill="white"/>
    <path d="M13.3688 31.1782H10.8208V33.7262H13.3688V31.1782Z" fill="#1A1A1A"/>
    <path d="M15.9179 31.1782H13.3699V33.7262H15.9179V31.1782Z" fill="#BFBFBF"/>
    <path d="M18.4506 31.1782H15.9026V33.7262H18.4506V31.1782Z" fill="#266B2E"/>
    <path d="M20.9999 31.1782H18.4519V33.7262H20.9999V31.1782Z" fill="#39A84A"/>
    <path d="M23.548 31.1782H21V33.7262H23.548V31.1782Z" fill="#39A84A"/>
    <path d="M26.0961 31.1782H23.5481V33.7262H26.0961V31.1782Z" fill="#39A84A"/>
    <path d="M28.6439 31.1782H26.0959V33.7262H28.6439V31.1782Z" fill="#39A84A"/>
    <path d="M31.1779 31.1782H28.6299V33.7262H31.1779V31.1782Z" fill="#39A84A"/>
    <path d="M33.726 31.1782H31.178V33.7262H33.726V31.1782Z" fill="#39A84A"/>
    <path d="M36.2741 31.1782H33.7261V33.7262H36.2741V31.1782Z" fill="#39A84A"/>
    <path d="M38.8219 31.1782H36.2739V33.7262H38.8219V31.1782Z" fill="#39A84A"/>
    <path d="M41.3712 31.1782H38.8232V33.7262H41.3712V31.1782Z" fill="#39A84A"/>
    <path d="M43.904 31.1782H41.356V33.7262H43.904V31.1782Z" fill="#39A84A"/>
    <path d="M46.4521 31.1782H43.9041V33.7262H46.4521V31.1782Z" fill="#39A84A"/>
    <path d="M49.0014 31.1782H46.4534V33.7262H49.0014V31.1782Z" fill="#39A84A"/>
    <path d="M51.5492 31.1782H49.0012V33.7262H51.5492V31.1782Z" fill="#39A84A"/>
    <path d="M54.0973 31.1782H51.5493V33.7262H54.0973V31.1782Z" fill="#49CE58"/>
    <path d="M56.63 31.1782H54.082V33.7262H56.63V31.1782Z" fill="#D9D9D9"/>
    <path d="M59.1794 31.1782H56.6313V33.7262H59.1794V31.1782Z" fill="#1A1A1A"/>
    <path d="M61.7272 31.1782H59.1792V33.7262H61.7272V31.1782Z" fill="white"/>
    <path d="M10.8207 33.7261H8.27271V36.2741H10.8207V33.7261Z" fill="white"/>
    <path d="M13.3688 33.7261H10.8208V36.2741H13.3688V33.7261Z" fill="#1A1A1A"/>
    <path d="M15.9179 33.7261H13.3699V36.2741H15.9179V33.7261Z" fill="#BFBFBF"/>
    <path d="M18.4506 33.7261H15.9026V36.2741H18.4506V33.7261Z" fill="#266B2E"/>
    <path d="M20.9999 33.7261H18.4519V36.2741H20.9999V33.7261Z" fill="#39A84A"/>
    <path d="M23.548 33.7261H21V36.2741H23.548V33.7261Z" fill="#39A84A"/>
    <path d="M26.0961 33.7261H23.5481V36.2741H26.0961V33.7261Z" fill="#39A84A"/>
    <path d="M28.6439 33.7261H26.0959V36.2741H28.6439V33.7261Z" fill="#39A84A"/>
    <path d="M31.1779 33.7261H28.6299V36.2741H31.1779V33.7261Z" fill="#39A84A"/>
    <path d="M33.726 33.7261H31.178V36.2741H33.726V33.7261Z" fill="#39A84A"/>
    <path d="M36.2741 33.7261H33.7261V36.2741H36.2741V33.7261Z" fill="#39A84A"/>
    <path d="M38.8219 33.7261H36.2739V36.2741H38.8219V33.7261Z" fill="#39A84A"/>
    <path d="M41.3712 33.7261H38.8232V36.2741H41.3712V33.7261Z" fill="#39A84A"/>
    <path d="M43.904 33.7261H41.356V36.2741H43.904V33.7261Z" fill="#39A84A"/>
    <path d="M46.4521 33.7261H43.9041V36.2741H46.4521V33.7261Z" fill="#39A84A"/>
    <path d="M49.0014 33.7261H46.4534V36.2741H49.0014V33.7261Z" fill="#39A84A"/>
    <path d="M51.5492 33.7261H49.0012V36.2741H51.5492V33.7261Z" fill="#39A84A"/>
    <path d="M54.0973 33.7261H51.5493V36.2741H54.0973V33.7261Z" fill="#49CE58"/>
    <path d="M56.63 33.7261H54.082V36.2741H56.63V33.7261Z" fill="#D9D9D9"/>
    <path d="M59.1794 33.7261H56.6313V36.2741H59.1794V33.7261Z" fill="#1A1A1A"/>
    <path d="M61.7272 33.7261H59.1792V36.2741H61.7272V33.7261Z" fill="white"/>
    <path d="M10.8207 36.2744H8.27271V38.8224H10.8207V36.2744Z" fill="white"/>
    <path d="M13.3688 36.2744H10.8208V38.8224H13.3688V36.2744Z" fill="#1A1A1A"/>
    <path d="M15.9179 36.2744H13.3699V38.8224H15.9179V36.2744Z" fill="#BFBFBF"/>
    <path d="M18.4506 36.2744H15.9026V38.8224H18.4506V36.2744Z" fill="#266B2E"/>
    <path d="M20.9999 36.2744H18.4519V38.8224H20.9999V36.2744Z" fill="#39A84A"/>
    <path d="M23.548 36.2744H21V38.8224H23.548V36.2744Z" fill="#39A84A"/>
    <path d="M26.0961 36.2744H23.5481V38.8224H26.0961V36.2744Z" fill="#39A84A"/>
    <path d="M28.6439 36.2744H26.0959V38.8224H28.6439V36.2744Z" fill="#39A84A"/>
    <path d="M31.1779 36.2744H28.6299V38.8224H31.1779V36.2744Z" fill="#39A84A"/>
    <path d="M33.726 36.2744H31.178V38.8224H33.726V36.2744Z" fill="#39A84A"/>
    <path d="M36.2741 36.2744H33.7261V38.8224H36.2741V36.2744Z" fill="#39A84A"/>
    <path d="M38.8219 36.2744H36.2739V38.8224H38.8219V36.2744Z" fill="#39A84A"/>
    <path d="M41.3712 36.2744H38.8232V38.8224H41.3712V36.2744Z" fill="#39A84A"/>
    <path d="M43.904 36.2744H41.356V38.8224H43.904V36.2744Z" fill="#39A84A"/>
    <path d="M46.4521 36.2744H43.9041V38.8224H46.4521V36.2744Z" fill="#39A84A"/>
    <path d="M49.0014 36.2744H46.4534V38.8224H49.0014V36.2744Z" fill="#39A84A"/>
    <path d="M51.5492 36.2744H49.0012V38.8224H51.5492V36.2744Z" fill="#39A84A"/>
    <path d="M54.0973 36.2744H51.5493V38.8224H54.0973V36.2744Z" fill="#49CE58"/>
    <path d="M56.63 36.2744H54.082V38.8224H56.63V36.2744Z" fill="#D9D9D9"/>
    <path d="M59.1794 36.2744H56.6313V38.8224H59.1794V36.2744Z" fill="#1A1A1A"/>
    <path d="M61.7272 36.2744H59.1792V38.8224H61.7272V36.2744Z" fill="white"/>
    <path d="M10.8207 38.8237H8.27271V41.3717H10.8207V38.8237Z" fill="white"/>
    <path d="M13.3688 38.8237H10.8208V41.3717H13.3688V38.8237Z" fill="#1A1A1A"/>
    <path d="M15.9179 38.8237H13.3699V41.3717H15.9179V38.8237Z" fill="#BFBFBF"/>
    <path d="M18.4506 38.8237H15.9026V41.3717H18.4506V38.8237Z" fill="#266B2E"/>
    <path d="M20.9999 38.8237H18.4519V41.3717H20.9999V38.8237Z" fill="#39A84A"/>
    <path d="M23.548 38.8237H21V41.3717H23.548V38.8237Z" fill="#39A84A"/>
    <path d="M26.0961 38.8237H23.5481V41.3717H26.0961V38.8237Z" fill="#39A84A"/>
    <path d="M28.6439 38.8237H26.0959V41.3717H28.6439V38.8237Z" fill="#39A84A"/>
    <path d="M31.1779 38.8237H28.6299V41.3717H31.1779V38.8237Z" fill="#39A84A"/>
    <path d="M33.726 38.8237H31.178V41.3717H33.726V38.8237Z" fill="#39A84A"/>
    <path d="M36.2741 38.8237H33.7261V41.3717H36.2741V38.8237Z" fill="#39A84A"/>
    <path d="M38.8219 38.8237H36.2739V41.3717H38.8219V38.8237Z" fill="#39A84A"/>
    <path d="M41.3712 38.8237H38.8232V41.3717H41.3712V38.8237Z" fill="#39A84A"/>
    <path d="M43.904 38.8237H41.356V41.3717H43.904V38.8237Z" fill="#39A84A"/>
    <path d="M46.4521 38.8237H43.9041V41.3717H46.4521V38.8237Z" fill="#39A84A"/>
    <path d="M49.0014 38.8237H46.4534V41.3717H49.0014V38.8237Z" fill="#39A84A"/>
    <path d="M51.5492 38.8237H49.0012V41.3717H51.5492V38.8237Z" fill="#39A84A"/>
    <path d="M54.0973 38.8237H51.5493V41.3717H54.0973V38.8237Z" fill="#49CE58"/>
    <path d="M56.63 38.8237H54.082V41.3717H56.63V38.8237Z" fill="#D9D9D9"/>
    <path d="M59.1794 38.8237H56.6313V41.3717H59.1794V38.8237Z" fill="#1A1A1A"/>
    <path d="M61.7272 38.8237H59.1792V41.3717H61.7272V38.8237Z" fill="white"/>
    <path d="M10.8207 41.3564H8.27271V43.9044H10.8207V41.3564Z" fill="white"/>
    <path d="M13.3688 41.3564H10.8208V43.9044H13.3688V41.3564Z" fill="#1A1A1A"/>
    <path d="M15.9179 41.3564H13.3699V43.9044H15.9179V41.3564Z" fill="#BFBFBF"/>
    <path d="M18.4506 41.3564H15.9026V43.9044H18.4506V41.3564Z" fill="#266B2E"/>
    <path d="M20.9999 41.3564H18.4519V43.9044H20.9999V41.3564Z" fill="#39A84A"/>
    <path d="M23.548 41.3564H21V43.9044H23.548V41.3564Z" fill="#39A84A"/>
    <path d="M26.0961 41.3564H23.5481V43.9044H26.0961V41.3564Z" fill="#39A84A"/>
    <path d="M28.6439 41.3564H26.0959V43.9044H28.6439V41.3564Z" fill="#39A84A"/>
    <path d="M31.1779 41.3564H28.6299V43.9044H31.1779V41.3564Z" fill="#39A84A"/>
    <path d="M33.726 41.3564H31.178V43.9044H33.726V41.3564Z" fill="#39A84A"/>
    <path d="M36.2741 41.3564H33.7261V43.9044H36.2741V41.3564Z" fill="#39A84A"/>
    <path d="M38.8219 41.3564H36.2739V43.9044H38.8219V41.3564Z" fill="#39A84A"/>
    <path d="M41.3712 41.3564H38.8232V43.9044H41.3712V41.3564Z" fill="#39A84A"/>
    <path d="M43.904 41.3564H41.356V43.9044H43.904V41.3564Z" fill="#39A84A"/>
    <path d="M46.4521 41.3564H43.9041V43.9044H46.4521V41.3564Z" fill="#39A84A"/>
    <path d="M49.0014 41.3564H46.4534V43.9044H49.0014V41.3564Z" fill="#39A84A"/>
    <path d="M51.5492 41.3564H49.0012V43.9044H51.5492V41.3564Z" fill="#39A84A"/>
    <path d="M54.0973 41.3564H51.5493V43.9044H54.0973V41.3564Z" fill="#49CE58"/>
    <path d="M56.63 41.3564H54.082V43.9044H56.63V41.3564Z" fill="#D9D9D9"/>
    <path d="M59.1794 41.3564H56.6313V43.9044H59.1794V41.3564Z" fill="#1A1A1A"/>
    <path d="M61.7272 41.3564H59.1792V43.9044H61.7272V41.3564Z" fill="white"/>
    <path d="M13.3688 43.9043H10.8208V46.4523H13.3688V43.9043Z" fill="white"/>
    <path d="M15.9179 43.9043H13.3699V46.4523H15.9179V43.9043Z" fill="#1A1A1A"/>
    <path d="M18.4506 43.9043H15.9026V46.4523H18.4506V43.9043Z" fill="#BFBFBF"/>
    <path d="M20.9999 43.9043H18.4519V46.4523H20.9999V43.9043Z" fill="#266B2E"/>
    <path d="M23.548 43.9043H21V46.4523H23.548V43.9043Z" fill="#39A84A"/>
    <path d="M26.0961 43.9043H23.5481V46.4523H26.0961V43.9043Z" fill="#39A84A"/>
    <path d="M28.6439 43.9043H26.0959V46.4523H28.6439V43.9043Z" fill="#39A84A"/>
    <path d="M31.1779 43.9043H28.6299V46.4523H31.1779V43.9043Z" fill="#39A84A"/>
    <path d="M33.726 43.9043H31.178V46.4523H33.726V43.9043Z" fill="#39A84A"/>
    <path d="M36.2741 43.9043H33.7261V46.4523H36.2741V43.9043Z" fill="#39A84A"/>
    <path d="M38.8219 43.9043H36.2739V46.4523H38.8219V43.9043Z" fill="#39A84A"/>
    <path d="M41.3712 43.9043H38.8232V46.4523H41.3712V43.9043Z" fill="#39A84A"/>
    <path d="M43.904 43.9043H41.356V46.4523H43.904V43.9043Z" fill="#39A84A"/>
    <path d="M46.4521 43.9043H43.9041V46.4523H46.4521V43.9043Z" fill="#39A84A"/>
    <path d="M49.0014 43.9043H46.4534V46.4523H49.0014V43.9043Z" fill="#39A84A"/>
    <path d="M51.5492 43.9043H49.0012V46.4523H51.5492V43.9043Z" fill="#39A84A"/>
    <path d="M54.0973 43.9043H51.5493V46.4523H54.0973V43.9043Z" fill="#D9D9D9"/>
    <path d="M56.63 43.9043H54.082V46.4523H56.63V43.9043Z" fill="#1A1A1A"/>
    <path d="M59.1794 43.9043H56.6313V46.4523H59.1794V43.9043Z" fill="white"/>
    <path d="M13.3688 46.4521H10.8208V49.0001H13.3688V46.4521Z" fill="white"/>
    <path d="M15.9179 46.4521H13.3699V49.0001H15.9179V46.4521Z" fill="#1A1A1A"/>
    <path d="M18.4506 46.4521H15.9026V49.0001H18.4506V46.4521Z" fill="#BFBFBF"/>
    <path d="M20.9999 46.4521H18.4519V49.0001H20.9999V46.4521Z" fill="#266B2E"/>
    <path d="M23.548 46.4521H21V49.0001H23.548V46.4521Z" fill="#39A84A"/>
    <path d="M26.0961 46.4521H23.5481V49.0001H26.0961V46.4521Z" fill="#39A84A"/>
    <path d="M28.6439 46.4521H26.0959V49.0001H28.6439V46.4521Z" fill="#39A84A"/>
    <path d="M31.1779 46.4521H28.6299V49.0001H31.1779V46.4521Z" fill="#39A84A"/>
    <path d="M33.726 46.4521H31.178V49.0001H33.726V46.4521Z" fill="#39A84A"/>
    <path d="M36.2741 46.4521H33.7261V49.0001H36.2741V46.4521Z" fill="#39A84A"/>
    <path d="M38.8219 46.4521H36.2739V49.0001H38.8219V46.4521Z" fill="#39A84A"/>
    <path d="M41.3712 46.4521H38.8232V49.0001H41.3712V46.4521Z" fill="#39A84A"/>
    <path d="M43.904 46.4521H41.356V49.0001H43.904V46.4521Z" fill="#39A84A"/>
    <path d="M46.4521 46.4521H43.9041V49.0001H46.4521V46.4521Z" fill="#39A84A"/>
    <path d="M49.0014 46.4521H46.4534V49.0001H49.0014V46.4521Z" fill="#39A84A"/>
    <path d="M51.5492 46.4521H49.0012V49.0001H51.5492V46.4521Z" fill="#39A84A"/>
    <path d="M54.0973 46.4521H51.5493V49.0001H54.0973V46.4521Z" fill="#D9D9D9"/>
    <path d="M56.63 46.4521H54.082V49.0001H56.63V46.4521Z" fill="#1A1A1A"/>
    <path d="M59.1794 46.4521H56.6313V49.0001H59.1794V46.4521Z" fill="white"/>
    <path d="M13.3688 49.0015H10.8208V51.5495H13.3688V49.0015Z" fill="white"/>
    <path d="M15.9179 49.0015H13.3699V51.5495H15.9179V49.0015Z" fill="white"/>
    <path d="M18.4506 49.0015H15.9026V51.5495H18.4506V49.0015Z" fill="#1A1A1A"/>
    <path d="M20.9999 49.0015H18.4519V51.5495H20.9999V49.0015Z" fill="#BFBFBF"/>
    <path d="M23.548 49.0015H21V51.5495H23.548V49.0015Z" fill="#266B2E"/>
    <path d="M26.0961 49.0015H23.5481V51.5495H26.0961V49.0015Z" fill="#266B2E"/>
    <path d="M28.6439 49.0015H26.0959V51.5495H28.6439V49.0015Z" fill="#39A84A"/>
    <path d="M31.1779 49.0015H28.6299V51.5495H31.1779V49.0015Z" fill="#39A84A"/>
    <path d="M33.726 49.0015H31.178V51.5495H33.726V49.0015Z" fill="#39A84A"/>
    <path d="M36.2741 49.0015H33.7261V51.5495H36.2741V49.0015Z" fill="#39A84A"/>
    <path d="M38.8219 49.0015H36.2739V51.5495H38.8219V49.0015Z" fill="#39A84A"/>
    <path d="M41.3712 49.0015H38.8232V51.5495H41.3712V49.0015Z" fill="#39A84A"/>
    <path d="M43.904 49.0015H41.356V51.5495H43.904V49.0015Z" fill="#39A84A"/>
    <path d="M46.4521 49.0015H43.9041V51.5495H46.4521V49.0015Z" fill="#39A84A"/>
    <path d="M49.0014 49.0015H46.4534V51.5495H49.0014V49.0015Z" fill="#39A84A"/>
    <path d="M51.5492 49.0015H49.0012V51.5495H51.5492V49.0015Z" fill="#D9D9D9"/>
    <path d="M54.0973 49.0015H51.5493V51.5495H54.0973V49.0015Z" fill="#1A1A1A"/>
    <path d="M56.63 49.0015H54.082V51.5495H56.63V49.0015Z" fill="white"/>
    <path d="M59.1794 49.0015H56.6313V51.5495H59.1794V49.0015Z" fill="white"/>
    <path d="M15.9179 51.5493H13.3699V54.0973H15.9179V51.5493Z" fill="white"/>
    <path d="M18.4506 51.5493H15.9026V54.0973H18.4506V51.5493Z" fill="white"/>
    <path d="M20.9999 51.5493H18.4519V54.0973H20.9999V51.5493Z" fill="#1A1A1A"/>
    <path d="M23.548 51.5493H21V54.0973H23.548V51.5493Z" fill="#BFBFBF"/>
    <path d="M26.0961 51.5493H23.5481V54.0973H26.0961V51.5493Z" fill="#BFBFBF"/>
    <path d="M28.6439 51.5493H26.0959V54.0973H28.6439V51.5493Z" fill="#266B2E"/>
    <path d="M31.1779 51.5493H28.6299V54.0973H31.1779V51.5493Z" fill="#266B2E"/>
    <path d="M33.726 51.5493H31.178V54.0973H33.726V51.5493Z" fill="#266B2E"/>
    <path d="M36.2741 51.5493H33.7261V54.0973H36.2741V51.5493Z" fill="#266B2E"/>
    <path d="M38.8219 51.5493H36.2739V54.0973H38.8219V51.5493Z" fill="#266B2E"/>
    <path d="M41.3712 51.5493H38.8232V54.0973H41.3712V51.5493Z" fill="#266B2E"/>
    <path d="M43.904 51.5493H41.356V54.0973H43.904V51.5493Z" fill="#266B2E"/>
    <path d="M46.4521 51.5493H43.9041V54.0973H46.4521V51.5493Z" fill="#D9D9D9"/>
    <path d="M49.0014 51.5493H46.4534V54.0973H49.0014V51.5493Z" fill="#D9D9D9"/>
    <path d="M51.5492 51.5493H49.0012V54.0973H51.5492V51.5493Z" fill="#1A1A1A"/>
    <path d="M54.0973 51.5493H51.5493V54.0973H54.0973V51.5493Z" fill="white"/>
    <path d="M56.63 51.5493H54.082V54.0973H56.63V51.5493Z" fill="white"/>
    <path d="M18.4506 54.0835H15.9026V56.6315H18.4506V54.0835Z" fill="white"/>
    <path d="M20.9999 54.0835H18.4519V56.6315H20.9999V54.0835Z" fill="white"/>
    <path d="M23.548 54.0835H21V56.6315H23.548V54.0835Z" fill="#1A1A1A"/>
    <path d="M26.0961 54.0835H23.5481V56.6315H26.0961V54.0835Z" fill="#1A1A1A"/>
    <path d="M28.6439 54.0835H26.0959V56.6315H28.6439V54.0835Z" fill="#BFBFBF"/>
    <path d="M31.1779 54.0835H28.6299V56.6315H31.1779V54.0835Z" fill="#BFBFBF"/>
    <path d="M33.726 54.0835H31.178V56.6315H33.726V54.0835Z" fill="#BFBFBF"/>
    <path d="M36.2741 54.0835H33.7261V56.6315H36.2741V54.0835Z" fill="#BFBFBF"/>
    <path d="M38.8219 54.0835H36.2739V56.6315H38.8219V54.0835Z" fill="#BFBFBF"/>
    <path d="M41.3712 54.0835H38.8232V56.6315H41.3712V54.0835Z" fill="#BFBFBF"/>
    <path d="M43.904 54.0835H41.356V56.6315H43.904V54.0835Z" fill="#BFBFBF"/>
    <path d="M46.4521 54.0835H43.9041V56.6315H46.4521V54.0835Z" fill="#1A1A1A"/>
    <path d="M49.0014 54.0835H46.4534V56.6315H49.0014V54.0835Z" fill="#1A1A1A"/>
    <path d="M51.5492 54.0835H49.0012V56.6315H51.5492V54.0835Z" fill="white"/>
    <path d="M54.0973 54.0835H51.5493V56.6315H54.0973V54.0835Z" fill="white"/>
    <path d="M20.9999 56.6313H18.4519V59.1794H20.9999V56.6313Z" fill="white"/>
    <path d="M23.548 56.6313H21V59.1794H23.548V56.6313Z" fill="white"/>
    <path d="M26.0961 56.6313H23.5481V59.1794H26.0961V56.6313Z" fill="white"/>
    <path d="M28.6439 56.6313H26.0959V59.1794H28.6439V56.6313Z" fill="#1A1A1A"/>
    <path d="M31.1779 56.6313H28.6299V59.1794H31.1779V56.6313Z" fill="#1A1A1A"/>
    <path d="M33.726 56.6313H31.178V59.1794H33.726V56.6313Z" fill="#1A1A1A"/>
    <path d="M36.2741 56.6313H33.7261V59.1794H36.2741V56.6313Z" fill="#1A1A1A"/>
    <path d="M38.8219 56.6313H36.2739V59.1794H38.8219V56.6313Z" fill="#1A1A1A"/>
    <path d="M41.3712 56.6313H38.8232V59.1794H41.3712V56.6313Z" fill="#1A1A1A"/>
    <path d="M43.904 56.6313H41.356V59.1794H43.904V56.6313Z" fill="#1A1A1A"/>
    <path d="M46.4521 56.6313H43.9041V59.1794H46.4521V56.6313Z" fill="white"/>
    <path d="M49.0014 56.6313H46.4534V59.1794H49.0014V56.6313Z" fill="white"/>
    <path d="M51.5492 56.6313H49.0012V59.1794H51.5492V56.6313Z" fill="white"/>
    <path d="M26.0961 59.1797H23.5481V61.7277H26.0961V59.1797Z" fill="white"/>
    <path d="M28.6439 59.1797H26.0959V61.7277H28.6439V59.1797Z" fill="white"/>
    <path d="M31.1779 59.1797H28.6299V61.7277H31.1779V59.1797Z" fill="white"/>
    <path d="M33.726 59.1797H31.178V61.7277H33.726V59.1797Z" fill="white"/>
    <path d="M36.2741 59.1797H33.7261V61.7277H36.2741V59.1797Z" fill="white"/>
    <path d="M38.8219 59.1797H36.2739V61.7277H38.8219V59.1797Z" fill="white"/>
    <path d="M41.3712 59.1797H38.8232V61.7277H41.3712V59.1797Z" fill="white"/>
    <path d="M43.904 59.1797H41.356V61.7277H43.904V59.1797Z" fill="white"/>
    <path d="M46.4521 59.1797H43.9041V61.7277H46.4521V59.1797Z" fill="white"/>
    <path d="M48.9999 26.0884H46.4519V28.6364H48.9999V26.0884Z" fill="white"/>
    <path d="M51.5468 26.0884H48.9988V28.6364H51.5468V26.0884Z" fill="white"/>
    <path d="M46.4506 28.6367H43.9026V31.1847H46.4506V28.6367Z" fill="white"/>
    <path d="M43.9027 31.186H41.3547V33.734H43.9027V31.186Z" fill="white"/>
    <path d="M48.9999 28.6289H46.4519V31.1769H48.9999V28.6289Z" fill="white"/>
    <path d="M46.4506 31.1782H43.9026V33.7262H46.4506V31.1782Z" fill="white"/>
    <path d="M43.9027 33.7261H41.3547V36.2741H43.9027V33.7261Z" fill="white"/>
    <path d="M26.0946 33.7339H23.5466V36.2819H26.0946V33.7339Z" fill="white"/>
    <path d="M23.5468 33.7339H20.9988V36.2819H23.5468V33.7339Z" fill="white"/>
    <path d="M23.5468 31.1782H20.9988V33.7262H23.5468V31.1782Z" fill="white"/>
    <path d="M21.0014 31.1782H18.4534V33.7262H21.0014V31.1782Z" fill="white"/>
    <path d="M36.2741 41.3638H33.7261V43.9118H36.2741V41.3638Z" fill="white"/>
    <path d="M33.7248 43.9116H31.1768V46.4596H33.7248V43.9116Z" fill="white"/>
    <path d="M38.8195 38.8159H36.2715V41.3639H38.8195V38.8159Z" fill="white"/>
    <path d="M41.3712 36.2817H38.8232V38.8297H41.3712V36.2817Z" fill="white"/>
    <path d="M41.3688 33.7339H38.8208V36.2819H41.3688V33.7339Z" fill="white"/>
    <path d="M28.6427 36.2817H26.0947V38.8297H28.6427V36.2817Z" fill="white"/>
    <path d="M38.8207 36.2817H36.2727V38.8297H38.8207V36.2817Z" fill="white"/>
    <path d="M31.1767 38.8159H28.6287V41.3639H31.1767V38.8159Z" fill="white"/>
    <path d="M26.0946 36.2754H23.5466V38.8234H26.0946V36.2754Z" fill="white"/>
    <path d="M28.6427 38.8237H26.0947V41.3717H28.6427V38.8237Z" fill="white"/>
    <path d="M31.1767 41.3564H28.6287V43.9044H31.1767V41.3564Z" fill="white"/>
    <path d="M36.2726 38.8159H33.7246V41.3639H36.2726V38.8159Z" fill="white"/>
    <path d="M33.7248 41.3638H31.1768V43.9118H33.7248V41.3638Z" fill="white"/>
</svg>
