<svg width="70" height="70" viewBox="0 0 70 70" fill="none" xmlns="http://www.w3.org/2000/svg">
    <path d="M17.1817 43.9092H14.6362V46.4546H17.1817V43.9092Z" fill="black"/>
    <path d="M19.7271 43.9092H17.1816V46.4546H19.7271V43.9092Z" fill="#E0E3EC"/>
    <path d="M22.2728 43.9092H19.7273V46.4546H22.2728V43.9092Z" fill="#E0E3EC"/>
    <path d="M24.8182 43.9092H22.2727V46.4546H24.8182V43.9092Z" fill="#CCCFE0"/>
    <path d="M27.3636 43.9092H24.8181V46.4546H27.3636V43.9092Z" fill="#CCCFE0"/>
    <path d="M29.909 43.9092H27.3635V46.4546H29.909V43.9092Z" fill="#CCCFE0"/>
    <path d="M32.4544 43.9092H29.9089V46.4546H32.4544V43.9092Z" fill="#DEE2ED"/>
    <path d="M34.9998 43.9092H32.4543V46.4546H34.9998V43.9092Z" fill="#DEE2ED"/>
    <path d="M37.5455 43.9092H35V46.4546H37.5455V43.9092Z" fill="#DEE2ED"/>
    <path d="M40.0909 43.9092H37.5454V46.4546H40.0909V43.9092Z" fill="#F1F2F4"/>
    <path d="M42.6363 43.9092H40.0908V46.4546H42.6363V43.9092Z" fill="#F1F2F4"/>
    <path d="M45.1817 43.9092H42.6362V46.4546H45.1817V43.9092Z" fill="#F1F2F4"/>
    <path d="M47.7271 43.9092H45.1816V46.4546H47.7271V43.9092Z" fill="#F1F2F4"/>
    <path d="M50.2728 43.9092H47.7273V46.4546H50.2728V43.9092Z" fill="#DFE1ED"/>
    <path d="M52.8182 43.9092H50.2727V46.4546H52.8182V43.9092Z" fill="#DFE1ED"/>
    <path d="M17.1817 41.3633H14.6362V43.9087H17.1817V41.3633Z" fill="black"/>
    <path d="M55.3636 43.9092H52.8181V46.4546H55.3636V43.9092Z" fill="black"/>
    <path d="M52.8182 36.2725H50.2727V41.3634H52.8182V36.2725Z" fill="black"/>
    <path d="M19.7271 36.2725H17.1816V41.3634H19.7271V36.2725Z" fill="black"/>
    <path d="M22.2728 31.1816H19.7273V36.2726H22.2728V31.1816Z" fill="black"/>
    <path d="M50.2728 31.1816H47.7273V36.2726H50.2728V31.1816Z" fill="black"/>
    <path d="M55.3635 41.3633H17.1816V43.9087H55.3635V41.3633Z" fill="black"/>
    <path d="M19.7271 46.4541H17.1816V48.9996H19.7271V46.4541Z" fill="black"/>
    <path d="M22.2728 46.4541H19.7273V48.9996H22.2728V46.4541Z" fill="black"/>
    <path d="M50.2728 46.4541H47.7273V48.9996H50.2728V46.4541Z" fill="black"/>
    <path d="M52.8182 46.4541H50.2727V48.9996H52.8182V46.4541Z" fill="black"/>
    <path d="M47.7271 28.6357H45.1816V31.1812H47.7271V28.6357Z" fill="black"/>
    <path d="M24.8182 28.6357H22.2727V31.1812H24.8182V28.6357Z" fill="black"/>
    <path d="M40.0909 21H37.5454V23.5455H40.0909V21Z" fill="black"/>
    <path d="M42.6363 18.4541H40.0908V20.9996H42.6363V18.4541Z" fill="black"/>
    <path d="M42.6363 15.9092H40.0908V18.4546H42.6363V15.9092Z" fill="black"/>
    <path d="M40.0908 15.9092H29.8975V18.4546H40.0908V15.9092Z" fill="black"/>
    <path d="M42.6248 13.3633H27.3635V15.9087H42.6248V13.3633Z" fill="white"/>
    <path d="M29.909 18.4541H27.3635V20.9996H29.909V18.4541Z" fill="black"/>
    <path d="M32.4544 18.4541H29.9089V20.9996H32.4544V18.4541Z" fill="#B2C0CD"/>
    <path d="M34.9998 18.4541H32.4543V20.9996H34.9998V18.4541Z" fill="#CAD1DB"/>
    <path d="M37.5455 18.4541H35V20.9996H37.5455V18.4541Z" fill="#CAD1DB"/>
    <path d="M34.9998 21H32.4543V23.5455H34.9998V21Z" fill="#B2C0CD"/>
    <path d="M37.5455 21H35V23.5455H37.5455V21Z" fill="#B2C0CD"/>
    <path d="M34.9998 23.5449H32.4543V26.0904H34.9998V23.5449Z" fill="#DDE4EC"/>
    <path d="M37.5455 23.5449H35V26.0904H37.5455V23.5449Z" fill="#DDE4EC"/>
    <path d="M34.9998 26.0908H32.4543V28.6363H34.9998V26.0908Z" fill="#B2BDD1"/>
    <path d="M37.5455 26.0908H35V28.6363H37.5455V26.0908Z" fill="#C9CFDF"/>
    <path d="M34.9998 28.6357H32.4543V31.1812H34.9998V28.6357Z" fill="#B2BDD1"/>
    <path d="M37.5455 28.6357H35V31.1812H37.5455V28.6357Z" fill="#C9CFDF"/>
    <path d="M34.9998 31.1816H32.4543V33.7271H34.9998V31.1816Z" fill="#C9CFDF"/>
    <path d="M37.5455 31.1816H35V33.7271H37.5455V31.1816Z" fill="#C9CFDF"/>
    <path d="M34.9998 33.7266H32.4543V36.272H34.9998V33.7266Z" fill="#C9CFDF"/>
    <path d="M37.5455 33.7266H35V36.272H37.5455V33.7266Z" fill="#C9CFDF"/>
    <path d="M34.9998 36.2725H32.4543V38.8179H34.9998V36.2725Z" fill="#C9CFDF"/>
    <path d="M37.5455 36.2725H35V38.8179H37.5455V36.2725Z" fill="#F1F2F7"/>
    <path d="M34.9998 38.8174H32.4543V41.3628H34.9998V38.8174Z" fill="#C9CFDF"/>
    <path d="M37.5455 38.8174H35V41.3628H37.5455V38.8174Z" fill="#F1F2F7"/>
    <path d="M40.0909 26.0908H37.5454V28.6363H40.0909V26.0908Z" fill="#F1F2F7"/>
    <path d="M40.0909 28.6357H37.5454V31.1812H40.0909V28.6357Z" fill="#F1F2F7"/>
    <path d="M40.0909 31.1816H37.5454V33.7271H40.0909V31.1816Z" fill="#F1F2F7"/>
    <path d="M40.0909 33.7266H37.5454V36.272H40.0909V33.7266Z" fill="#F1F2F7"/>
    <path d="M40.0909 36.2725H37.5454V38.8179H40.0909V36.2725Z" fill="#F1F2F7"/>
    <path d="M40.0909 38.8174H37.5454V41.3628H40.0909V38.8174Z" fill="#F1F2F7"/>
    <path d="M42.6363 26.0908H40.0908V28.6363H42.6363V26.0908Z" fill="#CED0DD"/>
    <path d="M42.6363 28.6357H40.0908V31.1812H42.6363V28.6357Z" fill="#DDE4EE"/>
    <path d="M42.6363 31.1816H40.0908V33.7271H42.6363V31.1816Z" fill="#F1F2F7"/>
    <path d="M42.6363 33.7266H40.0908V36.272H42.6363V33.7266Z" fill="#F1F2F7"/>
    <path d="M42.6363 36.2725H40.0908V38.8179H42.6363V36.2725Z" fill="#F1F2F7"/>
    <path d="M42.6363 38.8174H40.0908V41.3628H42.6363V38.8174Z" fill="#F1F2F7"/>
    <path d="M45.1817 28.6357H42.6362V31.1812H45.1817V28.6357Z" fill="#CED0DD"/>
    <path d="M45.1817 31.1816H42.6362V33.7271H45.1817V31.1816Z" fill="#DDE4EE"/>
    <path d="M45.1817 33.7266H42.6362V36.272H45.1817V33.7266Z" fill="#DDE4EE"/>
    <path d="M45.1817 36.2725H42.6362V38.8179H45.1817V36.2725Z" fill="#F1F2F7"/>
    <path d="M45.1817 38.8174H42.6362V41.3628H45.1817V38.8174Z" fill="#F1F2F7"/>
    <path d="M47.7271 31.1816H45.1816V33.7271H47.7271V31.1816Z" fill="#CED0DD"/>
    <path d="M47.7271 33.7266H45.1816V36.272H47.7271V33.7266Z" fill="#CED0DD"/>
    <path d="M47.7271 36.2725H45.1816V38.8179H47.7271V36.2725Z" fill="#DDE4EE"/>
    <path d="M47.7271 38.8174H45.1816V41.3628H47.7271V38.8174Z" fill="#DDE4EE"/>
    <path d="M50.2728 36.2725H47.7273V38.8179H50.2728V36.2725Z" fill="#CED0DD"/>
    <path d="M50.2728 38.8174H47.7273V41.3628H50.2728V38.8174Z" fill="#CED0DD"/>
    <path d="M22.2728 36.2725H19.7273V38.8179H22.2728V36.2725Z" fill="#F1F2F4"/>
    <path d="M22.2728 38.8174H19.7273V41.3628H22.2728V38.8174Z" fill="#F1F2F4"/>
    <path d="M24.8182 36.2725H22.2727V38.8179H24.8182V36.2725Z" fill="#CAD0DE"/>
    <path d="M24.8182 38.8174H22.2727V41.3628H24.8182V38.8174Z" fill="#CAD0DE"/>
    <path d="M27.3636 36.2725H24.8181V38.8179H27.3636V36.2725Z" fill="#B2BDD1"/>
    <path d="M27.3636 38.8174H24.8181V41.3628H27.3636V38.8174Z" fill="#B2BDD1"/>
    <path d="M29.909 36.2725H27.3635V38.8179H29.909V36.2725Z" fill="#B2BDD1"/>
    <path d="M29.909 38.8174H27.3635V41.3628H29.909V38.8174Z" fill="#B2BDD1"/>
    <path d="M32.4544 36.2725H29.9089V38.8179H32.4544V36.2725Z" fill="#C9CFDF"/>
    <path d="M24.8182 33.7266H22.2727V36.272H24.8182V33.7266Z" fill="#F1F2F4"/>
    <path d="M27.3636 33.7266H24.8181V36.272H27.3636V33.7266Z" fill="#CAD0DE"/>
    <path d="M29.909 33.7266H27.3635V36.272H29.909V33.7266Z" fill="#B2BDD1"/>
    <path d="M32.4544 33.7266H29.9089V36.272H32.4544V33.7266Z" fill="#B2BDD1"/>
    <path d="M24.8182 31.1816H22.2727V33.7271H24.8182V31.1816Z" fill="#F1F2F4"/>
    <path d="M27.3636 31.1816H24.8181V33.7271H27.3636V31.1816Z" fill="#CAD0DE"/>
    <path d="M29.909 31.1816H27.3635V33.7271H29.909V31.1816Z" fill="#B2BDD1"/>
    <path d="M32.4544 31.1816H29.9089V33.7271H32.4544V31.1816Z" fill="#B2BDD1"/>
    <path d="M27.3636 28.6357H24.8181V31.1812H27.3636V28.6357Z" fill="#F1F2F4"/>
    <path d="M29.909 28.6357H27.3635V31.1812H29.909V28.6357Z" fill="#CAD0DE"/>
    <path d="M32.4544 28.6357H29.9089V31.1812H32.4544V28.6357Z" fill="#B2BDD1"/>
    <path d="M29.909 26.0908H27.3635V28.6363H29.909V26.0908Z" fill="#F1F2F4"/>
    <path d="M32.4544 26.0908H29.9089V28.6363H32.4544V26.0908Z" fill="#B2BDD1"/>
    <path d="M32.4544 38.8174H29.9089V41.3628H32.4544V38.8174Z" fill="#C9CFDF"/>
    <path d="M40.0909 18.4541H37.5454V20.9996H40.0909V18.4541Z" fill="#EFF2F7"/>
    <path d="M29.909 15.9092H27.3635V18.4546H29.909V15.9092Z" fill="black"/>
    <path d="M32.4544 21H29.9089V23.5455H32.4544V21Z" fill="black"/>
    <path d="M29.909 21H27.3635V23.5455H29.909V21Z" fill="white"/>
    <path d="M42.6363 21H40.0908V23.5455H42.6363V21Z" fill="white"/>
    <path d="M27.3636 23.5449H24.8181V26.0904H27.3636V23.5449Z" fill="white"/>
    <path d="M27.3636 15.9092H24.8181V21.0001H27.3636V15.9092Z" fill="white"/>
    <path d="M45.1817 15.9092H42.6362V21.0001H45.1817V15.9092Z" fill="white"/>
    <path d="M45.1817 23.5449H42.6362V26.0904H45.1817V23.5449Z" fill="white"/>
    <path d="M24.8182 26.0908H22.2727V28.6363H24.8182V26.0908Z" fill="white"/>
    <path d="M47.7271 26.0908H45.1816V28.6363H47.7271V26.0908Z" fill="white"/>
    <path d="M22.2728 28.6357H19.7273V31.1812H22.2728V28.6357Z" fill="white"/>
    <path d="M17.1817 46.4541H14.6362V48.9996H17.1817V46.4541Z" fill="white"/>
    <path d="M17.1817 49H14.6362V51.5455H17.1817V49Z" fill="white"/>
    <path d="M14.6363 46.4541H12.0908V48.9996H14.6363V46.4541Z" fill="white"/>
    <path d="M14.6363 38.8174H12.0908V41.3628H14.6363V38.8174Z" fill="white"/>
    <path d="M24.8182 51.5449H22.2727V54.0904H24.8182V51.5449Z" fill="white"/>
    <path d="M24.8182 54.0908H22.2727V56.6363H24.8182V54.0908Z" fill="white"/>
    <path d="M22.2728 51.5449H19.7273V54.0904H22.2728V51.5449Z" fill="white"/>
    <path d="M47.7271 51.5449H45.1816V54.0904H47.7271V51.5449Z" fill="white"/>
    <path d="M50.2728 51.5449H47.7273V54.0904H50.2728V51.5449Z" fill="white"/>
    <path d="M47.7271 54.0908H45.1816V56.6363H47.7271V54.0908Z" fill="white"/>
    <path d="M55.3636 46.4541H52.8181V48.9996H55.3636V46.4541Z" fill="white"/>
    <path d="M57.909 46.4541H55.3635V48.9996H57.909V46.4541Z" fill="white"/>
    <path d="M57.909 38.8174H55.3635V41.3628H57.909V38.8174Z" fill="white"/>
    <path d="M55.3636 49H52.8181V51.5455H55.3636V49Z" fill="white"/>
    <path d="M52.8182 49H47.7273V51.5455H52.8182V49Z" fill="white"/>
    <path d="M45.1818 54.0908H24.8181V56.6363H45.1818V54.0908Z" fill="white"/>
    <path d="M22.2726 49H17.1816V51.5455H22.2726V49Z" fill="white"/>
    <path d="M50.2728 28.6357H47.7273V31.1812H50.2728V28.6357Z" fill="white"/>
    <path d="M19.7271 31.1816H17.1816V36.2726H19.7271V31.1816Z" fill="white"/>
    <path d="M17.1817 36.2725H14.6362V41.3634H17.1817V36.2725Z" fill="white"/>
    <path d="M14.6363 41.3633H12.0908V46.4542H14.6363V41.3633Z" fill="white"/>
    <path d="M57.909 41.3633H55.3635V46.4542H57.909V41.3633Z" fill="white"/>
    <path d="M55.3636 36.2725H52.8181V41.3634H55.3636V36.2725Z" fill="white"/>
    <path d="M52.8182 31.1816H50.2727V36.2726H52.8182V31.1816Z" fill="white"/>
    <path d="M27.3636 26.0908H24.8181V28.6363H27.3636V26.0908Z" fill="black"/>
    <path d="M32.4545 23.5449H27.3865V26.0904H32.4545V23.5449Z" fill="black"/>
    <path d="M45.1817 26.0908H42.6362V28.6363H45.1817V26.0908Z" fill="black"/>
    <path d="M42.6134 23.5449H37.5454V26.0904H42.6134V23.5449Z" fill="black"/>
    <path d="M24.8182 49H22.2727V51.5455H24.8182V49Z" fill="black"/>
    <path d="M24.8182 46.4541H22.2727V48.9996H24.8182V46.4541Z" fill="#44546E"/>
    <path d="M27.3636 49H24.8181V51.5455H27.3636V49Z" fill="#B5BED0"/>
    <path d="M27.3636 46.4541H24.8181V48.9996H27.3636V46.4541Z" fill="#44546E"/>
    <path d="M29.909 49H27.3635V51.5455H29.909V49Z" fill="#B5BED0"/>
    <path d="M29.909 46.4541H27.3635V48.9996H29.909V46.4541Z" fill="#44546E"/>
    <path d="M32.4544 49H29.9089V51.5455H32.4544V49Z" fill="#99A8BF"/>
    <path d="M32.4544 46.4541H29.9089V48.9996H32.4544V46.4541Z" fill="#44546E"/>
    <path d="M34.9998 49H32.4543V51.5455H34.9998V49Z" fill="#99A8BF"/>
    <path d="M34.9998 46.4541H32.4543V48.9996H34.9998V46.4541Z" fill="#44546E"/>
    <path d="M37.5455 49H35V51.5455H37.5455V49Z" fill="#99A8BF"/>
    <path d="M37.5455 46.4541H35V48.9996H37.5455V46.4541Z" fill="#44546E"/>
    <path d="M40.0909 49H37.5454V51.5455H40.0909V49Z" fill="#CAD0DE"/>
    <path d="M40.0909 46.4541H37.5454V48.9996H40.0909V46.4541Z" fill="#44546E"/>
    <path d="M42.6363 49H40.0908V51.5455H42.6363V49Z" fill="#CAD0DE"/>
    <path d="M42.6363 46.4541H40.0908V48.9996H42.6363V46.4541Z" fill="#44546E"/>
    <path d="M45.1817 49H42.6362V51.5455H45.1817V49Z" fill="#98A8BF"/>
    <path d="M45.1817 46.4541H42.6362V48.9996H45.1817V46.4541Z" fill="#44546E"/>
    <path d="M47.7271 46.4541H45.1816V48.9996H47.7271V46.4541Z" fill="#44546E"/>
    <path d="M47.7271 49H45.1816V51.5455H47.7271V49Z" fill="black"/>
    <path d="M45.1818 51.5449H24.8181V54.0904H45.1818V51.5449Z" fill="black"/>
</svg>
