<svg width="70" height="70" viewBox="0 0 70 70" fill="none" xmlns="http://www.w3.org/2000/svg">
    <g clip-path="url(#clip0_2000_15186)">
        <path d="M52.8182 55.3638H50.2727V57.9092H52.8182V55.3638Z" fill="#2986FF"/>
        <path d="M14.6365 52.8184H12.0911V55.3638H14.6365V52.8184Z" fill="black"/>
        <path d="M14.6365 55.3638H12.0911V57.9092H14.6365V55.3638Z" fill="black"/>
        <path d="M9.54545 57.9092H7V60.4546H9.54545V57.9092Z" fill="black"/>
        <path d="M12.0909 57.9092H9.54541V60.4546H12.0909V57.9092Z" fill="black"/>
        <path d="M12.0909 60.4546H9.54541V63H12.0909V60.4546Z" fill="black"/>
        <path d="M14.6365 60.4546H12.0911V63H14.6365V60.4546Z" fill="black"/>
        <path d="M17.1819 60.4546H14.6365V63H17.1819V60.4546Z" fill="black"/>
        <path d="M19.7273 60.4546H17.1819V63H19.7273V60.4546Z" fill="black"/>
        <path d="M22.2727 60.4546H19.7273V63H22.2727V60.4546Z" fill="black"/>
        <path d="M24.8182 60.4546H22.2727V63H24.8182V60.4546Z" fill="black"/>
        <path d="M27.3636 60.4546H24.8181V63H27.3636V60.4546Z" fill="black"/>
        <path d="M29.9092 60.4546H27.3638V63H29.9092V60.4546Z" fill="black"/>
        <path d="M32.4546 60.4546H29.9092V63H32.4546V60.4546Z" fill="black"/>
        <path d="M35 60.4546H32.4546V63H35V60.4546Z" fill="black"/>
        <path d="M37.5455 60.4546H35V63H37.5455V60.4546Z" fill="black"/>
        <path d="M40.0909 60.4546H37.5454V63H40.0909V60.4546Z" fill="black"/>
        <path d="M42.6365 60.4546H40.0911V63H42.6365V60.4546Z" fill="black"/>
        <path d="M45.1819 60.4546H42.6365V63H45.1819V60.4546Z" fill="black"/>
        <path d="M47.7273 60.4546H45.1819V63H47.7273V60.4546Z" fill="black"/>
        <path d="M50.2728 60.4546H47.7273V63H50.2728V60.4546Z" fill="black"/>
        <path d="M52.8182 60.4546H50.2727V63H52.8182V60.4546Z" fill="black"/>
        <path d="M55.3636 60.4546H52.8181V63H55.3636V60.4546Z" fill="black"/>
        <path d="M57.9092 60.4546H55.3638V63H57.9092V60.4546Z" fill="black"/>
        <path d="M60.4546 60.4546H57.9092V63H60.4546V60.4546Z" fill="black"/>
        <path d="M14.6365 57.9092H12.0911V60.4546H14.6365V57.9092Z" fill="black"/>
        <path d="M17.1819 57.9092H14.6365V60.4546H17.1819V57.9092Z" fill="black"/>
        <path d="M19.7273 57.9092H17.1819V60.4546H19.7273V57.9092Z" fill="black"/>
        <path d="M22.2727 57.9092H19.7273V60.4546H22.2727V57.9092Z" fill="black"/>
        <path d="M24.8182 57.9092H22.2727V60.4546H24.8182V57.9092Z" fill="black"/>
        <path d="M27.3636 57.9092H24.8181V60.4546H27.3636V57.9092Z" fill="black"/>
        <path d="M29.9092 57.9092H27.3638V60.4546H29.9092V57.9092Z" fill="black"/>
        <path d="M32.4546 57.9092H29.9092V60.4546H32.4546V57.9092Z" fill="black"/>
        <path d="M35 57.9092H32.4546V60.4546H35V57.9092Z" fill="black"/>
        <path d="M37.5455 57.9092H35V60.4546H37.5455V57.9092Z" fill="black"/>
        <path d="M40.0909 57.9092H37.5454V60.4546H40.0909V57.9092Z" fill="black"/>
        <path d="M42.6365 57.9092H40.0911V60.4546H42.6365V57.9092Z" fill="black"/>
        <path d="M45.1819 57.9092H42.6365V60.4546H45.1819V57.9092Z" fill="black"/>
        <path d="M47.7273 57.9092H45.1819V60.4546H47.7273V57.9092Z" fill="black"/>
        <path d="M50.2728 57.9092H47.7273V60.4546H50.2728V57.9092Z" fill="black"/>
        <path d="M52.8182 57.9092H50.2727V60.4546H52.8182V57.9092Z" fill="black"/>
        <path d="M55.3636 57.9092H52.8181V60.4546H55.3636V57.9092Z" fill="black"/>
        <path d="M57.9092 57.9092H55.3638V60.4546H57.9092V57.9092Z" fill="black"/>
        <path d="M60.4546 57.9092H57.9092V60.4546H60.4546V57.9092Z" fill="black"/>
        <path d="M63 57.9092H60.4546V60.4546H63V57.9092Z" fill="black"/>
        <path d="M14.6365 50.2729H12.0911V52.8184H14.6365V50.2729Z" fill="black"/>
        <path d="M14.6365 47.7275H12.0911V50.273H14.6365V47.7275Z" fill="black"/>
        <path d="M14.6365 45.1821H12.0911V47.7276H14.6365V45.1821Z" fill="black"/>
        <path d="M14.6365 42.6367H12.0911V45.1822H14.6365V42.6367Z" fill="black"/>
        <path d="M14.6365 40.0913H12.0911V42.6368H14.6365V40.0913Z" fill="black"/>
        <path d="M14.6365 37.5454H12.0911V40.0909H14.6365V37.5454Z" fill="black"/>
        <path d="M14.6365 35H12.0911V37.5455H14.6365V35Z" fill="black"/>
        <path d="M14.6365 32.4546H12.0911V35H14.6365V32.4546Z" fill="black"/>
        <path d="M17.1819 52.8184H14.6365V55.3638H17.1819V52.8184Z" fill="#2986FF"/>
        <path d="M17.1819 55.3638H14.6365V57.9092H17.1819V55.3638Z" fill="#2986FF"/>
        <path d="M17.1819 50.2729H14.6365V52.8184H17.1819V50.2729Z" fill="#2986FF"/>
        <path d="M17.1819 47.7275H14.6365V50.273H17.1819V47.7275Z" fill="#2986FF"/>
        <path d="M17.1819 45.1821H14.6365V47.7276H17.1819V45.1821Z" fill="#2986FF"/>
        <path d="M17.1819 42.6367H14.6365V45.1822H17.1819V42.6367Z" fill="#2986FF"/>
        <path d="M17.1819 40.0913H14.6365V42.6368H17.1819V40.0913Z" fill="#2986FF"/>
        <path d="M17.1819 37.5454H14.6365V40.0909H17.1819V37.5454Z" fill="#2986FF"/>
        <path d="M17.1819 35H14.6365V37.5455H17.1819V35Z" fill="#2986FF"/>
        <path d="M17.1819 32.4546H14.6365V35H17.1819V32.4546Z" fill="#2986FF"/>
        <path d="M19.7273 52.8184H17.1819V55.3638H19.7273V52.8184Z" fill="#45B3E9"/>
        <path d="M19.7273 55.3638H17.1819V57.9092H19.7273V55.3638Z" fill="#2986FF"/>
        <path d="M19.7273 50.2729H17.1819V52.8184H19.7273V50.2729Z" fill="#45B3E9"/>
        <path d="M19.7273 47.7275H17.1819V50.273H19.7273V47.7275Z" fill="#45B3E9"/>
        <path d="M19.7273 45.1821H17.1819V47.7276H19.7273V45.1821Z" fill="#45B3E9"/>
        <path d="M19.7273 42.6367H17.1819V45.1822H19.7273V42.6367Z" fill="#45B3E9"/>
        <path d="M19.7273 40.0913H17.1819V42.6368H19.7273V40.0913Z" fill="#45B3E9"/>
        <path d="M19.7273 37.5454H17.1819V40.0909H19.7273V37.5454Z" fill="#45B3E9"/>
        <path d="M19.7273 35H17.1819V37.5455H19.7273V35Z" fill="#45B3E9"/>
        <path d="M19.7273 32.4546H17.1819V35H19.7273V32.4546Z" fill="#2986FF"/>
        <path d="M22.2727 52.8184H19.7273V55.3638H22.2727V52.8184Z" fill="#45B3E9"/>
        <path d="M22.2727 55.3638H19.7273V57.9092H22.2727V55.3638Z" fill="#2986FF"/>
        <path d="M22.2727 50.2729H19.7273V52.8184H22.2727V50.2729Z" fill="#45B3E9"/>
        <path d="M22.2727 47.7275H19.7273V50.273H22.2727V47.7275Z" fill="#45B3E9"/>
        <path d="M22.2727 45.1821H19.7273V47.7276H22.2727V45.1821Z" fill="#45B3E9"/>
        <path d="M22.2727 42.6367H19.7273V45.1822H22.2727V42.6367Z" fill="#45B3E9"/>
        <path d="M22.2727 40.0913H19.7273V42.6368H22.2727V40.0913Z" fill="#45B3E9"/>
        <path d="M22.2727 37.5454H19.7273V40.0909H22.2727V37.5454Z" fill="#45B3E9"/>
        <path d="M22.2727 35H19.7273V37.5455H22.2727V35Z" fill="#45B3E9"/>
        <path d="M22.2727 32.4546H19.7273V35H22.2727V32.4546Z" fill="#2986FF"/>
        <path d="M24.8182 52.8184H22.2727V55.3638H24.8182V52.8184Z" fill="#45B3E9"/>
        <path d="M24.8182 55.3638H22.2727V57.9092H24.8182V55.3638Z" fill="#2986FF"/>
        <path d="M24.8182 50.2729H22.2727V52.8184H24.8182V50.2729Z" fill="#45B3E9"/>
        <path d="M24.8182 47.7275H22.2727V50.273H24.8182V47.7275Z" fill="#45B3E9"/>
        <path d="M24.8182 45.1821H22.2727V47.7276H24.8182V45.1821Z" fill="#45B3E9"/>
        <path d="M24.8182 42.6367H22.2727V45.1822H24.8182V42.6367Z" fill="#45B3E9"/>
        <path d="M24.8182 40.0913H22.2727V42.6368H24.8182V40.0913Z" fill="#45B3E9"/>
        <path d="M24.8182 37.5454H22.2727V40.0909H24.8182V37.5454Z" fill="#45B3E9"/>
        <path d="M24.8182 35H22.2727V37.5455H24.8182V35Z" fill="#45B3E9"/>
        <path d="M24.8182 32.4546H22.2727V35H24.8182V32.4546Z" fill="#2986FF"/>
        <path d="M27.3636 52.8184H24.8181V55.3638H27.3636V52.8184Z" fill="#98BA31"/>
        <path d="M27.3636 55.3638H24.8181V57.9092H27.3636V55.3638Z" fill="#98BA31"/>
        <path d="M27.3636 50.2729H24.8181V52.8184H27.3636V50.2729Z" fill="#45B3E9"/>
        <path d="M27.3636 47.7275H24.8181V50.273H27.3636V47.7275Z" fill="#45B3E9"/>
        <path d="M27.3636 45.1821H24.8181V47.7276H27.3636V45.1821Z" fill="#45B3E9"/>
        <path d="M27.3636 42.6367H24.8181V45.1822H27.3636V42.6367Z" fill="#45B3E9"/>
        <path d="M27.3636 40.0913H24.8181V42.6368H27.3636V40.0913Z" fill="#45B3E9"/>
        <path d="M27.3636 37.5454H24.8181V40.0909H27.3636V37.5454Z" fill="#45B3E9"/>
        <path d="M27.3636 35H24.8181V37.5455H27.3636V35Z" fill="#45B3E9"/>
        <path d="M27.3636 32.4546H24.8181V35H27.3636V32.4546Z" fill="#2986FF"/>
        <path d="M29.9092 52.8184H27.3638V55.3638H29.9092V52.8184Z" fill="#ADDD37"/>
        <path d="M29.9092 55.3638H27.3638V57.9092H29.9092V55.3638Z" fill="#98BA31"/>
        <path d="M29.9092 50.2729H27.3638V52.8184H29.9092V50.2729Z" fill="#98BA31"/>
        <path d="M29.9092 47.7275H27.3638V50.273H29.9092V47.7275Z" fill="#45B3E9"/>
        <path d="M29.9092 45.1821H27.3638V47.7276H29.9092V45.1821Z" fill="#45B3E9"/>
        <path d="M29.9092 42.6367H27.3638V45.1822H29.9092V42.6367Z" fill="#666666"/>
        <path d="M29.9092 40.0913H27.3638V42.6368H29.9092V40.0913Z" fill="#333333"/>
        <path d="M29.9092 37.5454H27.3638V40.0909H29.9092V37.5454Z" fill="black"/>
        <path d="M17.1819 27.3638H14.6365V29.9092H17.1819V27.3638Z" fill="white"/>
        <path d="M14.6365 29.9092H12.0911V32.4546H14.6365V29.9092Z" fill="white"/>
        <path d="M12.0909 32.4546H9.54541V35H12.0909V32.4546Z" fill="white"/>
        <path d="M12.0909 35H9.54541V37.5455H12.0909V35Z" fill="white"/>
        <path d="M12.0909 37.5454H9.54541V40.0909H12.0909V37.5454Z" fill="white"/>
        <path d="M12.0909 40.0913H9.54541V42.6368H12.0909V40.0913Z" fill="white"/>
        <path d="M12.0909 42.6367H9.54541V45.1822H12.0909V42.6367Z" fill="white"/>
        <path d="M12.0909 45.1821H9.54541V47.7276H12.0909V45.1821Z" fill="white"/>
        <path d="M12.0909 47.7275H9.54541V50.273H12.0909V47.7275Z" fill="white"/>
        <path d="M12.0909 50.2729H9.54541V52.8184H12.0909V50.2729Z" fill="white"/>
        <path d="M12.0909 52.8184H9.54541V55.3638H12.0909V52.8184Z" fill="white"/>
        <path d="M12.0909 55.3638H9.54541V57.9092H12.0909V55.3638Z" fill="white"/>
        <path d="M9.54545 55.3638H7V57.9092H9.54545V55.3638Z" fill="white"/>
        <path d="M7.00004 55.3638H4.45459V57.9092H7.00004V55.3638Z" fill="white"/>
        <path d="M7.00004 57.9092H4.45459V60.4546H7.00004V57.9092Z" fill="white"/>
        <path d="M7.00004 60.4546H4.45459V63H7.00004V60.4546Z" fill="white"/>
        <path d="M9.54545 60.4546H7V63H9.54545V60.4546Z" fill="white"/>
        <path d="M9.54545 63H7V65.5455H9.54545V63Z" fill="white"/>
        <path d="M12.0909 63H9.54541V65.5455H12.0909V63Z" fill="white"/>
        <path d="M14.6365 63H12.0911V65.5455H14.6365V63Z" fill="white"/>
        <path d="M17.1819 63H14.6365V65.5455H17.1819V63Z" fill="white"/>
        <path d="M19.7273 63H17.1819V65.5455H19.7273V63Z" fill="white"/>
        <path d="M22.2727 63H19.7273V65.5455H22.2727V63Z" fill="white"/>
        <path d="M24.8182 63H22.2727V65.5455H24.8182V63Z" fill="white"/>
        <path d="M27.3636 63H24.8181V65.5455H27.3636V63Z" fill="white"/>
        <path d="M29.9092 63H27.3638V65.5455H29.9092V63Z" fill="white"/>
        <path d="M32.4546 63H29.9092V65.5455H32.4546V63Z" fill="white"/>
        <path d="M35 63H32.4546V65.5455H35V63Z" fill="white"/>
        <path d="M37.5455 63H35V65.5455H37.5455V63Z" fill="white"/>
        <path d="M40.0909 63H37.5454V65.5455H40.0909V63Z" fill="white"/>
        <path d="M42.6365 63H40.0911V65.5455H42.6365V63Z" fill="white"/>
        <path d="M45.1819 63H42.6365V65.5455H45.1819V63Z" fill="white"/>
        <path d="M47.7273 63H45.1819V65.5455H47.7273V63Z" fill="white"/>
        <path d="M50.2728 63H47.7273V65.5455H50.2728V63Z" fill="white"/>
        <path d="M52.8182 63H50.2727V65.5455H52.8182V63Z" fill="white"/>
        <path d="M55.3636 63H52.8181V65.5455H55.3636V63Z" fill="white"/>
        <path d="M57.9092 63H55.3638V65.5455H57.9092V63Z" fill="white"/>
        <path d="M60.4546 63H57.9092V65.5455H60.4546V63Z" fill="white"/>
        <path d="M63 63H60.4546V65.5455H63V63Z" fill="white"/>
        <path d="M63 60.4546H60.4546V63H63V60.4546Z" fill="white"/>
        <path d="M65.5455 60.4546H63V63H65.5455V60.4546Z" fill="white"/>
        <path d="M65.5455 57.9092H63V60.4546H65.5455V57.9092Z" fill="white"/>
        <path d="M65.5455 55.3638H63V57.9092H65.5455V55.3638Z" fill="white"/>
        <path d="M63 55.3638H60.4546V57.9092H63V55.3638Z" fill="white"/>
        <path d="M60.4546 55.3638H57.9092V57.9092H60.4546V55.3638Z" fill="white"/>
        <path d="M60.4546 52.8184H57.9092V55.3638H60.4546V52.8184Z" fill="white"/>
        <path d="M60.4546 50.2729H57.9092V52.8184H60.4546V50.2729Z" fill="white"/>
        <path d="M60.4546 47.7275H57.9092V50.273H60.4546V47.7275Z" fill="white"/>
        <path d="M60.4546 45.1821H57.9092V47.7276H60.4546V45.1821Z" fill="white"/>
        <path d="M60.4546 42.6367H57.9092V45.1822H60.4546V42.6367Z" fill="white"/>
        <path d="M60.4546 40.0913H57.9092V42.6368H60.4546V40.0913Z" fill="white"/>
        <path d="M60.4546 37.5454H57.9092V40.0909H60.4546V37.5454Z" fill="white"/>
        <path d="M60.4546 35H57.9092V37.5455H60.4546V35Z" fill="white"/>
        <path d="M60.4546 32.4546H57.9092V35H60.4546V32.4546Z" fill="white"/>
        <path d="M57.9092 29.9092H55.3638V32.4546H57.9092V29.9092Z" fill="white"/>
        <path d="M55.3636 27.3638H52.8181V29.9092H55.3636V27.3638Z" fill="white"/>
        <path d="M52.8182 24.8184H50.2727V27.3638H52.8182V24.8184Z" fill="white"/>
        <path d="M50.2728 24.8184H47.7273V27.3638H50.2728V24.8184Z" fill="white"/>
        <path d="M47.7273 24.8184H45.1819V27.3638H47.7273V24.8184Z" fill="white"/>
        <path d="M45.1819 24.8184H42.6365V27.3638H45.1819V24.8184Z" fill="white"/>
        <path d="M42.6365 24.8184H40.0911V27.3638H42.6365V24.8184Z" fill="white"/>
        <path d="M40.0909 24.8184H37.5454V27.3638H40.0909V24.8184Z" fill="white"/>
        <path d="M37.5455 24.8184H35V27.3638H37.5455V24.8184Z" fill="white"/>
        <path d="M35 24.8184H32.4546V27.3638H35V24.8184Z" fill="white"/>
        <path d="M32.4546 24.8184H29.9092V27.3638H32.4546V24.8184Z" fill="white"/>
        <path d="M29.9092 24.8184H27.3638V27.3638H29.9092V24.8184Z" fill="white"/>
        <path d="M27.3636 24.8184H24.8181V27.3638H27.3636V24.8184Z" fill="white"/>
        <path d="M24.8182 24.8184H22.2727V27.3638H24.8182V24.8184Z" fill="white"/>
        <path d="M22.2727 24.8184H19.7273V27.3638H22.2727V24.8184Z" fill="white"/>
        <path d="M19.7273 24.8184H17.1819V27.3638H19.7273V24.8184Z" fill="white"/>
        <path d="M29.9092 35H27.3638V37.5455H29.9092V35Z" fill="#45B3E9"/>
        <path d="M29.9092 32.4546H27.3638V35H29.9092V32.4546Z" fill="#2986FF"/>
        <path d="M32.4546 52.8184H29.9092V55.3638H32.4546V52.8184Z" fill="#ADDD37"/>
        <path d="M32.4546 55.3638H29.9092V57.9092H32.4546V55.3638Z" fill="#98BA31"/>
        <path d="M32.4546 50.2729H29.9092V52.8184H32.4546V50.2729Z" fill="#ADDD37"/>
        <path d="M32.4546 47.7275H29.9092V50.273H32.4546V47.7275Z" fill="#98BA31"/>
        <path d="M32.4546 45.1821H29.9092V47.7276H32.4546V45.1821Z" fill="#666666"/>
        <path d="M32.4546 42.6367H29.9092V45.1822H32.4546V42.6367Z" fill="#FF9605"/>
        <path d="M32.4546 40.0913H29.9092V42.6368H32.4546V40.0913Z" fill="black"/>
        <path d="M32.4546 37.5454H29.9092V40.0909H32.4546V37.5454Z" fill="#FFC522"/>
        <path d="M32.4546 35H29.9092V37.5455H32.4546V35Z" fill="black"/>
        <path d="M32.4546 32.4546H29.9092V35H32.4546V32.4546Z" fill="#2986FF"/>
        <path d="M35 52.8184H32.4546V55.3638H35V52.8184Z" fill="#ADDD37"/>
        <path d="M35 55.3638H32.4546V57.9092H35V55.3638Z" fill="#98BA31"/>
        <path d="M35 50.2729H32.4546V52.8184H35V50.2729Z" fill="#ADDD37"/>
        <path d="M35 47.7275H32.4546V50.273H35V47.7275Z" fill="#98BA31"/>
        <path d="M35 45.1821H32.4546V47.7276H35V45.1821Z" fill="#333333"/>
        <path d="M35 42.6367H32.4546V45.1822H35V42.6367Z" fill="#ED1C24"/>
        <path d="M35 40.0913H32.4546V42.6368H35V40.0913Z" fill="#FFC522"/>
        <path d="M35 37.5454H32.4546V40.0909H35V37.5454Z" fill="#FFC522"/>
        <path d="M35 35H32.4546V37.5455H35V35Z" fill="black"/>
        <path d="M35 32.4546H32.4546V35H35V32.4546Z" fill="#2986FF"/>
        <path d="M37.5455 52.8184H35V55.3638H37.5455V52.8184Z" fill="#ADDD37"/>
        <path d="M37.5455 55.3638H35V57.9092H37.5455V55.3638Z" fill="#98BA31"/>
        <path d="M37.5455 50.2729H35V52.8184H37.5455V50.2729Z" fill="#ADDD37"/>
        <path d="M37.5455 47.7275H35V50.273H37.5455V47.7275Z" fill="#98BA31"/>
        <path d="M37.5455 45.1821H35V47.7276H37.5455V45.1821Z" fill="#FF9605"/>
        <path d="M37.5455 42.6367H35V45.1822H37.5455V42.6367Z" fill="#ED1C24"/>
        <path d="M37.5455 40.0913H35V42.6368H37.5455V40.0913Z" fill="#FFC522"/>
        <path d="M37.5455 37.5454H35V40.0909H37.5455V37.5454Z" fill="#FFC522"/>
        <path d="M37.5455 35H35V37.5455H37.5455V35Z" fill="black"/>
        <path d="M37.5455 32.4546H35V35H37.5455V32.4546Z" fill="#2986FF"/>
        <path d="M40.0909 52.8184H37.5454V55.3638H40.0909V52.8184Z" fill="#ADDD37"/>
        <path d="M40.0909 55.3638H37.5454V57.9092H40.0909V55.3638Z" fill="#98BA31"/>
        <path d="M40.0909 50.2729H37.5454V52.8184H40.0909V50.2729Z" fill="#ADDD37"/>
        <path d="M40.0909 47.7275H37.5454V50.273H40.0909V47.7275Z" fill="#98BA31"/>
        <path d="M40.0909 45.1821H37.5454V47.7276H40.0909V45.1821Z" fill="#FF9605"/>
        <path d="M40.0909 42.6367H37.5454V45.1822H40.0909V42.6367Z" fill="#FF9605"/>
        <path d="M40.0909 40.0913H37.5454V42.6368H40.0909V40.0913Z" fill="black"/>
        <path d="M40.0909 37.5454H37.5454V40.0909H40.0909V37.5454Z" fill="#FFC522"/>
        <path d="M40.0909 35H37.5454V37.5455H40.0909V35Z" fill="black"/>
        <path d="M40.0909 32.4546H37.5454V35H40.0909V32.4546Z" fill="#2986FF"/>
        <path d="M42.6365 52.8184H40.0911V55.3638H42.6365V52.8184Z" fill="#ADDD37"/>
        <path d="M42.6365 55.3638H40.0911V57.9092H42.6365V55.3638Z" fill="#98BA31"/>
        <path d="M42.6365 50.2729H40.0911V52.8184H42.6365V50.2729Z" fill="#D1FF43"/>
        <path d="M42.6365 47.7275H40.0911V50.273H42.6365V47.7275Z" fill="#45B3E9"/>
        <path d="M42.6365 45.1821H40.0911V47.7276H42.6365V45.1821Z" fill="#45B3E9"/>
        <path d="M42.6365 42.6367H40.0911V45.1822H42.6365V42.6367Z" fill="#666666"/>
        <path d="M42.6365 40.0913H40.0911V42.6368H42.6365V40.0913Z" fill="#333333"/>
        <path d="M42.6365 37.5454H40.0911V40.0909H42.6365V37.5454Z" fill="black"/>
        <path d="M42.6365 35H40.0911V37.5455H42.6365V35Z" fill="#45B3E9"/>
        <path d="M42.6365 32.4546H40.0911V35H42.6365V32.4546Z" fill="#2986FF"/>
        <path d="M45.1819 52.8184H42.6365V55.3638H45.1819V52.8184Z" fill="#D1FF43"/>
        <path d="M45.1819 55.3638H42.6365V57.9092H45.1819V55.3638Z" fill="#98BA31"/>
        <path d="M45.1819 50.2729H42.6365V52.8184H45.1819V50.2729Z" fill="#45B3E9"/>
        <path d="M45.1819 47.7275H42.6365V50.273H45.1819V47.7275Z" fill="#45B3E9"/>
        <path d="M45.1819 45.1821H42.6365V47.7276H45.1819V45.1821Z" fill="#45B3E9"/>
        <path d="M45.1819 42.6367H42.6365V45.1822H45.1819V42.6367Z" fill="#45B3E9"/>
        <path d="M45.1819 40.0913H42.6365V42.6368H45.1819V40.0913Z" fill="#45B3E9"/>
        <path d="M45.1819 37.5454H42.6365V40.0909H45.1819V37.5454Z" fill="#45B3E9"/>
        <path d="M45.1819 35H42.6365V37.5455H45.1819V35Z" fill="#45B3E9"/>
        <path d="M45.1819 32.4546H42.6365V35H45.1819V32.4546Z" fill="#2986FF"/>
        <path d="M47.7273 52.8184H45.1819V55.3638H47.7273V52.8184Z" fill="#45B3E9"/>
        <path d="M47.7273 55.3638H45.1819V57.9092H47.7273V55.3638Z" fill="#2986FF"/>
        <path d="M47.7273 50.2729H45.1819V52.8184H47.7273V50.2729Z" fill="#45B3E9"/>
        <path d="M47.7273 47.7275H45.1819V50.273H47.7273V47.7275Z" fill="#45B3E9"/>
        <path d="M47.7273 45.1821H45.1819V47.7276H47.7273V45.1821Z" fill="#45B3E9"/>
        <path d="M47.7273 42.6367H45.1819V45.1822H47.7273V42.6367Z" fill="#45B3E9"/>
        <path d="M47.7273 40.0913H45.1819V42.6368H47.7273V40.0913Z" fill="#45B3E9"/>
        <path d="M47.7273 37.5454H45.1819V40.0909H47.7273V37.5454Z" fill="#45B3E9"/>
        <path d="M47.7273 35H45.1819V37.5455H47.7273V35Z" fill="#45B3E9"/>
        <path d="M47.7273 32.4546H45.1819V35H47.7273V32.4546Z" fill="#2986FF"/>
        <path d="M50.2728 52.8184H47.7273V55.3638H50.2728V52.8184Z" fill="#45B3E9"/>
        <path d="M50.2728 55.3638H47.7273V57.9092H50.2728V55.3638Z" fill="#2986FF"/>
        <path d="M50.2728 50.2729H47.7273V52.8184H50.2728V50.2729Z" fill="#45B3E9"/>
        <path d="M50.2728 47.7275H47.7273V50.273H50.2728V47.7275Z" fill="#45B3E9"/>
        <path d="M50.2728 45.1821H47.7273V47.7276H50.2728V45.1821Z" fill="#45B3E9"/>
        <path d="M50.2728 42.6367H47.7273V45.1822H50.2728V42.6367Z" fill="#45B3E9"/>
        <path d="M50.2728 40.0913H47.7273V42.6368H50.2728V40.0913Z" fill="#45B3E9"/>
        <path d="M50.2728 37.5454H47.7273V40.0909H50.2728V37.5454Z" fill="#45B3E9"/>
        <path d="M50.2728 35H47.7273V37.5455H50.2728V35Z" fill="#45B3E9"/>
        <path d="M50.2728 32.4546H47.7273V35H50.2728V32.4546Z" fill="#2986FF"/>
        <path d="M52.8182 52.8184H50.2727V55.3638H52.8182V52.8184Z" fill="#45B3E9"/>
        <path d="M52.8182 50.2729H50.2727V52.8184H52.8182V50.2729Z" fill="#45B3E9"/>
        <path d="M52.8182 47.7275H50.2727V50.273H52.8182V47.7275Z" fill="#45B3E9"/>
        <path d="M52.8182 45.1821H50.2727V47.7276H52.8182V45.1821Z" fill="#45B3E9"/>
        <path d="M52.8182 42.6367H50.2727V45.1822H52.8182V42.6367Z" fill="#45B3E9"/>
        <path d="M52.8182 40.0913H50.2727V42.6368H52.8182V40.0913Z" fill="#45B3E9"/>
        <path d="M52.8182 37.5454H50.2727V40.0909H52.8182V37.5454Z" fill="#45B3E9"/>
        <path d="M52.8182 35H50.2727V37.5455H52.8182V35Z" fill="#45B3E9"/>
        <path d="M52.8182 32.4546H50.2727V35H52.8182V32.4546Z" fill="#2986FF"/>
        <path d="M55.3636 52.8184H52.8181V55.3638H55.3636V52.8184Z" fill="#2986FF"/>
        <path d="M55.3636 55.3638H52.8181V57.9092H55.3636V55.3638Z" fill="#2986FF"/>
        <path d="M55.3636 50.2729H52.8181V52.8184H55.3636V50.2729Z" fill="#2986FF"/>
        <path d="M55.3636 47.7275H52.8181V50.273H55.3636V47.7275Z" fill="#2986FF"/>
        <path d="M55.3636 45.1821H52.8181V47.7276H55.3636V45.1821Z" fill="#2986FF"/>
        <path d="M55.3636 42.6367H52.8181V45.1822H55.3636V42.6367Z" fill="#2986FF"/>
        <path d="M55.3636 40.0913H52.8181V42.6368H55.3636V40.0913Z" fill="#2986FF"/>
        <path d="M55.3636 37.5454H52.8181V40.0909H55.3636V37.5454Z" fill="#2986FF"/>
        <path d="M55.3636 35H52.8181V37.5455H55.3636V35Z" fill="#2986FF"/>
        <path d="M55.3636 32.4546H52.8181V35H55.3636V32.4546Z" fill="#2986FF"/>
        <path d="M17.1819 29.9092H14.6365V32.4546H17.1819V29.9092Z" fill="black"/>
        <path d="M19.7273 29.9092H17.1819V32.4546H19.7273V29.9092Z" fill="black"/>
        <path d="M22.2727 29.9092H19.7273V32.4546H22.2727V29.9092Z" fill="black"/>
        <path d="M24.8182 29.9092H22.2727V32.4546H24.8182V29.9092Z" fill="black"/>
        <path d="M27.3636 29.9092H24.8181V32.4546H27.3636V29.9092Z" fill="black"/>
        <path d="M29.9092 29.9092H27.3638V32.4546H29.9092V29.9092Z" fill="black"/>
        <path d="M32.4546 29.9092H29.9092V32.4546H32.4546V29.9092Z" fill="black"/>
        <path d="M35 29.9092H32.4546V32.4546H35V29.9092Z" fill="#333333"/>
        <path d="M37.5455 29.9092H35V32.4546H37.5455V29.9092Z" fill="#1A1A1A"/>
        <path d="M40.0909 29.9092H37.5454V32.4546H40.0909V29.9092Z" fill="black"/>
        <path d="M42.6365 29.9092H40.0911V32.4546H42.6365V29.9092Z" fill="black"/>
        <path d="M45.1819 29.9092H42.6365V32.4546H45.1819V29.9092Z" fill="black"/>
        <path d="M47.7273 29.9092H45.1819V32.4546H47.7273V29.9092Z" fill="black"/>
        <path d="M50.2728 29.9092H47.7273V32.4546H50.2728V29.9092Z" fill="black"/>
        <path d="M52.8182 29.9092H50.2727V32.4546H52.8182V29.9092Z" fill="black"/>
        <path d="M19.7273 27.3638H17.1819V29.9092H19.7273V27.3638Z" fill="black"/>
        <path d="M22.2727 27.3638H19.7273V29.9092H22.2727V27.3638Z" fill="black"/>
        <path d="M24.8182 27.3638H22.2727V29.9092H24.8182V27.3638Z" fill="black"/>
        <path d="M27.3636 27.3638H24.8181V29.9092H27.3636V27.3638Z" fill="black"/>
        <path d="M29.9092 27.3638H27.3638V29.9092H29.9092V27.3638Z" fill="black"/>
        <path d="M32.4546 27.3638H29.9092V29.9092H32.4546V27.3638Z" fill="black"/>
        <path d="M35 27.3638H32.4546V29.9092H35V27.3638Z" fill="black"/>
        <path d="M37.5455 27.3638H35V29.9092H37.5455V27.3638Z" fill="black"/>
        <path d="M40.0909 27.3638H37.5454V29.9092H40.0909V27.3638Z" fill="black"/>
        <path d="M42.6365 27.3638H40.0911V29.9092H42.6365V27.3638Z" fill="black"/>
        <path d="M45.1819 27.3638H42.6365V29.9092H45.1819V27.3638Z" fill="black"/>
        <path d="M47.7273 27.3638H45.1819V29.9092H47.7273V27.3638Z" fill="black"/>
        <path d="M50.2728 27.3638H47.7273V29.9092H50.2728V27.3638Z" fill="black"/>
        <path d="M52.8182 27.3638H50.2727V29.9092H52.8182V27.3638Z" fill="black"/>
        <path d="M55.3636 29.9092H52.8181V32.4546H55.3636V29.9092Z" fill="black"/>
        <path d="M57.9092 32.4546H55.3638V35H57.9092V32.4546Z" fill="black"/>
        <path d="M57.9092 35H55.3638V37.5455H57.9092V35Z" fill="black"/>
        <path d="M57.9092 37.5454H55.3638V40.0909H57.9092V37.5454Z" fill="black"/>
        <path d="M57.9092 40.0913H55.3638V42.6368H57.9092V40.0913Z" fill="black"/>
        <path d="M57.9092 42.6367H55.3638V45.1822H57.9092V42.6367Z" fill="black"/>
        <path d="M57.9092 45.1821H55.3638V47.7276H57.9092V45.1821Z" fill="black"/>
        <path d="M57.9092 47.7275H55.3638V50.273H57.9092V47.7275Z" fill="black"/>
        <path d="M57.9092 50.2729H55.3638V52.8184H57.9092V50.2729Z" fill="black"/>
        <path d="M57.9092 52.8184H55.3638V55.3638H57.9092V52.8184Z" fill="black"/>
        <path d="M57.9092 55.3638H55.3638V57.9092H57.9092V55.3638Z" fill="black"/>
        <path d="M9.54545 7H7V9.54545H9.54545V7Z" fill="white"/>
        <path d="M35 7H32.4546V9.54545H35V7Z" fill="white"/>
        <path d="M32.4546 4.45459H9.54419V7.00004H32.4546V4.45459Z" fill="white"/>
        <path d="M9.54545 9.54541H7V29.909H9.54545V9.54541Z" fill="black"/>
        <path d="M32.4545 7H9.54541V9.54545H32.4545V7Z" fill="black"/>
        <path d="M14.6351 29.9092H9.54419V32.4546H14.6351V29.9092Z" fill="black"/>
        <path d="M14.6363 32.4546H12.0908V35H14.6363V32.4546Z" fill="black"/>
        <path d="M14.6363 35H12.0908V37.5455H14.6363V35Z" fill="black"/>
        <path d="M17.1819 35H14.6365V37.5455H17.1819V35Z" fill="black"/>
        <path d="M19.7273 32.4546H17.1819V35H19.7273V32.4546Z" fill="black"/>
        <path d="M32.4546 29.9092H19.7273V32.4546H32.4546V29.9092Z" fill="black"/>
        <path d="M35 9.54541H32.4546V29.909H35V9.54541Z" fill="black"/>
        <path d="M9.54541 9.54541V29.909H14.6363V32.4545V35H17.1818V32.4545H19.7272V29.909H32.4545V9.54541H9.54541Z" fill="white"/>
        <path d="M12.0909 27.3638H9.54541V29.9092H12.0909V27.3638Z" fill="#CCCCCC"/>
        <path d="M14.6363 27.3638H12.0908V29.9092H14.6363V27.3638Z" fill="#CCCCCC"/>
        <path d="M14.6363 24.8184H12.0908V27.3638H14.6363V24.8184Z" fill="#E6E6E6"/>
        <path d="M12.0909 24.8184H9.54541V27.3638H12.0909V24.8184Z" fill="#CCCCCC"/>
        <path d="M12.0909 22.2729H9.54541V24.8184H12.0909V22.2729Z" fill="#CCCCCC"/>
        <path d="M12.0909 19.7275H9.54541V22.273H12.0909V19.7275Z" fill="#E6E6E6"/>
        <path d="M12.0909 17.1816H9.54541V19.7271H12.0909V17.1816Z" fill="#E6E6E6"/>
        <path d="M12.0909 14.6362H9.54541V17.1817H12.0909V14.6362Z" fill="#F2F2F2"/>
        <path d="M12.0909 12.0908H9.54541V14.6363H12.0909V12.0908Z" fill="#F2F2F2"/>
        <path d="M12.0909 9.54541H9.54541V12.0909H12.0909V9.54541Z" fill="#F2F2F2"/>
        <path d="M17.1819 27.3638H14.6365V29.9092H17.1819V27.3638Z" fill="#E6E6E6"/>
        <path d="M17.1819 29.9092H14.6365V32.4546H17.1819V29.9092Z" fill="#CCCCCC"/>
        <path d="M19.7273 29.9092H17.1819V32.4546H19.7273V29.9092Z" fill="#E6E6E6"/>
        <path d="M17.1819 32.4546H14.6365V35H17.1819V32.4546Z" fill="#CCCCCC"/>
        <path d="M37.5455 9.54541H35V24.8181H37.5455V9.54541Z" fill="white"/>
        <path d="M7.00004 9.54541H4.45459V29.909H7.00004V9.54541Z" fill="white"/>
        <path d="M9.54545 29.9092H7V32.4546H9.54545V29.9092Z" fill="white"/>
        <path d="M19.7273 12.0908H17.1819V14.6363H19.7273V12.0908Z" fill="black"/>
        <path d="M22.2727 12.0908H19.7273V14.6363H22.2727V12.0908Z" fill="black"/>
        <path d="M24.8182 12.0908H22.2727V14.6363H24.8182V12.0908Z" fill="black"/>
        <path d="M27.3636 14.6362H24.8181V17.1817H27.3636V14.6362Z" fill="black"/>
        <path d="M24.8182 17.1816H22.2727V19.7271H24.8182V17.1816Z" fill="black"/>
        <path d="M22.2727 17.1816H19.7273V19.7271H22.2727V17.1816Z" fill="black"/>
        <path d="M22.2727 19.7275H19.7273V22.273H22.2727V19.7275Z" fill="black"/>
        <path d="M22.2727 24.8184H19.7273V27.3638H22.2727V24.8184Z" fill="black"/>
        <path d="M17.1819 14.6362H14.6365V17.1817H17.1819V14.6362Z" fill="black"/>
    </g>
    <defs>
        <clipPath id="clip0_2000_15186">
            <rect width="61.0909" height="61.0909" fill="white" transform="translate(4.45459 4.45459)"/>
        </clipPath>
    </defs>
</svg>
