<svg width="70" height="70" viewBox="0 0 70 70" fill="none" xmlns="http://www.w3.org/2000/svg">
    <g clip-path="url(#clip0_2000_14712)">
        <path d="M18.4521 9.54541H15.9041V12.0934H18.4521V9.54541Z" fill="white"/>
        <path d="M20.9999 9.54541H18.4519V12.0934H20.9999V9.54541Z" fill="white"/>
        <path d="M23.548 9.54541H21V12.0934H23.548V9.54541Z" fill="white"/>
        <path d="M26.0946 9.54541H23.5466V12.0934H26.0946V9.54541Z" fill="white"/>
        <path d="M28.63 9.54541H26.082V12.0934H28.63V9.54541Z" fill="white"/>
        <path d="M31.1767 9.54541H28.6287V12.0934H31.1767V9.54541Z" fill="white"/>
        <path d="M33.7248 9.54541H31.1768V12.0934H33.7248V9.54541Z" fill="white"/>
        <path d="M36.2729 9.54541H33.7249V12.0934H36.2729V9.54541Z" fill="white"/>
        <path d="M38.8207 9.54541H36.2727V12.0934H38.8207V9.54541Z" fill="white"/>
        <path d="M41.3534 9.54541H38.8054V12.0934H41.3534V9.54541Z" fill="white"/>
        <path d="M43.9027 9.54541H41.3547V12.0934H43.9027V9.54541Z" fill="white"/>
        <path d="M46.4494 9.54541H43.9014V12.0934H46.4494V9.54541Z" fill="white"/>
        <path d="M15.904 12.0933H13.356V14.6413H15.904V12.0933Z" fill="white"/>
        <path d="M18.4521 12.0933H15.9041V14.6413H18.4521V12.0933Z" fill="black"/>
        <path d="M20.9999 12.0933H18.4519V14.6413H20.9999V12.0933Z" fill="black"/>
        <path d="M23.548 12.0933H21V14.6413H23.548V12.0933Z" fill="black"/>
        <path d="M26.0946 12.0933H23.5466V14.6413H26.0946V12.0933Z" fill="black"/>
        <path d="M28.63 12.0933H26.082V14.6413H28.63V12.0933Z" fill="black"/>
        <path d="M31.1767 12.0933H28.6287V14.6413H31.1767V12.0933Z" fill="black"/>
        <path d="M33.7248 12.0933H31.1768V14.6413H33.7248V12.0933Z" fill="black"/>
        <path d="M36.2729 12.0933H33.7249V14.6413H36.2729V12.0933Z" fill="black"/>
        <path d="M38.8207 12.0933H36.2727V14.6413H38.8207V12.0933Z" fill="black"/>
        <path d="M41.3534 12.0933H38.8054V14.6413H41.3534V12.0933Z" fill="black"/>
        <path d="M43.9027 12.0933H41.3547V14.6413H43.9027V12.0933Z" fill="black"/>
        <path d="M46.4494 12.0933H43.9014V14.6413H46.4494V12.0933Z" fill="black"/>
        <path d="M48.9987 12.0933H46.4507V14.6413H48.9987V12.0933Z" fill="white"/>
        <path d="M13.3712 14.6416H10.8232V17.1896H13.3712V14.6416Z" fill="white"/>
        <path d="M15.904 14.6416H13.356V17.1896H15.904V14.6416Z" fill="black"/>
        <path d="M18.4521 14.6416H15.9041V17.1896H18.4521V14.6416Z" fill="#E3E3E3"/>
        <path d="M20.9999 14.6416H18.4519V17.1896H20.9999V14.6416Z" fill="#E3E3E3"/>
        <path d="M23.548 14.6416H21V17.1896H23.548V14.6416Z" fill="white"/>
        <path d="M26.0946 14.6416H23.5466V17.1896H26.0946V14.6416Z" fill="white"/>
        <path d="M28.63 14.6416H26.082V17.1896H28.63V14.6416Z" fill="#E3E3E3"/>
        <path d="M31.1767 14.6416H28.6287V17.1896H31.1767V14.6416Z" fill="white"/>
        <path d="M33.7248 14.6416H31.1768V17.1896H33.7248V14.6416Z" fill="white"/>
        <path d="M36.2729 14.6416H33.7249V17.1896H36.2729V14.6416Z" fill="white"/>
        <path d="M38.8207 14.6416H36.2727V17.1896H38.8207V14.6416Z" fill="white"/>
        <path d="M41.3534 14.6416H38.8054V17.1896H41.3534V14.6416Z" fill="#E3E3E3"/>
        <path d="M43.9027 14.6416H41.3547V17.1896H43.9027V14.6416Z" fill="#E3E3E3"/>
        <path d="M46.4494 14.6416H43.9014V17.1896H46.4494V14.6416Z" fill="white"/>
        <path d="M48.9987 14.6416H46.4507V17.1896H48.9987V14.6416Z" fill="white"/>
        <path d="M51.5456 14.6416H48.9976V17.1896H51.5456V14.6416Z" fill="white"/>
        <path d="M10.8234 17.1743H8.27539V19.7223H10.8234V17.1743Z" fill="white"/>
        <path d="M13.3712 17.1743H10.8232V19.7223H13.3712V17.1743Z" fill="black"/>
        <path d="M15.904 17.1743H13.356V19.7223H15.904V17.1743Z" fill="#8C8C8C"/>
        <path d="M18.4521 17.1743H15.9041V19.7223H18.4521V17.1743Z" fill="#E3E3E3"/>
        <path d="M20.9999 17.1743H18.4519V19.7223H20.9999V17.1743Z" fill="#E3E3E3"/>
        <path d="M23.548 17.1743H21V19.7223H23.548V17.1743Z" fill="#E3E3E3"/>
        <path d="M26.0946 17.1743H23.5466V19.7223H26.0946V17.1743Z" fill="#E3E3E3"/>
        <path d="M28.63 17.1743H26.082V19.7223H28.63V17.1743Z" fill="#E3E3E3"/>
        <path d="M31.1767 17.1743H28.6287V19.7223H31.1767V17.1743Z" fill="#E3E3E3"/>
        <path d="M33.7248 17.1743H31.1768V19.7223H33.7248V17.1743Z" fill="#E3E3E3"/>
        <path d="M36.2729 17.1743H33.7249V19.7223H36.2729V17.1743Z" fill="#E3E3E3"/>
        <path d="M38.8207 17.1743H36.2727V19.7223H38.8207V17.1743Z" fill="#E3E3E3"/>
        <path d="M41.3534 17.1743H38.8054V19.7223H41.3534V17.1743Z" fill="#E3E3E3"/>
        <path d="M43.9027 17.1743H41.3547V19.7223H43.9027V17.1743Z" fill="#E3E3E3"/>
        <path d="M46.4494 17.1743H43.9014V19.7223H46.4494V17.1743Z" fill="#E3E3E3"/>
        <path d="M48.9987 17.1743H46.4507V19.7223H48.9987V17.1743Z" fill="#E3E3E3"/>
        <path d="M51.5456 17.1743H48.9976V19.7223H51.5456V17.1743Z" fill="black"/>
        <path d="M54.0783 17.1743H51.5303V19.7223H54.0783V17.1743Z" fill="white"/>
        <path d="M10.8234 19.7222H8.27539V22.2702H10.8234V19.7222Z" fill="white"/>
        <path d="M13.3712 19.7222H10.8232V22.2702H13.3712V19.7222Z" fill="black"/>
        <path d="M15.904 19.7222H13.356V22.2702H15.904V19.7222Z" fill="#8C8C8C"/>
        <path d="M18.4521 19.7222H15.9041V22.2702H18.4521V19.7222Z" fill="#E3E3E3"/>
        <path d="M20.9999 19.7222H18.4519V22.2702H20.9999V19.7222Z" fill="#E3E3E3"/>
        <path d="M23.548 19.7222H21V22.2702H23.548V19.7222Z" fill="#E3E3E3"/>
        <path d="M26.0946 19.7222H23.5466V22.2702H26.0946V19.7222Z" fill="#E3E3E3"/>
        <path d="M28.63 19.7222H26.082V22.2702H28.63V19.7222Z" fill="#E3E3E3"/>
        <path d="M31.1767 19.7222H28.6287V22.2702H31.1767V19.7222Z" fill="#E3E3E3"/>
        <path d="M33.7248 19.7222H31.1768V22.2702H33.7248V19.7222Z" fill="#E3E3E3"/>
        <path d="M36.2729 19.7222H33.7249V22.2702H36.2729V19.7222Z" fill="black"/>
        <path d="M38.8207 19.7222H36.2727V22.2702H38.8207V19.7222Z" fill="#E3E3E3"/>
        <path d="M41.3534 19.7222H38.8054V22.2702H41.3534V19.7222Z" fill="#E3E3E3"/>
        <path d="M43.9027 19.7222H41.3547V22.2702H43.9027V19.7222Z" fill="#E3E3E3"/>
        <path d="M46.4494 19.7222H43.9014V22.2702H46.4494V19.7222Z" fill="#E3E3E3"/>
        <path d="M48.9987 19.7222H46.4507V22.2702H48.9987V19.7222Z" fill="#E3E3E3"/>
        <path d="M51.5456 19.7222H48.9976V22.2702H51.5456V19.7222Z" fill="black"/>
        <path d="M54.0783 19.7222H51.5303V22.2702H54.0783V19.7222Z" fill="white"/>
        <path d="M10.8234 22.27H8.27539V24.818H10.8234V22.27Z" fill="white"/>
        <path d="M13.3712 22.27H10.8232V24.818H13.3712V22.27Z" fill="black"/>
        <path d="M15.904 22.27H13.356V24.818H15.904V22.27Z" fill="#8C8C8C"/>
        <path d="M18.4521 22.27H15.9041V24.818H18.4521V22.27Z" fill="#E3E3E3"/>
        <path d="M20.9999 22.27H18.4519V24.818H20.9999V22.27Z" fill="#E3E3E3"/>
        <path d="M23.548 22.27H21V24.818H23.548V22.27Z" fill="black"/>
        <path d="M26.0946 22.27H23.5466V24.818H26.0946V22.27Z" fill="#E3E3E3"/>
        <path d="M28.63 22.27H26.082V24.818H28.63V22.27Z" fill="#E3E3E3"/>
        <path d="M31.1767 22.27H28.6287V24.818H31.1767V22.27Z" fill="#E3E3E3"/>
        <path d="M33.7248 22.27H31.1768V24.818H33.7248V22.27Z" fill="#E3E3E3"/>
        <path d="M36.2729 22.27H33.7249V24.818H36.2729V22.27Z" fill="black"/>
        <path d="M38.8207 22.27H36.2727V24.818H38.8207V22.27Z" fill="#E3E3E3"/>
        <path d="M41.3534 22.27H38.8054V24.818H41.3534V22.27Z" fill="black"/>
        <path d="M43.9027 22.27H41.3547V24.818H43.9027V22.27Z" fill="#E3E3E3"/>
        <path d="M46.4494 22.27H43.9014V24.818H46.4494V22.27Z" fill="#E3E3E3"/>
        <path d="M48.9987 22.27H46.4507V24.818H48.9987V22.27Z" fill="#E3E3E3"/>
        <path d="M51.5456 22.27H48.9976V24.818H51.5456V22.27Z" fill="black"/>
        <path d="M54.0783 22.27H51.5303V24.818H54.0783V22.27Z" fill="white"/>
        <path d="M10.8234 24.8184H8.27539V27.3664H10.8234V24.8184Z" fill="white"/>
        <path d="M13.3712 24.8184H10.8232V27.3664H13.3712V24.8184Z" fill="black"/>
        <path d="M15.904 24.8184H13.356V27.3664H15.904V24.8184Z" fill="#8C8C8C"/>
        <path d="M18.4521 24.8184H15.9041V27.3664H18.4521V24.8184Z" fill="#E3E3E3"/>
        <path d="M20.9999 24.8184H18.4519V27.3664H20.9999V24.8184Z" fill="black"/>
        <path d="M23.548 24.8184H21V27.3664H23.548V24.8184Z" fill="#E3E3E3"/>
        <path d="M26.0946 24.8184H23.5466V27.3664H26.0946V24.8184Z" fill="#E3E3E3"/>
        <path d="M28.63 24.8184H26.082V27.3664H28.63V24.8184Z" fill="#E3E3E3"/>
        <path d="M31.1767 24.8184H28.6287V27.3664H31.1767V24.8184Z" fill="#E3E3E3"/>
        <path d="M33.7248 24.8184H31.1768V27.3664H33.7248V24.8184Z" fill="black"/>
        <path d="M36.2729 24.8184H33.7249V27.3664H36.2729V24.8184Z" fill="#E3E3E3"/>
        <path d="M38.8207 24.8184H36.2727V27.3664H38.8207V24.8184Z" fill="#E3E3E3"/>
        <path d="M41.3534 24.8184H38.8054V27.3664H41.3534V24.8184Z" fill="#E3E3E3"/>
        <path d="M43.9027 24.8184H41.3547V27.3664H43.9027V24.8184Z" fill="black"/>
        <path d="M46.4494 24.8184H43.9014V27.3664H46.4494V24.8184Z" fill="#E3E3E3"/>
        <path d="M48.9987 24.8184H46.4507V27.3664H48.9987V24.8184Z" fill="#E3E3E3"/>
        <path d="M51.5456 24.8184H48.9976V27.3664H51.5456V24.8184Z" fill="black"/>
        <path d="M54.0783 24.8184H51.5303V27.3664H54.0783V24.8184Z" fill="white"/>
        <path d="M10.8234 27.3662H8.27539V29.9142H10.8234V27.3662Z" fill="white"/>
        <path d="M13.3712 27.3662H10.8232V29.9142H13.3712V27.3662Z" fill="black"/>
        <path d="M15.904 27.3662H13.356V29.9142H15.904V27.3662Z" fill="#8C8C8C"/>
        <path d="M18.4521 27.3662H15.9041V29.9142H18.4521V27.3662Z" fill="black"/>
        <path d="M20.9999 27.3662H18.4519V29.9142H20.9999V27.3662Z" fill="#E3E3E3"/>
        <path d="M23.548 27.3662H21V29.9142H23.548V27.3662Z" fill="#E3E3E3"/>
        <path d="M26.0946 27.3662H23.5466V29.9142H26.0946V27.3662Z" fill="#E3E3E3"/>
        <path d="M28.63 27.3662H26.082V29.9142H28.63V27.3662Z" fill="#E3E3E3"/>
        <path d="M31.1767 27.3662H28.6287V29.9142H31.1767V27.3662Z" fill="#E3E3E3"/>
        <path d="M33.7248 27.3662H31.1768V29.9142H33.7248V27.3662Z" fill="black"/>
        <path d="M36.2729 27.3662H33.7249V29.9142H36.2729V27.3662Z" fill="#E3E3E3"/>
        <path d="M38.8207 27.3662H36.2727V29.9142H38.8207V27.3662Z" fill="#E3E3E3"/>
        <path d="M41.3534 27.3662H38.8054V29.9142H41.3534V27.3662Z" fill="#E3E3E3"/>
        <path d="M43.9027 27.3662H41.3547V29.9142H43.9027V27.3662Z" fill="#E3E3E3"/>
        <path d="M46.4494 27.3662H43.9014V29.9142H46.4494V27.3662Z" fill="black"/>
        <path d="M48.9987 27.3662H46.4507V29.9142H48.9987V27.3662Z" fill="#E3E3E3"/>
        <path d="M51.5456 27.3662H48.9976V29.9142H51.5456V27.3662Z" fill="black"/>
        <path d="M54.0783 27.3662H51.5303V29.9142H54.0783V27.3662Z" fill="white"/>
        <path d="M10.8234 29.8989H8.27539V32.4469H10.8234V29.8989Z" fill="white"/>
        <path d="M13.3712 29.8989H10.8232V32.4469H13.3712V29.8989Z" fill="black"/>
        <path d="M15.904 29.8989H13.356V32.4469H15.904V29.8989Z" fill="#8C8C8C"/>
        <path d="M18.4521 29.8989H15.9041V32.4469H18.4521V29.8989Z" fill="#E3E3E3"/>
        <path d="M20.9999 29.8989H18.4519V32.4469H20.9999V29.8989Z" fill="#E3E3E3"/>
        <path d="M23.548 29.8989H21V32.4469H23.548V29.8989Z" fill="#E3E3E3"/>
        <path d="M26.0946 29.8989H23.5466V32.4469H26.0946V29.8989Z" fill="#E3E3E3"/>
        <path d="M28.63 29.8989H26.082V32.4469H28.63V29.8989Z" fill="#E3E3E3"/>
        <path d="M31.1767 29.8989H28.6287V32.4469H31.1767V29.8989Z" fill="black"/>
        <path d="M33.7248 29.8989H31.1768V32.4469H33.7248V29.8989Z" fill="#E3E3E3"/>
        <path d="M36.2729 29.8989H33.7249V32.4469H36.2729V29.8989Z" fill="#E3E3E3"/>
        <path d="M38.8207 29.8989H36.2727V32.4469H38.8207V29.8989Z" fill="#E3E3E3"/>
        <path d="M41.3534 29.8989H38.8054V32.4469H41.3534V29.8989Z" fill="#E3E3E3"/>
        <path d="M43.9027 29.8989H41.3547V32.4469H43.9027V29.8989Z" fill="#E3E3E3"/>
        <path d="M46.4494 29.8989H43.9014V32.4469H46.4494V29.8989Z" fill="#E3E3E3"/>
        <path d="M48.9987 29.8989H46.4507V32.4469H48.9987V29.8989Z" fill="#E3E3E3"/>
        <path d="M51.5456 29.8989H48.9976V32.4469H51.5456V29.8989Z" fill="black"/>
        <path d="M54.0783 29.8989H51.5303V32.4469H54.0783V29.8989Z" fill="white"/>
        <path d="M10.8234 32.4468H8.27539V34.9948H10.8234V32.4468Z" fill="white"/>
        <path d="M13.3712 32.4468H10.8232V34.9948H13.3712V32.4468Z" fill="black"/>
        <path d="M15.904 32.4468H13.356V34.9948H15.904V32.4468Z" fill="#8C8C8C"/>
        <path d="M18.4521 32.4468H15.9041V34.9948H18.4521V32.4468Z" fill="black"/>
        <path d="M20.9999 32.4468H18.4519V34.9948H20.9999V32.4468Z" fill="#E3E3E3"/>
        <path d="M23.548 32.4468H21V34.9948H23.548V32.4468Z" fill="#E3E3E3"/>
        <path d="M26.0946 32.4468H23.5466V34.9948H26.0946V32.4468Z" fill="#E3E3E3"/>
        <path d="M28.63 32.4468H26.082V34.9948H28.63V32.4468Z" fill="#E3E3E3"/>
        <path d="M31.1767 32.4468H28.6287V34.9948H31.1767V32.4468Z" fill="black"/>
        <path d="M33.7248 32.4468H31.1768V34.9948H33.7248V32.4468Z" fill="#E3E3E3"/>
        <path d="M36.2729 32.4468H33.7249V34.9948H36.2729V32.4468Z" fill="#E3E3E3"/>
        <path d="M38.8207 32.4468H36.2727V34.9948H38.8207V32.4468Z" fill="#E3E3E3"/>
        <path d="M41.3534 32.4468H38.8054V34.9948H41.3534V32.4468Z" fill="#E3E3E3"/>
        <path d="M43.9027 32.4468H41.3547V34.9948H43.9027V32.4468Z" fill="#E3E3E3"/>
        <path d="M46.4494 32.4468H43.9014V34.9948H46.4494V32.4468Z" fill="black"/>
        <path d="M48.9987 32.4468H46.4507V34.9948H48.9987V32.4468Z" fill="#E3E3E3"/>
        <path d="M51.5456 32.4468H48.9976V34.9948H51.5456V32.4468Z" fill="black"/>
        <path d="M54.0783 32.4468H51.5303V34.9948H54.0783V32.4468Z" fill="white"/>
        <path d="M10.8234 34.9946H8.27539V37.5426H10.8234V34.9946Z" fill="white"/>
        <path d="M13.3712 34.9946H10.8232V37.5426H13.3712V34.9946Z" fill="black"/>
        <path d="M15.904 34.9946H13.356V37.5426H15.904V34.9946Z" fill="#8C8C8C"/>
        <path d="M18.4521 34.9946H15.9041V37.5426H18.4521V34.9946Z" fill="#E3E3E3"/>
        <path d="M20.9999 34.9946H18.4519V37.5426H20.9999V34.9946Z" fill="black"/>
        <path d="M23.548 34.9946H21V37.5426H23.548V34.9946Z" fill="#E3E3E3"/>
        <path d="M26.0946 34.9946H23.5466V37.5426H26.0946V34.9946Z" fill="#E3E3E3"/>
        <path d="M28.63 34.9946H26.082V37.5426H28.63V34.9946Z" fill="#E3E3E3"/>
        <path d="M31.1767 34.9946H28.6287V37.5426H31.1767V34.9946Z" fill="black"/>
        <path d="M33.7248 34.9946H31.1768V37.5426H33.7248V34.9946Z" fill="#E3E3E3"/>
        <path d="M36.2729 34.9946H33.7249V37.5426H36.2729V34.9946Z" fill="#E3E3E3"/>
        <path d="M38.8207 34.9946H36.2727V37.5426H38.8207V34.9946Z" fill="#E3E3E3"/>
        <path d="M41.3534 34.9946H38.8054V37.5426H41.3534V34.9946Z" fill="#E3E3E3"/>
        <path d="M43.9027 34.9946H41.3547V37.5426H43.9027V34.9946Z" fill="black"/>
        <path d="M46.4494 34.9946H43.9014V37.5426H46.4494V34.9946Z" fill="#E3E3E3"/>
        <path d="M48.9987 34.9946H46.4507V37.5426H48.9987V34.9946Z" fill="#E3E3E3"/>
        <path d="M51.5456 34.9946H48.9976V37.5426H51.5456V34.9946Z" fill="black"/>
        <path d="M54.0783 34.9946H51.5303V37.5426H54.0783V34.9946Z" fill="white"/>
        <path d="M10.8234 37.543H8.27539V40.091H10.8234V37.543Z" fill="white"/>
        <path d="M13.3712 37.543H10.8232V40.091H13.3712V37.543Z" fill="black"/>
        <path d="M15.904 37.543H13.356V40.091H15.904V37.543Z" fill="#8C8C8C"/>
        <path d="M18.4521 37.543H15.9041V40.091H18.4521V37.543Z" fill="#E3E3E3"/>
        <path d="M20.9999 37.543H18.4519V40.091H20.9999V37.543Z" fill="#E3E3E3"/>
        <path d="M23.548 37.543H21V40.091H23.548V37.543Z" fill="black"/>
        <path d="M26.0946 37.543H23.5466V40.091H26.0946V37.543Z" fill="#E3E3E3"/>
        <path d="M28.63 37.543H26.082V40.091H28.63V37.543Z" fill="black"/>
        <path d="M31.1767 37.543H28.6287V40.091H31.1767V37.543Z" fill="#E3E3E3"/>
        <path d="M33.7248 37.543H31.1768V40.091H33.7248V37.543Z" fill="#E3E3E3"/>
        <path d="M36.2729 37.543H33.7249V40.091H36.2729V37.543Z" fill="#E3E3E3"/>
        <path d="M38.8207 37.543H36.2727V40.091H38.8207V37.543Z" fill="#E3E3E3"/>
        <path d="M41.3534 37.543H38.8054V40.091H41.3534V37.543Z" fill="black"/>
        <path d="M43.9027 37.543H41.3547V40.091H43.9027V37.543Z" fill="#E3E3E3"/>
        <path d="M46.4494 37.543H43.9014V40.091H46.4494V37.543Z" fill="#E3E3E3"/>
        <path d="M48.9987 37.543H46.4507V40.091H48.9987V37.543Z" fill="#E3E3E3"/>
        <path d="M51.5456 37.543H48.9976V40.091H51.5456V37.543Z" fill="black"/>
        <path d="M54.0783 37.543H51.5303V40.091H54.0783V37.543Z" fill="white"/>
        <path d="M10.8234 40.0908H8.27539V42.6388H10.8234V40.0908Z" fill="white"/>
        <path d="M13.3712 40.0908H10.8232V42.6388H13.3712V40.0908Z" fill="black"/>
        <path d="M15.904 40.0908H13.356V42.6388H15.904V40.0908Z" fill="#8C8C8C"/>
        <path d="M18.4521 40.0908H15.9041V42.6388H18.4521V40.0908Z" fill="#E3E3E3"/>
        <path d="M20.9999 40.0908H18.4519V42.6388H20.9999V40.0908Z" fill="#E3E3E3"/>
        <path d="M23.548 40.0908H21V42.6388H23.548V40.0908Z" fill="#E3E3E3"/>
        <path d="M26.0946 40.0908H23.5466V42.6388H26.0946V40.0908Z" fill="#E3E3E3"/>
        <path d="M28.63 40.0908H26.082V42.6388H28.63V40.0908Z" fill="black"/>
        <path d="M31.1767 40.0908H28.6287V42.6388H31.1767V40.0908Z" fill="#E3E3E3"/>
        <path d="M33.7248 40.0908H31.1768V42.6388H33.7248V40.0908Z" fill="#E3E3E3"/>
        <path d="M36.2729 40.0908H33.7249V42.6388H36.2729V40.0908Z" fill="#E3E3E3"/>
        <path d="M38.8207 40.0908H36.2727V42.6388H38.8207V40.0908Z" fill="#E3E3E3"/>
        <path d="M41.3534 40.0908H38.8054V42.6388H41.3534V40.0908Z" fill="#E3E3E3"/>
        <path d="M43.9027 40.0908H41.3547V42.6388H43.9027V40.0908Z" fill="#E3E3E3"/>
        <path d="M46.4494 40.0908H43.9014V42.6388H46.4494V40.0908Z" fill="#E3E3E3"/>
        <path d="M48.9987 40.0908H46.4507V42.6388H48.9987V40.0908Z" fill="#D9D9D9"/>
        <path d="M51.5456 40.0908H48.9976V42.6388H51.5456V40.0908Z" fill="black"/>
        <path d="M54.0783 40.0908H51.5303V42.6388H54.0783V40.0908Z" fill="white"/>
        <path d="M10.8234 42.6235H8.27539V45.1715H10.8234V42.6235Z" fill="white"/>
        <path d="M13.3712 42.6235H10.8232V45.1715H13.3712V42.6235Z" fill="black"/>
        <path d="M15.904 42.6235H13.356V45.1715H15.904V42.6235Z" fill="#8C8C8C"/>
        <path d="M18.4521 42.6235H15.9041V45.1715H18.4521V42.6235Z" fill="white"/>
        <path d="M20.9999 42.6235H18.4519V45.1715H20.9999V42.6235Z" fill="white"/>
        <path d="M23.548 42.6235H21V45.1715H23.548V42.6235Z" fill="white"/>
        <path d="M26.0946 42.6235H23.5466V45.1715H26.0946V42.6235Z" fill="white"/>
        <path d="M28.63 42.6235H26.082V45.1715H28.63V42.6235Z" fill="white"/>
        <path d="M31.1767 42.6235H28.6287V45.1715H31.1767V42.6235Z" fill="white"/>
        <path d="M33.7248 42.6235H31.1768V45.1715H33.7248V42.6235Z" fill="white"/>
        <path d="M36.2729 42.6235H33.7249V45.1715H36.2729V42.6235Z" fill="white"/>
        <path d="M38.8207 42.6235H36.2727V45.1715H38.8207V42.6235Z" fill="white"/>
        <path d="M41.3534 42.6235H38.8054V45.1715H41.3534V42.6235Z" fill="white"/>
        <path d="M43.9027 42.6235H41.3547V45.1715H43.9027V42.6235Z" fill="white"/>
        <path d="M46.4494 42.6235H43.9014V45.1715H46.4494V42.6235Z" fill="white"/>
        <path d="M48.9987 42.6235H46.4507V45.1715H48.9987V42.6235Z" fill="white"/>
        <path d="M51.5456 42.6235H48.9976V45.1715H51.5456V42.6235Z" fill="black"/>
        <path d="M54.0783 42.6235H51.5303V45.1715H54.0783V42.6235Z" fill="white"/>
        <path d="M10.8234 45.1714H8.27539V47.7194H10.8234V45.1714Z" fill="white"/>
        <path d="M13.3712 45.1714H10.8232V47.7194H13.3712V45.1714Z" fill="black"/>
        <path d="M15.904 45.1714H13.356V47.7194H15.904V45.1714Z" fill="#8C8C8C"/>
        <path d="M18.4521 45.1714H15.9041V47.7194H18.4521V45.1714Z" fill="#808080"/>
        <path d="M20.9999 45.1714H18.4519V47.7194H20.9999V45.1714Z" fill="#808080"/>
        <path d="M23.548 45.1714H21V47.7194H23.548V45.1714Z" fill="#808080"/>
        <path d="M26.0946 45.1714H23.5466V47.7194H26.0946V45.1714Z" fill="#808080"/>
        <path d="M28.63 45.1714H26.082V47.7194H28.63V45.1714Z" fill="#808080"/>
        <path d="M31.1767 45.1714H28.6287V47.7194H31.1767V45.1714Z" fill="#808080"/>
        <path d="M33.7248 45.1714H31.1768V47.7194H33.7248V45.1714Z" fill="#808080"/>
        <path d="M36.2729 45.1714H33.7249V47.7194H36.2729V45.1714Z" fill="#808080"/>
        <path d="M38.8207 45.1714H36.2727V47.7194H38.8207V45.1714Z" fill="#808080"/>
        <path d="M41.3534 45.1714H38.8054V47.7194H41.3534V45.1714Z" fill="#808080"/>
        <path d="M43.9027 45.1714H41.3547V47.7194H43.9027V45.1714Z" fill="#808080"/>
        <path d="M46.4494 45.1714H43.9014V47.7194H46.4494V45.1714Z" fill="#808080"/>
        <path d="M48.9987 45.1714H46.4507V47.7194H48.9987V45.1714Z" fill="#8C8C8C"/>
        <path d="M51.5456 45.1714H48.9976V47.7194H51.5456V45.1714Z" fill="black"/>
        <path d="M54.0783 45.1714H51.5303V47.7194H54.0783V45.1714Z" fill="white"/>
        <path d="M10.8234 47.7197H8.27539V50.2677H10.8234V47.7197Z" fill="white"/>
        <path d="M13.3712 47.7197H10.8232V50.2677H13.3712V47.7197Z" fill="white"/>
        <path d="M15.904 47.7197H13.356V50.2677H15.904V47.7197Z" fill="black"/>
        <path d="M18.4521 47.7197H15.9041V50.2677H18.4521V47.7197Z" fill="#8C8C8C"/>
        <path d="M20.9999 47.7197H18.4519V50.2677H20.9999V47.7197Z" fill="#8C8C8C"/>
        <path d="M23.548 47.7197H21V50.2677H23.548V47.7197Z" fill="#8C8C8C"/>
        <path d="M26.0946 47.7197H23.5466V50.2677H26.0946V47.7197Z" fill="#8C8C8C"/>
        <path d="M28.63 47.7197H26.082V50.2677H28.63V47.7197Z" fill="#8C8C8C"/>
        <path d="M31.1767 47.7197H28.6287V50.2677H31.1767V47.7197Z" fill="#8C8C8C"/>
        <path d="M33.7248 47.7197H31.1768V50.2677H33.7248V47.7197Z" fill="#8C8C8C"/>
        <path d="M36.2729 47.7197H33.7249V50.2677H36.2729V47.7197Z" fill="#8C8C8C"/>
        <path d="M38.8207 47.7197H36.2727V50.2677H38.8207V47.7197Z" fill="#8C8C8C"/>
        <path d="M41.3534 47.7197H38.8054V50.2677H41.3534V47.7197Z" fill="#8C8C8C"/>
        <path d="M43.9027 47.7197H41.3547V50.2677H43.9027V47.7197Z" fill="#8C8C8C"/>
        <path d="M46.4494 47.7197H43.9014V50.2677H46.4494V47.7197Z" fill="#8C8C8C"/>
        <path d="M48.9987 47.7197H46.4507V50.2677H48.9987V47.7197Z" fill="black"/>
        <path d="M51.5456 47.7197H48.9976V50.2677H51.5456V47.7197Z" fill="white"/>
        <path d="M54.0783 47.7197H51.5303V50.2677H54.0783V47.7197Z" fill="white"/>
        <path d="M13.3712 50.2676H10.8232V52.8156H13.3712V50.2676Z" fill="white"/>
        <path d="M15.904 50.2676H13.356V52.8156H15.904V50.2676Z" fill="white"/>
        <path d="M18.4521 50.2676H15.9041V52.8156H18.4521V50.2676Z" fill="black"/>
        <path d="M20.9999 50.2676H18.4519V52.8156H20.9999V50.2676Z" fill="black"/>
        <path d="M23.548 50.2676H21V52.8156H23.548V50.2676Z" fill="black"/>
        <path d="M26.0946 50.2676H23.5466V52.8156H26.0946V50.2676Z" fill="black"/>
        <path d="M28.63 50.2676H26.082V52.8156H28.63V50.2676Z" fill="black"/>
        <path d="M31.1767 50.2676H28.6287V52.8156H31.1767V50.2676Z" fill="black"/>
        <path d="M33.7248 50.2676H31.1768V52.8156H33.7248V50.2676Z" fill="black"/>
        <path d="M36.2729 50.2676H33.7249V52.8156H36.2729V50.2676Z" fill="black"/>
        <path d="M38.8207 50.2676H36.2727V52.8156H38.8207V50.2676Z" fill="black"/>
        <path d="M41.3534 50.2676H38.8054V52.8156H41.3534V50.2676Z" fill="black"/>
        <path d="M43.9027 50.2676H41.3547V52.8156H43.9027V50.2676Z" fill="black"/>
        <path d="M46.4494 50.2676H43.9014V52.8156H46.4494V50.2676Z" fill="black"/>
        <path d="M48.9987 50.2676H46.4507V52.8156H48.9987V50.2676Z" fill="white"/>
        <path d="M51.5456 50.2676H48.9976V52.8156H51.5456V50.2676Z" fill="white"/>
        <path d="M15.904 52.8154H13.356V55.3634H15.904V52.8154Z" fill="white"/>
        <path d="M18.4521 52.8154H15.9041V55.3634H18.4521V52.8154Z" fill="white"/>
        <path d="M15.904 9.54541H13.356V12.0934H15.904V9.54541Z" fill="white"/>
        <path d="M13.3712 12.0933H10.8232V14.6413H13.3712V12.0933Z" fill="white"/>
        <path d="M15.904 12.0933H13.356V14.6413H15.904V12.0933Z" fill="black"/>
        <path d="M10.8234 14.6416H8.27539V17.1896H10.8234V14.6416Z" fill="white"/>
        <path d="M13.3712 14.6416H10.8232V17.1896H13.3712V14.6416Z" fill="black"/>
        <path d="M15.904 14.6416H13.356V17.1896H15.904V14.6416Z" fill="#8C8C8C"/>
        <path d="M8.2753 17.1743H5.72729V19.7223H8.2753V17.1743Z" fill="white"/>
        <path d="M10.8234 17.1743H8.27539V19.7223H10.8234V17.1743Z" fill="black"/>
        <path d="M13.3712 17.1743H10.8232V19.7223H13.3712V17.1743Z" fill="#8C8C8C"/>
        <path d="M15.904 17.1743H13.356V19.7223H15.904V17.1743Z" fill="#E3E3E3"/>
        <path d="M8.2753 19.7222H5.72729V22.2702H8.2753V19.7222Z" fill="white"/>
        <path d="M10.8234 19.7222H8.27539V22.2702H10.8234V19.7222Z" fill="black"/>
        <path d="M13.3712 19.7222H10.8232V22.2702H13.3712V19.7222Z" fill="#8C8C8C"/>
        <path d="M15.904 19.7222H13.356V22.2702H15.904V19.7222Z" fill="#E3E3E3"/>
        <path d="M8.2753 22.27H5.72729V24.818H8.2753V22.27Z" fill="white"/>
        <path d="M10.8234 22.27H8.27539V24.818H10.8234V22.27Z" fill="black"/>
        <path d="M13.3712 22.27H10.8232V24.818H13.3712V22.27Z" fill="#8C8C8C"/>
        <path d="M15.904 22.27H13.356V24.818H15.904V22.27Z" fill="#E3E3E3"/>
        <path d="M8.2753 24.8184H5.72729V27.3664H8.2753V24.8184Z" fill="white"/>
        <path d="M10.8234 24.8184H8.27539V27.3664H10.8234V24.8184Z" fill="black"/>
        <path d="M13.3712 24.8184H10.8232V27.3664H13.3712V24.8184Z" fill="#8C8C8C"/>
        <path d="M15.904 24.8184H13.356V27.3664H15.904V24.8184Z" fill="#E3E3E3"/>
        <path d="M8.2753 27.3662H5.72729V29.9142H8.2753V27.3662Z" fill="white"/>
        <path d="M10.8234 27.3662H8.27539V29.9142H10.8234V27.3662Z" fill="black"/>
        <path d="M13.3712 27.3662H10.8232V29.9142H13.3712V27.3662Z" fill="#8C8C8C"/>
        <path d="M15.904 27.3662H13.356V29.9142H15.904V27.3662Z" fill="#E3E3E3"/>
        <path d="M8.2753 29.8989H5.72729V32.4469H8.2753V29.8989Z" fill="white"/>
        <path d="M10.8234 29.8989H8.27539V32.4469H10.8234V29.8989Z" fill="black"/>
        <path d="M13.3712 29.8989H10.8232V32.4469H13.3712V29.8989Z" fill="#8C8C8C"/>
        <path d="M15.904 29.8989H13.356V32.4469H15.904V29.8989Z" fill="black"/>
        <path d="M8.2753 32.4468H5.72729V34.9948H8.2753V32.4468Z" fill="white"/>
        <path d="M10.8234 32.4468H8.27539V34.9948H10.8234V32.4468Z" fill="black"/>
        <path d="M13.3712 32.4468H10.8232V34.9948H13.3712V32.4468Z" fill="#8C8C8C"/>
        <path d="M15.904 32.4468H13.356V34.9948H15.904V32.4468Z" fill="#E3E3E3"/>
        <path d="M8.2753 34.9946H5.72729V37.5426H8.2753V34.9946Z" fill="white"/>
        <path d="M10.8234 34.9946H8.27539V37.5426H10.8234V34.9946Z" fill="black"/>
        <path d="M13.3712 34.9946H10.8232V37.5426H13.3712V34.9946Z" fill="#8C8C8C"/>
        <path d="M15.904 34.9946H13.356V37.5426H15.904V34.9946Z" fill="#E3E3E3"/>
        <path d="M8.2753 37.543H5.72729V40.091H8.2753V37.543Z" fill="white"/>
        <path d="M10.8234 37.543H8.27539V40.091H10.8234V37.543Z" fill="black"/>
        <path d="M13.3712 37.543H10.8232V40.091H13.3712V37.543Z" fill="#8C8C8C"/>
        <path d="M15.904 37.543H13.356V40.091H15.904V37.543Z" fill="#E3E3E3"/>
        <path d="M8.2753 40.0908H5.72729V42.6388H8.2753V40.0908Z" fill="white"/>
        <path d="M10.8234 40.0908H8.27539V42.6388H10.8234V40.0908Z" fill="black"/>
        <path d="M13.3712 40.0908H10.8232V42.6388H13.3712V40.0908Z" fill="#8C8C8C"/>
        <path d="M15.904 40.0908H13.356V42.6388H15.904V40.0908Z" fill="white"/>
        <path d="M8.2753 42.6235H5.72729V45.1715H8.2753V42.6235Z" fill="white"/>
        <path d="M10.8234 42.6235H8.27539V45.1715H10.8234V42.6235Z" fill="black"/>
        <path d="M13.3712 42.6235H10.8232V45.1715H13.3712V42.6235Z" fill="#8C8C8C"/>
        <path d="M15.904 42.6235H13.356V45.1715H15.904V42.6235Z" fill="#808080"/>
        <path d="M8.2753 45.1714H5.72729V47.7194H8.2753V45.1714Z" fill="white"/>
        <path d="M10.8234 45.1714H8.27539V47.7194H10.8234V45.1714Z" fill="black"/>
        <path d="M13.3712 45.1714H10.8232V47.7194H13.3712V45.1714Z" fill="#8C8C8C"/>
        <path d="M15.904 45.1714H13.356V47.7194H15.904V45.1714Z" fill="#8C8C8C"/>
        <path d="M8.2753 47.7197H5.72729V50.2677H8.2753V47.7197Z" fill="white"/>
        <path d="M10.8234 47.7197H8.27539V50.2677H10.8234V47.7197Z" fill="white"/>
        <path d="M13.3712 47.7197H10.8232V50.2677H13.3712V47.7197Z" fill="black"/>
        <path d="M15.904 47.7197H13.356V50.2677H15.904V47.7197Z" fill="#8C8C8C"/>
        <path d="M10.8234 50.2676H8.27539V52.8156H10.8234V50.2676Z" fill="white"/>
        <path d="M13.3712 50.2676H10.8232V52.8156H13.3712V50.2676Z" fill="white"/>
        <path d="M15.904 50.2676H13.356V52.8156H15.904V50.2676Z" fill="black"/>
        <path d="M13.3712 52.8154H10.8232V55.3634H13.3712V52.8154Z" fill="white"/>
        <path d="M15.904 52.8154H13.356V55.3634H15.904V52.8154Z" fill="white"/>
        <path d="M20.9999 52.8154H18.4519V55.3634H20.9999V52.8154Z" fill="white"/>
        <path d="M23.548 52.8154H21V55.3634H23.548V52.8154Z" fill="white"/>
        <path d="M26.0946 52.8154H23.5466V55.3634H26.0946V52.8154Z" fill="white"/>
        <path d="M28.63 52.8154H26.082V55.3634H28.63V52.8154Z" fill="white"/>
        <path d="M31.1767 52.8154H28.6287V55.3634H31.1767V52.8154Z" fill="white"/>
        <path d="M33.7248 52.8154H31.1768V55.3634H33.7248V52.8154Z" fill="white"/>
        <path d="M36.2729 52.8154H33.7249V55.3634H36.2729V52.8154Z" fill="white"/>
        <path d="M38.8207 52.8154H36.2727V55.3634H38.8207V52.8154Z" fill="white"/>
        <path d="M41.3534 52.8154H38.8054V55.3634H41.3534V52.8154Z" fill="white"/>
        <path d="M43.9027 52.8154H41.3547V55.3634H43.9027V52.8154Z" fill="white"/>
        <path d="M46.4494 52.8154H43.9014V55.3634H46.4494V52.8154Z" fill="white"/>
        <path d="M48.9987 52.8154H46.4507V55.3634H48.9987V52.8154Z" fill="white"/>
        <path d="M48.9987 9.54541H46.4507V12.0934H48.9987V9.54541Z" fill="white"/>
        <path d="M48.9987 12.0933H46.4507V14.6413H48.9987V12.0933Z" fill="black"/>
        <path d="M51.5456 12.0933H48.9976V14.6413H51.5456V12.0933Z" fill="white"/>
        <path d="M51.5456 14.6416H48.9976V17.1896H51.5456V14.6416Z" fill="black"/>
        <path d="M54.0783 14.6416H51.5303V17.1896H54.0783V14.6416Z" fill="white"/>
        <path d="M48.9987 17.1743H46.4507V19.7223H48.9987V17.1743Z" fill="#E3E3E3"/>
        <path d="M51.5456 17.1743H48.9976V19.7223H51.5456V17.1743Z" fill="#E3E3E3"/>
        <path d="M54.0783 17.1743H51.5303V19.7223H54.0783V17.1743Z" fill="black"/>
        <path d="M56.6276 17.1743H54.0796V19.7223H56.6276V17.1743Z" fill="white"/>
        <path d="M48.9987 19.7222H46.4507V22.2702H48.9987V19.7222Z" fill="#E3E3E3"/>
        <path d="M51.5456 19.7222H48.9976V22.2702H51.5456V19.7222Z" fill="#E3E3E3"/>
        <path d="M54.0783 19.7222H51.5303V22.2702H54.0783V19.7222Z" fill="black"/>
        <path d="M56.6276 19.7222H54.0796V22.2702H56.6276V19.7222Z" fill="white"/>
        <path d="M48.9987 22.27H46.4507V24.818H48.9987V22.27Z" fill="#E3E3E3"/>
        <path d="M51.5456 22.27H48.9976V24.818H51.5456V22.27Z" fill="#E3E3E3"/>
        <path d="M54.0783 22.27H51.5303V24.818H54.0783V22.27Z" fill="black"/>
        <path d="M56.6276 22.27H54.0796V24.818H56.6276V22.27Z" fill="white"/>
        <path d="M48.9987 24.8184H46.4507V27.3664H48.9987V24.8184Z" fill="#E3E3E3"/>
        <path d="M51.5456 24.8184H48.9976V27.3664H51.5456V24.8184Z" fill="#E3E3E3"/>
        <path d="M54.0783 24.8184H51.5303V27.3664H54.0783V24.8184Z" fill="black"/>
        <path d="M56.6276 24.8184H54.0796V27.3664H56.6276V24.8184Z" fill="white"/>
        <path d="M48.9987 27.3662H46.4507V29.9142H48.9987V27.3662Z" fill="#E3E3E3"/>
        <path d="M51.5456 27.3662H48.9976V29.9142H51.5456V27.3662Z" fill="#E3E3E3"/>
        <path d="M54.0783 27.3662H51.5303V29.9142H54.0783V27.3662Z" fill="black"/>
        <path d="M56.6276 27.3662H54.0796V29.9142H56.6276V27.3662Z" fill="white"/>
        <path d="M48.9987 29.8989H46.4507V32.4469H48.9987V29.8989Z" fill="black"/>
        <path d="M51.5456 29.8989H48.9976V32.4469H51.5456V29.8989Z" fill="#E3E3E3"/>
        <path d="M54.0783 29.8989H51.5303V32.4469H54.0783V29.8989Z" fill="black"/>
        <path d="M56.6276 29.8989H54.0796V32.4469H56.6276V29.8989Z" fill="white"/>
        <path d="M48.9987 32.4468H46.4507V34.9948H48.9987V32.4468Z" fill="#E3E3E3"/>
        <path d="M51.5456 32.4468H48.9976V34.9948H51.5456V32.4468Z" fill="#E3E3E3"/>
        <path d="M54.0783 32.4468H51.5303V34.9948H54.0783V32.4468Z" fill="black"/>
        <path d="M56.6276 32.4468H54.0796V34.9948H56.6276V32.4468Z" fill="white"/>
        <path d="M48.9987 34.9946H46.4507V37.5426H48.9987V34.9946Z" fill="#E3E3E3"/>
        <path d="M51.5456 34.9946H48.9976V37.5426H51.5456V34.9946Z" fill="#E3E3E3"/>
        <path d="M54.0783 34.9946H51.5303V37.5426H54.0783V34.9946Z" fill="black"/>
        <path d="M56.6276 34.9946H54.0796V37.5426H56.6276V34.9946Z" fill="white"/>
        <path d="M48.9987 37.543H46.4507V40.091H48.9987V37.543Z" fill="#E3E3E3"/>
        <path d="M51.5456 37.543H48.9976V40.091H51.5456V37.543Z" fill="#E3E3E3"/>
        <path d="M54.0783 37.543H51.5303V40.091H54.0783V37.543Z" fill="black"/>
        <path d="M56.6276 37.543H54.0796V40.091H56.6276V37.543Z" fill="white"/>
        <path d="M48.9987 40.0908H46.4507V42.6388H48.9987V40.0908Z" fill="#E3E3E3"/>
        <path d="M51.5456 40.0908H48.9976V42.6388H51.5456V40.0908Z" fill="white"/>
        <path d="M54.0783 40.0908H51.5303V42.6388H54.0783V40.0908Z" fill="black"/>
        <path d="M56.6276 40.0908H54.0796V42.6388H56.6276V40.0908Z" fill="white"/>
        <path d="M51.5456 42.6235H48.9976V45.1715H51.5456V42.6235Z" fill="#808080"/>
        <path d="M54.0783 42.6235H51.5303V45.1715H54.0783V42.6235Z" fill="black"/>
        <path d="M56.6276 42.6235H54.0796V45.1715H56.6276V42.6235Z" fill="white"/>
        <path d="M48.9987 45.1714H46.4507V47.7194H48.9987V45.1714Z" fill="#808080"/>
        <path d="M51.5456 45.1714H48.9976V47.7194H51.5456V45.1714Z" fill="#8C8C8C"/>
        <path d="M54.0783 45.1714H51.5303V47.7194H54.0783V45.1714Z" fill="black"/>
        <path d="M56.6276 45.1714H54.0796V47.7194H56.6276V45.1714Z" fill="white"/>
        <path d="M48.9987 47.7197H46.4507V50.2677H48.9987V47.7197Z" fill="#8C8C8C"/>
        <path d="M51.5456 47.7197H48.9976V50.2677H51.5456V47.7197Z" fill="black"/>
        <path d="M54.0783 47.7197H51.5303V50.2677H54.0783V47.7197Z" fill="white"/>
        <path d="M56.6276 47.7197H54.0796V50.2677H56.6276V47.7197Z" fill="white"/>
        <path d="M48.9987 50.2676H46.4507V52.8156H48.9987V50.2676Z" fill="black"/>
        <path d="M51.5456 50.2676H48.9976V52.8156H51.5456V50.2676Z" fill="white"/>
        <path d="M54.0783 50.2676H51.5303V52.8156H54.0783V50.2676Z" fill="white"/>
        <path d="M48.9987 52.8154H46.4507V55.3634H48.9987V52.8154Z" fill="white"/>
        <path d="M51.5456 52.8154H48.9976V55.3634H51.5456V52.8154Z" fill="white"/>
        <path d="M59.1706 37.5342H56.6226V40.0822H59.1706V37.5342Z" fill="#49CE58"/>
        <path d="M61.7184 37.5342H59.1704V40.0822H61.7184V37.5342Z" fill="#39A84A"/>
        <path d="M56.6225 40.082H54.0745V42.63H56.6225V40.082Z" fill="#49CE58"/>
        <path d="M54.0744 42.6304H51.5264V45.1784H54.0744V42.6304Z" fill="#49CE58"/>
        <path d="M59.1706 40.0747H56.6226V42.6227H59.1706V40.0747Z" fill="#39A84A"/>
        <path d="M56.6225 42.6226H54.0745V45.1706H56.6225V42.6226Z" fill="#39A84A"/>
        <path d="M54.0744 45.1704H51.5264V47.7184H54.0744V45.1704Z" fill="#39A84A"/>
        <path d="M36.2653 45.1797H33.7173V47.7277H36.2653V45.1797Z" fill="#49CE58"/>
        <path d="M33.7184 45.1797H31.1704V47.7277H33.7184V45.1797Z" fill="#39A84A"/>
        <path d="M33.7184 42.6226H31.1704V45.1706H33.7184V42.6226Z" fill="#49CE58"/>
        <path d="M31.173 42.6226H28.625V45.1706H31.173V42.6226Z" fill="#39A84A"/>
        <path d="M46.4457 52.8081H43.8977V55.3561H46.4457V52.8081Z" fill="#39A84A"/>
        <path d="M43.8952 55.356H41.3472V57.904H43.8952V55.356Z" fill="#39A84A"/>
        <path d="M48.9911 50.2603H46.4431V52.8083H48.9911V50.2603Z" fill="#39A84A"/>
        <path d="M51.5416 47.7275H48.9937V50.2755H51.5416V47.7275Z" fill="#39A84A"/>
        <path d="M51.5404 45.1797H48.9924V47.7277H51.5404V45.1797Z" fill="#49CE58"/>
        <path d="M38.8131 47.7275H36.2651V50.2755H38.8131V47.7275Z" fill="#49CE58"/>
        <path d="M48.9923 47.7275H46.4443V50.2755H48.9923V47.7275Z" fill="#49CE58"/>
        <path d="M41.3471 50.2603H38.7991V52.8083H41.3471V50.2603Z" fill="#49CE58"/>
        <path d="M36.2653 47.7197H33.7173V50.2677H36.2653V47.7197Z" fill="#39A84A"/>
        <path d="M38.8131 50.2676H36.2651V52.8156H38.8131V50.2676Z" fill="#39A84A"/>
        <path d="M41.3471 52.8018H38.7991V55.3498H41.3471V52.8018Z" fill="#39A84A"/>
        <path d="M46.4445 50.2603H43.8965V52.8083H46.4445V50.2603Z" fill="#49CE58"/>
        <path d="M43.8952 52.8081H41.3472V55.3561H43.8952V52.8081Z" fill="#49CE58"/>
        <path d="M38.8194 55.3638H36.2739V57.9092H38.8194V55.3638Z" fill="white"/>
        <path d="M41.3587 55.3638H38.8132V57.9092H41.3587V55.3638Z" fill="white"/>
        <path d="M41.3587 57.9092H38.8132V60.4546H41.3587V57.9092Z" fill="white"/>
        <path d="M43.9041 57.9092H41.3586V60.4546H43.9041V57.9092Z" fill="white"/>
        <path d="M46.4419 57.9092H43.8965V60.4546H46.4419V57.9092Z" fill="white"/>
        <path d="M46.4419 55.3638H43.8965V57.9092H46.4419V55.3638Z" fill="white"/>
        <path d="M48.9898 55.3638H46.4443V57.9092H48.9898V55.3638Z" fill="white"/>
        <path d="M59.1692 45.1714H56.6238V47.7168H59.1692V45.1714Z" fill="white"/>
        <path d="M59.1692 42.6226H56.6238V45.168H59.1692V42.6226Z" fill="white"/>
        <path d="M61.7171 42.6226H59.1716V45.168H61.7171V42.6226Z" fill="white"/>
        <path d="M61.7171 40.082H59.1716V42.6275H61.7171V40.082Z" fill="white"/>
        <path d="M64.2625 40.082H61.717V42.6275H64.2625V40.082Z" fill="white"/>
        <path d="M64.2625 37.5352H61.717V40.0806H64.2625V37.5352Z" fill="white"/>
        <path d="M61.7221 35H56.6223V37.5455H61.7221V35Z" fill="white"/>
    </g>
    <defs>
        <clipPath id="clip0_2000_14712">
            <rect width="58.5353" height="50.9091" fill="white" transform="translate(5.72729 9.54541)"/>
        </clipPath>
    </defs>
</svg>
