<svg width="70" height="70" viewBox="0 0 70 70" fill="none" xmlns="http://www.w3.org/2000/svg">
    <path d="M57.909 27.3633H55.3635V40.0906H57.909V27.3633Z" fill="white"/>
    <path d="M34.9998 37.5449H32.4543V40.0904H34.9998V37.5449Z" fill="black"/>
    <path d="M32.4544 40.0908H29.9089V42.6363H32.4544V40.0908Z" fill="black"/>
    <path d="M29.909 22.2725H27.3635V24.8179H29.909V22.2725Z" fill="#A8CFD7"/>
    <path d="M40.0793 22.2725H29.9089V24.8179H40.0793V22.2725Z" fill="white"/>
    <path d="M47.7221 29.9092H24.8181V35.0001H47.7221V29.9092Z" fill="white"/>
    <path d="M27.3636 22.2725H24.8181V24.8179H27.3636V22.2725Z" fill="#CFF4FF"/>
    <path d="M24.8182 22.2725H19.7273V42.6361H24.8182V22.2725Z" fill="white"/>
    <path d="M29.909 24.8184H27.3635V27.3638H29.909V24.8184Z" fill="#CFF4FF"/>
    <path d="M42.6248 24.8184H40.0793V27.3638H42.6248V24.8184Z" fill="#CFF4FF"/>
    <path d="M45.1702 24.8184H42.6248V27.3638H45.1702V24.8184Z" fill="#CFF4FF"/>
    <path d="M45.1702 47.7275H42.6248V50.273H45.1702V47.7275Z" fill="#CFF4FF"/>
    <path d="M45.1702 42.6367H42.6248V47.7276H45.1702V42.6367Z" fill="white"/>
    <path d="M34.9998 35H32.4543V37.5455H34.9998V35Z" fill="#A8CFD7"/>
    <path d="M32.452 37.543H29.9065V40.0884H32.452V37.543Z" fill="#A8CFD7"/>
    <path d="M29.909 40.0908H27.3635V42.6363H29.909V40.0908Z" fill="#A8CFD7"/>
    <path d="M24.8182 50.2725H22.2727V52.8179H24.8182V50.2725Z" fill="#A8CFD7"/>
    <path d="M27.3636 42.6367H24.8181V50.2731H27.3636V42.6367Z" fill="#A8CFD7"/>
    <path d="M47.7207 24.8184H45.1753V27.3638H47.7207V24.8184Z" fill="#CFF4FF"/>
    <path d="M50.2728 24.8184H47.7273V27.3638H50.2728V24.8184Z" fill="#A8CFD7"/>
    <path d="M52.8182 27.3633H50.2727V40.0906H52.8182V27.3633Z" fill="#A8CFD7"/>
    <path d="M50.2728 32.4541H47.7273V45.1814H50.2728V32.4541Z" fill="#CFF4FF"/>
    <path d="M47.7271 40.0908H45.1816V52.8181H47.7271V40.0908Z" fill="#CFF4FF"/>
    <path d="M47.7271 19.7275H45.1816V22.273H47.7271V19.7275Z" fill="#A8CFD7"/>
    <path d="M47.7271 22.2725H45.1816V24.8179H47.7271V22.2725Z" fill="#CFF4FF"/>
    <path d="M47.7271 27.3633H45.1816V29.9087H47.7271V27.3633Z" fill="#CFF4FF"/>
    <path d="M50.2728 27.3633H47.7273V29.9087H50.2728V27.3633Z" fill="#CFF4FF"/>
    <path d="M45.1817 19.7275H42.6362V22.273H45.1817V19.7275Z" fill="#CFF4FF"/>
    <path d="M45.1817 22.2725H42.6362V24.8179H45.1817V22.2725Z" fill="white"/>
    <path d="M19.7271 19.7275H17.1816V22.273H19.7271V19.7275Z" fill="white"/>
    <path d="M52.8182 19.7275H50.2727V22.273H52.8182V19.7275Z" fill="white"/>
    <path d="M22.2728 17.1816H19.7273V19.7271H22.2728V17.1816Z" fill="white"/>
    <path d="M50.2842 17.1816H47.7388V19.7271H50.2842V17.1816Z" fill="white"/>
    <path d="M24.8182 14.6367H22.2727V17.1822H24.8182V14.6367Z" fill="white"/>
    <path d="M47.7271 14.6367H45.1816V17.1822H47.7271V14.6367Z" fill="white"/>
    <path d="M37.5453 14.6367H32.4543V17.1822H37.5453V14.6367Z" fill="white"/>
    <path d="M32.4481 12.0908H24.8181V14.6363H32.4481V12.0908Z" fill="white"/>
    <path d="M45.1779 12.0908H37.5479V14.6363H45.1779V12.0908Z" fill="white"/>
    <path d="M27.3636 24.8184H24.8181V29.9093H27.3636V24.8184Z" fill="white"/>
    <path d="M27.3636 35H24.8181V40.0884H27.3636V35Z" fill="white"/>
    <path d="M29.909 27.3633H27.3635V29.9087H29.909V27.3633Z" fill="white"/>
    <path d="M22.2728 42.6426H19.7273V45.188H22.2728V42.6426Z" fill="white"/>
    <path d="M22.2728 52.8184H19.7273V55.3638H22.2728V52.8184Z" fill="white"/>
    <path d="M19.7271 52.8184H17.1816V55.3638H19.7271V52.8184Z" fill="white"/>
    <path d="M22.2728 55.3633H19.7273V57.9087H22.2728V55.3633Z" fill="white"/>
    <path d="M29.909 55.3633H27.3635V57.9087H29.909V55.3633Z" fill="white"/>
    <path d="M32.4544 50.2725H29.9089V52.8179H32.4544V50.2725Z" fill="white"/>
    <path d="M34.9974 45.1846H32.4519V47.73H34.9974V45.1846Z" fill="white"/>
    <path d="M37.5428 45.1846H34.9973V47.73H37.5428V45.1846Z" fill="white"/>
    <path d="M40.0909 50.2725H37.5454V52.8179H40.0909V50.2725Z" fill="white"/>
    <path d="M42.6338 55.3633H40.0884V57.9087H42.6338V55.3633Z" fill="white"/>
    <path d="M50.2728 55.3633H47.7273V57.9087H50.2728V55.3633Z" fill="white"/>
    <path d="M52.8182 52.8184H50.2727V55.3638H52.8182V52.8184Z" fill="white"/>
    <path d="M55.3636 45.1846H52.8181V47.73H55.3636V45.1846Z" fill="white"/>
    <path d="M17.1817 45.1816H14.6362V47.7271H17.1817V45.1816Z" fill="white"/>
    <path d="M14.6363 40.0908H12.0908V42.6363H14.6363V40.0908Z" fill="white"/>
    <path d="M57.909 40.0908H55.3635V42.6363H57.909V40.0908Z" fill="white"/>
    <path d="M50.2728 52.8184H47.7273V55.3638H50.2728V52.8184Z" fill="white"/>
    <path d="M29.909 50.2725H27.3635V55.3634H29.909V50.2725Z" fill="white"/>
    <path d="M42.6338 50.2725H40.0884V55.3634H42.6338V50.2725Z" fill="white"/>
    <path d="M32.4544 45.1816H29.9089V50.2725H32.4544V45.1816Z" fill="white"/>
    <path d="M40.0909 45.1816H37.5454V50.2725H40.0909V45.1816Z" fill="white"/>
    <path d="M37.5453 40.0977H32.4543V45.1886H37.5453V40.0977Z" fill="white"/>
    <path d="M27.3636 55.3633H22.2727V57.9087H27.3636V55.3633Z" fill="white"/>
    <path d="M47.7271 55.3633H42.6362V57.9087H47.7271V55.3633Z" fill="white"/>
    <path d="M29.909 35H27.3635V37.5455H29.909V35Z" fill="white"/>
    <path d="M14.6363 27.3633H12.0908V40.0906H14.6363V27.3633Z" fill="white"/>
    <path d="M17.1817 22.2725H14.6362V27.3634H17.1817V22.2725Z" fill="white"/>
    <path d="M55.3636 22.2725H52.8181V27.3634H55.3636V22.2725Z" fill="white"/>
    <path d="M55.3636 40.0908H52.8181V45.1817H55.3636V40.0908Z" fill="white"/>
    <path d="M17.1817 40.0908H14.6362V45.1817H17.1817V40.0908Z" fill="white"/>
    <path d="M52.8182 45.1816H50.2727V52.818H52.8182V45.1816Z" fill="white"/>
    <path d="M19.7271 45.1816H17.1816V52.818H19.7271V45.1816Z" fill="white"/>
    <path d="M19.7271 27.3633H17.1816V40.088H19.7271V27.3633Z" fill="white"/>
    <path d="M50.2728 29.9092H47.7273V32.4546H50.2728V29.9092Z" fill="white"/>
    <path d="M45.1817 27.3633H40.0908V29.9087H45.1817V27.3633Z" fill="white"/>
    <path d="M45.1817 40.0908H40.0908V42.6363H45.1817V40.0908Z" fill="white"/>
    <path d="M47.7272 37.543H37.5454V40.0884H47.7272V37.543Z" fill="white"/>
    <path d="M47.7209 35H35V37.5455H47.7209V35Z" fill="white"/>
    <path d="M50.2728 22.2725H47.7273V24.8179H50.2728V22.2725Z" fill="#A8CFD7"/>
    <path d="M45.1703 17.1816H37.5454V19.7271H45.1703V17.1816Z" fill="#CFF4FF"/>
    <path d="M32.4482 17.1816H24.8232V19.7271H32.4482V17.1816Z" fill="white"/>
    <path d="M42.6363 19.7275H22.2727V22.273H42.6363V19.7275Z" fill="white"/>
    <path d="M40.0908 27.3633H29.9089V29.9087H40.0908V27.3633Z" fill="#CFF4FF"/>
    <path d="M32.4544 24.8184H29.9089V27.3638H32.4544V24.8184Z" fill="#A8CFD7"/>
    <path d="M34.9998 24.8184H32.4543V27.3638H34.9998V24.8184Z" fill="#A8CFD7"/>
    <path d="M37.5455 24.8184H35V27.3638H37.5455V24.8184Z" fill="#A8CFD7"/>
    <path d="M40.0909 24.8184H37.5454V27.3638H40.0909V24.8184Z" fill="#A8CFD7"/>
    <path d="M42.6363 22.2725H40.0908V24.8179H42.6363V22.2725Z" fill="#A8CFD7"/>
    <path d="M32.4544 42.6367H29.9089V45.1822H32.4544V42.6367Z" fill="black"/>
    <path d="M29.909 42.6367H27.3635V45.1822H29.909V42.6367Z" fill="black"/>
    <path d="M29.909 45.1816H27.3635V47.7271H29.909V45.1816Z" fill="black"/>
    <path d="M29.909 47.7275H27.3635V50.273H29.909V47.7275Z" fill="black"/>
    <path d="M27.3636 52.8184H24.8181V55.3638H27.3636V52.8184Z" fill="black"/>
    <path d="M27.3636 50.2725H24.8181V52.8179H27.3636V50.2725Z" fill="black"/>
    <path d="M24.8182 52.8184H22.2727V55.3638H24.8182V52.8184Z" fill="black"/>
    <path d="M24.8182 17.1816H22.2727V19.7271H24.8182V17.1816Z" fill="black"/>
    <path d="M47.7271 17.1816H45.1816V19.7271H47.7271V17.1816Z" fill="black"/>
    <path d="M37.5453 17.1816H32.4543V19.7271H37.5453V17.1816Z" fill="black"/>
    <path d="M32.4545 14.6367H24.8181V17.1822H32.4545V14.6367Z" fill="black"/>
    <path d="M45.1818 14.6367H37.5454V17.1822H45.1818V14.6367Z" fill="black"/>
    <path d="M22.2728 19.7275H19.7273V22.273H22.2728V19.7275Z" fill="black"/>
    <path d="M50.2728 19.7275H47.7273V22.273H50.2728V19.7275Z" fill="black"/>
    <path d="M22.2728 50.2725H19.7273V52.8179H22.2728V50.2725Z" fill="black"/>
    <path d="M22.2728 45.1816H19.7273V50.2725H22.2728V45.1816Z" fill="black"/>
    <path d="M50.2728 45.1816H47.7273V50.2725H50.2728V45.1816Z" fill="black"/>
    <path d="M19.7271 40.0908H17.1816V45.1817H19.7271V40.0908Z" fill="black"/>
    <path d="M19.7271 22.2725H17.1816V27.3634H19.7271V22.2725Z" fill="black"/>
    <path d="M52.8182 22.2725H50.2727V27.3634H52.8182V22.2725Z" fill="black"/>
    <path d="M17.1817 27.3633H14.6362V40.0906H17.1817V27.3633Z" fill="black"/>
    <path d="M55.3636 27.3633H52.8181V40.0906H55.3636V27.3633Z" fill="black"/>
    <path d="M52.8182 40.0908H50.2727V45.1817H52.8182V40.0908Z" fill="black"/>
    <path d="M50.2728 50.2725H47.7273V52.8179H50.2728V50.2725Z" fill="black"/>
    <path d="M42.6363 45.1816H40.0908V47.7271H42.6363V45.1816Z" fill="black"/>
    <path d="M42.6363 47.7275H40.0908V50.273H42.6363V47.7275Z" fill="black"/>
    <path d="M45.1817 50.2725H42.6362V52.8179H45.1817V50.2725Z" fill="black"/>
    <path d="M45.1817 52.8184H42.6362V55.3638H45.1817V52.8184Z" fill="black"/>
    <path d="M47.7271 52.8184H45.1816V55.3638H47.7271V52.8184Z" fill="black"/>
    <path d="M42.6363 42.6367H40.0908V45.1822H42.6363V42.6367Z" fill="black"/>
    <path d="M40.0909 40.0908H37.5454V42.6363H40.0909V40.0908Z" fill="black"/>
    <path d="M40.0909 42.6367H37.5454V45.1822H40.0909V42.6367Z" fill="black"/>
    <path d="M37.5455 37.5449H35V40.0904H37.5455V37.5449Z" fill="black"/>
    <path d="M50.2728 40.0908H47.7273V45.1817H50.2728V40.0908Z" fill="#A8CFD7"/>
    <path d="M47.7271 47.7275H45.1816V52.8184H47.7271V47.7275Z" fill="#A8CFD7"/>
    <path d="M32.452 35H29.9065V37.5455H32.452V35Z" fill="#CFF4FF"/>
    <path d="M29.909 37.5449H27.3635V40.0904H29.909V37.5449Z" fill="#CFF4FF"/>
    <path d="M27.3636 40.0908H24.8181V42.6363H27.3636V40.0908Z" fill="#CFF4FF"/>
    <path d="M24.8182 42.6367H22.2727V50.2731H24.8182V42.6367Z" fill="#CFF4FF"/>
</svg>
